<?xml version="1.0" encoding="utf-8" ?>
<svg baseProfile="full" height="200mm" version="1.1" viewBox="0,0,200,200" width="200mm" xmlns="http://www.w3.org/2000/svg" xmlns:ev="http://www.w3.org/2001/xml-events" xmlns:xlink="http://www.w3.org/1999/xlink"><defs /><rect fill="#1a1a1a" height="200" width="200" x="0" y="0" /><text alignment-baseline="middle" fill="#e1ed5e" style="dominant-baseline: central; font-size:9.0px; font-family:Arial;" text-anchor="middle" x="100.0" y="100.0">2023</text><line stroke="#e1ed5e" stroke-width="0.3" x1="100.0" x2="100.0" y1="15.0" y2="10.0" /><path d="M 100.0 14.0 a86.0,86.0 0 0,1 42.46469731375804,11.215312516191453" fill="none" id="id97" stroke="none" /><text fill="#e1ed5e" style="font-size:6.75px; font-family:Arial;" text-anchor="middle"><textPath startOffset="22.20632615414155" xlink:href="#id97">January</textPath></text><path d="M 101.44485096284872 79.0497635885617 l 2.039442534220671 -29.571771994548342 a50.64201451905626,50.64201451905626 0 0,0 0.8691370887201255,0.06746176563897961 l -2.5481698123031378 29.532284966720898" fill="#ff8b0c" stroke="none" /><path d="M 102.52436894288641 79.15227682838746 l 3.546028242820469 -29.28518645159366 a50.49909255898366,50.49909255898366 0 0,0 0.8620562336245079,0.11191964030402698 l -4.049599204952823 29.219808488125494" fill="#ff890c" stroke="none" /><path d="M 103.2404852339499 79.25152402106235 l 4.432877940271761 -28.383237330534033 a49.72731397459165,49.72731397459165 0 0,0 0.8445847881856672,0.13936372673234976 l -4.920791934596304 28.30272734086206" fill="#ff780b" stroke="none" /><path d="M 104.66035177308747 79.52364482259891 l 13.981055319262428 -61.429065532203275 a84.0,84.0 0 0,0 1.4071052521499037,0.3330163514365254 l -15.036384258374856 61.17930326862588" fill="#4dd2ff" stroke="none" /><path d="M 106.0581310904928 79.89281104454417 l 8.328555900269125 -27.64282329175642 a49.87023593466425,49.87023593466425 0 0,0 0.8198064243339841,0.2547178466537601 l -8.803147697313827 27.495365310220144" fill="#ff7b0b" stroke="none" /><path d="M 109.73455568895987 81.39251694778311 l 10.77249606414388 -20.59149326876452 a44.23911070780399,44.23911070780399 0 0,0 0.6717075993507492,0.35880293686586007 l -11.12534871002294 20.403011605396905" fill="#ff0000" stroke="none" /><line stroke="#e1ed5e" stroke-width="0.3" x1="143.23703022742887" x2="145.7803849466894" y1="26.81831364943548" y2="22.513508569990506" /><path d="M 143.74570117128098 25.957352633546492 a86.0,86.0 0 0,1 28.547481713284135,27.462654790039103" fill="none" id="id98" stroke="none" /><text fill="#e1ed5e" style="font-size:6.75px; font-family:Arial;" text-anchor="middle"><textPath startOffset="19.985693538727396" xlink:href="#id98">February</textPath></text><path d="M 110.99172775467656 82.1063720568725 l 15.14105511034393 -24.64839130459849 a49.92740471869328,49.92740471869328 0 0,0 0.7284190751222053,0.4561359580162306 l -15.563093337838398 24.384111005259314" fill="#ff7d0b" stroke="none" /><path d="M 111.60114157652 82.49532879139004 l 26.02361340939879 -39.266376794631434 a68.1070780399274,68.1070780399274 0 0,0 0.9716457551642644,0.6560595512201025 l -26.6956638589696 38.81260533111266" fill="#38ff2e" stroke="none" /><path d="M 112.48926042617603 83.11751280151076 l 17.050900463867368 -23.048731388500066 a49.670145190562614,49.670145190562614 0 0,0 0.6829735936740243,0.5144015512277758 l -17.445120211299773 22.751813247766446" fill="#ff770b" stroke="none" /><path d="M 113.06298171725822 83.55741782278167 l 17.940855561769794 -22.582439315081608 a49.84165154264973,49.84165154264973 0 0,0 0.6671580408843679,0.5394620713300137 l -18.326917001218654 22.270271146487467" fill="#ff7b0b" stroke="none" /><path d="M 114.16331599549186 84.49514656593476 l 19.74124625142966 -21.611120575974773 a50.27041742286751,50.27041742286751 0 0,0 0.633867152948452,0.5891104373276754 l -20.11032128817296 21.268105552572457" fill="#ff840c" stroke="none" /><path d="M 114.68862486808459 84.99185889309783 l 20.073565382337016 -20.510218245911688 a49.69872958257713,49.69872958257713 0 0,0 0.606239776010547,0.6036363897499968 l -20.423640958514884 20.161646005511574" fill="#ff780b" stroke="none" /><path d="M 115.68641384162765 86.03803664274999 l 35.123617199833255 -31.262381655185496 a68.02132486388385,68.02132486388385 0 0,0 0.7709347032294729,0.8813116353299255 l -35.656543766640574 30.653154463652623" fill="#39ff2e" stroke="none" /><path d="M 116.15771136456269 86.58626213691792 l 22.543086409269637 -18.714720475942546 a50.29900181488203,50.29900181488203 0 0,0 0.5473046553215234,0.6709307933933011 l -22.86188955666757 18.323905512941142" fill="#ff840c" stroke="none" /><path d="M 116.60985879189232 87.15038557335679 l 22.676526817061703 -17.54287196450518 a49.670145190562614,49.670145190562614 0 0,0 0.517335990749414,0.6807535223830181 l -22.975138748035228 17.14993366624113" fill="#ff770b" stroke="none" /><path d="M 117.04232023915458 87.72973835380427 l 28.393557131658632 -20.443013051193624 a55.98729582577133,55.98729582577133 0 0,0 0.5563734328640582,0.7869507640881958 l -28.741243184326574 19.951235786773637" fill="#fff617" stroke="none" /><path d="M 117.65298651832404 88.62581576622439 l 24.148708871482295 -15.559512461358198 a49.72731397459165,49.72731397459165 0 0,0 0.4574259415573309,0.7235379884662241 l -24.412962409285583 15.141526825177767" fill="#ff780b" stroke="none" /><line stroke="#e1ed5e" stroke-width="0.3" x1="172.23445277983987" x2="176.4835382374775" y1="55.19839476539836" y2="52.563006222186495" /><path d="M 173.08426987136738 54.67131705675599 a86.0,86.0 0 0,1 12.851231095245387,41.99856678651699" fill="none" id="id99" stroke="none" /><text fill="#e1ed5e" style="font-size:6.75px; font-family:Arial;" text-anchor="middle"><textPath startOffset="22.20632615414155" xlink:href="#id99">March</textPath></text><line stroke="#e1ed5e" stroke-width="0.3" x1="184.98032266829074" x2="189.97916517819016" y1="98.17113171792111" y2="98.06355123074" /><path d="M 185.9800911702706 98.14961562048488 a86.0,86.0 0 0,1 -9.607161424134198,41.387399972396054" fill="none" id="id100" stroke="none" /><text fill="#e1ed5e" style="font-size:6.75px; font-family:Arial;" text-anchor="middle"><textPath startOffset="21.466115282336823" xlink:href="#id100">April</textPath></text><line stroke="#e1ed5e" stroke-width="0.3" x1="174.80103733775053" x2="179.2010983576182" y1="140.37084112569926" y2="142.7455964860345" /><path d="M 175.68104954172406 140.8457921977663 a86.0,86.0 0 0,1 -30.038265399797805,32.042727171017184" fill="none" id="id101" stroke="none" /><text fill="#e1ed5e" style="font-size:6.75px; font-family:Arial;" text-anchor="middle"><textPath startOffset="22.206326154141568" xlink:href="#id101">May</textPath></text><line stroke="#e1ed5e" stroke-width="0.3" x1="143.8653032363475" x2="146.44561519142675" y1="172.8068346515853" y2="177.08958963109032" /><path d="M 144.38136562736335 173.6633856474863 a86.0,86.0 0 0,1 -40.68145358897372,12.25698825130547" fill="none" id="id102" stroke="none" /><text fill="#e1ed5e" style="font-size:6.75px; font-family:Arial;" text-anchor="middle"><textPath startOffset="21.466115282336833" xlink:href="#id102">June</textPath></text><line stroke="#e1ed5e" stroke-width="0.3" x1="102.19456741930631" x2="102.32365962044197" y1="184.97166512339345" y2="189.96999836594603" /><path d="M 102.22038585953345 185.97133177190398 a86.0,86.0 0 0,1 -42.740103519485714,-10.115201625700543" fill="none" id="id103" stroke="none" /><text fill="#e1ed5e" style="font-size:6.75px; font-family:Arial;" text-anchor="middle"><textPath startOffset="22.20632615414155" xlink:href="#id103">July</textPath></text><line stroke="#e1ed5e" stroke-width="0.3" x1="58.666819895761336" x2="56.23545636021788" y1="174.27360380694188" y2="178.64263932499728" /><path d="M 58.180547188652646 175.14741091055294 a86.0,86.0 0 0,1 -31.652253787137756,-30.449443065178592" fill="none" id="id104" stroke="none" /><text fill="#e1ed5e" style="font-size:6.75px; font-family:Arial;" text-anchor="middle"><textPath startOffset="22.20632615414155" xlink:href="#id104">August</textPath></text><line stroke="#e1ed5e" stroke-width="0.3" x1="26.63291911575756" x2="22.317208475507996" y1="142.92168965132927" y2="145.44649492493687" /><path d="M 25.769776987707644 143.4266507060508 a86.0,86.0 0 0,1 -11.730757126820373,-40.83630448921669" fill="none" id="id105" stroke="none" /><text fill="#e1ed5e" style="font-size:6.75px; font-family:Arial;" text-anchor="middle"><textPath startOffset="21.46611528233685" xlink:href="#id105">September</textPath></text><line stroke="#e1ed5e" stroke-width="0.3" x1="15.007084014347285" x2="10.007500721073583" y1="101.09737516637583" y2="101.16192664675087" /><path d="M 14.007167355692545 101.11028546245083 a86.0,86.0 0 0,1 10.666146001902534,-42.60595125391555" fill="none" id="id106" stroke="none" /><text fill="#e1ed5e" style="font-size:6.75px; font-family:Arial;" text-anchor="middle"><textPath startOffset="22.20632615414155" xlink:href="#id106">October</textPath></text><line stroke="#e1ed5e" stroke-width="0.3" x1="26.266209847984257" x2="21.92892807433627" y1="57.711370442889674" y2="55.22380399835377" /><path d="M 25.39875349325466 57.213857153982495 a86.0,86.0 0 0,1 29.58750427330802,-30.492523968695096" fill="none" id="id107" stroke="none" /><text fill="#e1ed5e" style="font-size:6.75px; font-family:Arial;" text-anchor="middle"><textPath startOffset="21.46611528233685" xlink:href="#id107">November</textPath></text><line stroke="#e1ed5e" stroke-width="0.3" x1="56.762969772571076" x2="54.21961505331055" y1="26.818313649435495" y2="22.513508569990535" /><path d="M 56.25429882871897 25.957352633546506 a86.0,86.0 0 0,1 42.265352541879196,-11.944610805530505" fill="none" id="id108" stroke="none" /><text fill="#e1ed5e" style="font-size:6.75px; font-family:Arial;" text-anchor="middle"><textPath startOffset="22.20632615414155" xlink:href="#id108">December</textPath></text></svg>