<?xml version="1.0" encoding="utf-8" ?>
<svg baseProfile="full" height="200mm" version="1.1" viewBox="0,0,200,200" width="200mm" xmlns="http://www.w3.org/2000/svg" xmlns:ev="http://www.w3.org/2001/xml-events" xmlns:xlink="http://www.w3.org/1999/xlink"><defs /><rect fill="#1a1a1a" height="200" width="200" x="0" y="0" /><text alignment-baseline="middle" fill="#e1ed5e" style="dominant-baseline: central; font-size:9.0px; font-family:Arial;" text-anchor="middle" x="100.0" y="100.0">2022</text><line stroke="#e1ed5e" stroke-width="0.3" x1="100.0" x2="100.0" y1="15.0" y2="10.0" /><path d="M 100.0 14.0 a86.0,86.0 0 0,1 42.46469731375804,11.215312516191453" fill="none" id="id85" stroke="none" /><text fill="#e1ed5e" style="font-size:6.75px; font-family:Arial;" text-anchor="middle"><textPath startOffset="22.20632615414155" xlink:href="#id85">January</textPath></text><path d="M 102.52436894288641 79.15227682838746 l 1.4849672211743663 -12.263732539255457 a33.35330981730627,33.35330981730627 0 0,0 0.5693652535723314,0.07391995080588072 l -1.6958472032545437 12.23635426528544" fill="#ff6509" stroke="none" /><line stroke="#e1ed5e" stroke-width="0.3" x1="143.23703022742887" x2="145.7803849466894" y1="26.81831364943548" y2="22.513508569990506" /><path d="M 143.74570117128098 25.957352633546492 a86.0,86.0 0 0,1 28.547481713284135,27.462654790039103" fill="none" id="id86" stroke="none" /><text fill="#e1ed5e" style="font-size:6.75px; font-family:Arial;" text-anchor="middle"><textPath startOffset="19.985693538727396" xlink:href="#id86">February</textPath></text><line stroke="#e1ed5e" stroke-width="0.3" x1="172.23445277983987" x2="176.4835382374775" y1="55.19839476539836" y2="52.563006222186495" /><path d="M 173.08426987136738 54.67131705675599 a86.0,86.0 0 0,1 12.851231095245387,41.99856678651699" fill="none" id="id87" stroke="none" /><text fill="#e1ed5e" style="font-size:6.75px; font-family:Arial;" text-anchor="middle"><textPath startOffset="22.20632615414155" xlink:href="#id87">March</textPath></text><path d="M 118.21658344932153 89.55222093294921 l 12.87746863462125 -7.385630110700586 a35.84509112695982,35.84509112695982 0 0,0 0.3023659043008259,0.5378752048569068 l -13.002692180214508 7.162871395908885" fill="#ff8a0c" stroke="none" /><path d="M 118.73160827565052 90.50648371742162 l 9.592177466184799 -4.861488219299441 a31.753787065456088,31.753787065456088 0 0,0 0.24290133061310012,0.48967426047590584 l -9.674438809751306 4.695654370324585" fill="#ff4d07" stroke="none" /><path d="M 120.45610955862082 95.25157060432595 l 8.843308625333679 -2.0527767761126263 a30.07843598509393,30.07843598509393 0 0,0 0.11273055915365662,0.5053489924445274 l -8.877333571489372 1.9002496141181349" fill="#ff3404" stroke="none" /><path d="M 120.87857604477298 97.74499172005257 l 15.306085034282274 -1.6531466711077252 a36.39510094130189,36.39510094130189 0 0,0 0.06191131508136801,0.6234384938603973 l -15.33227347504587 1.389432646542893" fill="#ff920d" stroke="none" /><path d="M 120.98425023603335 99.18683210126433 l 11.971982820548336 -0.4639304242172942 a32.98096841219519,32.98096841219519 0 0,0 0.017100326724795233,0.5674765930552024 l -11.978194841728776 0.2577836837370927" fill="#ff6008" stroke="none" /><line stroke="#e1ed5e" stroke-width="0.3" x1="184.98032266829074" x2="189.97916517819016" y1="98.17113171792111" y2="98.06355123074" /><path d="M 185.9800911702706 98.14961562048488 a86.0,86.0 0 0,1 -9.607161424134198,41.387399972396054" fill="none" id="id88" stroke="none" /><text fill="#e1ed5e" style="font-size:6.75px; font-family:Arial;" text-anchor="middle"><textPath startOffset="21.466115282336823" xlink:href="#id88">April</textPath></text><path d="M 120.70491114924044 103.5080841355445 l 14.586157463854653 2.471368615333549 a35.794041110975,35.794041110975 0 0,0 -0.10815520245470009,0.6065918127085869 l -14.541455819060765 -2.722079178775354" fill="#ff890c" stroke="none" /><path d="M 119.67450827220406 107.3425965602758 l 29.895750559161936 11.157200585932324 a52.909857824978786,52.909857824978786 0 0,0 -0.3257879658411436,0.8505295754248482 l -29.699268313727284 -11.670153728190316" fill="#94ff23" stroke="none" /><path d="M 118.64920377521936 109.65438752849418 l 13.138647883228494 6.801662944648996 a35.7948196005249,35.7948196005249 0 0,0 -0.28797357095481513,0.5447374705727759 l -13.019621804048786 -7.026815430307907" fill="#ff890c" stroke="none" /><line stroke="#e1ed5e" stroke-width="0.3" x1="174.80103733775053" x2="179.2010983576182" y1="140.37084112569926" y2="142.7455964860345" /><path d="M 175.68104954172406 140.8457921977663 a86.0,86.0 0 0,1 -30.038265399797805,32.042727171017184" fill="none" id="id89" stroke="none" /><text fill="#e1ed5e" style="font-size:6.75px; font-family:Arial;" text-anchor="middle"><textPath startOffset="22.206326154141568" xlink:href="#id89">May</textPath></text><path d="M 118.48025628344425 109.97397251340804 l 28.27224931406117 15.258805572046457 a53.1271104950624,53.1271104950624 0 0,0 -0.4412676841911987,0.8010290216701971 l -28.005405220418464 -15.74320511211446" fill="#92ff23" stroke="none" /><path d="M 117.14729908036423 112.12312394758627 l 15.546171278453572 10.99112813253007 a40.0391265305084,40.0391265305084 0 0,0 -0.40271774375588065,0.5593397233876766 l -15.354673742322088 -11.257101461368878" fill="#ffc512" stroke="none" /><path d="M 115.56566222782051 114.09645910891815 l 19.709793511791673 17.849436420868187 a47.59094471469716,47.59094471469716 0 0,0 -0.5551225168924799,0.6024758540581565 l -19.39962458690347 -18.186063529727676" fill="#d5ff1c" stroke="none" /><path d="M 115.07121518719521 114.62390073753431 l 10.8866112171167 10.56349603066551 a36.16923703363281,36.16923703363281 0 0,0 -0.4374055632990268,0.4430895263032679 l -10.703165028762138 -10.749326050949444" fill="#ff8e0d" stroke="none" /><path d="M 113.75828350139079 115.86535959552629 l 6.894903118543894 7.950855013342072 a31.524057414195966,31.524057414195966 0 0,0 -0.41301697681012417,0.3519820278495444 l -6.757020665156723 -8.068361431414564" fill="#ff4a06" stroke="none" /><path d="M 112.04921762599082 117.19931262002967 l 11.269312201453465 16.086058828203342 a40.64074046766686,40.64074046766686 0 0,0 -0.5764078453391789,0.3964585719916337 l -10.990747471491403 -16.277658189560068" fill="#ffcd13" stroke="none" /><path d="M 111.1453310114006 117.79835938074945 l 8.632931616201692 13.78622306124607 a37.266144428980326,37.266144428980326 0 0,0 -0.5466070296406027,0.3357706820382125 l -8.394345386628782 -13.93278221011266" fill="#ff9e0e" stroke="none" /><line stroke="#e1ed5e" stroke-width="0.3" x1="143.8653032363475" x2="146.44561519142675" y1="172.8068346515853" y2="177.08958963109032" /><path d="M 144.38136562736335 173.6633856474863 a86.0,86.0 0 0,1 -40.68145358897372,12.25698825130547" fill="none" id="id90" stroke="none" /><text fill="#e1ed5e" style="font-size:6.75px; font-family:Arial;" text-anchor="middle"><textPath startOffset="21.466115282336833" xlink:href="#id90">June</textPath></text><line stroke="#e1ed5e" stroke-width="0.3" x1="102.19456741930631" x2="102.32365962044197" y1="184.97166512339345" y2="189.96999836594603" /><path d="M 102.22038585953345 185.97133177190398 a86.0,86.0 0 0,1 -42.740103519485714,-10.115201625700543" fill="none" id="id91" stroke="none" /><text fill="#e1ed5e" style="font-size:6.75px; font-family:Arial;" text-anchor="middle"><textPath startOffset="22.20632615414155" xlink:href="#id91">July</textPath></text><path d="M 100.18074693466247 120.99922214144158 l 0.24062314091276782 27.955654118476133 a48.95668965896739,48.95668965896739 0 0,0 -0.8427401511504273,0.0 l 0.24062314091274858 -27.955654118476133" fill="#c4ff1e" stroke="none" /><path d="M 99.09653310690486 120.98055641714683 l -0.3804924119959404 8.835899330886141 a29.844087938342803,29.844087938342803 0 0,0 -0.5130510396694682,-0.026518878473110304 l 0.5325315200788976 -8.828040645650828" fill="#ff3004" stroke="none" /><path d="M 93.76903079525671 120.05430185196036 l -5.026821294659212 16.178765820607396 a37.941705811590914,37.941705811590914 0 0,0 -0.62202473532237,-0.1991526773565016 l 5.304567375072522 -16.089840296591188" fill="#ffa80f" stroke="none" /><path d="M 90.7491055286396 118.85261126421891 l -5.90851769541987 12.041104522850404 a34.41263506874388,34.41263506874388 0 0,0 -0.5295385023239897,-0.26552159810423037 l 6.11491010542662 -11.93761508383687" fill="#ff750a" stroke="none" /><path d="M 90.10565033884886 118.52300852407294 l -7.238750478944104 13.551515907263685 a36.36369395299302,36.36369395299302 0 0,0 -0.549571758898583,-0.29967034167201506 l 7.470945049711328 -13.424904913831904" fill="#ff910d" stroke="none" /><line stroke="#e1ed5e" stroke-width="0.3" x1="58.666819895761336" x2="56.23545636021788" y1="174.27360380694188" y2="178.64263932499728" /><path d="M 58.180547188652646 175.14741091055294 a86.0,86.0 0 0,1 -31.652253787137756,-30.449443065178592" fill="none" id="id92" stroke="none" /><text fill="#e1ed5e" style="font-size:6.75px; font-family:Arial;" text-anchor="middle"><textPath startOffset="22.20632615414155" xlink:href="#id92">August</textPath></text><path d="M 87.36589467227662 116.77436683061367 l -8.885985210201987 11.797968411760536 a35.76999633719751,35.76999633719751 0 0,0 -0.488637349096913,-0.3746662827220307 l 9.087751287792386 -11.643262787211139" fill="#ff890c" stroke="none" /><path d="M 86.51685102203217 116.09983520530335 l -5.830682554747761 6.962248093473523 a30.081286118679202,30.081286118679202 0 0,0 -0.39411430096247646,-0.3358727574073891 l 5.949662332287294 -6.860850945843182" fill="#ff3404" stroke="none" /><path d="M 83.95833913139862 113.55231037782056 l -6.795964792027468 5.741364621325956 a29.896538943290828,29.896538943290828 0 0,0 -0.32872525863545327,-0.39597075039697116 l 6.893786050556458 -5.623532613815224" fill="#ff3104" stroke="none" /><path d="M 83.50135304334701 112.99209946851258 l -27.739736401094746 21.844058818896897 a56.30801440587743,56.30801440587743 0 0,0 -0.5930928058365181,-0.7666524012584923 l 28.11163602414933 -21.36332842352515" fill="#6dff28" stroke="none" /><path d="M 82.85270091963577 112.12312394758628 l -26.441359398654527 18.694015648192416 a53.38227459434681,53.38227459434681 0 0,0 -0.5240082694524058,-0.7548729945296921 l 26.759228575269066 -18.23610139147571" fill="#8fff24" stroke="none" /><path d="M 82.05923443525364 110.91462005526583 l -15.376875658665819 9.354826852048864 a38.99891914682334,38.99891914682334 0 0,0 -0.343968840623337,-0.5765115619354613 l 15.535625374987388 -9.088753196227293" fill="#ffb610" stroke="none" /><line stroke="#e1ed5e" stroke-width="0.3" x1="26.63291911575756" x2="22.317208475507996" y1="142.92168965132927" y2="145.44649492493687" /><path d="M 25.769776987707644 143.4266507060508 a86.0,86.0 0 0,1 -11.730757126820373,-40.83630448921669" fill="none" id="id93" stroke="none" /><text fill="#e1ed5e" style="font-size:6.75px; font-family:Arial;" text-anchor="middle"><textPath startOffset="21.46611528233685" xlink:href="#id93">September</textPath></text><path d="M 81.51974371655577 109.97397251340807 l -27.25452867252745 14.709531928364456 a51.970625804352004,51.970625804352004 0 0,0 -0.41810985122039446,-0.7909062696975436 l 27.50369103197273 -14.238210643580787" fill="#9fff22" stroke="none" /><path d="M 80.58989483394504 108.01547362559985 l -8.76544864800121 3.619723945518607 a30.483432471553062,30.483432471553062 0 0,0 -0.19610628739848926,-0.48671972276347125 l 8.826457549657086 -3.4683048549123305" fill="#ff3a05" stroke="none" /><path d="M 79.86692584326677 105.97154293290107 l -16.169296309521435 4.79587202408503 a37.86554273115766,37.86554273115766 0 0,0 -0.17996476061301883,-0.6264809408524769 l 16.24945370702056 -4.516833607727958" fill="#ffa60f" stroke="none" /><path d="M 79.67330655649465 105.27499134158121 l -19.83616860804409 5.147694973036065 a41.49322689529823,41.49322689529823 0 0,0 -0.17345885022834098,-0.692881882178499 l 19.92183877256749 -4.805485251460174" fill="#ffd914" stroke="none" /><line stroke="#e1ed5e" stroke-width="0.3" x1="15.007084014347285" x2="10.007500721073583" y1="101.09737516637583" y2="101.16192664675087" /><path d="M 14.007167355692545 101.11028546245083 a86.0,86.0 0 0,1 10.666146001902534,-42.60595125391555" fill="none" id="id94" stroke="none" /><text fill="#e1ed5e" style="font-size:6.75px; font-family:Arial;" text-anchor="middle"><textPath startOffset="22.20632615414155" xlink:href="#id94">October</textPath></text><path d="M 79.21141760316559 97.0276538004421 l -5.700007213460557 -0.8149855750126583 a26.757975661721844,26.757975661721844 0 0,0 0.0691172611020475,-0.45539639295667544 l 5.685134058919208 0.9129810803614258" fill="#ff0000" stroke="none" /><path d="M 79.32604984820605 96.31383870115002 l -14.564498998274754 -2.5968473441405275 a35.794196402627485,35.794196402627485 0 0,0 0.11337262199757155,-0.6056410800697077 l 14.517640652367321 2.847166501672808" fill="#ff890c" stroke="none" /><path d="M 79.62865764111835 94.90015583598534 l -21.158349539401627 -5.296866721777644 a42.81129414545988,42.81129414545988 0 0,0 0.18511535932319015,-0.7133249927797816 l 21.06403784820813 5.66028814010629" fill="#ffeb16" stroke="none" /><path d="M 79.91906864156998 93.8553929516997 l -14.211044370800732 -4.348467799919693 a35.861458687349824,35.861458687349824 0 0,0 0.18570176077725714,-0.588725329246184 l 14.13408712625527 4.592443295592291" fill="#ff8a0c" stroke="none" /><path d="M 80.52162464483688 92.15188598940014 l -13.663875345851018 -5.5053693948062445 a35.7312790225501,35.7312790225501 0 0,0 0.2347686478538086,-0.5685109024601018 l 13.56708501111101 5.7397548677196575" fill="#ff880c" stroke="none" /><path d="M 80.803312248108 91.48605970444005 l -13.564121799041459 -6.015835890613999 a35.83831801930499,35.83831801930499 0 0,0 0.2549600798102253,-0.5617707396225633 l 13.45855940226788 6.248428639078633" fill="#ff890c" stroke="none" /><path d="M 81.43458229118936 90.18545643968196 l -27.592199176179722 -14.58652021662141 a52.21051148904609,52.21051148904609 0 0,0 0.42686295039667327,-0.7909122178382847 l 27.337028126564576 15.059313417792167" fill="#9cff22" stroke="none" /><line stroke="#e1ed5e" stroke-width="0.3" x1="26.266209847984243" x2="21.928928074336255" y1="57.711370442889674" y2="55.22380399835377" /><path d="M 25.398753493254645 57.213857153982495 a86.0,86.0 0 0,1 29.58750427330803,-30.492523968695096" fill="none" id="id95" stroke="none" /><text fill="#e1ed5e" style="font-size:6.75px; font-family:Arial;" text-anchor="middle"><textPath startOffset="21.46611528233685" xlink:href="#id95">November</textPath></text><path d="M 82.15384107792192 88.93136811851018 l -12.817906508974605 -7.949984602214417 a36.08313569680588,36.08313569680588 0 0,0 0.3319174313111954,-0.5250136661907713 l 12.679161481417447 8.169445916119404" fill="#ff8d0d" stroke="none" /><path d="M 82.7489923806493 88.02491185347247 l -51.75302285805211 -35.92526443958256 a84.0,84.0 0 0,0 0.834749520784487,-1.1806939986728553 l 51.12696071746375 36.810784938587204" fill="#4dd2ff" stroke="none" /><path d="M 84.80347519578584 85.50635884689758 l -6.94697211211844 -6.625654364459238 a30.59998527518814,30.59998527518814 0 0,0 0.3668147535201534,-0.37803484742965743 l 6.831893094895168 6.744253407439019" fill="#ff3c05" stroke="none" /><path d="M 85.31137513191541 84.99185889309783 l -10.758884227489162 -10.992918267647033 a36.38173728353475,36.38173728353475 0 0,0 0.45133581851672777,-0.4341846998201871 l 10.568065165360006 11.176486054229533" fill="#ff910d" stroke="none" /><path d="M 85.83668400450813 84.49514656593479 l -16.238468174342767 -17.77656229071329 a45.076835662618805,45.076835662618805 0 0,0 0.5773892146279299,-0.5183857378127031 l 15.930067972118865 18.05344703729527" fill="#f6ff19" stroke="none" /><path d="M 86.65592168130627 83.78471172551755 l -6.277513154284425 -7.62822901758434 a30.879121891490648,30.879121891490648 0 0,0 0.41333410566716927,-0.3342207679892103 l 6.1452756500527554 7.735155882837685" fill="#ff4006" stroke="none" /><path d="M 87.51073957382395 83.11751280151077 l -7.143941354624636 -9.656896753744435 a33.01214189854565,33.01214189854565 0 0,0 0.4597407388296779,-0.3340211986163676 l 6.976655299441177 9.77843718717747" fill="#ff6008" stroke="none" /><path d="M 88.09926311788651 82.69761687909137 l -9.282999262727264 -13.496476003618257 a37.38074906187255,37.38074906187255 0 0,0 0.5332903304049603,-0.360080011646174 l 9.049304237915765 13.654267927563097" fill="#ffa00e" stroke="none" /><path d="M 89.00827224532344 82.1063720568725 l -5.134919516326214 -8.359226264856595 a30.810405811495066,30.810405811495066 0 0,0 0.45428906640319366,-0.27370407943286984 l 4.990268383705371 8.446376953748084" fill="#ff3f05" stroke="none" /><line stroke="#e1ed5e" stroke-width="0.3" x1="56.762969772571076" x2="54.21961505331055" y1="26.818313649435495" y2="22.513508569990535" /><path d="M 56.25429882871897 25.957352633546506 a86.0,86.0 0 0,1 42.265352541879196,-11.944610805530505" fill="none" id="id96" stroke="none" /><text fill="#e1ed5e" style="font-size:6.75px; font-family:Arial;" text-anchor="middle"><textPath startOffset="22.20632615414155" xlink:href="#id96">December</textPath></text><path d="M 89.94658935756843 81.56283822128135 l -11.599735522906682 -21.272999585188856 a45.230030448863005,45.230030448863005 0 0,0 0.6867532978235975,-0.36683982792452363 l 11.23183717855478 21.46951813961513" fill="#f4ff19" stroke="none" /><path d="M 90.91171255644093 81.06846463323043 l -7.036257880222698 -14.657014947689833 a37.2584443331396,37.2584443331396 0 0,0 0.5805607047087574,-0.2725810353299149 l 6.782918964214333 14.775960965659754" fill="#ff9e0e" stroke="none" /><path d="M 91.56875222667455 80.76684994638697 l -3.860203268866144 -8.80579846584995 a30.614741592894227,30.614741592894227 0 0,0 0.4844655182081601,-0.2074228516730626 l 3.7080539928676757 8.8709408454858" fill="#ff3c05" stroke="none" /><path d="M 92.57280143429618 80.3572730644239 l -6.367230552110718 -16.839427405172184 a39.00299809025697,39.00299809025697 0 0,0 0.6300241095273279,-0.23204319653109312 l 6.076424116810821 16.9465338695096" fill="#ffb610" stroke="none" /><path d="M 98.55514903715128 79.0497635885617 l -1.0123148686883539 -14.678493745832643 a35.71335991674966,35.71335991674966 0 0,0 0.6136540772101466,-0.03701728975390726 l 0.7594987426385843 14.693744304966858" fill="#ff880c" stroke="none" /><path d="M 99.63851952072746 79.00311137660856 l -0.41943501324156796 -24.363225022571527 a45.366835232150855,45.366835232150855 0 0,0 0.7809154925140976,-0.0067215861878885015 l 5.9681533544808995e-15 24.366835232150855" fill="#f2ff19" stroke="none" /></svg>