<?xml version="1.0" encoding="utf-8" ?>
<svg baseProfile="full" height="200mm" version="1.1" viewBox="0,0,200,200" width="200mm" xmlns="http://www.w3.org/2000/svg" xmlns:ev="http://www.w3.org/2001/xml-events" xmlns:xlink="http://www.w3.org/1999/xlink"><defs /><rect fill="#1a1a1a" height="200" width="200" x="0" y="0" /><text alignment-baseline="middle" fill="#e1ed5e" style="dominant-baseline: central; font-size:9.0px; font-family:Arial;" text-anchor="middle" x="100.0" y="100.0">2023</text><line stroke="#e1ed5e" stroke-width="0.3" x1="100.0" x2="100.0" y1="15.0" y2="10.0" /><path d="M 100.0 14.0 a86.0,86.0 0 0,1 42.46469731375804,11.215312516191453" fill="none" id="id97" stroke="none" /><text fill="#e1ed5e" style="font-size:6.75px; font-family:Arial;" text-anchor="middle"><textPath startOffset="22.20632615414155" xlink:href="#id97">January</textPath></text><path d="M 101.44485096284872 79.0497635885617 l 1.7767741808037325 -25.763099513174723 a46.82429520849145,46.82429520849145 0 0,0 0.8036159699682971,0.062376065793689775 l -2.219980340134371 25.728698185192567" fill="#ffd413" stroke="none" /><path d="M 102.52436894288641 79.15227682838746 l 3.0799890806247507 -25.4363609984183 a46.62215435084691,46.62215435084691 0 0,0 0.7958740790482124,0.10332729719946929 l -3.517377888180809 25.379575378054696" fill="#ffd113" stroke="none" /><path d="M 103.2404852339499 79.25152402106235 l 3.8504055098386587 -24.65372944553637 a45.95259501863289,45.95259501863289 0 0,0 0.7804737402511697,0.1287848544985016 l -4.2742084562287035 24.583798328098244" fill="#ffc612" stroke="none" /><path d="M 104.66035177308747 79.52364482259891 l 12.237760724836734 -53.7694893816555 a76.14454438947084,76.14454438947084 0 0,0 1.2755165277736435,0.3018735518378349 l -13.161500939572901 53.55086991767679" fill="#41ffcd" stroke="none" /><path d="M 106.0581310904928 79.89281104454417 l 7.244904385150068 -24.046138860387927 a46.113849438965445,46.113849438965445 0 0,0 0.7580559689022148,0.23553167956529467 l -7.657745726763002 23.91786704594011" fill="#ffc912" stroke="none" /><path d="M 109.73455568895987 81.39251694778311 l 9.383980853312423 -17.937363580791843 a41.24371776341618,41.24371776341618 0 0,0 0.626226843259692,0.33450869206034617 l -9.691352743100426 17.773176162229742" fill="#ff790b" stroke="none" /><line stroke="#e1ed5e" stroke-width="0.3" x1="143.23703022742887" x2="145.7803849466894" y1="26.81831364943548" y2="22.513508569990506" /><path d="M 143.74570117128098 25.957352633546492 a86.0,86.0 0 0,1 28.547481713284135,27.462654790039103" fill="none" id="id98" stroke="none" /><text fill="#e1ed5e" style="font-size:6.75px; font-family:Arial;" text-anchor="middle"><textPath startOffset="19.985693538727396" xlink:href="#id98">February</textPath></text><path d="M 110.99172775467656 82.1063720568725 l 13.176806811696878 -21.450756771760137 a46.17465399631134,46.17465399631134 0 0,0 0.6736680776336824,0.42185088841178375 l -13.544094041702824 21.22076154202541" fill="#ffca12" stroke="none" /><path d="M 111.60114157652 82.49532879139004 l 22.712425207060704 -34.27020806335187 a62.11327546537437,62.11327546537437 0 0,0 0.8861355116409276,0.5983226530836435 l -23.298965413108174 33.87417349796956" fill="#51ff2b" stroke="none" /><path d="M 112.48926042617603 83.11751280151076 l 14.854515712387848 -20.07974554110003 a45.977045823013256,45.977045823013256 0 0,0 0.6321928009629596,0.4761545109540409 l -15.197954667109189 19.821074440640142" fill="#ffc712" stroke="none" /><path d="M 113.06298171725822 83.55741782278167 l 15.571124223933692 -19.599620912387106 a46.032080407078766,46.032080407078766 0 0,0 0.6161648266398055,0.4982291050845869 l -15.90619244913799 19.32868571003839" fill="#ffc812" stroke="none" /><path d="M 114.16331599549186 84.49514656593476 l 17.186939892951187 -18.81487245678323 a46.48313812011655,46.48313812011655 0 0,0 0.5861127862229566,0.5447279579152257 l -17.508260562968992 18.516239912793363" fill="#ffcf13" stroke="none" /><path d="M 114.68862486808459 84.99185889309783 l 17.44332852898654 -17.822766820460053 a45.93833850332952,45.93833850332952 0 0,0 0.5603694154451468,0.5579630110904116 l -17.74753374459901 17.519867958719523" fill="#ffc612" stroke="none" /><path d="M 115.68641384162765 86.03803664274999 l 30.65753246078002 -27.28726585710805 a62.04240702663862,62.04240702663862 0 0,0 0.7031713178835655,0.8038463717939663 l -31.122695642241432 26.755503929111136" fill="#52ff2b" stroke="none" /><path d="M 116.15771136456269 86.58626213691792 l 19.482735805279297 -16.174092051233565 a46.32149774677811,46.32149774677811 0 0,0 0.5040253373532394,0.6178754669683445 l -19.758259634708946 15.836332414657118" fill="#ffcc13" stroke="none" /><path d="M 116.60985879189232 87.15038557335679 l 19.69055160111641 -15.23288060978407 a45.89494876532514,45.89494876532514 0 0,0 0.4780156912932488,0.6290126173724065 l -19.949843232633775 14.89168321653063" fill="#ffc512" stroke="none" /><path d="M 117.04232023915458 87.72973835380427 l 24.780911393071158 -17.841952407723323 a51.53569771907477,51.53569771907477 0 0,0 0.5121357020748915,0.7243796311229582 l -25.084359714949933 17.41274627626857" fill="#e2ff1b" stroke="none" /><path d="M 117.65298651832404 88.62581576622439 l 21.168346417180846 -13.639203305541162 a46.181873576993,46.181873576993 0 0,0 0.42481254898729154,0.6719514335435884 l -21.399986562414092 13.272804224283368" fill="#ffca12" stroke="none" /><line stroke="#e1ed5e" stroke-width="0.3" x1="172.23445277983987" x2="176.4835382374775" y1="55.19839476539836" y2="52.563006222186495" /><path d="M 173.08426987136738 54.67131705675599 a86.0,86.0 0 0,1 12.851231095245387,41.99856678651699" fill="none" id="id99" stroke="none" /><text fill="#e1ed5e" style="font-size:6.75px; font-family:Arial;" text-anchor="middle"><textPath startOffset="22.20632615414155" xlink:href="#id99">March</textPath></text><path d="M 118.03404312379186 89.2402003453031 l 22.618655121749065 -13.495154464149474 a47.33861715291596,47.33861715291596 0 0,0 0.41148602786751554,0.7033630067812766 l -22.847600824086907 13.103812045014301" fill="#ffdc14" stroke="none" /><path d="M 118.73160827565052 90.50648371742162 l 24.684287365914585 -12.51044120630992 a48.67354660934495,48.67354660934495 0 0,0 0.3723294236588981,0.7505933982469435 l -24.895976802526892 12.083688219564028" fill="#fff116" stroke="none" /><path d="M 119.04729006885535 91.15688171328212 l 23.792326580508 -11.046104590578018 a47.23149310922915,47.23149310922915 0 0,0 0.33601312556573704,0.7403603819564765 l -23.978942023037085 10.63492219977948" fill="#ffda14" stroke="none" /><path d="M 119.34039704204932 91.81776055985345 l 24.29663867671774 -10.279050363413056 a47.381537623128764,47.381537623128764 0 0,0 0.31131545876083233,0.7538750767100418 l -24.469975822364773 9.859300716249711" fill="#ffdd14" stroke="none" /><path d="M 119.61058180528143 92.48833698450437 l 52.637970551681704 -20.1625173862679 a77.36739351035548,77.36739351035548 0 0,0 0.4656611209189557,1.247740291919253 l -52.977236261102284 19.253453957319316" fill="#43ffdd" stroke="none" /><path d="M 119.97218684219823 93.5106431181261 l 36.89976477572309 -11.989460361993647 a59.79870874495067,59.79870874495067 0 0,0 0.3096562692264571,0.9816949946541323 l -37.100676528717756 11.352515200913095" fill="#6fff27" stroke="none" /><path d="M 120.37134235888165 94.90015583598534 l 39.6286196499734 -9.920788777169614 a61.85155499272301,61.85155499272301 0 0,0 0.24966586267843155,1.0350261842511075 l -39.79351831291265 9.2371773612591" fill="#55ff2b" stroke="none" /><path d="M 120.53481517161879 95.60439243477599 l 25.718580660263946 -5.50522548035033 a47.301195766884845,47.301195766884845 0 0,0 0.16357362574541645,0.7976430911254333 l -25.80953358192436 5.061706733061485" fill="#ffdc14" stroke="none" /><path d="M 120.67395015179393 96.31383870115 l 25.420496409320087 -4.532469575170178 a46.8214042636356,46.8214042636356 0 0,0 0.13464083069000224,0.7946578043128166 l -25.49474910153031 4.0942259825415235" fill="#ffd413" stroke="none" /><path d="M 120.73433829027371 96.67025291283417 l 25.980360649348913 -4.172210802418875 a47.31323777968151,47.31323777968151 0 0,0 0.1222125862787041,0.8052282465744116 l -26.048329129066918 3.7243834434523815" fill="#ffdc14" stroke="none" /><path d="M 120.83666639777658 97.38593545837742 l 38.86720551948082 -4.876086310585349 a60.17187616903023,60.17187616903023 0 0,0 0.12008486139789608,1.0288137578681846 l -38.9453807338823 4.206328814392312" fill="#6aff28" stroke="none" /><path d="M 120.87857604477298 97.74499172005257 l 26.457150611500285 -2.8575269484283465 a47.611017995195226,47.611017995195226 0 0,0 0.0809905910468337,0.8155641990925333 l -26.502418328229346 2.4016872186313782" fill="#ffe015" stroke="none" /><path d="M 120.94382443527127 98.46500227214037 l 42.10872939873865 -3.0861987097860615 a63.221673510798716,63.221673510798716 0 0,0 0.07020438390398215,1.0860307457987917 l -42.15561437364705 2.360908899734235" fill="#44ff2d" stroke="none" /><line stroke="#e1ed5e" stroke-width="0.3" x1="184.98032266829074" x2="189.97916517819016" y1="98.17113171792111" y2="98.06355123074" /><path d="M 185.9800911702706 98.14961562048488 a86.0,86.0 0 0,1 -9.607161424134198,41.387399972396054" fill="none" id="id100" stroke="none" /><text fill="#e1ed5e" style="font-size:6.75px; font-family:Arial;" text-anchor="middle"><textPath startOffset="21.466115282336823" xlink:href="#id100">April</textPath></text><path d="M 120.99513854157772 99.54816195383933 l 27.51561080476847 -0.5921656482677189 a48.52198208913158,48.52198208913158 0 0,0 0.010783416430681458,0.835187486298129 l -27.521727228316866 0.11844190390912716" fill="#ffee16" stroke="none" /><path d="M 120.99824983174949 100.27111621757518 l 25.674495473198384 0.33149296520512994 a46.6766353985343,46.6766353985343 0 0,0 -0.017287997343074374,0.8033053046515204 l -25.6649854131703 -0.7733880856467652" fill="#ffd213" stroke="none" /><path d="M 120.9764740272857 100.99374915477107 l 40.488539285879774 1.9181227331590964 a61.533948837038956,61.533948837038956 0 0,0 -0.05922979287126809,1.0575877400407783 l -40.44952314212098 -2.614782189535298" fill="#59ff2a" stroke="none" /><path d="M 120.89721153311464 102.0752229133903 l 55.036147296276184 5.465431297040283 a76.30685715605323,76.30685715605323 0 0,0 -0.14105031307076074,1.3059507203474932 l -54.93391468170437 -6.411978339272568" fill="#41ffcf" stroke="none" /><path d="M 120.64145759157962 103.86396538481128 l 26.881721887724865 5.0321079505870205 a48.34865777465774,48.34865777465774 0 0,0 -0.1601723505676008,0.8167153647737864 l -26.7911196041816 -5.494087042428752" fill="#ffec16" stroke="none" /><path d="M 120.41448212921028 104.9243191809786 l 51.71197429773243 12.473804885612694 a74.19515103929751,74.19515103929751 0 0,0 -0.3101664188294942,1.238960662913667 l -51.48959656460788 -13.362093387923757" fill="#3effb4" stroke="none" /><path d="M 120.23288151984713 105.62410040840565 l 25.518042878421834 7.093207916700622 a47.485545319938566,47.485545319938566 0 0,0 -0.22568605068612815,0.7856427496667161 l -25.39216419084961 -7.531408141871919" fill="#ffde14" stroke="none" /><path d="M 120.02730092923936 106.31721596034902 l 24.895729642866293 7.852865505947253 a47.10488174853867,47.10488174853867 0 0,0 -0.25057049077500604,0.7711766743601653 l -24.75686690107504 -8.280241080285213" fill="#ffd814" stroke="none" /><path d="M 119.67450827220406 107.3425965602758 l 25.233370422768516 9.417183713411758 a47.93336837428242,47.93336837428242 0 0,0 -0.2951456537688766,0.7705321678792022 l -25.06753048940613 -9.850139448124105" fill="#ffe515" stroke="none" /><path d="M 119.41010516605496 108.01547362559984 l 25.577126329125875 10.562167476983936 a48.6721660349876,48.6721660349876 0 0,0 -0.32644889663204907,0.7716287601930235 l -25.39152645130152 -11.000870762843123" fill="#fff116" stroke="none" /><path d="M 118.97047184881838 109.00673069616215 l 24.380894563497588 11.575471248946533 a47.989248866012815,47.989248866012815 0 0,0 -0.3607117452860066,0.7431730345789642 l -24.178029561596865 -11.993433239490773" fill="#ffe615" stroke="none" /><line stroke="#e1ed5e" stroke-width="0.3" x1="174.80103733775053" x2="179.2010983576182" y1="140.37084112569926" y2="142.7455964860345" /><path d="M 175.68104954172406 140.8457921977663 a86.0,86.0 0 0,1 -30.038265399797805,32.042727171017184" fill="none" id="id101" stroke="none" /><text fill="#e1ed5e" style="font-size:6.75px; font-family:Arial;" text-anchor="middle"><textPath startOffset="22.206326154141568" xlink:href="#id101">May</textPath></text><path d="M 117.94076556474637 110.91462005526583 l 25.804937663474202 15.698944904563314 a51.205159806435454,51.205159806435454 0 0,0 -0.4645901702180344,0.7490672831221149 l -25.530882853588203 -16.1408085190507" fill="#e7ff1a" stroke="none" /><path d="M 117.75023020441432 111.22182372390056 l 23.263550775697027 14.707384805181778 a48.522717207810814,48.522717207810814 0 0,0 -0.4524053354771462,0.7021431272653968 l -23.00694057684283 -15.105649532368627" fill="#ffee16" stroke="none" /><path d="M 117.14729908036423 112.12312394758627 l 22.526226382441777 15.926020373578783 a48.58747904344764,48.58747904344764 0 0,0 -0.4886979719763361,0.6787587403426169 l -22.248748618089838 -16.31141271937253" fill="#ffef16" stroke="none" /><path d="M 116.27256486870786 113.27417163493432 l 30.392687800164524 24.79251166373712 a60.2222399451486,60.2222399451486 0 0,0 -0.6621693380336023,0.7976256243874528 l -29.96142246223738 -25.311998545238342" fill="#6aff28" stroke="none" /><path d="M 115.80600337817218 113.82643327865902 l 23.132918747030814 20.235713604753727 a51.734606469749124,51.734606469749124 0 0,0 -0.5920930872347631,0.6652228602439785 l -22.781166810147713 -20.63091063473857" fill="#dfff1b" stroke="none" /><path d="M 115.07121518719521 114.62390073753431 l 18.48607303270293 17.93740542479564 a46.758210526818715,46.758210526818715 0 0,0 -0.5654612342339312,0.5728092448798794 l -18.17457117341346 -18.252955163656182" fill="#ffd313" stroke="none" /><path d="M 114.55890576462653 115.13401014063108 l 35.74047811414018 37.15229475037926 a72.55264087363898,72.55264087363898 0 0,0 -0.9074751846579889,0.8580744288392406 l -35.095667095091386 -37.76200381596443" fill="#3bff9e" stroke="none" /><path d="M 114.0293411484842 115.62618273729858 l 20.58802929457427 22.931391043451328 a51.81745682923768,51.81745682923768 0 0,0 -0.6688341869760778,0.5901684059889106 l -20.190252754691603 -23.282382591212528" fill="#deff1b" stroke="none" /><path d="M 113.20401910651253 116.32954008644616 l 19.197070247613446 23.74120528166393 a51.53149741362046,51.53149741362046 0 0,0 -0.6945525824752605,0.5517945775645622 l -18.785560172420833 -24.06813377323362" fill="#e2ff1b" stroke="none" /><path d="M 112.63410532772338 116.77436683061366 l 24.001097390070314 31.86638084098286 a60.89384543798955,60.89384543798955 0 0,0 -0.8426984139661289,0.6234081405783788 l -23.44901400568562 -32.27479893030101" fill="#61ff29" stroke="none" /><path d="M 112.04921762599082 117.19931262002967 l 17.58039095178265 25.094628493539766 a51.64001509866304,51.64001509866304 0 0,0 -0.732410617862245,0.5037587014422253 l -17.145823449297524 -25.393527984347084" fill="#e1ff1b" stroke="none" /><path d="M 111.1453310114006 117.79835938074945 l 19.92608443584817 31.820644131395426 a58.54466984648368,58.54466984648368 0 0,0 -0.8587131450387021,0.5274917495561713 l -19.37539209087716 -32.15892434777997" fill="#80ff26" stroke="none" /><line stroke="#e1ed5e" stroke-width="0.3" x1="143.8653032363475" x2="146.44561519142675" y1="172.8068346515853" y2="177.08958963109032" /><path d="M 144.38136562736335 173.6633856474863 a86.0,86.0 0 0,1 -40.68145358897372,12.25698825130547" fill="none" id="id102" stroke="none" /><text fill="#e1ed5e" style="font-size:6.75px; font-family:Arial;" text-anchor="middle"><textPath startOffset="21.466115282336833" xlink:href="#id102">June</textPath></text><path d="M 109.89434966115114 118.52300852407294 l 29.683048983453418 55.56902557221878 a84.0,84.0 0 0,0 -1.2812363898940176,0.6702823242211329 l -28.722121691032903 -56.07173731538463" fill="#4dd2ff" stroke="none" /><path d="M 109.57404056367764 118.69057910512821 l 6.081106781359202 11.87162375047075 a34.33848980053717,34.33848980053717 0 0,0 -0.528397561672332,0.2649495067759498 l -5.87585531200411 -11.974541098156001" fill="#ff0000" stroke="none" /><path d="M 108.92500713936063 119.00905698771935 l 14.722358826979491 31.356631268280942 a55.64081658860361,55.64081658860361 0 0,0 -0.87046614242816,0.3995883123205593 l -14.180424688783912 -31.605406650935578" fill="#a7ff21" stroke="none" /><path d="M 107.59598834532513 119.57807347666477 l 22.75183901952837 58.64110841187832 a83.90012539370808,83.90012539370808 0 0,0 -1.3509109941695132,0.5107989451361272 l -21.73905780459858 -59.02405560712108" fill="#4dd3ff" stroke="none" /><path d="M 106.57524785965236 119.94407469862006 l 9.715991043648232 29.470592634950318 a52.030892868485765,52.030892868485765 0 0,0 -0.853005990975222,0.2731055812689029 l -9.20726370758207 -29.63347106287893" fill="#dbff1b" stroke="none" /><path d="M 105.18746579009965 120.34920634021253 l 15.513142699640065 60.85440455002458 a83.80060628335883,83.80060628335883 0 0,0 -1.4008536939190734,0.34429575536426643 l -14.46333572097778 -61.11242156370288" fill="#4dd4ff" stroke="none" /><path d="M 104.48393922423573 120.51570834832081 l 5.385007350563183 24.63843391555971 a46.220046192999376,46.220046192999376 0 0,0 -0.7787165236291309,0.16318761884542393 l -4.960099365504674 -24.72747751513167" fill="#ffcb12" stroke="none" /><path d="M 104.13013068566511 120.58985236759428 l 6.894152353359587 34.369270601546916 a56.053902754952844,56.053902754952844 0 0,0 -0.9476643241741248,0.181622123188072 l -6.3015204146137584 -34.48284992308346" fill="#a2ff22" stroke="none" /><path d="M 103.06178313531738 120.77559828337769 l 7.331021646098417 49.74433328384613 a71.2816325533482,71.2816325533482 0 0,0 -1.2154245043276228,0.16844676132650235 l -6.473668550583964 -49.86315461066524" fill="#39ff8c" stroke="none" /><path d="M 102.34483914955558 120.86867818915974 l 2.772781929939925 24.67729771383271 a45.83258629478884,45.83258629478884 0 0,0 -0.7847573354698507,0.08134330650060628 l -2.347591997864471 -24.721370388789076" fill="#ffc412" stroke="none" /><path d="M 101.62511606390274 120.93702456842531 l 2.3269282745310935 29.97875384716952 a51.06892544511682,51.06892544511682 0 0,0 -0.8770169658339793,0.060484224742593524 l -1.8105485479181838 -30.014366416428402" fill="#e9ff1a" stroke="none" /><line stroke="#e1ed5e" stroke-width="0.3" x1="102.19456741930631" x2="102.32365962044197" y1="184.97166512339345" y2="189.96999836594603" /><path d="M 102.22038585953345 185.97133177190398 a86.0,86.0 0 0,1 -42.740103519485714,-10.115201625700543" fill="none" id="id103" stroke="none" /><text fill="#e1ed5e" style="font-size:6.75px; font-family:Arial;" text-anchor="middle"><textPath startOffset="22.20632615414155" xlink:href="#id103">July</textPath></text><line stroke="#e1ed5e" stroke-width="0.3" x1="58.666819895761336" x2="56.23545636021788" y1="174.27360380694188" y2="178.64263932499728" /><path d="M 58.180547188652646 175.14741091055294 a86.0,86.0 0 0,1 -31.652253787137756,-30.449443065178592" fill="none" id="id104" stroke="none" /><text fill="#e1ed5e" style="font-size:6.75px; font-family:Arial;" text-anchor="middle"><textPath startOffset="22.20632615414155" xlink:href="#id104">August</textPath></text><line stroke="#e1ed5e" stroke-width="0.3" x1="26.63291911575756" x2="22.317208475507996" y1="142.92168965132927" y2="145.44649492493687" /><path d="M 25.769776987707644 143.4266507060508 a86.0,86.0 0 0,1 -11.730757126820373,-40.83630448921669" fill="none" id="id105" stroke="none" /><text fill="#e1ed5e" style="font-size:6.75px; font-family:Arial;" text-anchor="middle"><textPath startOffset="21.46611528233685" xlink:href="#id105">September</textPath></text><line stroke="#e1ed5e" stroke-width="0.3" x1="15.007084014347285" x2="10.007500721073583" y1="101.09737516637583" y2="101.16192664675087" /><path d="M 14.007167355692545 101.11028546245083 a86.0,86.0 0 0,1 10.666146001902534,-42.60595125391555" fill="none" id="id106" stroke="none" /><text fill="#e1ed5e" style="font-size:6.75px; font-family:Arial;" text-anchor="middle"><textPath startOffset="22.20632615414155" xlink:href="#id106">October</textPath></text><line stroke="#e1ed5e" stroke-width="0.3" x1="26.266209847984243" x2="21.928928074336255" y1="57.711370442889674" y2="55.22380399835377" /><path d="M 25.398753493254645 57.213857153982495 a86.0,86.0 0 0,1 29.58750427330803,-30.492523968695096" fill="none" id="id107" stroke="none" /><text fill="#e1ed5e" style="font-size:6.75px; font-family:Arial;" text-anchor="middle"><textPath startOffset="21.46611528233685" xlink:href="#id107">November</textPath></text><line stroke="#e1ed5e" stroke-width="0.3" x1="56.762969772571076" x2="54.21961505331055" y1="26.818313649435495" y2="22.513508569990535" /><path d="M 56.25429882871897 25.957352633546506 a86.0,86.0 0 0,1 42.265352541879196,-11.944610805530505" fill="none" id="id108" stroke="none" /><text fill="#e1ed5e" style="font-size:6.75px; font-family:Arial;" text-anchor="middle"><textPath startOffset="22.20632615414155" xlink:href="#id108">December</textPath></text></svg>