<?xml version="1.0" encoding="utf-8" ?>
<svg baseProfile="full" height="200mm" version="1.1" viewBox="0,0,200,200" width="200mm" xmlns="http://www.w3.org/2000/svg" xmlns:ev="http://www.w3.org/2001/xml-events" xmlns:xlink="http://www.w3.org/1999/xlink"><defs /><rect fill="#1a1a1a" height="200" width="200" x="0" y="0" /><text alignment-baseline="middle" fill="#e1ed5e" style="dominant-baseline: central; font-size:9.0px; font-family:Arial;" text-anchor="middle" x="100.0" y="100.0">2015</text><line stroke="#e1ed5e" stroke-width="0.3" x1="100.0" x2="100.0" y1="15.0" y2="10.0" /><path d="M 100.0 14.0 a86.0,86.0 0 0,1 42.46469731375804,11.215312516191453" fill="none" id="id1" stroke="none" /><text fill="#e1ed5e" style="font-size:6.75px; font-family:Arial;" text-anchor="middle"><textPath startOffset="22.20632615414155" xlink:href="#id1">January</textPath></text><line stroke="#e1ed5e" stroke-width="0.3" x1="143.23703022742887" x2="145.7803849466894" y1="26.81831364943548" y2="22.513508569990506" /><path d="M 143.74570117128098 25.957352633546492 a86.0,86.0 0 0,1 28.547481713284135,27.462654790039103" fill="none" id="id2" stroke="none" /><text fill="#e1ed5e" style="font-size:6.75px; font-family:Arial;" text-anchor="middle"><textPath startOffset="19.985693538727396" xlink:href="#id2">February</textPath></text><line stroke="#e1ed5e" stroke-width="0.3" x1="172.23445277983987" x2="176.4835382374775" y1="55.19839476539836" y2="52.563006222186495" /><path d="M 173.08426987136738 54.67131705675599 a86.0,86.0 0 0,1 12.851231095245387,41.99856678651699" fill="none" id="id3" stroke="none" /><text fill="#e1ed5e" style="font-size:6.75px; font-family:Arial;" text-anchor="middle"><textPath startOffset="22.20632615414155" xlink:href="#id3">March</textPath></text><line stroke="#e1ed5e" stroke-width="0.3" x1="184.98032266829074" x2="189.97916517819016" y1="98.17113171792111" y2="98.06355123074" /><path d="M 185.9800911702706 98.14961562048488 a86.0,86.0 0 0,1 -9.607161424134198,41.387399972396054" fill="none" id="id4" stroke="none" /><text fill="#e1ed5e" style="font-size:6.75px; font-family:Arial;" text-anchor="middle"><textPath startOffset="21.466115282336823" xlink:href="#id4">April</textPath></text><line stroke="#e1ed5e" stroke-width="0.3" x1="174.80103733775053" x2="179.2010983576182" y1="140.37084112569926" y2="142.7455964860345" /><path d="M 175.68104954172406 140.8457921977663 a86.0,86.0 0 0,1 -30.038265399797805,32.042727171017184" fill="none" id="id5" stroke="none" /><text fill="#e1ed5e" style="font-size:6.75px; font-family:Arial;" text-anchor="middle"><textPath startOffset="22.206326154141568" xlink:href="#id5">May</textPath></text><line stroke="#e1ed5e" stroke-width="0.3" x1="143.8653032363475" x2="146.44561519142675" y1="172.8068346515853" y2="177.08958963109032" /><path d="M 144.38136562736335 173.6633856474863 a86.0,86.0 0 0,1 -40.68145358897372,12.25698825130547" fill="none" id="id6" stroke="none" /><text fill="#e1ed5e" style="font-size:6.75px; font-family:Arial;" text-anchor="middle"><textPath startOffset="21.466115282336833" xlink:href="#id6">June</textPath></text><line stroke="#e1ed5e" stroke-width="0.3" x1="102.19456741930631" x2="102.32365962044197" y1="184.97166512339345" y2="189.96999836594603" /><path d="M 102.22038585953345 185.97133177190398 a86.0,86.0 0 0,1 -42.740103519485714,-10.115201625700543" fill="none" id="id7" stroke="none" /><text fill="#e1ed5e" style="font-size:6.75px; font-family:Arial;" text-anchor="middle"><textPath startOffset="22.20632615414155" xlink:href="#id7">July</textPath></text><line stroke="#e1ed5e" stroke-width="0.3" x1="58.666819895761336" x2="56.23545636021788" y1="174.27360380694188" y2="178.64263932499728" /><path d="M 58.180547188652646 175.14741091055294 a86.0,86.0 0 0,1 -31.652253787137756,-30.449443065178592" fill="none" id="id8" stroke="none" /><text fill="#e1ed5e" style="font-size:6.75px; font-family:Arial;" text-anchor="middle"><textPath startOffset="22.20632615414155" xlink:href="#id8">August</textPath></text><line stroke="#e1ed5e" stroke-width="0.3" x1="26.63291911575756" x2="22.317208475507996" y1="142.92168965132927" y2="145.44649492493687" /><path d="M 25.769776987707644 143.4266507060508 a86.0,86.0 0 0,1 -11.730757126820373,-40.83630448921669" fill="none" id="id9" stroke="none" /><text fill="#e1ed5e" style="font-size:6.75px; font-family:Arial;" text-anchor="middle"><textPath startOffset="21.46611528233685" xlink:href="#id9">September</textPath></text><path d="M 80.45479744820244 107.68017299344265 l -38.29700836333865 15.048585379572343 a62.14754879100223,62.14754879100223 0 0,0 -0.3826682651389496,-0.9990260881394679 l 38.55037090807111 -14.387135724599718" fill="#80ff26" stroke="none" /><path d="M 80.20201598880116 107.00284435728193 l -44.35045694754902 15.687422871052826 a68.04315325094217,68.04315325094217 0 0,0 -0.3810713673259939,-1.1075717690023945 l 44.613919145818244 -14.921678398961134" fill="#30ff37" stroke="none" /><path d="M 79.97269907076064 106.31721596034903 l -52.40278152567481 16.529420963429303 a75.94791414616083,75.94791414616083 0 0,0 -0.38253600003175,-1.2501497814885985 l 52.67954429821269 -15.624944209388655" fill="#3effb9" stroke="none" /><path d="M 79.86692584326677 105.97154293290107 l -31.865068354505944 9.451295031122806 a54.237171344785985,54.237171344785985 0 0,0 -0.2577747168895069,-0.8973476063582014 l 32.023035708281554 -8.901389949260007" fill="#fffb17" stroke="none" /><path d="M 79.76711848015287 105.62410040840567 l -53.359213471676526 14.832171778591471 a76.38229845343719,76.38229845343719 0 0,0 -0.341217635778752,-1.2697977588089016 l 53.60661918379705 -13.911483086607031" fill="#3fffc0" stroke="none" /><path d="M 79.67330655649465 105.27499134158121 l -51.19540609588358 13.285747858356476 a73.89121573076437,73.89121573076437 0 0,0 -0.30889584353066324,-1.2338853461838366 l 51.4165132537093 -12.402534672775248" fill="#3bff99" stroke="none" /><path d="M 79.50377843672027 104.57218783832718 l -29.585608355948082 6.599799787338519 a51.31279563195217,51.31279563195217 0 0,0 -0.18488723843942756,-0.863731625857987 l 29.69482963311195 -6.089554342064368" fill="#ffc612" stroke="none" /><path d="M 79.29508885075956 103.50808413554451 l -41.918549506348874 7.102363175977904 a63.51597764840541,63.51597764840541 0 0,0 -0.17336306708733654,-1.0795319842408324 l 42.0345943277975 -6.379751962043858" fill="#6bff28" stroke="none" /><line stroke="#e1ed5e" stroke-width="0.3" x1="15.007084014347285" x2="10.007500721073583" y1="101.09737516637583" y2="101.16192664675087" /><path d="M 14.007167355692545 101.11028546245083 a86.0,86.0 0 0,1 10.666146001902534,-42.60595125391555" fill="none" id="id10" stroke="none" /><text fill="#e1ed5e" style="font-size:6.75px; font-family:Arial;" text-anchor="middle"><textPath startOffset="22.20632615414155" xlink:href="#id10">October</textPath></text><path d="M 79.03285615573316 98.82574320788736 l -42.84499027878708 -2.3995171310193855 a63.91212968906827,63.91212968906827 0 0,0 0.07097109961897001,-1.0978914985532073 l 42.7973385881637 3.1366676938256046" fill="#65ff29" stroke="none" /><path d="M 79.05617556472873 98.46500227214037 l -37.71538580360171 -2.764205348111163 a58.81654608132594,58.81654608132594 0 0,0 0.08269470871454689,-1.0090849043337673 l 37.66221661106767 3.4130041696527087" fill="#b5ff1f" stroke="none" /><path d="M 79.08570108090925 98.10471618934814 l -41.76000509638451 -3.78435164851117 a62.9311261838941,62.9311261838941 0 0,0 0.10705146244490749,-1.0779936175558968 l 41.68867650825737 4.502620796771497" fill="#74ff27" stroke="none" /><path d="M 79.21141760316559 97.0276538004421 l -62.36574719050324 -8.91703859867371 a84.0,84.0 0 0,0 0.21697642624279112,-1.4296035504316318 l 62.20301487082115 9.989241261497433" fill="#4dd2ff" stroke="none" /><path d="M 79.32604984820605 96.31383870115002 l -20.072908839813245 -3.578995749597606 a41.38947963698658,41.38947963698658 0 0,0 0.13109482265722314,-0.7003137846398938 l 20.00832829324616 3.9239876117000727" fill="#ff0000" stroke="none" /><path d="M 79.81627453868168 94.20196356495316 l -45.83707999180023 -13.167294629425458 a68.69083297692325,68.69083297692325 0 0,0 0.336238692976781,-1.1336297195096827 l 45.60363540171174 13.954353735681678" fill="#31ff43" stroke="none" /><path d="M 79.91906864156998 93.8553929516997 l -39.883406692485124 -12.204008743349029 a62.7087995368592,62.7087995368592 0 0,0 0.32472562233868746,-1.0294689620919784 l 39.66742558637823 12.888727871867422" fill="#77ff27" stroke="none" /><path d="M 80.02781315780177 93.51064311812611 l -40.55145874562798 -13.175967657430668 a63.63832700878433,63.63832700878433 0 0,0 0.34747346641257715,-1.0389014373160053 l 40.31864798544363 13.872042197668994" fill="#69ff28" stroke="none" /><path d="M 80.14247586403 93.16781622104843 l -42.08769788215085 -14.480701863681713 a65.50915680490971,65.50915680490971 0 0,0 0.3760441443609031,-1.0631274347573596 l 41.832200656980135 15.203026924865684" fill="#4dff2c" stroke="none" /><line stroke="#e1ed5e" stroke-width="0.3" x1="26.266209847984257" x2="21.92892807433627" y1="57.711370442889674" y2="55.22380399835377" /><path d="M 25.39875349325466 57.213857153982495 a86.0,86.0 0 0,1 29.58750427330802,-30.492523968695096" fill="none" id="id11" stroke="none" /><text fill="#e1ed5e" style="font-size:6.75px; font-family:Arial;" text-anchor="middle"><textPath startOffset="21.46611528233685" xlink:href="#id11">November</textPath></text><line stroke="#e1ed5e" stroke-width="0.3" x1="56.762969772571076" x2="54.21961505331055" y1="26.818313649435495" y2="22.513508569990535" /><path d="M 56.25429882871897 25.957352633546506 a86.0,86.0 0 0,1 42.265352541879196,-11.944610805530505" fill="none" id="id12" stroke="none" /><text fill="#e1ed5e" style="font-size:6.75px; font-family:Arial;" text-anchor="middle"><textPath startOffset="22.20632615414155" xlink:href="#id12">December</textPath></text></svg>