<?xml version="1.0" encoding="utf-8" ?>
<svg baseProfile="full" height="200mm" version="1.1" viewBox="0,0,200,200" width="200mm" xmlns="http://www.w3.org/2000/svg" xmlns:ev="http://www.w3.org/2001/xml-events" xmlns:xlink="http://www.w3.org/1999/xlink"><defs /><rect fill="#1a1a1a" height="200" width="200" x="0" y="0" /><text alignment-baseline="middle" fill="#e1ed5e" style="dominant-baseline: central; font-size:9.0px; font-family:Arial;" text-anchor="middle" x="100.0" y="100.0">2022</text><line stroke="#e1ed5e" stroke-width="0.3" x1="100.0" x2="100.0" y1="15.0" y2="10.0" /><path d="M 100.0 14.0 a86.0,86.0 0 0,1 42.46469731375804,11.215312516191453" fill="none" id="id85" stroke="none" /><text fill="#e1ed5e" style="font-size:6.75px; font-family:Arial;" text-anchor="middle"><textPath startOffset="22.20632615414155" xlink:href="#id85">January</textPath></text><path d="M 102.52436894288641 79.15227682838746 l 1.4849987246113836 -12.263992713163768 a33.35357189158793,33.35357189158793 0 0,0 0.5693697273709035,0.07392053163333426 l -1.695883180490133 12.236613858366297" fill="#ff6509" stroke="none" /><line stroke="#e1ed5e" stroke-width="0.3" x1="143.23703022742887" x2="145.7803849466894" y1="26.81831364943548" y2="22.513508569990506" /><path d="M 143.74570117128098 25.957352633546492 a86.0,86.0 0 0,1 28.547481713284135,27.462654790039103" fill="none" id="id86" stroke="none" /><text fill="#e1ed5e" style="font-size:6.75px; font-family:Arial;" text-anchor="middle"><textPath startOffset="19.985693538727396" xlink:href="#id86">February</textPath></text><line stroke="#e1ed5e" stroke-width="0.3" x1="172.23445277983987" x2="176.4835382374775" y1="55.19839476539836" y2="52.563006222186495" /><path d="M 173.08426987136738 54.67131705675599 a86.0,86.0 0 0,1 12.851231095245387,41.99856678651699" fill="none" id="id87" stroke="none" /><text fill="#e1ed5e" style="font-size:6.75px; font-family:Arial;" text-anchor="middle"><textPath startOffset="22.20632615414155" xlink:href="#id87">March</textPath></text><path d="M 118.21658344932153 89.55222093294921 l 12.877741828881897 -7.38578679613425 a35.84540606414272,35.84540606414272 0 0,0 0.30236856090632225,0.5378799306616527 l -13.002968031080652 7.163023355537803" fill="#ff8a0c" stroke="none" /><path d="M 118.73160827565052 90.50648371742162 l 9.592380963308743 -4.861591355305235 a31.75401520601615,31.75401520601615 0 0,0 0.24290307577960552,0.4896777786250892 l -9.674644052041756 4.695753988181195" fill="#ff4d07" stroke="none" /><path d="M 119.196687751892 91.48605970444005 l 8.709875647812419 -3.862924802739355 a30.5280702050297,30.5280702050297 0 0,0 0.20891272852560122,0.48219938100612364 l -8.775079086180702 3.712426277146629" fill="#ff3b05" stroke="none" /><path d="M 120.45610955862082 95.25157060432595 l 8.843146045443246 -2.0527390368187173 a30.078269082502345,30.078269082502345 0 0,0 0.11272993362171464,0.505346188307486 l -8.877170366066998 1.9002146789612673" fill="#ff3404" stroke="none" /><path d="M 120.87857604477298 97.74499172005257 l 15.306409751406653 -1.6531817424556248 a36.39542754689019,36.39542754689019 0 0,0 0.06191187066662431,0.6234440885281077 l -15.332598747755505 1.3894621232230822" fill="#ff920d" stroke="none" /><path d="M 120.98425023603335 99.18683210126433 l 11.972236805014376 -0.46394026645669934 a32.98122258728969,32.98122258728969 0 0,0 0.017100458512228127,0.5674809664385083 l -11.978448957982248 0.2577891525931919" fill="#ff6008" stroke="none" /><line stroke="#e1ed5e" stroke-width="0.3" x1="184.98032266829074" x2="189.97916517819016" y1="98.17113171792111" y2="98.06355123074" /><path d="M 185.9800911702706 98.14961562048488 a86.0,86.0 0 0,1 -9.607161424134198,41.387399972396054" fill="none" id="id88" stroke="none" /><text fill="#e1ed5e" style="font-size:6.75px; font-family:Arial;" text-anchor="middle"><textPath startOffset="21.466115282336823" xlink:href="#id88">April</textPath></text><path d="M 120.70491114924044 103.5080841355445 l 14.58550952590736 2.471258833609912 a35.79338393853919,35.79338393853919 0 0,0 -0.10815321674379302,0.6065806757872803 l -14.540809866824379 -2.7219582601304104" fill="#ff890c" stroke="none" /><path d="M 120.41448212921028 104.9243191809786 l 29.163267380423726 7.034674503740817 a50.99971349322636,50.99971349322636 0 0,0 -0.21319989613803775,0.8516276057515937 l -29.037856169990626 -7.535629948889806" fill="#abff21" stroke="none" /><path d="M 119.67450827220406 107.3425965602758 l 29.89638479463959 11.15743728487149 a52.9105347895487,52.9105347895487 0 0,0 -0.32579213419311515,0.8505404576765097 l -29.699898380852968 -11.670401309381143" fill="#94ff23" stroke="none" /><path d="M 118.64920377521936 109.65438752849418 l 13.138926618381818 6.8018072412752995 a35.79513347120219,35.79513347120219 0 0,0 -0.28797609608165653,0.544742247161141 l -13.019898014075268 -7.026964503522575" fill="#ff890c" stroke="none" /><line stroke="#e1ed5e" stroke-width="0.3" x1="174.80103733775053" x2="179.2010983576182" y1="140.37084112569926" y2="142.7455964860345" /><path d="M 175.68104954172406 140.8457921977663 a86.0,86.0 0 0,1 -30.038265399797805,32.042727171017184" fill="none" id="id89" stroke="none" /><text fill="#e1ed5e" style="font-size:6.75px; font-family:Arial;" text-anchor="middle"><textPath startOffset="22.206326154141568" xlink:href="#id89">May</textPath></text><path d="M 118.48025628344425 109.97397251340804 l 28.5899375955408 15.43026500089368 a53.48811489937084,53.48811489937084 0 0,0 -0.4442661453532605,0.8064720996412585 l -28.320095040736028 -15.920107618932743" fill="#8dff24" stroke="none" /><path d="M 117.14729908036423 112.12312394758627 l 15.54650108898457 10.991361308258083 a40.03953044374969,40.03953044374969 0 0,0 -0.4027218063577229,0.5593453659863102 l -15.354999490251243 -11.257340279695525" fill="#ffc512" stroke="none" /><path d="M 115.56566222782051 114.09645910891815 l 20.043327595328385 18.151489073764797 a48.04092336974932,48.04092336974932 0 0,0 -0.5603712734582077,0.6081723426682423 l -19.727909913874456 -18.493812671234373" fill="#d0ff1d" stroke="none" /><path d="M 115.07121518719521 114.62390073753431 l 10.886408968394727 10.563299784696111 a36.16895522336677,36.16895522336677 0 0,0 -0.43740215528193077,0.4430860739999426 l -10.702966188057262 -10.74912635267672" fill="#ff8e0d" stroke="none" /><path d="M 113.75828350139079 115.86535959552629 l 6.8950493932515355 7.951023689967774 a31.524280681063534,31.524280681063534 0 0,0 -0.4130199019731339,0.3519845207369214 l -6.757164014701354 -8.068532600927641" fill="#ff4a06" stroke="none" /><path d="M 112.04921762599082 117.19931262002967 l 11.270073114908055 16.087144972448428 a40.642066627011175,40.642066627011175 0 0,0 -0.5764266542644454,0.396471508941941 l -10.991489576020726 -16.278757270755463" fill="#ffcd13" stroke="none" /><path d="M 111.1453310114006 117.79835938074945 l 8.688789818336556 13.875424930166956 a37.371392289598575,37.371392289598575 0 0,0 -0.5481507691755096,0.3367189729463369 l -8.448659849228738 -14.022932369941671" fill="#ff9f0e" stroke="none" /><line stroke="#e1ed5e" stroke-width="0.3" x1="143.8653032363475" x2="146.44561519142675" y1="172.8068346515853" y2="177.08958963109032" /><path d="M 144.38136562736335 173.6633856474863 a86.0,86.0 0 0,1 -40.68145358897372,12.25698825130547" fill="none" id="id90" stroke="none" /><text fill="#e1ed5e" style="font-size:6.75px; font-family:Arial;" text-anchor="middle"><textPath startOffset="21.466115282336833" xlink:href="#id90">June</textPath></text><line stroke="#e1ed5e" stroke-width="0.3" x1="102.19456741930631" x2="102.32365962044197" y1="184.97166512339345" y2="189.96999836594603" /><path d="M 102.22038585953345 185.97133177190398 a86.0,86.0 0 0,1 -42.740103519485714,-10.115201625700543" fill="none" id="id91" stroke="none" /><text fill="#e1ed5e" style="font-size:6.75px; font-family:Arial;" text-anchor="middle"><textPath startOffset="22.20632615414155" xlink:href="#id91">July</textPath></text><path d="M 100.18074693466247 120.99922214144158 l 0.24017046674229275 27.903062324976286 a48.904095917348876,48.904095917348876 0 0,0 -0.8418348028094772,0.0 l 0.24017046674227355 -27.903062324976286" fill="#c5ff1e" stroke="none" /><path d="M 99.09653310690486 120.98055641714683 l -0.38048267234271654 8.835673153983025 a29.843861551831836,29.843861551831836 0 0,0 -0.5130471478489154,-0.02651867731044168 l 0.5325178886051208 -8.827814669910381" fill="#ff3004" stroke="none" /><path d="M 93.76903079525671 120.05430185196036 l -5.026927938190325 16.17910905157087 a37.94206522825304,37.94206522825304 0 0,0 -0.6220306276787981,-0.1991545639029554 l 5.304679910960064 -16.090181641008208" fill="#ffa80f" stroke="none" /><path d="M 90.7491055286396 118.85261126421891 l -5.908643044055468 12.041359973726722 a34.41291961650904,34.41291961650904 0 0,0 -0.5295428809191511,-0.2655237936227425 l 6.115039832657381 -11.937868339194678" fill="#ff750a" stroke="none" /><path d="M 90.10565033884886 118.52300852407294 l -7.238698053101371 13.551417761921636 a36.36358268315365,36.36358268315365 0 0,0 -0.5495700772553096,-0.2996694247060208 l 7.470890942225321 -13.424807685455848" fill="#ff910d" stroke="none" /><line stroke="#e1ed5e" stroke-width="0.3" x1="58.666819895761336" x2="56.23545636021788" y1="174.27360380694188" y2="178.64263932499728" /><path d="M 58.180547188652646 175.14741091055294 a86.0,86.0 0 0,1 -31.652253787137756,-30.449443065178592" fill="none" id="id92" stroke="none" /><text fill="#e1ed5e" style="font-size:6.75px; font-family:Arial;" text-anchor="middle"><textPath startOffset="22.20632615414155" xlink:href="#id92">August</textPath></text><path d="M 88.24862548938628 117.40417183066458 l -14.176205200968472 20.99542576926442 a46.33323305724435,46.33323305724435 0 0,0 -0.6571444990125401,-0.45198997858427997 l 14.535506584603901 -20.74829500131504" fill="#e5ff1a" stroke="none" /><path d="M 87.36589467227662 116.77436683061367 l -8.886672835351531 11.798881375219459 a35.77113928541314,35.77113928541314 0 0,0 -0.48865296238300265,-0.3746782543240196 l 9.08845452622802 -11.644163779068073" fill="#ff890c" stroke="none" /><path d="M 86.51685102203217 116.09983520530335 l -5.830993194011479 6.96261901876422 a30.081769939228003,30.081769939228003 0 0,0 -0.3941206398070535,-0.3358781595082559 l 5.949979310395589 -6.861216469033012" fill="#ff3404" stroke="none" /><path d="M 83.95833913139862 113.55231037782056 l -6.7964419487712195 5.7417677327209145 a29.897163585072054,29.897163585072054 0 0,0 -0.32873212683954467,-0.39597902359124665 l 6.8942700755043 -5.623927452015907" fill="#ff3104" stroke="none" /><path d="M 83.50135304334701 112.99209946851258 l -27.73998691132731 21.84425608682244 a56.308333263229656,56.308333263229656 0 0,0 -0.5930961643637845,-0.7666567426077181 l 28.111889892909165 -21.36352135010147" fill="#6dff28" stroke="none" /><path d="M 82.85270091963577 112.12312394758628 l -26.139876466812524 18.480867505521502 a53.01305367278885,53.01305367278885 0 0,0 -0.5203839425082762,-0.7496518812515969 l 26.454121316482933 -18.028174362082893" fill="#93ff23" stroke="none" /><path d="M 82.05923443525364 110.91462005526583 l -15.376905591073335 9.3548450620218 a38.99895418326343,38.99895418326343 0 0,0 -0.34396914964327757,-0.5765120798706564 l 15.535655616414845 -9.088770888265033" fill="#ffb610" stroke="none" /><line stroke="#e1ed5e" stroke-width="0.3" x1="26.63291911575756" x2="22.317208475507996" y1="142.92168965132927" y2="145.44649492493687" /><path d="M 25.769776987707644 143.4266507060508 a86.0,86.0 0 0,1 -11.730757126820373,-40.83630448921669" fill="none" id="id93" stroke="none" /><text fill="#e1ed5e" style="font-size:6.75px; font-family:Arial;" text-anchor="middle"><textPath startOffset="21.46611528233685" xlink:href="#id93">September</textPath></text><path d="M 81.51974371655577 109.97397251340807 l -26.878742180405304 14.50671633501719 a51.543601621703914,51.543601621703914 0 0,0 -0.4146743910020272,-0.7844076736513794 l 27.124469079632217 -14.041893646279684" fill="#a4ff21" stroke="none" /><path d="M 80.58989483394504 108.01547362559985 l -8.765312498595739 3.6196677221257216 a30.483285170057762,30.483285170057762 0 0,0 -0.19610533977720684,-0.4867173708451621 l 8.826320452630332 -3.468250983437754" fill="#ff3a05" stroke="none" /><path d="M 79.86692584326677 105.97154293290107 l -16.169639339590137 4.795973768049543 a37.86590053202735,37.86590053202735 0 0,0 -0.1799664611445104,-0.6264868606256878 l 16.249798437620754 -4.516929431919259" fill="#ffa60f" stroke="none" /><path d="M 79.67330655649465 105.27499134158121 l -19.32958206919882 5.016230423054168 a40.96986005526996,40.96986005526996 0 0,0 -0.1712709603698824,-0.6841423497699052 l 19.413064343863763 -4.682760233886871" fill="#ffd213" stroke="none" /><line stroke="#e1ed5e" stroke-width="0.3" x1="15.007084014347285" x2="10.007500721073583" y1="101.09737516637583" y2="101.16192664675087" /><path d="M 14.007167355692545 101.11028546245083 a86.0,86.0 0 0,1 10.666146001902534,-42.60595125391555" fill="none" id="id94" stroke="none" /><text fill="#e1ed5e" style="font-size:6.75px; font-family:Arial;" text-anchor="middle"><textPath startOffset="22.20632615414155" xlink:href="#id94">October</textPath></text><path d="M 79.21141760316559 97.0276538004421 l -5.70059561746372 -0.8150697048666916 a26.75857004972919,26.75857004972919 0 0,0 0.06911879643759078,-0.4554065088995997 l 5.685720927586827 0.9130753261583834" fill="#ff0000" stroke="none" /><path d="M 79.32604984820605 96.31383870115002 l -14.566053974244472 -2.597124596054077 a35.79577590219696,35.79577590219696 0 0,0 0.11337762481997385,-0.6056678053470255 l 14.519190625514636 2.8474704788636753" fill="#ff890c" stroke="none" /><path d="M 79.62865764111835 94.90015583598534 l -21.15879841175557 -5.296979094296564 a42.81175686997095,42.81175686997095 0 0,0 0.1851173601366634,-0.7133327027302772 l 21.0644847197486 5.660408222575705" fill="#ffeb16" stroke="none" /><path d="M 79.91906864156998 93.8553929516997 l -14.211345856742572 -4.348560052246546 a35.86177397176894,35.86177397176894 0 0,0 0.18570339341781106,-0.5887305051628992 l 14.134386979556558 4.59254072383586" fill="#ff8a0c" stroke="none" /><path d="M 80.52162464483688 92.15188598940014 l -13.664165223654534 -5.5054861906893535 a35.73159154522013,35.73159154522013 0 0,0 0.2347707012514667,-0.568515874925405 l 13.567372835516867 5.73987663606807" fill="#ff880c" stroke="none" /><path d="M 80.803312248108 91.48605970444005 l -13.564409560583055 -6.015963515994803 a35.83863281279706,35.83863281279706 0 0,0 0.25496231930633717,-0.5617756740553893 l 13.458844924313366 6.248561198892263" fill="#ff890c" stroke="none" /><path d="M 81.43458229118936 90.18545643968196 l -27.591415024105906 -14.586105677352373 a52.20962450692652,52.20962450692652 0 0,0 0.4268556986040033,-0.7908987813678237 l 27.33625122628343 15.058885442052668" fill="#9cff22" stroke="none" /><line stroke="#e1ed5e" stroke-width="0.3" x1="26.266209847984243" x2="21.928928074336255" y1="57.711370442889674" y2="55.22380399835377" /><path d="M 25.398753493254645 57.213857153982495 a86.0,86.0 0 0,1 29.58750427330803,-30.492523968695096" fill="none" id="id95" stroke="none" /><text fill="#e1ed5e" style="font-size:6.75px; font-family:Arial;" text-anchor="middle"><textPath startOffset="21.46611528233685" xlink:href="#id95">November</textPath></text><path d="M 82.15384107792192 88.93136811851018 l -12.818178439630472 -7.950153260374429 a36.08345568408147,36.08345568408147 0 0,0 0.3319203747736333,-0.525018322041474 l 12.679430468610876 8.169619230130118" fill="#ff8d0d" stroke="none" /><path d="M 82.7489923806493 88.02491185347247 l -51.75302285805211 -35.92526443958256 a84.0,84.0 0 0,0 0.834749520784487,-1.1806939986728553 l 51.12696071746375 36.810784938587204" fill="#4dd2ff" stroke="none" /><path d="M 84.80347519578584 85.50635884689758 l -6.947119491464779 -6.625794927080412 a30.600188937954,30.600188937954 0 0,0 0.3668171949104544,-0.37803736349696687 l 6.832038032851206 6.744396486127503" fill="#ff3c05" stroke="none" /><path d="M 85.31137513191541 84.99185889309783 l -10.758233117907798 -10.992252994719111 a36.3808064066602,36.3808064066602 0 0,0 0.4513242704679681,-0.4341735906064298 l 10.567425603827402 11.175809672087855" fill="#ff910d" stroke="none" /><path d="M 85.83668400450813 84.49514656593479 l -16.23881267188594 -17.77693941877546 a45.077346450375636,45.077346450375636 0 0,0 0.5773957573086089,-0.5183916118960166 l 15.93040592698136 18.053830039440758" fill="#f6ff19" stroke="none" /><path d="M 86.65592168130627 83.78471172551755 l -6.277646331123255 -7.62839084973052 a30.879331476113027,30.879331476113027 0 0,0 0.4133369110731247,-0.33422303643239004 l 6.14540602148563 7.735319983427044" fill="#ff4006" stroke="none" /><path d="M 87.51073957382395 83.11751280151077 l -7.144092912654544 -9.657101623881852 a33.01239673498267,33.01239673498267 0 0,0 0.45974428778727655,-0.33402377708499303 l 6.976803308513485 9.778644635783513" fill="#ff6008" stroke="none" /><path d="M 88.09926311788651 82.69761687909137 l -9.283196200665312 -13.496762330060804 a37.38109657789109,37.38109657789109 0 0,0 0.5332952882224734,-0.36008335918669 l 9.0494962180363 13.65455760154616" fill="#ffa00e" stroke="none" /><path d="M 89.00827224532344 82.1063720568725 l -5.135028453150718 -8.359403605039184 a30.8106139383124,30.8106139383124 0 0,0 0.45429213516308337,-0.2737059283263668 l 4.990374251769985 8.44655614282417" fill="#ff3f05" stroke="none" /><line stroke="#e1ed5e" stroke-width="0.3" x1="56.762969772571076" x2="54.21961505331055" y1="26.818313649435495" y2="22.513508569990535" /><path d="M 56.25429882871897 25.957352633546506 a86.0,86.0 0 0,1 42.265352541879196,-11.944610805530505" fill="none" id="id96" stroke="none" /><text fill="#e1ed5e" style="font-size:6.75px; font-family:Arial;" text-anchor="middle"><textPath startOffset="22.20632615414155" xlink:href="#id96">December</textPath></text><path d="M 89.94658935756843 81.56283822128135 l -11.599981610182043 -21.27345088983251 a45.23054448663251,45.23054448663251 0 0,0 0.6867611027516488,-0.3668439970467869 l 11.232075460902088 21.469973613381047" fill="#f4ff19" stroke="none" /><path d="M 90.91171255644093 81.06846463323043 l -7.0360868689800045 -14.656658719367469 a37.258049183215164,37.258049183215164 0 0,0 0.5805545474866108,-0.27257814443155776 l 6.782754110193785 14.775601846439033" fill="#ff9e0e" stroke="none" /><path d="M 91.56875222667455 80.76684994638697 l -3.860285162707851 -8.805985280018904 a30.61494556871395,30.61494556871395 0 0,0 0.4844687460404416,-0.20742423366239185 l 3.7081326588771013 8.871129041644082" fill="#ff3c05" stroke="none" /><path d="M 92.57280143429618 80.3572730644239 l -6.367365632295527 -16.839784652007737 a39.00338002213289,39.00338002213289 0 0,0 0.6300302789579307,-0.23204546878445012 l 6.076553027565027 16.94689338859851" fill="#ffb610" stroke="none" /><path d="M 98.55514903715128 79.0497635885617 l -1.012336344851095 -14.678805148668095 a35.71367205926758,35.71367205926758 0 0,0 0.6136594406799865,-0.037017613293054995 l 0.7595148553314855 14.694056031341457" fill="#ff880c" stroke="none" /><path d="M 99.63851952072746 79.00311137660856 l -0.4194439115151015 -24.363741886051127 a45.367352172220706,45.367352172220706 0 0,0 0.7809243907876312,-0.00672166277813809 l 5.968279968281278e-15 24.367352172220706" fill="#f2ff19" stroke="none" /></svg>