<?xml version="1.0" encoding="utf-8" ?>
<svg baseProfile="full" height="200mm" version="1.1" viewBox="0,0,200,200" width="200mm" xmlns="http://www.w3.org/2000/svg" xmlns:ev="http://www.w3.org/2001/xml-events" xmlns:xlink="http://www.w3.org/1999/xlink"><defs /><rect fill="#1a1a1a" height="200" width="200" x="0" y="0" /><text alignment-baseline="middle" fill="#e1ed5e" style="dominant-baseline: central; font-size:9.0px; font-family:Arial;" text-anchor="middle" x="100.0" y="100.0">2026</text><line stroke="#e1ed5e" stroke-width="0.3" x1="100.0" x2="100.0" y1="15.0" y2="10.0" /><path d="M 100.0 14.0 a86.0,86.0 0 0,1 42.46469731375804,11.215312516191453" fill="none" id="id133" stroke="none" /><text fill="#e1ed5e" style="font-size:6.75px; font-family:Arial;" text-anchor="middle"><textPath startOffset="22.20632615414155" xlink:href="#id133">January</textPath></text><path d="M 100.0 79.0 l 0.0 -17.314793658603108 a38.31479365860311,38.31479365860311 0 0,0 0.6595261892828516,0.005676750131006543 l -0.29804571001032315 17.31222828508066" fill="#ff730a" stroke="none" /><path d="M 100.36148047927253 79.00311137660856 l 0.27525872888467234 -15.988627891163137 a36.99099712994493,36.99099712994493 0 0,0 0.6365505285878661,0.016440222146435902 l -0.5504358926674062 15.981520876874342" fill="#ff5e08" stroke="none" /><path d="M 100.72285384407766 79.0124445844662 l 0.7184249570947076 -20.85896578189567 a41.871334119055994,41.871334119055994 0 0,0 0.7201055322469736,0.03100925900077968 l -1.0773713217310126 20.843508796370692" fill="#ffab0f" stroke="none" /><path d="M 101.08401301168833 79.027996857942 l 1.1161107811950968 -21.592986945472457 a42.62181279410318,42.62181279410318 0 0,0 0.7323603620650384,0.04417797702915966 l -1.487633192099747 21.570575699062996" fill="#ffb710" stroke="none" /><path d="M 101.80526077348638 79.07773832637324 l 1.1659792696210778 -13.513240714760652 a34.56345023481308,34.56345023481308 0 0,0 0.5923103457417156,0.056247004354832035 l -1.3984147424530375 13.491168165890642" fill="#ff3605" stroke="none" /><path d="M 102.16513564639614 79.11191278185805 l 1.6272422261713289 -15.698775086857255 a36.78288492292727,36.78288492292727 0 0,0 0.6292208097755042,0.07070028945307485 l -1.8972297394565583 15.668438843933579" fill="#ff5b08" stroke="none" /><path d="M 102.52436894288641 79.15227682838746 l 2.178214563392834 -17.988976751577834 a39.120372602487635,39.120372602487635 0 0,0 0.6678132092036666,0.08670132092207333 l -2.487542501104347 17.948817107491625" fill="#ff800b" stroke="none" /><path d="M 102.88285421437855 79.19881850522331 l 1.9529053676552868 -14.091152716675962 a35.225836504743796,35.225836504743796 0 0,0 0.5998977059259524,0.08840932780209011 l -2.195172054009895 14.055448904712904" fill="#ff4106" stroke="none" /><path d="M 103.2404852339499 79.25152402106235 l 1.5975811869207897 -10.229139307271145 a31.353142354684536,31.353142354684536 0 0,0 0.5325119130326758,0.08786902838852956 l -1.7734223060923406 10.200124015942992" fill="#ff0000" stroke="none" /><path d="M 103.59715602781102 79.31037775812273 l 2.348555626313757 -13.508095936565738 a34.71073919821079,34.71073919821079 0 0,0 0.587776581381359,0.10741241327408477 l -2.580727328798017 13.465668041940916" fill="#ff3905" stroke="none" /><path d="M 104.307194497241 79.44645832069477 l 3.1355623570515383 -14.962619318677419 a36.28763317752677,36.28763317752677 0 0,0 0.610249603804353,0.13337692701683435 l -3.3926546850094192 14.906428893564714" fill="#ff5307" stroke="none" /><path d="M 104.66035177308747 79.52364482259891 l 3.6761058326863947 -16.151838394365242 a37.564891717448745,37.564891717448745 0 0,0 0.6292590051436265,0.1489252759744397 l -3.953588524792545 16.086167206249932" fill="#ff6709" stroke="none" /><path d="M 105.01212808612495 79.60689891045804 l 4.975344767275449 -20.243438924725517 a41.84588388752915,41.84588388752915 0 0,0 0.6980114843295233,0.17793866922960958 l -5.323065140289998 20.15479725932704" fill="#ffab0f" stroke="none" /><path d="M 105.36241919743992 79.69619591428918 l 6.290770895247669 -23.8188353245823 a45.635557933119046,45.635557933119046 0 0,0 0.7577721608443924,0.20712775656798352 l -6.699840945315772 23.70702102718802" fill="#ffe315" stroke="none" /><path d="M 105.71112130821622 79.79150937346287 l 3.9662587049462656 -14.034389664603744 a35.58407698047766,35.58407698047766 0 0,0 0.5880010859765886,0.1716536410479944 l -4.207250008646281 13.964037694637046" fill="#ff4706" stroke="none" /><path d="M 106.0581310904928 79.89281104454417 l 4.867628285811643 -16.155860651700557 a37.87322252938068,37.87322252938068 0 0,0 0.6225900190344849,0.19344174952693596 l -5.145003677556845 16.069678767291098" fill="#ff6c0a" stroke="none" /><path d="M 106.74666289553966 80.11325718540242 l 6.646751972308474 -19.592241241682025 a41.68901226868147,41.68901226868147 0 0,0 0.6775814342918075,0.2363948577641888 l -6.983015410663556 19.474925530745626" fill="#ffa80f" stroke="none" /><path d="M 107.08798089147638 80.2323363322302 l 7.2763693806335406 -20.293060159317378 a42.55815024516472,42.55815024516472 0 0,0 0.6874512735993348,0.2531941057065877 l -7.624602980005451 20.16480278580447" fill="#ffb610" stroke="none" /><path d="M 107.4271985657038 80.35727306442388 l 7.715817313276336 -20.406037515857875 a42.816053811596035,42.816053811596035 0 0,0 0.6871300448946684,0.26659578221338787 l -8.065930523170671 20.27019902975394" fill="#ffb911" stroke="none" /><path d="M 107.76421540070413 80.48803036053334 l 11.76083724873063 -29.555735832770612 a52.80972828251839,52.80972828251839 0 0,0 0.8417270428006309,0.3433615952657633 l -12.267848161119648 29.34891335132127" fill="#b6ff1f" stroke="none" /><path d="M 108.09893153111575 80.62456947434976 l 6.137274715946777 -14.682472548236822 a36.913552119772866,36.913552119772866 0 0,0 0.5841415679549649,0.25009893429387653 l -6.389100041692058 14.574654085980155" fill="#ff5d08" stroke="none" /><path d="M 108.43124777332544 80.76684994638697 l 6.730330109181659 -15.353059521009076 a37.763465633162035,37.763465633162035 0 0,0 0.5930983921181929,0.266105960140269 l -6.993610619766632 15.234933230352276" fill="#ff6b09" stroke="none" /><path d="M 109.08828744355905 81.06846463323043 l 6.3082278067869195 -13.140477627659418 a35.576209738657624,35.576209738657624 0 0,0 0.5497858224313188,0.2697775153734364 l -6.53348489622867 13.02994495215115" fill="#ff4706" stroke="none" /><path d="M 109.41281617654863 81.2277094730956 l 9.114479053393367 -18.17730693795633 a41.33440965288695,41.33440965288695 0 0,0 0.6332815622631658,0.324391412980519 l -9.42602110324529 18.017722999663313" fill="#ffa30f" stroke="none" /><path d="M 109.73455568895987 81.39251694778311 l 9.116339446877433 -17.425770335713523 a40.666344772319206,40.666344772319206 0 0,0 0.6174602604876903,0.32982588714953054 l -9.414944753893433 17.26626572206224" fill="#ff990e" stroke="none" /><path d="M 110.05341064243156 81.56283822128135 l 14.35196057211638 -26.320363140553237 a50.978997450117916,50.978997450117916 0 0,0 0.7668112979881141,0.42672965712140853 l -14.802895959176528 26.069418085871646" fill="#cfff1d" stroke="none" /><path d="M 110.36928655335952 81.73862282372117 l 8.264946897134195 -14.55541920399371 a37.73826679846026,37.73826679846026 0 0,0 0.5621263412215992,0.32561985958029166 l -8.514269970821122 14.410995187023369" fill="#ff6a09" stroke="none" /><line stroke="#e1ed5e" stroke-width="0.3" x1="143.23703022742887" x2="145.7803849466894" y1="26.81831364943548" y2="22.513508569990506" /><path d="M 143.74570117128098 25.957352633546492 a86.0,86.0 0 0,1 28.547481713284135,27.462654790039103" fill="none" id="id134" stroke="none" /><text fill="#e1ed5e" style="font-size:6.75px; font-family:Arial;" text-anchor="middle"><textPath startOffset="19.985693538727396" xlink:href="#id134">February</textPath></text><path d="M 110.68208982089419 81.91981866633111 l 8.5283967574582 -14.434905757739674 a37.766038753606935,37.766038753606935 0 0,0 0.5568475336576895,0.33549440841917766 l -8.775606357333528 14.285964739861882" fill="#ff6b09" stroke="none" /><path d="M 111.2981086023043 82.29822771554956 l 8.396883173606318 -13.156159059047894 a36.607439515121015,36.607439515121015 0 0,0 0.5282505368899615,0.3435888434378742 l -8.62210073628056 13.009671291450493" fill="#ff5808" stroke="none" /><path d="M 111.60114157652 82.49532879139004 l 9.087685304027623 -13.712180154432568 a37.450225189116836,37.450225189116836 0 0,0 0.5342815076227277,0.36074925892812476 l -9.322371506056893 13.553718983205773" fill="#ff6609" stroke="none" /><path d="M 111.90073688211348 82.69761687909136 l 7.745596785754303 -11.261259232495453 a34.66785385746246,34.66785385746246 0 0,0 0.48876533260283056,0.34241135042297516 l -7.938293257940785 11.126263039308542" fill="#ff3805" stroke="none" /><path d="M 112.77801427241765 83.33499621200491 l 9.927914004282616 -12.947921403202178 a37.316008860623114,37.316008860623114 0 0,0 0.5063736998409442,0.3952327046923922 l -10.149320259282991 12.775110309286562" fill="#ff6309" stroke="none" /><path d="M 113.34407831869373 83.78471172551755 l 9.135807482653037 -11.101534959058489 a35.37731048587659,35.37731048587659 0 0,0 0.46688356970561345,0.3910015627757836 l -9.32554858931777 10.942632238888885" fill="#ff4406" stroke="none" /><path d="M 113.6212207817346 84.01681056812373 l 9.591543382632452 -11.254751485582423 a35.78739785977033,35.78739785977033 0 0,0 0.46541715646660936,0.4036051717910261 l -9.783854337745826 11.087981320371727" fill="#ff4b06" stroke="none" /><path d="M 113.89432698308785 84.25364557470407 l 17.32004319203474 -19.628697316190742 a47.17765563423475,47.17765563423475 0 0,0 0.604298618885204,0.5425452666480206 l -17.65535279851593 19.327653040773423" fill="#fffa17" stroke="none" /><path d="M 114.16331599549186 84.49514656593476 l 13.937265296944938 -15.257391402521664 a41.664833809328535,41.664833809328535 0 0,0 0.525358072176577,0.4882630724970485 l -14.197831252916362 15.015223743949974" fill="#ffa80f" stroke="none" /><path d="M 114.42810811169701 84.74124197986012 l 9.404618809936796 -9.946058179044439 a34.68835009273045,34.68835009273045 0 0,0 0.4303284024092861,0.41397558216898683 l -9.5744304559585 9.78269951011315" fill="#ff3805" stroke="none" /><path d="M 114.68862486808459 84.99185889309783 l 22.731819752034323 -23.22629664240892 a53.49917668126615,53.49917668126615 0 0,0 0.6525987517268371,0.6497962852917217 l -23.128254303928482 22.831564506467075" fill="#adff20" stroke="none" /><path d="M 115.19652480421416 85.50635884689758 l 13.400617628899573 -12.780799929293584 a39.51824504829237,39.51824504829237 0 0,0 0.4652476930627055,0.49629380050200333 l -13.618632643932742 12.548236711913527" fill="#ff870c" stroke="none" /><path d="M 115.4437574822437 85.77008943001954 l 18.25488438603494 -16.820088801399052 a45.822493654636155,45.822493654636155 0 0,0 0.5294818803870865,0.5846671169104064 l -18.54170990703806 16.503368897219097" fill="#ffe615" stroke="none" /><path d="M 115.68641384162765 86.03803664274999 l 22.631753175743903 -20.14378249485708 a51.2979904450428,51.2979904450428 0 0,0 0.5813971003821898,0.6646373903879033 l -22.97514213970394 19.751229548266227" fill="#cbff1d" stroke="none" /><path d="M 116.15771136456269 86.58626213691792 l 10.79360304294824 -8.960585973444957 a35.02832732852495,35.02832732852495 0 0,0 0.38114407688614704,0.4672375712794772 l -10.946245611910795 8.77346423255738" fill="#ff3e05" stroke="none" /><path d="M 116.38621287248628 86.86637796730983 l 25.975608176409704 -20.81956474708351 a54.28943520686954,54.28943520686954 0 0,0 0.5781719357559407,0.7342196441306977 l -26.330134192759612 20.369352708999774" fill="#a3ff22" stroke="none" /><path d="M 116.82858285166822 87.43820079747576 l 14.759963735362035 -11.017665736588022 a39.41861796531944,39.41861796531944 0 0,0 0.40120154391575286,0.5472384550217232 l -14.947427891791413 10.761964837894805" fill="#ff850c" stroke="none" /><path d="M 117.04232023915458 87.72973835380427 l 12.178478941417334 -8.768355538851704 a36.006645467334025,36.006645467334025 0 0,0 0.3578158339156349,0.506105121614541 l -12.327607395136852 8.55742391690537" fill="#ff4e07" stroke="none" /><path d="M 117.2510076193507 88.02491185347247 l 18.628453077116248 -12.931265961629398 a43.67679217651202,43.67679217651202 0 0,0 0.4234060145337677,0.6212960807702532 l -18.848283557318748 12.608691857588738" fill="#ffc612" stroke="none" /><path d="M 117.45458315368197 88.32363383020206 l 16.389624211649412 -10.963954394994273 a40.718724040226306,40.718724040226306 0 0,0 0.3847015168339547,0.585926802992115 l -16.57592236384129 10.680209528024484" fill="#ff990e" stroke="none" /><line stroke="#e1ed5e" stroke-width="0.3" x1="172.23445277983987" x2="176.4835382374775" y1="55.19839476539836" y2="52.563006222186495" /><path d="M 173.08426987136738 54.67131705675599 a86.0,86.0 0 0,1 12.851231095245387,41.99856678651699" fill="none" id="id135" stroke="none" /><text fill="#e1ed5e" style="font-size:6.75px; font-family:Arial;" text-anchor="middle"><textPath startOffset="22.20632615414155" xlink:href="#id135">March</textPath></text><path d="M 117.84615892207809 88.93136811851018 l 31.067167612178643 -19.268630488005684 a57.55747562847446,57.55747562847446 0 0,0 0.5149590648150497,0.8464573031867098 l -31.39424247527992 18.731005411611893" fill="#79ff26" stroke="none" /><path d="M 118.21658344932153 89.55222093294921 l 21.09540601091261 -12.098873641421434 a45.31869441718305,45.31869441718305 0 0,0 0.3822790677432026,0.680031805670494 l -21.300542719948243 11.733958325816145" fill="#ffdf14" stroke="none" /><path d="M 118.56541770881063 90.18545643968196 l 11.092036506187947 -5.863766556189904 a33.546594441524654,33.546594441524654 0 0,0 0.2654822640849844,0.5128272329047099 l -11.191328203433049 5.67196660102485" fill="#ff2503" stroke="none" /><path d="M 118.89224826269711 90.83032412892265 l 10.513808307068036 -5.1030567143675025 a32.68680251171483,32.68680251171483 0 0,0 0.2413248047120994,0.5082915842219197 l -10.600091305621891 4.921322714505043" fill="#ff1702" stroke="none" /><path d="M 119.04729006885535 91.15688171328212 l 28.318335453392397 -13.147402553961038 a52.22150407598522,52.22150407598522 0 0,0 0.37151293874482494,0.8185795146180403 l -28.54045070910057 12.658001030500936" fill="#beff1f" stroke="none" /><path d="M 119.34039704204932 91.81776055985345 l 15.069844423221246 -6.375519340604388 a37.362990490815335,37.362990490815335 0 0,0 0.24548963813379748,0.5944726308044203 l -15.177355748241242 6.115172139346664" fill="#ff6409" stroke="none" /><path d="M 119.47837535516314 92.15188598940014 l 23.95375493749676 -9.651307991742376 a46.82499025279817,46.82499025279817 0 0,0 0.2947888446736393,0.7502054555380544 l -24.1163373320521 9.237553531308539" fill="#fff517" stroke="none" /><path d="M 119.61058180528143 92.48833698450437 l 28.087779851122356 -10.758780090769033 a51.07781119042147,51.07781119042147 0 0,0 0.307428617326172,0.8237558505419029 l -28.26881305695015 10.273701103197796" fill="#ceff1d" stroke="none" /><path d="M 119.7369772167798 92.82701384747503 l 19.024815689792632 -6.914166135896632 a41.24226532247218,41.24226532247218 0 0,0 0.2367441916689737,0.6693077101638973 l -19.141012962271414 6.585660799306121" fill="#ffa10e" stroke="none" /><path d="M 119.85752413597 93.16781622104841 l 13.97679919510337 -4.80886036388968 a35.78093548256102,35.78093548256102 0 0,0 0.19536851875276873,0.5841270040963462 l -14.057505007627908 4.56756025687102" fill="#ff4a06" stroke="none" /><path d="M 119.97218684219823 93.5106431181261 l 29.31670343015513 -9.525574373076209 a51.82540619600455,51.82540619600455 0 0,0 0.26836803453812974,0.8508000076645617 l -29.476326948461466 9.019524198985227" fill="#c3ff1e" stroke="none" /><path d="M 120.18372546131832 94.20196356495316 l 15.946608830497784 -4.580869829599183 a37.59152499285831,37.59152499285831 0 0,0 0.17330271113780418,0.6234620591550721 l -16.023098312201952 4.305696467025159" fill="#ff6809" stroke="none" /><path d="M 120.37134235888165 94.90015583598534 l 13.837383430358022 -3.464106482986742 a35.26440373532022,35.26440373532022 0 0,0 0.14234594071976164,0.5901158223484156 l -13.894962171338603 3.2254054289789202" fill="#ff4206" stroke="none" /><path d="M 120.45610955862082 95.25157060432595 l 10.246481232460637 -2.3784919877853326 a31.518916378749623,31.518916378749623 0 0,0 0.11812931593433365,0.5295505605024793 l -10.285904935397008 2.201763257732889" fill="#ff0300" stroke="none" /><path d="M 120.6074358757038 95.95851677861258 l 61.822307627111385 -12.124449664162288 a84.0,84.0 0 0,0 0.26605710436056285,1.4212876901497489 l -62.02185045538181 11.058483896549978" fill="#4dd2ff" stroke="none" /><path d="M 120.78858239683441 97.02765380044208 l 15.193072049708103 -2.172301559794478 a36.34758392628322,36.34758392628322 0 0,0 0.08322558379794193,0.6201272681453576 l -15.22821363256388 1.910455949584456" fill="#ff5407" stroke="none" /><path d="M 120.94382443527127 98.46500227214037 l 38.369730854769955 -2.812163072827759 a59.47264621800353,59.47264621800353 0 0,0 0.0660412838670155,1.0216294308586085 l -38.41245272964139 2.151274577716115" fill="#61ff29" stroke="none" /><path d="M 120.98425023603335 99.18683210126433 l 17.450183189873353 -0.6762180510359809 a38.46328045393206,38.46328045393206 0 0,0 0.019942854753363205,0.661806259808104 l -17.45923773908236 0.3757416438028777" fill="#ff760a" stroke="none" /><line stroke="#e1ed5e" stroke-width="0.3" x1="184.98032266829074" x2="189.97916517819016" y1="98.17113171792111" y2="98.06355123074" /><path d="M 185.9800911702706 98.14961562048488 a86.0,86.0 0 0,1 -9.607161424134198,41.387399972396054" fill="none" id="id136" stroke="none" /><text fill="#e1ed5e" style="font-size:6.75px; font-family:Arial;" text-anchor="middle"><textPath startOffset="21.466115282336823" xlink:href="#id136">April</textPath></text><path d="M 120.99980553446 99.90962569577887 l 25.210801380982446 -0.10849665392970423 a46.211034841816,46.211034841816 0 0,0 -0.0034233634361087546,0.7954690998912273 l -25.208933720256834 -0.3254819241652077" fill="#ffec16" stroke="none" /><path d="M 120.9904718944345 100.63252640178507 l 31.197878219713346 0.9401161514085024 a52.212039724923514,52.212039724923514 0 0,0 -0.03480272360177051,0.8981036537357592 l -31.17707336326037 -1.4769970521582676" fill="#beff1f" stroke="none" /><path d="M 120.9764740272857 100.99374915477107 l 14.246370310168563 0.6749141173998111 a35.26234819657401,35.26234819657401 0 0,0 -0.033941939682252904,0.6060561339320065 l -14.232642019598782 -0.920041967667241" fill="#ff4206" stroke="none" /><line stroke="#e1ed5e" stroke-width="0.3" x1="174.80103733775053" x2="179.2010983576182" y1="140.37084112569926" y2="142.7455964860345" /><path d="M 175.68104954172406 140.8457921977663 a86.0,86.0 0 0,1 -30.038265399797805,32.042727171017184" fill="none" id="id137" stroke="none" /><text fill="#e1ed5e" style="font-size:6.75px; font-family:Arial;" text-anchor="middle"><textPath startOffset="22.206326154141568" xlink:href="#id137">May</textPath></text><line stroke="#e1ed5e" stroke-width="0.3" x1="143.8653032363475" x2="146.44561519142675" y1="172.8068346515853" y2="177.08958963109032" /><path d="M 144.38136562736335 173.6633856474863 a86.0,86.0 0 0,1 -40.68145358897372,12.25698825130547" fill="none" id="id138" stroke="none" /><text fill="#e1ed5e" style="font-size:6.75px; font-family:Arial;" text-anchor="middle"><textPath startOffset="21.466115282336833" xlink:href="#id138">June</textPath></text><line stroke="#e1ed5e" stroke-width="0.3" x1="102.19456741930631" x2="102.32365962044197" y1="184.97166512339345" y2="189.96999836594603" /><path d="M 102.22038585953345 185.97133177190398 a86.0,86.0 0 0,1 -42.740103519485714,-10.115201625700543" fill="none" id="id139" stroke="none" /><text fill="#e1ed5e" style="font-size:6.75px; font-family:Arial;" text-anchor="middle"><textPath startOffset="22.20632615414155" xlink:href="#id139">July</textPath></text><line stroke="#e1ed5e" stroke-width="0.3" x1="58.666819895761336" x2="56.23545636021788" y1="174.27360380694188" y2="178.64263932499728" /><path d="M 58.180547188652646 175.14741091055294 a86.0,86.0 0 0,1 -31.652253787137756,-30.449443065178592" fill="none" id="id140" stroke="none" /><text fill="#e1ed5e" style="font-size:6.75px; font-family:Arial;" text-anchor="middle"><textPath startOffset="22.20632615414155" xlink:href="#id140">August</textPath></text><line stroke="#e1ed5e" stroke-width="0.3" x1="26.63291911575756" x2="22.317208475507996" y1="142.92168965132927" y2="145.44649492493687" /><path d="M 25.769776987707644 143.4266507060508 a86.0,86.0 0 0,1 -11.730757126820373,-40.83630448921669" fill="none" id="id141" stroke="none" /><text fill="#e1ed5e" style="font-size:6.75px; font-family:Arial;" text-anchor="middle"><textPath startOffset="21.46611528233685" xlink:href="#id141">September</textPath></text><line stroke="#e1ed5e" stroke-width="0.3" x1="15.007084014347285" x2="10.007500721073583" y1="101.09737516637583" y2="101.16192664675087" /><path d="M 14.007167355692545 101.11028546245083 a86.0,86.0 0 0,1 10.666146001902534,-42.60595125391555" fill="none" id="id142" stroke="none" /><text fill="#e1ed5e" style="font-size:6.75px; font-family:Arial;" text-anchor="middle"><textPath startOffset="22.20632615414155" xlink:href="#id142">October</textPath></text><line stroke="#e1ed5e" stroke-width="0.3" x1="26.266209847984243" x2="21.928928074336255" y1="57.711370442889674" y2="55.22380399835377" /><path d="M 25.398753493254645 57.213857153982495 a86.0,86.0 0 0,1 29.58750427330803,-30.492523968695096" fill="none" id="id143" stroke="none" /><text fill="#e1ed5e" style="font-size:6.75px; font-family:Arial;" text-anchor="middle"><textPath startOffset="21.46611528233685" xlink:href="#id143">November</textPath></text><line stroke="#e1ed5e" stroke-width="0.3" x1="56.762969772571076" x2="54.21961505331055" y1="26.818313649435495" y2="22.513508569990535" /><path d="M 56.25429882871897 25.957352633546506 a86.0,86.0 0 0,1 42.265352541879196,-11.944610805530505" fill="none" id="id144" stroke="none" /><text fill="#e1ed5e" style="font-size:6.75px; font-family:Arial;" text-anchor="middle"><textPath startOffset="22.20632615414155" xlink:href="#id144">December</textPath></text></svg>