<?xml version="1.0" encoding="utf-8" ?>
<svg baseProfile="full" height="200mm" version="1.1" viewBox="0,0,200,200" width="200mm" xmlns="http://www.w3.org/2000/svg" xmlns:ev="http://www.w3.org/2001/xml-events" xmlns:xlink="http://www.w3.org/1999/xlink"><defs /><rect fill="#1a1a1a" height="200" width="200" x="0" y="0" /><text alignment-baseline="middle" fill="#e1ed5e" style="dominant-baseline: central; font-size:9.0px; font-family:Arial;" text-anchor="middle" x="100.0" y="100.0">2020</text><line stroke="#e1ed5e" stroke-width="0.3" x1="100.0" x2="100.0" y1="15.0" y2="10.0" /><path d="M 100.0 14.0 a86.0,86.0 0 0,1 42.35913384403234,11.155469271406648" fill="none" id="id61" stroke="none" /><text fill="#e1ed5e" style="font-size:6.75px; font-family:Arial;" text-anchor="middle"><textPath startOffset="22.145653131862478" xlink:href="#id61">January</textPath></text><path d="M 101.44090949804482 79.04949213459386 l 4.322728494134444 -62.8515235962184 a84.0,84.0 0 0,0 1.437724020899066,0.1112889320197854 l -5.401021509808744 62.76805689720356" fill="#4dd2ff" stroke="none" /><path d="M 105.3480935250658 79.69241777938227 l 2.343666969189724 -8.899285222200872 a30.20271983320984,30.20271983320984 0 0,0 0.5002413190642389,0.13634299598529587 l -2.4960896891886555 8.857741732071434" fill="#ff3605" stroke="none" /><line stroke="#e1ed5e" stroke-width="0.3" x1="143.13028292997686" x2="145.6673583964461" y1="26.7553504044142" y2="22.446841604673864" /><path d="M 143.63769802327073 25.89364864446614 a86.0,86.0 0 0,1 29.32050498858742,28.57503671076993" fill="none" id="id62" stroke="none" /><text fill="#e1ed5e" style="font-size:6.75px; font-family:Arial;" text-anchor="middle"><textPath startOffset="20.669276256404974" xlink:href="#id62">February</textPath></text><path d="M 114.39649973595853 84.71141617570332 l 3.9087625528060186 -4.150970377096866 a26.70166464865782,26.70166464865782 0 0,0 0.3310084752972936,0.31709863162017016 l -3.9794435139686244 4.083259615171116" fill="#ff0000" stroke="none" /><path d="M 115.16444852881244 85.47280134310134 l 6.475053003661474 -6.202954305883023 a29.966769402694496,29.966769402694496 0 0,0 0.3526720114117469,0.37452545464815146 l -6.580580848809481 6.0908873912903765" fill="#ff3304" stroke="none" /><path d="M 115.6541949942343 86.00192230759917 l 8.796229057756292 -7.86564226368569 a32.800083637703366,32.800083637703366 0 0,0 0.3717170003336323,0.4229457112310769 l -8.929957122048515 7.713484274643315" fill="#ff5e08" stroke="none" /><path d="M 116.35404254752997 86.82634096563983 l 11.626411842210684 -9.365414389573282 a35.92931475363565,35.92931475363565 0 0,0 0.38279018259208514,0.48364289093642404 l -11.78546845544433 9.164451554722179" fill="#ff8b0c" stroke="none" /><path d="M 117.42321728460499 88.27688183743584 l 10.236103533790658 -6.887307280320643 a33.33745586123976,33.33745586123976 0 0,0 0.3153970356279712,0.4775513108592574 l -10.352825008339353 6.710576091122326" fill="#ff6609" stroke="none" /><line stroke="#e1ed5e" stroke-width="0.3" x1="172.87174338648825" x2="177.1583165268699" y1="56.24261187166439" y2="53.66864786411523" /><path d="M 173.72905801456457 55.72781907015455 a86.0,86.0 0 0,1 12.242430191666344,42.057860355516425" fill="none" id="id63" stroke="none" /><text fill="#e1ed5e" style="font-size:6.75px; font-family:Arial;" text-anchor="middle"><textPath startOffset="22.145653131862474" xlink:href="#id63">March</textPath></text><path d="M 118.00360718960297 89.18935116829356 l 10.042720297816853 -6.030364988047852 a32.71415950332144,32.71415950332144 0 0,0 0.28496570591264725,0.4839340680935739 l -10.14475971385927 5.857079751660721" fill="#ff5c08" stroke="none" /><path d="M 118.36410011445183 89.81374322990088 l 7.724373345905627 -4.284579685316807 a29.833094965342937,29.833094965342937 0 0,0 0.24456695398337788,0.4499756491793106 l -7.796785649504345 4.151349202662893" fill="#ff3104" stroke="none" /><path d="M 118.70294669586156 90.45014215332178 l 10.0149875033112 -5.1137239788018904 a32.24500545232651,32.24500545232651 0 0,0 0.2474882274901905,0.4951422407714989 l -10.101295644013128 4.9410498818666415" fill="#ff5507" stroke="none" /><path d="M 119.0197475246899 91.09779779509293 l 12.801091583710804 -5.991557226182776 a35.133884948207786,35.133884948207786 0 0,0 0.2509823120107831,0.5484416468392468 l -12.902058360576637 5.770926597128844" fill="#ff800b" stroke="none" /><path d="M 120.05942366710727 93.78553927170692 l 13.6256263844282 -4.221253883942419 a35.26452518385119,35.26452518385119 0 0,0 0.17417934882827646,0.5797864034862735 l -13.696082053260103 3.9867298768654216" fill="#ff820c" stroke="none" /><path d="M 120.26092885502905 94.47779374421319 l 8.485868898261078 -2.3128613032039036 a29.795413484671016,29.795413484671016 0 0,0 0.1302634467459708,0.49463152481094885 l -8.524321825811779 2.166849274020156" fill="#ff3004" stroke="none" /><path d="M 120.51834098615036 95.52812308129327 l 10.897604815875871 -2.3750822485208065 a32.15342128722123,32.15342128722123 0 0,0 0.11290794716896323,0.5403054003404784 l -10.936770473869203 2.1876603968949238" fill="#ff5407" stroke="none" /><path d="M 120.65975698304385 96.23510406497455 l 21.49288044534186 -3.9167187826588705 a42.84684407094515,42.84684407094515 0 0,0 0.12565384342813976,0.724737977684034 l -21.556949106262238 3.547187772054244" fill="#ffec16" stroke="none" /><path d="M 120.82617615685814 97.30363454192243 l 8.904374357392873 -1.1528495323496732 a29.97869393290776,29.97869393290776 0 0,0 0.0616960289733501,0.510931624579305 l -8.922852472625888 0.9998242308469553" fill="#ff3304" stroke="none" /><path d="M 120.9064616781168 98.02013634271609 l 6.805615041244344 -0.64449882017712 a27.836064278429582,27.836064278429582 0 0,0 0.04096723358090877,0.47610135298619455 l -6.815675897522994 0.5275764198152634" fill="#ff1202" stroke="none" /><path d="M 120.96210409425399 98.7389718711861 l 15.344827803370505 -0.9231067360819072 a36.372568632512014,36.372568632512014 0 0,0 0.03214366958100691,0.6235786026211944 l -15.358413062408085 0.6595563400839822" fill="#ff920d" stroke="none" /><line stroke="#e1ed5e" stroke-width="0.3" x1="184.99686870605535" x2="189.99668451229388" y1="99.2704041080226" y2="99.22748670261217" /><path d="M 185.99683186730306 99.26182062694052 a86.0,86.0 0 0,1 -10.086455211305974,41.156179273409016" fill="none" id="id64" stroke="none" /><text fill="#e1ed5e" style="font-size:6.75px; font-family:Arial;" text-anchor="middle"><textPath startOffset="21.40746469413373" xlink:href="#id64">April</textPath></text><path d="M 120.98066250479742 100.90099992219065 l 8.343082250436565 0.35828784990724816 a29.350771917669697,29.350771917669697 0 0,0 -0.02593827023879105,0.5031955131679636 l -8.3357023907412 -0.5014551564519425" fill="#ff2904" stroke="none" /><path d="M 120.9064616781168 101.97986365728391 l 11.594490958215744 1.0980103484898287 a32.64636627045266,32.64636627045266 0 0,0 -0.057624890086329254,0.5574685384990175 l -11.57393367564775 -1.2968834092717776" fill="#ff5b08" stroke="none" /><path d="M 120.7213421655516 103.40968896794604 l 16.945323449914213 2.7883465252315474 a38.173201890357646,38.173201890357646 0 0,0 -0.11194779072968863,0.6456851079611436 l -16.894960841692292 -3.0788246661132788" fill="#ffab0f" stroke="none" /><path d="M 120.51834098615036 104.47187691870673 l 11.106965790409916 2.4207114984844664 a32.367696918383736,32.367696918383736 0 0,0 -0.12298050716573761,0.5418748059986479 l -11.063774421686514 -2.6110206384221315" fill="#ff5708" stroke="none" /><path d="M 120.16314734710363 105.8691983318838 l 9.122305488416295 2.6553701777732748 a30.50091828219766,30.50091828219766 0 0,0 -0.1506508327380053,0.5014676256569085 l -9.075378335674658 -2.8115754070209067" fill="#ff3b05" stroke="none" /><path d="M 119.94978838288452 106.5578916946017 l 13.263847583035544 4.360090154032737 a34.96209292539235,34.96209292539235 0 0,0 -0.1923157821535475,0.5685474376619184 l -13.187046379309631 -4.587139266168816" fill="#ff7d0b" stroke="none" /><path d="M 119.58574465831526 107.57618678355244 l 12.457258879423804 4.8187353469612875 a34.35677764781002,34.35677764781002 0 0,0 -0.21749693068543346,0.5482343448381378 l -12.372703273772247 -5.031870709012989" fill="#ff750a" stroke="none" /><path d="M 118.8641267826498 109.22738970284198 l 9.539332210834253 4.666165406352101 a31.619414231872536,31.619414231872536 0 0,0 -0.2426866633374953,0.48553589602578934 l -9.457825634285026 -4.829233158541635" fill="#ff4c07" stroke="none" /><path d="M 118.5362547648365 109.86951160357373 l 7.481358043098959 3.9834017687826093 a29.475742316787475,29.475742316787475 0 0,0 -0.24163743397023366,0.4445856623138348 l -7.411875259513387 -4.111242264571048" fill="#ff2b04" stroke="none" /><line stroke="#e1ed5e" stroke-width="0.3" x1="174.33088141563837" x2="178.70328620479359" y1="141.23008692659167" y2="143.65538615756765" /><path d="M 175.20536237346943 141.71514677278685 a86.0,86.0 0 0,1 -30.301960400862466,31.631185727798858" fill="none" id="id65" stroke="none" /><text fill="#e1ed5e" style="font-size:6.75px; font-family:Arial;" text-anchor="middle"><textPath startOffset="22.145653131862474" xlink:href="#id65">May</textPath></text><path d="M 118.18653347947321 110.5 l 7.066049361440882 4.0795855009350745 a29.159171001870153,29.159171001870153 0 0,0 -0.2539989984316114,0.43134582882188444 l -6.994976652879505 -4.200282498050508" fill="#ff2603" stroke="none" /><path d="M 117.62189284568427 111.42229804090321 l 15.073231143656166 9.77028631770571 a38.962761253215874,38.962761253215874 0 0,0 -0.36861659300859206,0.5581325038304056 l -14.903290111726847 -10.027598699875176" fill="#ffb710" stroke="none" /><path d="M 116.79662413953412 112.60449989151573 l 8.50193078452913 6.380007361065118 a31.629549425642143,31.629549425642143 0 0,0 -0.32962211185600376,0.43148592543145214 l -8.391156695318822 -6.525014199737448" fill="#ff4c07" stroke="none" /><path d="M 116.1254893667686 113.45245675266167 l 8.878574829213047 7.406822899985791 a32.56244422558178,32.56244422558178 0 0,0 -0.3617616792059331,0.42615434846778544 l -8.7501185865 -7.558144030903133" fill="#ff5a08" stroke="none" /><path d="M 115.6541949942343 113.99807769240083 l 11.509031992961468 10.291447376319175 a36.439290997793826,36.439290997793826 0 0,0 -0.42096456075031297,0.4627137944014861 l -11.330669731369275 -10.487498746278332" fill="#ff930d" stroke="none" /><path d="M 115.16444852881244 114.52719865689866 l 9.929304002086521 9.51204862405543 a34.75027806963358,34.75027806963358 0 0,0 -0.4163632679047362,0.42722539247216873 l -9.764553933030978 -9.681096708595335" fill="#ff7a0b" stroke="none" /><path d="M 114.39649973595853 115.28858382429668 l 8.276370222696617 8.789218367751078 a33.072641118626535,33.072641118626535 0 0,0 -0.41666839161933866,0.38566204278496213 l -8.124272059763312 -8.929998156668418" fill="#ff6209" stroke="none" /><path d="M 113.86319453409587 115.77377054828091 l 7.402443714098496 8.422622098793852 a32.21323931607129,32.21323931607129 0 0,0 -0.41849679565400966,0.3614875646262116 l -7.2567674386816305 -8.54845379588478" fill="#ff5507" stroke="none" /><path d="M 113.31354834802062 116.24036423190432 l 14.599121376121877 17.808554294937416 a44.02778649871656,44.02778649871656 0 0,0 -0.5886079591656233,0.4741409065325952 l -14.291262646601002 -18.056543495263416" fill="#fffb17" stroke="none" /><path d="M 112.45986205192187 116.90419585922612 l 7.046798875971467 9.56033605216539 a32.87675880990795,32.87675880990795 0 0,0 -0.4571732328499081,0.3309581643889492 l -6.881644632747591 -9.679894987927415" fill="#ff5f08" stroke="none" /><path d="M 111.8722381534696 117.32195027204791 l 7.631996058199247 11.1353103338782 a34.4997222217401,34.4997222217401 0 0,0 -0.4913807131497506,0.3306228734316179 l -7.439719056952493 -11.264682881366939" fill="#ff770a" stroke="none" /><path d="M 110.96478420261333 117.91015095944535 l 9.350333208284706 15.273066590912073 a38.90796733848893,38.90796733848893 0 0,0 -0.572627533964765,0.34384638122043415 l -9.086772917762504 -15.43132697266843" fill="#ffb610" stroke="none" /><line stroke="#e1ed5e" stroke-width="0.3" x1="143.1302829299769" x2="145.66735839644613" y1="173.24464959558577" y2="177.55315839532614" /><path d="M 143.63769802327073 174.10635135553383 a86.0,86.0 0 0,1 -40.68552437913181,11.842963189579606" fill="none" id="id66" stroke="none" /><text fill="#e1ed5e" style="font-size:6.75px; font-family:Arial;" text-anchor="middle"><textPath startOffset="21.407464694133747" xlink:href="#id66">June</textPath></text><path d="M 109.71004243097381 118.62028667847754 l 6.064035240472483 11.628587146623222 a34.11474599160437,34.11474599160437 0 0,0 -0.5215864893361832,0.26632577790592954 l -5.863521529422718 -11.730970876201988" fill="#ff710a" stroke="none" /><path d="M 108.4095320186766 119.2426549942271 l 3.6456270797897874 8.341908203477683 a30.103737105175263,30.103737105175263 0 0,0 -0.47530206335078756,0.20287818763672055 l -3.5018899412685687 -8.403261040773806" fill="#ff3505" stroke="none" /><path d="M 107.407793817531 119.65005319985036 l 3.1015520341160268 8.227235257041363 a29.79244135579156,29.79244135579156 0 0,0 -0.48009930254800437,0.17629911396388856 l -2.959863579913895 -8.279265220013974" fill="#ff3004" stroke="none" /><path d="M 107.06938296918513 119.77432235084164 l 5.998004562320429 16.777486266360047 a38.81741014141833,38.81741014141833 0 0,0 -0.6293859093959036,0.21893309051321333 l -5.709112880879504 -16.87797778944185" fill="#ffb410" stroke="none" /><path d="M 105.3480935250658 120.30758222061773 l 3.1681202974576848 12.02986879789807 a33.44004539838199,33.44004539838199 0 0,0 -0.5563702312617655,0.14142713711787344 l -2.961144772970522 -12.082481166851213" fill="#ff6709" stroke="none" /><path d="M 104.64783097203109 120.47920084513623 l 2.704016504140065 11.914395641769312 a33.217386331096904,33.217386331096904 0 0,0 -0.5571624708330535,0.12143096729748813 l -2.499091616687876 -11.95905806720052" fill="#ff6409" stroke="none" /><path d="M 104.29559338865022 120.5559693870025 l 3.2741760664389856 15.668117742988859 a37.00656560671914,37.00656560671914 0 0,0 -0.6229500476383032,0.12460745626126239 l -3.0047295332697237 -15.722014595912983" fill="#ff9b0e" stroke="none" /><path d="M 103.58742460773223 120.69131181640829 l 2.507151786586827 14.460585255372491 a35.676318884818556,35.676318884818556 0 0,0 -0.604327106456309,0.09944179539394768 l -2.2585471770774457 -14.501493049262109" fill="#ff880c" stroke="none" /><path d="M 102.15924093988457 120.88869738790638 l 3.1969713038824796 30.92779730648851 a52.09259191108207,52.09259191108207 0 0,0 -0.8902882848235036,0.08431122620202605 l -2.6655834556739606 -30.97812028819572" fill="#9dff22" stroke="none" /><path d="M 101.08105385017728 120.97215588758144 l 0.7486435780103586 14.523485411661255 a35.542767814609206,35.542767814609206 0 0,0 -0.6095994935127708,0.02617882519662128 l -0.4992183238967583 -14.534196805283708" fill="#ff860c" stroke="none" /><line stroke="#e1ed5e" stroke-width="0.3" x1="101.45913802915013" x2="101.54496967792366" y1="184.9874750549273" y2="189.98673829345242" /><path d="M 101.47630435890484 185.9873277026323 a86.0,86.0 0 0,1 -42.54439059252881,-10.42667462771756" fill="none" id="id67" stroke="none" /><text fill="#e1ed5e" style="font-size:6.75px; font-family:Arial;" text-anchor="middle"><textPath startOffset="22.145653131862474" xlink:href="#id67">July</textPath></text><path d="M 100.36049292484886 120.99690560180557 l 0.1569176012608047 9.139663593443057 a30.141010542324842,30.141010542324842 0 0,0 -0.5174105261096558,0.0044413470762196955 l -1.119450930163033e-15 -9.141010542324842" fill="#ff3605" stroke="none" /><path d="M 98.19965949673042 120.92268563240118 l -1.0125114567724118 11.766917908462762 a32.810399506985235,32.810399506985235 0 0,0 -0.5607460337413848,-0.05310323240076259 l 1.214357053898812 -11.747802920556817" fill="#ff5e08" stroke="none" /><path d="M 96.41257539226777 120.69131181640829 l -1.4000299485774272 8.075000699913767 a29.195469489939033,29.195469489939033 0 0,0 -0.49307709360720037,-0.0898550717174215 l 1.5384417757356847 -8.04977745426498" fill="#ff2703" stroke="none" /><path d="M 95.70440661134978 120.55596938700252 l -3.610435425265959 17.277240502234097 a38.650447114225,38.650447114225 0 0,0 -0.6482923851478327,-0.14129230797327957 l 3.9064902270329283 -17.2127167361271" fill="#ffb210" stroke="none" /><path d="M 93.61358852112213 120.00534299687104 l -3.6415300801932817 11.407041110431242 a32.9741942618291,32.9741942618291 0 0,0 -0.5377577037648911,-0.17677163845273655 l 3.8368105216059165 -11.342848550576484" fill="#ff6008" stroke="none" /><path d="M 92.93061703081489 119.77432235084164 l -3.2635029100182926 9.128598467066821 a30.694419075768934,30.694419075768934 0 0,0 -0.49463449518642677,-0.18163663803411279 l 3.419726556858838 -9.071230980023989" fill="#ff3e05" stroke="none" /><path d="M 91.59046798132341 119.24265499422711 l -6.536634274199741 14.957098430984997 a37.32306285930483,37.32306285930483 0 0,0 -0.5848818929225645,-0.2616102313069226 l 6.792429569977942 -14.84268444876822" fill="#ff9f0e" stroke="none" /><path d="M 91.26138138417905 119.09545874513695 l -3.7104579982514694 8.108020357233324 a29.916697408239123,29.916697408239123 0 0,0 -0.46514949273722006,-0.21771344937577922 l 3.8490962048601793 -8.043130676287019" fill="#ff3204" stroke="none" /><path d="M 90.93487009805054 118.94263497670748 l -4.018850128314147 8.39785108764714 a30.30994410531808,30.30994410531808 0 0,0 -0.4674078449498484,-0.228632599070775 l 4.162418222526065 -8.327624738479145" fill="#ff3805" stroke="none" /><path d="M 90.28995756902619 118.62028667847754 l -8.304861064900233 15.925666128923396 a38.961001056657,38.961001056657 0 0,0 -0.5903726802085637,-0.3143401993376061 l 8.57702256089536 -15.780755461863217" fill="#ffb610" stroke="none" /><line stroke="#e1ed5e" stroke-width="0.3" x1="58.13341422392154" x2="55.67067388415222" y1="173.97424548756322" y2="178.32567169271397" /><path d="M 57.64086615596768 174.84453072859336 a86.0,86.0 0 0,1 -31.369924170532247,-30.572349798747897" fill="none" id="id68" stroke="none" /><text fill="#e1ed5e" style="font-size:6.75px; font-family:Arial;" text-anchor="middle"><textPath startOffset="22.145653131862474" xlink:href="#id68">August</textPath></text><path d="M 89.65649057296885 118.27599006163327 l -7.567161653953866 13.370449571111191 a36.363295780225585,36.363295780225585 0 0,0 -0.5406140398098367,-0.3121236614119026 l 7.795568161624103 -13.238579012423118" fill="#ff920d" stroke="none" /><path d="M 87.83215693770417 117.11559508785305 l -8.749780532377912 12.30766208382567 a36.10090081201845,36.10090081201845 0 0,0 -0.5020070752245589,-0.3634144087808656 l 8.959768617976424 -12.15564690367174" fill="#ff8e0d" stroke="none" /><path d="M 87.2517909369889 116.68781488649013 l -4.658027331974679 6.097507302240986 a28.673122827526306,28.673122827526306 0 0,0 -0.38857550537936236,-0.30215866326092383 l 4.76201278198927 -6.016647587359269" fill="#ff1f03" stroke="none" /><path d="M 86.96720088162412 116.46651593811092 l -5.55769038012077 7.021960239862034 a29.955213452033973,29.955213452033973 0 0,0 -0.40047157621439217,-0.3225915539028601 l 5.677412726690425 -6.9255203921657635" fill="#ff3304" stroke="none" /><path d="M 86.13680546590413 115.77377054828092 l -13.203071885090381 15.022672150755987 a41.00004464374926,41.00004464374926 0 0,0 -0.5246736141704073,-0.4691663810892303 l 13.459010526084159 -14.793810239783374" fill="#ffd313" stroke="none" /><path d="M 85.08716467003676 114.78537596483092 l -8.404697015692436 8.332862430112504 a32.83535078503252,32.83535078503252 0 0,0 -0.3934194117313005,-0.4036829747948192 l 8.546503228574547 -8.187356763249948" fill="#ff5e08" stroke="none" /><path d="M 84.58840730492382 114.26474011684316 l -9.039061352887979 8.366420242882645 a33.31672106616812,33.31672106616812 0 0,0 -0.38489110147915057,-0.42306274352252876 l 9.18135015520901 -8.210019923802442" fill="#ff6509" stroke="none" /><path d="M 83.8745106332314 113.45245675266167 l -10.483587047814176 8.745781176980518 a34.65262926269969,34.65262926269969 0 0,0 -0.3771413637968831,-0.4600511415042205 l 10.632175230849688 -8.564527753777803" fill="#ff790b" stroke="none" /><line stroke="#e1ed5e" stroke-width="0.3" x1="26.387840678322732" x2="22.057713659400548" y1="142.50000000000003" y2="145.00000000000006" /><path d="M 25.521815274538298 143.00000000000003 a86.0,86.0 0 0,1 -11.493303480769221,-40.785679425670985" fill="none" id="id69" stroke="none" /><text fill="#e1ed5e" style="font-size:6.75px; font-family:Arial;" text-anchor="middle"><textPath startOffset="21.40746469413373" xlink:href="#id69">September</textPath></text><path d="M 80.9802524753101 108.90220220490708 l -31.592658110605377 14.786959202587633 a55.88194674831941,55.88194674831941 0 0,0 -0.39919810220906643,-0.8723198971138639 l 31.841840677669502 -14.242450323259082" fill="#71ff27" stroke="none" /><path d="M 80.05021161711548 106.5578916946017 l -14.72736045474423 4.841175904022703 a36.50264913160503,36.50264913160503 0 0,0 -0.19057039582984092,-0.5969590506710094 l 14.808295566351328 -4.587647819660302" fill="#ff940d" stroke="none" /><path d="M 79.48165901384964 104.47187691870673 l -16.873826143363644 3.67757187151296 a38.26993177712656,38.26993177712656 0 0,0 -0.13438630361145812,-0.6430871111703672 l 16.934470157799467 -3.387368309057184" fill="#ffad10" stroke="none" /><line stroke="#e1ed5e" stroke-width="0.3" x1="15.003131293944662" x2="10.003315487706104" y1="100.72959589197737" y2="100.7725132973878" /><path d="M 14.003168132696942 100.73817937305945 a86.0,86.0 0 0,1 10.791469493833604,-42.45332614584628" fill="none" id="id70" stroke="none" /><text fill="#e1ed5e" style="font-size:6.75px; font-family:Arial;" text-anchor="middle"><textPath startOffset="22.145653131862435" xlink:href="#id70">October</textPath></text><line stroke="#e1ed5e" stroke-width="0.3" x1="26.387840678322718" x2="22.05771365940052" y1="57.49999999999999" y2="54.99999999999999" /><path d="M 25.521815274538284 56.99999999999999 a86.0,86.0 0 0,1 29.574782752854787,-30.34633250058573" fill="none" id="id71" stroke="none" /><text fill="#e1ed5e" style="font-size:6.75px; font-family:Arial;" text-anchor="middle"><textPath startOffset="21.40746469413373" xlink:href="#id71">November</textPath></text><line stroke="#e1ed5e" stroke-width="0.3" x1="56.869717070023135" x2="54.33264160355391" y1="26.7553504044142" y2="22.446841604673864" /><path d="M 56.362301976729285 25.89364864446614 a86.0,86.0 0 0,1 42.16139366436587,-11.88097634709845" fill="none" id="id72" stroke="none" /><text fill="#e1ed5e" style="font-size:6.75px; font-family:Arial;" text-anchor="middle"><textPath startOffset="22.145653131862474" xlink:href="#id72">December</textPath></text></svg>