<?xml version="1.0" encoding="utf-8" ?>
<svg baseProfile="full" height="200mm" version="1.1" viewBox="0,0,200,200" width="200mm" xmlns="http://www.w3.org/2000/svg" xmlns:ev="http://www.w3.org/2001/xml-events" xmlns:xlink="http://www.w3.org/1999/xlink"><defs /><rect fill="#1a1a1a" height="200" width="200" x="0" y="0" /><text alignment-baseline="middle" fill="#e1ed5e" style="dominant-baseline: central; font-size:9.0px; font-family:Arial;" text-anchor="middle" x="100.0" y="100.0">2015</text><line stroke="#e1ed5e" stroke-width="0.3" x1="100.0" x2="100.0" y1="15.0" y2="10.0" /><path d="M 100.0 14.0 a86.0,86.0 0 0,1 42.46469731375804,11.215312516191453" fill="none" id="id1" stroke="none" /><text fill="#e1ed5e" style="font-size:6.75px; font-family:Arial;" text-anchor="middle"><textPath startOffset="22.20632615414155" xlink:href="#id1">January</textPath></text><line stroke="#e1ed5e" stroke-width="0.3" x1="143.23703022742887" x2="145.7803849466894" y1="26.81831364943548" y2="22.513508569990506" /><path d="M 143.74570117128098 25.957352633546492 a86.0,86.0 0 0,1 28.547481713284135,27.462654790039103" fill="none" id="id2" stroke="none" /><text fill="#e1ed5e" style="font-size:6.75px; font-family:Arial;" text-anchor="middle"><textPath startOffset="19.985693538727396" xlink:href="#id2">February</textPath></text><line stroke="#e1ed5e" stroke-width="0.3" x1="172.23445277983987" x2="176.4835382374775" y1="55.19839476539836" y2="52.563006222186495" /><path d="M 173.08426987136738 54.67131705675599 a86.0,86.0 0 0,1 12.851231095245387,41.99856678651699" fill="none" id="id3" stroke="none" /><text fill="#e1ed5e" style="font-size:6.75px; font-family:Arial;" text-anchor="middle"><textPath startOffset="22.20632615414155" xlink:href="#id3">March</textPath></text><line stroke="#e1ed5e" stroke-width="0.3" x1="184.98032266829074" x2="189.97916517819016" y1="98.17113171792111" y2="98.06355123074" /><path d="M 185.9800911702706 98.14961562048488 a86.0,86.0 0 0,1 -9.607161424134198,41.387399972396054" fill="none" id="id4" stroke="none" /><text fill="#e1ed5e" style="font-size:6.75px; font-family:Arial;" text-anchor="middle"><textPath startOffset="21.466115282336823" xlink:href="#id4">April</textPath></text><line stroke="#e1ed5e" stroke-width="0.3" x1="174.80103733775053" x2="179.2010983576182" y1="140.37084112569926" y2="142.7455964860345" /><path d="M 175.68104954172406 140.8457921977663 a86.0,86.0 0 0,1 -30.038265399797805,32.042727171017184" fill="none" id="id5" stroke="none" /><text fill="#e1ed5e" style="font-size:6.75px; font-family:Arial;" text-anchor="middle"><textPath startOffset="22.206326154141568" xlink:href="#id5">May</textPath></text><line stroke="#e1ed5e" stroke-width="0.3" x1="143.8653032363475" x2="146.44561519142675" y1="172.8068346515853" y2="177.08958963109032" /><path d="M 144.38136562736335 173.6633856474863 a86.0,86.0 0 0,1 -40.68145358897372,12.25698825130547" fill="none" id="id6" stroke="none" /><text fill="#e1ed5e" style="font-size:6.75px; font-family:Arial;" text-anchor="middle"><textPath startOffset="21.466115282336833" xlink:href="#id6">June</textPath></text><line stroke="#e1ed5e" stroke-width="0.3" x1="102.19456741930631" x2="102.32365962044197" y1="184.97166512339345" y2="189.96999836594603" /><path d="M 102.22038585953345 185.97133177190398 a86.0,86.0 0 0,1 -42.740103519485714,-10.115201625700543" fill="none" id="id7" stroke="none" /><text fill="#e1ed5e" style="font-size:6.75px; font-family:Arial;" text-anchor="middle"><textPath startOffset="22.20632615414155" xlink:href="#id7">July</textPath></text><line stroke="#e1ed5e" stroke-width="0.3" x1="58.666819895761336" x2="56.23545636021788" y1="174.27360380694188" y2="178.64263932499728" /><path d="M 58.180547188652646 175.14741091055294 a86.0,86.0 0 0,1 -31.652253787137756,-30.449443065178592" fill="none" id="id8" stroke="none" /><text fill="#e1ed5e" style="font-size:6.75px; font-family:Arial;" text-anchor="middle"><textPath startOffset="22.20632615414155" xlink:href="#id8">August</textPath></text><line stroke="#e1ed5e" stroke-width="0.3" x1="26.63291911575756" x2="22.317208475507996" y1="142.92168965132927" y2="145.44649492493687" /><path d="M 25.769776987707644 143.4266507060508 a86.0,86.0 0 0,1 -11.730757126820373,-40.83630448921669" fill="none" id="id9" stroke="none" /><text fill="#e1ed5e" style="font-size:6.75px; font-family:Arial;" text-anchor="middle"><textPath startOffset="21.46611528233685" xlink:href="#id9">September</textPath></text><path d="M 80.45479744820244 107.68017299344265 l -38.321684086092404 15.058281560463017 a62.17406118842843,62.17406118842843 0 0,0 -0.38283151297938023,-0.9994522767374603 l 38.5752098786653 -14.3964057168924" fill="#7fff26" stroke="none" /><path d="M 80.20201598880116 107.00284435728193 l -44.41652108260213 15.71079074806059 a68.11322840785363,68.11322840785363 0 0,0 -0.38146381880103575,-1.1087124166913296 l 44.68037573234639 -14.943905628279964" fill="#30ff39" stroke="none" /><path d="M 79.97269907076064 106.31721596034903 l -52.0812513745316 16.428000636760625 a75.61076770801301,75.61076770801301 0 0,0 -0.3808378539888473,-1.24460014196632 l 52.35631600102658 -15.529073522242257" fill="#3effb4" stroke="none" /><path d="M 79.86692584326677 105.97154293290107 l -31.73904552105364 9.413916200913977 a54.10572199522834,54.10572199522834 0 0,0 -0.25714997341510765,-0.8951727923651736 l 31.89638813135485 -8.866185933044207" fill="#fff917" stroke="none" /><path d="M 79.76711848015287 105.62410040840567 l -53.41033467213685 14.846381853617368 a76.43535788585731,76.43535788585731 0 0,0 -0.3414546647036743,-1.2706798316154932 l 53.657977413182294 -13.924811088826335" fill="#3fffc1" stroke="none" /><path d="M 79.67330655649465 105.27499134158121 l -51.16142188759251 13.276928597861204 a73.85610582092608,73.85610582092608 0 0,0 -0.3087490695859132,-1.2332990572342386 l 51.38238227147349 -12.394301701229574" fill="#3bff99" stroke="none" /><path d="M 79.50377843672027 104.57218783832718 l -29.464650347927474 6.572817119752074 a51.188864586388945,51.188864586388945 0 0,0 -0.18444069740635963,-0.8616455348126582 l 29.573425084058275 -6.064657765523251" fill="#ffc412" stroke="none" /><path d="M 79.29508885075956 103.50808413554451 l -41.92558973010949 7.103556018444471 a63.52311821027053,63.52311821027053 0 0,0 -0.173382556824431,-1.079653346852324 l 42.04165404129522 -6.380823441898933" fill="#6bff28" stroke="none" /><line stroke="#e1ed5e" stroke-width="0.3" x1="15.007084014347285" x2="10.007500721073583" y1="101.09737516637583" y2="101.16192664675087" /><path d="M 14.007167355692545 101.11028546245083 a86.0,86.0 0 0,1 10.666146001902534,-42.60595125391555" fill="none" id="id10" stroke="none" /><text fill="#e1ed5e" style="font-size:6.75px; font-family:Arial;" text-anchor="middle"><textPath startOffset="22.20632615414155" xlink:href="#id10">October</textPath></text><path d="M 79.03285615573316 98.82574320788736 l -42.88492554690056 -2.4017536902844623 a63.952127536968405,63.952127536968405 0 0,0 0.07101551515107127,-1.098578587176034 l 42.83722944074508 3.1395913417135084" fill="#64ff29" stroke="none" /><path d="M 79.05617556472873 98.46500227214037 l -37.65622631515215 -2.7598694790519054 a58.75722791518678,58.75722791518678 0 0,0 0.08261130873958787,-1.0080672133948771 l 37.60314052259307 3.407650609654561" fill="#b6ff1f" stroke="none" /><path d="M 79.08570108090925 98.10471618934814 l -41.78694418035774 -3.786792906997805 a62.958175656870765,62.958175656870765 0 0,0 0.10709747601269355,-1.0784569679040519 l 41.715569578662816 4.505525405606287" fill="#73ff27" stroke="none" /><path d="M 79.21141760316559 97.0276538004421 l -62.36574719050324 -8.91703859867371 a84.0,84.0 0 0,0 0.21697642624279112,-1.4296035504316318 l 62.20301487082115 9.989241261497433" fill="#4dd2ff" stroke="none" /><path d="M 79.32604984820605 96.31383870115002 l -20.047649676112236 -3.5744920456130105 a41.36382210981705,41.36382210981705 0 0,0 0.13101355637884485,-0.6998796569312541 l 19.983150395823532 3.9190497800068376" fill="#ff0000" stroke="none" /><path d="M 79.81627453868168 94.20196356495316 l -45.81285643944624 -13.160336100416338 a68.66562977048801,68.66562977048801 0 0,0 0.33611532435795155,-1.1332137818568153 l 45.579535217976584 13.946979269019693" fill="#31ff42" stroke="none" /><path d="M 79.91906864156998 93.8553929516997 l -39.855671371248555 -12.195521953203933 a62.67979481912118,62.67979481912118 0 0,0 0.3245754269101703,-1.0289928015389769 l 39.63984046057018 12.879764921169324" fill="#77ff26" stroke="none" /><path d="M 80.02781315780177 93.51064311812611 l -40.49537380172386 -13.1577445544941 a63.57935580892062,63.57935580892062 0 0,0 0.34715147606182006,-1.037938727150947 l 40.262885031890264 13.852856384567367" fill="#6aff28" stroke="none" /><path d="M 80.14247586403 93.16781622104843 l -42.13868624580772 -14.498244930415835 a65.56307871528799,65.56307871528799 0 0,0 0.3763536738929484,-1.0640025164261466 l 41.88287949110496 15.221445073268592" fill="#4cff2c" stroke="none" /><line stroke="#e1ed5e" stroke-width="0.3" x1="26.266209847984243" x2="21.928928074336255" y1="57.711370442889674" y2="55.22380399835377" /><path d="M 25.398753493254645 57.213857153982495 a86.0,86.0 0 0,1 29.58750427330803,-30.492523968695096" fill="none" id="id11" stroke="none" /><text fill="#e1ed5e" style="font-size:6.75px; font-family:Arial;" text-anchor="middle"><textPath startOffset="21.46611528233685" xlink:href="#id11">November</textPath></text><line stroke="#e1ed5e" stroke-width="0.3" x1="56.762969772571076" x2="54.21961505331055" y1="26.818313649435495" y2="22.513508569990535" /><path d="M 56.25429882871897 25.957352633546506 a86.0,86.0 0 0,1 42.265352541879196,-11.944610805530505" fill="none" id="id12" stroke="none" /><text fill="#e1ed5e" style="font-size:6.75px; font-family:Arial;" text-anchor="middle"><textPath startOffset="22.20632615414155" xlink:href="#id12">December</textPath></text></svg>