<?xml version="1.0" encoding="utf-8" ?>
<svg baseProfile="full" height="200mm" version="1.1" viewBox="0,0,200,200" width="200mm" xmlns="http://www.w3.org/2000/svg" xmlns:ev="http://www.w3.org/2001/xml-events" xmlns:xlink="http://www.w3.org/1999/xlink"><defs /><rect fill="#1a1a1a" height="200" width="200" x="0" y="0" /><text alignment-baseline="middle" fill="#e1ed5e" style="dominant-baseline: central; font-size:9.0px; font-family:Arial;" text-anchor="middle" x="100.0" y="100.0">2015</text><line stroke="#e1ed5e" stroke-width="0.3" x1="100.0" x2="100.0" y1="15.0" y2="10.0" /><path d="M 100.0 14.0 a86.0,86.0 0 0,1 42.46469731375804,11.215312516191453" fill="none" id="id1" stroke="none" /><text fill="#e1ed5e" style="font-size:6.75px; font-family:Arial;" text-anchor="middle"><textPath startOffset="22.20632615414155" xlink:href="#id1">January</textPath></text><line stroke="#e1ed5e" stroke-width="0.3" x1="143.23703022742887" x2="145.7803849466894" y1="26.81831364943548" y2="22.513508569990506" /><path d="M 143.74570117128098 25.957352633546492 a86.0,86.0 0 0,1 28.547481713284135,27.462654790039103" fill="none" id="id2" stroke="none" /><text fill="#e1ed5e" style="font-size:6.75px; font-family:Arial;" text-anchor="middle"><textPath startOffset="19.985693538727396" xlink:href="#id2">February</textPath></text><line stroke="#e1ed5e" stroke-width="0.3" x1="172.23445277983987" x2="176.4835382374775" y1="55.19839476539836" y2="52.563006222186495" /><path d="M 173.08426987136738 54.67131705675599 a86.0,86.0 0 0,1 12.851231095245387,41.99856678651699" fill="none" id="id3" stroke="none" /><text fill="#e1ed5e" style="font-size:6.75px; font-family:Arial;" text-anchor="middle"><textPath startOffset="22.20632615414155" xlink:href="#id3">March</textPath></text><line stroke="#e1ed5e" stroke-width="0.3" x1="184.98032266829074" x2="189.97916517819016" y1="98.17113171792111" y2="98.06355123074" /><path d="M 185.9800911702706 98.14961562048488 a86.0,86.0 0 0,1 -9.607161424134198,41.387399972396054" fill="none" id="id4" stroke="none" /><text fill="#e1ed5e" style="font-size:6.75px; font-family:Arial;" text-anchor="middle"><textPath startOffset="21.466115282336823" xlink:href="#id4">April</textPath></text><line stroke="#e1ed5e" stroke-width="0.3" x1="174.80103733775053" x2="179.2010983576182" y1="140.37084112569926" y2="142.7455964860345" /><path d="M 175.68104954172406 140.8457921977663 a86.0,86.0 0 0,1 -30.038265399797805,32.042727171017184" fill="none" id="id5" stroke="none" /><text fill="#e1ed5e" style="font-size:6.75px; font-family:Arial;" text-anchor="middle"><textPath startOffset="22.206326154141568" xlink:href="#id5">May</textPath></text><line stroke="#e1ed5e" stroke-width="0.3" x1="143.8653032363475" x2="146.44561519142675" y1="172.8068346515853" y2="177.08958963109032" /><path d="M 144.38136562736335 173.6633856474863 a86.0,86.0 0 0,1 -40.68145358897372,12.25698825130547" fill="none" id="id6" stroke="none" /><text fill="#e1ed5e" style="font-size:6.75px; font-family:Arial;" text-anchor="middle"><textPath startOffset="21.466115282336833" xlink:href="#id6">June</textPath></text><line stroke="#e1ed5e" stroke-width="0.3" x1="102.19456741930631" x2="102.32365962044197" y1="184.97166512339345" y2="189.96999836594603" /><path d="M 102.22038585953345 185.97133177190398 a86.0,86.0 0 0,1 -42.740103519485714,-10.115201625700543" fill="none" id="id7" stroke="none" /><text fill="#e1ed5e" style="font-size:6.75px; font-family:Arial;" text-anchor="middle"><textPath startOffset="22.20632615414155" xlink:href="#id7">July</textPath></text><line stroke="#e1ed5e" stroke-width="0.3" x1="58.666819895761336" x2="56.23545636021788" y1="174.27360380694188" y2="178.64263932499728" /><path d="M 58.180547188652646 175.14741091055294 a86.0,86.0 0 0,1 -31.652253787137756,-30.449443065178592" fill="none" id="id8" stroke="none" /><text fill="#e1ed5e" style="font-size:6.75px; font-family:Arial;" text-anchor="middle"><textPath startOffset="22.20632615414155" xlink:href="#id8">August</textPath></text><line stroke="#e1ed5e" stroke-width="0.3" x1="26.63291911575756" x2="22.317208475507996" y1="142.92168965132927" y2="145.44649492493687" /><path d="M 25.769776987707644 143.4266507060508 a86.0,86.0 0 0,1 -11.730757126820373,-40.83630448921669" fill="none" id="id9" stroke="none" /><text fill="#e1ed5e" style="font-size:6.75px; font-family:Arial;" text-anchor="middle"><textPath startOffset="21.46611528233685" xlink:href="#id9">September</textPath></text><path d="M 80.45479744820244 107.68017299344265 l -38.64117169249278 15.183822346234518 a62.51732904234949,62.51732904234949 0 0,0 -0.3849451557005065,-1.004970330915913 l 38.8968111277868 -14.516428448485446" fill="#79ff26" stroke="none" /><path d="M 80.20201598880116 107.00284435728193 l -44.21157626884666 15.638298688679702 a67.89584056238257,67.89584056238257 0 0,0 -0.3802463519501361,-1.1051738881390147 l 44.47421345174003 -14.874952097451391" fill="#30ff35" stroke="none" /><path d="M 79.97269907076064 106.31721596034903 l -52.67996964306312 16.616854472586194 a76.23856491761131,76.23856491761131 0 0,0 -0.3839999557541262,-1.2549340734932353 l 52.958196371323375 -15.707593426540912" fill="#3fffbe" stroke="none" /><path d="M 79.86692584326677 105.97154293290107 l -32.25802038556391 9.567846031023064 a54.64704380579103,54.64704380579103 0 0,0 -0.25972273067740775,-0.9041288979092841 l 32.41793575312742 -9.011159657609184" fill="#fbff18" stroke="none" /><path d="M 79.76711848015287 105.62410040840567 l -53.73604224287161 14.936918245074676 a76.77341447847466,76.77341447847466 0 0,0 -0.34296484276361616,-1.2762997659765647 l 53.985195161977 -14.009727545922571" fill="#40ffc6" stroke="none" /><path d="M 79.67330655649465 105.27499134158121 l -51.30536289955791 13.314282808664169 a74.00481477153207,74.00481477153207 0 0,0 -0.3093707345062114,-1.2357822995680456 l 51.52694494835919 -12.429172669698731" fill="#3bff9b" stroke="none" /><path d="M 79.50377843672027 104.57218783832718 l -29.137427542555077 6.499822000796716 a50.85359894283582,50.85359894283582 0 0,0 -0.18323268801578266,-0.8560021171069165 l 29.2449942692953 -5.997306064273635" fill="#ffbe11" stroke="none" /><path d="M 79.29508885075956 103.50808413554451 l -41.84532136004084 7.089955950634753 a63.44170584586618,63.44170584586618 0 0,0 -0.17316034663867114,-1.0782696438134813 l 41.961163461040805 -6.368607077128058" fill="#6bff28" stroke="none" /><line stroke="#e1ed5e" stroke-width="0.3" x1="15.007084014347285" x2="10.007500721073583" y1="101.09737516637583" y2="101.16192664675087" /><path d="M 14.007167355692545 101.11028546245083 a86.0,86.0 0 0,1 10.666146001902534,-42.60595125391555" fill="none" id="id10" stroke="none" /><text fill="#e1ed5e" style="font-size:6.75px; font-family:Arial;" text-anchor="middle"><textPath startOffset="22.20632615414155" xlink:href="#id10">October</textPath></text><path d="M 79.03285615573316 98.82574320788736 l -42.78977867189738 -2.39642502630187 a63.8568315639018,63.8568315639018 0 0,0 0.07090969392385353,-1.0969415796285593 l 42.74218838696911 3.132625670183441" fill="#65ff29" stroke="none" /><path d="M 79.05617556472873 98.46500227214037 l -37.552368902038744 -2.7522576460916373 a58.65309193552737,58.65309193552737 0 0,0 0.08246489595137803,-1.0062806065287238 l 37.49942952226787 3.3982521698281394" fill="#b7ff1f" stroke="none" /><path d="M 79.08570108090925 98.10471618934814 l -41.88372204996564 -3.795563056559443 a63.05535009573808,63.05535009573808 0 0,0 0.10726277840633912,-1.0801215404493205 l 41.812182145877074 4.5159601277131936" fill="#71ff27" stroke="none" /><path d="M 79.21141760316559 97.0276538004421 l -62.36574719050324 -8.91703859867371 a84.0,84.0 0 0,0 0.21697642624279112,-1.4296035504316318 l 62.20301487082115 9.989241261497433" fill="#4dd2ff" stroke="none" /><path d="M 79.32604984820605 96.31383870115002 l -19.970588695635872 -3.560752087753106 a41.28554579696335,41.28554579696335 0 0,0 0.13076562817482248,-0.69855521455162 l 19.906337343551186 3.9039853797672985" fill="#ff0000" stroke="none" /><path d="M 79.81627453868168 94.20196356495316 l -45.75611606607102 -13.14403669360969 a68.60659469080645,68.60659469080645 0 0,0 0.3358263501648656,-1.132239504534496 l 45.52308381879445 13.929705584890725" fill="#31ff42" stroke="none" /><path d="M 79.91906864156998 93.8553929516997 l -39.76736008392153 -12.168499393897873 a62.58744168067529,62.58744168067529 0 0,0 0.3240971937024185,-1.027476671581395 l 39.55200740645091 12.851226231905683" fill="#78ff26" stroke="none" /><path d="M 80.02781315780177 93.51064311812611 l -40.83230571707124 -13.267220370079942 a63.93362699004864,63.93362699004864 0 0,0 0.34908584236500145,-1.043722236186669 l 40.59788258093447 13.968115709188934" fill="#64ff29" stroke="none" /><path d="M 80.14247586403 93.16781622104843 l -41.81941994272052 -14.388398101466652 a65.22544385613219,65.22544385613219 0 0,0 0.3744155385556891,-1.0585231468356033 l 41.565551323355024 15.106118874728866" fill="#51ff2b" stroke="none" /><line stroke="#e1ed5e" stroke-width="0.3" x1="26.266209847984243" x2="21.928928074336255" y1="57.711370442889674" y2="55.22380399835377" /><path d="M 25.398753493254645 57.213857153982495 a86.0,86.0 0 0,1 29.58750427330803,-30.492523968695096" fill="none" id="id11" stroke="none" /><text fill="#e1ed5e" style="font-size:6.75px; font-family:Arial;" text-anchor="middle"><textPath startOffset="21.46611528233685" xlink:href="#id11">November</textPath></text><line stroke="#e1ed5e" stroke-width="0.3" x1="56.762969772571076" x2="54.21961505331055" y1="26.818313649435495" y2="22.513508569990535" /><path d="M 56.25429882871897 25.957352633546506 a86.0,86.0 0 0,1 42.265352541879196,-11.944610805530505" fill="none" id="id12" stroke="none" /><text fill="#e1ed5e" style="font-size:6.75px; font-family:Arial;" text-anchor="middle"><textPath startOffset="22.20632615414155" xlink:href="#id12">December</textPath></text></svg>