<?xml version="1.0" encoding="utf-8" ?>
<svg baseProfile="full" height="200mm" version="1.1" viewBox="0,0,200,200" width="200mm" xmlns="http://www.w3.org/2000/svg" xmlns:ev="http://www.w3.org/2001/xml-events" xmlns:xlink="http://www.w3.org/1999/xlink"><defs /><rect fill="#1a1a1a" height="200" width="200" x="0" y="0" /><text alignment-baseline="middle" fill="#e1ed5e" style="dominant-baseline: central; font-size:9.0px; font-family:Arial;" text-anchor="middle" x="100.0" y="100.0">2021</text><line stroke="#e1ed5e" stroke-width="0.3" x1="100.0" x2="100.0" y1="15.0" y2="10.0" /><path d="M 100.0 14.0 a86.0,86.0 0 0,1 42.46469731375804,11.215312516191453" fill="none" id="id25" stroke="none" /><text fill="#e1ed5e" style="font-size:6.75px; font-family:Arial;" text-anchor="middle"><textPath startOffset="22.20632615414155" xlink:href="#id25">January</textPath></text><line stroke="#e1ed5e" stroke-width="0.3" x1="143.23703022742887" x2="145.7803849466894" y1="26.81831364943548" y2="22.513508569990506" /><path d="M 143.74570117128098 25.957352633546492 a86.0,86.0 0 0,1 28.547481713284135,27.462654790039103" fill="none" id="id26" stroke="none" /><text fill="#e1ed5e" style="font-size:6.75px; font-family:Arial;" text-anchor="middle"><textPath startOffset="19.985693538727396" xlink:href="#id26">February</textPath></text><path d="M 115.9244219780498 86.31012108654704 l 18.931729190915284 -16.275195457841843 a45.9658237867111,45.9658237867111 0 0,0 0.5106351824648147,0.6044309934107525 l -19.209074986867215 15.946905514801983" fill="#ff700a" stroke="none" /><path d="M 117.45458315368197 88.32363383020206 l 19.105235041553712 -12.780581360270308 a43.98593626327848,43.98593626327848 0 0,0 0.4155694167412531,0.6329407322758156 l -19.32240109365289 12.449822564016818" fill="#ff4906" stroke="none" /><line stroke="#e1ed5e" stroke-width="0.3" x1="172.23445277983987" x2="176.4835382374775" y1="55.19839476539836" y2="52.563006222186495" /><path d="M 173.08426987136738 54.67131705675599 a86.0,86.0 0 0,1 12.851231095245387,41.99856678651699" fill="none" id="id27" stroke="none" /><text fill="#e1ed5e" style="font-size:6.75px; font-family:Arial;" text-anchor="middle"><textPath startOffset="22.20632615414155" xlink:href="#id27">March</textPath></text><line stroke="#e1ed5e" stroke-width="0.3" x1="184.98032266829074" x2="189.97916517819016" y1="98.17113171792111" y2="98.06355123074" /><path d="M 185.9800911702706 98.14961562048488 a86.0,86.0 0 0,1 -9.607161424134198,41.387399972396054" fill="none" id="id28" stroke="none" /><text fill="#e1ed5e" style="font-size:6.75px; font-family:Arial;" text-anchor="middle"><textPath startOffset="21.466115282336823" xlink:href="#id28">April</textPath></text><line stroke="#e1ed5e" stroke-width="0.3" x1="174.80103733775053" x2="179.2010983576182" y1="140.37084112569926" y2="142.7455964860345" /><path d="M 175.68104954172406 140.8457921977663 a86.0,86.0 0 0,1 -30.038265399797805,32.042727171017184" fill="none" id="id29" stroke="none" /><text fill="#e1ed5e" style="font-size:6.75px; font-family:Arial;" text-anchor="middle"><textPath startOffset="22.206326154141568" xlink:href="#id29">May</textPath></text><path d="M 116.27256486870786 113.27417163493432 l 23.483741313629345 19.15661208559478 a51.30613622162049,51.30613622162049 0 0,0 -0.5641329563609017,0.6795344871919604 l -23.150512357374897 -19.55800782990051" fill="#ffd413" stroke="none" /><path d="M 115.56566222782051 114.09645910891815 l 28.511465145811414 25.820340739820285 a59.465486357008956,59.465486357008956 0 0,0 -0.6936325944490825,0.752801187173294 l -28.06278614336661 -26.307293181794915" fill="#a1ff22" stroke="none" /><path d="M 114.81725581225074 114.88116024355365 l 19.13924568194307 19.221790157544287 a48.1254113726307,48.1254113726307 0 0,0 -0.5920572533358874,0.5794526339227883 l -18.80553847623139 -19.54839289438965" fill="#ff990e" stroke="none" /><path d="M 113.20401910651253 116.32954008644616 l 23.608819165616506 29.19725848991275 a58.54805248906477,58.54805248906477 0 0,0 -0.7891232177629061,0.6269272098018304 l -23.102738455136247 -29.599319613719707" fill="#b0ff20" stroke="none" /><line stroke="#e1ed5e" stroke-width="0.3" x1="143.8653032363475" x2="146.44561519142675" y1="172.8068346515853" y2="177.08958963109032" /><path d="M 144.38136562736335 173.6633856474863 a86.0,86.0 0 0,1 -40.68145358897372,12.25698825130547" fill="none" id="id30" stroke="none" /><text fill="#e1ed5e" style="font-size:6.75px; font-family:Arial;" text-anchor="middle"><textPath startOffset="21.466115282336833" xlink:href="#id30">June</textPath></text><path d="M 107.59598834532513 119.57807347666477 l 22.787965035975386 58.73422042999433 a84.0,84.0 0 0,0 -1.3525191169589008,0.5114069995734765 l -21.77357569825621 -59.11777567967444" fill="#4dd2ff" stroke="none" /><path d="M 104.48393922423573 120.51570834832081 l 4.25303510008758 19.459235137925038 a40.91858779420954,40.91858779420954 0 0,0 -0.6893974165639509,0.14446993152650425 l -3.917446222094251 -19.52956105017808" fill="#ff0b01" stroke="none" /><line stroke="#e1ed5e" stroke-width="0.3" x1="102.19456741930631" x2="102.32365962044197" y1="184.97166512339345" y2="189.96999836594603" /><path d="M 102.22038585953345 185.97133177190398 a86.0,86.0 0 0,1 -42.740103519485714,-10.115201625700543" fill="none" id="id31" stroke="none" /><text fill="#e1ed5e" style="font-size:6.75px; font-family:Arial;" text-anchor="middle"><textPath startOffset="22.20632615414155" xlink:href="#id31">July</textPath></text><path d="M 99.45781275523022 120.99299961872073 l -0.6871401746076896 26.605445927950644 a47.61431785044782,47.61431785044782 0 0,0 -0.8191468575362645,-0.028213074038912527 l 1.1450073838185972 -26.589676055485636" fill="#ff900d" stroke="none" /><path d="M 98.01472825383883 120.90594882070398 l -2.868446232024764 30.206237628479478 a51.34212872318267,51.34212872318267 0 0,0 -0.8790931385588655,-0.09112159820660212 l 3.3879719671892228 -30.152386661817115" fill="#ffd413" stroke="none" /><path d="M 96.22490169976321 120.6578951692458 l -6.087911313449265 33.31394938908263 a54.86564465736305,54.86564465736305 0 0,0 -0.9275752714650162,-0.17777200842401825 l 6.660454199485977 -33.20422018231014" fill="#ecff1a" stroke="none" /><path d="M 95.51606077576429 120.51570834832081 l -9.675261989336052 44.267962441138145 a66.31294730264528,66.31294730264528 0 0,0 -1.1130465599312087,-0.2533257732718539 l 10.435828698660123 -44.09485993428861" fill="#3cff2e" stroke="none" /><line stroke="#e1ed5e" stroke-width="0.3" x1="58.666819895761336" x2="56.23545636021788" y1="174.27360380694188" y2="178.64263932499728" /><path d="M 58.180547188652646 175.14741091055294 a86.0,86.0 0 0,1 -31.652253787137756,-30.449443065178592" fill="none" id="id32" stroke="none" /><text fill="#e1ed5e" style="font-size:6.75px; font-family:Arial;" text-anchor="middle"><textPath startOffset="22.20632615414155" xlink:href="#id32">August</textPath></text><path d="M 89.7882731507175 118.34994917583269 l -18.287581101517453 32.86184488819757 a58.60766506977713,58.60766506977713 0 0,0 -0.8773043705977777,-0.4981563178630324 l 18.85053423903644 -32.5421854045399" fill="#afff20" stroke="none" /><path d="M 87.07902340077011 116.55440617244103 l -30.07600578620074 38.53349721716306 a69.88145386377838,69.88145386377838 0 0,0 -0.9418772340076236,-0.7482842387608992 l 30.73484051292572 -38.01007906439703" fill="#34ff5d" stroke="none" /><path d="M 85.70375840098266 115.38237550388516 l -20.622065825320053 22.18879402630651 a51.2921141428869,51.2921141428869 0 0,0 -0.6415523982701126,-0.6066278362460613 l 21.000954057980984 -21.83053155331452" fill="#ffd313" stroke="none" /><path d="M 84.19399662182784 113.82643327865904 l -29.681498649511955 25.96413849024138 a60.435109352218284,60.435109352218284 0 0,0 -0.6781898192266342,-0.7888879756247716 l 30.124030978309367 -25.449373415455078" fill="#92ff23" stroke="none" /><line stroke="#e1ed5e" stroke-width="0.3" x1="26.63291911575756" x2="22.317208475507996" y1="142.92168965132927" y2="145.44649492493687" /><path d="M 25.769776987707644 143.4266507060508 a86.0,86.0 0 0,1 -11.730757126820373,-40.83630448921669" fill="none" id="id33" stroke="none" /><text fill="#e1ed5e" style="font-size:6.75px; font-family:Arial;" text-anchor="middle"><textPath startOffset="21.46611528233685" xlink:href="#id33">September</textPath></text><path d="M 81.18737489456691 109.33194174019688 l -27.666331140115243 13.723793937188896 a51.8831410122891,51.8831410122891 0 0,0 -0.38998023073281657,-0.8034747836384234 l 27.89846462746278 -13.245530197585188" fill="#ffde14" stroke="none" /><path d="M 80.45479744820244 107.68017299344265 l -35.08292614339132 13.785630575245005 a58.69423453447198,58.69423453447198 0 0,0 -0.3614047752470208,-0.943513825790721 l 35.31502519823185 -13.179693182621126" fill="#adff20" stroke="none" /><path d="M 79.18660465613746 102.79330883721812 l -19.49069468710351 2.615792801392247 a40.665440533222245,40.665440533222245 0 0,0 -0.08713730713366899,-0.6945700730165711 l 19.532833503484024 -2.279904974088267" fill="#ff0601" stroke="none" /><line stroke="#e1ed5e" stroke-width="0.3" x1="15.007084014347285" x2="10.007500721073583" y1="101.09737516637583" y2="101.16192664675087" /><path d="M 14.007167355692545 101.11028546245083 a86.0,86.0 0 0,1 10.666146001902534,-42.60595125391555" fill="none" id="id34" stroke="none" /><text fill="#e1ed5e" style="font-size:6.75px; font-family:Arial;" text-anchor="middle"><textPath startOffset="22.20632615414155" xlink:href="#id34">October</textPath></text><path d="M 79.16333360222342 97.38593545837743 l -37.928821339327136 -4.758361298103429 a59.22613622162049,59.22613622162049 0 0,0 0.13561093285148856,-1.0104589656469771 l 37.84129440741782 5.4105386058150655" fill="#a5ff21" stroke="none" /><path d="M 79.71946130924805 94.55025226153421 l -29.342289145453794 -7.884804065128955 a51.38322016246615,51.38322016246615 0 0,0 0.2368845467918111,-0.8521997512629926 l 29.202217828095623 8.38871511981089" fill="#ffd513" stroke="none" /><path d="M 80.2630227832202 92.82701384747504 l -39.29793256872749 -14.28200088809408 a62.81271401791293,62.81271401791293 0 0,0 0.3780589921725567,-1.0130101399171363 l 39.046268988053306 14.956334165040557" fill="#6eff28" stroke="none" /><path d="M 81.6062741919709 89.86733742301443 l -35.37197705168993 -19.48557415100747 a61.38396167465111,61.38396167465111 0 0,0 0.5177952265648922,-0.921099930914941 l 35.03132418383261 20.091557591857192" fill="#83ff25" stroke="none" /><line stroke="#e1ed5e" stroke-width="0.3" x1="26.266209847984243" x2="21.928928074336255" y1="57.711370442889674" y2="55.22380399835377" /><path d="M 25.398753493254645 57.213857153982495 a86.0,86.0 0 0,1 29.58750427330803,-30.492523968695096" fill="none" id="id35" stroke="none" /><text fill="#e1ed5e" style="font-size:6.75px; font-family:Arial;" text-anchor="middle"><textPath startOffset="21.46611528233685" xlink:href="#id35">November</textPath></text><path d="M 84.07557802195018 86.31012108654704 l -14.68471754942684 -12.62413200347323 a40.365165590501974,40.365165590501974 0 0,0 0.45748751612224425,-0.5229873156413252 l 14.465238169726751 12.8750348753175" fill="#ff0000" stroke="none" /><path d="M 84.5562425177563 85.77008943001954 l -34.09913823989892 -31.419017569075926 a67.36707769214746,67.36707769214746 0 0,0 0.7931115728025702,-0.8460361277605595 l 33.553259345125895 32.001323113714534" fill="#30ff32" stroke="none" /><line stroke="#e1ed5e" stroke-width="0.3" x1="56.762969772571076" x2="54.21961505331055" y1="26.818313649435495" y2="22.513508569990535" /><path d="M 56.25429882871897 25.957352633546506 a86.0,86.0 0 0,1 42.265352541879196,-11.944610805530505" fill="none" id="id36" stroke="none" /><text fill="#e1ed5e" style="font-size:6.75px; font-family:Arial;" text-anchor="middle"><textPath startOffset="22.20632615414155" xlink:href="#id36">December</textPath></text></svg>