<?xml version="1.0" encoding="utf-8" ?>
<svg baseProfile="full" height="200mm" version="1.1" viewBox="0,0,200,200" width="200mm" xmlns="http://www.w3.org/2000/svg" xmlns:ev="http://www.w3.org/2001/xml-events" xmlns:xlink="http://www.w3.org/1999/xlink"><defs /><rect fill="#1a1a1a" height="200" width="200" x="0" y="0" /><text alignment-baseline="middle" fill="#e1ed5e" style="dominant-baseline: central; font-size:9.0px; font-family:Arial;" text-anchor="middle" x="100.0" y="100.0">2026</text><line stroke="#e1ed5e" stroke-width="0.3" x1="100.0" x2="100.0" y1="15.0" y2="10.0" /><path d="M 100.0 14.0 a86.0,86.0 0 0,1 42.46469731375804,11.215312516191453" fill="none" id="id133" stroke="none" /><text fill="#e1ed5e" style="font-size:6.75px; font-family:Arial;" text-anchor="middle"><textPath startOffset="22.20632615414155" xlink:href="#id133">January</textPath></text><path d="M 100.0 79.0 l 0.0 -33.564911849622206 a54.564911849622206,54.564911849622206 0 0,0 0.9392452612792713,0.008084380494142437 l -0.577764782006743 33.559938845736625" fill="#faff18" stroke="none" /><path d="M 100.36148047927253 79.00311137660856 l 0.5335919764924564 -30.994125390380024 a51.99871818498269,51.99871818498269 0 0,0 0.8948072264790958,0.02311023072149081 l -1.06702583816642 30.98034836751617" fill="#ffd714" stroke="none" /><path d="M 100.72285384407766 79.0124445844662 l 1.3926744280588723 -40.43532724374942 a61.45930339701455,61.45930339701455 0 0,0 1.056980516990348,0.045515804479183616 l -2.0884957774385517 40.405363712746045" fill="#88ff25" stroke="none" /><path d="M 101.08401301168833 79.027996857942 l 2.1635926320503844 -41.85823508411925 a62.91411429858508,62.91411429858508 0 0,0 1.0810381001224723,0.06521117038638384 l -2.8837927810124686 41.81479064435256" fill="#72ff27" stroke="none" /><path d="M 101.80526077348638 79.07773832637324 l 2.2602632277903623 -26.19556099464713 a47.292892683825784,47.292892683825784 0 0,0 0.8104535116250725,0.07696232646532658 l -2.710841866505679 26.152773123666627" fill="#ff7e0b" stroke="none" /><path d="M 102.16513564639614 79.11191278185805 l 3.1544263799115955 -30.432242643307333 a51.595290456006715,51.595290456006715 0 0,0 0.8826069654230716,0.09917117641257717 l -3.677800048844392 30.373435513424155" fill="#ffcf13" stroke="none" /><path d="M 102.52436894288641 79.15227682838746 l 4.222492121557407 -34.87182295306228 a56.12653520896041,56.12653520896041 0 0,0 0.9581207720141957,0.1243915744577209 l -4.8221276220794485 34.79397305544042" fill="#dfff1b" stroke="none" /><path d="M 102.88285421437855 79.19881850522331 l 3.7857278468597118 -27.31584956311575 a48.57693552019985,48.57693552019985 0 0,0 0.8272675703685961,0.121917735451023 l -4.2553643976569635 27.24663734350376" fill="#ff970d" stroke="none" /><path d="M 103.2404852339499 79.25152402106235 l 3.096928139537368 -19.829295451954064 a41.069676679566726,41.069676679566726 0 0,0 0.6975406754724185,0.11510018821208803 l -3.4377980211486614 19.77304900080235" fill="#ff0000" stroke="none" /><path d="M 103.59715602781102 79.31037775812273 l 4.55270008557036 -26.18558778734226 a47.57841390748817,47.57841390748817 0 0,0 0.8056721959851613,0.1472314440892117 l -5.002767402658423 26.10334086190231" fill="#ff840c" stroke="none" /><path d="M 104.307194497241 79.44645832069477 l 6.078321011994042 -29.00519684918837 a50.6352396748367,50.6352396748367 0 0,0 0.8515334907332633,0.1861122392179921 l -6.5766972268808335 28.896271111874505" fill="#ffbe11" stroke="none" /><path d="M 104.66035177308747 79.52364482259891 l 7.126170294422982 -31.310510688462358 a53.11121895284313,53.11121895284313 0 0,0 0.8896794659122523,0.21055838519074116 l -7.664073447297758 31.183206391130746" fill="#ffeb16" stroke="none" /><path d="M 105.01212808612495 79.60689891045804 l 9.6447588015064 -39.24212187790171 a61.40996785224318,61.40996785224318 0 0,0 1.0243507564180547,0.2611298159319743 l -10.31881844660948 39.070289065800864" fill="#89ff24" stroke="none" /><path d="M 105.36241919743992 79.69619591428918 l 12.194726355300483 -46.17306586457879 a68.75629133648667,68.75629133648667 0 0,0 1.141688758008685,0.3120666651064611 l -12.98771300253288 45.956312658646034" fill="#32ff46" stroke="none" /><path d="M 105.71112130821622 79.79150937346287 l 7.6886347264191635 -27.205813782344393 a49.271388496426894,49.271388496426894 0 0,0 0.8141739902195015,0.2376797138658959 l -8.155798934362092 27.069435739559793" fill="#ffa40f" stroke="none" /><path d="M 106.0581310904928 79.89281104454417 l 9.43594925538237 -31.31830787712993 a53.70892151442553,53.70892151442553 0 0,0 0.8829097772719856,0.27432436558297957 l -9.973644405365075 31.15124337666443" fill="#fff517" stroke="none" /><path d="M 106.74666289553966 80.11325718540242 l 12.88479946314504 -37.97976823632812 a61.10587054896902,61.10587054896902 0 0,0 0.9931682512258636,0.3464969014828936 l -13.536649718434177 37.75235048167302" fill="#8dff24" stroke="none" /><path d="M 107.08798089147638 80.2323363322302 l 14.105319512421987 -39.33831316945186 a62.79070376968282,62.79070376968282 0 0,0 1.0142722140883296,0.37356501624406 l -14.780374052282893 39.089684885401475" fill="#73ff27" stroke="none" /><path d="M 107.4271985657038 80.35727306442388 l 14.957194008444375 -39.5573209779221 a63.29065257898724,63.29065257898724 0 0,0 1.015715019870283,0.3940816476300553 l -15.635892193314325 39.2939966264015" fill="#6cff28" stroke="none" /><path d="M 107.76421540070413 80.48803036053334 l 22.798508218736927 -57.29410857776862 a82.66349693879641,82.66349693879641 0 0,0 1.3175621819831482,0.537466696047127 l -23.781354270308462 56.89318099553791" fill="#4be4ff" stroke="none" /><path d="M 108.09893153111575 80.62456947434976 l 11.897172377524468 -28.462129352099097 a51.84859020824375,51.84859020824375 0 0,0 0.8204823172320675,0.3512877090139401 l -12.38533845254685 28.253122115122366" fill="#ffd413" stroke="none" /><path d="M 108.43124777332544 80.76684994638697 l 13.046816571290607 -29.762069338240494 a53.496156602575915,53.496156602575915 0 0,0 0.8401899543252836,0.37696874155643184 l -13.557188644082672 29.53308026616753" fill="#fff116" stroke="none" /><path d="M 109.08828744355905 81.06846463323043 l 12.228566764174799 -25.47295578166907 a49.25613776439994,49.25613776439994 0 0,0 0.7611919990781111,0.3735136081270725 l -12.665230030263341 25.25868701340717" fill="#ffa40f" stroke="none" /><path d="M 109.41281617654863 81.2277094730956 l 17.66851468255137 -35.23690302441943 a60.41846960296496,60.41846960296496 0 0,0 0.9256670928900733,0.474162638083243 l -18.2724422630302 34.92754786102369" fill="#98ff23" stroke="none" /><path d="M 109.73455568895987 81.39251694778311 l 17.672121075126967 -33.78004131971696 a59.12341871941355,59.12341871941355 0 0,0 0.8977045202317041,0.47952266523145454 l -18.25097064188698 33.47083992798375" fill="#adff20" stroke="none" /><path d="M 110.05341064243156 81.56283822128135 l 27.821428367584907 -51.02230416842215 a79.11460572926265,79.11460572926265 0 0,0 1.1900189596398871,0.662244262633407 l -28.69557141629683 50.53584450822857" fill="#44ffe9" stroke="none" /><path d="M 110.36928655335952 81.73862282372117 l 16.021687553075832 -28.215835091606948 a53.44730839322644,53.44730839322644 0 0,0 0.7961187003016436,0.46116333712116875 l -16.505002985842804 27.93586759709573" fill="#fff116" stroke="none" /><line stroke="#e1ed5e" stroke-width="0.3" x1="143.23703022742887" x2="145.7803849466894" y1="26.81831364943548" y2="22.513508569990506" /><path d="M 143.74570117128098 25.957352633546492 a86.0,86.0 0 0,1 28.547481713284135,27.462654790039103" fill="none" id="id134" stroke="none" /><text fill="#e1ed5e" style="font-size:6.75px; font-family:Arial;" text-anchor="middle"><textPath startOffset="19.985693538727396" xlink:href="#id134">February</textPath></text><path d="M 110.68208982089419 81.91981866633111 l 16.532387912139995 -27.982218492993827 a53.501144623953145,53.501144623953145 0 0,0 0.7888563750643905,0.4752771394020702 l -17.011606353422025 27.69349474413314" fill="#fff116" stroke="none" /><path d="M 111.2981086023043 82.29822771554956 l 16.277447429680187 -25.50335440336842 a51.25518766508999,51.25518766508999 0 0,0 0.7396196172446237,0.48106917291402507 l -16.71403407270909 25.219386306294865" fill="#ffc912" stroke="none" /><path d="M 111.60114157652 82.49532879139004 l 17.616574714145507 -26.581207216465288 a52.88893666687143,52.88893666687143 0 0,0 0.7545370068202095,0.5094667551856271 l -18.07151641537226 26.27402854898099" fill="#ffe715" stroke="none" /><path d="M 111.90073688211348 82.69761687909136 l 15.014921832890876 -21.83007091549414 a47.4952802178676,47.4952802178676 0 0,0 0.6696130232980585,0.46910671496952133 l -15.388465995772586 21.568379357760683" fill="#ff820c" stroke="none" /><path d="M 112.77801427241765 83.33499621200491 l 19.245366995107435 -25.099683490503647 a52.628756885148555,52.628756885148555 0 0,0 0.7141658273664916,0.5574177561701942 l -19.674565377633357 24.76468734511023" fill="#ffe215" stroke="none" /><path d="M 113.34407831869373 83.78471172551755 l 17.70986006974494 -21.520443710927776 a48.87056944529762,48.87056944529762 0 0,0 0.6449576183942992,0.540133457417074 l -18.07767522509836 21.212409096116883" fill="#ff9c0e" stroke="none" /><path d="M 113.6212207817346 84.01681056812373 l 18.593308963859656 -21.817455578818333 a49.66552818559698,49.66552818559698 0 0,0 0.6459030352843076,0.5601207473643507 l -18.96610579779073 21.494169838034313" fill="#ffab0f" stroke="none" /><path d="M 113.89432698308785 84.25364557470407 l 33.57508812606872 -38.05043872489386 a71.74566414808444,71.74566414808444 0 0,0 0.91899025445062,0.825078524203213 l -34.22508936811533 37.466861191921346" fill="#37ff78" stroke="none" /><path d="M 114.16331599549186 84.49514656593476 l 27.017537161600576 -29.57661567201943 a61.059000348096724,61.059000348096724 0 0,0 0.7699019959782722,0.7155399983111206 l -27.522647041373695 29.10717108763367" fill="#8eff24" stroke="none" /><path d="M 114.42810811169701 84.74124197986012 l 18.230953689591598 -19.280539671055685 a47.53501238814833,47.53501238814833 0 0,0 0.5896984401049485,0.5672894321634987 l -18.560135373308963 18.963867152129882" fill="#ff830c" stroke="none" /><path d="M 114.68862486808459 84.99185889309783 l 44.06587460425377 -45.02442332070654 a84.0,84.0 0 0,0 1.0246567993307099,1.0202565973995252 l -44.8343672037518 44.25923087265689" fill="#4dd2ff" stroke="none" /><path d="M 115.19652480421416 85.50635884689758 l 25.97723994366069 -24.77571673406854 a56.89781518111268,56.89781518111268 0 0,0 0.6698571057741018,0.7145568560037864 l -26.399864371405254 24.324890461186698" fill="#d2ff1c" stroke="none" /><line stroke="#e1ed5e" stroke-width="0.3" x1="172.23445277983987" x2="176.4835382374775" y1="55.19839476539836" y2="52.563006222186495" /><path d="M 173.08426987136738 54.67131705675599 a86.0,86.0 0 0,1 12.851231095245387,41.99856678651699" fill="none" id="id135" stroke="none" /><text fill="#e1ed5e" style="font-size:6.75px; font-family:Arial;" text-anchor="middle"><textPath startOffset="22.20632615414155" xlink:href="#id135">March</textPath></text><line stroke="#e1ed5e" stroke-width="0.3" x1="184.98032266829074" x2="189.97916517819016" y1="98.17113171792111" y2="98.06355123074" /><path d="M 185.9800911702706 98.14961562048488 a86.0,86.0 0 0,1 -9.607161424134198,41.387399972396054" fill="none" id="id136" stroke="none" /><text fill="#e1ed5e" style="font-size:6.75px; font-family:Arial;" text-anchor="middle"><textPath startOffset="21.466115282336823" xlink:href="#id136">April</textPath></text><line stroke="#e1ed5e" stroke-width="0.3" x1="174.80103733775053" x2="179.2010983576182" y1="140.37084112569926" y2="142.7455964860345" /><path d="M 175.68104954172406 140.8457921977663 a86.0,86.0 0 0,1 -30.038265399797805,32.042727171017184" fill="none" id="id137" stroke="none" /><text fill="#e1ed5e" style="font-size:6.75px; font-family:Arial;" text-anchor="middle"><textPath startOffset="22.206326154141568" xlink:href="#id137">May</textPath></text><line stroke="#e1ed5e" stroke-width="0.3" x1="143.8653032363475" x2="146.44561519142675" y1="172.8068346515853" y2="177.08958963109032" /><path d="M 144.38136562736335 173.6633856474863 a86.0,86.0 0 0,1 -40.68145358897372,12.25698825130547" fill="none" id="id138" stroke="none" /><text fill="#e1ed5e" style="font-size:6.75px; font-family:Arial;" text-anchor="middle"><textPath startOffset="21.466115282336833" xlink:href="#id138">June</textPath></text><line stroke="#e1ed5e" stroke-width="0.3" x1="102.19456741930631" x2="102.32365962044197" y1="184.97166512339345" y2="189.96999836594603" /><path d="M 102.22038585953345 185.97133177190398 a86.0,86.0 0 0,1 -42.740103519485714,-10.115201625700543" fill="none" id="id139" stroke="none" /><text fill="#e1ed5e" style="font-size:6.75px; font-family:Arial;" text-anchor="middle"><textPath startOffset="22.20632615414155" xlink:href="#id139">July</textPath></text><line stroke="#e1ed5e" stroke-width="0.3" x1="58.666819895761336" x2="56.23545636021788" y1="174.27360380694188" y2="178.64263932499728" /><path d="M 58.180547188652646 175.14741091055294 a86.0,86.0 0 0,1 -31.652253787137756,-30.449443065178592" fill="none" id="id140" stroke="none" /><text fill="#e1ed5e" style="font-size:6.75px; font-family:Arial;" text-anchor="middle"><textPath startOffset="22.20632615414155" xlink:href="#id140">August</textPath></text><line stroke="#e1ed5e" stroke-width="0.3" x1="26.63291911575756" x2="22.317208475507996" y1="142.92168965132927" y2="145.44649492493687" /><path d="M 25.769776987707644 143.4266507060508 a86.0,86.0 0 0,1 -11.730757126820373,-40.83630448921669" fill="none" id="id141" stroke="none" /><text fill="#e1ed5e" style="font-size:6.75px; font-family:Arial;" text-anchor="middle"><textPath startOffset="21.46611528233685" xlink:href="#id141">September</textPath></text><line stroke="#e1ed5e" stroke-width="0.3" x1="15.007084014347285" x2="10.007500721073583" y1="101.09737516637583" y2="101.16192664675087" /><path d="M 14.007167355692545 101.11028546245083 a86.0,86.0 0 0,1 10.666146001902534,-42.60595125391555" fill="none" id="id142" stroke="none" /><text fill="#e1ed5e" style="font-size:6.75px; font-family:Arial;" text-anchor="middle"><textPath startOffset="22.20632615414155" xlink:href="#id142">October</textPath></text><line stroke="#e1ed5e" stroke-width="0.3" x1="26.266209847984243" x2="21.928928074336255" y1="57.711370442889674" y2="55.22380399835377" /><path d="M 25.398753493254645 57.213857153982495 a86.0,86.0 0 0,1 29.58750427330803,-30.492523968695096" fill="none" id="id143" stroke="none" /><text fill="#e1ed5e" style="font-size:6.75px; font-family:Arial;" text-anchor="middle"><textPath startOffset="21.46611528233685" xlink:href="#id143">November</textPath></text><line stroke="#e1ed5e" stroke-width="0.3" x1="56.762969772571076" x2="54.21961505331055" y1="26.818313649435495" y2="22.513508569990535" /><path d="M 56.25429882871897 25.957352633546506 a86.0,86.0 0 0,1 42.265352541879196,-11.944610805530505" fill="none" id="id144" stroke="none" /><text fill="#e1ed5e" style="font-size:6.75px; font-family:Arial;" text-anchor="middle"><textPath startOffset="22.20632615414155" xlink:href="#id144">December</textPath></text></svg>