<?xml version="1.0" encoding="utf-8" ?>
<svg baseProfile="full" height="200mm" version="1.1" viewBox="0,0,200,200" width="200mm" xmlns="http://www.w3.org/2000/svg" xmlns:ev="http://www.w3.org/2001/xml-events" xmlns:xlink="http://www.w3.org/1999/xlink"><defs /><rect fill="#1a1a1a" height="200" width="200" x="0" y="0" /><text alignment-baseline="middle" fill="#e1ed5e" style="dominant-baseline: central; font-size:9.0px; font-family:Arial;" text-anchor="middle" x="100.0" y="100.0">2023</text><line stroke="#e1ed5e" stroke-width="0.3" x1="100.0" x2="100.0" y1="15.0" y2="10.0" /><path d="M 100.0 14.0 a86.0,86.0 0 0,1 42.46469731375804,11.215312516191453" fill="none" id="id49" stroke="none" /><text fill="#e1ed5e" style="font-size:6.75px; font-family:Arial;" text-anchor="middle"><textPath startOffset="22.20632615414155" xlink:href="#id49">January</textPath></text><path d="M 101.44485096284872 79.0497635885617 l 0.861640260707086 -12.493722624398368 a33.52339925716157,33.52339925716157 0 0,0 0.575341046581154,0.04465753832240563 l -1.0765714966505813 12.477039823887496" fill="#ff9d0e" stroke="none" /><path d="M 102.52436894288641 79.15227682838746 l 1.497809890685221 -12.369794856137185 a33.4601468390847,33.4601468390847 0 0,0 0.5711890392274578,0.0741567305269149 l -1.7105136584205252 12.342179802446134" fill="#ff9d0e" stroke="none" /><path d="M 103.2404852339499 79.25152402106235 l 1.8717921335382894 -11.984882298921791 a33.130169393301344,33.130169393301344 0 0,0 0.562693515155349,0.09284925134471675 l -2.0778148548325137 11.950886784637449" fill="#ff980e" stroke="none" /><path d="M 104.66035177308747 79.52364482259891 l 5.905001658292112 -25.945018137166738 a47.60851387662121,47.60851387662121 0 0,0 0.7975022609862545,0.18874301891080458 l -6.3507276062408895 25.839529206115063" fill="#b4ff20" stroke="none" /><path d="M 106.0581310904928 79.89281104454417 l 3.5165152385457796 -11.671460275454066 a33.189703211498916,33.189703211498916 0 0,0 0.5455986201904512,0.16952014713116892 l -3.7168992314469493 11.609199993440377" fill="#ff990e" stroke="none" /><path d="M 109.73455568895987 81.39251694778311 l 4.550922549183304 -8.699032283714656 a30.81753832290839,30.81753832290839 0 0,0 0.46792022609823536,0.24994677967803589 l -4.6999878218098505 8.619406777534866" fill="#ff790b" stroke="none" /><line stroke="#e1ed5e" stroke-width="0.3" x1="143.23703022742887" x2="145.7803849466894" y1="26.81831364943548" y2="22.513508569990506" /><path d="M 143.74570117128098 25.957352633546492 a86.0,86.0 0 0,1 28.547481713284135,27.462654790039103" fill="none" id="id50" stroke="none" /><text fill="#e1ed5e" style="font-size:6.75px; font-family:Arial;" text-anchor="middle"><textPath startOffset="19.985693538727396" xlink:href="#id50">February</textPath></text><path d="M 110.99172775467656 82.1063720568725 l 6.397981531394928 -10.415387249841025 a33.22352073832337,33.22352073832337 0 0,0 0.48471668785643834,0.30352954546770733 l -6.576317371623629 10.303713363050374" fill="#ff9a0e" stroke="none" /><path d="M 111.60114157652 82.49532879139004 l 10.994004496474876 -16.588577314345674 a40.900980683939515,40.900980683939515 0 0,0 0.5835115146227137,0.39398957941253127 l -11.277920705504132 16.39687582263447" fill="#fffb17" stroke="none" /><path d="M 112.48926042617603 83.11751280151076 l 7.2048009887903905 -9.739164394873516 a33.11447400420039,33.11447400420039 0 0,0 0.4553300826181383,0.3429451782454029 l -7.371377225166912 9.613702627122267" fill="#ff980e" stroke="none" /><path d="M 113.06298171725822 83.55741782278167 l 7.574078716169008 -9.533612953220013 a33.176060296357306,33.176060296357306 0 0,0 0.44407989515836,0.3590817248647432 l -7.737062009891859 9.401825131091138" fill="#ff990e" stroke="none" /><path d="M 114.16331599549186 84.49514656593476 l 8.335902047563902 -9.125471713639769 a33.35967220208609,33.35967220208609 0 0,0 0.4206370570619333,0.3909363018565088 l -8.491746988420681 8.98063082570862" fill="#ff9b0e" stroke="none" /><path d="M 114.68862486808459 84.99185889309783 l 8.47949798621428 -8.6639493782233 a33.122949514314904,33.122949514314904 0 0,0 0.40404351706822145,0.4023084258013236 l -8.627377303449824 8.516705101771858" fill="#ff980e" stroke="none" /><path d="M 115.68641384162765 86.03803664274999 l 14.831297068254669 -13.200851915428926 a40.8552225880221,40.8552225880221 0 0,0 0.4630416852993972,0.5293366911460361 l -15.056330617131914 12.94359966807994" fill="#fffb17" stroke="none" /><path d="M 116.15771136456269 86.58626213691792 l 9.52077876441782 -7.903918303578106 a33.37405159317781,33.37405159317781 0 0,0 0.36314386259813614,0.44517143693167077 l -9.655421119092365 7.738862697038334" fill="#ff9c0e" stroke="none" /><path d="M 116.60985879189232 87.15038557335679 l 9.574547120840291 -7.407000887483655 a33.105189577878356,33.105189577878356 0 0,0 0.34480483162494857,0.45372274085037767 l -9.700627892689353 7.241093370752243" fill="#ff980e" stroke="none" /><path d="M 117.04232023915458 87.72973835380427 l 11.990596896777491 -8.633082770003215 a35.7751322178428,35.7751322178428 0 0,0 0.3555151723195866,0.5028509989444513 l -12.13742468890096 8.42540527072697" fill="#ffbb11" stroke="none" /><path d="M 117.65298651832404 88.62581576622439 l 10.195443079358709 -6.569134792530737 a33.1285032673814,33.1285032673814 0 0,0 0.30473869566351314,0.48202343338361864 l -10.307009371268178 6.392663711432912" fill="#ff980e" stroke="none" /><line stroke="#e1ed5e" stroke-width="0.3" x1="172.23445277983987" x2="176.4835382374775" y1="55.19839476539836" y2="52.563006222186495" /><path d="M 173.08426987136738 54.67131705675599 a86.0,86.0 0 0,1 12.851231095245387,41.99856678651699" fill="none" id="id51" stroke="none" /><text fill="#e1ed5e" style="font-size:6.75px; font-family:Arial;" text-anchor="middle"><textPath startOffset="22.20632615414155" xlink:href="#id51">March</textPath></text><path d="M 118.03404312379186 89.2402003453031 l 10.980732458129136 -6.551524830026826 a33.78667129926584,33.78667129926584 0 0,0 0.2936871417872398,0.5020065254001289 l -11.091879274386704 6.361538892272801" fill="#ffa10e" stroke="none" /><path d="M 118.73160827565052 90.50648371742162 l 12.007288960455934 -6.085510201699615 a34.46136778321122,34.46136778321122 0 0,0 0.2636130321096614,0.5314277868478169 l -12.110262005519004 5.877922826352849" fill="#ffaa0f" stroke="none" /><path d="M 119.04729006885535 91.15688171328212 l 11.566532692620141 -5.370014127903506 a33.7523225438872,33.7523225438872 0 0,0 0.24011994215059707,0.5290724634243594 l -11.657254951734085 5.170119655637084" fill="#ffa00e" stroke="none" /><path d="M 119.34039704204932 91.81776055985345 l 11.820211532665786 -5.000714348478803 a33.83450601589508,33.83450601589508 0 0,0 0.2223060983386671,0.5383318502886306 l -11.90453931789065 4.796507927736869" fill="#ffa20e" stroke="none" /><path d="M 119.61058180528143 92.48833698450437 l 25.477310885866657 -9.758862629160149 a48.282389370982855,48.282389370982855 0 0,0 0.2906034510795301,0.7786727699472732 l -25.641518925447816 9.318866722183543" fill="#acff20" stroke="none" /><path d="M 119.97218684219823 93.5106431181261 l 17.921656229871925 -5.82309909820056 a39.843944521494734,39.843944521494734 0 0,0 0.20632430817887507,0.6541044401285856 l -18.019236021819008 5.513744491645555" fill="#ffee16" stroke="none" /><path d="M 120.37134235888165 94.90015583598534 l 19.14344625122606 -4.792447690658857 a40.734211138053695,40.734211138053695 0 0,0 0.16442500055987386,0.6816477795531418 l -19.223104052046754 4.462214679446309" fill="#fff917" stroke="none" /><path d="M 120.53481517161879 95.60439243477599 l 12.402602673271103 -2.654855847665291 a33.68356466624876,33.68356466624876 0 0,0 0.11648210391217702,0.5680081064529824 l -12.446464073098277 2.4409720850488967" fill="#ffa00e" stroke="none" /><path d="M 120.67395015179393 96.31383870115 l 12.36529393134576 -2.20472950761547 a33.56030756830129,33.56030756830129 0 0,0 0.09650688099326123,0.5695890745635297 l -12.401412673859246 1.9915546447361026" fill="#ff9e0e" stroke="none" /><path d="M 120.73433829027371 96.67025291283417 l 12.612479548539858 -2.0254500746903172 a33.77407876785638,33.77407876785638 0 0,0 0.08724022512728956,0.5748040823700763 l -12.645475667106448 1.8080468799281588" fill="#ffa10e" stroke="none" /><path d="M 120.83666639777658 97.38593545837742 l 18.781643873592714 -2.3562516357501675 a39.92886864990716,39.92886864990716 0 0,0 0.07968594238493687,0.6827004909692214 l -18.81942016898124 2.0326074064560937" fill="#ffef16" stroke="none" /><path d="M 120.87857604477298 97.74499172005257 l 12.773199541500528 -1.379580229309531 a33.84748489534395,33.84748489534395 0 0,0 0.057577592804239776,0.5797985019508217 l -12.795054259986996 1.1595061966542741" fill="#ffa20e" stroke="none" /><path d="M 120.94382443527127 98.46500227214037 l 20.513749180597156 -1.5034770024651998 a41.56877119668047,41.56877119668047 0 0,0 0.046159960808536384,0.714074162825809 l -20.536589732410107 1.1501437753863555" fill="#fbff18" stroke="none" /><line stroke="#e1ed5e" stroke-width="0.3" x1="184.98032266829074" x2="189.97916517819016" y1="98.17113171792111" y2="98.06355123074" /><path d="M 185.9800911702706 98.14961562048488 a86.0,86.0 0 0,1 -9.607161424134198,41.387399972396054" fill="none" id="id52" stroke="none" /><text fill="#e1ed5e" style="font-size:6.75px; font-family:Arial;" text-anchor="middle"><textPath startOffset="21.466115282336823" xlink:href="#id52">April</textPath></text><path d="M 120.99824983174949 100.27111621757518 l 12.564669197140647 0.1622271196460184 a33.56571644085301,33.56571644085301 0 0,0 -0.012432001829036636,0.5776662743821647 l -12.560015132626603 -0.37848320981829786" fill="#ff9e0e" stroke="none" /><path d="M 120.9764740272857 100.99374915477107 l 19.5787092012074 0.927530799261114 a40.60066752355698,40.60066752355698 0 0,0 -0.03908036414539359,0.6978061545196923 l -19.559842486174478 -1.2644086701162298" fill="#fff817" stroke="none" /><path d="M 120.89721153311464 102.0752229133903 l 26.621495720669007 2.6436798910088846 a47.75244059467702,47.75244059467702 0 0,0 -0.08826856388538587,0.8172572756526152 l -26.572044855282567 -3.1015334885462913" fill="#b2ff20" stroke="none" /><path d="M 120.64145759157962 103.86396538481128 l 12.901211137067952 2.415034550472242 a34.125305355807185,34.125305355807185 0 0,0 -0.11305237051568734,0.5764516016470161 l -12.8577288335766 -2.636749879187203" fill="#ffa50f" stroke="none" /><path d="M 120.41448212921028 104.9243191809786 l 24.983934863028523 6.026548647359227 a46.70051147037816,46.70051147037816 0 0,0 -0.19522745351109208,0.7798366313602002 l -24.876496095222368 -6.455713118116822" fill="#beff1f" stroke="none" /><path d="M 120.23288151984713 105.62410040840565 l 12.41686249067821 3.451494604781725 a33.88764094468995,33.88764094468995 0 0,0 -0.16105886118286453,0.5606670247151128 l -12.355610992609247 -3.6647191050014194" fill="#ffa20f" stroke="none" /><path d="M 120.02730092923936 106.31721596034902 l 12.103777557735041 3.8178972313041553 a33.69164175494764,33.69164175494764 0 0,0 -0.17921987904820108,0.5515820712811925 l -12.036265427670594 -4.025678202563143" fill="#ffa00e" stroke="none" /><path d="M 119.67450827220406 107.3425965602758 l 12.19166977851186 4.549974583415145 a34.01303503023039,34.01303503023039 0 0,0 -0.20943238084739196,0.5467618593659289 l -12.111543118070962 -4.759160009614218" fill="#ffa40f" stroke="none" /><path d="M 119.41010516605496 108.01547362559984 l 12.339574020016183 5.095672035901662 a34.35031686863381,34.35031686863381 0 0,0 -0.23039087746096912,0.5445759779527379 l -12.250032161362904 -5.3073225395205625" fill="#ffa80f" stroke="none" /><path d="M 118.97047184881838 109.00673069616215 l 11.87919009367454 5.639958084063584 a34.150067850458015,34.150067850458015 0 0,0 -0.2566893807895877,0.5288561533097206 l -11.780347456270237 -5.843603193338581" fill="#ffa60f" stroke="none" /><line stroke="#e1ed5e" stroke-width="0.3" x1="174.80103733775053" x2="179.2010983576182" y1="140.37084112569926" y2="142.7455964860345" /><path d="M 175.68104954172406 140.8457921977663 a86.0,86.0 0 0,1 -30.038265399797805,32.042727171017184" fill="none" id="id53" stroke="none" /><text fill="#e1ed5e" style="font-size:6.75px; font-family:Arial;" text-anchor="middle"><textPath startOffset="22.206326154141568" xlink:href="#id53">May</textPath></text><path d="M 117.94076556474637 110.91462005526583 l 12.447767567069972 7.57284593238316 a35.570343610203956,35.570343610203956 0 0,0 -0.32273372556688495,0.5203495262691646 l -12.315569201835123 -7.785991790017598" fill="#ffb811" stroke="none" /><path d="M 117.75023020441432 111.22182372390056 l 11.331061283802352 7.163578774314819 a34.405588785021656,34.405588785021656 0 0,0 -0.32078318841696857,0.4978626320834658 l -11.206073232008334 -7.3575630063197375" fill="#ffa90f" stroke="none" /><path d="M 117.14729908036423 112.12312394758627 l 10.93680789245948 7.732312654595028 a34.39411907760172,34.39411907760172 0 0,0 -0.34593966536329884,0.48047993845145154 l -10.802088434720579 -7.919426198497611" fill="#ffa90f" stroke="none" /><path d="M 116.27256486870786 113.27417163493432 l 14.79241467368663 12.066754863655943 a40.08984297520186,40.08984297520186 0 0,0 -0.4408050050768495,0.5309780251251898 l -14.582513668716238 -12.319594145894902" fill="#fff116" stroke="none" /><path d="M 115.80600337817218 113.82643327865902 l 11.176447524126695 9.776690684387393 a35.84912994076572,35.84912994076572 0 0,0 -0.41028672043189673,0.46096147982489644 l -11.00650195404646 -9.967626333953156" fill="#ffbc11" stroke="none" /><path d="M 115.07121518719521 114.62390073753431 l 8.877053255002034 8.613581853256983 a33.36914980242782,33.36914980242782 0 0,0 -0.40354325839298893,0.40878719021227533 l -8.727469371553509 -8.765109537449923" fill="#ff9b0e" stroke="none" /><path d="M 114.55890576462653 115.13401014063108 l 17.25913566918793 17.940904245060075 a45.894855074449616,45.894855074449616 0 0,0 -0.5740444673278627,0.54279487390757 l -16.947755367469263 -18.235333755713565" fill="#c7ff1e" stroke="none" /><path d="M 114.0293411484842 115.62618273729858 l 9.969013530750015 11.103702268936042 a35.92224630722373,35.92224630722373 0 0,0 -0.4636666458260039,0.4091319053449415 l -9.776404532017423 -11.27365731605327" fill="#ffbd11" stroke="none" /><path d="M 113.20401910651253 116.32954008644616 l 9.283441705708151 11.480923516596361 a35.76461630714516,35.76461630714516 0 0,0 -0.4820431748369656,0.38296425171886556 l -9.084441038153834 -11.639021682320353" fill="#ffbb11" stroke="none" /><path d="M 112.63410532772338 116.77436683061366 l 11.645035701216974 15.461173984292344 a40.35600055422546,40.35600055422546 0 0,0 -0.558479061659746,0.4131494584671829 l -11.377171669138663 -15.659333391499297" fill="#fff517" stroke="none" /><path d="M 112.04921762599082 117.19931262002967 l 8.471984589606324 12.093093177635328 a35.76541314997644,35.76541314997644 0 0,0 -0.5072610512066038,0.3488987764731169 l -8.262566653776837 -12.23713274347354" fill="#ffbb11" stroke="none" /><path d="M 111.1453310114006 117.79835938074945 l 9.736627288807865 15.548752339912513 a39.34572457792531,39.34572457792531 0 0,0 -0.5771095982731228,0.35450785100655297 l -9.467538490602433 -15.714048657747442" fill="#ffe815" stroke="none" /><line stroke="#e1ed5e" stroke-width="0.3" x1="143.8653032363475" x2="146.44561519142675" y1="172.8068346515853" y2="177.08958963109032" /><path d="M 144.38136562736335 173.6633856474863 a86.0,86.0 0 0,1 -40.68145358897372,12.25698825130547" fill="none" id="id54" stroke="none" /><text fill="#e1ed5e" style="font-size:6.75px; font-family:Arial;" text-anchor="middle"><textPath startOffset="21.466115282336833" xlink:href="#id54">June</textPath></text><path d="M 109.89434966115114 118.52300852407294 l 14.423656842807647 27.002231353985273 a51.613107892097744,51.613107892097744 0 0,0 -0.7872451431771635,0.41184945140704016 l -13.956720797103987 -27.24651022433703" fill="#87ff25" stroke="none" /><path d="M 109.57404056367764 118.69057910512821 l 2.9724444224106192 5.802848571943176 a27.519852559162896,27.519852559162896 0 0,0 -0.4234729912209559,0.2123381489532777 l -2.8721175235069025 -5.8531545618057566" fill="#ff4c07" stroke="none" /><path d="M 108.92500713936063 119.00905698771935 l 11.461911452734364 24.41231974284215 a47.969181844785055,47.969181844785055 0 0,0 -0.7504481644221119,0.3444939451280745 l -11.039995292544832 -24.606000758304297" fill="#b0ff20" stroke="none" /><path d="M 107.59598834532513 119.57807347666477 l 11.041353996652909 28.458237427572612 a51.52511712612251,51.52511712612251 0 0,0 -0.8296274513884185,0.3136941137159793 l -10.549856324504216 -28.64407979139522" fill="#88ff25" stroke="none" /><path d="M 106.57524785965236 119.94407469862006 l 7.342945399061939 22.27265871533588 a44.4518692940122,44.4518692940122 0 0,0 -0.7287537985112309,0.23332395299684588 l -6.958470255459768 -22.39575551499243" fill="#d8ff1c" stroke="none" /><path d="M 105.18746579009965 120.34920634021253 l 7.527061630498175 29.526889709196794 a51.471197427872596,51.471197427872596 0 0,0 -0.8604187993994455,0.21147000700699933 l -7.017689546355519 -29.652080974517826" fill="#89ff24" stroke="none" /><path d="M 104.83641907484287 120.43548508189849 l 0.28078999786024694 1.1864314741182385 a22.219205751986404,22.219205751986404 0 0,0 -0.37294392019378225,0.08488082203494535 l -0.2603259282736026 -1.191089029730868" fill="#ff0000" stroke="none" /><path d="M 104.48393922423573 120.51570834832081 l 2.6017744017690783 11.90409640842517 a33.18510325515471,33.18510325515471 0 0,0 -0.5591034707153084,0.11716556834961483 l -2.3964794696243916 -11.947117957501325" fill="#ff990e" stroke="none" /><path d="M 104.13013068566511 120.58985236759428 l 5.247287379661261 26.1591897933291 a47.6802780249413,47.6802780249413 0 0,0 -0.8060972783371073,0.1544904619209988 l -4.796222486752449 -26.245637453598565" fill="#b3ff20" stroke="none" /><path d="M 103.06178313531738 120.77559828337769 l 3.55891444185002 24.148861464390766 a45.40969852396268,45.40969852396268 0 0,0 -0.7742816535360296,0.10730838190959865 l -3.1427041971271596 -24.206544411792965" fill="#cdff1d" stroke="none" /><path d="M 102.34483914955558 120.86867818915974 l 1.364287853756709 12.141934845647816 a33.21834125992005,33.21834125992005 0 0,0 -0.5687729862808775,0.05895564560044564 l -1.1550822708702289 -12.163619859704019" fill="#ff990e" stroke="none" /><path d="M 101.62511606390274 120.93702456842531 l 1.914186607099473 24.66123676431218 a45.73541406793631,45.73541406793631 0 0,0 -0.7854234982901439,0.05416740295727414 l -1.4894003480303988 -24.690532511785737" fill="#c9ff1d" stroke="none" /><path d="M 100.90346689309514 120.98055641714683 l 0.5228741363938743 12.142326853944116 a33.15357966981424,33.15357966981424 0 0,0 -0.5703673144684231,0.019644603558478937 l -0.3137864702507988 -12.14952825592869" fill="#ff990e" stroke="none" /><line stroke="#e1ed5e" stroke-width="0.3" x1="102.19456741930631" x2="102.32365962044197" y1="184.97166512339345" y2="189.96999836594603" /><path d="M 102.22038585953345 185.97133177190398 a86.0,86.0 0 0,1 -42.740103519485714,-10.115201625700543" fill="none" id="id55" stroke="none" /><text fill="#e1ed5e" style="font-size:6.75px; font-family:Arial;" text-anchor="middle"><textPath startOffset="22.20632615414155" xlink:href="#id55">July</textPath></text><path d="M 99.81925306533755 120.99922214144158 l -0.10560143692173275 12.268800223451933 a33.26925468748832,33.26925468748832 0 0,0 -0.5726118919659804,-0.009858033009443812 l 0.3167730187803811 -12.26516471316333" fill="#ff9a0e" stroke="none" /><path d="M 99.09653310690486 120.98055641714683 l -1.219166673646252 28.31182345897751 a49.33806124191348,49.33806124191348 0 0,0 -0.8481727995084173,-0.04384084555963918 l 1.7063275415681582 -28.286642806655667" fill="#a0ff22" stroke="none" /><path d="M 98.01472825383883 120.90594882070398 l -5.453249495264144 57.425566588034414 a78.68391134462341,78.68391134462341 0 0,0 -1.3472461757667589,-0.13964757467547842 l 6.440928267636496 -57.323189644903174" fill="#46fffa" stroke="none" /><path d="M 96.93821686468263 120.77559828337769 l -0.9775146409552847 6.632883714836369 a27.70452692200005,27.70452692200005 0 0,0 -0.47119349677289213,-0.07359073361223051 l 1.091544001336694 -6.615074673877033" fill="#ff4f07" stroke="none" /><path d="M 96.22490169976321 120.6578951692458 l -2.2077593918526977 12.081185296009414 a33.28125562346244,33.28125562346244 0 0,0 -0.5626630273355743,-0.10783570833815165 l 2.415390033759967 -12.041392389322795" fill="#ff9a0e" stroke="none" /><path d="M 95.16358092515715 120.4354850818985 l -7.0395114362102955 29.744285743725314 a51.56594928453747,51.56594928453747 0 0,0 -0.8620027197826224,-0.2118592961005924 l 7.550467440736129 -29.618705189310692" fill="#88ff25" stroke="none" /><path d="M 94.81253420990036 120.34920634021253 l -3.0217264869015925 11.853521213190485 a33.23261199062569,33.23261199062569 0 0,0 -0.5531007381457703,-0.14607893199867958 l 3.225317667858852 -11.799750931888223" fill="#ff9a0e" stroke="none" /><path d="M 94.11515582081647 120.15858648285463 l -6.576202929875891 22.526842080141112 a44.467105894816356,44.467105894816356 0 0,0 -0.7329132459243622,-0.220820748817978 l 6.962991150240499 -22.410305962217407" fill="#d8ff1c" stroke="none" /><path d="M 93.42475214034765 119.94407469862007 l -4.575330761634655 13.877916152922095 a35.61267286727163,35.61267286727163 0 0,0 -0.5805378958796338,-0.19694997406567538 l 4.813538390451514 -13.797103191958298" fill="#ffb911" stroke="none" /><path d="M 92.7421414339146 119.70592522655815 l -10.517889212491385 28.557285385952095 a51.43262299081293,51.43262299081293 0 0,0 -0.8281381646477701,-0.31313099290386864 l 11.007897597899438 -28.372006142941594" fill="#89ff24" stroke="none" /><path d="M 92.40401165467489 119.57807347666478 l -4.478995580983718 11.544265288416904 a33.382708203935806,33.382708203935806 0 0,0 -0.5339308623974569,-0.21246210922511954 l 4.677047519423033 -11.465456334785719" fill="#ff9c0e" stroke="none" /><path d="M 91.7346041902142 119.30500536409082 l -5.258118882395424 12.281083152665323 a34.35937190080744,34.35937190080744 0 0,0 -0.5416989365763343,-0.23746489473074925 l 5.468738493629502 -12.188753704640122" fill="#ffa80f" stroke="none" /><path d="M 91.07499286063937 119.00905698771935 l -5.764300758102995 12.277180274948586 a34.563049757832985,34.563049757832985 0 0,0 -0.5363647653026224,-0.25748768217837176 l 5.97477819140586 -12.176138316270652" fill="#ffab0f" stroke="none" /><path d="M 90.42595943632237 118.69057910512821 l -13.896811636327197 27.12955470266644 a51.481701265194005,51.481701265194005 0 0,0 -0.7852408223168982,-0.41080088546300325 l 14.361743361170591 -26.886324398258722" fill="#89ff24" stroke="none" /><line stroke="#e1ed5e" stroke-width="0.3" x1="58.666819895761336" x2="56.23545636021788" y1="174.27360380694188" y2="178.64263932499728" /><path d="M 58.180547188652646 175.14741091055294 a86.0,86.0 0 0,1 -31.652253787137756,-30.449443065178592" fill="none" id="id56" stroke="none" /><text fill="#e1ed5e" style="font-size:6.75px; font-family:Arial;" text-anchor="middle"><textPath startOffset="22.20632615414155" xlink:href="#id56">August</textPath></text><path d="M 89.7882731507175 118.34994917583269 l -3.152443623800879 5.664779437425755 a27.48287180776579,27.48287180776579 0 0,0 -0.4113940305389317,-0.23360026726467248 l 3.2494864212610177 -5.60967600436645" fill="#ff4b07" stroke="none" /><path d="M 89.4739219176387 118.17145234162733 l -9.306075331243692 16.065328705157548 a39.566039547397864,39.566039547397864 0 0,0 -0.586391558252946,-0.34645046860273754 l 9.58123476052502 -15.90275966426106" fill="#ffeb16" stroke="none" /><path d="M 88.54995079064634 117.60387380957326 l -7.236350402821129 11.125524179324337 a34.271851996505234,34.271851996505234 0 0,0 -0.4917607679803039,-0.32591222212226406 l 7.426785869541395 -10.999313936110754" fill="#ffa70f" stroke="none" /><path d="M 88.24862548938628 117.40417183066458 l -17.074217643091544 25.28747743220472 a51.51205373304002,51.51205373304002 0 0,0 -0.7305957411105578,-0.5025104126634797 l 17.50697026882499 -24.98982623017614" fill="#89ff25" stroke="none" /><path d="M 87.65650970185807 116.9893568818739 l -7.7024632427714055 10.601531150444334 a34.104213167530744,34.104213167530744 0 0,0 -0.47196175802540646,-0.34914602557511226 l 7.883809971215377 -10.467375176129455" fill="#ffa50f" stroke="none" /><path d="M 87.36589467227662 116.77436683061367 l -8.861676653398748 11.765693815470321 a35.729591442697554,35.729591442697554 0 0,0 -0.4880853965511849,-0.37424306904643034 l 9.06289077844342 -11.611411404596524" fill="#ffba11" stroke="none" /><path d="M 86.79598089348748 116.32954008644616 l -9.266065242850082 11.459433874350884 a35.736980348951235,35.736980348951235 0 0,0 -0.4750123205239877,-0.3909028011171006 l 9.461947691918757 -11.298235954376603" fill="#ffba11" stroke="none" /><path d="M 86.24171649860922 115.8653595955263 l -19.981006253543114 23.041090064823575 a51.49807276336393,51.49807276336393 0 0,0 -0.6647117349087032,-0.5865308213487357 l 20.374660341358407 -22.69373610170255" fill="#89ff24" stroke="none" /><path d="M 85.44109423537348 115.13401014063109 l -19.078877172452266 19.832528987260375 a48.51967950743691,48.51967950743691 0 0,0 -0.596907691021787,-0.5841998080802537 l 19.417434815849845 -19.50117907625755" fill="#aaff21" stroke="none" /><path d="M 83.95833913139862 113.55231037782056 l -9.35604740646368 7.904172728783897 a33.24792103168725,33.24792103168725 0 0,0 -0.3655751410209717,-0.44035880758735396 l 9.490718547378188 -7.741952664082782" fill="#ff9a0e" stroke="none" /><path d="M 83.72743513129214 113.27417163493432 l -11.329470012898508 9.24189460588694 a35.620858616356585,35.620858616356585 0 0,0 -0.38348752811354736,-0.4784596552246771 l 11.486875453066917 -9.045507117084002" fill="#ffb911" stroke="none" /><path d="M 82.85270091963577 112.12312394758628 l -29.920590064261965 21.15382838043212 a57.64322809118197,57.64322809118197 0 0,0 -0.5658344165220216,-0.8151266789249304 l 30.280285387946122 -20.635660439320176" fill="#49ff2c" stroke="none" /><path d="M 82.44556493220864 111.52570212397912 l -11.287912850791306 7.411296382779316 a34.503491792882954,34.503491792882954 0 0,0 -0.3216959947407858,-0.4992793277687958 l 11.413813708909139 -7.215895455089072" fill="#ffaa0f" stroke="none" /><path d="M 82.24976979558568 111.22182372390057 l -15.287104798369437 9.664618053991976 a39.08591759479948,39.08591759479948 0 0,0 -0.3546309234682715,-0.5717779655751128 l 15.451200361505665 -9.400043757051598" fill="#ffe515" stroke="none" /><line stroke="#e1ed5e" stroke-width="0.3" x1="26.63291911575756" x2="22.317208475507996" y1="142.92168965132927" y2="145.44649492493687" /><path d="M 25.769776987707644 143.4266507060508 a86.0,86.0 0 0,1 -11.730757126820373,-40.83630448921669" fill="none" id="id57" stroke="none" /><text fill="#e1ed5e" style="font-size:6.75px; font-family:Arial;" text-anchor="middle"><textPath startOffset="21.46611528233685" xlink:href="#id57">September</textPath></text><path d="M 81.18737489456691 109.33194174019688 l -11.04054640794954 5.476627279898863 a33.32424891622284,33.32424891622284 0 0,0 -0.25048210319934555,-0.5160673229389313 l 11.133181767763604 -5.285771000994647" fill="#ff9b0e" stroke="none" /><path d="M 81.02952815118164 109.00673069616217 l -29.909927760525367 14.200525249323018 a54.10979758314005,54.10979758314005 0 0,0 -0.3922326033244245,-0.8448341329102973 l 30.14993498068962 -13.683571049133894" fill="#6dff28" stroke="none" /><path d="M 80.45479744820244 107.68017299344265 l -58.6356076553927 23.04051898032796 a84.0,84.0 0 0,0 -0.5172228816259636,-1.3503057326673686 l 59.02352481661217 -22.027789680827432" fill="#4dd2ff" stroke="none" /><path d="M 80.0844068197444 106.66101706037122 l -28.492454251088617 9.529654584755486 a51.04387234953459,51.04387234953459 0 0,0 -0.27152362283716297,-0.8356637839601226 l 28.652270124942028 -9.03779190081756" fill="#8eff24" stroke="none" /><path d="M 79.86692584326677 105.97154293290107 l -15.123519818702682 4.485690917884996 a36.774735329554304,36.774735329554304 0 0,0 -0.17478044583115446,-0.6084336609786034 l 15.19849290141994 -4.224699781401798" fill="#ffc812" stroke="none" /><path d="M 79.58551787078972 104.9243191809786 l -11.992093434754834 2.8926962411823474 a33.336044604801025,33.336044604801025 0 0,0 -0.12975568667191456,-0.5589841021607811 l 12.040109687357303 -2.685843481672992" fill="#ff9b0e" stroke="none" /><path d="M 79.4281124754447 104.21870165774334 l -31.16165546130121 6.39035807461523 a52.81014692532311,52.81014692532311 0 0,0 -0.17495264100760147,-0.892079747299182 l 31.267038035284475 -5.853014600248094" fill="#7bff26" stroke="none" /><path d="M 79.18660465613746 102.79330883721812 l -43.149874889569304 5.791026637536701 a64.53673957133381,64.53673957133381 0 0,0 -0.13828837518282072,-1.1022944133530796 l 43.24316477399898 -5.0474144698962125" fill="#35ff63" stroke="none" /><path d="M 79.10278846688536 102.07522291339032 l -12.393391441878524 1.2307407547675056 a33.454351618493575,33.454351618493575 0 0,0 -0.05197436799247766,-0.5735328198427659 l 12.412740406148076 -1.0172265463761734" fill="#ff9d0e" stroke="none" /><path d="M 79.0235259727143 100.99374915477108 l -7.4749486688333775 0.35412166563112135 a28.483332129189726,28.483332129189726 0 0,0 -0.01898599519521523,-0.48994417361526615 l 7.479936796879794 -0.22540024500185837" fill="#ff5908" stroke="none" /><line stroke="#e1ed5e" stroke-width="0.3" x1="15.007084014347285" x2="10.007500721073583" y1="101.09737516637583" y2="101.16192664675087" /><path d="M 14.007167355692545 101.11028546245083 a86.0,86.0 0 0,1 10.666146001902534,-42.60595125391555" fill="none" id="id58" stroke="none" /><text fill="#e1ed5e" style="font-size:6.75px; font-family:Arial;" text-anchor="middle"><textPath startOffset="22.20632615414155" xlink:href="#id58">October</textPath></text><path d="M 79.12142395522702 97.74499172005258 l -13.283603207360708 -1.4347068093101005 a34.36085692608391,34.36085692608391 0 0,0 0.06857387544125541,-0.5874990874206653 l 13.256938978915864 1.6631496350556276" fill="#ffa80f" stroke="none" /><path d="M 79.26566170972629 96.67025291283419 l -20.53099201760192 -3.297091516024071 a41.79404832378418,41.79404832378418 0 0,0 0.12018403703843666,-0.7093329898291301 l 20.47119611904326 3.650010294169029" fill="#f8ff18" stroke="none" /><path d="M 79.3925641242962 95.95851677861259 l -17.897843308769573 -3.5100841204943345 a39.23879068464284,39.23879068464284 0 0,0 0.13569279080775787,-0.6616862382924161 l 17.83477122204682 3.817646014950153" fill="#ffe715" stroke="none" /><path d="M 79.54389044137918 95.25157060432595 l -35.73147828295425 -8.29426540483918 a57.681512767212084,57.681512767212084 0 0,0 0.2328333482855538,-0.9652445450773991 l 35.58341213440788 8.908095181575975" fill="#48ff2c" stroke="none" /><path d="M 79.71946130924805 94.55025226153421 l -12.257769756231225 -3.2938845474611305 a33.69261969842239,33.69261969842239 0 0,0 0.1553281581468438,-0.5587980285316569 l 12.19925482751802 3.50439387941173" fill="#ffa00e" stroke="none" /><path d="M 79.81627453868168 94.20196356495316 l -16.78622059482749 -4.8220591784241655 a38.46509251559909,38.46509251559909 0 0,0 0.18828498465029542,-0.634803366761061 l 16.70072971306549 5.110291931931767" fill="#ffdd14" stroke="none" /><path d="M 80.02781315780177 93.51064311812611 l -11.83066883333886 -3.844017323560572 a33.43950136572882,33.43950136572882 0 0,0 0.1825839867389038,-0.5459028806208372 l 11.762747552828184 4.047093307103731" fill="#ff9c0e" stroke="none" /><path d="M 80.2630227832202 92.82701384747504 l -24.029780248166492 -8.733114451881518 a46.567511157811865,46.567511157811865 0 0,0 0.28028189215460375,-0.7510161235847078 l 23.87589376751026 9.145453712495566" fill="#c0ff1e" stroke="none" /><path d="M 80.52162464483688 92.15188598940014 l -8.088002975231525 -3.258771242996012 a29.719826955939652,29.719826955939652 0 0,0 0.19527102806736205,-0.47286428322412355 l 8.030710260277964 3.397510096673447" fill="#ff6a09" stroke="none" /><path d="M 80.95270993114464 91.15688171328213 l -11.41257653407063 -5.298536636034556 a33.58258294744843,33.58258294744843 0 0,0 0.2479383007443619,-0.5222212935176292 l 11.319680039484519 5.494200345192717" fill="#ff9e0e" stroke="none" /><path d="M 81.26839172434947 90.50648371742162 l -45.809758283345595 -23.217210170322005 a72.35730524542204,72.35730524542204 0 0,0 0.5726238844639687,-1.1061270822626563 l 45.40332496572152 24.002309974844998" fill="#3effba" stroke="none" /><line stroke="#e1ed5e" stroke-width="0.3" x1="26.266209847984243" x2="21.928928074336255" y1="57.711370442889674" y2="55.22380399835377" /><path d="M 25.398753493254645 57.213857153982495 a86.0,86.0 0 0,1 29.58750427330803,-30.492523968695096" fill="none" id="id59" stroke="none" /><text fill="#e1ed5e" style="font-size:6.75px; font-family:Arial;" text-anchor="middle"><textPath startOffset="21.46611528233685" xlink:href="#id59">November</textPath></text><path d="M 81.96595687620814 89.24020034530311 l -10.426791685911304 -6.221022585537414 a33.141627027345045,33.141627027345045 0 0,0 0.2965137208346981,-0.48739059401883694 l 10.318162166790389 6.399580952763325" fill="#ff980e" stroke="none" /><path d="M 82.34701348167596 88.62581576622439 l -10.176413512586793 -6.556873649175298 a33.10586568694732,33.10586568694732 0 0,0 0.31277691150852976,-0.47638069461795546 l 10.062039965720343 6.73107240777092" fill="#ff980e" stroke="none" /><path d="M 82.7489923806493 88.02491185347247 l -10.261108547476335 -7.122927660137511 a33.49105468223736,33.49105468223736 0 0,0 0.3328171648400558,-0.4707462770540724 l 10.1369787628324 7.298500437523369" fill="#ff9d0e" stroke="none" /><path d="M 83.17141714833178 87.43820079747576 l -13.360334372176691 -9.972903787631132 a37.672052797832464,37.672052797832464 0 0,0 0.392370682287316,-0.516313824715712 l 13.186687749665266 10.201402388227871" fill="#ffd313" stroke="none" /><path d="M 83.6137871275137 86.86637796730984 l -9.509916779969512 -7.622240326205789 a33.18757829728217,33.18757829728217 0 0,0 0.36111484215532214,-0.4426840977828564 l 9.377303445737798 7.784808593596727" fill="#ff990e" stroke="none" /><path d="M 84.07557802195018 86.31012108654704 l -23.242460684641326 -19.9810374820523 a51.65051121166296,51.65051121166296 0 0,0 0.5853924723209333,-0.6692047911837603 l 22.89507634874255 20.378157829439004" fill="#87ff25" stroke="none" /><path d="M 84.31358615837235 86.03803664274999 l -9.292943318842969 -8.271344579369073 a33.440817363738056,33.440817363738056 0 0,0 0.38641080934802025,-0.42668446685911643 l 9.149188868878904 8.430081833497745" fill="#ff9c0e" stroke="none" /><path d="M 84.5562425177563 85.77008943001954 l -9.051360417025306 -8.339942492558412 a33.307792904419294,33.307792904419294 0 0,0 0.3921321351910966,-0.41829922119941165 l 8.906460959863754 8.494511130635875" fill="#ff9b0e" stroke="none" /><path d="M 85.31137513191541 84.99185889309783 l -9.049439126979896 -9.246288238399705 a33.9377816761794,33.9377816761794 0 0,0 0.42101718101275465,-0.4050181945627903 l 8.888938702354714 9.400689519724809" fill="#ffa30f" stroke="none" /><path d="M 85.83668400450813 84.49514656593479 l -24.72647785994382 -27.06854915057434 a57.66203841135066,57.66203841135066 0 0,0 0.7385930840701131,-0.6631161634631002 l 24.256873788277737 27.49016432280672" fill="#48ff2c" stroke="none" /><path d="M 86.37877921826538 84.01681056812374 l -8.082481612441716 -9.484012979551858 a33.46085916828236,33.46085916828236 0 0,0 0.4415916631124813,-0.3698203183603323 l 7.918032412370125 9.621734455306003" fill="#ff9d0e" stroke="none" /><path d="M 86.65592168130627 83.78471172551755 l -12.265633630888324 -14.904797502230991 a40.30281733192567,40.30281733192567 0 0,0 0.539475475251431,-0.4362183163154321 l 12.007254757072394 15.113721915810558" fill="#fff417" stroke="none" /><path d="M 87.22198572758235 83.33499621200491 l -9.204935719549768 -12.005017787910502 a36.127831757693855,36.127831757693855 0 0,0 0.4967643036382804,-0.37415257449628403 l 8.996925262153098 12.161686951912639" fill="#ffbf11" stroke="none" /><path d="M 88.09926311788651 82.69761687909137 l -7.137667012642504 -10.37739515338982 a33.5951030386005,33.5951030386005 0 0,0 0.47928262672825284,-0.3236137690384661 l 6.957979691507712 10.498720834726951" fill="#ff9e0e" stroke="none" /><path d="M 88.70189139769569 82.29822771554957 l -9.451963871658084 -14.809249759098497 a38.568537203150655,38.568537203150655 0 0,0 0.5626981485744765,-0.35236152901531137 l 9.195646570711366 14.96975562943674" fill="#ffde14" stroke="none" /><line stroke="#e1ed5e" stroke-width="0.3" x1="56.762969772571076" x2="54.21961505331055" y1="26.818313649435495" y2="22.513508569990535" /><path d="M 56.25429882871897 25.957352633546506 a86.0,86.0 0 0,1 42.265352541879196,-11.944610805530505" fill="none" id="id60" stroke="none" /><text fill="#e1ed5e" style="font-size:6.75px; font-family:Arial;" text-anchor="middle"><textPath startOffset="22.20632615414155" xlink:href="#id60">December</textPath></text><path d="M 89.3179101791058 81.91981866633112 l -6.77165892815024 -11.461504574810364 a34.3124547607718,34.3124547607718 0 0,0 0.5110975222050144,-0.2960606739235206 l 6.573364673479905 11.576369406123932" fill="#ffa80f" stroke="none" /><path d="M 89.94658935756843 81.56283822128135 l -14.634549539490628 -26.838609006923168 a51.569281536377375,51.569281536377375 0 0,0 0.7830057554690634,-0.4182545573650292 l 14.17039873749326 27.086542290789946" fill="#88ff25" stroke="none" /><path d="M 90.91171255644093 81.06846463323043 l -6.987199223377408 -14.554822350582766 a37.14508614545582,37.14508614545582 0 0,0 0.578794358568866,-0.27175171213311994 l 6.735626653508933 14.672939045355895" fill="#ffcc13" stroke="none" /><path d="M 91.56875222667455 80.76684994638697 l -4.941915756313465 -11.273373745960065 a33.309000242042444,33.309000242042444 0 0,0 0.527101037723679,-0.22567715607264138 l 4.747130960799478 11.356770429995493" fill="#ff9b0e" stroke="none" /><path d="M 91.90106846888425 80.62456947434976 l -10.282897232826606 -24.600227841361328 a47.66288028979169,47.66288028979169 0 0,0 0.7596921359462535,-0.30989749698601965 l 9.857921227291971 24.773586224530924" fill="#b3ff20" stroke="none" /><path d="M 92.23578459929587 80.48803036053334 l -6.796934605269914 -17.081131165866346 a39.38377985980702,39.38377985980702 0 0,0 0.6320474685096025,-0.24522459833514867 l 6.501903971760636 17.195598468092044" fill="#ffe915" stroke="none" /><path d="M 92.57280143429618 80.3572730644239 l -4.381206136018629 -11.586984650669478 a33.38762206806203,33.38762206806203 0 0,0 0.5393176907577351,-0.1986352569952946 l 4.181106119488325 11.660683175471096" fill="#ff9c0e" stroke="none" /><path d="M 93.25333710446033 80.11325718540243 l -5.849291267765005 -17.24161305978655 a39.20679623762934,39.20679623762934 0 0,0 0.6409698396771347,-0.21131767856496886 l 5.5516386058454605 17.33974446261075" fill="#ffe615" stroke="none" /><path d="M 94.28887869178378 79.79150937346287 l -2.318275533278222 -8.203091276766408 a29.524383141503996,29.524383141503996 0 0,0 0.4902483200385708,-0.1340033851041208 l 2.1767293240159287 8.241781202696824" fill="#ff6809" stroke="none" /><path d="M 94.63758080256005 79.69619591428918 l -7.837416211944523 -29.67492048765317 a51.692442047314984,51.692442047314984 0 0,0 0.8622572843495347,-0.21980858073999543 l 7.325450038909989 29.80543206456203" fill="#87ff25" stroke="none" /><path d="M 95.33964822691252 79.52364482259891 l -2.956787776218645 -12.991344782100073 a34.32357434028102,34.32357434028102 0 0,0 0.5772200005394169,-0.12615793505584333 l 2.7327250515257075 13.040316215251785" fill="#ffa80f" stroke="none" /><path d="M 95.692805502759 79.44645832069477 l -4.453496176241356 -21.251680028760354 a42.71330311667499,42.71330311667499 0 0,0 0.7209061612934129,-0.14460699402240668 l 4.087023605480807 21.325190978859972" fill="#edff1a" stroke="none" /><path d="M 96.40284397218896 79.31037775812273 l -2.5977318199335766 -14.941272945793232 a36.16541617790254,36.16541617790254 0 0,0 0.614245128499528,-0.10135570925777315 l 2.3401574852951628 14.983774917990633" fill="#ffc011" stroke="none" /><path d="M 96.75951476605007 79.25152402106235 l -5.784593411492875 -37.0381250896747 a58.48712086963571,58.48712086963571 0 0,0 0.9960385080190797,-0.1467901845416147 l 5.146185923045147 37.13220975837728" fill="#40ff2d" stroke="none" /><path d="M 97.47563105711357 79.15227682838746 l -1.8084846027246928 -14.935529318712728 a36.0446220487063,36.0446220487063 0 0,0 0.6165918285382413,-0.06928127626231775 l 1.5511260706767334 14.964446548445645" fill="#ffbe11" stroke="none" /><path d="M 97.83486435360386 79.11191278185805 l -1.2875228068245603 -12.421341235161437 a33.48789145766471,33.48789145766471 0 0,0 0.5738786039210975,-0.05449668837621087 l 1.0735190758132265 12.441663468052827" fill="#ff9d0e" stroke="none" /><path d="M 98.19473922651362 79.07773832637324 l -1.857846964949417 -21.53171493066746 a42.61171772906309,42.61171772906309 0 0,0 0.7313181484608235,-0.05676436338903796 l 1.4869386271262592 21.560504556244958" fill="#eeff19" stroke="none" /><path d="M 98.55514903715128 79.0497635885617 l -0.47776421268216457 -6.927547174056921 a27.944002339552014,27.944002339552014 0 0,0 0.4801550738773681,-0.028964265302910287 l 0.35844708996517344 6.934744708740138" fill="#ff5207" stroke="none" /><path d="M 98.91598698831166 79.02799685794201 l -0.6265890711135973 -12.122389516069436 a33.138572463158475,33.138572463158475 0 0,0 0.5699190117428753,-0.024541911502138407 l 0.4178292269813979 12.131379154095768" fill="#ff980e" stroke="none" /></svg>