<?xml version="1.0" encoding="utf-8" ?>
<svg baseProfile="full" height="200mm" version="1.1" viewBox="0,0,200,200" width="200mm" xmlns="http://www.w3.org/2000/svg" xmlns:ev="http://www.w3.org/2001/xml-events" xmlns:xlink="http://www.w3.org/1999/xlink"><defs /><rect fill="#1a1a1a" height="200" width="200" x="0" y="0" /><text alignment-baseline="middle" fill="#e1ed5e" style="dominant-baseline: central; font-size:9.0px; font-family:Arial;" text-anchor="middle" x="100.0" y="100.0">2017</text><line stroke="#e1ed5e" stroke-width="0.3" x1="100.0" x2="100.0" y1="15.0" y2="10.0" /><path d="M 100.0 14.0 a86.0,86.0 0 0,1 42.46469731375804,11.215312516191453" fill="none" id="id25" stroke="none" /><text fill="#e1ed5e" style="font-size:6.75px; font-family:Arial;" text-anchor="middle"><textPath startOffset="22.20632615414155" xlink:href="#id25">January</textPath></text><line stroke="#e1ed5e" stroke-width="0.3" x1="143.23703022742887" x2="145.7803849466894" y1="26.81831364943548" y2="22.513508569990506" /><path d="M 143.74570117128098 25.957352633546492 a86.0,86.0 0 0,1 28.547481713284135,27.462654790039103" fill="none" id="id26" stroke="none" /><text fill="#e1ed5e" style="font-size:6.75px; font-family:Arial;" text-anchor="middle"><textPath startOffset="19.985693538727396" xlink:href="#id26">February</textPath></text><path d="M 117.2510076193507 88.02491185347247 l 6.344200535005413 -4.403937572940242 a28.722923447420527,28.722923447420527 0 0,0 0.27844211849355716,0.4085794509364882 l -6.419067119167703 4.294080098733348" fill="#ff5808" stroke="none" /><line stroke="#e1ed5e" stroke-width="0.3" x1="172.23445277983987" x2="176.4835382374775" y1="55.19839476539836" y2="52.563006222186495" /><path d="M 173.08426987136738 54.67131705675599 a86.0,86.0 0 0,1 12.851231095245387,41.99856678651699" fill="none" id="id27" stroke="none" /><text fill="#e1ed5e" style="font-size:6.75px; font-family:Arial;" text-anchor="middle"><textPath startOffset="22.20632615414155" xlink:href="#id27">March</textPath></text><path d="M 118.56541770881063 90.18545643968196 l 6.324806807362505 -3.343587141160648 a28.154212473850208,28.154212473850208 0 0,0 0.2228078347599852,0.4303938184468559 l -6.381424075282606 3.234220600453447" fill="#ff5007" stroke="none" /><path d="M 119.61058180528143 92.48833698450437 l 6.888661954335464 -2.6386421240545643 a28.37672663041976,28.37672663041976 0 0,0 0.1707946685442283,0.45764479793174967 l -6.933061211381317 2.5196741890934815" fill="#ff5307" stroke="none" /><path d="M 119.97218684219823 93.5106431181261 l 9.05251176780262 -2.9413393737392375 a30.51837415831683,30.51837415831683 0 0,0 0.15803361114414485,0.5010097339055237 l -9.10180086271497 2.785079473407295" fill="#ff710a" stroke="none" /><path d="M 120.37134235888165 94.90015583598534 l 14.543672002755674 -3.6409216182192017 a35.99248830427275,35.99248830427275 0 0,0 0.14528487834278134,0.6022996161641687 l -14.604189681359275 3.3900367703956267" fill="#ffba11" stroke="none" /><path d="M 120.6074358757038 95.95851677861258 l 5.921570321333021 -1.1613248364464868 a27.034374072448568,27.034374072448568 0 0,0 0.0856272295704279,0.45742408428660336 l -5.940683274813308 1.0592226746973206" fill="#ff4006" stroke="none" /><path d="M 120.83666639777658 97.38593545837742 l 21.72920329693056 -2.726037782237359 a42.89953328063234,42.89953328063234 0 0,0 0.08561449029057575,0.7334926689215435 l -21.772908140224725 2.351601374990963" fill="#eeff19" stroke="none" /><path d="M 120.94382443527127 98.46500227214037 l 6.512009023473036 -0.47727286321205603 a27.529475546148625,27.529475546148625 0 0,0 0.03057005236640864,0.47290517948289706 l -6.51925966684386 0.3651086194761237" fill="#ff4706" stroke="none" /><line stroke="#e1ed5e" stroke-width="0.3" x1="184.98032266829074" x2="189.97916517819016" y1="98.17113171792111" y2="98.06355123074" /><path d="M 185.9800911702706 98.14961562048488 a86.0,86.0 0 0,1 -9.607161424134198,41.387399972396054" fill="none" id="id28" stroke="none" /><text fill="#e1ed5e" style="font-size:6.75px; font-family:Arial;" text-anchor="middle"><textPath startOffset="21.466115282336823" xlink:href="#id28">April</textPath></text><path d="M 120.99980553446 99.90962569577887 l 14.7668378073975 -0.0635502405105555 a35.76697455347754,35.76697455347754 0 0,0 -0.002649656155196274,0.6156867759243869 l -14.7657438539528 -0.1906460136175162" fill="#ffb711" stroke="none" /><path d="M 120.99824983174949 100.27111621757518 l 7.45289705235868 0.0962271272607477 a28.45351823859562,28.45351823859562 0 0,0 -0.0105385562500378,0.48968529847762715 l -7.450136433423635 -0.2245022415284897" fill="#ff5407" stroke="none" /><path d="M 120.8583938346157 102.4346265915055 l 23.009339503055465 2.685688565058638 a44.16554828695741,44.16554828695741 0 0,0 -0.09463728648564455,0.7543522877473515 l -22.95970070732297 -3.0813586070933843" fill="#dfff1b" stroke="none" /><path d="M 120.70491114924044 103.5080841355445 l 8.656528593046705 1.4666969786667519 a29.779902465828727,29.779902465828727 0 0,0 -0.08998289324994282,0.5046718520277161 l -8.629999257457573 -1.6154875814276863" fill="#ff6609" stroke="none" /><path d="M 120.41448212921028 104.9243191809786 l 29.693276688670245 7.16252173425964 a51.54492426089267,51.54492426089267 0 0,0 -0.2154791026487809,0.8607319027935627 l -29.565586271726403 -7.672581476450598" fill="#8aff24" stroke="none" /><path d="M 120.02730092923936 106.31721596034902 l 11.165173007486928 3.5218329904844214 a32.707450444053954,32.707450444053954 0 0,0 -0.1739845554334724,0.5354694019803571 l -11.102896201037208 -3.7135012924425737" fill="#ff8e0d" stroke="none" /><path d="M 119.12269723197855 108.67885076344098 l 9.204662281262976 4.177543015917434 a31.10829725334321,31.10829725334321 0 0,0 -0.22549868899288533,0.4857041147855386 l -9.13138897543026 -4.335367197981803" fill="#ff790b" stroke="none" /><path d="M 118.81262510543309 109.33194174019688 l 10.492958776002657 5.204998208977498 a32.712992368748054,32.712992368748054 0 0,0 -0.2545714632463065,0.5022936481859387 l -10.401808642970083 -5.384846068866131" fill="#ff8e0d" stroke="none" /><path d="M 118.64920377521936 109.65438752849418 l 8.28442243182162 4.288709886522506 a30.328702349181537,30.328702349181537 0 0,0 -0.2439980090803816,0.46155228012953825 l -8.209371914516344 -4.4306771817381785" fill="#ff6e0a" stroke="none" /><line stroke="#e1ed5e" stroke-width="0.3" x1="174.80103733775053" x2="179.2010983576182" y1="140.37084112569926" y2="142.7455964860345" /><path d="M 175.68104954172406 140.8457921977663 a86.0,86.0 0 0,1 -30.038265399797805,32.042727171017184" fill="none" id="id29" stroke="none" /><text fill="#e1ed5e" style="font-size:6.75px; font-family:Arial;" text-anchor="middle"><textPath startOffset="22.206326154141568" xlink:href="#id29">May</textPath></text><path d="M 118.48025628344425 109.97397251340804 l 27.257628980636582 14.711205194545865 a51.97414883289083,51.97414883289083 0 0,0 -0.4316913169111644,0.7836451334130262 l -27.00036125427391 -15.178220846356696" fill="#86ff25" stroke="none" /><path d="M 117.14729908036423 112.12312394758627 l 7.568423836539905 5.350868368727998 a30.26891750254361,30.26891750254361 0 0,0 -0.3044479542596672,0.42285158069611284 l -7.475196089904635 -5.480353554875242" fill="#ff6d0a" stroke="none" /><path d="M 116.71984013943494 112.70617746262583 l 7.504031714639676 5.702659705848507 a30.425010328642948,30.425010328642948 0 0,0 -0.3204668986078893,0.4142466658233618 l -7.404757998813718 -5.830984365785121" fill="#ff6f0a" stroke="none" /><path d="M 116.0416608686014 113.55231037782055 l 24.535681747260597 20.728226154009988 a53.119449532870895,53.119449532870895 0 0,0 -0.5960950557094297,0.6933932188996851 l -24.175244181980386 -21.1474964720712" fill="#79ff26" stroke="none" /><path d="M 115.07121518719521 114.62390073753431 l 6.40879325133675 6.218579934719272 a29.929914184518942,29.929914184518942 0 0,0 -0.36195153802104235,0.36665499706240195 l -6.3008010882601715 -6.327975425762339" fill="#ff6909" stroke="none" /><path d="M 114.0293411484842 115.62618273729858 l 10.090841244929422 11.239396604406704 a36.10460569036867,36.10460569036867 0 0,0 -0.46602045084127414,0.41120886459870104 l -9.89587844118156 -11.411428610777692" fill="#ffbb11" stroke="none" /><path d="M 113.20401910651253 116.32954008644616 l 6.011595299844236 7.43459893843078 a30.56099050435808,30.56099050435808 0 0,0 -0.41190758939974936,0.32724430089721485 l -5.882730217727136 -7.536977153333121" fill="#ff710a" stroke="none" /><path d="M 112.04921762599082 117.19931262002967 l 8.338966690665405 11.903220565241854 a35.53358267230843,35.53358267230843 0 0,0 -0.5039729982681274,0.3466372236799654 l -8.132836807774394 -12.044998578286913" fill="#ffb410" stroke="none" /><path d="M 111.45004920935366 117.60387380957326 l 7.650249853589477 11.761873732759051 a35.03096563062262,35.03096563062262 0 0,0 -0.5083129866437732,0.3244293980726267 l -7.446655064898773 -11.891817559655488" fill="#ffad10" stroke="none" /><line stroke="#e1ed5e" stroke-width="0.3" x1="143.8653032363475" x2="146.44561519142675" y1="172.8068346515853" y2="177.08958963109032" /><path d="M 144.38136562736335 173.6633856474863 a86.0,86.0 0 0,1 -40.68145358897372,12.25698825130547" fill="none" id="id30" stroke="none" /><text fill="#e1ed5e" style="font-size:6.75px; font-family:Arial;" text-anchor="middle"><textPath startOffset="21.466115282336833" xlink:href="#id30">June</textPath></text><path d="M 110.5260780823613 118.17145234162733 l 4.3529158418859435 7.5145559579775565 a29.684263214119987,29.684263214119987 0 0,0 -0.44434689259020516,0.2523117623542564 l -4.22292018237454 -7.588370886126442" fill="#ff6509" stroke="none" /><path d="M 108.59647513512805 119.15986991738527 l 4.67552220436598 10.420828982036515 a32.42165419527187,32.42165419527187 0 0,0 -0.511149495116677,0.2240729173601669 l -4.495452034591549 -10.499766452691135" fill="#ff8b0c" stroke="none" /><path d="M 107.59598834532513 119.57807347666477 l 11.182634092764038 28.822375967115825 a51.915702509281985,51.915702509281985 0 0,0 -0.8359164299304174,0.31607206727406073 l -10.684847442073346 -29.010596284496515" fill="#86ff25" stroke="none" /><path d="M 106.57524785965236 119.94407469862006 l 3.067615573578763 9.304706902613967 a30.797338202328987,30.797338202328987 0 0,0 -0.5048983890989153,0.16165252002385685 l -2.9069958393889075 -9.35613226929753" fill="#ff740a" stroke="none" /><path d="M 105.53697534728816 120.25689768951611 l 4.2752339965588595 15.640845811142976 a37.21461326745974,37.21461326745974 0 0,0 -0.6193744287643441,0.16358241604324528 l -4.005369124983019 -15.712119576489805" fill="#ffc912" stroke="none" /><path d="M 104.48393922423573 120.51570834832081 l 2.5644260219265314 11.733213524020643 a33.01018652736896,33.01018652736896 0 0,0 -0.5561564691996213,0.11654799552884355 l -2.362078091297532 -11.775617500276027" fill="#ff920d" stroke="none" /><path d="M 103.06178313531738 120.77559828337769 l 1.4101000497055023 9.568173471899312 a30.67152137662618,30.67152137662618 0 0,0 -0.5229807080843706,0.0724803607294287 l -1.2451907504343012 -9.591028398121344" fill="#ff730a" stroke="none" /><path d="M 101.62511606390274 120.93702456842531 l 0.6852006965364736 8.827716454438383 a29.854268902314647,29.854268902314647 0 0,0 -0.5126933864711518,0.03535833765983579 l -0.5331445492863915 -8.838203136614503" fill="#ff6809" stroke="none" /><line stroke="#e1ed5e" stroke-width="0.3" x1="102.19456741930631" x2="102.32365962044197" y1="184.97166512339345" y2="189.96999836594603" /><path d="M 102.22038585953345 185.97133177190398 a86.0,86.0 0 0,1 -42.740103519485714,-10.115201625700543" fill="none" id="id31" stroke="none" /><text fill="#e1ed5e" style="font-size:6.75px; font-family:Arial;" text-anchor="middle"><textPath startOffset="22.20632615414155" xlink:href="#id31">July</textPath></text><path d="M 100.54218724476979 120.99299961872073 l 0.380755677084412 14.742515359712348 a35.74743143794832,35.74743143794832 0 0,0 -0.615264890689173,0.010592343063538843 l -0.1269310965025711 -14.746885180055047" fill="#ffb710" stroke="none" /><path d="M 99.45781275523022 120.99299961872073 l -0.564381918642775 21.85235731229992 a42.85964425727278,42.85964425727278 0 0,0 -0.737348438315115,-0.02539577108948367 l 0.940450708632533 -21.839404742784343" fill="#eeff19" stroke="none" /><path d="M 98.73552117531835 120.96189622390904 l -0.5498558552663105 9.115234791775178 a30.131804135588943,30.131804135588943 0 0,0 -0.5174595550575626,-0.03568704055062582 l 0.7066781711028032 -9.104419406708267" fill="#ff6b09" stroke="none" /><path d="M 98.01472825383883 120.90594882070398 l -1.3926208746762694 14.665025475188745 a35.73100013877262,35.73100013877262 0 0,0 -0.6117953781230312,-0.06341509242282649 l 1.6448488494048938 -14.638881014310158" fill="#ffb610" stroke="none" /><path d="M 96.93821686468263 120.77559828337769 l -2.909464728768667 19.742048261784834 a40.95528638177339,40.95528638177339 0 0,0 -0.6965599757719977,-0.10878834273615942 l 3.2488605681491816 -19.68904161170157" fill="#fff917" stroke="none" /><path d="M 95.86986931433489 120.58985236759428 l -4.561139608750505 22.738551953843608 a44.19150144962929,44.19150144962929 0 0,0 -0.7445395497683084,-0.1560255016763999 l 4.9518706199482 -22.656670471440666" fill="#deff1b" stroke="none" /><path d="M 95.16358092515715 120.4354850818985 l -5.771793274918054 24.387753323304082 a46.06144668144117,46.06144668144117 0 0,0 -0.7699866455950318,-0.189243983805245 l 6.190733205256296 -24.284788081184807" fill="#c8ff1d" stroke="none" /><path d="M 94.46302465271185 120.25689768951611 l -4.633415854480018 16.951245947510458 a38.57308401088257,38.57308401088257 0 0,0 -0.6389701751175387,-0.1805793539887835 l 4.92451719770217 -16.868977800183153" fill="#ffdb14" stroke="none" /><path d="M 93.76903079525671 120.05430185196036 l -4.2388433519536415 13.642667984708162 a35.28601353434129,35.28601353434129 0 0,0 -0.5784867274621854,-0.1852131821246432 l 4.473051424506767 -13.567681955923812" fill="#ffb110" stroke="none" /><path d="M 92.7421414339146 119.70592522655815 l -9.954319873211503 27.0271294647931 a49.801982765860075,49.801982765860075 0 0,0 -0.8018825446819267,-0.3032033640368812 l 10.418072638653713 -26.851777850649583" fill="#9eff22" stroke="none" /><path d="M 91.7346041902142 119.30500536409082 l -9.691292173453167 22.635388758028927 a45.62279367209044,45.62279367209044 0 0,0 -0.7192744642468896,-0.315308787597804 l 10.0794873123578 -22.46521541713667" fill="#cdff1d" stroke="none" /><path d="M 91.07499286063937 119.00905698771935 l -6.074381635770551 12.937610567311005 a35.2926512393042,35.2926512393042 0 0,0 -0.5476870453130855,-0.2629230646372172 l 6.296181349083879 -12.831133226174224" fill="#ffb110" stroke="none" /><path d="M 90.42595943632237 118.69057910512821 l -16.521265710911223 32.25305153376264 a57.238260912053704,57.238260912053704 0 0,0 -0.8730445568425184,-0.45673564950603546 l 17.074001170280237 -31.963886465311887" fill="#4eff2b" stroke="none" /><line stroke="#e1ed5e" stroke-width="0.3" x1="58.666819895761336" x2="56.23545636021788" y1="174.27360380694188" y2="178.64263932499728" /><path d="M 58.180547188652646 175.14741091055294 a86.0,86.0 0 0,1 -31.652253787137756,-30.449443065178592" fill="none" id="id32" stroke="none" /><text fill="#e1ed5e" style="font-size:6.75px; font-family:Arial;" text-anchor="middle"><textPath startOffset="22.20632615414155" xlink:href="#id32">August</textPath></text><path d="M 89.7882731507175 118.34994917583269 l -7.160005697446124 12.86616285237207 a35.72425985003049,35.72425985003049 0 0,0 -0.5347602445087759,-0.3036508232171589 l 7.380414708876107 -12.741008863360278" fill="#ffb610" stroke="none" /><path d="M 89.4739219176387 118.17145234162733 l -7.357541932567561 12.701522973044879 a35.67862763082015,35.67862763082015 0 0,0 -0.5287778683964641,-0.31241128511213745 l 7.575087671992407 -12.572993115638992" fill="#ffb610" stroke="none" /><path d="M 88.8546689885994 117.79835938074946 l -13.736877371122915 21.936888188465364 a46.88298404941942,46.88298404941942 0 0,0 -0.6802904006762818,-0.4341935205378959 l 14.11244957384612 -21.697180239103666" fill="#bfff1e" stroke="none" /><path d="M 88.24862548938628 117.40417183066458 l -7.990211614518149 11.833765980043061 a35.2787078867524,35.2787078867524 0 0,0 -0.5003581077842546,-0.34415086904282277 l 8.192726606925293 -11.694474321635138" fill="#ffb010" stroke="none" /><path d="M 87.95078237400918 117.19931262002967 l -7.872229472095253 11.236989812111856 a34.72012889512452,34.72012889512452 0 0,0 -0.48653262416187454,-0.3471281090971295 l 8.064489424106014 -11.099817441170508" fill="#ffa90f" stroke="none" /><path d="M 87.07902340077011 116.55440617244103 l -9.08564816350781 11.64056825608413 a35.76657820470289,35.76657820470289 0 0,0 -0.48206961771332374,-0.38298525953909235 l 9.284675273938493 -11.482449082539906" fill="#ffb711" stroke="none" /><path d="M 86.79598089348748 116.32954008644616 l -24.009638827268784 29.692956101343697 a59.18552603608096,59.18552603608096 0 0,0 -0.7866880130698215,-0.6473906773092006 l 24.517196968883294 -29.275270305177315" fill="#3bff2e" stroke="none" /><path d="M 86.24171649860922 115.8653595955263 l -9.663150161836077 11.143058080435683 a35.74938013728562,35.74938013728562 0 0,0 -0.46143537452669564,-0.40716306784876743 l 9.85352788926936 -10.975071870814627" fill="#ffb710" stroke="none" /><path d="M 85.44109423537348 115.13401014063109 l -10.284581070678705 10.69084151873325 a35.83464526633628,35.83464526633628 0 0,0 -0.4408515386264047,-0.43146601749520735 l 10.467082561680904 -10.512225398315474" fill="#ffb811" stroke="none" /><path d="M 85.18274418774928 114.88116024355367 l -9.266951460382982 9.306918325401137 a34.133739683912644,34.133739683912644 0 0,0 -0.4127896759354093,-0.41815376236552143 l 9.425781761373925 -9.14602406905495" fill="#ffa10e" stroke="none" /><path d="M 84.43433777217949 114.09645910891817 l -10.936425665666917 9.904164367530601 a35.75458837649227,35.75458837649227 0 0,0 -0.4092047095598241,-0.45974582913980827 l 11.105289224875078 -9.714444368649929" fill="#ffb710" stroke="none" /><path d="M 83.95833913139862 113.55231037782056 l -11.138469612924368 9.40999803977497 a35.58127458168895,35.58127458168895 0 0,0 -0.39123136332373415,-0.4712633801162404 l 11.29879697614164 -9.21687340254497" fill="#ffb410" stroke="none" /><path d="M 83.06392112726016 112.41649034213515 l -50.80823661821951 37.24947102640544 a84.0,84.0 0 0,0 -0.8448808304975701,-1.1734655781954473 l 51.44189724109269 -36.36937184275885" fill="#4dd2ff" stroke="none" /><line stroke="#e1ed5e" stroke-width="0.3" x1="26.63291911575756" x2="22.317208475507996" y1="142.92168965132927" y2="145.44649492493687" /><path d="M 25.769776987707644 143.4266507060508 a86.0,86.0 0 0,1 -11.730757126820373,-40.83630448921669" fill="none" id="id33" stroke="none" /><text fill="#e1ed5e" style="font-size:6.75px; font-family:Arial;" text-anchor="middle"><textPath startOffset="21.46611528233685" xlink:href="#id33">September</textPath></text><path d="M 81.69416730710424 110.29060199501025 l -7.885693239828428 4.432933040915963 a30.04627289097119,30.04627289097119 0 0,0 -0.24956089524965508,-0.4530255147402745 l 7.9608305445296 -4.296537007777866" fill="#ff6a09" stroke="none" /><path d="M 80.73074385275274 108.34839909993369 l -1.4746803420326278 0.638904789372154 a22.607134543546415,22.607134543546415 0 0,0 -0.15162822469104878,-0.3584043329161503 l 1.4854595479159831 -0.6134259307898449" fill="#ff0000" stroke="none" /><path d="M 79.86692584326677 105.97154293290107 l -9.277883940878004 2.751854080907837 a30.67738762802292,30.67738762802292 0 0,0 -0.14580138887503916,-0.5075537620192552 l 9.323877966639149 -2.5917428433839858" fill="#ff730a" stroke="none" /><path d="M 79.67330655649465 105.27499134158121 l -14.146421390667928 3.6711455583040427 a35.61501104592818,35.61501104592818 0 0,0 -0.14888547671852417,-0.5947234701600661 l 14.207518181681511 -3.4270942487465845" fill="#ffb510" stroke="none" /><path d="M 79.29508885075956 103.50808413554451 l -7.31729223450759 1.2397868610974845 a28.421579151779966,28.421579151779966 0 0,0 -0.0775750026315115,-0.48305961543755255 l 7.337548991500393 -1.1136480159667184" fill="#ff5407" stroke="none" /><line stroke="#e1ed5e" stroke-width="0.3" x1="15.007084014347285" x2="10.007500721073583" y1="101.09737516637583" y2="101.16192664675087" /><path d="M 14.007167355692545 101.11028546245083 a86.0,86.0 0 0,1 10.666146001902534,-42.60595125391555" fill="none" id="id34" stroke="none" /><text fill="#e1ed5e" style="font-size:6.75px; font-family:Arial;" text-anchor="middle"><textPath startOffset="22.20632615414155" xlink:href="#id34">October</textPath></text><path d="M 79.00175016825051 100.2711162175752 l -14.877257020667184 0.19208580160994243 a35.87849701462386,35.87849701462386 0 0,0 -0.002657917859724209,-0.6176065050992502 l 14.878359235816411 0.06403018169298315" fill="#ffb811" stroke="none" /><path d="M 79.01574976396665 99.18683210126434 l -14.664389929057062 -0.5682648181718272 a35.67539631134376,35.67539631134376 0 0,0 0.029060824082239905,-0.6134280654689858 l 14.652435496741324 0.8206039902638221" fill="#ffb610" stroke="none" /><path d="M 79.12142395522702 97.74499172005258 l -8.821332158736904 -0.9527554472805279 a29.87263455784631,29.87263455784631 0 0,0 0.05961674138914903,-0.510759832891802 l 8.803625064344166 1.1044590184971916" fill="#ff6809" stroke="none" /><path d="M 79.54389044137918 95.25157060432595 l -8.732918549080285 -2.0271521830505765 a29.965110839142884,29.965110839142884 0 0,0 0.120955168367069,-0.5014372611351379 l 8.696730580452401 2.1771746758451114" fill="#ff6909" stroke="none" /><line stroke="#e1ed5e" stroke-width="0.3" x1="26.266209847984243" x2="21.928928074336255" y1="57.711370442889674" y2="55.22380399835377" /><path d="M 25.398753493254645 57.213857153982495 a86.0,86.0 0 0,1 29.58750427330803,-30.492523968695096" fill="none" id="id35" stroke="none" /><text fill="#e1ed5e" style="font-size:6.75px; font-family:Arial;" text-anchor="middle"><textPath startOffset="21.46611528233685" xlink:href="#id35">November</textPath></text><line stroke="#e1ed5e" stroke-width="0.3" x1="56.762969772571076" x2="54.21961505331055" y1="26.818313649435495" y2="22.513508569990535" /><path d="M 56.25429882871897 25.957352633546506 a86.0,86.0 0 0,1 42.265352541879196,-11.944610805530505" fill="none" id="id36" stroke="none" /><text fill="#e1ed5e" style="font-size:6.75px; font-family:Arial;" text-anchor="middle"><textPath startOffset="22.20632615414155" xlink:href="#id36">December</textPath></text></svg>