<?xml version="1.0" encoding="utf-8" ?>
<svg baseProfile="full" height="200mm" version="1.1" viewBox="0,0,200,200" width="200mm" xmlns="http://www.w3.org/2000/svg" xmlns:ev="http://www.w3.org/2001/xml-events" xmlns:xlink="http://www.w3.org/1999/xlink"><defs /><rect fill="#1a1a1a" height="200" width="200" x="0" y="0" /><text alignment-baseline="middle" fill="#e1ed5e" style="dominant-baseline: central; font-size:9.0px; font-family:Arial;" text-anchor="middle" x="100.0" y="100.0">2025</text><line stroke="#e1ed5e" stroke-width="0.3" x1="100.0" x2="100.0" y1="15.0" y2="10.0" /><path d="M 100.0 14.0 a86.0,86.0 0 0,1 42.46469731375804,11.215312516191453" fill="none" id="id121" stroke="none" /><text fill="#e1ed5e" style="font-size:6.75px; font-family:Arial;" text-anchor="middle"><textPath startOffset="22.20632615414155" xlink:href="#id121">January</textPath></text><path d="M 100.0 79.0 l 0.0 -4.406941110482293 a25.406941110482293,25.406941110482293 0 0,0 0.4373387261650497,0.003764312488866062 l -0.07585824689252132 4.406288174601986" fill="#ff2d04" stroke="none" /><path d="M 100.36148047927253 79.00311137660856 l 0.10762688937948561 -6.251595698143892 a27.252522076759803,27.252522076759803 0 0,0 0.46896836201451614,0.012112069199396757 l -0.21522188658886957 6.248816836802136" fill="#ff4706" stroke="none" /><path d="M 101.08401301168833 79.027996857942 l 0.246893069190327 -4.776549881765249 a25.78292640133693,25.78292640133693 0 0,0 0.4430218255989284,0.02672428636025461 l -0.32907694362886725 4.77159232602469" fill="#ff3304" stroke="none" /><path d="M 101.44485096284872 79.0497635885617 l 0.6312864362426249 -9.15360851927684 a30.175351300564,30.175351300564 0 0,0 0.5178806022933858,0.04019750195258352 l -0.788757227898352 9.141385755135794" fill="#ff700a" stroke="none" /><path d="M 102.16513564639614 79.11191278185805 l 0.6193384680601474 -5.975051013512281 a27.00706373797492,27.00706373797492 0 0,0 0.4619922159578901,0.051910208444860426 l -0.7220973875277626 5.96350485159682" fill="#ff4406" stroke="none" /><path d="M 102.52436894288641 79.15227682838746 l 0.5296904619423246 -4.374495316279158 a25.406447691465424,25.406447691465424 0 0,0 0.4337065380155328,0.05630755609540233 l -0.6049117284657035 4.364729437019618" fill="#ff2d04" stroke="none" /><path d="M 102.88285421437855 79.19881850522331 l 0.8953810498836781 -6.46060547658632 a27.522356196083432,27.522356196083432 0 0,0 0.4687070622576677,0.06907523716286332 l -1.0064570925700016 6.444235755262487" fill="#ff4b07" stroke="none" /><path d="M 103.59715602781102 79.31037775812273 l 0.8043165494017777 -4.626156174865598 a25.69555599113552,25.69555599113552 0 0,0 0.4351173845914941,0.07951492083376611 l -0.8838290550961727 4.611625772681093" fill="#ff3104" stroke="none" /><path d="M 103.95276090670814 79.375362276772 l 1.911024211173007 -9.971304353084463 a31.152779128767186,31.152779128767186 0 0,0 0.5257900648422168,0.10546854063123141 l -2.0823806854823492 9.936931856376024" fill="#ff7d0b" stroke="none" /><path d="M 104.66035177308747 79.52364482259891 l 1.1760712953830876 -5.167346743496197 a26.299492056730042,26.299492056730042 0 0,0 0.4405494452607092,0.10426382011150143 l -1.2648444276063204 5.146337011243827" fill="#ff3a05" stroke="none" /><path d="M 105.36241919743992 79.69619591428918 l 1.3795354602711616 -5.223354736610063 a26.402458032286077,26.402458032286077 0 0,0 0.4384091831209783,0.11983379074979976 l -1.4692425326158507 5.19883440503397" fill="#ff3b05" stroke="none" /><path d="M 105.71112130821622 79.79150937346287 l 1.0836087662398983 -3.8342903982601597 a24.984468699395443,24.984468699395443 0 0,0 0.41285024017490773,0.12052230620605262 l -1.1494492241382332 3.8150697631354036" fill="#ff2703" stroke="none" /><path d="M 106.40334571778207 80.00007090966166 l 0.8070644387585163 -2.520749660865552 a23.646796528081143,23.646796528081143 0 0,0 0.38658816414422,0.12745203962919657 l -0.8503354251451537 2.506483896977119" fill="#ff1402" stroke="none" /><path d="M 107.08798089147638 80.2323363322302 l 1.5917720662845043 -4.439291714217497 a25.71604169138948,25.71604169138948 0 0,0 0.4153969453756476,0.15299420066088174 l -1.6679513374327282 4.411234245750291" fill="#ff3204" stroke="none" /><path d="M 107.4271985657038 80.35727306442388 l 1.5584880528138585 -4.121736477484288 a25.406540207531087,25.406540207531087 0 0,0 0.4077348461452776,0.15819478576347004 l -1.629206063958803 4.094298987830271" fill="#ff2d04" stroke="none" /><path d="M 107.76421540070413 80.48803036053334 l 2.3493743359628594 -5.904127893063368 a27.354391076108694,27.354391076108694 0 0,0 0.43599790146481177,0.17785449126284228 l -2.4506561070160586 5.862812515616946" fill="#ff4906" stroke="none" /><path d="M 108.43124777332544 80.76684994638697 l 4.599064382748939 -10.491269828350626 a32.45504848562109,32.45504848562109 0 0,0 0.5097264445993086,0.22869939752248392 l -4.778972945815027 10.410550100311612" fill="#ff8f0d" stroke="none" /><path d="M 108.76106565485865 80.91482961587045 l 2.059212834318731 -4.485804506939674 a25.93586867445876,25.93586867445876 0 0,0 0.4041324447216724,0.18974560162128934 l -2.136123490340001 4.4496939226783825" fill="#ff3505" stroke="none" /><path d="M 109.08828744355905 81.06846463323043 l 1.90669795399157 -3.9717845605027184 a25.40574280715561,25.40574280715561 0 0,0 0.39261397732690695,0.19265397357053046 l -1.9747831983289088 3.938375426797356" fill="#ff2d04" stroke="none" /><path d="M 109.41281617654863 81.2277094730956 l 3.6629781791238036 -7.305198495593727 a29.172107084513883,29.172107084513883 0 0,0 0.4469437861609574,0.22894196666247835 l -3.788182452873517 7.241064003618748" fill="#ff6209" stroke="none" /><path d="M 110.05341064243156 81.56283822128135 l 2.9586523501666315 -5.4259349356304485 a27.18016129683049,27.18016129683049 0 0,0 0.408836105181207,0.2275168498958825 l -3.0516125444198736 5.374202688174386" fill="#ff4606" stroke="none" /><line stroke="#e1ed5e" stroke-width="0.3" x1="143.23703022742887" x2="145.7803849466894" y1="26.81831364943548" y2="22.513508569990506" /><path d="M 143.74570117128098 25.957352633546492 a86.0,86.0 0 0,1 28.547481713284135,27.462654790039103" fill="none" id="id122" stroke="none" /><text fill="#e1ed5e" style="font-size:6.75px; font-family:Arial;" text-anchor="middle"><textPath startOffset="19.985693538727396" xlink:href="#id122">February</textPath></text><path d="M 110.68208982089419 81.91981866633111 l 2.429688530766686 -4.112417135331662 a25.77654279280618,25.77654279280618 0 0,0 0.3800664500198644,0.22898578354443355 l -2.500117047004188 4.0699847423286135" fill="#ff3304" stroke="none" /><path d="M 110.99172775467656 82.1063720568725 l 5.534845865582116 -9.01027343941873 a31.574476167113247,31.574476167113247 0 0,0 0.4606578462610443,0.28846390106783387 l -5.689122864215423 8.913665197027951" fill="#ff830c" stroke="none" /><path d="M 111.60114157652 82.49532879139004 l 4.543485876910599 -6.855551748222023 a29.22446677215223,29.22446677215223 0 0,0 0.4169291930194672,0.28151245225855864 l -4.660819764336607 6.776327383664794" fill="#ff6309" stroke="none" /><path d="M 111.90073688211348 82.69761687909136 l 2.4973538584458357 -3.630882160940233 a25.406822161255015,25.406822161255015 0 0,0 0.35819851828969596,0.25094095302121117 l -2.5594835163191827 3.587356365155086" fill="#ff2d04" stroke="none" /><path d="M 112.19680574252982 82.90503203632743 l 4.191490923036791 -5.874767915626098 a28.216750946261733,28.216750946261733 0 0,0 0.3929581415006147,0.2855008015261432 l -4.291994380891195 5.80174787928328" fill="#ff5507" stroke="none" /><path d="M 112.77801427241765 83.33499621200491 l 3.217064236500719 -4.195674425190979 a26.287077281823446,26.287077281823446 0 0,0 0.3567124402537055,0.2784197176969887 l -3.288809231913855 4.139676318270766" fill="#ff3a05" stroke="none" /><path d="M 113.06298171725822 83.55741782278167 l 7.0421401146427565 -8.864053402564393 a32.320917812517415,32.320917812517415 0 0,0 0.43263334058928793,0.34982607379106634 l -7.193676853796536 8.741521231509196" fill="#ff8d0d" stroke="none" /><path d="M 113.6212207817346 84.01681056812373 l 4.3387600659020125 -5.091116658630412 a27.68911860720455,27.68911860720455 0 0,0 0.3600985715063254,0.31227393274003773 l -4.4257524360551015 5.015677732470703" fill="#ff4e07" stroke="none" /><path d="M 113.89432698308785 84.25364557470407 l 2.9163444502836278 -3.305075042231754 a25.40778697165407,25.40778697165407 0 0,0 0.3254483583274619,0.2921907494587137 l -2.9728037962070797 3.254385284003743" fill="#ff2d04" stroke="none" /><path d="M 114.16331599549186 84.49514656593476 l 5.095111511081366 -5.57771620958541 a28.554540318578336,28.554540318578336 0 0,0 0.3600484361057965,0.3346257818642334 l -5.19036783098201 5.4891858416465364" fill="#ff5a08" stroke="none" /><path d="M 114.68862486808459 84.99185889309783 l 0.893629925194405 -0.9130687273394144 a22.277602811537363,22.277602811537363 0 0,0 0.27174877611465115,0.2705818005085382 l -0.9092145014763787 0.8975510761807576" fill="#ff0000" stroke="none" /><path d="M 114.94478906791727 85.2469230424477 l 7.131132366645013 -7.039654030678644 a31.02046793828822,31.02046793828822 0 0,0 0.3718552541294802,0.3832295263800805 l -7.251251884477602 6.915860308748449" fill="#ff7b0b" stroke="none" /><path d="M 115.4437574822437 85.77008943001954 l 4.63027321719994 -4.266343464088022 a27.29611917132178,27.29611917132178 0 0,0 0.3154084239725608,0.34828185953875707 l -4.703025281788536 4.186008817279716" fill="#ff4806" stroke="none" /><path d="M 115.68641384162765 86.03803664274999 l 2.6782452163646373 -2.383818376216776 a24.58546893582539,24.58546893582539 0 0,0 0.27864484021335734,0.31853922099494075 l -2.7188819201558427 2.3373635990188872" fill="#ff2203" stroke="none" /><path d="M 115.9244219780498 86.31012108654704 l 4.3463986235669845 -3.7365042792917462 a26.731722709980875,26.731722709980875 0 0,0 0.29696319959256834,0.3515107613027421 l -4.41007243664667 3.6611345683598975" fill="#ff4006" stroke="none" /><path d="M 116.38621287248628 86.86637796730983 l 2.149079637865847 -1.7224968271511345 a23.754185652681265,23.754185652681265 0 0,0 0.2529774614302652,0.3212556857530042 l -2.1784111798900763 1.685248747445092" fill="#ff1602" stroke="none" /><path d="M 116.60985879189232 87.15038557335679 l 8.025707426743706 -6.2087972707535855 a31.146977049792035,31.146977049792035 0 0,0 0.3244092033369942,0.42688448477210467 l -8.131392570304815 6.069728010100447" fill="#ff7d0b" stroke="none" /><path d="M 117.04232023915458 87.72973835380427 l 5.280526152019639 -3.8019140941852374 a27.506804685998166,27.506804685998166 0 0,0 0.27334871464224925,0.38663237161218617 l -5.345187486465771 3.7104552222412583" fill="#ff4b07" stroke="none" /><path d="M 117.45458315368197 88.32363383020206 l 6.492313425107577 -4.343078730279504 a28.81104771891955,28.81104771891955 0 0,0 0.2722004193474772,0.41457991326355853 l -6.566110479812979 4.230680753038271" fill="#ff5d08" stroke="none" /><line stroke="#e1ed5e" stroke-width="0.3" x1="172.23445277983987" x2="176.4835382374775" y1="55.19839476539836" y2="52.563006222186495" /><path d="M 173.08426987136738 54.67131705675599 a86.0,86.0 0 0,1 12.851231095245387,41.99856678651699" fill="none" id="id123" stroke="none" /><text fill="#e1ed5e" style="font-size:6.75px; font-family:Arial;" text-anchor="middle"><textPath startOffset="22.20632615414155" xlink:href="#id123">March</textPath></text><path d="M 117.84615892207809 88.93136811851018 l 4.095829175601477 -2.5403351831700283 a25.8196596849321,25.8196596849321 0 0,0 0.23100505468689686,0.3797115712158536 l -4.138950028574597 2.469455838747093" fill="#ff3304" stroke="none" /><path d="M 118.03404312379186 89.2402003453031 l 8.75691221800971 -5.224708647571458 a31.197111946327535,31.197111946327535 0 0,0 0.27117766525086995,0.46353053344544903 l -8.845549557730907 5.073198701772114" fill="#ff7e0b" stroke="none" /><path d="M 118.3937258080291 89.86733742301442 l 7.049275882014533 -3.8832770842629674 a29.04811352889071,29.04811352889071 0 0,0 0.23749170599490826,0.4400360624694198 l -7.115075687227907 3.761360038461089" fill="#ff6008" stroke="none" /><path d="M 118.73160827565052 90.50648371742162 l 7.437318322153707 -3.7693668130924425 a29.33797517366692,29.33797517366692 0 0,0 0.22442152151767086,0.4524200929927566 l -7.501099856624785 3.6407871316007356" fill="#ff6409" stroke="none" /><path d="M 119.04729006885535 91.15688171328212 l 4.640064580133171 -2.154250803751918 a26.115759555850158,26.115759555850158 0 0,0 0.18579209373268304,0.4093682508646885 l -4.676458990829201 2.0740605440451665" fill="#ff3705" stroke="none" /><path d="M 119.196687751892 91.48605970444005 l 10.190623099872077 -4.519652440474459 a32.14791717525445,32.14791717525445 0 0,0 0.21999782653771946,0.5077853155614735 l -10.266911636252477 4.343567980326383" fill="#ff8b0c" stroke="none" /><path d="M 119.47837535516314 92.15188598940014 l 6.799909754313902 -2.739780194219313 a28.331109614475135,28.331109614475135 0 0,0 0.17835978238296116,0.4539061915331795 l -6.846063086578564 2.6223249977903493" fill="#ff5608" stroke="none" /><path d="M 119.7369772167798 92.82701384747503 l 5.4132206259298785 -1.9673203329913311 a26.759627317595626,26.759627317595626 0 0,0 0.15360907770541965,0.43427354789408545 l -5.446282784445108 1.873849158670631" fill="#ff4106" stroke="none" /><path d="M 119.97218684219823 93.5106431181261 l 9.391165304289274 -3.051374577942681 a30.874455559037244,30.874455559037244 0 0,0 0.15987751112797727,0.5068554007453814 l -9.442298299185458 2.8892690107708803" fill="#ff790b" stroke="none" /><path d="M 120.08093135843002 93.85539295169968 l 8.738007630693238 -2.673761605839051 a30.137930754766764,30.137930754766764 0 0,0 0.14752388356408982,0.49737719732714925 l -8.78273741136903 2.5229550217653722" fill="#ff6f0a" stroke="none" /><path d="M 120.28053869075195 94.5502522615342 l 5.264174264273406 -1.4145788841741143 a26.450923234112707,26.450923234112707 0 0,0 0.11437337405116525,0.4407272660547142 l -5.287743970194874 1.3237551925705495" fill="#ff3c05" stroke="none" /><path d="M 120.45610955862082 95.25157060432595 l 4.292889170154733 -0.9964984333662256 a25.40702922102102,25.40702922102102 0 0,0 0.09522265758560014,0.4268645026694377 l -4.309406214742371 0.922455761146824" fill="#ff2d04" stroke="none" /><path d="M 120.67395015179393 96.31383870115 l 18.50411786069936 -3.2992806225543787 a39.795947180948765,39.795947180948765 0 0,0 0.11443824615700116,0.6754210067963051 l -18.558167968376583 2.9802738274422356" fill="#ffed16" stroke="none" /><path d="M 120.87857604477298 97.74499172005257 l 2.770550451194198 -0.29923564682080467 a23.78666319725593,23.78666319725593 0 0,0 0.04046323713498715,0.4074592759497732 l -2.775290814011414 0.2515008401665965" fill="#ff1602" stroke="none" /><path d="M 120.94382443527127 98.46500227214037 l 3.4442016550059678 -0.25242962339872543 a24.453439699070344,24.453439699070344 0 0,0 0.027154274366261135,0.4200646056797434 l -3.448036520376644 0.19310595346594675" fill="#ff2003" stroke="none" /><path d="M 120.96714384426684 98.82574320788733 l 18.654154337297854 -1.0447187082030502 a39.683385967725386,39.683385967725386 0 0,0 0.032325692713584715,0.6823442821208733 l -18.669373638244938 0.7234633194591772" fill="#ffec16" stroke="none" /><line stroke="#e1ed5e" stroke-width="0.3" x1="184.98032266829074" x2="189.97916517819016" y1="98.17113171792111" y2="98.06355123074" /><path d="M 185.9800911702706 98.14961562048488 a86.0,86.0 0 0,1 -9.607161424134198,41.387399972396054" fill="none" id="id124" stroke="none" /><text fill="#e1ed5e" style="font-size:6.75px; font-family:Arial;" text-anchor="middle"><textPath startOffset="21.466115282336823" xlink:href="#id124">April</textPath></text><path d="M 120.99980553446 99.90962569577887 l 4.4063584262497955 -0.018963107837725944 a25.406399230669123,25.406399230669123 0 0,0 -0.0018821335308152624,0.4373415483266707 l -4.406031995429477 -0.05688791869262947" fill="#ff2d04" stroke="none" /><path d="M 120.9764740272857 100.99374915477107 l 5.192328312254276 0.245983756130068 a26.19815172061351,26.19815172061351 0 0,0 -0.025217154584559618,0.45026923503358146 l -5.187324806782187 -0.3353247074990728" fill="#ff3905" stroke="none" /><path d="M 120.95626037817324 101.35467743843564 l 5.337178824664796 0.34501173435506366 a26.34831851176545,26.34831851176545 0 0,0 -0.03315301183280857,0.45234650626813727 l -5.330449254167649 -0.4368313771199712" fill="#ff3b05" stroke="none" /><path d="M 120.89721153311464 102.0752229133903 l 4.550882653385517 0.4519309164043508 a25.573267374436714,25.573267374436714 0 0,0 -0.04727120869399385,0.4376726836093437 l -4.542429143190471 -0.5301999218984859" fill="#ff3004" stroke="none" /><path d="M 120.8583938346157 102.4346265915055 l 4.866012266067574 0.5679690848438889 a25.89904728032487,25.89904728032487 0 0,0 -0.055496097121863895,0.4423584971582791 l -4.855514659698862 -0.6516453362895629" fill="#ff3405" stroke="none" /><path d="M 120.76222939487914 103.15116336523771 l 6.898419479210113 1.0469996418732663 a27.977420695445293,27.977420695445293 0 0,0 -0.07636269865519553,0.4755105974197907 l -6.879375026193629 -1.165589468986262" fill="#ff5207" stroke="none" /><path d="M 120.5718875245553 104.21870165774334 l 4.5395188285865435 0.9309245728986226 a25.633988752200228,25.633988752200228 0 0,0 -0.09236287620295447,0.4314886084354353 l -4.522821913659146 -1.008927000750227" fill="#ff3104" stroke="none" /><path d="M 120.41448212921028 104.9243191809786 l 4.97138846319622 1.1991831784155034 a26.113975317440943,26.113975317440943 0 0,0 -0.10916721769758864,0.4360687688804804 l -4.950009931203571 -1.2845797866933797" fill="#ff3705" stroke="none" /><path d="M 120.23288151984713 105.62410040840565 l 3.1821604781265576 0.8845398529659922 a24.302810327590088,24.302810327590088 0 0,0 -0.11550473405019225,0.4020871320262484 l -3.1664631071902662 -0.9391844604968226" fill="#ff1d03" stroke="none" /><path d="M 120.02730092923936 106.31721596034902 l 9.222678725860423 2.909111589725816 a30.670611827692987,30.670611827692987 0 0,0 -0.16314976224885974,0.5021233373673759 l -9.171236712595316 -3.067433827070987" fill="#ff770a" stroke="none" /><path d="M 119.79798401119884 107.00284435728193 l 4.705075289121888 1.6642558111157228 a25.990739512450823,25.990739512450823 0 0,0 -0.15282027468192944,0.42049576222833146 l -4.675730753434732 -1.7449993703501854" fill="#ff3605" stroke="none" /><path d="M 119.54520255179757 107.68017299344265 l 4.605006085349724 1.8095101996315348 a25.947768002713804,25.947768002713804 0 0,0 -0.1669274106201103,0.41430014354180733 l -4.573176060472221 -1.8885097110161557" fill="#ff3505" stroke="none" /><path d="M 119.26925614724726 108.34839909993367 l 8.556275702981331 3.7070037282034924 a30.32479117977144,30.32479117977144 0 0,0 -0.21163659528847456,0.477184651946064 l -8.491198022961585 -3.8537367166422443" fill="#ff720a" stroke="none" /><line stroke="#e1ed5e" stroke-width="0.3" x1="174.80103733775053" x2="179.2010983576182" y1="140.37084112569926" y2="142.7455964860345" /><path d="M 175.68104954172406 140.8457921977663 a86.0,86.0 0 0,1 -30.038265399797805,32.042727171017184" fill="none" id="id125" stroke="none" /><text fill="#e1ed5e" style="font-size:6.75px; font-family:Arial;" text-anchor="middle"><textPath startOffset="22.206326154141568" xlink:href="#id125">May</textPath></text><path d="M 118.48025628344425 109.97397251340804 l 7.8284617221782105 4.225096277978685 a29.895855860668988,29.895855860668988 0 0,0 -0.24831154865419122,0.45075758777226493 l -7.75457376407251 -4.359224384148755" fill="#ff6c0a" stroke="none" /><path d="M 118.12598468904814 110.60418214915192 l 3.6457274065531795 2.132847298972057 a25.223785733631072,25.223785733631072 0 0,0 -0.22247273834089032,0.3728771060673328 l -3.608473792514062 -2.1952864989254937" fill="#ff2b04" stroke="none" /><path d="M 117.75023020441432 111.22182372390056 l 4.1090210270701375 2.5977527678550634 a25.861313942115153,25.861313942115153 0 0,0 -0.24111997602597285,0.37422355736471313 l -4.063696187667114 -2.66809792514123" fill="#ff3404" stroke="none" /><path d="M 117.35343817320211 111.8261652097733 l 4.0475437336678075 2.758353728545632 a25.898073658871937,25.898073658871937 0 0,0 -0.2542193052518113,0.3662218697869622 l -3.9994635212538596 -2.8276168605196137" fill="#ff3405" stroke="none" /><path d="M 116.498646956653 112.99209946851258 l 8.752506621264127 6.892288617426535 a32.1404674292051,32.1404674292051 0 0,0 -0.3460182849489357,0.43171101321731276 l -8.632570424260336 -7.041927464222098" fill="#ff8a0c" stroke="none" /><path d="M 116.27256486870786 113.27417163493432 l 2.5951327983929553 2.116951965424914 a24.34905954936774,24.34905954936774 0 0,0 -0.26772834517996796,0.3224960387391946 l -2.558308453319444 -2.161309261277879" fill="#ff1e03" stroke="none" /><path d="M 115.80600337817218 113.82643327865902 l 3.722956443998508 3.2566871992059316 a25.94635382856724,25.94635382856724 0 0,0 -0.29695126317090914,0.33362789213124366 l -3.666346331179261 -3.3202892610780417" fill="#ff3505" stroke="none" /><path d="M 115.32070863581623 114.36230785411682 l 5.945604907800863 5.573672216776965 a29.149603652923076,29.149603652923076 0 0,0 -0.34631595910971963,0.3631108985735824 l -5.8487823973121795 -5.675190231933054" fill="#ff6209" stroke="none" /><path d="M 115.07121518719521 114.62390073753431 l 2.261725812008208 2.194597672417856 a24.151454044165337,24.151454044165337 0 0,0 -0.2920708653836279,0.29586624462145966 l -2.2236143215690447 -2.2332044110199805" fill="#ff1b02" stroke="none" /><path d="M 114.81725581225074 114.88116024355365 l 3.849181236139702 3.8657821331609967 a26.455315544468235,26.455315544468235 0 0,0 -0.3254634300393695,0.31853446726522255 l -3.7820678537245382 -3.9314667033487916" fill="#ff3c05" stroke="none" /><path d="M 114.29624159901734 115.38237550388516 l 3.603701403240341 3.8774868069053228 a26.29354018983905,26.29354018983905 0 0,0 -0.3341789391799601,0.30526453763472144 l -3.536422914593517 -3.9389441111266272" fill="#ff3a05" stroke="none" /><path d="M 114.0293411484842 115.62618273729858 l 3.832509096674784 4.268731286320584 a26.736740605161362,26.736740605161362 0 0,0 -0.345104666637235,0.30451474367579845 l -3.7584620771309614 -4.334069171768671" fill="#ff4006" stroke="none" /><path d="M 113.48314897796784 116.09983520530334 l 3.4203471939246346 4.084136892434452 a26.327189604578784,26.327189604578784 0 0,0 -0.34993833571931526,0.28797542661639514 l -3.3495387296606283 -4.142407437908025" fill="#ff3a05" stroke="none" /><path d="M 113.20401910651253 116.32954008644616 l 7.040209610581203 8.706696357040764 a32.19692425689425,32.19692425689425 0 0,0 -0.43395705564099457,0.3447617304152965 l -6.889295062222858 -8.826592001461186" fill="#ff8b0c" stroke="none" /><path d="M 112.63410532772338 116.77436683061366 l 2.832667044201856 3.7609466500303697 a25.708367263466386,25.708367263466386 0 0,0 -0.3557732339410808,0.2631925331328325 l -2.767508839842211 -3.809149131902971" fill="#ff3204" stroke="none" /><path d="M 112.34349029814194 116.9893568818739 l 3.887531364891696 5.350727885901554 a27.61386339607806,27.61386339607806 0 0,0 -0.3869526366657031,0.27608043203126015 l -3.7948514003771083 -5.416852579777033" fill="#ff4c07" stroke="none" /><path d="M 111.7513745106137 117.40417183066458 l 3.5168186142197198 5.208523939380704 a27.284642773652628,27.284642773652628 0 0,0 -0.39150253350206377,0.2594665312245185 l -3.4266413819776917 -5.268288491696541" fill="#ff4806" stroke="none" /><path d="M 111.1453310114006 117.79835938074945 l 5.871233049817973 9.375972388967382 a32.062560090862945,32.062560090862945 0 0,0 -0.4702826386383825,0.28888600724759206 l -5.708971211247282 -9.475646863043352" fill="#ff890c" stroke="none" /><line stroke="#e1ed5e" stroke-width="0.3" x1="143.8653032363475" x2="146.44561519142675" y1="172.8068346515853" y2="177.08958963109032" /><path d="M 144.38136562736335 173.6633856474863 a86.0,86.0 0 0,1 -40.68145358897372,12.25698825130547" fill="none" id="id126" stroke="none" /><text fill="#e1ed5e" style="font-size:6.75px; font-family:Arial;" text-anchor="middle"><textPath startOffset="21.466115282336833" xlink:href="#id126">June</textPath></text><path d="M 110.21172684928248 118.3499491758327 l 2.592971244398487 4.659436278639895 a26.33233966556736,26.33233966556736 0 0,0 -0.3979659009513055,0.21700274000778239 l -2.512382531578533 -4.703379670407448" fill="#ff3a05" stroke="none" /><path d="M 109.89434966115114 118.52300852407294 l 3.1516086184481367 5.900061681998889 a27.689048118773563,27.689048118773563 0 0,0 -0.4223359053726093,0.22094618486336107 l -3.0495818105490318 -5.9534372858069675" fill="#ff4e07" stroke="none" /><path d="M 108.92500713936063 119.00905698771935 l 4.759645897469362 10.137401426531662 a32.19915785905097,32.19915785905097 0 0,0 -0.5037358983826316,0.23124044426186147 l -4.584442003319311 -10.217828941127598" fill="#ff8b0c" stroke="none" /><path d="M 108.59647513512805 119.15986991738527 l 2.707637196564043 6.034796315253701 a27.614383248256548,27.614383248256548 0 0,0 -0.4353595893130954,0.1908488499158974 l -2.6033569325931936 -6.080509718464053" fill="#ff4d07" stroke="none" /><path d="M 107.93186726928326 119.44442032107085 l 2.1971923166164 5.386263975440577 a26.817172310438043,26.817172310438043 0 0,0 -0.4289201418680852,0.17067617635220173 l -2.1041510987064487 -5.423286996198848" fill="#ff4106" stroke="none" /><path d="M 107.59598834532513 119.57807347666477 l 1.6934497352688052 4.364735942036531 a25.681740258663172,25.681740258663172 0 0,0 -0.4135124363882734,0.1563550205893844 l -1.618067078120257 -4.393239212732546" fill="#ff3104" stroke="none" /><path d="M 107.2578585660854 119.70592522655815 l 2.0865815731645374 5.6653102406860265 a27.037347330135294,27.037347330135294 0 0,0 -0.43810859185261447,0.15709015388126077 l -1.988753420682188 -5.700387935607248" fill="#ff4406" stroke="none" /><path d="M 106.57524785965236 119.94407469862006 l 2.3416623353413337 7.102741909026959 a28.47879168843498,28.47879168843498 0 0,0 -0.46688762361570013,0.1494826732565427 l -2.2190533666346934 -7.141997428943208" fill="#ff5908" stroke="none" /><path d="M 105.88484417918355 120.15858648285463 l 1.3004364080128241 4.454656571725294 a25.640592637077795,25.640592637077795 0 0,0 -0.42474109570313806,0.1200360762698382 l -1.2235641442050804 -4.4763814413336505" fill="#ff3104" stroke="none" /><path d="M 105.53697534728816 120.25689768951611 l 1.678061160312207 6.139148381407094 a27.364356378038686,27.364356378038686 0 0,0 -0.4554335276398418,0.12028413402060081 l -1.572137189860868 -6.167123864731279" fill="#ff4906" stroke="none" /><path d="M 104.83641907484287 120.43548508189849 l 1.032772390691855 4.363808110169971 a25.484355029807585,25.484355029807585 0 0,0 -0.42774865017742103,0.09735420015033963 l -0.9575035911215717 -4.380939043897995" fill="#ff2e04" stroke="none" /><path d="M 104.13013068566511 120.58985236759428 l 1.8284420824382994 9.115293293446618 a30.296868950048946,30.296868950048946 0 0,0 -0.5122080787783019,0.09816589736336358 l -1.671266389088293 -9.145416389158449" fill="#ff720a" stroke="none" /><path d="M 103.7750983002368 120.6578951692458 l 1.8083526285461202 9.895572527791522 a31.059448040620914,31.059448040620914 0 0,0 -0.5267549697703601,0.09158310347753316 l -1.6377486873037101 -9.92523420979006" fill="#ff7c0b" stroke="none" /><path d="M 103.06178313531738 120.77559828337769 l 0.8049634315624439 5.46204487641382 a26.521041600831428,26.521041600831428 0 0,0 -0.4522107966286851,0.06267229585857251 l -0.7108240437469283 -5.475091737764996" fill="#ff3d05" stroke="none" /><path d="M 102.70371172650421 120.8252237178851 l 0.5465034697116393 4.209419557483883 a25.244747230794157,25.244747230794157 0 0,0 -0.43141178538722047,0.052237959208396266 l -0.47396426127303853 -4.2182030454176305" fill="#ff2b04" stroke="none" /><path d="M 101.98527174616119 120.90594882070398 l 5.955815238483573 62.71784646211194 a84.0,84.0 0 0,0 -1.4406227290338331,0.12430299088534635 l -4.8753481917081976 -62.81107370527595" fill="#4dd2ff" stroke="none" /><path d="M 101.62511606390274 120.93702456842531 l 1.0947689222814172 14.104348810329915 a35.14677257739899,35.14677257739899 0 0,0 -0.6035826204687605,0.04162659137664495 l -0.8518235410337264 -14.121103746222845" fill="#ffb210" stroke="none" /><path d="M 101.26447882468166 120.96189622390904 l 0.0970128667117573 1.6082306834262212 a22.61115406694121,22.61115406694121 0 0,0 -0.38870935262413586,0.020091833534226073 l -0.06931544567414184 -1.609662323722649" fill="#ff0500" stroke="none" /><line stroke="#e1ed5e" stroke-width="0.3" x1="102.19456741930631" x2="102.32365962044197" y1="184.97166512339345" y2="189.96999836594603" /><path d="M 102.22038585953345 185.97133177190398 a86.0,86.0 0 0,1 -42.740103519485714,-10.115201625700543" fill="none" id="id127" stroke="none" /><text fill="#e1ed5e" style="font-size:6.75px; font-family:Arial;" text-anchor="middle"><textPath startOffset="22.20632615414155" xlink:href="#id127">July</textPath></text><path d="M 100.54218724476979 120.99299961872073 l 0.12601599734306348 4.879225414642258 a25.8808524540778,25.8808524540778 0 0,0 -0.44544682556399934,0.007668771068105504 l -0.04200948188639622 -4.880671662989523" fill="#ff3404" stroke="none" /><path d="M 100.18074693466247 120.99922214144158 l 0.04636558061487549 5.386764256151407 a26.386963794050985,26.386963794050985 0 0,0 -0.4542250305546581,0.0 l 0.046365580614871775 -5.386764256151407" fill="#ff3b05" stroke="none" /><path d="M 99.81925306533755 120.99922214144158 l -0.05087562787128505 5.910742626145296 a26.910961573385695,26.910961573385695 0 0,0 -0.463176490303382,-0.007974003325240656 l 0.152611808067335 -5.908991145540896" fill="#ff4306" stroke="none" /><path d="M 99.45781275523022 120.99299961872073 l -0.08194310531241977 3.172762906495254 a24.173820904421113,24.173820904421113 0 0,0 -0.41588140547759156,-0.014323796491677131 l 0.13654486246465436 -3.170882311577483" fill="#ff1c02" stroke="none" /><path d="M 99.09653310690486 120.98055641714683 l -0.23752223118169663 5.515806511251343 a26.52091824607721,26.52091824607721 0 0,0 -0.45592228206972757,-0.023565974253126017 l 0.33243258166491313 -5.510900730236014" fill="#ff3d05" stroke="none" /><path d="M 98.73552117531835 120.96189622390904 l -0.33965008089242965 5.630548815162573 a26.640783822961033,26.640783822961033 0 0,0 -0.45750755850466707,-0.03155239986003859 l 0.4365204001760268 -5.62386807078625" fill="#ff3f05" stroke="none" /><path d="M 98.01472825383883 120.90594882070398 l -0.6358914050643952 6.6962687579207145 a27.726393770612884,27.726393770612884 0 0,0 -0.4747384482661965,-0.049208581251190646 l 0.7510624499361851 -6.684330808213764" fill="#ff4e07" stroke="none" /><path d="M 97.65516085044442 120.86867818915974 l -0.6092246460818367 5.421997959389332 a26.456117350370647,26.456117350370647 0 0,0 -0.4521130956943983,-0.054744599592404186 l 0.7024651648276242 -5.410707831071578" fill="#ff3c05" stroke="none" /><path d="M 97.2962882734958 120.8252237178851 l -0.7547153899186893 5.813162950885031 a26.86195008621896,26.86195008621896 0 0,0 -0.45802363384959277,-0.06347790213069406 l 0.8546676149551131 -5.799310483261732" fill="#ff4206" stroke="none" /><path d="M 96.93821686468263 120.77559828337769 l -0.47560882377647756 3.227223296396422 a24.262081231063664,24.262081231063664 0 0,0 -0.412645013807279,-0.0644466646833689 l 0.5310897011922737 -3.2185583243659472" fill="#ff1d02" stroke="none" /><path d="M 96.58105272829116 120.7198165907248 l -0.9198768672890287 5.574721825631676 a26.65010591795832,26.65010591795832 0 0,0 -0.4519744110980793,-0.07858154480979641 l 1.015700249859158 -5.558061702300873" fill="#ff3f05" stroke="none" /><path d="M 96.22490169976321 120.6578951692458 l -1.267339696902012 6.935069902890562 a28.049918046709635,28.049918046709635 0 0,0 -0.47422044358056104,-0.09088547666638037 l 1.3865277550542683 -6.9122272278757135" fill="#ff5307" stroke="none" /><path d="M 95.51606077576429 120.51570834832081 l -1.2085981473093719 5.529791074442204 a26.660326740450618,26.660326740450618 0 0,0 -0.44748704698150016,-0.10184659500024248 l 1.3036053436837347 -5.508167745864275" fill="#ff3f05" stroke="none" /><path d="M 95.16358092515715 120.4354850818985 l -1.1315596414611577 4.781217221774618 a25.913294754436976,25.913294754436976 0 0,0 -0.4331798573821949,-0.10646506973097479 l 1.2136927835865632 -4.761030893729614" fill="#ff3505" stroke="none" /><path d="M 94.81253420990036 120.34920634021253 l -1.6760118808005642 6.574599808667514 a27.78486392411193,27.78486392411193 0 0,0 -0.4624321660313994,-0.12213253802944592 l 1.788934489643453 -6.5447759213344865" fill="#ff4f07" stroke="none" /><path d="M 94.46302465271185 120.25689768951611 l -0.7441011724424637 2.722277123411499 a23.822140905674242,23.822140905674242 0 0,0 -0.39461811095734256,-0.11152301989031449 l 0.7908504515044201 -2.709065310182663" fill="#ff1702" stroke="none" /><path d="M 94.11515582081647 120.15858648285463 l -1.558094808818919 5.337267733131503 a26.56004373079881,26.56004373079881 0 0,0 -0.4377664673900441,-0.13189544557153055 l 1.6497362506492088 -5.309656918454246" fill="#ff3e05" stroke="none" /><path d="M 93.76903079525671 120.05430185196036 l -2.758330263663898 8.877653844413791 a30.296296231547224,30.296296231547224 0 0,0 -0.49668419596778524,-0.15902259477893857 l 2.910735804722624 -8.828858402975147" fill="#ff720a" stroke="none" /><path d="M 93.08242187328487 119.8279376855182 l -1.9472514899912348 5.581430450705 a26.911358070809964,26.911358070809964 0 0,0 -0.4360670832564746,-0.15635814153208102 l 2.043038133877436 -5.547084768132961" fill="#ff4306" stroke="none" /><path d="M 92.7421414339146 119.70592522655815 l -1.4190063528220682 3.852766326335939 a25.105774883587447,25.105774883587447 0 0,0 -0.4042385770966408,-0.15284844053788532 l 1.485115150678992 -3.8277696356914204" fill="#ff2904" stroke="none" /><path d="M 92.40401165467489 119.57807347666478 l -1.7503757498270511 4.511458349324188 a25.839118897409893,25.839118897409893 0 0,0 -0.4132769262518345,-0.16445141801931762 l 1.8277737521207438 -4.480660086898804" fill="#ff3304" stroke="none" /><path d="M 92.06813273071674 119.44442032107085 l -1.5125018327098545 3.7077929285947224 a25.004421330890107,25.004421330890107 0 0,0 -0.39712800726677616,-0.16599953924554806 l 1.5761012994740928 -3.681208346329201" fill="#ff2803" stroke="none" /><path d="M 91.40352486487194 119.15986991738527 l -0.541760802986991 1.2074793852601913 a22.32344672483687,22.32344672483687 0 0,0 -0.34923650923285204,-0.16031735241970765 l 0.5624653079872626 -1.1979749625064091" fill="#ff0100" stroke="none" /><path d="M 90.7491055286396 118.85261126421891 l -2.1180019022056578 4.316324939472321 a25.80797182197,25.80797182197 0 0,0 -0.3971307259477635,-0.19912959028884245 l 2.191986535836182 -4.279227508274176" fill="#ff3304" stroke="none" /><path d="M 90.10565033884886 118.52300852407294 l -2.990986344311104 5.599364025772128 a27.348139633386033,27.348139633386033 0 0,0 -0.4133178884508498,-0.22537386764460493 l 3.0869270446305945 -5.547049506367758" fill="#ff4906" stroke="none" /><line stroke="#e1ed5e" stroke-width="0.3" x1="58.666819895761336" x2="56.23545636021788" y1="174.27360380694188" y2="178.64263932499728" /><path d="M 58.180547188652646 175.14741091055294 a86.0,86.0 0 0,1 -31.652253787137756,-30.449443065178592" fill="none" id="id128" stroke="none" /><text fill="#e1ed5e" style="font-size:6.75px; font-family:Arial;" text-anchor="middle"><textPath startOffset="22.20632615414155" xlink:href="#id128">August</textPath></text><path d="M 89.7882731507175 118.34994917583269 l -2.5709999437003157 4.619954978651271 a26.287156581308302,26.287156581308302 0 0,0 -0.3934952421652175,-0.22343686809639557 l 2.6501439527867405 -4.575014944760242" fill="#ff3a05" stroke="none" /><path d="M 89.4739219176387 118.17145234162733 l -2.138891336926863 3.6924257723316427 a25.267184579480915,25.267184579480915 0 0,0 -0.3744742690376514,-0.22124599879010987 l 2.2021334769928966 -3.6550612012477837" fill="#ff2b04" stroke="none" /><path d="M 89.1626897886671 117.98757091392108 l -2.6667559536294596 4.426233160315837 a26.167506875244356,26.167506875244356 0 0,0 -0.3838160192137895,-0.23577114738780672 l 2.742551172775558 -4.379673546099652" fill="#ff3805" stroke="none" /><path d="M 88.54995079064634 117.60387380957326 l -3.121081080466034 4.798504922152385 a26.72422890866217,26.72422890866217 0 0,0 -0.3834612536592786,-0.2541372094223062 l 3.203217032865274 -4.744069691638761" fill="#ff4006" stroke="none" /><path d="M 88.24862548938628 117.40417183066458 l -4.257858803355015 6.306028811980094 a28.608900115445785,28.608900115445785 0 0,0 -0.40576018751890125,-0.2790855568944234 l 4.365775875496807 -6.23180246572057" fill="#ff5a08" stroke="none" /><path d="M 87.65650970185807 116.9893568818739 l -4.143591854869113 5.703164914853464 a28.04949952165068,28.04949952165068 0 0,0 -0.38817172062995137,-0.2871601590468366 l 4.241148545917629 -5.630994807066861" fill="#ff5307" stroke="none" /><path d="M 87.36589467227662 116.77436683061367 l -3.6275592047518854 4.816329072922358 a27.029611224835087,27.029611224835087 0 0,0 -0.3692389971616745,-0.28311671786500575 l 3.709926930407047 -4.753173013229985" fill="#ff4406" stroke="none" /><path d="M 87.07902340077011 116.55440617244103 l -3.292115027650419 4.217870755788709 a26.350556519449107,26.350556519449107 0 0,0 -0.3551584564551353,-0.28215935753881466 l 3.3642309768229124 -4.160577484244764" fill="#ff3b05" stroke="none" /><path d="M 86.51685102203217 116.09983520530335 l -3.6486313246954705 4.356724319259008 a26.682742061502694,26.682742061502694 0 0,0 -0.3495877867004224,-0.29792629597116876 l 3.7230845879729495 -4.293273633064888" fill="#ff3f05" stroke="none" /><path d="M 86.24171649860922 115.8653595955263 l -5.008995850693428 5.7761217360957176 a28.645496827705927,28.645496827705927 0 0,0 -0.36974195094951307,-0.32625428255345573 l 5.107680154549529 -5.689044311769973" fill="#ff5b08" stroke="none" /><path d="M 85.70375840098266 115.38237550388516 l -6.329720989016287 6.810611335399117 a30.29783816597494,30.29783816597494 0 0,0 -0.37895982769656517,-0.3583301705669223 l 6.446016651103668 -6.7006465280862635" fill="#ff720a" stroke="none" /><path d="M 85.44109423537348 115.13401014063109 l -3.250142452409528 3.378529240347975 a25.688057784289875,25.688057784289875 0 0,0 -0.3160243310449828,-0.3092963222322275 l 3.307816735830305 -3.3220828151931783" fill="#ff3104" stroke="none" /><path d="M 85.18274418774928 114.88116024355367 l -3.552465569833628 3.5677867801063003 a26.034790376287244,26.034790376287244 0 0,0 -0.3148466233701013,-0.31893796721526674 l 3.6133528182592625 -3.506108318910369" fill="#ff3605" stroke="none" /><path d="M 84.67929136418377 114.36230785411682 l -3.3120764935218814 3.1048865536898003 a25.539842641570733,25.539842641570733 0 0,0 -0.2979083902036477,-0.32332071994441447 l 3.3650312917212584 -3.047414578944042" fill="#ff2f04" stroke="none" /><path d="M 83.95833913139862 113.55231037782056 l -3.3675327870453153 2.8449578825627064 a25.408408150952095,25.408408150952095 0 0,0 -0.27937633706631015,-0.3365267953260134 l 3.416005124005162 -2.7865698301229322" fill="#ff2d04" stroke="none" /><path d="M 83.50135304334701 112.99209946851258 l -3.998933879510223 3.1490186357161454 a26.08996960116485,26.08996960116485 0 0,0 -0.274805876893595,-0.3552236400899674 l 4.052546573621886 -3.0797170015129254" fill="#ff3705" stroke="none" /><path d="M 83.06392112726016 112.41649034213515 l -4.2657160518488615 3.1273603859583226 a26.289302072926297,26.289302072926297 0 0,0 -0.2644205639116126,-0.36725703639715745 l 4.318916408136082 -3.0534697441100267" fill="#ff3a05" stroke="none" /><path d="M 82.85270091963577 112.12312394758628 l -4.809768913293122 3.4005019928690334 a26.89044062891624,26.89044062891624 0 0,0 -0.26396052558358535,-0.38025482420943063 l 4.867590346038842 -3.31720590647259" fill="#ff4206" stroke="none" /><path d="M 82.44556493220864 111.52570212397912 l -5.522819353398631 3.6261133158657857 a27.606832175087668,27.606832175087668 0 0,0 -0.25739445130706007,-0.39948190440965353 l 5.584418668082737 -3.530509811534684" fill="#ff4c07" stroke="none" /><path d="M 82.05923443525364 110.91462005526583 l -9.420063693729881 5.73088231616493 a32.02635987602707,32.02635987602707 0 0,0 -0.28247115861004846,-0.4734379095411291 l 9.517315728038161 -5.56788231273769" fill="#ff890c" stroke="none" /><line stroke="#e1ed5e" stroke-width="0.3" x1="26.63291911575756" x2="22.317208475507996" y1="142.92168965132927" y2="145.44649492493687" /><path d="M 25.769776987707644 143.4266507060508 a86.0,86.0 0 0,1 -11.730757126820373,-40.83630448921669" fill="none" id="id129" stroke="none" /><text fill="#e1ed5e" style="font-size:6.75px; font-family:Arial;" text-anchor="middle"><textPath startOffset="21.46611528233685" xlink:href="#id129">September</textPath></text><path d="M 81.69416730710424 110.29060199501025 l -4.965326030031445 2.791252100230744 a26.696099619173665,26.696099619173665 0 0,0 -0.2217347404388701,-0.4025129611056688 l 5.012637179921832 -2.705368620727253" fill="#ff4006" stroke="none" /><path d="M 81.51974371655577 109.97397251340807 l -8.013805515614363 4.325128110487377 a30.106470886914387,30.106470886914387 0 0,0 -0.24221013059736549,-0.45817028781926267 l 8.087068154436615 -4.186542807581987" fill="#ff6f0a" stroke="none" /><path d="M 81.18737489456691 109.33194174019688 l -4.91475198341453 2.4379468000718245 a26.48619828829195,26.48619828829195 0 0,0 -0.19908381640303283,-0.41017162846885297 l 4.955989056432282 -2.352986215637687" fill="#ff3d05" stroke="none" /><path d="M 81.02952815118164 109.00673069616217 l -4.776951668879801 2.2679835047362156 a26.288006848007015,26.288006848007015 0 0,0 -0.19055723404548228,-0.4104433293665844 l 4.81528351976511 -2.185420108090804" fill="#ff3a05" stroke="none" /><path d="M 80.87730276802145 108.67885076344099 l -8.808563074088807 3.9977730878116313 a30.673312415704963,30.673312415704963 0 0,0 -0.21406892358782306,-0.48266891014518815 l 8.87607308240791 -3.845555841173747" fill="#ff770a" stroke="none" /><path d="M 80.58989483394504 108.01547362559985 l -4.595046706267269 1.8975412738565098 a25.971430087888862,25.971430087888862 0 0,0 -0.1670796337557527,-0.41467794888073906 l 4.627028954280409 -1.8181639571329655" fill="#ff3505" stroke="none" /><path d="M 80.45479744820244 107.68017299344265 l -9.66285254394559 3.796961374585717 a31.382082400276527,31.382082400276527 0 0,0 -0.19323251298207694,-0.5044691162872992 l 9.726779336521176 -3.6300686914652602" fill="#ff800b" stroke="none" /><path d="M 80.32549172779594 107.34259656027581 l -5.5641450217163335 2.076558739465425 a26.939007157862406,26.939007157862406 0 0,0 -0.15839589602869572,-0.4358374775405586 l 5.599065178750254 -1.980473464918749" fill="#ff4306" stroke="none" /><path d="M 80.20201598880116 107.00284435728193 l -6.1876543827679775 2.188666308381046 a27.56333200211829,27.56333200211829 0 0,0 -0.1543666939621453,-0.4486618701017321 l 6.2244119076733515 -2.081831735190017" fill="#ff4c07" stroke="none" /><path d="M 79.97269907076064 106.31721596034903 l -9.22698943133005 2.910471316505246 a30.675131898329667,30.675131898329667 0 0,0 -0.15450512879459433,-0.5049317005076602 l 9.275721332630775 -2.751212643445538" fill="#ff770a" stroke="none" /><path d="M 79.76711848015287 105.62410040840567 l -6.791942725272944 1.8879450175006078 a28.049455466381318,28.049455466381318 0 0,0 -0.1253034940412833,-0.46630091537155527 l 6.823434295656003 -1.7707531689535136" fill="#ff5307" stroke="none" /><path d="M 79.67330655649465 105.27499134158121 l -3.211984857535044 0.8335439484969897 a24.3183794597831,24.3183794597831 0 0,0 -0.10166088434516204,-0.4060846984531536 l 3.225857056175265 -0.7781314106464442" fill="#ff1e03" stroke="none" /><path d="M 79.4281124754447 104.21870165774334 l -2.8011490256714544 0.5744349916399694 a23.859442502244196,23.859442502244196 0 0,0 -0.0790430006687791,-0.40303855749916834 l 2.8106219593159 -0.5261327070728462" fill="#ff1702" stroke="none" /><path d="M 79.35854240842038 103.8639653848113 l -9.139191606465856 1.710805540542235 a30.297939493094475,30.297939493094475 0 0,0 -0.09154819288708771,-0.5134508836672365 l 9.167286241692132 -1.553235906141785" fill="#ff720a" stroke="none" /><path d="M 79.23777060512086 103.15116336523772 l -4.730388093307584 0.7179491845256317 a25.78456085183031,25.78456085183031 0 0,0 -0.06282340595734039,-0.4393867549440179 l 4.7420455502815235 -0.6364169576012133" fill="#ff3304" stroke="none" /><path d="M 79.18660465613746 102.79330883721812 l -7.639968097293176 1.0253392130240073 a28.708465024206973,28.708465024206973 0 0,0 -0.06151607609185531,-0.4903436526592353 l 7.65648568263188 -0.8936778060773635" fill="#ff5c08" stroke="none" /><path d="M 79.1416061653843 102.43462659150553 l -8.874315716504379 1.0358249631360026 a29.93456282033163,29.93456282033163 0 0,0 -0.05533289686940263,-0.5123139038284876 l 8.890830914874833 -0.882914737422733" fill="#ff6d0a" stroke="none" /><path d="M 79.10278846688536 102.07522291339032 l -5.567900752490391 0.552927131102695 a26.595287946289496,26.595287946289496 0 0,0 -0.041318190779767935,-0.45594279226543805 l 5.576593539547234 -0.4570029502886908" fill="#ff3e05" stroke="none" /><path d="M 79.07016306316243 101.71520430193888 l -9.136252027340904 0.7487176717230891 a30.166879472265425,30.166879472265425 0 0,0 -0.0379577509531177,-0.5179033541817195 l 9.147786336958356 -0.591341181044609" fill="#ff700a" stroke="none" /><path d="M 79.04373962182676 101.35467743843564 l -4.488291819473948 0.2901370547623737 a25.49765972115532,25.49765972115532 0 0,0 -0.024542892704407224,-0.43822983621998257 l 4.4926210630658865 -0.21283550220695355" fill="#ff2f04" stroke="none" /><path d="M 79.0095281055655 100.63252640178507 l -4.736756242845381 0.1427373046917724 a25.738906376189064,25.738906376189064 0 0,0 -0.009533123826212403,-0.4429668045132913 l 4.738511429356601 -0.06118068438835226" fill="#ff3204" stroke="none" /><line stroke="#e1ed5e" stroke-width="0.3" x1="15.007084014347285" x2="10.007500721073583" y1="101.09737516637583" y2="101.16192664675087" /><path d="M 14.007167355692545 101.11028546245083 a86.0,86.0 0 0,1 10.666146001902534,-42.60595125391555" fill="none" id="id130" stroke="none" /><text fill="#e1ed5e" style="font-size:6.75px; font-family:Arial;" text-anchor="middle"><textPath startOffset="22.20632615414155" xlink:href="#id130">October</textPath></text><path d="M 79.00175016825051 100.2711162175752 l -8.766911103177565 0.11319285164984311 a29.767641810240807,29.767641810240807 0 0,0 -0.0022052190975854788,-0.5124152557442876 l 8.767560619564653 0.037731882298119815" fill="#ff6a09" stroke="none" /><path d="M 79.00019446554 99.90962569577889 l -9.296139657613422 -0.040006663496028404 a30.29622574311624,30.29622574311624 0 0,0 0.0067329652334860175,-0.5214755773214977 l 9.29407368526222 0.20001849887799816" fill="#ff720a" stroke="none" /><path d="M 79.01574976396665 99.18683210126434 l -4.85621967998362 -0.18818503918667875 a25.859864523753096,25.859864523753096 0 0,0 0.02106518921771268,-0.4446528506552815 l 4.852260882532408 0.27174899646496936" fill="#ff3404" stroke="none" /><path d="M 79.05617556472873 98.46500227214037 l -10.036673257848488 -0.7355996844645736 a31.06359364146801,31.06359364146801 0 0,0 0.043674696985034824,-0.5329419271682796 l 10.022524077043956 0.9082555288406317" fill="#ff7c0b" stroke="none" /><path d="M 79.16333360222342 97.38593545837743 l -6.994018672674006 -0.8774348001095859 a28.04884309813717,28.04884309813717 0 0,0 0.06422383799797608,-0.47854219087470573 l 6.9778788356181956 0.997695333048951" fill="#ff5307" stroke="none" /><path d="M 79.26566170972629 96.67025291283419 l -2.857771530630458 -0.4589322454705899 a23.89438714190321,23.89438714190321 0 0,0 0.06871131236260254,-0.40553805508846896 l 2.849448356747632 0.5080560888748868" fill="#ff1802" stroke="none" /><path d="M 79.32604984820605 96.31383870115002 l -18.49072481586514 -3.2968926452602787 a39.78234291376936,39.78234291376936 0 0,0 0.12600446381328645,-0.6731208841506537 l 18.43123462814199 3.614691606873505" fill="#ffed16" stroke="none" /><path d="M 79.54389044137918 95.25157060432595 l -6.122109414829756 -1.4211110976700505 a27.284885077634126,27.284885077634126 0 0,0 0.11013634777316793,-0.45658626517889417 l 6.0967402667957735 1.5262825945083414" fill="#ff4806" stroke="none" /><path d="M 79.81627453868168 94.20196356495316 l -10.783512417863239 -3.097703544193343 a32.21962153167025,32.21962153167025 0 0,0 0.1577136709880178,-0.5317320949059698 l 10.728592849763514 3.282865025845852" fill="#ff8c0c" stroke="none" /><path d="M 79.91906864156998 93.8553929516997 l -5.260956338966716 -1.6098112594585565 a26.50174098732334,26.50174098732334 0 0,0 0.1372342382365162,-0.4350700378471425 l 5.232466616961996 1.7001314637321134" fill="#ff3d05" stroke="none" /><path d="M 80.14247586403 93.16781622104843 l -7.167699634282789 -2.466120188923131 a28.58008356375521,28.58008356375521 0 0,0 0.16405909637185187,-0.4638171578787417 l 7.124187457101127 2.5891349732284836" fill="#ff5a08" stroke="none" /><path d="M 80.38941819471856 92.48833698450439 l -7.074660000655991 -2.709887060047434 a28.575902718692628,28.575902718692628 0 0,0 0.17990088844592783,-0.45782813836695213 l 7.026965562328373 2.8312642033101496" fill="#ff5a08" stroke="none" /><path d="M 80.65960295795068 91.81776055985345 l -8.561845066373204 -3.622214488678347 a30.296538535528722,30.296538535528722 0 0,0 0.20732828796022387,-0.4785422737285684 l 8.498226068570299 3.769055906993515" fill="#ff720a" stroke="none" /><path d="M 80.803312248108 91.48605970444005 l -3.366276925848548 -1.4929805149417443 a24.682500666598184,24.682500666598184 0 0,0 0.17559563862572844,-0.3869017136278588 l 3.340078970259468 1.550704237411674" fill="#ff2303" stroke="none" /><path d="M 81.10775173730289 90.83032412892265 l -3.7922621846437323 -1.84063932295384 a25.215353555074927,25.215353555074927 0 0,0 0.19288543183154064,-0.38884526054379226 l 3.760016739858779 1.905644171996594" fill="#ff2b04" stroke="none" /><path d="M 81.43458229118936 90.18545643968196 l -4.304175578102024 -2.2753874631375406 a25.868605089194787,25.868605089194787 0 0,0 0.2114966656347889,-0.3918712006445351 l 4.264370813248763 2.3491396471145483" fill="#ff3404" stroke="none" /><path d="M 81.6062741919709 89.86733742301443 l -2.5684438153554874 -1.4148941220805977 a23.932376000675234,23.932376000675234 0 0,0 0.2018779778207636,-0.359118396393037 l 2.543708196242293 1.4588960284084194" fill="#ff1802" stroke="none" /><line stroke="#e1ed5e" stroke-width="0.3" x1="26.266209847984243" x2="21.928928074336255" y1="57.711370442889674" y2="55.22380399835377" /><path d="M 25.398753493254645 57.213857153982495 a86.0,86.0 0 0,1 29.58750427330803,-30.492523968695096" fill="none" id="id131" stroke="none" /><text fill="#e1ed5e" style="font-size:6.75px; font-family:Arial;" text-anchor="middle"><textPath startOffset="21.46611528233685" xlink:href="#id131">November</textPath></text><path d="M 81.96595687620814 89.24020034530311 l -16.499591511054593 -9.844287153171496 a40.21318582603526,40.21318582603526 0 0,0 0.3597820151091738,-0.5913870345281991 l 16.327693697659203 10.12684196090677" fill="#fff216" stroke="none" /><path d="M 82.95767976084542 87.72973835380427 l -3.110019692718158 -2.239176052260716 a24.832248932691172,24.832248932691172 0 0,0 0.25274190534688223,-0.34473967485608425 l 3.071015174857642 2.2923781707883006" fill="#ff2503" stroke="none" /><path d="M 83.17141714833178 87.43820079747576 l -4.182030614464744 -3.1217024808780898 a26.21865944850215,26.21865944850215 0 0,0 0.273078649355139,-0.35933949263188986 l 4.1276760248854965 3.1932267493910063" fill="#ff3905" stroke="none" /><path d="M 83.84228863543731 86.58626213691792 l -4.944292428622557 -4.10463097523957 a27.42604256620126,27.42604256620126 0 0,0 0.304676411654529,-0.36064077151178064 l 4.872905403480904 4.189130696380467" fill="#ff4a06" stroke="none" /><path d="M 84.5562425177563 85.77008943001954 l -3.824600927714479 -3.523995324959904 a26.200587977009302,26.200587977009302 0 0,0 0.30845912054784214,-0.3290426831102196 l 3.763374485196181 3.589307424948174" fill="#ff3905" stroke="none" /><path d="M 84.80347519578584 85.50635884689758 l -8.093488838705555 -7.719141344230769 a32.18435088301794,32.18435088301794 0 0,0 0.38580720317970063,-0.3976082362872785 l 7.959417371822736 7.857313776068171" fill="#ff8b0c" stroke="none" /><path d="M 85.31137513191541 84.99185889309783 l -2.791823145607344 -2.8525526447224423 a24.99140740432017,24.99140740432017 0 0,0 0.31003239973970725,-0.2982509229112468 l 2.7423075022552093 2.9001866543960024" fill="#ff2703" stroke="none" /><path d="M 85.57189188830299 84.74124197986013 l -4.640075098699994 -4.907211851908712 a27.75359349391782,27.75359349391782 0 0,0 0.34994917874056247,-0.3252396228000798 l 4.554918036164576 4.9863560607834385" fill="#ff4e07" stroke="none" /><path d="M 86.10567301691215 84.25364557470407 l -3.668532928367864 -4.157525570059054 a26.544650819683252,26.544650819683252 0 0,0 0.3452147024576906,-0.29936678816914114 l 3.5964244272633996 4.220057351647876" fill="#ff3d05" stroke="none" /><path d="M 86.93701828274178 83.55741782278169 l -3.8757382817410693 -4.878453217975875 a27.230622202359278,27.230622202359278 0 0,0 0.36951623002025413,-0.28841327870012623 l 3.7911894965613895 4.944444885899223" fill="#ff4706" stroke="none" /><line stroke="#e1ed5e" stroke-width="0.3" x1="56.762969772571076" x2="54.21961505331055" y1="26.818313649435495" y2="22.513508569990535" /><path d="M 56.25429882871897 25.957352633546506 a86.0,86.0 0 0,1 42.265352541879196,-11.944610805530505" fill="none" id="id132" stroke="none" /><text fill="#e1ed5e" style="font-size:6.75px; font-family:Arial;" text-anchor="middle"><textPath startOffset="22.20632615414155" xlink:href="#id132">December</textPath></text></svg>