<?xml version="1.0" encoding="utf-8" ?>
<svg baseProfile="full" height="200mm" version="1.1" viewBox="0,0,200,200" width="200mm" xmlns="http://www.w3.org/2000/svg" xmlns:ev="http://www.w3.org/2001/xml-events" xmlns:xlink="http://www.w3.org/1999/xlink"><defs /><rect fill="#1a1a1a" height="200" width="200" x="0" y="0" /><text alignment-baseline="middle" fill="#e1ed5e" style="dominant-baseline: central; font-size:9.0px; font-family:Arial;" text-anchor="middle" x="100.0" y="100.0">2026</text><line stroke="#e1ed5e" stroke-width="0.3" x1="100.0" x2="100.0" y1="15.0" y2="10.0" /><path d="M 100.0 14.0 a86.0,86.0 0 0,1 42.46469731375804,11.215312516191453" fill="none" id="id133" stroke="none" /><text fill="#e1ed5e" style="font-size:6.75px; font-family:Arial;" text-anchor="middle"><textPath startOffset="22.20632615414155" xlink:href="#id133">January</textPath></text><path d="M 100.0 79.0 l 0.0 -29.838821793328414 a50.838821793328414,50.838821793328414 0 0,0 0.8751067460715721,0.007532320044497851 l -0.5136262667990438 29.834400849892475" fill="#ffdf14" stroke="none" /><path d="M 100.36148047927253 79.00311137660856 l 0.4743571491634202 -27.55342210660489 a48.557505048347636,48.557505048347636 0 0,0 0.8355899517077895,0.021580823222126167 l -0.9485737360660774 27.541174491240405" fill="#ffb711" stroke="none" /><path d="M 100.72285384407766 79.0124445844662 l 1.2380715987324127 -35.94654230545035 a56.96785683080269,56.96785683080269 0 0,0 0.9797363692179254,0.04218950898872203 l -1.8566488003396695 35.919905069937435" fill="#bbff1f" stroke="none" /><path d="M 101.08401301168833 79.027996857942 l 1.9234090430610336 -37.21149106108378 a58.26116704205662,58.26116704205662 0 0,0 1.0010876260794686,0.06038833945683583 l -2.563658717980114 37.17286945224664" fill="#a7ff21" stroke="none" /><path d="M 101.80526077348638 79.07773832637324 l 2.00934809428999 -23.287553377094255 a44.37408013281038,44.37408013281038 0 0,0 0.7604341165848788,0.072212382198983 l -2.4099073379651132 23.249515450380095" fill="#ff6b09" stroke="none" /><path d="M 102.16513564639614 79.11191278185805 l 2.8042488844318414 -27.053914786765574 a48.198862422818536,48.198862422818536 0 0,0 0.8245064873919206,0.09264291073803604 l -3.2695220753334873 27.001635922556936" fill="#ffb110" stroke="none" /><path d="M 102.52436894288641 79.15227682838746 l 3.753747082768007 -31.00065077980047 a52.22708705487165,52.22708705487165 0 0,0 0.8915543562909534,0.11574934322792076 l -4.286816167566807 30.931443113408413" fill="#fff717" stroke="none" /><path d="M 102.88285421437855 79.19881850522331 l 3.365468650314935 -24.283477069711203 a45.51557949205856,45.51557949205856 0 0,0 0.7751325285774033,0.11423438551625568 l -3.7829701593209943 24.221948200033978" fill="#ff800b" stroke="none" /><path d="M 103.2404852339499 79.25152402106235 l 2.7531336079894917 -17.62801630252977 a38.84171245776864,38.84171245776864 0 0,0 0.659700210344661,0.10885618723639144 l -3.056163024473028 17.578013852353752" fill="#ff0000" stroke="none" /><path d="M 103.59715602781102 79.31037775812273 l 4.047298176751626 -23.278687310148772 a44.627905226981476,44.627905226981476 0 0,0 0.7557095635081889,0.13810109235715481 l -4.447402861362716 23.20557073644088" fill="#ff700a" stroke="none" /><path d="M 104.307194497241 79.44645832069477 l 5.40355768822242 -25.78528743769319 a47.345388285891815,47.345388285891815 0 0,0 0.796208016711382,0.1740202334800351 l -5.84660842908733 25.688453706117283" fill="#ffa20e" stroke="none" /><path d="M 104.66035177308747 79.52364482259891 l 6.335083686108098 -27.834685009060987 a49.54650547551552,49.54650547551552 0 0,0 0.8299660485746662,0.1964261485700715 l -6.813273421645287 27.721512948350046" fill="#ffc912" stroke="none" /><path d="M 105.01212808612495 79.60689891045804 l 8.57407999184197 -34.88579641599633 a56.92399809716128,56.92399809716128 0 0,0 0.9495224073307688,0.2420544036269319 l -9.173311287857764 34.733039016200536" fill="#bbff1f" stroke="none" /><path d="M 105.36241919743992 79.69619591428918 l 10.840971910322835 -41.047326152900034 a63.45479544483709,63.45479544483709 0 0,0 1.0536581481186833,0.28800457404797 l -11.54592794766523 40.85463503802577" fill="#5aff2a" stroke="none" /><path d="M 105.71112130821622 79.79150937346287 l 6.835108117175048 -24.185656522228864 a46.132940225622306,46.132940225622306 0 0,0 0.7623134068319689,0.22254018746424303 l -7.250411741730445 24.064418005845916" fill="#ff8c0c" stroke="none" /><path d="M 106.0581310904928 79.89281104454417 l 8.388450699459044 -27.84161662038722 a50.07785619975924,50.07785619975924 0 0,0 0.8232194506402921,0.2557782905408908 l -8.866455522810055 27.69309819496381" fill="#ffd213" stroke="none" /><path d="M 106.74666289553966 80.11325718540242 l 11.454438991112257 -33.763578502246695 a56.653659081200736,56.653659081200736 0 0,0 0.9208053990513311,0.3212509232410478 l -12.033926394226862 33.561406725833436" fill="#bfff1e" stroke="none" /><path d="M 107.08798089147638 80.2323363322302 l 12.539467320956334 -34.97130937129603 a58.151456496835074,58.151456496835074 0 0,0 0.9393334202758854,0.34596442604844013 l -13.139583067004795 34.750281677441265" fill="#a8ff21" stroke="none" /><path d="M 107.4271985657038 80.35727306442388 l 13.296773980690034 -35.16600480197581 a58.59590525610656,58.59590525610656 0 0,0 0.9403717396853528,0.36484962544639 l -13.900128885375054 34.93191247263887" fill="#a1ff22" stroke="none" /><path d="M 107.76421540070413 80.48803036053334 l 20.267612408470576 -50.9338056157859 a75.81814177119335,75.81814177119335 0 0,0 1.2084550013644229,0.49295913755459475 l -21.14135127942339 50.577385592047726" fill="#3fffbe" stroke="none" /><path d="M 108.09893153111575 80.62456947434976 l 10.576449835707155 -25.302506659361477 a48.424042998330165,48.424042998330165 0 0,0 0.7662902858002513,0.328085509321549 l -11.01042387929772 25.116701622077137" fill="#ffb510" stroke="none" /><path d="M 108.43124777332544 80.76684994638697 l 11.598470342634501 -26.458138402482877 a49.8887106325968,49.8887106325968 0 0,0 0.7835328025365187,0.351548329065147 l -12.0521852636378 26.2545697429012" fill="#ffcf13" stroke="none" /><path d="M 109.08828744355905 81.06846463323043 l 10.871055645812385 -22.645165627840413 a46.11938249970875,46.11938249970875 0 0,0 0.7127173699472259,0.3497273181355501 l -11.259244282770043 22.45468314957003" fill="#ff8c0c" stroke="none" /><path d="M 109.41281617654863 81.2277094730956 l 15.707106973122913 -31.325202777384348 a56.042567521649644,56.042567521649644 0 0,0 0.8586242070804667,0.4398206680117501 l -16.243991667792134 31.050189584060096" fill="#c9ff1d" stroke="none" /><path d="M 109.73455568895987 81.39251694778311 l 15.710313014773256 -30.03006942565975 a54.89128213467438,54.89128213467438 0 0,0 0.8334455814787116,0.44519776557758345 l -16.22490364278028 29.755192933580414" fill="#dbff1b" stroke="none" /><path d="M 110.05341064243156 81.56283822128135 l 24.732930830133004 -45.35824340571543 a72.66321817599317,72.66321817599317 0 0,0 1.092979058680919,0.6082416628126127 l -25.51003397788596 44.92578634534263" fill="#3aff90" stroke="none" /><path d="M 110.36928655335952 81.73862282372117 l 14.243096536837731 -25.083553885689067 a49.845285134557884,49.845285134557884 0 0,0 0.7424651457755763,0.430083735242355 l -14.672758415078636 24.83466599305666" fill="#ffce13" stroke="none" /><line stroke="#e1ed5e" stroke-width="0.3" x1="143.23703022742887" x2="145.7803849466894" y1="26.81831364943548" y2="22.513508569990506" /><path d="M 143.74570117128098 25.957352633546492 a86.0,86.0 0 0,1 28.547481713284135,27.462654790039103" fill="none" id="id134" stroke="none" /><text fill="#e1ed5e" style="font-size:6.75px; font-family:Arial;" text-anchor="middle"><textPath startOffset="19.985693538727396" xlink:href="#id134">February</textPath></text><path d="M 110.68208982089419 81.91981866633111 l 14.697103300572932 -24.87587140807043 a49.89314492641062,49.89314492641062 0 0,0 0.7356576335675118,0.44322549289498203 l -15.123123000358081 24.619199305716833" fill="#ffcf13" stroke="none" /><path d="M 111.2981086023043 82.29822771554956 l 14.470464134705173 -22.672189653993485 a47.89651494116734,47.89651494116734 0 0,0 0.6911534941518859,0.4495454582815868 l -14.858584654641339 22.41974527155237" fill="#ffac0f" stroke="none" /><path d="M 111.60114157652 82.49532879139004 l 15.66093293673166 -23.63038844663524 a49.34889907188071,49.34889907188071 0 0,0 0.7040332618162297,0.4753664011150801 l -16.065370892954434 23.357310133221493" fill="#ffc512" stroke="none" /><path d="M 111.90073688211348 82.69761687909136 l 13.348093354740318 -19.40668274957745 a44.554000330084264,44.554000330084264 0 0,0 0.62814533831989,0.4400559516171473 l -13.680169832643857 19.174041955196365" fill="#ff6f0a" stroke="none" /><path d="M 112.77801427241765 83.33499621200491 l 17.108910599468135 -22.31333084077548 a49.11760222903965,49.11760222903965 0 0,0 0.6665198859002333,0.5202293431083789 l -17.4904630405278 22.015523108443876" fill="#ffc112" stroke="none" /><path d="M 113.34407831869373 83.78471172551755 l 15.743862548289396 -19.131427714771636 a45.77661668478894,45.77661668478894 0 0,0 0.604125918938132,0.5059380833793472 l -16.070846004186645 18.85758847399847" fill="#ff850c" stroke="none" /><path d="M 113.6212207817346 84.01681056812373 l 16.52923848590857 -19.395467859914742 a46.48332589025669,46.48332589025669 0 0,0 0.6045183123882154,0.5242323234806908 l -16.86065059694355 19.108070543014378" fill="#ff920d" stroke="none" /><path d="M 113.89432698308785 84.25364557470407 l 29.847868386412514 -33.82640375630391 a66.11231359947188,66.11231359947188 0 0,0 0.8468326639460065,0.7602947269917865 l -30.42571203795451 33.30761002054283" fill="#36ff2e" stroke="none" /><path d="M 114.16331599549186 84.49514656593476 l 24.018280765087173 -26.293272219545113 a56.61199201001903,56.61199201001903 0 0,0 0.7138290079486744,0.6634262669926084 l -24.467317656830694 25.875941366477864" fill="#c0ff1e" stroke="none" /><path d="M 114.42810811169701 84.74124197986012 l 16.20710880169553 -17.140178705111204 a44.58932177391169,44.58932177391169 0 0,0 0.5531554989553166,0.5321351517304871 l -16.499747544263265 16.858660466618414" fill="#ff6f0a" stroke="none" /><path d="M 114.68862486808459 84.99185889309783 l 39.17405728262874 -40.02619610124386 a77.0062776688284,77.0062776688284 0 0,0 0.9393453095775433,0.9353114622952609 l -39.8572383923736 39.345948788298486" fill="#41ffcf" stroke="none" /><path d="M 115.19652480421416 85.50635884689758 l 23.093468465943506 -22.02532810876954 a52.91274610694731,52.91274610694731 0 0,0 0.6229409486627403,0.6645099707318405 l -23.469176736576706 21.624548721159645" fill="#fcff18" stroke="none" /><path d="M 115.4437574822437 85.77008943001954 l 31.458893059465694 -28.986290116344126 a63.7769443419673,63.7769443419673 0 0,0 0.736946720316929,0.8137549748997736 l -31.95318342039866 28.440482354174804" fill="#56ff2b" stroke="none" /><path d="M 115.68641384162765 86.03803664274999 l 39.00161117693028 -34.71405712126173 a73.21294318667236,73.21294318667236 0 0,0 0.8297750557067031,0.9485763297948063 l -39.593378096214835 34.03756523526398" fill="#3bff98" stroke="none" /><path d="M 116.15771136456269 86.58626213691792 l 18.600764413177703 -15.441900914168494 a45.17520921517611,45.17520921517611 0 0,0 0.4915525441157834,0.6025852972588966 l -18.8638154493699 15.119431447301498" fill="#ff7a0b" stroke="none" /><path d="M 116.38621287248628 86.86637796730983 l 44.76412243954769 -35.87864196084251 a78.36814104306629,78.36814104306629 0 0,0 0.8346054740818315,1.0598641965710427 l -45.37508199422349 35.10278537031843" fill="#43ffe2" stroke="none" /><path d="M 116.82858285166822 87.43820079747576 l 25.436048286756723 -18.986894731440483 a52.74105738612093,52.74105738612093 0 0,0 0.5367969437608759,0.7321904280252959 l -25.759107843031224 18.54624185974369" fill="#ffff18" stroke="none" /><path d="M 117.04232023915458 87.72973835380427 l 20.987340075300192 -15.110627565252084 a46.86115830453187,46.86115830453187 0 0,0 0.46568249331087014,0.658674861678787 l -21.244335188414947 14.747126203241505" fill="#ff990e" stroke="none" /><path d="M 117.2510076193507 88.02491185347247 l 32.10266911712628 -22.28462828949025 a60.079227505727935,60.079227505727935 0 0,0 0.582412421032776,0.8546183619475246 l -32.481506003827796 21.72873190427232" fill="#8bff24" stroke="none" /><path d="M 117.45458315368197 88.32363383020206 l 28.244464574836982 -18.894333238551994 a54.9815480466778,54.9815480466778 0 0,0 0.5194535297947994,0.7911633635356969 l -28.565514739989705 18.40535181103862" fill="#daff1c" stroke="none" /><line stroke="#e1ed5e" stroke-width="0.3" x1="172.23445277983987" x2="176.4835382374775" y1="55.19839476539836" y2="52.563006222186495" /><path d="M 173.08426987136738 54.67131705675599 a86.0,86.0 0 0,1 12.851231095245387,41.99856678651699" fill="none" id="id135" stroke="none" /><text fill="#e1ed5e" style="font-size:6.75px; font-family:Arial;" text-anchor="middle"><textPath startOffset="22.20632615414155" xlink:href="#id135">March</textPath></text><path d="M 117.84615892207809 88.93136811851018 l 53.538476766234254 -33.20589564446945 a84.0,84.0 0 0,0 0.7515368068551043,1.2353289071716742 l -54.10212937137558 32.279398964090696" fill="#4dd2ff" stroke="none" /><path d="M 118.21658344932153 89.55222093294921 l 36.3540030004789 -20.850155168149893 a62.908740194555556,62.908740194555556 0 0,0 0.5306572676850047,0.9439800668824904 l -36.707517909456335 20.22129159133261" fill="#62ff29" stroke="none" /><path d="M 118.56541770881063 90.18545643968196 l 19.115058900444144 -10.105109466372083 a42.62171857403596,42.62171857403596 0 0,0 0.3373013128337635,0.65155877554326 l -19.286169646438026 9.774577968568478" fill="#ff4a06" stroke="none" /><path d="M 118.89224826269711 90.83032412892265 l 18.118590300840395 -8.794167744852261 a41.14002732903577,41.14002732903577 0 0,0 0.30373448297586747,0.6397422830977177 l -18.26728297765802 8.480983046114003" fill="#ff2d04" stroke="none" /><path d="M 119.04729006885535 91.15688171328212 l 48.801376541823586 -22.657099448474955 a74.80444691468293,74.80444691468293 0 0,0 0.5321719547567589,1.1725703602407562 l -49.18415081354369 21.813707079392138" fill="#3dffb0" stroke="none" /><line stroke="#e1ed5e" stroke-width="0.3" x1="184.98032266829074" x2="189.97916517819016" y1="98.17113171792111" y2="98.06355123074" /><path d="M 185.9800911702706 98.14961562048488 a86.0,86.0 0 0,1 -9.607161424134198,41.387399972396054" fill="none" id="id136" stroke="none" /><text fill="#e1ed5e" style="font-size:6.75px; font-family:Arial;" text-anchor="middle"><textPath startOffset="21.466115282336823" xlink:href="#id136">April</textPath></text><line stroke="#e1ed5e" stroke-width="0.3" x1="174.80103733775053" x2="179.2010983576182" y1="140.37084112569926" y2="142.7455964860345" /><path d="M 175.68104954172406 140.8457921977663 a86.0,86.0 0 0,1 -30.038265399797805,32.042727171017184" fill="none" id="id137" stroke="none" /><text fill="#e1ed5e" style="font-size:6.75px; font-family:Arial;" text-anchor="middle"><textPath startOffset="22.206326154141568" xlink:href="#id137">May</textPath></text><line stroke="#e1ed5e" stroke-width="0.3" x1="143.8653032363475" x2="146.44561519142675" y1="172.8068346515853" y2="177.08958963109032" /><path d="M 144.38136562736335 173.6633856474863 a86.0,86.0 0 0,1 -40.68145358897372,12.25698825130547" fill="none" id="id138" stroke="none" /><text fill="#e1ed5e" style="font-size:6.75px; font-family:Arial;" text-anchor="middle"><textPath startOffset="21.466115282336833" xlink:href="#id138">June</textPath></text><line stroke="#e1ed5e" stroke-width="0.3" x1="102.19456741930631" x2="102.32365962044197" y1="184.97166512339345" y2="189.96999836594603" /><path d="M 102.22038585953345 185.97133177190398 a86.0,86.0 0 0,1 -42.740103519485714,-10.115201625700543" fill="none" id="id139" stroke="none" /><text fill="#e1ed5e" style="font-size:6.75px; font-family:Arial;" text-anchor="middle"><textPath startOffset="22.20632615414155" xlink:href="#id139">July</textPath></text><line stroke="#e1ed5e" stroke-width="0.3" x1="58.666819895761336" x2="56.23545636021788" y1="174.27360380694188" y2="178.64263932499728" /><path d="M 58.180547188652646 175.14741091055294 a86.0,86.0 0 0,1 -31.652253787137756,-30.449443065178592" fill="none" id="id140" stroke="none" /><text fill="#e1ed5e" style="font-size:6.75px; font-family:Arial;" text-anchor="middle"><textPath startOffset="22.20632615414155" xlink:href="#id140">August</textPath></text><line stroke="#e1ed5e" stroke-width="0.3" x1="26.63291911575756" x2="22.317208475507996" y1="142.92168965132927" y2="145.44649492493687" /><path d="M 25.769776987707644 143.4266507060508 a86.0,86.0 0 0,1 -11.730757126820373,-40.83630448921669" fill="none" id="id141" stroke="none" /><text fill="#e1ed5e" style="font-size:6.75px; font-family:Arial;" text-anchor="middle"><textPath startOffset="21.46611528233685" xlink:href="#id141">September</textPath></text><line stroke="#e1ed5e" stroke-width="0.3" x1="15.007084014347285" x2="10.007500721073583" y1="101.09737516637583" y2="101.16192664675087" /><path d="M 14.007167355692545 101.11028546245083 a86.0,86.0 0 0,1 10.666146001902534,-42.60595125391555" fill="none" id="id142" stroke="none" /><text fill="#e1ed5e" style="font-size:6.75px; font-family:Arial;" text-anchor="middle"><textPath startOffset="22.20632615414155" xlink:href="#id142">October</textPath></text><line stroke="#e1ed5e" stroke-width="0.3" x1="26.266209847984243" x2="21.928928074336255" y1="57.711370442889674" y2="55.22380399835377" /><path d="M 25.398753493254645 57.213857153982495 a86.0,86.0 0 0,1 29.58750427330803,-30.492523968695096" fill="none" id="id143" stroke="none" /><text fill="#e1ed5e" style="font-size:6.75px; font-family:Arial;" text-anchor="middle"><textPath startOffset="21.46611528233685" xlink:href="#id143">November</textPath></text><line stroke="#e1ed5e" stroke-width="0.3" x1="56.762969772571076" x2="54.21961505331055" y1="26.818313649435495" y2="22.513508569990535" /><path d="M 56.25429882871897 25.957352633546506 a86.0,86.0 0 0,1 42.265352541879196,-11.944610805530505" fill="none" id="id144" stroke="none" /><text fill="#e1ed5e" style="font-size:6.75px; font-family:Arial;" text-anchor="middle"><textPath startOffset="22.20632615414155" xlink:href="#id144">December</textPath></text></svg>