<?xml version="1.0" encoding="utf-8" ?>
<svg baseProfile="full" height="200mm" version="1.1" viewBox="0,0,200,200" width="200mm" xmlns="http://www.w3.org/2000/svg" xmlns:ev="http://www.w3.org/2001/xml-events" xmlns:xlink="http://www.w3.org/1999/xlink"><defs /><rect fill="#1a1a1a" height="200" width="200" x="0" y="0" /><text alignment-baseline="middle" fill="#e1ed5e" style="dominant-baseline: central; font-size:9.0px; font-family:Arial;" text-anchor="middle" x="100.0" y="100.0">2024</text><line stroke="#e1ed5e" stroke-width="0.3" x1="100.0" x2="100.0" y1="15.0" y2="10.0" /><path d="M 100.0 14.0 a86.0,86.0 0 0,1 42.35913384403234,11.155469271406648" fill="none" id="id61" stroke="none" /><text fill="#e1ed5e" style="font-size:6.75px; font-family:Arial;" text-anchor="middle"><textPath startOffset="22.145653131862478" xlink:href="#id61">January</textPath></text><path d="M 102.51750503828377 79.15144685158666 l 2.6180814717863194 -21.681470297522683 a42.83896757759554,42.83896757759554 0 0,0 0.7293276664900815,0.09442606807570676 l -2.9898869601671927 21.63333263324658" fill="#f0ff19" stroke="none" /><path d="M 107.06938296918511 80.22567764915836 l 15.152539984955874 -42.384351138225725 a66.01147286419433,66.01147286419433 0 0,0 1.063761834882511,0.39062808040558206 l -15.87789097149251 42.117992208811415" fill="#36ff72" stroke="none" /><path d="M 108.07796709384702 80.6158196554323 l 0.8368921336491165 -2.008236460874068 a23.17563832613506,23.17563832613506 0 0,0 0.36591565616582256,0.1561876349272983 l -0.8712428649853691 1.993574176287368" fill="#ff0500" stroke="none" /><path d="M 110.02825361518725 81.54914285379988 l 10.378550902259931 -19.09536469960813 a42.733551753955005,42.733551753955005 0 0,0 0.6415238357698281,0.35584245754289906 l -10.704818926185858 18.914389326632087" fill="#f2ff19" stroke="none" /><line stroke="#e1ed5e" stroke-width="0.3" x1="143.13028292997686" x2="145.6673583964461" y1="26.7553504044142" y2="22.446841604673864" /><path d="M 143.63769802327073 25.89364864446614 a86.0,86.0 0 0,1 29.32050498858742,28.57503671076993" fill="none" id="id62" stroke="none" /><text fill="#e1ed5e" style="font-size:6.75px; font-family:Arial;" text-anchor="middle"><textPath startOffset="20.669276256404974" xlink:href="#id62">February</textPath></text><path d="M 110.96478420261332 82.08984904055464 l 11.341097406842207 -18.524830297518015 a42.720723467309384,42.720723467309384 0 0,0 0.6221680800170637,0.38827889728289045 l -11.657429615648985 18.327415603393582" fill="#f2ff19" stroke="none" /><path d="M 111.8722381534696 82.67804972795209 l 12.527834003623319 -18.27848421014154 a43.159639208315966,43.159639208315966 0 0,0 0.6075333911022677,0.4241054904103008 l -12.839762485899348 18.06073390392611" fill="#edff1a" stroke="none" /><path d="M 112.16784306229584 82.88440491214696 l 11.855994207849745 -16.67694062017263 a41.46179237274512,41.46179237274512 0 0,0 0.576553843655874,0.4173805202422882 l -12.140529061879588 16.470959328557264" fill="#fffd17" stroke="none" /><path d="M 113.59037401385872 83.9905735841838 l 24.168220321217852 -28.470102768269037 a58.34500803495332,58.34500803495332 0 0,0 0.7579864497779077,0.6547306421347527 l -24.653386250758622 28.051027993669564" fill="#44ff2d" stroke="none" /><path d="M 114.65682725009322 84.96080404539774 l 4.979854312647689 -5.109769225996945 a28.135032622079677,28.135032622079677 0 0,0 0.3429902704123564,0.34005874725488555 l -5.066836503190007 5.0235304685134" fill="#ff4d07" stroke="none" /><path d="M 115.16444852881244 85.47280134310134 l 1.3333180042171449 -1.2772884871665666 a22.846402659177528,22.846402659177528 0 0,0 0.26887405415848203,0.28553492797371166 l -1.355047892111887 1.2542120992483603" fill="#ff0000" stroke="none" /><path d="M 115.6541949942343 86.00192230759917 l 13.82259098491725 -12.360246093038727 a39.542915224332845,39.542915224332845 0 0,0 0.4481322058197447,0.5098921877284783 l -14.032734254695585 12.121141627498952" fill="#ffe515" stroke="none" /><path d="M 116.7966241395341 87.39550010848427 l 50.389872418602316 -37.813499674547195 a84.0,84.0 0 0,0 0.855591921664697,1.1607747629245 l -51.03156635985084 36.94291860235382" fill="#4dd2ff" stroke="none" /><path d="M 117.21940702142032 87.97951657250589 l 16.843958506255714 -11.758391205108095 a41.54212018981555,41.54212018981555 0 0,0 0.4031766880540813,0.5882468369522086 l -17.04332493112512 11.467509633085838" fill="#fffe18" stroke="none" /><line stroke="#e1ed5e" stroke-width="0.3" x1="172.87174338648825" x2="177.1583165268699" y1="56.24261187166439" y2="53.66864786411523" /><path d="M 173.72905801456457 55.72781907015455 a86.0,86.0 0 0,1 12.242430191666344,42.057860355516425" fill="none" id="id63" stroke="none" /><text fill="#e1ed5e" style="font-size:6.75px; font-family:Arial;" text-anchor="middle"><textPath startOffset="22.145653131862474" xlink:href="#id63">March</textPath></text><path d="M 118.18653347947321 89.5 l 2.4357769566340832 -1.4062964815985757 a23.81259296319715,23.81259296319715 0 0,0 0.20134866679002758,0.35576380136135655 l -2.4595589884454867 1.3642759101381012" fill="#ff0e01" stroke="none" /><path d="M 118.8641267826498 90.77261029715802 l 24.472113243324923 -11.970536900543424 a48.24294551404805,48.24294551404805 0 0,0 0.3575049037664616,0.7470477497487059 l -24.6739974050513 11.548676648729614" fill="#b1ff20" stroke="none" /><line stroke="#e1ed5e" stroke-width="0.3" x1="184.99686870605535" x2="189.99668451229388" y1="99.2704041080226" y2="99.22748670261217" /><path d="M 185.99683186730306 99.26182062694052 a86.0,86.0 0 0,1 -10.086455211305974,41.156179273409016" fill="none" id="id64" stroke="none" /><text fill="#e1ed5e" style="font-size:6.75px; font-family:Arial;" text-anchor="middle"><textPath startOffset="21.40746469413373" xlink:href="#id64">April</textPath></text><line stroke="#e1ed5e" stroke-width="0.3" x1="174.33088141563837" x2="178.70328620479359" y1="141.23008692659167" y2="143.65538615756765" /><path d="M 175.20536237346943 141.71514677278685 a86.0,86.0 0 0,1 -30.301960400862466,31.631185727798858" fill="none" id="id65" stroke="none" /><text fill="#e1ed5e" style="font-size:6.75px; font-family:Arial;" text-anchor="middle"><textPath startOffset="22.145653131862474" xlink:href="#id65">May</textPath></text><line stroke="#e1ed5e" stroke-width="0.3" x1="143.1302829299769" x2="145.66735839644613" y1="173.24464959558577" y2="177.55315839532614" /><path d="M 143.63769802327073 174.10635135553383 a86.0,86.0 0 0,1 -40.68552437913181,11.842963189579606" fill="none" id="id66" stroke="none" /><text fill="#e1ed5e" style="font-size:6.75px; font-family:Arial;" text-anchor="middle"><textPath startOffset="21.407464694133747" xlink:href="#id66">June</textPath></text><line stroke="#e1ed5e" stroke-width="0.3" x1="101.45913802915013" x2="101.54496967792366" y1="184.9874750549273" y2="189.98673829345242" /><path d="M 101.47630435890484 185.9873277026323 a86.0,86.0 0 0,1 -42.54439059252881,-10.42667462771756" fill="none" id="id67" stroke="none" /><text fill="#e1ed5e" style="font-size:6.75px; font-family:Arial;" text-anchor="middle"><textPath startOffset="22.145653131862474" xlink:href="#id67">July</textPath></text><line stroke="#e1ed5e" stroke-width="0.3" x1="58.13341422392154" x2="55.67067388415222" y1="173.97424548756322" y2="178.32567169271397" /><path d="M 57.64086615596768 174.84453072859336 a86.0,86.0 0 0,1 -31.369924170532247,-30.572349798747897" fill="none" id="id68" stroke="none" /><text fill="#e1ed5e" style="font-size:6.75px; font-family:Arial;" text-anchor="middle"><textPath startOffset="22.145653131862474" xlink:href="#id68">August</textPath></text><line stroke="#e1ed5e" stroke-width="0.3" x1="26.387840678322732" x2="22.057713659400548" y1="142.50000000000003" y2="145.00000000000006" /><path d="M 25.521815274538298 143.00000000000003 a86.0,86.0 0 0,1 -11.493303480769221,-40.785679425670985" fill="none" id="id69" stroke="none" /><text fill="#e1ed5e" style="font-size:6.75px; font-family:Arial;" text-anchor="middle"><textPath startOffset="21.40746469413373" xlink:href="#id69">September</textPath></text><line stroke="#e1ed5e" stroke-width="0.3" x1="15.003131293944662" x2="10.003315487706104" y1="100.72959589197737" y2="100.7725132973878" /><path d="M 14.003168132696942 100.73817937305945 a86.0,86.0 0 0,1 10.791469493833604,-42.45332614584628" fill="none" id="id70" stroke="none" /><text fill="#e1ed5e" style="font-size:6.75px; font-family:Arial;" text-anchor="middle"><textPath startOffset="22.145653131862435" xlink:href="#id70">October</textPath></text><line stroke="#e1ed5e" stroke-width="0.3" x1="26.387840678322718" x2="22.05771365940052" y1="57.49999999999999" y2="54.99999999999999" /><path d="M 25.521815274538284 56.99999999999999 a86.0,86.0 0 0,1 29.574782752854787,-30.34633250058573" fill="none" id="id71" stroke="none" /><text fill="#e1ed5e" style="font-size:6.75px; font-family:Arial;" text-anchor="middle"><textPath startOffset="21.40746469413373" xlink:href="#id71">November</textPath></text><line stroke="#e1ed5e" stroke-width="0.3" x1="56.869717070023135" x2="54.33264160355391" y1="26.7553504044142" y2="22.446841604673864" /><path d="M 56.362301976729285 25.89364864446614 a86.0,86.0 0 0,1 42.16139366436587,-11.88097634709845" fill="none" id="id72" stroke="none" /><text fill="#e1ed5e" style="font-size:6.75px; font-family:Arial;" text-anchor="middle"><textPath startOffset="22.145653131862474" xlink:href="#id72">December</textPath></text></svg>