<?xml version="1.0" encoding="utf-8" ?>
<svg baseProfile="full" height="200mm" version="1.1" viewBox="0,0,200,200" width="200mm" xmlns="http://www.w3.org/2000/svg" xmlns:ev="http://www.w3.org/2001/xml-events" xmlns:xlink="http://www.w3.org/1999/xlink"><defs /><rect fill="#1a1a1a" height="200" width="200" x="0" y="0" /><text alignment-baseline="middle" fill="#e1ed5e" style="dominant-baseline: central; font-size:9.0px; font-family:Arial;" text-anchor="middle" x="100.0" y="100.0">2018</text><line stroke="#e1ed5e" stroke-width="0.3" x1="100.0" x2="100.0" y1="15.0" y2="10.0" /><path d="M 100.0 14.0 a86.0,86.0 0 0,1 42.46469731375804,11.215312516191453" fill="none" id="id37" stroke="none" /><text fill="#e1ed5e" style="font-size:6.75px; font-family:Arial;" text-anchor="middle"><textPath startOffset="22.20632615414155" xlink:href="#id37">January</textPath></text><line stroke="#e1ed5e" stroke-width="0.3" x1="143.23703022742887" x2="145.7803849466894" y1="26.81831364943548" y2="22.513508569990506" /><path d="M 143.74570117128098 25.957352633546492 a86.0,86.0 0 0,1 28.547481713284135,27.462654790039103" fill="none" id="id38" stroke="none" /><text fill="#e1ed5e" style="font-size:6.75px; font-family:Arial;" text-anchor="middle"><textPath startOffset="19.985693538727396" xlink:href="#id38">February</textPath></text><line stroke="#e1ed5e" stroke-width="0.3" x1="172.23445277983987" x2="176.4835382374775" y1="55.19839476539836" y2="52.563006222186495" /><path d="M 173.08426987136738 54.67131705675599 a86.0,86.0 0 0,1 12.851231095245387,41.99856678651699" fill="none" id="id39" stroke="none" /><text fill="#e1ed5e" style="font-size:6.75px; font-family:Arial;" text-anchor="middle"><textPath startOffset="22.20632615414155" xlink:href="#id39">March</textPath></text><path d="M 120.78858239683441 97.02765380044208 l 8.678705171559272 -1.2408790479958804 a29.766966651391165,29.766966651391165 0 0,0 0.06815785011956435,0.5078551506460129 l -8.698779020736673 1.091305555285203" fill="#ff6809" stroke="none" /><path d="M 120.96714384426684 98.82574320788733 l 7.364388857459219 -0.4124397533522393 a28.375929080055933,28.375929080055933 0 0,0 0.023114750456283657,0.48791584905055413 l -7.370397216148999 0.2856127976786854" fill="#ff5507" stroke="none" /><line stroke="#e1ed5e" stroke-width="0.3" x1="184.98032266829074" x2="189.97916517819016" y1="98.17113171792111" y2="98.06355123074" /><path d="M 185.9800911702706 98.14961562048488 a86.0,86.0 0 0,1 -9.607161424134198,41.387399972396054" fill="none" id="id40" stroke="none" /><text fill="#e1ed5e" style="font-size:6.75px; font-family:Arial;" text-anchor="middle"><textPath startOffset="21.466115282336823" xlink:href="#id40">April</textPath></text><path d="M 120.92983693683757 101.71520430193887 l 7.871877720946455 0.6451019457079535 a28.89826660564768,28.89826660564768 0 0,0 -0.04489607690009368,0.4954244674627853 l -7.859607047769286 -0.7805078017193093" fill="#ff5c08" stroke="none" /><path d="M 120.81339534386255 102.79330883721812 l 11.83912784562584 1.5888969526489818 a32.94527277508598,32.94527277508598 0 0,0 -0.08027029266924772,0.5614102399716697 l -11.810023501939991 -1.7924526646010608" fill="#ff930d" stroke="none" /><path d="M 120.32669344350535 105.2749913415812 l 11.029703057974169 2.862324277813876 a32.395053743552396,32.395053743552396 0 0,0 -0.14471630041400768,0.5385431896256924 l -10.978798681218384 -3.0517584006151166" fill="#ff8c0c" stroke="none" /><path d="M 119.9155931802556 106.66101706037122 l 8.496974624580316 2.8419185119719566 a29.959636075167936,29.959636075167936 0 0,0 -0.16778704304970035,0.48766768647633035 l -8.446796750587385 -2.9877589015375876" fill="#ff6a09" stroke="none" /><path d="M 119.41010516605496 108.01547362559984 l 12.28884032502718 5.074721371769004 a34.29542754239604,34.29542754239604 0 0,0 -0.2300227294731784,0.5437057848587582 l -12.199666614361695 -5.285501682293926" fill="#ffa50f" stroke="none" /><path d="M 119.12269723197855 108.67885076344098 l 10.822907490842164 4.911984841890846 a32.88540792914963,32.88540792914963 0 0,0 -0.2383806582092024,0.5134507304437044 l -10.73675221579313 -5.097555639613382" fill="#ff920d" stroke="none" /><path d="M 118.81262510543309 109.33194174019688 l 1.3282959835540316 0.6588969196374347 a22.482739144500297,22.482739144500297 0 0,0 -0.1749599589448837,0.34521259745386146 l -1.3167573548228788 -0.6816637287939904" fill="#ff0000" stroke="none" /><line stroke="#e1ed5e" stroke-width="0.3" x1="174.80103733775053" x2="179.2010983576182" y1="140.37084112569926" y2="142.7455964860345" /><path d="M 175.68104954172406 140.8457921977663 a86.0,86.0 0 0,1 -30.038265399797805,32.042727171017184" fill="none" id="id41" stroke="none" /><text fill="#e1ed5e" style="font-size:6.75px; font-family:Arial;" text-anchor="middle"><textPath startOffset="22.206326154141568" xlink:href="#id41">May</textPath></text><path d="M 118.12598468904814 110.60418214915192 l 1.4777279821494373 0.8645100919167916 a22.71203320302307,22.71203320302307 0 0,0 -0.20031918576079621,0.3357464776731315 l -1.462627920690414 -0.8898186634760272" fill="#ff0300" stroke="none" /><path d="M 116.498646956653 112.99209946851258 l 9.237323947571223 7.274065071216292 a32.757558265756614,32.757558265756614 0 0,0 -0.3526617699384301,0.43999978222422204 l -9.11074426557794 -7.431992687018764" fill="#ff900d" stroke="none" /><path d="M 116.0416608686014 113.55231037782055 l 11.319301627921751 9.562768480040777 a35.81800021415621,35.81800021415621 0 0,0 -0.40194190679339814,0.4675492438541672 l -11.153017211557573 -9.756194823056473" fill="#ffb911" stroke="none" /><path d="M 115.56566222782051 114.09645910891815 l 10.945651561969454 9.912519455034634 a35.76703524958495,35.76703524958495 0 0,0 -0.4172030361775934,0.45279149717040884 l -10.77340211779614 -10.099462207006376" fill="#ffb811" stroke="none" /><path d="M 114.81725581225074 114.88116024355365 l 5.990103298942118 6.015937647057247 a29.48957262206278,29.48957262206278 0 0,0 -0.3627920233965426,0.3550683524926625 l -5.8856613231697805 -6.118156102472481" fill="#ff6409" stroke="none" /><path d="M 114.55890576462653 115.13401014063108 l 7.720866978984254 8.025855860562935 a32.136702797583396,32.136702797583396 0 0,0 -0.40196001075037335,0.3800782792433411 l -7.581571133843073 -8.157568776552198" fill="#ff880c" stroke="none" /><path d="M 113.75828350139079 115.86535959552629 l 7.718623565950568 8.900727946471674 a32.78134575207558,32.78134575207558 0 0,0 -0.42948952098382626,0.3660202873585873 l -7.564268568389695 -9.032272624053208" fill="#ff910d" stroke="none" /><path d="M 113.20401910651253 116.32954008644616 l 8.449456143968742 10.44952538303686 a34.43822495196381,34.43822495196381 0 0,0 -0.46416578746512943,0.36876137397900527 l -8.268332863786261 -10.593420671020992" fill="#ffa70f" stroke="none" /><path d="M 112.04921762599082 117.19931262002967 l 7.704911708705116 10.998156834838401 a34.42851883874926,34.42851883874926 0 0,0 -0.488299871845373,0.3358571044111981 l -7.51445495223686 -11.129154728614694" fill="#ffa70f" stroke="none" /><line stroke="#e1ed5e" stroke-width="0.3" x1="143.8653032363475" x2="146.44561519142675" y1="172.8068346515853" y2="177.08958963109032" /><path d="M 144.38136562736335 173.6633856474863 a86.0,86.0 0 0,1 -40.68145358897372,12.25698825130547" fill="none" id="id42" stroke="none" /><text fill="#e1ed5e" style="font-size:6.75px; font-family:Arial;" text-anchor="middle"><textPath startOffset="21.466115282336833" xlink:href="#id42">June</textPath></text><path d="M 110.5260780823613 118.17145234162733 l 7.419574917525346 12.8086121871804 a35.80238623054937,35.80238623054937 0 0,0 -0.5359297266065084,0.3043148856738594 l -7.197996423997639 -12.934430238648886" fill="#ffb911" stroke="none" /><path d="M 109.89434966115114 118.52300852407294 l 7.611728497203623 14.249760384981995 a37.15531125495711,37.15531125495711 0 0,0 -0.5667230578296406,0.2964827188706223 l -7.365314536847487 -14.378672522797334" fill="#ffca12" stroke="none" /><path d="M 109.2508944713604 118.85261126421891 l 8.207460865530305 16.726173846557593 a39.63135275293983,39.63135275293983 0 0,0 -0.6150169434379616,0.295245507368325 l -7.918331254092109 -16.864973630425478" fill="#ffe915" stroke="none" /><path d="M 108.59647513512805 119.15986991738527 l 3.104476319745841 6.919273482787464 a28.583806349681435,28.583806349681435 0 0,0 -0.450643205807902,0.19754873824313438 l -2.984912439280185 -6.971686774325053" fill="#ff5708" stroke="none" /><path d="M 107.93186726928326 119.44442032107085 l 5.61825065378722 13.772750283457684 a35.874588760004904,35.874588760004904 0 0,0 -0.5737865842929051,0.22832152349567747 l -5.380342993452448 -13.86741865135943" fill="#ffb911" stroke="none" /><path d="M 106.57524785965236 119.94407469862006 l 2.805198746511331 8.508742870090874 a29.959232402206734,29.959232402206734 0 0,0 -0.4911582968352214,0.1572533763788347 l -2.658319104585169 -8.555769093129415" fill="#ff6a09" stroke="none" /><path d="M 105.88484417918355 120.15858648285463 l 6.154253471804708 21.081450429498965 a42.96138401846847,42.96138401846847 0 0,0 -0.7116631654816231,0.20112311917632855 l -5.790459138218479 -21.184262342013813" fill="#ecff1a" stroke="none" /><path d="M 105.18746579009965 120.34920634021253 l 3.966065307499456 15.557939958870449 a37.05550278836414,37.05550278836414 0 0,0 -0.619438692192572,0.15224295967242915 l -3.697673330563673 -15.623904176856907" fill="#ffc912" stroke="none" /><path d="M 104.48393922423573 120.51570834832081 l 3.095699237909291 14.163988297564664 a35.49834191434113,35.49834191434113 0 0,0 -0.5980769749711091,0.1253328450987019 l -2.851430801508804 -14.215177123389907" fill="#ffb510" stroke="none" /><path d="M 103.41894727170886 120.7198165907248 l 3.1429958054695692 19.0474703057346 a40.305039437438104,40.305039437438104 0 0,0 -0.685500695376059,0.10706111058390254 l -2.814659246484993 -19.098749723665605" fill="#fff216" stroke="none" /><path d="M 101.98527174616119 120.90594882070398 l 1.373655948679026 14.465314894985474 a35.530391105418666,35.530391105418666 0 0,0 -0.6093558214039009,0.05257778430630533 l -1.1244558095335837 -14.486816931570443" fill="#ffb510" stroke="none" /><path d="M 101.62511606390274 120.93702456842531 l 0.692095905216967 8.916550204072985 a29.943369850552536,29.943369850552536 0 0,0 -0.5142235350418419,0.035463865664018886 l -0.5385096093961947 -8.92714241425329" fill="#ff6a09" stroke="none" /><line stroke="#e1ed5e" stroke-width="0.3" x1="102.19456741930631" x2="102.32365962044197" y1="184.97166512339345" y2="189.96999836594603" /><path d="M 102.22038585953345 185.97133177190398 a86.0,86.0 0 0,1 -42.740103519485714,-10.115201625700543" fill="none" id="id43" stroke="none" /><text fill="#e1ed5e" style="font-size:6.75px; font-family:Arial;" text-anchor="middle"><textPath startOffset="22.20632615414155" xlink:href="#id43">July</textPath></text><path d="M 100.54218724476979 120.99299961872073 l 0.38072318095288415 14.741257138897758 a35.746172797564085,35.746172797564085 0 0,0 -0.6152432276715162,0.010591970115044163 l -0.1269202633887 -14.745626586291962" fill="#ffb811" stroke="none" /><path d="M 99.81925306533755 120.99922214144158 l -0.06602791338132948 7.671138784288692 a28.671422940573912,28.671422940573912 0 0,0 -0.4934765713742623,-0.008495646699359243 l 0.19806417464825973 -7.668865660310173" fill="#ff5908" stroke="none" /><path d="M 99.09653310690486 120.98055641714683 l -0.503746281043256 11.69813454165277 a32.70897570542678,32.70897570542678 0 0,0 -0.562301452363447,-0.029064562251128922 l 0.7050358018201919 -11.687730172639439" fill="#ff900d" stroke="none" /><path d="M 98.01472825383883 120.90594882070398 l -1.4081263423128052 14.828306151235894 a35.895015377994596,35.895015377994596 0 0,0 -0.6146036892508483,-0.06370618535371614 l 1.6631626281692469 -14.801870597426417" fill="#ffba11" stroke="none" /><path d="M 95.51606077576429 120.51570834832081 l -3.533672807427344 16.167882098787434 a37.54953942169517,37.54953942169517 0 0,0 -0.6302598117012347,-0.14344508119341934 l 3.8114527685214408 -16.104660284016326" fill="#ffcf13" stroke="none" /><path d="M 94.46302465271185 120.25689768951611 l -2.708228542492063 9.907992191433186 a31.271456133570823,31.271456133570823 0 0,0 -0.5180173769930042,-0.146396885073945 l 2.878377087589681 -9.85990651302072" fill="#ff7c0b" stroke="none" /><path d="M 93.42475214034765 119.94407469862007 l -6.674465132701978 20.245021027539106 a42.31687972507128,42.31687972507128 0 0,0 -0.6898261303593785,-0.23402647690767406 l 7.021960995998582 -20.12713156373331" fill="#f4ff19" stroke="none" /><path d="M 90.7491055286396 118.85261126421891 l -4.075276258897205 8.305099505906606 a30.251083957533915,30.251083957533915 0 0,0 -0.4655009318684675,-0.23341183087967593 l 4.217631098448432 -8.233719834117629" fill="#ff6e0a" stroke="none" /><line stroke="#e1ed5e" stroke-width="0.3" x1="58.666819895761336" x2="56.23545636021788" y1="174.27360380694188" y2="178.64263932499728" /><path d="M 58.180547188652646 175.14741091055294 a86.0,86.0 0 0,1 -31.652253787137756,-30.449443065178592" fill="none" id="id44" stroke="none" /><text fill="#e1ed5e" style="font-size:6.75px; font-family:Arial;" text-anchor="middle"><textPath startOffset="22.20632615414155" xlink:href="#id44">August</textPath></text><path d="M 88.54995079064634 117.60387380957326 l -8.0285017707376 12.343416999163978 a35.724699789740605,35.724699789740605 0 0,0 -0.5126074250746672,-0.3397282497109409 l 8.239783894552229 -12.203390728361718" fill="#ffb811" stroke="none" /><path d="M 87.36589467227662 116.77436683061367 l -6.946385534664312 9.222751914980625 a32.546056681026315,32.546056681026315 0 0,0 -0.44459660298138426,-0.34089771659439877 l 7.104110866139184 -9.101814856558859" fill="#ff8e0d" stroke="none" /><path d="M 86.79598089348748 116.32954008644616 l -3.79781562821148 4.6967958802197645 a27.04014032008667,27.04014032008667 0 0,0 -0.3594148043656843,-0.29577391515765067 l 3.878100561121853 -4.630726846204933" fill="#ff4206" stroke="none" /><path d="M 85.97065885151581 115.62618273729859 l -5.7731632092819325 6.430273690381796 a29.64163370979254,29.64163370979254 0 0,0 -0.3767316853181952,-0.3441354623161242 l 5.882994444066982 -6.329945461479095" fill="#ff6609" stroke="none" /><path d="M 85.70375840098266 115.38237550388516 l -9.8463427993295 10.594402817707897 a35.46346561463624,35.46346561463624 0 0,0 -0.4435705526323039,-0.41942364379177727 l 10.02724918635262 -10.42334453717019" fill="#ffb410" stroke="none" /><path d="M 84.67929136418377 114.36230785411682 l -21.018653691454425 19.70381280471721 a49.8101378345302,49.8101378345302 0 0,0 -0.5810081990855245,-0.6305696495943784 l 21.354708298535677 -19.33909190032149" fill="#9dff22" stroke="none" /><path d="M 83.95833913139862 113.55231037782056 l -8.941898992686788 7.554292009327207 a32.70576291224104,32.70576291224104 0 0,0 -0.35961388014143236,-0.43317808483552844 l 9.070608872721756 -7.399252667377917" fill="#ff900d" stroke="none" /><path d="M 83.72743513129214 113.27417163493432 l -14.386449778837934 11.735593320564332 a39.565938915786084,39.565938915786084 0 0,0 -0.4259595276947976,-0.5314500050707631 l 14.586327218587591 -11.486215481915309" fill="#ffe815" stroke="none" /><path d="M 83.28015986056508 112.70617746262583 l -24.56722486972743 18.66976695684732 a51.85625926814107,51.85625926814107 0 0,0 -0.5339681818130515,-0.7153376393717403 l 24.884954318235565 -18.244116437966273" fill="#86ff25" stroke="none" /><path d="M 82.6465618267979 111.8261652097733 l -7.217918014517663 4.918926731309168 a29.73465400873363,29.73465400873363 0 0,0 -0.2845987198781827,-0.4254364713564936 l 7.301519839806576 -4.7939533457468535" fill="#ff6709" stroke="none" /><path d="M 82.44556493220864 111.52570212397912 l -12.15609250832885 7.981316442338823 a35.542076785101806,35.542076785101806 0 0,0 -0.3313793228572639,-0.5143080680440844 l 12.29167669456316 -7.770886774373291" fill="#ffb510" stroke="none" /><path d="M 82.05923443525364 110.91462005526583 l -26.74988428319044 16.273821895708952 a52.31123741178772,52.31123741178772 0 0,0 -0.4613829325977721,-0.7733043337305671 l 27.026048091486444 -15.810955468092274" fill="#81ff25" stroke="none" /><line stroke="#e1ed5e" stroke-width="0.3" x1="26.63291911575756" x2="22.317208475507996" y1="142.92168965132927" y2="145.44649492493687" /><path d="M 25.769776987707644 143.4266507060508 a86.0,86.0 0 0,1 -11.730757126820373,-40.83630448921669" fill="none" id="id45" stroke="none" /><text fill="#e1ed5e" style="font-size:6.75px; font-family:Arial;" text-anchor="middle"><textPath startOffset="21.46611528233685" xlink:href="#id45">September</textPath></text><path d="M 80.87730276802145 108.67885076344099 l -7.912055448231712 3.590892416182889 a29.68879334318022,29.68879334318022 0 0,0 -0.2071979689530329,-0.4671767213227848 l 7.972694501916024 -3.4541673583674077" fill="#ff6709" stroke="none" /><path d="M 80.73074385275274 108.34839909993369 l -8.751147023493417 3.7914316658641045 a30.537165632603575,30.537165632603575 0 0,0 -0.20481570554858236,-0.48412382633550566 l 8.815113710234305 -3.64023331386244" fill="#ff720a" stroke="none" /><path d="M 80.58989483394504 108.01547362559985 l -13.746996536718331 5.676872290418082 a35.87302231499242,35.87302231499242 0 0,0 -0.23077864444961269,-0.5727736695050527 l 13.842677795425331 -5.439399253070224" fill="#ffb911" stroke="none" /><path d="M 79.76711848015287 105.62410040840567 l -60.698644559541364 16.872301225217015 a84.0,84.0 0 0,0 -0.3752476946329004,-1.3964362672978443 l 60.98008033051604 -15.824974024743632" fill="#4dd2ff" stroke="none" /><line stroke="#e1ed5e" stroke-width="0.3" x1="15.007084014347285" x2="10.007500721073583" y1="101.09737516637583" y2="101.16192664675087" /><path d="M 14.007167355692545 101.11028546245083 a86.0,86.0 0 0,1 10.666146001902534,-42.60595125391555" fill="none" id="id46" stroke="none" /><text fill="#e1ed5e" style="font-size:6.75px; font-family:Arial;" text-anchor="middle"><textPath startOffset="22.20632615414155" xlink:href="#id46">October</textPath></text><path d="M 81.43458229118936 90.18545643968196 l -8.172804325903037 -4.32052460788235 a30.24454776810723,30.24454776810723 0 0,0 0.24727351878971696,-0.45816027597830133 l 8.097222707894849 4.460565867193123" fill="#ff6e0a" stroke="none" /><line stroke="#e1ed5e" stroke-width="0.3" x1="26.266209847984243" x2="21.928928074336255" y1="57.711370442889674" y2="55.22380399835377" /><path d="M 25.398753493254645 57.213857153982495 a86.0,86.0 0 0,1 29.58750427330803,-30.492523968695096" fill="none" id="id47" stroke="none" /><text fill="#e1ed5e" style="font-size:6.75px; font-family:Arial;" text-anchor="middle"><textPath startOffset="21.46611528233685" xlink:href="#id47">November</textPath></text><path d="M 81.78341655067845 89.55222093294921 l -9.664017043950093 -5.542615345863016 a32.14063778685736,32.14063778685736 0 0,0 0.2793791659211579,-0.4775495566464735 l 9.56717820355861 5.7081443148633815" fill="#ff880c" stroke="none" /><path d="M 82.7489923806493 88.02491185347247 l -7.7923130982326585 -5.409170193166329 a30.485740118700665,30.485740118700665 0 0,0 0.30295186851006894,-0.4285039333720259 l 7.698048609918712 5.54250062687014" fill="#ff720a" stroke="none" /><path d="M 83.17141714833178 87.43820079747576 l -7.470513642698565 -5.576410868725918 a30.32228149449425,30.32228149449425 0 0,0 0.3158196433401504,-0.4155816306731649 l 7.3734180591343055 5.704177275280109" fill="#ff6f0a" stroke="none" /><path d="M 83.6137871275137 86.86637796730984 l -12.333345456559982 -9.885230888037258 a36.80598620335519,36.80598620335519 0 0,0 0.40048682609915015,-0.49094949470220517 l 12.161360138384438 10.096064552347546" fill="#ffc512" stroke="none" /><path d="M 85.05521093208273 85.24692304244772 l -6.231682371490073 -6.151742201499494 a29.756585938186753,29.756585938186753 0 0,0 0.3629796203146757,-0.36142087047050103 l 6.124866951008084 6.258098922620104" fill="#ff6809" stroke="none" /><line stroke="#e1ed5e" stroke-width="0.3" x1="56.762969772571076" x2="54.21961505331055" y1="26.818313649435495" y2="22.513508569990535" /><path d="M 56.25429882871897 25.957352633546506 a86.0,86.0 0 0,1 42.265352541879196,-11.944610805530505" fill="none" id="id48" stroke="none" /><text fill="#e1ed5e" style="font-size:6.75px; font-family:Arial;" text-anchor="middle"><textPath startOffset="22.20632615414155" xlink:href="#id48">December</textPath></text><path d="M 91.56875222667455 80.76684994638697 l -9.271660050708226 -21.150277372411566 a44.093243882699625,44.093243882699625 0 0,0 0.6977571959016294,-0.2987432168229759 l 8.906219097016288 21.30674011719733" fill="#deff1b" stroke="none" /><path d="M 93.94186890950719 79.89281104454417 l -2.522900754425017 -8.373612493248192 a29.745422482862708,29.745422482862708 0 0,0 0.4915215514049065,-0.1434886192634904 l 2.3783889852966893 8.415799441430382" fill="#ff6809" stroke="none" /><path d="M 94.28887869178378 79.79150937346287 l -6.395267211023607 -22.629303513872703 a44.51562927551302,44.51562927551302 0 0,0 0.7391758995669354,-0.20204469588301688 l 6.004793422232949 22.736034750582014" fill="#d9ff1c" stroke="none" /><path d="M 96.40284397218896 79.31037775812273 l -1.7209657496959339 -9.898411683322305 a31.04690384965229,31.04690384965229 0 0,0 0.5273106591897699,-0.08701077693838657 l 1.5503258843672783 9.926568723200317" fill="#ff790b" stroke="none" /><path d="M 96.75951476605007 79.25152402106235 l -4.823789478656762 -30.88620157153562 a52.2606204745192,52.2606204745192 0 0,0 0.8900009039873207,-0.1311629981036839 l 4.291419594240793 30.964659053800272" fill="#82ff25" stroke="none" /><path d="M 99.27714615592234 79.0124445844662 l -0.3465402128927142 -10.061552527367235 a31.06751853140195,31.06751853140195 0 0,0 0.5346177956113416,-0.013807600384508005 l 0.17329578208649354 10.066026919894101" fill="#ff7a0b" stroke="none" /></svg>