<?xml version="1.0" encoding="utf-8" ?>
<svg baseProfile="full" height="200mm" version="1.1" viewBox="0,0,200,200" width="200mm" xmlns="http://www.w3.org/2000/svg" xmlns:ev="http://www.w3.org/2001/xml-events" xmlns:xlink="http://www.w3.org/1999/xlink"><defs /><rect fill="#1a1a1a" height="200" width="200" x="0" y="0" /><text alignment-baseline="middle" fill="#e1ed5e" style="dominant-baseline: central; font-size:9.0px; font-family:Arial;" text-anchor="middle" x="100.0" y="100.0">2016</text><line stroke="#e1ed5e" stroke-width="0.3" x1="100.0" x2="100.0" y1="15.0" y2="10.0" /><path d="M 100.0 14.0 a86.0,86.0 0 0,1 42.35913384403234,11.155469271406648" fill="none" id="id13" stroke="none" /><text fill="#e1ed5e" style="font-size:6.75px; font-family:Arial;" text-anchor="middle"><textPath startOffset="22.145653131862478" xlink:href="#id13">January</textPath></text><line stroke="#e1ed5e" stroke-width="0.3" x1="143.13028292997686" x2="145.6673583964461" y1="26.7553504044142" y2="22.446841604673864" /><path d="M 143.63769802327073 25.89364864446614 a86.0,86.0 0 0,1 29.32050498858742,28.57503671076993" fill="none" id="id14" stroke="none" /><text fill="#e1ed5e" style="font-size:6.75px; font-family:Arial;" text-anchor="middle"><textPath startOffset="20.669276256404974" xlink:href="#id14">February</textPath></text><line stroke="#e1ed5e" stroke-width="0.3" x1="172.87174338648825" x2="177.1583165268699" y1="56.24261187166439" y2="53.66864786411523" /><path d="M 173.72905801456457 55.72781907015455 a86.0,86.0 0 0,1 12.242430191666344,42.057860355516425" fill="none" id="id15" stroke="none" /><text fill="#e1ed5e" style="font-size:6.75px; font-family:Arial;" text-anchor="middle"><textPath startOffset="22.145653131862474" xlink:href="#id15">March</textPath></text><path d="M 120.9064616781168 98.02013634271609 l 22.56117428798391 -2.136566661836544 a43.66211601667544,43.66211601667544 0 0,0 0.06425894435363742,0.746786338106277 l -22.594526855035287 1.7489592763546051" fill="#ffc011" stroke="none" /><path d="M 120.93736805541906 98.37931529534042 l 24.40459392432681 -1.8890699151819859 a45.47759771210677,45.47759771210677 0 0,0 0.05356836300600833,0.7788722414677623 l -24.433426248497884 1.4698542495598894" fill="#ffdc14" stroke="none" /><path d="M 120.98066250479742 99.09900007780936 l 22.699650687076566 -0.9748206710886328 a43.720572542435576,43.720572542435576 0 0,0 0.02576456047093559,0.7501070665099755 l -22.71303993454435 0.5850073400145374" fill="#ffc112" stroke="none" /><path d="M 120.99303781780057 99.45929381324524 l 11.317860563224203 -0.2915079408933399 a32.321614046070884,32.321614046070884 0 0,0 0.009524977112648882,0.554782164941133 l -11.321196971935517 0.0971788599831405" fill="#ff0801" stroke="none" /><line stroke="#e1ed5e" stroke-width="0.3" x1="184.99686870605535" x2="189.99668451229388" y1="99.2704041080226" y2="99.22748670261217" /><path d="M 185.99683186730306 99.26182062694052 a86.0,86.0 0 0,1 -10.086455211305974,41.156179273409016" fill="none" id="id16" stroke="none" /><text fill="#e1ed5e" style="font-size:6.75px; font-family:Arial;" text-anchor="middle"><textPath startOffset="21.40746469413373" xlink:href="#id16">April</textPath></text><path d="M 120.9064616781168 101.97986365728391 l 23.14625911364821 2.1919748031373505 a44.24981859055532,44.24981859055532 0 0,0 -0.07810642420343719,0.7556088017320861 l -23.105220296963108 -2.588988127152368" fill="#ffc912" stroke="none" /><path d="M 120.86939407059847 102.33845913500097 l 10.79861054360883 1.2100068351575206 a31.86619097078952,31.86619097078952 0 0,0 -0.06558049012422221,0.5431005352767502 l -10.776247967224945 -1.3952010473576795" fill="#ff0000" stroke="none" /><path d="M 120.77682067341334 103.0534771498775 l 34.90811709609478 5.1302910860933775 a56.28309121693724,56.28309121693724 0 0,0 -0.14869056755054563,0.9547001070906295 l -34.81490503640596 -5.728779375115457" fill="#8cff24" stroke="none" /><path d="M 120.7213421655516 103.40968896794604 l 22.38995898864791 3.6842592312033617 a43.691056158672794,43.691056158672794 0 0,0 -0.12812960321375733,0.7390175022199251 l -22.323414567941917 -4.068069766343875" fill="#ffc111" stroke="none" /><path d="M 119.4528033332814 107.91128576633889 l 32.67473593522327 13.288530650024754 a56.27355121437616,56.27355121437616 0 0,0 -0.37160415188506873,0.8917146867826519 l -32.441805938801714 -13.847477846248683" fill="#8dff24" stroke="none" /><path d="M 119.31412917781788 108.2440532568976 l 20.77821241184021 8.86898332973119 a43.591878548155314,43.591878548155314 0 0,0 -0.29967572769452827,0.6857167111514468 l -20.622902802128717 -9.224362110658483" fill="#ffbf11" stroke="none" /><path d="M 119.16976305983485 108.57439118712176 l 20.574918097011675 9.202899162400438 a43.539312493775164,43.539312493775164 0 0,0 -0.31102729826650594,0.6796507782027214 l -20.41390633389011 -9.554738922817847" fill="#ffbe11" stroke="none" /><path d="M 118.8641267826498 109.22738970284198 l 19.52966890852428 9.552939707348404 a42.740897514334904,42.740897514334904 0 0,0 -0.3280467414651883,0.6563132327306261 l -19.362802253847356 -9.886784796242775" fill="#ffb210" stroke="none" /><line stroke="#e1ed5e" stroke-width="0.3" x1="174.33088141563837" x2="178.70328620479359" y1="141.23008692659167" y2="143.65538615756765" /><path d="M 175.20536237346943 141.71514677278685 a86.0,86.0 0 0,1 -30.301960400862466,31.631185727798858" fill="none" id="id17" stroke="none" /><text fill="#e1ed5e" style="font-size:6.75px; font-family:Arial;" text-anchor="middle"><textPath startOffset="22.145653131862474" xlink:href="#id17">May</textPath></text><path d="M 117.81537515405839 111.11811171558189 l 20.17001051945881 12.587578331670425 a44.77554316121964,44.77554316121964 0 0,0 -0.41253692616844634,0.6485765684989486 l -19.950955901664475 -12.931968574848044" fill="#ffd113" stroke="none" /><path d="M 117.01052211995028 112.31430620078461 l 50.94428034048869 36.87973025564149 a83.89224278986384,83.89224278986384 0 0,0 -0.854494347873097,1.1592856932810478 l -50.30368397303176 -37.74882225819142" fill="#4dd3ff" stroke="none" /><path d="M 116.1254893667686 113.45245675266167 l 26.472291339495285 22.084126955074428 a55.47449596630764,55.47449596630764 0 0,0 -0.6163095950305819,0.7260111532575914 l -26.089287180957587 -22.53530489078158" fill="#97ff23" stroke="none" /><path d="M 115.89218393027572 113.72728997021213 l 24.610966275131812 21.258366501927615 a53.52103638148627,53.52103638148627 0 0,0 -0.6065435478220834,0.6901352157581703 l -24.24241166335114 -21.67771399549708" fill="#b1ff20" stroke="none" /><path d="M 115.41159269507618 114.26474011684316 l 45.52572346593826 42.137929980485204 a83.0338346399556,83.0338346399556 0 0,0 -0.9772060873225278,1.0377590007053707 l -44.79566154487948 -42.91323044113507" fill="#4cdcff" stroke="none" /><path d="M 114.91283532996324 114.78537596483092 l 26.241238327298174 26.016955586727487 a57.95246361139962,57.95246361139962 0 0,0 -0.7064904253758334,0.7004520819556811 l -25.790755981792376 -26.46358767891183" fill="#77ff27" stroke="none" /><path d="M 114.39649973595853 115.28858382429668 l 24.23555588542287 25.73732049306667 a56.35211217506367,56.35211217506367 0 0,0 -0.709956724052265,0.6571253447443126 l -23.790169390056636 -26.149563583943362" fill="#8cff24" stroke="none" /><line stroke="#e1ed5e" stroke-width="0.3" x1="143.1302829299769" x2="145.66735839644613" y1="173.24464959558577" y2="177.55315839532614" /><path d="M 143.63769802327073 174.10635135553383 a86.0,86.0 0 0,1 -40.68552437913181,11.842963189579606" fill="none" id="id18" stroke="none" /><text fill="#e1ed5e" style="font-size:6.75px; font-family:Arial;" text-anchor="middle"><textPath startOffset="21.407464694133747" xlink:href="#id18">June</textPath></text><line stroke="#e1ed5e" stroke-width="0.3" x1="101.45913802915013" x2="101.54496967792366" y1="184.9874750549273" y2="189.98673829345242" /><path d="M 101.47630435890484 185.9873277026323 a86.0,86.0 0 0,1 -42.54439059252881,-10.42667462771756" fill="none" id="id19" stroke="none" /><text fill="#e1ed5e" style="font-size:6.75px; font-family:Arial;" text-anchor="middle"><textPath startOffset="22.145653131862474" xlink:href="#id19">July</textPath></text><path d="M 97.48249496171623 120.84855314841334 l -4.372514810400748 36.210695124968 a57.473734758049595,57.473734758049595 0 0,0 -0.9784826111794604,-0.12668416392151793 l 4.993475243471003 -36.13029936484608" fill="#7dff26" stroke="none" /><path d="M 96.76829788921471 120.74984581791261 l -5.757046408811401 36.964367771006074 a58.409999573154245,58.409999573154245 0 0,0 -0.9894167092777105,-0.16280814299442956 l 6.390740621142174 -36.86009362951597" fill="#71ff27" stroke="none" /><path d="M 96.05791012581884 120.62667999033965 l -8.534954179491278 44.658486795445334 a66.46675583000156,66.46675583000156 0 0,0 -1.1188681800600586,-0.22380497174293712 l 9.300318845082295 -44.50539242703954" fill="#33ff53" stroke="none" /><path d="M 93.95794788825049 120.11202640906438 l -10.807751248697226 35.975488876321165 a58.56385612452513,58.56385612452513 0 0,0 -0.9603339253161036,-0.2975139048840389 l 11.423725806884962 -35.78465838363047" fill="#6fff27" stroke="none" /><path d="M 92.59220618246901 119.65005319985036 l -13.058434747838776 34.63904960401972 a58.018731414424536,58.018731414424536 0 0,0 -0.9289288950698867,-0.3593296522785255 l 13.65113590540219 -34.40978006360316" fill="#76ff27" stroke="none" /><path d="M 91.26138138417905 119.09545874513695 l -11.960087355070856 26.13494932294103 a49.741594695730114,49.741594695730114 0 0,0 -0.7733900980088532,-0.3619856166234754 l 12.406966166951198 -25.925787474747025" fill="#e5ff1a" stroke="none" /><line stroke="#e1ed5e" stroke-width="0.3" x1="58.13341422392154" x2="55.67067388415222" y1="173.97424548756322" y2="178.32567169271397" /><path d="M 57.64086615596768 174.84453072859336 a86.0,86.0 0 0,1 -31.369924170532247,-30.572349798747897" fill="none" id="id20" stroke="none" /><text fill="#e1ed5e" style="font-size:6.75px; font-family:Arial;" text-anchor="middle"><textPath startOffset="22.145653131862474" xlink:href="#id20">August</textPath></text><path d="M 88.1277618465304 117.32195027204791 l -20.832962899526265 30.395915471048035 a57.850020630878014,57.850020630878014 0 0,0 -0.8143214321041183,-0.5684596029981867 l 21.35167942280415 -30.03381105224472" fill="#78ff26" stroke="none" /><path d="M 85.08716467003676 114.78537596483092 l -25.779786465039884 25.559447733780726 a57.30265498057852,57.30265498057852 0 0,0 -0.6865763962959457,-0.704487866678906 l 26.21474966248664 -25.11313717503408" fill="#7fff26" stroke="none" /><path d="M 83.8745106332314 113.45245675266167 l -19.13230457974342 15.960848944414096 a45.9157335344251,45.9157335344251 0 0,0 -0.499723187918303,-0.6095810354065527 l 19.40347458690035 -15.630065627309047" fill="#ffe215" stroke="none" /><path d="M 83.64595745247003 113.17365903436017 l -48.473658544761086 39.04694805341138 a83.24435496492751,83.24435496492751 0 0,0 -0.8868836507259081,-1.1205485204891403 l 49.136808626128555 -38.20907958900756" fill="#4cdaff" stroke="none" /><path d="M 82.576782715395 111.72311816256416 l -52.26965185381499 35.16935448769248 a84.0,84.0 0 0,0 -0.7947022443170932,-1.2032804866437559 l 52.86567853705281 -34.266894122709665" fill="#4dd2ff" stroke="none" /><line stroke="#e1ed5e" stroke-width="0.3" x1="26.387840678322732" x2="22.057713659400548" y1="142.50000000000003" y2="145.00000000000006" /><path d="M 25.521815274538298 143.00000000000003 a86.0,86.0 0 0,1 -11.493303480769221,-40.785679425670985" fill="none" id="id21" stroke="none" /><text fill="#e1ed5e" style="font-size:6.75px; font-family:Arial;" text-anchor="middle"><textPath startOffset="21.40746469413373" xlink:href="#id21">September</textPath></text><path d="M 81.4637452351635 109.86951160357371 l -19.13535307760806 10.188497710777911 a42.678727430530856,42.678727430530856 0 0,0 -0.3387714042422377,-0.6496388363184807 l 19.307432550825247 -9.858512631354927" fill="#ffb110" stroke="none" /><path d="M 80.9802524753101 108.90220220490708 l -33.128402716697806 15.505765222529956 a57.57758632955338,57.57758632955338 0 0,0 -0.41131106788486466,-0.8987889131577386 l 33.38969824943773 -14.934787327157528" fill="#7cff26" stroke="none" /><line stroke="#e1ed5e" stroke-width="0.3" x1="15.003131293944662" x2="10.003315487706104" y1="100.72959589197737" y2="100.7725132973878" /><path d="M 14.003168132696942 100.73817937305945 a86.0,86.0 0 0,1 10.791469493833604,-42.45332614584628" fill="none" id="id22" stroke="none" /><text fill="#e1ed5e" style="font-size:6.75px; font-family:Arial;" text-anchor="middle"><textPath startOffset="22.145653131862435" xlink:href="#id22">October</textPath></text><line stroke="#e1ed5e" stroke-width="0.3" x1="26.387840678322718" x2="22.05771365940052" y1="57.49999999999999" y2="54.99999999999999" /><path d="M 25.521815274538284 56.99999999999999 a86.0,86.0 0 0,1 29.574782752854787,-30.34633250058573" fill="none" id="id23" stroke="none" /><text fill="#e1ed5e" style="font-size:6.75px; font-family:Arial;" text-anchor="middle"><textPath startOffset="21.40746469413373" xlink:href="#id23">November</textPath></text><line stroke="#e1ed5e" stroke-width="0.3" x1="56.869717070023135" x2="54.33264160355391" y1="26.7553504044142" y2="22.446841604673864" /><path d="M 56.362301976729285 25.89364864446614 a86.0,86.0 0 0,1 42.16139366436587,-11.88097634709845" fill="none" id="id24" stroke="none" /><text fill="#e1ed5e" style="font-size:6.75px; font-family:Arial;" text-anchor="middle"><textPath startOffset="22.145653131862474" xlink:href="#id24">December</textPath></text></svg>