<?xml version="1.0" encoding="utf-8" ?>
<svg baseProfile="full" height="200mm" version="1.1" viewBox="0,0,200,200" width="200mm" xmlns="http://www.w3.org/2000/svg" xmlns:ev="http://www.w3.org/2001/xml-events" xmlns:xlink="http://www.w3.org/1999/xlink"><defs /><rect fill="#1a1a1a" height="200" width="200" x="0" y="0" /><text alignment-baseline="middle" fill="#e1ed5e" style="dominant-baseline: central; font-size:9.0px; font-family:Arial;" text-anchor="middle" x="100.0" y="100.0">2018</text><line stroke="#e1ed5e" stroke-width="0.3" x1="100.0" x2="100.0" y1="15.0" y2="10.0" /><path d="M 100.0 14.0 a86.0,86.0 0 0,1 42.46469731375804,11.215312516191453" fill="none" id="id37" stroke="none" /><text fill="#e1ed5e" style="font-size:6.75px; font-family:Arial;" text-anchor="middle"><textPath startOffset="22.20632615414155" xlink:href="#id37">January</textPath></text><line stroke="#e1ed5e" stroke-width="0.3" x1="143.23703022742887" x2="145.7803849466894" y1="26.81831364943548" y2="22.513508569990506" /><path d="M 143.74570117128098 25.957352633546492 a86.0,86.0 0 0,1 28.547481713284135,27.462654790039103" fill="none" id="id38" stroke="none" /><text fill="#e1ed5e" style="font-size:6.75px; font-family:Arial;" text-anchor="middle"><textPath startOffset="19.985693538727396" xlink:href="#id38">February</textPath></text><line stroke="#e1ed5e" stroke-width="0.3" x1="172.23445277983987" x2="176.4835382374775" y1="55.19839476539836" y2="52.563006222186495" /><path d="M 173.08426987136738 54.67131705675599 a86.0,86.0 0 0,1 12.851231095245387,41.99856678651699" fill="none" id="id39" stroke="none" /><text fill="#e1ed5e" style="font-size:6.75px; font-family:Arial;" text-anchor="middle"><textPath startOffset="22.20632615414155" xlink:href="#id39">March</textPath></text><path d="M 120.78858239683441 97.02765380044208 l 8.702371211138049 -1.2442628122881139 a29.790873371997087,29.790873371997087 0 0,0 0.06821258968033289,0.5082630239552742 l -8.722499799876218 1.0942814462681754" fill="#ff6709" stroke="none" /><path d="M 120.96714384426684 98.82574320788733 l 7.312444777783516 -0.40953064523421046 a28.323903602418547,28.323903602418547 0 0,0 0.023072371018078675,0.4870212860911497 l -7.318410757035091 0.283598252520061" fill="#ff5307" stroke="none" /><line stroke="#e1ed5e" stroke-width="0.3" x1="184.98032266829074" x2="189.97916517819016" y1="98.17113171792111" y2="98.06355123074" /><path d="M 185.9800911702706 98.14961562048488 a86.0,86.0 0 0,1 -9.607161424134198,41.387399972396054" fill="none" id="id40" stroke="none" /><text fill="#e1ed5e" style="font-size:6.75px; font-family:Arial;" text-anchor="middle"><textPath startOffset="21.466115282336823" xlink:href="#id40">April</textPath></text><path d="M 120.92983693683757 101.71520430193887 l 9.083475641928908 0.7443926364362539 a30.113926164650245,30.113926164650245 0 0,0 -0.04678471422876469,0.5162654230070596 l -9.06931633142307 -0.900639447991884" fill="#ff6c09" stroke="none" /><path d="M 120.81339534386255 102.79330883721812 l 11.873027327243918 1.593446509317486 a32.97947618602487,32.97947618602487 0 0,0 -0.08035362838254093,0.5619930897563457 l -11.843839647844776 -1.7975850710542411" fill="#ff930d" stroke="none" /><path d="M 120.32669344350535 105.2749913415812 l 11.36132253218408 2.9483830290819486 a32.73765786545562,32.73765786545562 0 0,0 -0.14624679335348278,0.5442387232108278 l -11.30888766248882 -3.1435126854683246" fill="#ff8f0d" stroke="none" /><path d="M 119.9155931802556 106.66101706037122 l 8.477798671852927 2.8355048768313957 a29.939415989146376,29.939415989146376 0 0,0 -0.16767380173945026,0.4873385542216612 l -8.427734039170247 -2.981016134142357" fill="#ff6909" stroke="none" /><path d="M 119.41010516605496 108.01547362559984 l 12.222000907719485 5.047119790943094 a34.223113263238176,34.223113263238176 0 0,0 -0.2295377106510274,0.5425593436354372 l -12.133312215876149 -5.256753660244694" fill="#ffa30f" stroke="none" /><path d="M 119.12269723197855 108.67885076344098 l 10.872092549593736 4.934307518421129 a32.93942155605869,32.93942155605869 0 0,0 -0.23877219368787395,0.5142940630321314 l -10.78554573906603 -5.120721648732091" fill="#ff920d" stroke="none" /><path d="M 118.81262510543309 109.33194174019688 l 1.384625077578323 0.686838784250521 a22.545617715028367,22.545617715028367 0 0,0 -0.1754492779752473,0.3461780703224772 l -1.3725971298168067 -0.7105710662756927" fill="#ff0000" stroke="none" /><line stroke="#e1ed5e" stroke-width="0.3" x1="174.80103733775053" x2="179.2010983576182" y1="140.37084112569926" y2="142.7455964860345" /><path d="M 175.68104954172406 140.8457921977663 a86.0,86.0 0 0,1 -30.038265399797805,32.042727171017184" fill="none" id="id41" stroke="none" /><text fill="#e1ed5e" style="font-size:6.75px; font-family:Arial;" text-anchor="middle"><textPath startOffset="22.206326154141568" xlink:href="#id41">May</textPath></text><path d="M 118.12598468904814 110.60418214915192 l 1.5041770478346774 0.8799834973627662 a22.74267597299769,22.74267597299769 0 0,0 -0.20058945371417147,0.33619946230877207 l -1.4888067184222786 -0.9057450535576423" fill="#ff0300" stroke="none" /><path d="M 116.498646956653 112.99209946851258 l 9.27597049481891 7.304497856842634 a32.80674881418969,32.80674881418969 0 0,0 -0.3531913462192357,0.44066051006060253 l -9.148861236544821 -7.463086200481486" fill="#ff900d" stroke="none" /><path d="M 116.0416608686014 113.55231037782055 l 11.275894244346391 9.526097069285933 a35.761175982391855,35.761175982391855 0 0,0 -0.4013042374670574,0.46680749036611185 l -11.110247497308555 -9.718781658813574" fill="#ffb711" stroke="none" /><path d="M 115.56566222782051 114.09645910891815 l 10.920360259557096 9.889615334088857 a35.7329141602997,35.7329141602997 0 0,0 -0.4168050322069496,0.4523595424670138 l -10.748508819354425 -10.076126131357206" fill="#ffb711" stroke="none" /><path d="M 114.81725581225074 114.88116024355365 l 6.041837449511831 6.067894918663203 a29.5628936995774,29.5628936995774 0 0,0 -0.36369404739024547,0.3559511728213853 l -5.936493449745792 -6.17099619440716" fill="#ff6409" stroke="none" /><path d="M 114.55890576462653 115.13401014063108 l 8.410457889936744 8.74268691970742 a33.13137982648398,33.13137982648398 0 0,0 -0.4144012494097449,0.39184224693874015 l -8.258720806136191 -8.886163803392083" fill="#ff950d" stroke="none" /><path d="M 113.75828350139079 115.86535959552629 l 7.669934285942042 8.844581921009672 a32.707028713901764,32.707028713901764 0 0,0 -0.42851584560858064,0.3651905000803668 l -7.516552963756414 -8.975296811312985" fill="#ff8f0d" stroke="none" /><path d="M 113.20401910651253 116.32954008644616 l 8.453577750319946 10.454622614083684 a34.444780057093325,34.444780057093325 0 0,0 -0.46425413857900366,0.36883156544727946 l -8.272366119023593 -10.598588093536089" fill="#ffa60f" stroke="none" /><path d="M 112.04921762599082 117.19931262002967 l 8.62424960857066 12.31043954347848 a36.03078850441885,36.03078850441885 0 0,0 -0.5110248713166721,0.35148756626516603 l -8.411067852631104 -12.457067899108742" fill="#ffbb11" stroke="none" /><line stroke="#e1ed5e" stroke-width="0.3" x1="143.8653032363475" x2="146.44561519142675" y1="172.8068346515853" y2="177.08958963109032" /><path d="M 144.38136562736335 173.6633856474863 a86.0,86.0 0 0,1 -40.68145358897372,12.25698825130547" fill="none" id="id42" stroke="none" /><text fill="#e1ed5e" style="font-size:6.75px; font-family:Arial;" text-anchor="middle"><textPath startOffset="21.466115282336833" xlink:href="#id42">June</textPath></text><path d="M 110.5260780823613 118.17145234162733 l 7.40737866869663 12.787557474057094 a35.77805416466509,35.77805416466509 0 0,0 -0.5355654973248858,0.30410806678195373 l -7.186164404450546 -12.913168706633675" fill="#ffb811" stroke="none" /><path d="M 109.89434966115114 118.52300852407294 l 7.616638806377317 14.258952873805923 a37.16573301042149,37.16573301042149 0 0,0 -0.566882018929016,0.29656587980485 l -7.3700658849218055 -14.38794817255549" fill="#ffc912" stroke="none" /><path d="M 109.2508944713604 118.85261126421891 l 8.264842535888851 16.843113276394387 a39.76161205718982,39.76161205718982 0 0,0 -0.6170383652060651,0.29621591265861325 l -7.973691502682553 -16.98288346555256" fill="#ffea16" stroke="none" /><path d="M 108.59647513512805 119.15986991738527 l 3.0984791167261867 6.905906884511016 a28.569156012021747,28.569156012021747 0 0,0 -0.4504122332408351,0.1974474866573903 l -2.9791462088275975 -6.958218924462861" fill="#ff5608" stroke="none" /><path d="M 107.93186726928326 119.44442032107085 l 5.6288701134217405 13.798783149327228 a35.902704290025,35.902704290025 0 0,0 -0.5742362706724128,0.2285004629865528 l -5.390512766707461 -13.89363045671985" fill="#ffb911" stroke="none" /><path d="M 106.57524785965236 119.94407469862006 l 2.8135761381471487 8.534153216306049 a29.985988081704644,29.985988081704644 0 0,0 -0.49159693537563653,0.15739381458772708 l -2.6662578576805718 -8.581319877553483" fill="#ff6a09" stroke="none" /><path d="M 105.88484417918355 120.15858648285463 l 6.169027099030039 21.13205762197838 a43.01410354039386,43.01410354039386 0 0,0 -0.7125364739821122,0.20136992488180958 l -5.804359456943321 -21.235116340198708" fill="#ecff1a" stroke="none" /><path d="M 105.18746579009965 120.34920634021253 l 4.001116990843864 15.695439455890448 a37.19739969525794,37.19739969525794 0 0,0 -0.6218107132911515,0.15282594474747338 l -3.7303529928095016 -15.761986658951951" fill="#ffca12" stroke="none" /><path d="M 104.48393922423573 120.51570834832081 l 3.133435519267458 14.336645977291864 a35.67507533308112,35.67507533308112 0 0,0 -0.6010545841425845,0.12595683205133626 l -2.886189473695495 -14.388458790069741" fill="#ffb610" stroke="none" /><path d="M 103.41894727170886 120.7198165907248 l 3.1629076987909195 19.168142180672945 a40.427343095996534,40.427343095996534 0 0,0 -0.6875808134992276,0.10738598225495163 l -2.832491021683175 -19.219746470275002" fill="#fff316" stroke="none" /><path d="M 101.98527174616119 120.90594882070398 l 1.3853763692624177 14.58873704782037 a35.654368506863655,35.654368506863655 0 0,0 -0.6114820673849509,0.05276124575632682 l -1.134049984135925 -14.61042254585536" fill="#ffb610" stroke="none" /><path d="M 101.62511606390274 120.93702456842531 l 0.7104061443011145 9.152448386408278 a30.17997757926065,30.17997757926065 0 0,0 -0.5182868473303972,0.03574409546940995 l -0.5527565361917869 -9.163320826393972" fill="#ff6d0a" stroke="none" /><line stroke="#e1ed5e" stroke-width="0.3" x1="102.19456741930631" x2="102.32365962044197" y1="184.97166512339345" y2="189.96999836594603" /><path d="M 102.22038585953345 185.97133177190398 a86.0,86.0 0 0,1 -42.740103519485714,-10.115201625700543" fill="none" id="id43" stroke="none" /><text fill="#e1ed5e" style="font-size:6.75px; font-family:Arial;" text-anchor="middle"><textPath startOffset="22.20632615414155" xlink:href="#id43">July</textPath></text><path d="M 100.54218724476979 120.99299961872073 l 0.3821790211163428 14.797625952976707 a35.80256040853714,35.80256040853714 0 0,0 -0.6162137398427692,0.010608678362208626 l -0.12740559138090565 -14.802012108618074" fill="#ffb811" stroke="none" /><path d="M 99.81925306533755 120.99922214144158 l -0.06619201449531832 7.6902040909991225 a28.69048895350631,28.69048895350631 0 0,0 -0.49380472497553834,-0.008501296161200562 l 0.1985564293635246 -7.687925317558762" fill="#ff5808" stroke="none" /><path d="M 99.09653310690486 120.98055641714683 l -0.5064388126972099 11.760661251488486 a32.77156036145034,32.77156036145034 0 0,0 -0.5633773479614823,-0.02912017376422991 l 0.7088042290721812 -11.750201270962053" fill="#ff900d" stroke="none" /><path d="M 98.01472825383883 120.90594882070398 l -1.4196757352470124 14.949927293560425 a36.01718366658649,36.01718366658649 0 0,0 -0.6166954861225685,-0.06392300865231132 l 1.6768038179751743 -14.923274916452351" fill="#ffbb11" stroke="none" /><path d="M 95.51606077576429 120.51570834832081 l -3.630045350613292 16.608822729316582 a38.00088885033286,38.00088885033286 0 0,0 -0.6378356011858933,-0.1451693062154746 l 3.915401101192048 -16.54387668952342" fill="#ffd413" stroke="none" /><path d="M 94.46302465271185 120.25689768951611 l -2.843739623521448 10.403756382536624 a31.78540689605902,31.78540689605902 0 0,0 -0.5265310651548382,-0.14880293838941172 l 3.0224018567809003 -10.353264650808692" fill="#ff830c" stroke="none" /><path d="M 93.42475214034765 119.94407469862007 l -6.912399621302856 20.966725108559828 a43.07679393169445,43.07679393169445 0 0,0 -0.7022138271830978,-0.23822905624914537 l 7.272283181423179 -20.84463306541256" fill="#ebff1a" stroke="none" /><path d="M 90.7491055286396 118.85261126421891 l -4.088312444376045 8.331666249042817 a30.280676760251875,30.280676760251875 0 0,0 -0.465956303228421,-0.23364016353291098 l 4.231122655287226 -8.260058244600604" fill="#ff6e0a" stroke="none" /><line stroke="#e1ed5e" stroke-width="0.3" x1="58.666819895761336" x2="56.23545636021788" y1="174.27360380694188" y2="178.64263932499728" /><path d="M 58.180547188652646 175.14741091055294 a86.0,86.0 0 0,1 -31.652253787137756,-30.449443065178592" fill="none" id="id44" stroke="none" /><text fill="#e1ed5e" style="font-size:6.75px; font-family:Arial;" text-anchor="middle"><textPath startOffset="22.20632615414155" xlink:href="#id44">August</textPath></text><path d="M 88.54995079064634 117.60387380957326 l -8.128003099525227 12.496395279329912 a35.90719052548637,35.90719052548637 0 0,0 -0.5152259524997034,-0.34146366690431856 l 8.341903750764892 -12.354633591334276" fill="#ffb911" stroke="none" /><path d="M 87.36589467227662 116.77436683061367 l -7.073772269521733 9.39188394011608 a32.75779477902489,32.75779477902489 0 0,0 -0.4474890590480139,-0.3431155285656363 l 7.234390057063234 -9.268729069723076" fill="#ff900d" stroke="none" /><path d="M 86.79598089348748 116.32954008644616 l -3.8355598251008454 4.743474499143575 a27.100169628457312,27.100169628457312 0 0,0 -0.3602127078480199,-0.2964305354026204 l 3.916642661493554 -4.6767488448837735" fill="#ff4206" stroke="none" /><path d="M 85.97065885151581 115.62618273729859 l -5.949432232012652 6.6266059294344375 a29.905484266862004,29.905484266862004 0 0,0 -0.38008510591606476,-0.3471987325234431 l 6.062616887395571 -6.523214430324418" fill="#ff6909" stroke="none" /><path d="M 85.70375840098266 115.38237550388516 l -10.003771503966114 10.76379191434831 a35.69471539972634,35.69471539972634 0 0,0 -0.4464629827203036,-0.42215861697636436 l 10.187570321077235 -10.589998660626014" fill="#ffb610" stroke="none" /><path d="M 84.67929136418377 114.36230785411682 l -21.362069052684515 20.025745507509356 a50.28085513340061,50.28085513340061 0 0,0 -0.5864988606653747,-0.6365286783204737 l 21.70361432134562 -19.65506557438754" fill="#98ff23" stroke="none" /><path d="M 83.95833913139862 113.55231037782056 l -9.03668938364067 7.634372794575348 a32.829852196158505,32.829852196158505 0 0,0 -0.3609782949998556,-0.43482161042764544 l 9.166763678534062 -7.477689927033941" fill="#ff910d" stroke="none" /><path d="M 83.72743513129214 113.27417163493432 l -14.761112609528272 12.041220537904705 a40.04944717081398,40.04944717081398 0 0,0 -0.43116488749648413,-0.5379444917840257 l 14.966195409079617 -11.78534821254242" fill="#ffee16" stroke="none" /><path d="M 83.28015986056508 112.70617746262583 l -24.633562285517385 18.720179817880076 a51.93957858937689,51.93957858937689 0 0,0 -0.5348261277408543,-0.716486998145552 l 24.952149679953326 -18.293379940225215" fill="#86ff25" stroke="none" /><path d="M 82.6465618267979 111.8261652097733 l -7.311530470541445 4.98272252552472 a29.847937702539923,29.847937702539923 0 0,0 -0.2856829899097382,-0.42705730793797936 l 7.396216565861915 -4.856128303380919" fill="#ff6809" stroke="none" /><path d="M 82.44556493220864 111.52570212397912 l -12.335554028835414 8.099145356803302 a35.756762812654614,35.756762812654614 0 0,0 -0.3333809647665849,-0.5174146607379876 l 12.473139856979046 -7.885609096143866" fill="#ffb711" stroke="none" /><path d="M 82.05923443525364 110.91462005526583 l -27.093325985090406 16.482761457058434 a52.713242315863354,52.713242315863354 0 0,0 -0.4649285990881485,-0.7792470747147935 l 27.373035459876785 -16.01395228845753" fill="#7dff26" stroke="none" /><line stroke="#e1ed5e" stroke-width="0.3" x1="26.63291911575756" x2="22.317208475507996" y1="142.92168965132927" y2="145.44649492493687" /><path d="M 25.769776987707644 143.4266507060508 a86.0,86.0 0 0,1 -11.730757126820373,-40.83630448921669" fill="none" id="id45" stroke="none" /><text fill="#e1ed5e" style="font-size:6.75px; font-family:Arial;" text-anchor="middle"><textPath startOffset="21.46611528233685" xlink:href="#id45">September</textPath></text><path d="M 80.87730276802145 108.67885076344099 l -8.032555065602505 3.645581259682643 a29.82112258178548,29.82112258178548 0 0,0 -0.20812149417533402,-0.46925902689553545 l 8.094117644509119 -3.506773896294412" fill="#ff6809" stroke="none" /><path d="M 80.73074385275274 108.34839909993369 l -9.023024455225078 3.9092224767296884 a30.833462802703757,30.833462802703757 0 0,0 -0.20680299915258746,-0.4888212013783331 l 9.088978435569972 -3.753326749685196" fill="#ff760a" stroke="none" /><path d="M 80.58989483394504 108.01547362559985 l -13.888374626594372 5.735254887572728 a36.025980779771324,36.025980779771324 0 0,0 -0.23176265819812855,-0.575215910930489 l 13.98503989904989 -5.4953396087994335" fill="#ffbb11" stroke="none" /><path d="M 79.76711848015287 105.62410040840567 l -60.698644559541364 16.872301225217015 a84.0,84.0 0 0,0 -0.3752476946329004,-1.3964362672978443 l 60.98008033051604 -15.824974024743632" fill="#4dd2ff" stroke="none" /><line stroke="#e1ed5e" stroke-width="0.3" x1="15.007084014347285" x2="10.007500721073583" y1="101.09737516637583" y2="101.16192664675087" /><path d="M 14.007167355692545 101.11028546245083 a86.0,86.0 0 0,1 10.666146001902534,-42.60595125391555" fill="none" id="id46" stroke="none" /><text fill="#e1ed5e" style="font-size:6.75px; font-family:Arial;" text-anchor="middle"><textPath startOffset="22.20632615414155" xlink:href="#id46">October</textPath></text><line stroke="#e1ed5e" stroke-width="0.3" x1="26.266209847984243" x2="21.928928074336255" y1="57.711370442889674" y2="55.22380399835377" /><path d="M 25.398753493254645 57.213857153982495 a86.0,86.0 0 0,1 29.58750427330803,-30.492523968695096" fill="none" id="id47" stroke="none" /><text fill="#e1ed5e" style="font-size:6.75px; font-family:Arial;" text-anchor="middle"><textPath startOffset="21.46611528233685" xlink:href="#id47">November</textPath></text><path d="M 81.78341655067845 89.55222093294921 l -9.796838992758632 -5.618792878289296 a32.29375436509713,32.29375436509713 0 0,0 0.2807101159228664,-0.4798245816331751 l 9.69866920236544 5.786596872276363" fill="#ff890c" stroke="none" /><path d="M 82.7489923806493 88.02491185347247 l -8.006533212920745 -5.557874826121886 a30.74651459099315,30.74651459099315 0 0,0 0.3055433133407711,-0.43216934830586895 l 7.909677279776097 5.6948706747595415" fill="#ff750a" stroke="none" /><path d="M 83.17141714833178 87.43820079747576 l -7.603964535107242 -5.676026108381661 a30.488811781998784,30.488811781998784 0 0,0 0.31755412812865697,-0.41786400934081797 l 7.505134466754476 5.806074893603506" fill="#ff710a" stroke="none" /><path d="M 83.6137871275137 86.86637796730984 l -12.617577793619764 -10.113044362295204 a37.17024847217251,37.17024847217251 0 0,0 0.404450372656504,-0.49580833412650077 l 12.441628928886868 10.328736866029786" fill="#ffca12" stroke="none" /><path d="M 85.05521093208273 85.24692304244772 l -6.440893499038771 -6.3582695637175535 a30.050563568687693,30.050563568687693 0 0,0 0.3665656462425796,-0.36499149686343524 l 6.330492052628879 6.4681969112310975" fill="#ff6b09" stroke="none" /><line stroke="#e1ed5e" stroke-width="0.3" x1="56.762969772571076" x2="54.21961505331055" y1="26.818313649435495" y2="22.513508569990535" /><path d="M 56.25429882871897 25.957352633546506 a86.0,86.0 0 0,1 42.265352541879196,-11.944610805530505" fill="none" id="id48" stroke="none" /><text fill="#e1ed5e" style="font-size:6.75px; font-family:Arial;" text-anchor="middle"><textPath startOffset="22.20632615414155" xlink:href="#id48">December</textPath></text><path d="M 91.56875222667455 80.76684994638697 l -9.287129955660312 -21.18556692993115 a44.13177530921298,44.13177530921298 0 0,0 0.6983669396571484,-0.29900427727786105 l 8.921079258212854 21.342290735171794" fill="#dfff1b" stroke="none" /><path d="M 93.94186890950719 79.89281104454417 l -2.567945976951252 -8.523119459562762 a29.90156794404882,29.90156794404882 0 0,0 0.4941017419996527,-0.14424184765158155 l 2.420854017228178 8.566059636133042" fill="#ff6909" stroke="none" /><path d="M 94.28887869178378 79.79150937346287 l -6.41384357429442 -22.695034960076324 a44.58393523639777,44.58393523639777 0 0,0 0.7403101106497504,-0.2023547186170221 l 6.0222355744209475 22.80207621951964" fill="#d9ff1c" stroke="none" /><path d="M 96.40284397218896 79.31037775812273 l -1.7560243608173125 -10.100056931629087 a31.251574102445566,31.251574102445566 0 0,0 0.5307868449775572,-0.08758437737848065 l 1.5819083097008695 10.128787571947194" fill="#ff7b0b" stroke="none" /><path d="M 96.75951476605007 79.25152402106235 l -4.82251906848515 -30.87806727280377 a52.25238756750751,52.25238756750751 0 0,0 0.8898606971811956,-0.13114233526506935 l 4.290289390875305 30.956504092229807" fill="#82ff25" stroke="none" /><path d="M 99.27714615592234 79.0124445844662 l -0.35594153601036055 -10.334513363817797 a31.340641220155838,31.340641220155838 0 0,0 0.539317760613228,-0.013928986614259321 l 0.17799714020225355 10.339109142574415" fill="#ff7d0b" stroke="none" /></svg>