<?xml version="1.0" encoding="utf-8" ?>
<svg baseProfile="full" height="200mm" version="1.1" viewBox="0,0,200,200" width="200mm" xmlns="http://www.w3.org/2000/svg" xmlns:ev="http://www.w3.org/2001/xml-events" xmlns:xlink="http://www.w3.org/1999/xlink"><defs /><rect fill="#1a1a1a" height="200" width="200" x="0" y="0" /><text alignment-baseline="middle" fill="#e1ed5e" style="dominant-baseline: central; font-size:9.0px; font-family:Arial;" text-anchor="middle" x="100.0" y="100.0">2016</text><line stroke="#e1ed5e" stroke-width="0.3" x1="100.0" x2="100.0" y1="15.0" y2="10.0" /><path d="M 100.0 14.0 a86.0,86.0 0 0,1 42.35913384403234,11.155469271406648" fill="none" id="id13" stroke="none" /><text fill="#e1ed5e" style="font-size:6.75px; font-family:Arial;" text-anchor="middle"><textPath startOffset="22.145653131862478" xlink:href="#id13">January</textPath></text><line stroke="#e1ed5e" stroke-width="0.3" x1="143.13028292997686" x2="145.6673583964461" y1="26.7553504044142" y2="22.446841604673864" /><path d="M 143.63769802327073 25.89364864446614 a86.0,86.0 0 0,1 29.32050498858742,28.57503671076993" fill="none" id="id14" stroke="none" /><text fill="#e1ed5e" style="font-size:6.75px; font-family:Arial;" text-anchor="middle"><textPath startOffset="20.669276256404974" xlink:href="#id14">February</textPath></text><line stroke="#e1ed5e" stroke-width="0.3" x1="172.87174338648825" x2="177.1583165268699" y1="56.24261187166439" y2="53.66864786411523" /><path d="M 173.72905801456457 55.72781907015455 a86.0,86.0 0 0,1 12.242430191666344,42.057860355516425" fill="none" id="id15" stroke="none" /><text fill="#e1ed5e" style="font-size:6.75px; font-family:Arial;" text-anchor="middle"><textPath startOffset="22.145653131862474" xlink:href="#id15">March</textPath></text><path d="M 120.9064616781168 98.02013634271609 l 21.229827005246566 -2.010486689964767 a42.32481210710242,42.32481210710242 0 0,0 0.06229079105853979,0.7239134134595688 l -21.261211419002848 1.645752229129536" fill="#ffb911" stroke="none" /><path d="M 120.93736805541906 98.37931529534042 l 24.139998567263923 -1.868588561127326 a45.21221084573402,45.21221084573402 0 0,0 0.053255762061585575,0.7743270923423321 l -24.168518290490574 1.4539180446306599" fill="#ffe415" stroke="none" /><path d="M 120.98066250479742 99.09900007780936 l 22.110209325669263 -0.9495075228197214 a43.1305879036415,43.1305879036415 0 0,0 0.025416882157977105,0.7399847917785037 l -22.12325089482409 0.5698164664770977" fill="#ffc512" stroke="none" /><path d="M 120.99303781780057 99.45929381324524 l 11.344393218826907 -0.29219132798385666 a32.348155501028124,32.348155501028124 0 0,0 0.009532798713100015,0.5552377339551332 l -11.347737449138672 0.09740667805965704" fill="#ff1b02" stroke="none" /><line stroke="#e1ed5e" stroke-width="0.3" x1="184.99686870605535" x2="189.99668451229388" y1="99.2704041080226" y2="99.22748670261217" /><path d="M 185.99683186730306 99.26182062694052 a86.0,86.0 0 0,1 -10.086455211305974,41.156179273409016" fill="none" id="id16" stroke="none" /><text fill="#e1ed5e" style="font-size:6.75px; font-family:Arial;" text-anchor="middle"><textPath startOffset="21.40746469413373" xlink:href="#id16">April</textPath></text><path d="M 120.9064616781168 101.97986365728391 l 23.17322357380504 2.1945283655490453 a44.27690369333415,44.27690369333415 0 0,0 -0.0781542327729324,0.7560713062735142 l -23.13213694855044 -2.592004194105491" fill="#ffd614" stroke="none" /><path d="M 120.86939407059847 102.33845913500097 l 10.694045084583475 1.1982900573710538 a31.760971114759965,31.760971114759965 0 0,0 -0.06536394809271479,0.5413072566202651 l -10.671899050231097 -1.3816909909147275" fill="#ff1101" stroke="none" /><path d="M 120.77682067341334 103.0534771498775 l 33.315120398831404 4.896175429449704 a54.672982954062434,54.672982954062434 0 0,0 -0.1444369292686342,0.9273886979665424 l -33.226161977424496 -5.467352309347697" fill="#99ff23" stroke="none" /><path d="M 120.7213421655516 103.40968896794604 l 22.237311890828163 3.659141209346156 a43.53635628312401,43.53635628312401 0 0,0 -0.12767592606758585,0.7364008130008182 l -22.171221147268344 -4.040335055267562" fill="#ffcb12" stroke="none" /><path d="M 119.4528033332814 107.91128576633889 l 32.79308868924308 13.3366636847469 a56.40131726391843,56.40131726391843 0 0,0 -0.3724478589811251,0.8937392766724034 l -32.559314985725464 -13.897635470860582" fill="#83ff25" stroke="none" /><path d="M 119.31412917781788 108.2440532568976 l 20.640539589583398 8.810218988441806 a43.44218868946298,43.44218868946298 0 0,0 -0.29864667322782157,0.6833620331468767 l -20.486259034338612 -9.163243091364528" fill="#ffca12" stroke="none" /><path d="M 119.16976305983485 108.57439118712176 l 20.49758883848299 9.168310768649016 a43.454600208911046,43.454600208911046 0 0,0 -0.3104221478499706,0.6783284153303297 l -20.337182225777962 -9.518828166194035" fill="#ffca12" stroke="none" /><path d="M 118.8641267826498 109.22738970284198 l 19.568756108915988 9.572059215744579 a42.78441032665235,42.78441032665235 0 0,0 -0.32838071283974674,0.6569813991982976 l -19.40155548286451 -9.906572471106623" fill="#ffc011" stroke="none" /><line stroke="#e1ed5e" stroke-width="0.3" x1="174.33088141563837" x2="178.70328620479359" y1="141.23008692659167" y2="143.65538615756765" /><path d="M 175.20536237346943 141.71514677278685 a86.0,86.0 0 0,1 -30.301960400862466,31.631185727798858" fill="none" id="id17" stroke="none" /><text fill="#e1ed5e" style="font-size:6.75px; font-family:Arial;" text-anchor="middle"><textPath startOffset="22.145653131862474" xlink:href="#id17">May</textPath></text><path d="M 117.81537515405839 111.11811171558189 l 8.27501076289864 5.164218733198623 a30.754227711633963,30.754227711633963 0 0,0 -0.2833523319004745,0.44547692931891864 l -8.185140739372276 -5.305509337196213" fill="#ff0000" stroke="none" /><path d="M 117.01052211995028 112.31430620078461 l 49.02360650256723 35.48931051512914 a81.52111330236588,81.52111330236588 0 0,0 -0.8303429284120947,1.1265196543677891 l -48.40716155457131 -36.32563647876581" fill="#49edff" stroke="none" /><path d="M 116.1254893667686 113.45245675266167 l 26.25797393799878 21.905335756283524 a55.19539340209638,55.19539340209638 0 0,0 -0.6132088261939347,0.7223584553647933 l -25.878070548297732 -22.352860994097874" fill="#93ff23" stroke="none" /><path d="M 115.89218393027572 113.72728997021213 l 24.616779655415723 21.263387961357893 a53.52871820712444,53.52871820712444 0 0,0 -0.6066306044654398,0.6902342702375422 l -24.248137986991697 -21.682834509406728" fill="#a8ff21" stroke="none" /><path d="M 115.41159269507618 114.26474011684316 l 45.58655655160422 42.19423617639237 a83.11672644901523,83.11672644901523 0 0,0 -0.9781816219434866,1.0387949846667208 l -44.85551909592447 -42.97057262100359" fill="#4cdbff" stroke="none" /><path d="M 114.91283532996324 114.78537596483092 l 26.05389600173234 25.83121446799796 a57.6886513483501,57.6886513483501 0 0,0 -0.7032743267610964,0.69726347119812 l -25.60662975484128 -26.27465794942474" fill="#74ff27" stroke="none" /><path d="M 114.39649973595853 115.28858382429668 l 24.256200108082894 25.759243942128172 a56.38222565290979,56.38222565290979 0 0,0 -0.7103361111818022,0.6574764998074912 l -23.810434225587123 -26.171838188068044" fill="#84ff25" stroke="none" /><line stroke="#e1ed5e" stroke-width="0.3" x1="143.1302829299769" x2="145.66735839644613" y1="173.24464959558577" y2="177.55315839532614" /><path d="M 143.63769802327073 174.10635135553383 a86.0,86.0 0 0,1 -40.68552437913181,11.842963189579606" fill="none" id="id18" stroke="none" /><text fill="#e1ed5e" style="font-size:6.75px; font-family:Arial;" text-anchor="middle"><textPath startOffset="21.407464694133747" xlink:href="#id18">June</textPath></text><line stroke="#e1ed5e" stroke-width="0.3" x1="101.45913802915013" x2="101.54496967792366" y1="184.9874750549273" y2="189.98673829345242" /><path d="M 101.47630435890484 185.9873277026323 a86.0,86.0 0 0,1 -42.54439059252881,-10.42667462771756" fill="none" id="id19" stroke="none" /><text fill="#e1ed5e" style="font-size:6.75px; font-family:Arial;" text-anchor="middle"><textPath startOffset="22.145653131862474" xlink:href="#id19">July</textPath></text><path d="M 97.48249496171623 120.84855314841334 l -4.358072615267414 36.09109303153094 a57.35326385801645,57.35326385801645 0 0,0 -0.9764316102947639,-0.12641862079452573 l 4.976982047452972 -36.010962814536015" fill="#78ff26" stroke="none" /><path d="M 96.76829788921471 120.74984581791261 l -5.7228725221843835 36.74494690416847 a58.187933431360946,58.187933431360946 0 0,0 -0.9856550939231351,-0.1621891706192967 l 6.352805119160583 -36.64129173505351" fill="#6dff28" stroke="none" /><path d="M 96.05791012581884 120.62667999033965 l -8.374933768537582 43.8211923871462 a65.61430732241251,65.61430732241251 0 0,0 -1.1045184875202196,-0.2209346313483912 l 9.12594874158876 -43.670968359134946" fill="#32ff4d" stroke="none" /><path d="M 93.95794788825049 120.11202640906438 l -10.857680814423063 36.1416881619113 a58.73739333685794,58.73739333685794 0 0,0 -0.963179599821444,-0.2983955021199525 l 11.47650104711614 -35.9499760719847" fill="#67ff28" stroke="none" /><path d="M 92.59220618246901 119.65005319985036 l -13.098566281201078 34.745503264176214 a58.132498376811355,58.132498376811355 0 0,0 -0.930750400230187,-0.36003424960491714 l 13.693088943924794 -34.51552912643326" fill="#6eff28" stroke="none" /><path d="M 91.26138138417905 119.09545874513695 l -11.685465827012619 25.534851722838834 a49.08164461176811,49.08164461176811 0 0,0 -0.7631290908328983,-0.35718294715650295 l 12.122083631717008 -25.330492544111806" fill="#e4ff1b" stroke="none" /><line stroke="#e1ed5e" stroke-width="0.3" x1="58.13341422392154" x2="55.67067388415222" y1="173.97424548756322" y2="178.32567169271397" /><path d="M 57.64086615596768 174.84453072859336 a86.0,86.0 0 0,1 -31.369924170532247,-30.572349798747897" fill="none" id="id20" stroke="none" /><text fill="#e1ed5e" style="font-size:6.75px; font-family:Arial;" text-anchor="middle"><textPath startOffset="22.145653131862474" xlink:href="#id20">August</textPath></text><path d="M 89.03521579738668 117.91015095944536 l -25.81299548387414 42.163588200986204 a70.43762641786972,70.43762641786972 0 0,0 -1.0258263257854259,-0.6401914970771169 l 26.53298593844928 -41.71426090706754" fill="#39ff8d" stroke="none" /><path d="M 88.1277618465304 117.32195027204791 l -20.945438006565606 30.56002001357773 a58.04897024907918,58.04897024907918 0 0,0 -0.8171219313302789,-0.5704145689557771 l 21.466955029069652 -30.195960628816824" fill="#6fff27" stroke="none" /><path d="M 85.08716467003676 114.78537596483092 l -23.700511835401542 23.49794457538615 a54.37465596119199,54.37465596119199 0 0,0 -0.6514943391771297,-0.6684905855144527 l 24.10039297572948 -23.08763129780396" fill="#9dff22" stroke="none" /><path d="M 83.8745106332314 113.45245675266167 l -19.143107415528423 15.969861054242116 a45.92980191686766,45.92980191686766 0 0,0 -0.4998763009447513,-0.6097678084029897 l 19.414430535711805 -15.638890964140632" fill="#ffee16" stroke="none" /><path d="M 83.64595745247003 113.17365903436017 l -48.35926385630108 38.954799789963104 a83.0974623265674,83.0974623265674 0 0,0 -0.8853186595691088,-1.1185712052867518 l 49.02084894651175 -38.118908640761674" fill="#4cdcff" stroke="none" /><path d="M 82.576782715395 111.72311816256416 l -52.26965185381499 35.16935448769248 a84.0,84.0 0 0,0 -0.7947022443170932,-1.2032804866437559 l 52.86567853705281 -34.266894122709665" fill="#4dd2ff" stroke="none" /><line stroke="#e1ed5e" stroke-width="0.3" x1="26.387840678322732" x2="22.057713659400548" y1="142.50000000000003" y2="145.00000000000006" /><path d="M 25.521815274538298 143.00000000000003 a86.0,86.0 0 0,1 -11.493303480769221,-40.785679425670985" fill="none" id="id21" stroke="none" /><text fill="#e1ed5e" style="font-size:6.75px; font-family:Arial;" text-anchor="middle"><textPath startOffset="21.40746469413373" xlink:href="#id21">September</textPath></text><path d="M 81.4637452351635 109.86951160357371 l -19.050843068323932 10.143500890879315 a42.58298477822693,42.58298477822693 0 0,0 -0.3380114267377614,-0.6481814792468574 l 19.22216256403664 -9.814973168527954" fill="#ffbd11" stroke="none" /><path d="M 80.9802524753101 108.90220220490708 l -31.77298636913157 14.87136193288545 a56.08104999215239,56.08104999215239 0 0,0 -0.400620415526814,-0.8754279083998281 l 32.023591249513444 -14.323745042270932" fill="#87ff25" stroke="none" /><line stroke="#e1ed5e" stroke-width="0.3" x1="15.003131293944662" x2="10.003315487706104" y1="100.72959589197737" y2="100.7725132973878" /><path d="M 14.003168132696942 100.73817937305945 a86.0,86.0 0 0,1 10.791469493833604,-42.45332614584628" fill="none" id="id22" stroke="none" /><text fill="#e1ed5e" style="font-size:6.75px; font-family:Arial;" text-anchor="middle"><textPath startOffset="22.145653131862435" xlink:href="#id22">October</textPath></text><line stroke="#e1ed5e" stroke-width="0.3" x1="26.387840678322718" x2="22.05771365940052" y1="57.49999999999999" y2="54.99999999999999" /><path d="M 25.521815274538284 56.99999999999999 a86.0,86.0 0 0,1 29.574782752854787,-30.34633250058573" fill="none" id="id23" stroke="none" /><text fill="#e1ed5e" style="font-size:6.75px; font-family:Arial;" text-anchor="middle"><textPath startOffset="21.40746469413373" xlink:href="#id23">November</textPath></text><line stroke="#e1ed5e" stroke-width="0.3" x1="56.869717070023135" x2="54.33264160355391" y1="26.7553504044142" y2="22.446841604673864" /><path d="M 56.362301976729285 25.89364864446614 a86.0,86.0 0 0,1 42.16139366436587,-11.88097634709845" fill="none" id="id24" stroke="none" /><text fill="#e1ed5e" style="font-size:6.75px; font-family:Arial;" text-anchor="middle"><textPath startOffset="22.145653131862474" xlink:href="#id24">December</textPath></text></svg>