<?xml version="1.0" encoding="utf-8" ?>
<svg baseProfile="full" height="200mm" version="1.1" viewBox="0,0,200,200" width="200mm" xmlns="http://www.w3.org/2000/svg" xmlns:ev="http://www.w3.org/2001/xml-events" xmlns:xlink="http://www.w3.org/1999/xlink"><defs /><rect fill="#1a1a1a" height="200" width="200" x="0" y="0" /><text alignment-baseline="middle" fill="#e1ed5e" style="dominant-baseline: central; font-size:9.0px; font-family:Arial;" text-anchor="middle" x="100.0" y="100.0">2017</text><line stroke="#e1ed5e" stroke-width="0.3" x1="100.0" x2="100.0" y1="15.0" y2="10.0" /><path d="M 100.0 14.0 a86.0,86.0 0 0,1 42.46469731375804,11.215312516191453" fill="none" id="id25" stroke="none" /><text fill="#e1ed5e" style="font-size:6.75px; font-family:Arial;" text-anchor="middle"><textPath startOffset="22.20632615414155" xlink:href="#id25">January</textPath></text><line stroke="#e1ed5e" stroke-width="0.3" x1="143.23703022742887" x2="145.7803849466894" y1="26.81831364943548" y2="22.513508569990506" /><path d="M 143.74570117128098 25.957352633546492 a86.0,86.0 0 0,1 28.547481713284135,27.462654790039103" fill="none" id="id26" stroke="none" /><text fill="#e1ed5e" style="font-size:6.75px; font-family:Arial;" text-anchor="middle"><textPath startOffset="19.985693538727396" xlink:href="#id26">February</textPath></text><path d="M 117.2510076193507 88.02491185347247 l 6.3634132870157165 -4.417274440208371 a28.74631151848971,28.74631151848971 0 0,0 0.27866884416331367,0.4089121428803776 l -6.4385065968477635 4.307084274057587" fill="#ff5a08" stroke="none" /><line stroke="#e1ed5e" stroke-width="0.3" x1="172.23445277983987" x2="176.4835382374775" y1="55.19839476539836" y2="52.563006222186495" /><path d="M 173.08426987136738 54.67131705675599 a86.0,86.0 0 0,1 12.851231095245387,41.99856678651699" fill="none" id="id27" stroke="none" /><text fill="#e1ed5e" style="font-size:6.75px; font-family:Arial;" text-anchor="middle"><textPath startOffset="22.20632615414155" xlink:href="#id27">March</textPath></text><path d="M 118.56541770881063 90.18545643968196 l 6.66487320145702 -3.5233620587299397 a28.538873588832594,28.538873588832594 0 0,0 0.2258519799380892,0.4362741379990034 l -6.724534614555226 3.4081151984705915" fill="#ff5708" stroke="none" /><path d="M 119.61058180528143 92.48833698450437 l 6.935597142555733 -2.656620240205334 a28.426987197006326,28.426987197006326 0 0,0 0.1710971783059355,0.45845537369473377 l -6.9802989093632934 2.536841729481267" fill="#ff5507" stroke="none" /><path d="M 119.97218684219823 93.5106431181261 l 9.199555866241152 -2.9891168975367273 a30.67298547312212,30.67298547312212 0 0,0 0.15883423650759546,0.5035479350982721 l -9.249645586516953 2.830318796012036" fill="#ff740a" stroke="none" /><path d="M 120.37134235888165 94.90015583598534 l 14.665664853690698 -3.6714618014792038 a36.118245842706074,36.118245842706074 0 0,0 0.14579250283702352,0.6044040474134844 l -14.72669015678854 3.4184725224063133" fill="#ffbd11" stroke="none" /><path d="M 120.6074358757038 95.95851677861258 l 8.815444040742445 -1.7288647357503244 a29.983375028906593,29.983375028906593 0 0,0 0.0949677373708059,0.5073214504491466 l -8.843897502023111 1.576865207838615" fill="#ff6b09" stroke="none" /><path d="M 120.83666639777658 97.38593545837742 l 21.938505099941402 -2.7522957455460535 a43.11047574999475,43.11047574999475 0 0,0 0.08603546764426764,0.7370993458014383 l -21.98263092058926 2.3742526614197623" fill="#eaff1a" stroke="none" /><line stroke="#e1ed5e" stroke-width="0.3" x1="184.98032266829074" x2="189.97916517819016" y1="98.17113171792111" y2="98.06355123074" /><path d="M 185.9800911702706 98.14961562048488 a86.0,86.0 0 0,1 -9.607161424134198,41.387399972396054" fill="none" id="id28" stroke="none" /><text fill="#e1ed5e" style="font-size:6.75px; font-family:Arial;" text-anchor="middle"><textPath startOffset="21.466115282336823" xlink:href="#id28">April</textPath></text><path d="M 120.99980553446 99.90962569577887 l 15.307706123020651 -0.06587790957489446 a36.30784787773036,36.30784787773036 0 0,0 -0.00268972463598559,0.6249972797439041 l -15.306572101095162 -0.19762884837269437" fill="#ffbf11" stroke="none" /><path d="M 120.99824983174949 100.27111621757518 l 7.47298489275021 0.09648648884325306 a28.47360775327433,28.47360775327433 0 0,0 -0.010545996963650163,0.49003103920147095 l -7.470216833101553 -0.22510734383483885" fill="#ff5607" stroke="none" /><path d="M 120.8583938346157 102.4346265915055 l 23.309976086403175 2.7207793695568734 a44.468225870876864,44.468225870876864 0 0,0 -0.09528585955522484,0.7595220532486417 l -23.2596887176011 -3.12161917709291" fill="#daff1c" stroke="none" /><path d="M 120.70491114924044 103.5080841355445 l 8.737280692080192 1.4803790058674184 a29.861805453360525,29.861805453360525 0 0,0 -0.09023037115194005,0.5060598395287399 l -8.710503878589064 -1.6305575961293766" fill="#ff6909" stroke="none" /><path d="M 120.41448212921028 104.9243191809786 l 30.37463387044999 7.3268766377100025 a52.24582378539744,52.24582378539744 0 0,0 -0.21840915255675664,0.8724359956803925 l -30.24401340359817 -7.848640472787791" fill="#82ff25" stroke="none" /><path d="M 120.02730092923936 106.31721596034902 l 11.199926411070567 3.5327952642611384 a32.74389177370866,32.74389177370866 0 0,0 -0.17417840204802965,0.5360660005147171 l -11.137455758006292 -3.7250601647536508" fill="#ff900d" stroke="none" /><path d="M 119.12269723197855 108.67885076344098 l 9.44244567029208 4.285461188880909 a31.369424180629427,31.369424180629427 0 0,0 -0.2273915531147702,0.489781175706981 l -9.36727950033748 -4.447362431866721" fill="#ff7e0b" stroke="none" /><path d="M 118.81262510543309 109.33194174019688 l 13.350713647519926 6.622578255318884 a35.90302310425295,35.90302310425295 0 0,0 -0.2793961806853016,0.5512751708146296 l -13.234738797048356 -6.851407637836208" fill="#ffba11" stroke="none" /><path d="M 118.64920377521936 109.65438752849418 l 8.444004940999752 4.371323139342574 a30.508400782054785,30.508400782054785 0 0,0 -0.2454437042951365,0.4642869906513879 l -8.367508728479722 -4.516025145080096" fill="#ff720a" stroke="none" /><line stroke="#e1ed5e" stroke-width="0.3" x1="174.80103733775053" x2="179.2010983576182" y1="140.37084112569926" y2="142.7455964860345" /><path d="M 175.68104954172406 140.8457921977663 a86.0,86.0 0 0,1 -30.038265399797805,32.042727171017184" fill="none" id="id29" stroke="none" /><text fill="#e1ed5e" style="font-size:6.75px; font-family:Arial;" text-anchor="middle"><textPath startOffset="22.206326154141568" xlink:href="#id29">May</textPath></text><path d="M 118.48025628344425 109.97397251340804 l 27.312837410611476 14.74100171655467 a52.03688481510291,52.03688481510291 0 0,0 -0.4322123947813557,0.7845910411047221 l -27.05504860637861 -15.208963276057197" fill="#84ff25" stroke="none" /><path d="M 117.14729908036423 112.12312394758627 l 7.698758895588009 5.44301513004305 a30.428536590493408,30.428536590493408 0 0,0 -0.3060534198262183,0.42508143195006576 l -7.603925683386188 -5.5747301674442475" fill="#ff710a" stroke="none" /><path d="M 116.71984013943494 112.70617746262583 l 7.682320196595483 5.83814934404963 a30.648939390754094,30.648939390754094 0 0,0 -0.3228255453681625,0.4172955347097978 l -7.580687834009252 -5.969522872872681" fill="#ff740a" stroke="none" /><path d="M 116.0416608686014 113.55231037782055 l 24.637401513862084 20.814161011992248 a53.252610002732986,53.252610002732986 0 0,0 -0.5975893539071476,0.6951314252937618 l -24.275469650384156 -21.235169536447536" fill="#77ff27" stroke="none" /><path d="M 115.07121518719521 114.62390073753431 l 6.807188233214103 6.605150532839068 a30.48503163958206,30.48503163958206 0 0,0 -0.3686647419214515,0.37345543717060425 l -6.692482866237116 -6.721346463990336" fill="#ff720a" stroke="none" /><path d="M 114.0293411484842 115.62618273729858 l 10.229883992409544 11.39426541523858 a36.3127336178443,36.3127336178443 0 0,0 -0.4687068635229871,0.4135793114464661 l -10.032234775979969 -11.568667868457334" fill="#ffbf11" stroke="none" /><path d="M 113.20401910651253 116.32954008644616 l 6.025098818733066 7.451298872838969 a30.582466836252024,30.582466836252024 0 0,0 -0.41219705201053486,0.3274742675017157 l -5.89594427400518 -7.55390705434581" fill="#ff730a" stroke="none" /><path d="M 112.04921762599082 117.19931262002967 l 8.45909100017397 12.074688590522301 a35.74294153509786,35.74294153509786 0 0,0 -0.5069423361693186,0.34867956136427325 l -8.249991779381768 -12.21850894125167" fill="#ffb811" stroke="none" /><path d="M 111.45004920935366 117.60387380957326 l 7.915226342809578 12.169261735504389 a35.516946622658566,35.516946622658566 0 0,0 -0.5153647605548513,0.32893017382581163 l -7.704579780207796 -12.303706338154008" fill="#ffb510" stroke="none" /><line stroke="#e1ed5e" stroke-width="0.3" x1="143.8653032363475" x2="146.44561519142675" y1="172.8068346515853" y2="177.08958963109032" /><path d="M 144.38136562736335 173.6633856474863 a86.0,86.0 0 0,1 -40.68145358897372,12.25698825130547" fill="none" id="id30" stroke="none" /><text fill="#e1ed5e" style="font-size:6.75px; font-family:Arial;" text-anchor="middle"><textPath startOffset="21.466115282336833" xlink:href="#id30">June</textPath></text><path d="M 110.5260780823613 118.17145234162733 l 4.6549354700004395 8.035940583436028 a30.286805978934975,30.286805978934975 0 0,0 -0.45336641930936233,0.2574332850205815 l -4.515920283769878 -8.114877034251238" fill="#ff6f0a" stroke="none" /><path d="M 108.59647513512805 119.15986991738527 l 4.8034079671278445 10.705861456427126 a32.73406142914205,32.73406142914205 0 0,0 -0.516074808270095,0.22623202990501418 l -4.618412484199996 -10.786958039626596" fill="#ff900d" stroke="none" /><path d="M 107.59598834532513 119.57807347666477 l 11.299914287184414 29.124656613074528 a52.239937351525214,52.239937351525214 0 0,0 -0.8411370706746807,0.3180460668910701 l -10.796906995749458 -29.31485093007223" fill="#82ff25" stroke="none" /><path d="M 106.57524785965236 119.94407469862006 l 3.108863223199688 9.42981947977326 a30.929074778733153,30.929074778733153 0 0,0 -0.5070581077335224,0.1623439937289915 l -2.946083770375225 -9.481936320161958" fill="#ff780b" stroke="none" /><path d="M 105.53697534728816 120.25689768951611 l 4.302160895044424 15.739357253493033 a37.31673849517523,37.31673849517523 0 0,0 -0.6210741308175163,0.1640313228038396 l -4.030596321415411 -15.811079925600458" fill="#ffcc13" stroke="none" /><path d="M 104.48393922423573 120.51570834832081 l 2.578994827997973 11.799871291086138 a33.078417810667055,33.078417810667055 0 0,0 -0.5573060316105021,0.1167888975090296 l -2.375497334958093 -11.842516169321708" fill="#ff950d" stroke="none" /><path d="M 103.06178313531738 120.77559828337769 l 1.4643738832969047 9.9364462443852 a31.043771942733407,31.043771942733407 0 0,0 -0.529327959733776,0.07336003197174755 l -1.2931173323762981 -9.960180841849551" fill="#ff790b" stroke="none" /><path d="M 101.62511606390274 120.93702456842531 l 0.6852839790815856 8.82878941699894 a29.855345092185757,29.855345092185757 0 0,0 -0.5127118680970564,0.0353596122609648 l -0.5332093502055989 -8.839277373776191" fill="#ff6909" stroke="none" /><line stroke="#e1ed5e" stroke-width="0.3" x1="102.19456741930631" x2="102.32365962044197" y1="184.97166512339345" y2="189.96999836594603" /><path d="M 102.22038585953345 185.97133177190398 a86.0,86.0 0 0,1 -42.740103519485714,-10.115201625700543" fill="none" id="id31" stroke="none" /><text fill="#e1ed5e" style="font-size:6.75px; font-family:Arial;" text-anchor="middle"><textPath startOffset="22.20632615414155" xlink:href="#id31">July</textPath></text><path d="M 100.54218724476979 120.99299961872073 l 0.38229214148394425 14.802005871274002 a35.806941787373596,35.806941787373596 0 0,0 -0.6162891496963571,0.010609976611225695 l -0.1274433018949192 -14.806393325164386" fill="#ffb911" stroke="none" /><path d="M 99.45781275523022 120.99299961872073 l -0.5738964275272601 22.220750488847486 a43.22816027918515,43.22816027918515 0 0,0 -0.7436883115912464,-0.025614129143953654 l 0.9563050907931496 -22.207579561277438" fill="#e9ff1a" stroke="none" /><path d="M 98.73552117531835 120.96189622390904 l -0.5562728570127028 9.221612630653093 a30.238375344251267,30.238375344251267 0 0,0 -0.5192897239372023,-0.03581325971187974 l 0.7149253417288352 -9.210671026424928" fill="#ff6e0a" stroke="none" /><path d="M 98.37488393609728 120.93702456842531 l -0.13631746998910674 1.7562328510946024 a22.761515336262534,22.761515336262534 0 0,0 -0.39036614691276167,-0.03368243373071563 l 0.1665279346434101 -1.7536261650852232" fill="#ff0400" stroke="none" /><path d="M 98.01472825383883 120.90594882070398 l -1.4091003956139498 14.838563441454095 a35.90531881346311,35.90531881346311 0 0,0 -0.6147801073240604,-0.06372447180833456 l 1.6643130995436037 -14.812109601189999" fill="#ffba11" stroke="none" /><path d="M 96.93821686468263 120.77559828337769 l -3.0096688189679863 20.421978822613603 a41.64256101919398,41.64256101919398 0 0,0 -0.708249016359526,-0.11061393047867012 l 3.3607536989360294 -20.36714658478783" fill="#fcff18" stroke="none" /><path d="M 95.86986931433489 120.58985236759428 l -4.643397849732521 23.148632207167346 a44.609750457249774,44.609750457249774 0 0,0 -0.7515862197752042,-0.15750219988983408 l 5.041175530937112 -23.06527402655097" fill="#d8ff1c" stroke="none" /><path d="M 95.16358092515715 120.4354850818985 l -5.824041465482323 24.60851936989962 a46.28831122416802,46.28831122416802 0 0,0 -0.7737790290489601,-0.19017605938998955 l 6.246773779274494 -24.5046220521956" fill="#c5ff1e" stroke="none" /><path d="M 94.46302465271185 120.25689768951611 l -4.690677682960385 17.160737037552884 a38.79026005423928,38.79026005423928 0 0,0 -0.6425677359041179,-0.18159606060213418 l 4.9853765869691165 -17.077452183612227" fill="#ffdf14" stroke="none" /><path d="M 93.76903079525671 120.05430185196036 l -4.411311891544435 14.197755971708258 a35.86727773456388,35.86727773456388 0 0,0 -0.588016101605015,-0.18826418679746024 l 4.65504933824039 -14.119718938251092" fill="#ffb911" stroke="none" /><path d="M 92.7421414339146 119.70592522655815 l -10.302781002749478 27.973241723734645 a50.810225576555176,50.810225576555176 0 0,0 -0.8181166836819441,-0.3093417263066324 l 10.782767907191705 -27.79175174732138" fill="#92ff23" stroke="none" /><path d="M 91.7346041902142 119.30500536409082 l -10.019703640475218 23.402440364315392 a46.457193011962076,46.457193011962076 0 0,0 -0.7324293390331146,-0.3210754981179509 l 10.421053654166077 -23.22650031290299" fill="#c3ff1e" stroke="none" /><path d="M 91.07499286063937 119.00905698771935 l -6.293130415090959 13.403515854238712 a35.80735383774466,35.80735383774466 0 0,0 -0.5556744289597095,-0.26675749418010164 l 6.52291751205091 -13.293204083559049" fill="#ffb911" stroke="none" /><path d="M 90.42595943632237 118.69057910512821 l -17.07944535956196 33.34273783795057 a58.46258961044422,58.46258961044422 0 0,0 -0.891719014956441,-0.46650524338184296 l 17.650855277044894 -33.043803175624014" fill="#42ff2d" stroke="none" /><line stroke="#e1ed5e" stroke-width="0.3" x1="58.666819895761336" x2="56.23545636021788" y1="174.27360380694188" y2="178.64263932499728" /><path d="M 58.180547188652646 175.14741091055294 a86.0,86.0 0 0,1 -31.652253787137756,-30.449443065178592" fill="none" id="id32" stroke="none" /><text fill="#e1ed5e" style="font-size:6.75px; font-family:Arial;" text-anchor="middle"><textPath startOffset="22.20632615414155" xlink:href="#id32">August</textPath></text><path d="M 89.7882731507175 118.34994917583269 l -7.201871865984819 12.941394209047642 a35.810355919019486,35.810355919019486 0 0,0 -0.5360490257206771,-0.3043826268244 l 7.423569658626703 -12.815508416428608" fill="#ffb911" stroke="none" /><path d="M 89.4739219176387 118.17145234162733 l -7.527265922620534 12.994522072267461 a36.01723463745874,36.01723463745874 0 0,0 -0.533796219804123,-0.3153762155793777 l 7.749830013453039 -12.863027284394335" fill="#ffbb11" stroke="none" /><path d="M 88.8546689885994 117.79835938074946 l -14.112217642398793 22.536281874610946 a47.59019908760274,47.59019908760274 0 0,0 -0.6905523669620216,-0.4407431929495853 l 14.49805181140774 -22.290024252837558" fill="#b6ff1f" stroke="none" /><path d="M 88.24862548938628 117.40417183066458 l -8.327976878726215 12.334007436172094 a35.88230285702273,35.88230285702273 0 0,0 -0.5089188985638388,-0.3500390590024787 l 8.539052661912944 -12.188827587804514" fill="#ffba11" stroke="none" /><path d="M 87.95078237400918 117.19931262002967 l -8.651885574882098 12.349887716704417 a36.07895389660899,36.07895389660899 0 0,0 -0.505573817693902,-0.3607134951071868 l 8.863186720424887 -12.199129959753012" fill="#ffbc11" stroke="none" /><path d="M 87.07902340077011 116.55440617244103 l -9.109324268049154 11.67090217458855 a35.80505812853448,35.80505812853448 0 0,0 -0.4825882583857685,-0.3833972990563015 l 9.30887001915228 -11.512370961527116" fill="#ffb911" stroke="none" /><path d="M 86.79598089348748 116.32954008644616 l -24.27753330604281 30.024263833844664 a59.61159207013265,59.61159207013265 0 0,0 -0.7923512396086941,-0.6520511272001929 l 24.790754674196194 -29.601917587787288" fill="#36ff2e" stroke="none" /><path d="M 86.24171649860922 115.8653595955263 l -9.736930282413628 11.228137599537453 a35.86199466016356,35.86199466016356 0 0,0 -0.46288894726954527,-0.4084456767903274 l 9.928761582589761 -11.058868780974837" fill="#ffb911" stroke="none" /><path d="M 85.44109423537348 115.13401014063109 l -10.351595126477164 10.760502756769622 a35.931307419008974,35.931307419008974 0 0,0 -0.44204071347147367,-0.43262987536923464 l 10.535285792324434 -10.580722778477817" fill="#ffba11" stroke="none" /><path d="M 85.18274418774928 114.88116024355367 l -10.456870142893724 10.501968935015391 a35.82017154750142,35.82017154750142 0 0,0 -0.43318420840985866,-0.43881331608752694 l 10.636094976359116 -10.3204151249472" fill="#ffb911" stroke="none" /><path d="M 84.43433777217949 114.09645910891817 l -10.96932999989476 9.933962945654697 a35.79898038556142,35.79898038556142 0 0,0 -0.40971276796582884,-0.46031663814484486 l 11.138701617508927 -9.743672137768987" fill="#ffb811" stroke="none" /><path d="M 83.95833913139862 113.55231037782056 l -11.306132812831951 9.5516432062386 a35.80076103180777,35.80076103180777 0 0,0 -0.3936447109095247,-0.47417041275036476 l 11.468873523635011 -9.355611536374473" fill="#ffb811" stroke="none" /><path d="M 83.06392112726016 112.41649034213515 l -50.80823661821951 37.24947102640544 a84.0,84.0 0 0,0 -0.8448808304975701,-1.1734655781954473 l 51.44189724109269 -36.36937184275885" fill="#4dd2ff" stroke="none" /><line stroke="#e1ed5e" stroke-width="0.3" x1="26.63291911575756" x2="22.317208475507996" y1="142.92168965132927" y2="145.44649492493687" /><path d="M 25.769776987707644 143.4266507060508 a86.0,86.0 0 0,1 -11.730757126820373,-40.83630448921669" fill="none" id="id33" stroke="none" /><text fill="#e1ed5e" style="font-size:6.75px; font-family:Arial;" text-anchor="middle"><textPath startOffset="21.46611528233685" xlink:href="#id33">September</textPath></text><path d="M 81.69416730710424 110.29060199501025 l -7.96407180799747 4.476993459444721 a30.136186852229486,30.136186852229486 0 0,0 -0.2503077102955174,-0.45438120097560847 l 8.039955927744504 -4.33924174007129" fill="#ff6d0a" stroke="none" /><path d="M 80.73074385275274 108.34839909993369 l -1.8383983841507618 0.796485515490762 a23.003521348834276,23.003521348834276 0 0,0 -0.15428682910024455,-0.36468848840044255 l 1.851836194443313 -0.7647225014241606" fill="#ff0801" stroke="none" /><path d="M 79.86692584326677 105.97154293290107 l -9.381043862444368 2.782451688396519 a30.78498959362583,30.78498959362583 0 0,0 -0.14631279213469148,-0.5093340238559095 l 9.427549291465164 -2.6205601890360137" fill="#ff760a" stroke="none" /><path d="M 79.67330655649465 105.27499134158121 l -14.32773995541568 3.7181996382886022 a35.802335652868585,35.802335652868585 0 0,0 -0.1496685710539286,-0.5978515427624389 l 14.389619840764668 -3.4710202561287717" fill="#ffb911" stroke="none" /><path d="M 79.35854240842038 103.8639653848113 l -1.4611937698604776 0.2735272992322989 a22.48657472617571,22.48657472617571 0 0,0 -0.06794538885626344,-0.38107382406106455 l 1.4656856010559296 -0.24833472443802065" fill="#ff0000" stroke="none" /><path d="M 79.29508885075956 103.50808413554451 l -10.232100960438853 1.7336500888062054 a31.37793007757479,31.37793007757479 0 0,0 -0.08564418589622261,-0.5333064273295464 l 10.260426900696366 -1.5572644317834454" fill="#ff7e0b" stroke="none" /><line stroke="#e1ed5e" stroke-width="0.3" x1="15.007084014347285" x2="10.007500721073583" y1="101.09737516637583" y2="101.16192664675087" /><path d="M 14.007167355692545 101.11028546245083 a86.0,86.0 0 0,1 10.666146001902534,-42.60595125391555" fill="none" id="id34" stroke="none" /><text fill="#e1ed5e" style="font-size:6.75px; font-family:Arial;" text-anchor="middle"><textPath startOffset="22.20632615414155" xlink:href="#id34">October</textPath></text><path d="M 79.00175016825051 100.2711162175752 l -14.938788934687953 0.19288026304949774 a35.940034057224544,35.940034057224544 0 0,0 -0.00266247659038944,-0.6186657935582751 l 14.939895708567846 0.06429500871245278" fill="#ffba11" stroke="none" /><path d="M 79.01574976396665 99.18683210126434 l -14.795027969830377 -0.5733272178246946 a35.80613240271617,35.80613240271617 0 0,0 0.02916732040590836,-0.6156760345431809 l 14.78296704119097 0.8279143589908847" fill="#ffb911" stroke="none" /><path d="M 79.12142395522702 97.74499172005258 l -8.841788212276835 -0.954964820659664 a29.893209578068827,29.893209578068827 0 0,0 0.05965780290507616,-0.5111116228844205 l 8.82404005636817 1.1070201818689462" fill="#ff6a09" stroke="none" /><path d="M 79.54389044137918 95.25157060432595 l -8.764915634925083 -2.034579592576613 a29.997958668825024,29.997958668825024 0 0,0 0.12108775972610065,-0.5019869379188636 l 8.728595074938168 2.1851517621548737" fill="#ff6b09" stroke="none" /><path d="M 79.62865764111835 94.90015583598534 l -1.4409161900309566 -0.3607247815635365 a22.485382723316583,22.485382723316583 0 0,0 0.09722643955129351,-0.3746531327519188 l 1.4344934186093556 0.3854743398643191" fill="#ff0000" stroke="none" /><path d="M 80.52162464483688 92.15188598940014 l -1.393410691852979 -0.5614249532547534 a22.502262072445184,22.502262072445184 0 0,0 0.1478487696190778,-0.35802752289180517 l 1.3835402353477013 0.5853270465998699" fill="#ff0000" stroke="none" /><path d="M 81.43458229118936 90.18545643968196 l -1.3122809146639491 -0.6937327455999607 a22.484367313473626,22.484367313473626 0 0,0 0.1838277981866833,-0.3406049914358915 l 1.300145017258794 0.7162187203683249" fill="#ff0000" stroke="none" /><line stroke="#e1ed5e" stroke-width="0.3" x1="26.266209847984243" x2="21.928928074336255" y1="57.711370442889674" y2="55.22380399835377" /><path d="M 25.398753493254645 57.213857153982495 a86.0,86.0 0 0,1 29.58750427330803,-30.492523968695096" fill="none" id="id35" stroke="none" /><text fill="#e1ed5e" style="font-size:6.75px; font-family:Arial;" text-anchor="middle"><textPath startOffset="21.46611528233685" xlink:href="#id35">November</textPath></text><line stroke="#e1ed5e" stroke-width="0.3" x1="56.762969772571076" x2="54.21961505331055" y1="26.818313649435495" y2="22.513508569990535" /><path d="M 56.25429882871897 25.957352633546506 a86.0,86.0 0 0,1 42.265352541879196,-11.944610805530505" fill="none" id="id36" stroke="none" /><text fill="#e1ed5e" style="font-size:6.75px; font-family:Arial;" text-anchor="middle"><textPath startOffset="22.20632615414155" xlink:href="#id36">December</textPath></text></svg>