<?xml version="1.0" encoding="utf-8" ?>
<svg baseProfile="full" height="200mm" version="1.1" viewBox="0,0,200,200" width="200mm" xmlns="http://www.w3.org/2000/svg" xmlns:ev="http://www.w3.org/2001/xml-events" xmlns:xlink="http://www.w3.org/1999/xlink"><defs /><rect fill="#1a1a1a" height="200" width="200" x="0" y="0" /><text alignment-baseline="middle" fill="#e1ed5e" style="dominant-baseline: central; font-size:9.0px; font-family:Arial;" text-anchor="middle" x="100.0" y="100.0">2019</text><line stroke="#e1ed5e" stroke-width="0.3" x1="100.0" x2="100.0" y1="15.0" y2="10.0" /><path d="M 100.0 14.0 a86.0,86.0 0 0,1 42.46469731375804,11.215312516191453" fill="none" id="id49" stroke="none" /><text fill="#e1ed5e" style="font-size:6.75px; font-family:Arial;" text-anchor="middle"><textPath startOffset="22.20632615414155" xlink:href="#id49">January</textPath></text><path d="M 100.0 79.0 l 0.0 -45.60219326016066 a66.60219326016066,66.60219326016066 0 0,0 1.1464472733468778,0.009867833628018144 l -0.7849667940743494 45.595436803141205" fill="#33ff53" stroke="none" /><path d="M 106.74666289553966 80.11325718540242 l 9.880881642599075 -29.125295727722698 a51.75572586141243,51.75572586141243 0 0,0 0.8411981252032329,0.2934775085252433 l -10.380761771865581 28.950897366025245" fill="#cdff1d" stroke="none" /><line stroke="#e1ed5e" stroke-width="0.3" x1="143.23703022742887" x2="145.7803849466894" y1="26.81831364943548" y2="22.513508569990506" /><path d="M 143.74570117128098 25.957352633546492 a86.0,86.0 0 0,1 28.547481713284135,27.462654790039103" fill="none" id="id50" stroke="none" /><text fill="#e1ed5e" style="font-size:6.75px; font-family:Arial;" text-anchor="middle"><textPath startOffset="19.985693538727396" xlink:href="#id50">February</textPath></text><line stroke="#e1ed5e" stroke-width="0.3" x1="172.23445277983987" x2="176.4835382374775" y1="55.19839476539836" y2="52.563006222186495" /><path d="M 173.08426987136738 54.67131705675599 a86.0,86.0 0 0,1 12.851231095245387,41.99856678651699" fill="none" id="id51" stroke="none" /><text fill="#e1ed5e" style="font-size:6.75px; font-family:Arial;" text-anchor="middle"><textPath startOffset="22.20632615414155" xlink:href="#id51">March</textPath></text><path d="M 120.98425023603335 99.18683210126433 l 19.514209501051468 -0.7562018445724188 a40.52885592349593,40.52885592349593 0 0,0 0.02101383650753158,0.6973469302795352 l -19.524335032014648 0.4201847668678846" fill="#ff890c" stroke="none" /><line stroke="#e1ed5e" stroke-width="0.3" x1="184.98032266829074" x2="189.97916517819016" y1="98.17113171792111" y2="98.06355123074" /><path d="M 185.9800911702706 98.14961562048488 a86.0,86.0 0 0,1 -9.607161424134198,41.387399972396054" fill="none" id="id52" stroke="none" /><text fill="#e1ed5e" style="font-size:6.75px; font-family:Arial;" text-anchor="middle"><textPath startOffset="21.466115282336823" xlink:href="#id52">April</textPath></text><path d="M 120.99824983174949 100.27111621757518 l 18.699936228647616 0.2414418353829879 a39.70149483638569,39.70149483638569 0 0,0 -0.014704558959471814,0.6832630743917123 l -18.693009607003134 -0.563294725564815" fill="#ff7b0b" stroke="none" /><path d="M 120.9764740272857 100.99374915477107 l 23.605225768864514 1.118284852138451 a44.63169999406703,44.63169999406703 0 0,0 -0.04296045347491102,0.7670877559948052 l -23.582478964502073 -1.5244443244686796" fill="#ffc912" stroke="none" /><path d="M 120.92983693683757 101.71520430193887 l 22.913909867029204 1.8777994733917134 a43.99072413510737,43.99072413510737 0 0,0 -0.06834357785579447,0.7541656866602019 l -22.878191692896337 -2.2719465486004857" fill="#ffbf11" stroke="none" /><path d="M 120.5718875245553 104.21870165774334 l 28.746585599050178 5.895096800253156 a50.344818109640315,50.344818109640315 0 0,0 -0.18139947892900002,0.8474379745602114 l -28.640852081396737 -6.3890485942295365" fill="#e1ff1b" stroke="none" /><path d="M 120.32669344350535 105.2749913415812 l 16.769558101865005 4.351877202031834 a38.325037203809714,38.325037203809714 0 0,0 -0.17120692687439737,0.6371246654397336 l -16.692163098648834 -4.639892800647115" fill="#ff6509" stroke="none" /><path d="M 120.13307415673323 105.97154293290107 l 26.75737592555686 7.936334901831141 a48.90954277833288,48.90954277833288 0 0,0 -0.24634858071017324,0.8050814153943332 l -26.616800572340555 -8.395743289777531" fill="#f6ff19" stroke="none" /><path d="M 119.9155931802556 106.66101706037122 l 13.441268538050199 4.495598912602123 a35.17314748018123,35.17314748018123 0 0,0 -0.19698498325025288,0.5725305679519874 l -13.361892723856714 -4.726302183643411" fill="#ff3004" stroke="none" /><path d="M 118.64920377521936 109.65438752849418 l 15.54519516492855 8.047493079984267 a38.50472043730241,38.50472043730241 0 0,0 -0.3097750447325686,0.5859776428603765 l -15.404367611971088 -8.313885737930779" fill="#ff6809" stroke="none" /><line stroke="#e1ed5e" stroke-width="0.3" x1="174.80103733775053" x2="179.2010983576182" y1="140.37084112569926" y2="142.7455964860345" /><path d="M 175.68104954172406 140.8457921977663 a86.0,86.0 0 0,1 -30.038265399797805,32.042727171017184" fill="none" id="id53" stroke="none" /><text fill="#e1ed5e" style="font-size:6.75px; font-family:Arial;" text-anchor="middle"><textPath startOffset="22.206326154141568" xlink:href="#id53">May</textPath></text><path d="M 117.94076556474637 110.91462005526583 l 17.32523695942352 10.54015103743038 a41.279512311493576,41.279512311493576 0 0,0 -0.37453365488577095,0.6038675057877707 l -17.14123866486979 -10.836814874583425" fill="#ff950d" stroke="none" /><path d="M 116.71984013943494 112.70617746262583 l 18.524947908372376 14.0779620885558 a44.26720248707877,44.26720248707877 0 0,0 -0.46626682909377093,0.6027127300047797 l -18.279874262060538 -14.394752812673833" fill="#ffc312" stroke="none" /><path d="M 116.27256486870786 113.27417163493432 l 26.896640262710033 21.940648086575948 a55.710535805150045,55.710535805150045 0 0,0 -0.6125612174039582,0.7378694473506053 l -26.51498304541253 -22.400378791040325" fill="#98ff23" stroke="none" /><path d="M 115.56566222782051 114.09645910891815 l 13.111270481095938 11.873731133160609 a38.688722527391434,38.688722527391434 0 0,0 -0.4512829311019696,0.4897784922498259 l -12.904941141998245 -12.09766088021177" fill="#ff6b09" stroke="none" /><path d="M 115.07121518719521 114.62390073753431 l 10.373657314475874 10.065766626501498 a35.45449493608719,35.45449493608719 0 0,0 -0.4287619701400181,0.4343336120677531 l -10.19885471928032 -10.242840732549915" fill="#ff3505" stroke="none" /><path d="M 114.29624159901734 115.38237550388516 l 19.88004875445157 21.390403404873766 a50.20215225463025,50.20215225463025 0 0,0 -0.6380465264044717,0.582840373933359 l -19.508902678580235 -21.729436545393707" fill="#e3ff1b" stroke="none" /><path d="M 113.48314897796784 116.09983520530334 l 10.92940878128679 13.050488469543948 a38.022550502265176,38.022550502265176 0 0,0 -0.505391887338108,0.4159031163747502 l -10.703146765403991 -13.236686704775877" fill="#ff6008" stroke="none" /><path d="M 112.63410532772338 116.77436683061366 l 37.607447095764265 49.931601548625196 a83.5098785014927,83.5098785014927 0 0,0 -1.1556774195739714,0.8549425266557892 l -36.742384705771734 -50.571554024020756" fill="#4cd7ff" stroke="none" /><path d="M 112.04921762599082 117.19931262002967 l 9.941677858832069 14.190964987871507 a38.32687063308856,38.32687063308856 0 0,0 -0.5435902167626107,0.37388630780955606 l -9.695930757446575 -14.359992085046157" fill="#ff6509" stroke="none" /><path d="M 111.45004920935366 117.60387380957326 l 8.700187544376652 13.376100036820107 a36.956607267910854,36.956607267910854 0 0,0 -0.5362547985303385,0.34226318443970566 l -8.468650943799384 -13.523877650083621" fill="#ff4e07" stroke="none" /><line stroke="#e1ed5e" stroke-width="0.3" x1="143.8653032363475" x2="146.44561519142675" y1="172.8068346515853" y2="177.08958963109032" /><path d="M 144.38136562736335 173.6633856474863 a86.0,86.0 0 0,1 -40.68145358897372,12.25698825130547" fill="none" id="id54" stroke="none" /><text fill="#e1ed5e" style="font-size:6.75px; font-family:Arial;" text-anchor="middle"><textPath startOffset="21.466115282336833" xlink:href="#id54">June</textPath></text><path d="M 110.21172684928248 118.3499491758327 l 8.398755522744713 15.09213272713404 a38.27169837000013,38.27169837000013 0 0,0 -0.5784078101753267,0.31539405599804177 l -8.137724900700738 -15.234467434891853" fill="#ff6409" stroke="none" /><path d="M 109.57404056367764 118.69057910512821 l 7.951556303943514 15.523142096511934 a38.44119228158685,38.44119228158685 0 0,0 -0.5915295747528772,0.29660520873362806 l -7.683172821507876 -15.657715146154864" fill="#ff6709" stroke="none" /><path d="M 108.2653958097858 119.30500536409082 l 17.143632313466583 40.04138717466331 a64.55705242289275,64.55705242289275 0 0,0 -1.025315213035872,0.42858184220452045 l -16.45184564093325 -40.33055405988781" fill="#30ff36" stroke="none" /><path d="M 105.88484417918355 120.15858648285463 l 17.543843836988152 60.09659431266159 a83.60500862197254,83.60500862197254 0 0,0 -1.3849322233299979,0.39139568002712577 l -16.50678044555355 -60.38967878602723" fill="#4cd6ff" stroke="none" /><path d="M 105.18746579009965 120.34920634021253 l 7.374788673924873 28.929558769827878 a50.85476308065391,50.85476308065391 0 0,0 -0.850114168315513,0.20893737939699739 l -6.875721220866149 -29.052217407538905" fill="#daff1c" stroke="none" /><path d="M 103.7750983002368 120.6578951692458 l 8.161207114939913 44.65933006945963 a66.39891038148258,66.39891038148258 0 0,0 -1.1260971535952478,0.19578642454655815 l -7.391260989872615 -44.79319507252719" fill="#33ff50" stroke="none" /><path d="M 101.26447882468166 120.96189622390904 l 3.7477523431814164 62.128360046249504 a83.24129472996391,83.24129472996391 0 0,0 -1.4310047903917673,0.0739666021440777 l -2.6777594843761694 -62.18366645515579" fill="#4cdaff" stroke="none" /><line stroke="#e1ed5e" stroke-width="0.3" x1="102.19456741930631" x2="102.32365962044197" y1="184.97166512339345" y2="189.96999836594603" /><path d="M 102.22038585953345 185.97133177190398 a86.0,86.0 0 0,1 -42.740103519485714,-10.115201625700543" fill="none" id="id55" stroke="none" /><text fill="#e1ed5e" style="font-size:6.75px; font-family:Arial;" text-anchor="middle"><textPath startOffset="22.20632615414155" xlink:href="#id55">July</textPath></text><path d="M 98.37488393609728 120.93702456842531 l -2.3048473607070363 29.694276543981157 a50.783592476841804,50.783592476841804 0 0,0 -0.8709523521920224,-0.07514943372350012 l 2.8156440306406005 -29.650202857978993" fill="#dbff1b" stroke="none" /><path d="M 97.65516085044442 120.86867818915974 l -5.323481872920839 47.378102703917236 a68.67624224993247,68.67624224993247 0 0,0 -1.1736200014943008,-0.14210903790955676 l 6.13822929746653 -47.27944813728233" fill="#36ff70" stroke="none" /><path d="M 96.93821686468263 120.77559828337769 l -3.6251440972817184 24.598259953729965 a45.863951063283,45.863951063283 0 0,0 -0.7800456415723193,-0.12182708676473494 l 4.048025602462555 -24.532214559618122" fill="#ffdc14" stroke="none" /><path d="M 95.86986931433489 120.58985236759428 l -12.12150976885737 60.429103969850196 a82.63284518562703,82.63284518562703 0 0,0 -1.3922002949075445,-0.2917491079078033 l 13.159901525194302 -60.21149888121585" fill="#4be1ff" stroke="none" /><path d="M 95.16358092515715 120.4354850818985 l -6.8933555553919215 29.126728357593993 a50.931332339709215,50.931332339709215 0 0,0 -0.851394139119372,-0.20925196507905067 l 7.393702979254504 -29.00375513420091" fill="#d9ff1c" stroke="none" /><path d="M 94.46302465271185 120.25689768951611 l -6.168022904387141 22.56557074648287 a44.39336422286388,44.39336422286388 0 0,0 -0.7353841788625753,-0.20782691450058394 l 6.55553825135433 -22.456055038643765" fill="#ffc512" stroke="none" /><path d="M 91.7346041902142 119.30500536409082 l -6.9747743018634605 16.290575600914437 a38.72090093564782,38.72090093564782 0 0,0 -0.6104614170675541,-0.2676083454350719 l 7.254156393588758 -16.168102702184914" fill="#ff6b09" stroke="none" /><path d="M 90.42595943632237 118.69057910512821 l -8.534002850787767 16.660202586896954 a39.71874875342104,39.71874875342104 0 0,0 -0.6058226936183414,-0.31693780035236047 l 8.819516446932603 -16.510835367599878" fill="#ff7c0b" stroke="none" /><line stroke="#e1ed5e" stroke-width="0.3" x1="58.666819895761336" x2="56.23545636021788" y1="174.27360380694188" y2="178.64263932499728" /><path d="M 58.180547188652646 175.14741091055294 a86.0,86.0 0 0,1 -31.652253787137756,-30.449443065178592" fill="none" id="id56" stroke="none" /><text fill="#e1ed5e" style="font-size:6.75px; font-family:Arial;" text-anchor="middle"><textPath startOffset="22.20632615414155" xlink:href="#id56">August</textPath></text><path d="M 89.7882731507175 118.34994917583269 l -7.429120716366158 13.349748732852495 a36.27768391637416,36.27768391637416 0 0,0 -0.5430445082073764,-0.30835484435122584 l 7.657813991494741 -13.219890722706637" fill="#ff4306" stroke="none" /><path d="M 87.95078237400918 117.19931262002967 l -10.08837363101318 14.400361690968419 a38.58253961604048,38.58253961604048 0 0,0 -0.5406565252946863,-0.3857440754766872 l 10.334757484156754 -14.224573353647513" fill="#ff6909" stroke="none" /><path d="M 87.36589467227662 116.77436683061367 l -10.704543885703654 14.212478148268868 a38.792745569921905,38.792745569921905 0 0,0 -0.5299297260415312,-0.40632751656588206 l 10.94760234023867 -14.02611128987562" fill="#ff6d0a" stroke="none" /><path d="M 86.79598089348748 116.32954008644616 l -18.780667403155817 23.22623579503791 a50.8692399855547,50.8692399855547 0 0,0 -0.6761487818189171,-0.5564244154622567 l 19.177686313519423 -22.89951626071847" fill="#daff1c" stroke="none" /><path d="M 86.24171649860922 115.8653595955263 l -15.591658942886085 17.979515816394215 a44.79837846541754,44.79837846541754 0 0,0 -0.5782353838302985,-0.5102254959549772 l 15.89883667962297 -17.70846717866695" fill="#ffcb13" stroke="none" /><path d="M 84.19399662182784 113.82643327865904 l -8.576955338648597 7.502763215123203 a32.39542095507571,32.39542095507571 0 0,0 -0.3635344573176832,-0.422872703147081 l 8.704832305537058 -7.3540134128145915" fill="#ff0000" stroke="none" /><path d="M 83.28015986056508 112.70617746262583 l -50.159520418304766 38.118532387877515 a84.0,84.0 0 0,0 -0.8649549332196598,-1.158748481962768 l 50.80823661821951 -37.24947102640544" fill="#4dd2ff" stroke="none" /><path d="M 82.85270091963577 112.12312394758628 l -19.52381370221627 13.803317498123658 a44.9104762694693,44.9104762694693 0 0,0 -0.4408478493859484,-0.6350742070267489 l 19.758522458764354 -13.465202028909896" fill="#ffcd13" stroke="none" /><line stroke="#e1ed5e" stroke-width="0.3" x1="26.63291911575756" x2="22.317208475507996" y1="142.92168965132927" y2="145.44649492493687" /><path d="M 25.769776987707644 143.4266507060508 a86.0,86.0 0 0,1 -11.730757126820373,-40.83630448921669" fill="none" id="id57" stroke="none" /><text fill="#e1ed5e" style="font-size:6.75px; font-family:Arial;" text-anchor="middle"><textPath startOffset="21.46611528233685" xlink:href="#id57">September</textPath></text><path d="M 81.18737489456691 109.33194174019688 l -16.888579892610544 8.377525345305811 a39.85224288248829,39.85224288248829 0 0,0 -0.29954984550476293,-0.6171614054732889 l 17.030282994730026 -8.085574983867238" fill="#ff7e0b" stroke="none" /><path d="M 80.73074385275274 108.34839909993369 l -27.067309184282408 11.72690309916147 a50.49846576984406,50.49846576984406 0 0,0 -0.338698064522687,-0.8005821747407893 l 27.2651582299974 -11.259246398754522" fill="#dfff1b" stroke="none" /><path d="M 80.45479744820244 107.68017299344265 l -16.063420631150528 6.3120271579035405 a38.25906049631278,38.25906049631278 0 0,0 -0.2355769228357734,-0.6150170085076049 l 16.169691833579808 -6.034586582562778" fill="#ff6409" stroke="none" /><path d="M 80.0844068197444 106.66101706037122 l -27.752945900021153 9.28231684803013 a50.264097665855424,50.264097665855424 0 0,0 -0.2673756764262908,-0.8228977175782961 l 27.908613827463693 -8.80322023047403" fill="#e2ff1b" stroke="none" /><path d="M 79.86692584326677 105.97154293290107 l -22.100878851062625 6.555200953741495 a44.05253794126106,44.05253794126106 0 0,0 -0.20936988811391047,-0.7288440472733957 l 22.21044137606264 -6.173799430963503" fill="#ffc011" stroke="none" /><path d="M 79.67330655649465 105.27499134158121 l -22.96124604380436 5.958685528938473 a44.72182018979366,44.72182018979366 0 0,0 -0.18695570556165245,-0.746795110096966 l 23.06041306366107 -5.562562579444115" fill="#ffca12" stroke="none" /><path d="M 79.35854240842038 103.8639653848113 l -60.545059469137776 11.33369642003982 a82.59672800289844,82.59672800289844 0 0,0 -0.24957410680601252,-1.3997441308104976 l 60.73118001828298 -10.289833538496108" fill="#4be1ff" stroke="none" /><path d="M 79.18660465613746 102.79330883721812 l -25.94347976750801 3.481803430219237 a47.176078727987196,47.176078727987196 0 0,0 -0.10108820678149032,-0.8057724696223075 l 25.999569483536344 -3.0347132063095206" fill="#ffef16" stroke="none" /><line stroke="#e1ed5e" stroke-width="0.3" x1="15.007084014347285" x2="10.007500721073583" y1="101.09737516637583" y2="101.16192664675087" /><path d="M 14.007167355692545 101.11028546245083 a86.0,86.0 0 0,1 10.666146001902534,-42.60595125391555" fill="none" id="id58" stroke="none" /><text fill="#e1ed5e" style="font-size:6.75px; font-family:Arial;" text-anchor="middle"><textPath startOffset="22.20632615414155" xlink:href="#id58">October</textPath></text><path d="M 79.00019446554 99.90962569577889 l -17.300645158853953 -0.07445467846081769 a38.30080536887579,38.30080536887579 0 0,0 0.008511885049633587,-0.6592548775205432 l 17.296800266686603 0.37224581404183293" fill="#ff6409" stroke="none" /><path d="M 79.08570108090925 98.10471618934814 l -26.429875895646223 -2.3951133191862066 a47.538178303549856,47.538178303549856 0 0,0 0.0808666842301674,-0.8143164743582209 l 26.384732085733827 2.8497053242488577" fill="#fff417" stroke="none" /><path d="M 79.46518482838121 95.60439243477599 l -21.3611979431103 -4.572500044254414 a42.845103209173594,42.845103209173594 0 0,0 0.1605785767637607,-0.7198422733372164 l 21.279324979344505 4.93952048714159" fill="#ffad10" stroke="none" /><path d="M 79.71946130924805 94.55025226153421 l -16.764523683050115 -4.5049308808458965 a38.35925276504571,38.35925276504571 0 0,0 0.17684205423073002,-0.6361949593981473 l 16.68449485825302 4.792837143662987" fill="#ff6509" stroke="none" /><path d="M 80.38941819471856 92.48833698450439 l -16.206155029304277 -6.207626911111227 a38.35436811587782,38.35436811587782 0 0,0 0.24146165976814563,-0.6144935866276807 l 16.09689981965444 6.485669502634671" fill="#ff6509" stroke="none" /><path d="M 80.95270993114464 91.15688171328213 l -39.823261093099056 -18.488814268910208 a64.9059036709119,64.9059036709119 0 0,0 0.4791965969272129,-1.009310243497205 l 39.49910630233009 19.171566928047945" fill="#31ff3b" stroke="none" /><path d="M 81.43458229118936 90.18545643968196 l -23.343734515845412 -12.34058413657648 a47.40492298754525,47.40492298754525 0 0,0 0.38757339686350495,-0.7181146421903692 l 23.127853019763435 12.740579762099323" fill="#fff216" stroke="none" /><line stroke="#e1ed5e" stroke-width="0.3" x1="26.266209847984243" x2="21.928928074336255" y1="57.711370442889674" y2="55.22380399835377" /><path d="M 25.398753493254645 57.213857153982495 a86.0,86.0 0 0,1 29.58750427330803,-30.492523968695096" fill="none" id="id59" stroke="none" /><text fill="#e1ed5e" style="font-size:6.75px; font-family:Arial;" text-anchor="middle"><textPath startOffset="21.46611528233685" xlink:href="#id59">November</textPath></text><path d="M 82.15384107792192 88.93136811851018 l -39.564760394353726 -24.5390490018933 a67.55679532549402,67.55679532549402 0 0,0 0.6214337401402472,-0.9829589392663803 l 39.13649905796752 25.2164555888739" fill="#34ff60" stroke="none" /><path d="M 82.7489923806493 88.02491185347247 l -14.46218379749313 -10.03917739691896 a38.60510843474931,38.60510843474931 0 0,0 0.38363804483023983,-0.5426288077026588 l 14.287233132859013 10.286632704953405" fill="#ff6909" stroke="none" /><path d="M 83.6137871275137 86.86637796730984 l -48.4290612264335 -38.81610659495109 a83.06499901284337,83.06499901284337 0 0,0 0.9038322633384608,-1.1079914845231644 l 47.75373047101864 39.64398224908233" fill="#4cdcff" stroke="none" /><path d="M 85.31137513191541 84.99185889309783 l -31.9321260900688 -32.6267338506575 a66.65264985073367,66.65264985073367 0 0,0 0.8268634354166547,-0.795441969747772 l 31.365779411039718 33.171558907167594" fill="#33ff54" stroke="none" /><path d="M 87.22198572758235 83.33499621200491 l -11.274104778547713 -14.703614727235934 a39.52840318550581,39.52840318550581 0 0,0 0.5435227836001864,-0.4093700921986407 l 11.019335841189136 14.89550140894043" fill="#ff790b" stroke="none" /><path d="M 88.09926311788651 82.69761687909137 l -18.298089941423072 -26.603441928305234 a53.28874754364308,53.28874754364308 0 0,0 0.7602408859538341,-0.5133180398382261 l 17.837444361062698 26.914471880442125" fill="#b8ff1f" stroke="none" /><line stroke="#e1ed5e" stroke-width="0.3" x1="56.762969772571076" x2="54.21961505331055" y1="26.818313649435495" y2="22.513508569990535" /><path d="M 56.25429882871897 25.957352633546506 a86.0,86.0 0 0,1 42.265352541879196,-11.944610805530505" fill="none" id="id60" stroke="none" /><text fill="#e1ed5e" style="font-size:6.75px; font-family:Arial;" text-anchor="middle"><textPath startOffset="22.20632615414155" xlink:href="#id60">December</textPath></text><path d="M 89.3179101791058 81.91981866633112 l -23.970380311023078 -40.571538896124366 a68.1235493214891,68.1235493214891 0 0,0 1.0147270868486529,-0.5877954248041855 l 23.268456491709106 40.9781384783186" fill="#35ff68" stroke="none" /><path d="M 90.26544431104013 81.39251694778311 l -9.601466665456396 -18.353085026420434 a41.71289193026624,41.71289193026624 0 0,0 0.6390802624241168,-0.3273617324256933 l 9.284125915443516 18.51563928415863" fill="#ff9c0e" stroke="none" /><path d="M 92.23578459929587 80.48803036053334 l -11.378337373053334 -28.594489193395003 a51.775174631611854,51.775174631611854 0 0,0 0.8309097850445178,-0.32238008763924186 l 10.88444442300914 28.786111984924798" fill="#cdff1d" stroke="none" /><path d="M 93.59665428221793 80.00007090966166 l -18.933394538259993 -59.13573386378982 a83.09274070574105,83.09274070574105 0 0,0 1.3659442625322122,-0.42440553144471854 l 17.912664903017053 59.452879530117066" fill="#4cdcff" stroke="none" /><path d="M 94.63758080256005 79.69619591428918 l -6.361097604495375 -24.08511434417839 a45.91096737796556,45.91096737796556 0 0,0 0.7658192278273475,-0.1952243728495899 l 5.945569487983028 24.191041713196842" fill="#ffdc14" stroke="none" /><path d="M 95.33964822691252 79.52364482259891 l -4.408251954879891 -19.368695140322593 a40.864013610961365,40.864013610961365 0 0,0 0.6872106536666932,-0.1501976316377589 l 4.0741985770596765 19.44170627005622" fill="#ff8e0d" stroke="none" /><path d="M 96.40284397218896 79.31037775812273 l -10.349818122450797 -59.52864584413056 a81.42167170149906,81.42167170149906 0 0,0 1.3828920134891762,-0.22818903130171614 l 9.323596902822736 59.6979811383719" fill="#49efff" stroke="none" /></svg>