<?xml version="1.0" encoding="utf-8" ?>
<svg baseProfile="full" height="200mm" version="1.1" viewBox="0,0,200,200" width="200mm" xmlns="http://www.w3.org/2000/svg" xmlns:ev="http://www.w3.org/2001/xml-events" xmlns:xlink="http://www.w3.org/1999/xlink"><defs /><rect fill="#1a1a1a" height="200" width="200" x="0" y="0" /><text alignment-baseline="middle" fill="#e1ed5e" style="dominant-baseline: central; font-size:9.0px; font-family:Arial;" text-anchor="middle" x="100.0" y="100.0">2021</text><line stroke="#e1ed5e" stroke-width="0.3" x1="100.0" x2="100.0" y1="15.0" y2="10.0" /><path d="M 100.0 14.0 a86.0,86.0 0 0,1 42.46469731375804,11.215312516191453" fill="none" id="id73" stroke="none" /><text fill="#e1ed5e" style="font-size:6.75px; font-family:Arial;" text-anchor="middle"><textPath startOffset="22.20632615414155" xlink:href="#id73">January</textPath></text><line stroke="#e1ed5e" stroke-width="0.3" x1="143.23703022742887" x2="145.7803849466894" y1="26.81831364943548" y2="22.513508569990506" /><path d="M 143.74570117128098 25.957352633546492 a86.0,86.0 0 0,1 28.547481713284135,27.462654790039103" fill="none" id="id74" stroke="none" /><text fill="#e1ed5e" style="font-size:6.75px; font-family:Arial;" text-anchor="middle"><textPath startOffset="19.985693538727396" xlink:href="#id74">February</textPath></text><path d="M 115.9244219780498 86.31012108654704 l 14.59702265635133 -12.548742612939202 a40.24951977571987,40.24951977571987 0 0,0 0.44713265599599195,0.5292640317995873 l -14.81086592583444 12.295619631510508" fill="#ff0000" stroke="none" /><path d="M 117.45458315368197 88.32363383020206 l 24.631641281300265 -16.47750968506533 a50.63487940977788,50.63487940977788 0 0,0 0.4783871639593172,0.7286164709668425 l -24.911625080617505 16.051075150120813" fill="#ffc912" stroke="none" /><line stroke="#e1ed5e" stroke-width="0.3" x1="172.23445277983987" x2="176.4835382374775" y1="55.19839476539836" y2="52.563006222186495" /><path d="M 173.08426987136738 54.67131705675599 a86.0,86.0 0 0,1 12.851231095245387,41.99856678651699" fill="none" id="id75" stroke="none" /><text fill="#e1ed5e" style="font-size:6.75px; font-family:Arial;" text-anchor="middle"><textPath startOffset="22.20632615414155" xlink:href="#id75">March</textPath></text><line stroke="#e1ed5e" stroke-width="0.3" x1="184.98032266829074" x2="189.97916517819016" y1="98.17113171792111" y2="98.06355123074" /><path d="M 185.9800911702706 98.14961562048488 a86.0,86.0 0 0,1 -9.607161424134198,41.387399972396054" fill="none" id="id76" stroke="none" /><text fill="#e1ed5e" style="font-size:6.75px; font-family:Arial;" text-anchor="middle"><textPath startOffset="21.466115282336823" xlink:href="#id76">April</textPath></text><line stroke="#e1ed5e" stroke-width="0.3" x1="174.80103733775053" x2="179.2010983576182" y1="140.37084112569926" y2="142.7455964860345" /><path d="M 175.68104954172406 140.8457921977663 a86.0,86.0 0 0,1 -30.038265399797805,32.042727171017184" fill="none" id="id77" stroke="none" /><text fill="#e1ed5e" style="font-size:6.75px; font-family:Arial;" text-anchor="middle"><textPath startOffset="22.206326154141568" xlink:href="#id77">May</textPath></text><path d="M 116.27256486870786 113.27417163493432 l 30.359106542920607 24.765118110479275 a60.17890280636242,60.17890280636242 0 0,0 -0.6616928276193691,0.7970516368968683 l -29.928317715407694 -25.284031004489915" fill="#95ff23" stroke="none" /><path d="M 115.56566222782051 114.09645910891815 l 36.648069000494594 33.188951329224494 a70.44276945923079,70.44276945923079 0 0,0 -0.8216766385603731,0.8917677080502553 l -36.0713459539385 -33.81487029207608" fill="#35ff67" stroke="none" /><path d="M 114.81725581225074 114.88116024355365 l 24.625537195074724 24.731743159925443 a55.90094843803715,55.90094843803715 0 0,0 -0.687714890057389,0.6730737647184906 l -24.19617235264154 -25.151967027566506" fill="#daff1c" stroke="none" /><path d="M 113.20401910651253 116.32954008644616 l 27.33942720802435 33.81093808882144 a64.4813041951248,64.4813041951248 0 0,0 -0.869092857725872,0.6904599282953603 l -26.753376857581127 -34.27653193112192" fill="#55ff2b" stroke="none" /><line stroke="#e1ed5e" stroke-width="0.3" x1="143.8653032363475" x2="146.44561519142675" y1="172.8068346515853" y2="177.08958963109032" /><path d="M 144.38136562736335 173.6633856474863 a86.0,86.0 0 0,1 -40.68145358897372,12.25698825130547" fill="none" id="id78" stroke="none" /><text fill="#e1ed5e" style="font-size:6.75px; font-family:Arial;" text-anchor="middle"><textPath startOffset="21.466115282336833" xlink:href="#id78">June</textPath></text><path d="M 107.59598834532513 119.57807347666477 l 16.27046059728788 41.93585595335015 a65.98159515388522,65.98159515388522 0 0,0 -1.062397247774673,0.4017077333895271 l -15.54619312875293 -42.20971193684631" fill="#40ff2d" stroke="none" /><path d="M 104.48393922423573 120.51570834832081 l 5.444721103629684 24.91164679402034 a46.499708505909126,46.499708505909126 0 0,0 -0.7834282814493156,0.16417501350820682 l -5.0151013607509904 -25.001677788255087" fill="#ff7c0b" stroke="none" /><line stroke="#e1ed5e" stroke-width="0.3" x1="102.19456741930631" x2="102.32365962044197" y1="184.97166512339345" y2="189.96999836594603" /><path d="M 102.22038585953345 185.97133177190398 a86.0,86.0 0 0,1 -42.740103519485714,-10.115201625700543" fill="none" id="id79" stroke="none" /><text fill="#e1ed5e" style="font-size:6.75px; font-family:Arial;" text-anchor="middle"><textPath startOffset="22.20632615414155" xlink:href="#id79">July</textPath></text><path d="M 99.45781275523022 120.99299961872073 l -0.8822129762822198 34.158488332913635 a55.16987891294492,55.16987891294492 0 0,0 -0.9491311643724413,-0.032689996386751026 l 1.4700644923293043 -34.13824153810079" fill="#e6ff1a" stroke="none" /><path d="M 98.01472825383883 120.90594882070398 l -3.7221487877232624 39.19617161210049 a60.372506405398966,60.372506405398966 0 0,0 -1.033713588790547,-0.10714864007799284 l 4.396294973119403 -39.126293603566744" fill="#92ff23" stroke="none" /><path d="M 96.22490169976321 120.6578951692458 l -7.834699527007446 42.872632350078796 a64.58262407546744,64.58262407546744 0 0,0 -1.0918534801301276,-0.20925631810011797 l 8.571520621709269 -42.73141883363021" fill="#53ff2b" stroke="none" /><path d="M 95.51606077576429 120.51570834832081 l -12.458408283422038 57.001903470392485 a79.34748440339465,79.34748440339465 0 0,0 -1.3318280689790811,-0.3031197324397083 l 13.437756501793983 -56.77900700437509" fill="#45ffee" stroke="none" /><line stroke="#e1ed5e" stroke-width="0.3" x1="58.666819895761336" x2="56.23545636021788" y1="174.27360380694188" y2="178.64263932499728" /><path d="M 58.180547188652646 175.14741091055294 a86.0,86.0 0 0,1 -31.652253787137756,-30.449443065178592" fill="none" id="id80" stroke="none" /><text fill="#e1ed5e" style="font-size:6.75px; font-family:Arial;" text-anchor="middle"><textPath startOffset="22.20632615414155" xlink:href="#id80">August</textPath></text><path d="M 89.7882731507175 118.34994917583269 l -23.519938198796925 42.26412211534764 a69.36779415123502,69.36779415123502 0 0,0 -1.0383738870188854,-0.589615792943096 l 24.24396085273702 -41.85300315660991" fill="#33ff55" stroke="none" /><path d="M 87.07902340077011 116.55440617244103 l -38.76292979768965 49.663218517323095 a84.0,84.0 0 0,0 -1.1321700291305676,-0.8994643439794774 l 39.61205731953757 -48.98862025933849" fill="#4dd2ff" stroke="none" /><path d="M 85.70375840098266 115.38237550388516 l -26.76885625054883 28.80257694328338 a60.321242395635295,60.321242395635295 0 0,0 -0.7544870858266106,-0.7134146323585105 l 27.260679170766256 -28.33752767417894" fill="#93ff23" stroke="none" /><path d="M 84.19399662182784 113.82643327865904 l -38.059620560367804 33.29297050611278 a71.56635840477409,71.56635840477409 0 0,0 -0.8031023057536795,-0.9341894175410604 l 38.62706537569226 -32.63290398941019" fill="#37ff79" stroke="none" /><line stroke="#e1ed5e" stroke-width="0.3" x1="26.63291911575756" x2="22.317208475507996" y1="142.92168965132927" y2="145.44649492493687" /><path d="M 25.769776987707644 143.4266507060508 a86.0,86.0 0 0,1 -11.730757126820373,-40.83630448921669" fill="none" id="id81" stroke="none" /><text fill="#e1ed5e" style="font-size:6.75px; font-family:Arial;" text-anchor="middle"><textPath startOffset="21.46611528233685" xlink:href="#id81">September</textPath></text><path d="M 81.18737489456691 109.33194174019688 l -35.706901445672706 17.7122927898955 a60.85860166546197,60.85860166546197 0 0,0 -0.4574443847559625,-0.9424709231484641 l 36.00649908704339 -17.09503291078175" fill="#8bff24" stroke="none" /><path d="M 80.45479744820244 107.68017299344265 l -45.10328812520174 17.723073191829304 a69.460436678469,69.460436678469 0 0,0 -0.4276967525932799,-1.1165812600061362 l 45.40167915738853 -16.94406836499001" fill="#33ff56" stroke="none" /><path d="M 79.18660465613746 102.79330883721812 l -24.18743071308176 3.2461288917175786 a45.404285633506554,45.404285633506554 0 0,0 -0.09729163463013386,-0.7755100540953371 l 24.23972385695874 -2.829301083334833" fill="#ff6709" stroke="none" /><line stroke="#e1ed5e" stroke-width="0.3" x1="15.007084014347285" x2="10.007500721073583" y1="101.09737516637583" y2="101.16192664675087" /><path d="M 14.007167355692545 101.11028546245083 a86.0,86.0 0 0,1 10.666146001902534,-42.60595125391555" fill="none" id="id82" stroke="none" /><text fill="#e1ed5e" style="font-size:6.75px; font-family:Arial;" text-anchor="middle"><textPath startOffset="22.20632615414155" xlink:href="#id82">October</textPath></text><path d="M 79.16333360222342 97.38593545837743 l -42.60182358221567 -5.344612919781315 a63.93576900199321,63.93576900199321 0 0,0 0.14639464652047418,-1.0908101580669087 l 42.503512936637364 6.077141419912882" fill="#5dff2a" stroke="none" /><path d="M 79.71946130924805 94.55025226153421 l -37.814307199323515 -10.161388624018004 a60.155786899679754,60.155786899679754 0 0,0 0.27732742851808595,-0.9976943148141577 l 37.633793000239066 10.810794242251104" fill="#95ff23" stroke="none" /><path d="M 80.2630227832202 92.82701384747504 l -50.86780732483946 -18.486826708204116 a75.12297648666562,75.12297648666562 0 0,0 0.4521523583816503,-1.2115435244534505 l 50.54205037795618 19.35969336968691" fill="#3dffb0" stroke="none" /><path d="M 81.6062741919709 89.86733742301443 l -45.600219889022576 -25.120067918492097 a73.06148159778846,73.06148159778846 0 0,0 0.6162991990905675,-1.0963275066694964 l 45.161063048639576 25.90127893509638" fill="#3aff90" stroke="none" /><line stroke="#e1ed5e" stroke-width="0.3" x1="26.266209847984243" x2="21.928928074336255" y1="57.711370442889674" y2="55.22380399835377" /><path d="M 25.398753493254645 57.213857153982495 a86.0,86.0 0 0,1 29.58750427330803,-30.492523968695096" fill="none" id="id83" stroke="none" /><text fill="#e1ed5e" style="font-size:6.75px; font-family:Arial;" text-anchor="middle"><textPath startOffset="21.46611528233685" xlink:href="#id83">November</textPath></text><path d="M 84.07557802195018 86.31012108654704 l -18.908978829914826 -16.255637467745686 a45.935822221714375,45.935822221714375 0 0,0 0.5206237829528438,-0.5951629828359829 l 18.626363183384136 16.578716006784614" fill="#ff720a" stroke="none" /><path d="M 84.5562425177563 85.77008943001954 l -43.97412262026329 -40.51784891074264 a80.79481198712577,80.79481198712577 0 0,0 0.9511960827843149,-1.0146696608853802 l 43.270159215508514 41.26878798850607" fill="#47fcff" stroke="none" /><line stroke="#e1ed5e" stroke-width="0.3" x1="56.762969772571076" x2="54.21961505331055" y1="26.818313649435495" y2="22.513508569990535" /><path d="M 56.25429882871897 25.957352633546506 a86.0,86.0 0 0,1 42.265352541879196,-11.944610805530505" fill="none" id="id84" stroke="none" /><text fill="#e1ed5e" style="font-size:6.75px; font-family:Arial;" text-anchor="middle"><textPath startOffset="22.20632615414155" xlink:href="#id84">December</textPath></text></svg>