<?xml version="1.0" encoding="utf-8" ?>
<svg baseProfile="full" height="200mm" version="1.1" viewBox="0,0,200,200" width="200mm" xmlns="http://www.w3.org/2000/svg" xmlns:ev="http://www.w3.org/2001/xml-events" xmlns:xlink="http://www.w3.org/1999/xlink"><defs /><rect fill="#1a1a1a" height="200" width="200" x="0" y="0" /><text alignment-baseline="middle" fill="#e1ed5e" style="dominant-baseline: central; font-size:9.0px; font-family:Arial;" text-anchor="middle" x="100.0" y="100.0">2025</text><line stroke="#e1ed5e" stroke-width="0.3" x1="100.0" x2="100.0" y1="15.0" y2="10.0" /><path d="M 100.0 14.0 a86.0,86.0 0 0,1 42.46469731375804,11.215312516191453" fill="none" id="id73" stroke="none" /><text fill="#e1ed5e" style="font-size:6.75px; font-family:Arial;" text-anchor="middle"><textPath startOffset="22.20632615414155" xlink:href="#id73">January</textPath></text><path d="M 100.0 79.0 l 0.0 -24.237111724920908 a45.23711172492091,45.23711172492091 0 0,0 0.7786825155823487,0.0067023662504610984 l -0.41720203630982033 24.233520735279004" fill="#ffab0f" stroke="none" /><path d="M 100.36148047927253 79.00311137660856 l 0.591921897093564 -34.38226642841754 a55.387361287062234,55.387361287062234 0 0,0 0.9531198626658666,0.024616274075160694 l -1.1836683949542983 34.36698336220002" fill="#b5ff20" stroke="none" /><path d="M 101.08401301168833 79.027996857942 l 1.3578522499066705 -26.269870697530674 a47.30494001509141,47.30494001509141 0 0,0 0.8128294111814591,0.04903208982330328 l -1.8098437099277416 26.242605338327067" fill="#ffcd13" stroke="none" /><path d="M 101.44485096284872 79.0497635885617 l 3.4719229284108066 -50.34263603845177 a71.46221608412425,71.46221608412425 0 0,0 1.2264611317441274,0.09519698849450807 l -4.337974249517275 50.275413787768805" fill="#39ff8a" stroke="none" /><path d="M 102.16513564639614 79.11191278185805 l 3.4062119891301106 -32.86133745516519 a54.03739970786346,54.03739970786346 0 0,0 0.9243825348008761,0.10386514838742582 l -3.971361227440712 32.79783635330716" fill="#c9ff1d" stroke="none" /><path d="M 102.52436894288641 79.15227682838746 l 2.91316960764109 -24.058667693246722 a45.23439803950074,45.23439803950074 0 0,0 0.7721840696178369,0.10025165406758342 l -3.326868405766773 24.004957716015003" fill="#ffab0f" stroke="none" /><path d="M 102.88285421437855 79.19881850522331 l 4.924379518207966 -35.53176972894057 a56.87138377188428,56.87138377188428 0 0,0 0.9685224267986751,0.14273502943698382 l -5.535270925435298 35.44174021534261" fill="#a0ff22" stroke="none" /><path d="M 103.59715602781102 79.31037775812273 l 4.4235467598341245 -25.442741633295697 a46.82442386104823,46.82442386104823 0 0,0 0.7929044560254521,0.1448982212209149 l -4.860846336962478 25.362827930724045" fill="#ffc512" stroke="none" /><path d="M 103.95276090670814 79.375362276772 l 10.510171602942075 -54.839765631097684 a76.83783306681065,76.83783306681065 0 0,0 1.2968528125064447,0.26013647403095735 l -11.452590824915644 54.65072520098952" fill="#42ffd4" stroke="none" /><path d="M 104.66035177308747 79.52364482259891 l 6.468108074980113 -28.419159050168737 a50.14592635666965,50.14592635666965 0 0,0 0.8400070994094316,0.1988025408893193 l -6.9563388613520685 28.303610597138547" fill="#fffa17" stroke="none" /><path d="M 105.36241919743992 79.69619591428918 l 7.587111840353846 -28.727189485011753 a50.712214353457526,50.712214353457526 0 0,0 0.8420693422471556,0.23016936058983428 l -8.080479071824714 28.592333583595625" fill="#fbff18" stroke="none" /><path d="M 105.71112130821622 79.79150937346287 l 5.959586496626875 -21.087671116679054 a42.9136155012357,42.9136155012357 0 0,0 0.7091163986563982,0.20701052201978123 l -6.3216931130067 20.98196226574057" fill="#ff840c" stroke="none" /><path d="M 106.40334571778207 80.00007090966166 l 4.43865948761453 -13.863514312826519 a35.55674163914907,35.55674163914907 0 0,0 0.5812971518956275,0.19164453160056302 l -4.6766394617525755 13.78505605696672" fill="#ff0000" stroke="none" /><path d="M 107.08798089147638 80.2323363322302 l 8.754361913160116 -24.415032232012265 a46.937090264653555,46.937090264653555 0 0,0 0.7581852664084964,0.2792460322069231 l -9.173329505341188 24.26072293199902" fill="#ffc712" stroke="none" /><path d="M 107.4271985657038 80.35727306442388 l 8.57130787796482 -22.668555127240104 a45.23490685551701,45.23490685551701 0 0,0 0.7259488161895813,0.2816568623900177 l -8.960239859154067 22.51765556095954" fill="#ffab0f" stroke="none" /><path d="M 107.76421540070413 80.48803036053334 l 12.920991417142394 -32.47127742234296 a55.94761617965705,55.94761617965705 0 0,0 0.891741409209949,0.3637637111100768 l -13.478016695940731 32.2440528250493" fill="#adff20" stroke="none" /><path d="M 108.43124777332544 80.76684994638697 l 25.2937433199763 -57.69945016083909 a84.0,84.0 0 0,0 1.3192715261328791,0.591918677933875 l -26.283196964575957 57.255511152388685" fill="#4dd2ff" stroke="none" /><path d="M 108.76106565485865 80.91482961587045 l 11.325173239111443 -24.67084135802125 a48.14608557800807,48.14608557800807 0 0,0 0.7502118210361157,0.35223450921872257 l -11.748163271447156 24.472241866162523" fill="#ffdb14" stroke="none" /><path d="M 109.08828744355905 81.06846463323043 l 10.486378233339781 -21.843855800851642 a45.230521346043346,45.230521346043346 0 0,0 0.698981132613765,0.3429870061318446 l -10.860830632963978 21.660113634584967" fill="#ffab0f" stroke="none" /><path d="M 109.41281617654863 81.2277094730956 l 20.145495287468204 -40.17682734386532 a65.94461520356101,65.94461520356101 0 0,0 1.0103327781781362,0.5175316905208464 l -20.834088553235098 39.82410312803197" fill="#30ff39" stroke="none" /><path d="M 110.05341064243156 81.56283822128135 l 16.271873339905063 -29.84133165161229 a54.98939447432729,54.98939447432729 0 0,0 0.8271345271883492,0.46029946886076484 l -16.783131956165448 29.556816785191344" fill="#bbff1f" stroke="none" /><line stroke="#e1ed5e" stroke-width="0.3" x1="143.23703022742887" x2="145.7803849466894" y1="26.81831364943548" y2="22.513508569990506" /><path d="M 143.74570117128098 25.957352633546492 a86.0,86.0 0 0,1 28.547481713284135,27.462654790039103" fill="none" id="id74" stroke="none" /><text fill="#e1ed5e" style="font-size:6.75px; font-family:Arial;" text-anchor="middle"><textPath startOffset="19.985693538727396" xlink:href="#id74">February</textPath></text><path d="M 110.68208982089419 81.91981866633111 l 13.362700090745337 -22.617300996246918 a47.269831709967946,47.269831709967946 0 0,0 0.6969777629006892,0.4199213036102483 l -13.750039919863664 22.383933083178057" fill="#ffcd13" stroke="none" /><path d="M 110.99172775467656 82.1063720568725 l 30.44031546172604 -49.554327718116326 a79.15706492769274,79.15706492769274 0 0,0 1.1548670784890618,0.7231776586021411 l -31.288801692587363 49.02300571819124" fill="#45fff2" stroke="none" /><path d="M 111.60114157652 82.49532879139004 l 24.988074961417137 -37.703878833872075 a66.23258083944259,66.23258083944259 0 0,0 0.9449033474683917,0.6380029581683135 l -25.63338300329207 37.268163963405094" fill="#31ff3d" stroke="none" /><path d="M 111.90073688211348 82.69761687909136 l 13.734843050169504 -19.968974939422264 a45.236457532899976,45.236457532899976 0 0,0 0.637766972906584,0.44679652152328564 l -14.076541162659739 19.729593575135045" fill="#ffab0f" stroke="none" /><path d="M 112.19680574252982 82.90503203632743 l 23.052187730395293 -32.309804637581735 a60.690387184759054,60.690387184759054 0 0,0 0.8451994278326088,0.6140733289661845 l -23.60493247458169 31.90821207379888" fill="#6bff28" stroke="none" /><path d="M 112.77801427241765 83.33499621200491 l 17.693076302029834 -23.075195981826504 a50.07764809315141,50.07764809315141 0 0,0 0.6795475914633612,0.5303976739424417 l -18.087656448652627 22.76721991866084" fill="#fff917" stroke="none" /><path d="M 113.06298171725822 83.55741782278167 l 38.73006978358841 -48.75015283108847 a83.26231369372738,83.26231369372738 0 0,0 1.1145120669982855,0.9011912490602665 l -39.56348524915119 48.076255484764076" fill="#4cdbff" stroke="none" /><path d="M 113.6212207817346 84.01681056812373 l 23.862132447098592 -27.99991199481381 a57.78853675589984,57.78853675589984 0 0,0 0.7515432264364595,0.6517308801357671 l -24.340569472181816 27.58501612125837" fill="#93ff23" stroke="none" /><path d="M 113.89432698308785 84.25364557470407 l 16.039190108928356 -18.177114476814968 a45.24176375706977,45.24176375706977 0 0,0 0.5795017786871299,0.5202824186836964 l -16.349702875211474 17.898333049361973" fill="#ffab0f" stroke="none" /><path d="M 114.16331599549186 84.49514656593476 l 28.0218827184407 -30.676091999520516 a62.54814714820737,62.54814714820737 0 0,0 0.7886788689564356,0.7329910553667803 l -28.545769471191985 30.189196358079094" fill="#53ff2b" stroke="none" /><path d="M 114.94478906791727 85.2469230424477 l 39.21950567582226 -38.716396922235106 a76.11015347552491,76.11015347552491 0 0,0 0.9123640726109827,0.9402713758917651 l -39.88013401213635 38.03556135079323" fill="#40ffca" stroke="none" /><path d="M 115.4437574822437 85.77008943001954 l 25.465384371769403 -23.46385862748028 a55.62713477740164,55.62713477740164 0 0,0 0.6427751432402569,0.7097683674183765 l -25.865503155625696 23.022037472792356" fill="#b1ff20" stroke="none" /><path d="M 115.68641384162765 86.03803664274999 l 14.729701829090383 -13.110425319471181 a40.71921316968148,40.71921316968148 0 0,0 0.4615001925282014,0.5275744984345899 l -14.95319388519643 12.854935264833642" fill="#ff5e08" stroke="none" /><path d="M 115.9244219780498 86.31012108654704 l 23.90414266935975 -20.549871080062612 a52.52309055540556,52.52309055540556 0 0,0 0.5834799796871977,0.6906562568902497 l -24.254333262534065 20.135355873543258" fill="#dfff1b" stroke="none" /><path d="M 116.38621287248628 86.86637796730983 l 11.819418953616703 -9.473316524739055 a36.147355887382055,36.147355887382055 0 0,0 0.38496231626336885,0.48886304811918674 l -11.980735350474035 9.26846108266683" fill="#ff0b01" stroke="none" /><path d="M 116.60985879189232 87.15038557335679 l 44.13945244487881 -34.14688541462488 a76.80592303378953,76.80592303378953 0 0,0 0.7999668238468913,1.052662569125439 l -44.72069520894982 33.38203806961841" fill="#42ffd3" stroke="none" /><path d="M 117.04232023915458 87.72973835380427 l 29.041618461486557 -20.90960926392649 a56.785854222480665,56.785854222480665 0 0,0 0.564309102375624,0.7981752058332494 l -29.397240183666064 20.406607557761447" fill="#a1ff22" stroke="none" /><path d="M 117.45458315368197 88.32363383020206 l 35.70615578757198 -23.88588405811303 a63.958875897350694,63.958875897350694 0 0,0 0.6042693417504427,0.9203436640225293 l -36.11202176468035 23.26772233011283" fill="#41ff2d" stroke="none" /><line stroke="#e1ed5e" stroke-width="0.3" x1="172.23445277983987" x2="176.4835382374775" y1="55.19839476539836" y2="52.563006222186495" /><path d="M 173.08426987136738 54.67131705675599 a86.0,86.0 0 0,1 12.851231095245387,41.99856678651699" fill="none" id="id75" stroke="none" /><text fill="#e1ed5e" style="font-size:6.75px; font-family:Arial;" text-anchor="middle"><textPath startOffset="22.20632615414155" xlink:href="#id75">March</textPath></text><path d="M 117.84615892207809 88.93136811851018 l 22.526071224123868 -13.971229955124393 a47.50696420288952,47.50696420288952 0 0,0 0.4250384783383254,0.6986515020452304 l -22.763225500748415 13.581410679872082" fill="#ffd013" stroke="none" /><path d="M 118.03404312379186 89.2402003453031 l 48.16090219322187 -28.73463566829722 a77.08165285594623,77.08165285594623 0 0,0 0.6700242859376024,1.1452886962307327 l -48.6483861536298 27.90136755971259" fill="#42ffd7" stroke="none" /><path d="M 118.3937258080291 89.86733742301442 l 38.769314780673 -21.357086058226514 a65.26268059507245,65.26268059507245 0 0,0 0.5335749372126762,0.9886333226662989 l -39.131197817104145 20.686571752227756" fill="#30ff2f" stroke="none" /><path d="M 118.73160827565052 90.50648371742162 l 40.90345447981565 -20.730607078870715 a66.85684963275253,66.85684963275253 0 0,0 0.5114230218562528,1.0309976046064007 l -41.254237514625316 20.023449885765366" fill="#32ff47" stroke="none" /><path d="M 119.04729006885535 91.15688171328212 l 25.519234503051507 -11.847859117028625 a49.13544197766747,49.13544197766747 0 0,0 0.3495581517354962,0.7702050516602837 l -25.71939497175035 11.406832056526278" fill="#ffea16" stroke="none" /><path d="M 119.196687751892 91.48605970444005 l 56.04596576765437 -24.856996817368984 a82.31085197261393,82.31085197261393 0 0,0 0.5632778147251681,1.300122857577217 l -56.46553429222222 23.888574815205164" fill="#4ae6ff" stroke="none" /><path d="M 119.47837535516314 92.15188598940014 l 37.39786130626301 -15.068129345107524 a61.31933223955196,61.31933223955196 0 0,0 0.3860386304293221,0.9824262071963461 l -37.65169348657403 14.422154133015393" fill="#63ff29" stroke="none" /><path d="M 119.7369772167798 92.82701384747503 l 29.771406019072074 -10.819786676069553 a52.67655915764989,52.67655915764989 0 0,0 0.3023808057140242,0.8548712567907588 l -29.953239905595908 10.30571779285218" fill="#ddff1b" stroke="none" /><path d="M 119.97218684219823 93.5106431181261 l 51.64914098031817 -16.781823198015537 a75.30712065516119,75.30712065516119 0 0,0 0.3899636383073729,1.2362913006082092 l -51.93036010239375 15.890281730980908" fill="#3fffc0" stroke="none" /><path d="M 120.08093135843002 93.85539295169968 l 48.05693152889576 -14.705043054099917 a71.2564121202052,71.2564121202052 0 0,0 0.34879709328263414,1.1759704022257864 l -48.3029345192901 13.875643265127602" fill="#39ff87" stroke="none" /><line stroke="#e1ed5e" stroke-width="0.3" x1="184.98032266829074" x2="189.97916517819016" y1="98.17113171792111" y2="98.06355123074" /><path d="M 185.9800911702706 98.14961562048488 a86.0,86.0 0 0,1 -9.607161424134198,41.387399972396054" fill="none" id="id76" stroke="none" /><text fill="#e1ed5e" style="font-size:6.75px; font-family:Arial;" text-anchor="middle"><textPath startOffset="21.466115282336823" xlink:href="#id76">April</textPath></text><line stroke="#e1ed5e" stroke-width="0.3" x1="174.80103733775053" x2="179.2010983576182" y1="140.37084112569926" y2="142.7455964860345" /><path d="M 175.68104954172406 140.8457921977663 a86.0,86.0 0 0,1 -30.038265399797805,32.042727171017184" fill="none" id="id77" stroke="none" /><text fill="#e1ed5e" style="font-size:6.75px; font-family:Arial;" text-anchor="middle"><textPath startOffset="22.206326154141568" xlink:href="#id77">May</textPath></text><line stroke="#e1ed5e" stroke-width="0.3" x1="143.8653032363475" x2="146.44561519142675" y1="172.8068346515853" y2="177.08958963109032" /><path d="M 144.38136562736335 173.6633856474863 a86.0,86.0 0 0,1 -40.68145358897372,12.25698825130547" fill="none" id="id78" stroke="none" /><text fill="#e1ed5e" style="font-size:6.75px; font-family:Arial;" text-anchor="middle"><textPath startOffset="21.466115282336833" xlink:href="#id78">June</textPath></text><line stroke="#e1ed5e" stroke-width="0.3" x1="102.19456741930631" x2="102.32365962044197" y1="184.97166512339345" y2="189.96999836594603" /><path d="M 102.22038585953345 185.97133177190398 a86.0,86.0 0 0,1 -42.740103519485714,-10.115201625700543" fill="none" id="id79" stroke="none" /><text fill="#e1ed5e" style="font-size:6.75px; font-family:Arial;" text-anchor="middle"><textPath startOffset="22.20632615414155" xlink:href="#id79">July</textPath></text><line stroke="#e1ed5e" stroke-width="0.3" x1="58.666819895761336" x2="56.23545636021788" y1="174.27360380694188" y2="178.64263932499728" /><path d="M 58.180547188652646 175.14741091055294 a86.0,86.0 0 0,1 -31.652253787137756,-30.449443065178592" fill="none" id="id80" stroke="none" /><text fill="#e1ed5e" style="font-size:6.75px; font-family:Arial;" text-anchor="middle"><textPath startOffset="22.20632615414155" xlink:href="#id80">August</textPath></text><line stroke="#e1ed5e" stroke-width="0.3" x1="26.63291911575756" x2="22.317208475507996" y1="142.92168965132927" y2="145.44649492493687" /><path d="M 25.769776987707644 143.4266507060508 a86.0,86.0 0 0,1 -11.730757126820373,-40.83630448921669" fill="none" id="id81" stroke="none" /><text fill="#e1ed5e" style="font-size:6.75px; font-family:Arial;" text-anchor="middle"><textPath startOffset="21.46611528233685" xlink:href="#id81">September</textPath></text><line stroke="#e1ed5e" stroke-width="0.3" x1="15.007084014347285" x2="10.007500721073583" y1="101.09737516637583" y2="101.16192664675087" /><path d="M 14.007167355692545 101.11028546245083 a86.0,86.0 0 0,1 10.666146001902534,-42.60595125391555" fill="none" id="id82" stroke="none" /><text fill="#e1ed5e" style="font-size:6.75px; font-family:Arial;" text-anchor="middle"><textPath startOffset="22.20632615414155" xlink:href="#id82">October</textPath></text><line stroke="#e1ed5e" stroke-width="0.3" x1="26.266209847984243" x2="21.928928074336255" y1="57.711370442889674" y2="55.22380399835377" /><path d="M 25.398753493254645 57.213857153982495 a86.0,86.0 0 0,1 29.58750427330803,-30.492523968695096" fill="none" id="id83" stroke="none" /><text fill="#e1ed5e" style="font-size:6.75px; font-family:Arial;" text-anchor="middle"><textPath startOffset="21.46611528233685" xlink:href="#id83">November</textPath></text><line stroke="#e1ed5e" stroke-width="0.3" x1="56.762969772571076" x2="54.21961505331055" y1="26.818313649435495" y2="22.513508569990535" /><path d="M 56.25429882871897 25.957352633546506 a86.0,86.0 0 0,1 42.265352541879196,-11.944610805530505" fill="none" id="id84" stroke="none" /><text fill="#e1ed5e" style="font-size:6.75px; font-family:Arial;" text-anchor="middle"><textPath startOffset="22.20632615414155" xlink:href="#id84">December</textPath></text></svg>