<?xml version="1.0" encoding="utf-8" ?>
<svg baseProfile="full" height="200mm" version="1.1" viewBox="0,0,200,200" width="200mm" xmlns="http://www.w3.org/2000/svg" xmlns:ev="http://www.w3.org/2001/xml-events" xmlns:xlink="http://www.w3.org/1999/xlink"><defs /><rect fill="#1a1a1a" height="200" width="200" x="0" y="0" /><text alignment-baseline="middle" fill="#e1ed5e" style="dominant-baseline: central; font-size:9.0px; font-family:Arial;" text-anchor="middle" x="100.0" y="100.0">2020</text><line stroke="#e1ed5e" stroke-width="0.3" x1="100.0" x2="100.0" y1="15.0" y2="10.0" /><path d="M 100.0 14.0 a86.0,86.0 0 0,1 42.35913384403234,11.155469271406648" fill="none" id="id61" stroke="none" /><text fill="#e1ed5e" style="font-size:6.75px; font-family:Arial;" text-anchor="middle"><textPath startOffset="22.145653131862478" xlink:href="#id61">January</textPath></text><path d="M 101.44090949804482 79.04949213459386 l 4.322728494134444 -62.8515235962184 a84.0,84.0 0 0,0 1.437724020899066,0.1112889320197854 l -5.401021509808744 62.76805689720356" fill="#4dd2ff" stroke="none" /><path d="M 105.3480935250658 79.69241777938227 l 2.3423176401312196 -8.894161599984876 a30.197421513332714,30.197421513332714 0 0,0 0.500153564102474,0.13631907798023787 l -2.4946526051683864 8.852642027860497" fill="#ff3605" stroke="none" /><line stroke="#e1ed5e" stroke-width="0.3" x1="143.13028292997686" x2="145.6673583964461" y1="26.7553504044142" y2="22.446841604673864" /><path d="M 143.63769802327073 25.89364864446614 a86.0,86.0 0 0,1 29.32050498858742,28.57503671076993" fill="none" id="id62" stroke="none" /><text fill="#e1ed5e" style="font-size:6.75px; font-family:Arial;" text-anchor="middle"><textPath startOffset="20.669276256404974" xlink:href="#id62">February</textPath></text><path d="M 114.39649973595853 84.71141617570332 l 3.908166100523552 -4.1503369654423015 a26.7007946109291,26.7007946109291 0 0,0 0.33099768983257355,0.31708829938894545 l -3.9788362762214375 4.082636535747776" fill="#ff0000" stroke="none" /><path d="M 115.16444852881244 85.47280134310134 l 6.472818876181422 -6.200814062295142 a29.963675542934812,29.963675542934812 0 0,0 0.35263560048837345,0.37448678750931036 l -6.578310310406056 6.088785814841336" fill="#ff3304" stroke="none" /><path d="M 115.6541949942343 86.00192230759917 l 8.791811612556277 -7.861692156948518 a32.79415766391586,32.79415766391586 0 0,0 0.3716498424195039,0.42286929785280697 l -8.92547251893437 7.709610581284413" fill="#ff5e08" stroke="none" /><path d="M 116.35404254752997 86.82634096563983 l 11.619426489957242 -9.359787484265048 a35.920344959354146,35.920344959354146 0 0,0 0.3826946185877512,0.4835221489387779 l -11.778387539186552 9.158945391411592" fill="#ff8b0c" stroke="none" /><path d="M 117.42321728460499 88.27688183743584 l 10.23363525099268 -6.885646509498203 a33.33448086885398,33.33448086885398 0 0,0 0.31536888999552115,0.47750869478442737 l -10.350328579908927 6.708957936374717" fill="#ff6609" stroke="none" /><line stroke="#e1ed5e" stroke-width="0.3" x1="172.87174338648825" x2="177.1583165268699" y1="56.24261187166439" y2="53.66864786411523" /><path d="M 173.72905801456457 55.72781907015455 a86.0,86.0 0 0,1 12.242430191666344,42.057860355516425" fill="none" id="id63" stroke="none" /><text fill="#e1ed5e" style="font-size:6.75px; font-family:Arial;" text-anchor="middle"><textPath startOffset="22.145653131862474" xlink:href="#id63">March</textPath></text><path d="M 118.00360718960297 89.18935116829356 l 10.039700426845748 -6.028551642297643 a32.71063702642415,32.71063702642415 0 0,0 0.284935022406458,0.48388196079200935 l -10.141709159381973 5.855318513212077" fill="#ff5c08" stroke="none" /><path d="M 118.36410011445183 89.81374322990088 l 7.723575881741366 -4.284137345387734 a29.832183036778776,29.832183036778776 0 0,0 0.2445594781384665,0.4499618944666956 l -7.795980709495173 4.1509206174464355" fill="#ff3104" stroke="none" /><path d="M 118.70294669586156 90.45014215332178 l 10.013362135828237 -5.1128940545838875 a32.2431804609122,32.2431804609122 0 0,0 0.24747422023902163,0.49511421688607554 l -10.099656269278995 4.940247981534061" fill="#ff5507" stroke="none" /><path d="M 119.0197475246899 91.09779779509293 l 12.791795106259698 -5.987206005328994 a35.12362056240457,35.12362056240457 0 0,0 0.2509089873760591,0.5482814192793851 l -12.892688558490809 5.766735603834924" fill="#ff800b" stroke="none" /><path d="M 120.05942366710727 93.78553927170692 l 13.622719356778285 -4.220353279345484 a35.26148184713019,35.26148184713019 0 0,0 0.17416431710998265,0.5797363677848749 l -13.693159993891895 3.9858793079698858" fill="#ff820c" stroke="none" /><path d="M 120.26092885502905 94.47779374421319 l 8.483166062242844 -2.312124633228156 a29.792612055536694,29.792612055536694 0 0,0 0.13025119909533694,0.4945850184865754 l -8.521606742142911 2.166159110368782" fill="#ff3004" stroke="none" /><path d="M 120.51834098615036 95.52812308129327 l 10.89378921532257 -2.374250656139296 a32.14951611712617,32.14951611712617 0 0,0 0.11289423401741895,0.5402397779461223 l -10.932941160164356 2.1868944269077693" fill="#ff5407" stroke="none" /><path d="M 120.65975698304385 96.23510406497455 l 21.49410767207321 -3.9169424242503954 a42.8480915087238,42.8480915087238 0 0,0 0.12565750169877143,0.7247590776168898 l -21.558179991264215 3.5473903137129126" fill="#ffec16" stroke="none" /><path d="M 120.82617615685814 97.30363454192243 l 8.900617282458457 -1.1523631037801525 a29.97490549987865,29.97490549987865 0 0,0 0.061688232393737566,0.5108670577157016 l -8.919087601111858 0.9994023691410379" fill="#ff3304" stroke="none" /><path d="M 120.9064616781168 98.02013634271609 l 6.802490438024932 -0.6442029170036039 a27.832925695315044,27.832925695315044 0 0,0 0.04096261442691199,0.4760476714149658 l -6.8125466751495845 0.5273341982129761" fill="#ff1202" stroke="none" /><path d="M 120.96210409425399 98.7389718711861 l 15.333747862891729 -0.9224401943766233 a36.361468661392315,36.361468661392315 0 0,0 0.03213386016095646,0.6233883024928232 l -15.347323312509257 0.6590800985070695" fill="#ff920d" stroke="none" /><line stroke="#e1ed5e" stroke-width="0.3" x1="184.99686870605535" x2="189.99668451229388" y1="99.2704041080226" y2="99.22748670261217" /><path d="M 185.99683186730306 99.26182062694052 a86.0,86.0 0 0,1 -10.086455211305974,41.156179273409016" fill="none" id="id64" stroke="none" /><text fill="#e1ed5e" style="font-size:6.75px; font-family:Arial;" text-anchor="middle"><textPath startOffset="21.40746469413373" xlink:href="#id64">April</textPath></text><path d="M 120.98066250479742 100.90099992219065 l 8.341435280365717 0.35821712192592986 a29.349123429616476,29.349123429616476 0 0,0 -0.025936813414121164,0.5031672511585618 l -8.334056877495023 -0.5013561664612223" fill="#ff2904" stroke="none" /><path d="M 120.9064616781168 101.97986365728391 l 11.588132223778294 1.097408169727451 a32.63997908618196,32.63997908618196 0 0,0 -0.057613615913010514,0.5573594710992642 l -11.567586215383617 -1.2961721631096463" fill="#ff5b08" stroke="none" /><path d="M 120.7213421655516 103.40968896794604 l 16.93646689452005 2.786889182411752 a38.16422623319261,38.16422623319261 0 0,0 -0.1119214684685155,0.6455332881535656 l -16.8861306085593 -3.0772155034859057" fill="#ffab0f" stroke="none" /><path d="M 120.51834098615036 104.47187691870673 l 11.103803240275088 2.4200222354021474 a32.36446012877798,32.36446012877798 0 0,0 -0.12296820903935844,0.5418206181846648 l -11.060624169678066 -2.610277187525829" fill="#ff5708" stroke="none" /><path d="M 120.16314734710363 105.8691983318838 l 9.121611955303205 2.655168300391715 a30.500195964638593,30.500195964638593 0 0,0 -0.15064726505060758,0.5014557499858888 l -9.074688370248968 -2.811361653968327" fill="#ff3b05" stroke="none" /><path d="M 119.94978838288452 106.5578916946017 l 13.261121876951881 4.359194160303636 a34.95922373065913,34.95922373065913 0 0,0 -0.19229999959068875,0.5685007793192042 l -13.184336455788827 -4.586196614097" fill="#ff7d0b" stroke="none" /><path d="M 119.58574465831526 107.57618678355244 l 12.454317968002751 4.8175977392456515 a34.35362437787214,34.35362437787214 0 0,0 -0.21747696878620815,0.5481840278120123 l -12.36978232425042 -5.030682784271228" fill="#ff750a" stroke="none" /><path d="M 118.8641267826498 109.22738970284198 l 9.537864569341124 4.665447509353358 a31.617780418035785,31.617780418035785 0 0,0 -0.24267412342054276,0.48551080779172695 l -9.45637053270885 -4.828490173308831" fill="#ff4c07" stroke="none" /><path d="M 118.5362547648365 109.86951160357373 l 7.4799732076033045 3.9826644218823426 a29.474173415961623,29.474173415961623 0 0,0 -0.2416245723715116,0.44456199842081834 l -7.410503285616454 -4.110481253777764" fill="#ff2b04" stroke="none" /><line stroke="#e1ed5e" stroke-width="0.3" x1="174.33088141563837" x2="178.70328620479359" y1="141.23008692659167" y2="143.65538615756765" /><path d="M 175.20536237346943 141.71514677278685 a86.0,86.0 0 0,1 -30.301960400862466,31.631185727798858" fill="none" id="id65" stroke="none" /><text fill="#e1ed5e" style="font-size:6.75px; font-family:Arial;" text-anchor="middle"><textPath startOffset="22.145653131862474" xlink:href="#id65">May</textPath></text><path d="M 118.18653347947321 110.5 l 7.065381649430004 4.079199997225853 a29.15839999445171,29.15839999445171 0 0,0 -0.2539922823589201,0.4313344234621808 l -6.9943156569413185 -4.199885588981584" fill="#ff2603" stroke="none" /><path d="M 117.62189284568427 111.42229804090321 l 15.071058405157666 9.768877974861264 a38.96017200194372,38.96017200194372 0 0,0 -0.36859209677291255,0.5580954134074199 l -14.901141869464027 -10.026153266607745" fill="#ffb610" stroke="none" /><path d="M 116.79662413953412 112.60449989151573 l 8.500926330468406 6.379253600012048 a31.628293605716664,31.628293605716664 0 0,0 -0.3296090245365995,0.4314687937102433 l -8.390165328577503 -6.524243306963169" fill="#ff4c07" stroke="none" /><path d="M 116.1254893667686 113.45245675266167 l 8.877401097673221 7.40584373139006 a32.56091569136023,32.56091569136023 0 0,0 -0.3617446975228973,0.42613434408786904 l -8.74896183664321 -7.557144857927486" fill="#ff5a08" stroke="none" /><path d="M 115.6541949942343 113.99807769240083 l 11.50700954470545 10.289638890617608 a36.436577896711846,36.436577896711846 0 0,0 -0.4209332176760112,0.46267934287233 l -11.328678626187559 -10.48565580904761" fill="#ff930d" stroke="none" /><path d="M 115.16444852881244 114.52719865689866 l 9.926967281421796 9.509810098517384 a34.74704213699376,34.74704213699376 0 0,0 -0.4163244963160331,0.4271856094065688 l -9.762255983954956 -9.67881839999169" fill="#ff7a0b" stroke="none" /><path d="M 114.39649973595853 115.28858382429668 l 8.273618427223191 8.786296056318825 a33.0686271078599,33.0686271078599 0 0,0 -0.4166178207742684,0.385615235165744 l -8.121570835134955 -8.927029037616949" fill="#ff6209" stroke="none" /><path d="M 113.86319453409587 115.77377054828091 l 7.40088445388955 8.420847946905521 a32.210877345004135,32.210877345004135 0 0,0 -0.4184661102170894,0.36146105927664385 l -7.2552388639096055 -8.546653138646883" fill="#ff5507" stroke="none" /><path d="M 113.31354834802062 116.24036423190432 l 14.589652926803296 17.797004326317072 a44.012851529428694,44.012851529428694 0 0,0 -0.5884082933978929,0.4739800699237098 l -14.281993863050152 -18.044832690034184" fill="#fffb17" stroke="none" /><path d="M 112.45986205192187 116.90419585922612 l 7.042146630388871 9.554024387542963 a32.86891785975718,32.86891785975718 0 0,0 -0.457064199214635,0.3308792324454457 l -6.877101420800267 -9.673504391361487" fill="#ff5f08" stroke="none" /><path d="M 111.8722381534696 117.32195027204791 l 7.627005424947531 11.128028850817065 a34.490894627740445,34.490894627740445 0 0,0 -0.49125498142915686,0.33053827551877396 l -7.4348541554213705 -11.25731680039296" fill="#ff770a" stroke="none" /><path d="M 110.96478420261333 117.91015095944535 l 9.343784667339625 15.26237004142024 a38.89542542637233,38.89542542637233 0 0,0 -0.5724429485264136,0.3437355429682746 l -9.080408962255776 -15.420519584924438" fill="#ffb610" stroke="none" /><line stroke="#e1ed5e" stroke-width="0.3" x1="143.1302829299769" x2="145.66735839644613" y1="173.24464959558577" y2="177.55315839532614" /><path d="M 143.63769802327073 174.10635135553383 a86.0,86.0 0 0,1 -40.68552437913181,11.842963189579606" fill="none" id="id66" stroke="none" /><text fill="#e1ed5e" style="font-size:6.75px; font-family:Arial;" text-anchor="middle"><textPath startOffset="21.407464694133747" xlink:href="#id66">June</textPath></text><path d="M 109.71004243097381 118.62028667847754 l 6.063673918255466 11.627894263629972 a34.113964556650686,34.113964556650686 0 0,0 -0.5215745418365817,0.26631967742750373 l -5.863172154705302 -11.730271892730313" fill="#ff710a" stroke="none" /><path d="M 108.4095320186766 119.2426549942271 l 3.6439457901789742 8.33806108382175 a30.099538645409766,30.099538645409766 0 0,0 -0.4752357746842853,0.2028498929467585 l -3.500274940324258 -8.399385626427911" fill="#ff3505" stroke="none" /><path d="M 107.407793817531 119.65005319985036 l 3.101056982310853 8.225922073312447 a29.791037957132698,29.791037957132698 0 0,0 -0.48007668705606565,0.17629080924199145 l -2.95939114360066 -8.277943731563159" fill="#ff3004" stroke="none" /><path d="M 107.06938296918513 119.77432235084164 l 5.994515717108642 16.767727345369234 a38.80704633035209,38.80704633035209 0 0,0 -0.6292178704507764,0.2188746378452491 l -5.705792074612844 -16.868160415783073" fill="#ffb410" stroke="none" /><path d="M 105.3480935250658 120.30758222061773 l 3.1661457346495605 12.022371061295706 a33.43229201509199,33.43229201509199 0 0,0 -0.5562412316864741,0.14139434593028327 l -2.959299209737689 -12.074950639061258" fill="#ff6709" stroke="none" /><path d="M 104.64783097203109 120.47920084513623 l 2.7023468373390838 11.90703878176999 a33.20984238144994,33.20984238144994 0 0,0 -0.5570359345191108,0.12140338929680669 l -2.497548486200837 -11.951673629200515" fill="#ff6409" stroke="none" /><path d="M 104.29559338865022 120.5559693870025 l 3.2719612957192257 15.657519263338783 a36.995738188733576,36.995738188733576 0 0,0 -0.6227677842901831,0.12457099848705559 l -3.002697025898084 -15.711379658488699" fill="#ff9b0e" stroke="none" /><path d="M 103.58742460773223 120.69131181640829 l 2.50566944592654 14.452035508360657 a35.6676415864026,35.6676415864026 0 0,0 -0.6041801202534863,0.09941760887020802 l -2.2572118226199813 -14.492919115726535" fill="#ff880c" stroke="none" /><path d="M 102.15924093988457 120.88869738790638 l 3.1883585029832457 30.844476270691548 a52.008826910362146,52.008826910362146 0 0,0 -0.8888566993315306,0.08417565356752238 l -2.6584022402666996 -30.894663679764253" fill="#9eff22" stroke="none" /><path d="M 101.08105385017728 120.97215588758144 l 0.748150192875338 14.513913871850754 a35.533183566947784,35.533183566947784 0 0,0 -0.6094351126026915,0.02617176597305495 l -0.498889319671817 -14.52461820624964" fill="#ff860c" stroke="none" /><line stroke="#e1ed5e" stroke-width="0.3" x1="101.45913802915013" x2="101.54496967792366" y1="184.9874750549273" y2="189.98673829345242" /><path d="M 101.47630435890484 185.9873277026323 a86.0,86.0 0 0,1 -42.54439059252881,-10.42667462771756" fill="none" id="id67" stroke="none" /><text fill="#e1ed5e" style="font-size:6.75px; font-family:Arial;" text-anchor="middle"><textPath startOffset="22.145653131862474" xlink:href="#id67">July</textPath></text><path d="M 100.36049292484886 120.99690560180557 l 0.15716550570548588 9.154102784518503 a30.15545186136179,30.15545186136179 0 0,0 -0.517658430554337,0.004443475037722229 l -1.1212194816764393e-15 -9.15545186136179" fill="#ff3605" stroke="none" /><path d="M 98.19965949673042 120.92268563240118 l -1.0118948988039569 11.759752570281064 a32.803207691151485,32.803207691151485 0 0,0 -0.5606231220345854,-0.053091592534337866 l 1.2136175842235575 -11.740649222241544" fill="#ff5e08" stroke="none" /><path d="M 96.41257539226777 120.69131181640829 l -1.3835242730614021 7.979800349749914 a29.09884887104451,29.09884887104451 0 0,0 -0.4914452851526914,-0.08955770185861033 l 1.5203042917651506 -7.954874473959937" fill="#ff2503" stroke="none" /><path d="M 95.70440661134978 120.55596938700252 l -3.6228488896327375 17.33664342295382 a38.71113320066678,38.71113320066678 0 0,0 -0.6493102861208372,-0.14151415475269416 l 3.9199215923727113 -17.271897810067408" fill="#ffb310" stroke="none" /><path d="M 93.61358852112213 120.00534299687104 l -3.639290709616462 11.400026313994378 a32.96683069274672,32.96683069274672 0 0,0 -0.5376376154324876,-0.17673216303261813 l 3.834451062696693 -11.335873229559738" fill="#ff6008" stroke="none" /><path d="M 92.93061703081489 119.77432235084164 l -3.26127934056418 9.122378747559933 a30.68781383755509,30.68781383755509 0 0,0 -0.4945280530784518,-0.18159755101768757 l 3.417396545296751 -9.065050347533527" fill="#ff3e05" stroke="none" /><path d="M 91.59046798132341 119.24265499422711 l -6.532770957110617 14.948258405438484 a37.31341551404335,37.31341551404335 0 0,0 -0.5847307113976323,-0.2615426097337718 l 6.788415071363884 -14.833912044794856" fill="#ff9f0e" stroke="none" /><path d="M 91.26138138417905 119.09545874513695 l -3.7095615819042247 8.106061525737202 a29.91454320697234,29.91454320697234 0 0,0 -0.4651159988788297,-0.21769777255884848 l 3.8481662946545443 -8.041187521607826" fill="#ff3204" stroke="none" /><path d="M 90.93487009805054 118.94263497670748 l -4.016013654441556 8.391923948182994 a30.30337321753504,30.30337321753504 0 0,0 -0.46730651568023945,-0.2285830338473348 l 4.159480419383865 -8.321747164238438" fill="#ff3805" stroke="none" /><path d="M 90.28995756902619 118.62028667847754 l -8.29987701049873 15.916108547436304 a38.95022199537321,38.95022199537321 0 0,0 -0.5902093460249531,-0.31425323308466796 l 8.571875172310243 -15.771284846629062" fill="#ffb610" stroke="none" /><line stroke="#e1ed5e" stroke-width="0.3" x1="58.13341422392154" x2="55.67067388415222" y1="173.97424548756322" y2="178.32567169271397" /><path d="M 57.64086615596768 174.84453072859336 a86.0,86.0 0 0,1 -31.369924170532247,-30.572349798747897" fill="none" id="id68" stroke="none" /><text fill="#e1ed5e" style="font-size:6.75px; font-family:Arial;" text-anchor="middle"><textPath startOffset="22.145653131862474" xlink:href="#id68">August</textPath></text><path d="M 89.65649057296885 118.27599006163327 l -7.562644347201381 13.362467922919524 a36.35412447889199,36.35412447889199 0 0,0 -0.5404776898405096,-0.3120449397204076 l 7.7909145049022905 -13.230676085922944" fill="#ff920d" stroke="none" /><path d="M 87.83215693770417 117.11559508785305 l -8.743526681260397 12.298865259037655 a36.09010753725353,36.09010753725353 0 0,0 -0.501856987548768,-0.3633057568780245 l 8.95336467918312 -12.146958730786565" fill="#ff8e0d" stroke="none" /><path d="M 87.2517909369889 116.68781488649013 l -4.654542148489441 6.092945085182916 a28.66738171888679,28.66738171888679 0 0,0 -0.38849770240671594,-0.30209816319880695 l 4.758449795531385 -6.012145870363316" fill="#ff1f03" stroke="none" /><path d="M 86.96720088162412 116.46651593811092 l -5.554938341940912 7.018483129523777 a29.950779039959322,29.950779039959322 0 0,0 -0.4004122925108738,-0.3225437991477789 l 5.6746014048070474 -6.922091036582588" fill="#ff3304" stroke="none" /><path d="M 86.13680546590413 115.77377054828092 l -13.194350305901123 15.012748594636822 a40.98683317488298,40.98683317488298 0 0,0 -0.5245045482784357,-0.4690152013261173 l 13.45011988100293 -14.784037863427322" fill="#ffd213" stroke="none" /><path d="M 85.08716467003676 114.78537596483092 l -8.400760238719004 8.328959300603326 a32.82980708293879,32.82980708293879 0 0,0 -0.3933529894161925,-0.40361481964803175 l 8.542500029286005 -8.183521788887557" fill="#ff5e08" stroke="none" /><path d="M 84.58840730492382 114.26474011684316 l -9.032240673301375 8.360107123684118 a33.30742713567355,33.30742713567355 0 0,0 -0.38478373343599825,-0.4229447272349916 l 9.174422107579254 -8.203824820891452" fill="#ff6509" stroke="none" /><path d="M 83.8745106332314 113.45245675266167 l -10.477027831348696 8.740309245318398 a34.64408728653747,34.64408728653747 0 0,0 -0.37704839732917533,-0.4599377375297532 l 10.6255230479165 -8.55916922609015" fill="#ff790b" stroke="none" /><line stroke="#e1ed5e" stroke-width="0.3" x1="26.387840678322732" x2="22.057713659400548" y1="142.50000000000003" y2="145.00000000000006" /><path d="M 25.521815274538298 143.00000000000003 a86.0,86.0 0 0,1 -11.493303480769221,-40.785679425670985" fill="none" id="id69" stroke="none" /><text fill="#e1ed5e" style="font-size:6.75px; font-family:Arial;" text-anchor="middle"><textPath startOffset="21.40746469413373" xlink:href="#id69">September</textPath></text><path d="M 80.9802524753101 108.90220220490708 l -31.571250387307384 14.776939307144856 a55.85831014700941,55.85831014700941 0 0,0 -0.3990292518569461,-0.8719509286218442 l 31.820264104019387 -14.232799396308323" fill="#72ff27" stroke="none" /><path d="M 80.05021161711548 106.5578916946017 l -14.718661326604838 4.838316327816644 a36.493492057483685,36.493492057483685 0 0,0 -0.1905225892382246,-0.5968092972036736 l 14.799548631620317 -4.584937996921579" fill="#ff940d" stroke="none" /><path d="M 79.48165901384964 104.47187691870673 l -17.556840423173007 3.826431654820404 a38.9689795162044,38.9689795162044 0 0,0 -0.13684103601729863,-0.6548338943554481 l 17.61993917001467 -3.524481309179547" fill="#ffb710" stroke="none" /><line stroke="#e1ed5e" stroke-width="0.3" x1="15.003131293944662" x2="10.003315487706104" y1="100.72959589197737" y2="100.7725132973878" /><path d="M 14.003168132696942 100.73817937305945 a86.0,86.0 0 0,1 10.791469493833604,-42.45332614584628" fill="none" id="id70" stroke="none" /><text fill="#e1ed5e" style="font-size:6.75px; font-family:Arial;" text-anchor="middle"><textPath startOffset="22.145653131862435" xlink:href="#id70">October</textPath></text><line stroke="#e1ed5e" stroke-width="0.3" x1="26.387840678322718" x2="22.05771365940052" y1="57.49999999999999" y2="54.99999999999999" /><path d="M 25.521815274538284 56.99999999999999 a86.0,86.0 0 0,1 29.574782752854787,-30.34633250058573" fill="none" id="id71" stroke="none" /><text fill="#e1ed5e" style="font-size:6.75px; font-family:Arial;" text-anchor="middle"><textPath startOffset="21.40746469413373" xlink:href="#id71">November</textPath></text><line stroke="#e1ed5e" stroke-width="0.3" x1="56.869717070023135" x2="54.33264160355391" y1="26.7553504044142" y2="22.446841604673864" /><path d="M 56.362301976729285 25.89364864446614 a86.0,86.0 0 0,1 42.16139366436587,-11.88097634709845" fill="none" id="id72" stroke="none" /><text fill="#e1ed5e" style="font-size:6.75px; font-family:Arial;" text-anchor="middle"><textPath startOffset="22.145653131862474" xlink:href="#id72">December</textPath></text></svg>