<?xml version="1.0" encoding="utf-8" ?>
<svg baseProfile="full" height="200mm" version="1.1" viewBox="0,0,200,200" width="200mm" xmlns="http://www.w3.org/2000/svg" xmlns:ev="http://www.w3.org/2001/xml-events" xmlns:xlink="http://www.w3.org/1999/xlink"><defs /><rect fill="#1a1a1a" height="200" width="200" x="0" y="0" /><text alignment-baseline="middle" fill="#e1ed5e" style="dominant-baseline: central; font-size:9.0px; font-family:Arial;" text-anchor="middle" x="100.0" y="100.0">2022</text><line stroke="#e1ed5e" stroke-width="0.3" x1="100.0" x2="100.0" y1="15.0" y2="10.0" /><path d="M 100.0 14.0 a86.0,86.0 0 0,1 42.46469731375804,11.215312516191453" fill="none" id="id37" stroke="none" /><text fill="#e1ed5e" style="font-size:6.75px; font-family:Arial;" text-anchor="middle"><textPath startOffset="22.20632615414155" xlink:href="#id37">January</textPath></text><path d="M 102.52436894288641 79.15227682838746 l 1.476101512475111 -12.190514303385823 a33.279556777676696,33.279556777676696 0 0,0 0.5681062355516181,0.073756494132733 l -1.685722476534575 12.163299486088954" fill="#ff3805" stroke="none" /><line stroke="#e1ed5e" stroke-width="0.3" x1="143.23703022742887" x2="145.7803849466894" y1="26.81831364943548" y2="22.513508569990506" /><path d="M 143.74570117128098 25.957352633546492 a86.0,86.0 0 0,1 28.547481713284135,27.462654790039103" fill="none" id="id38" stroke="none" /><text fill="#e1ed5e" style="font-size:6.75px; font-family:Arial;" text-anchor="middle"><textPath startOffset="19.985693538727396" xlink:href="#id38">February</textPath></text><line stroke="#e1ed5e" stroke-width="0.3" x1="172.23445277983987" x2="176.4835382374775" y1="55.19839476539836" y2="52.563006222186495" /><path d="M 173.08426987136738 54.67131705675599 a86.0,86.0 0 0,1 12.851231095245387,41.99856678651699" fill="none" id="id39" stroke="none" /><text fill="#e1ed5e" style="font-size:6.75px; font-family:Arial;" text-anchor="middle"><textPath startOffset="22.20632615414155" xlink:href="#id39">March</textPath></text><path d="M 118.21658344932153 89.55222093294921 l 12.901080209710798 -7.399172085827095 a35.872310450399915,35.872310450399915 0 0,0 0.3025955088320927,0.5382836456980683 l -13.026533359835325 7.1760049301942335" fill="#ff6109" stroke="none" /><path d="M 118.73160827565052 90.50648371742162 l 9.515161449974931 -4.822455115833461 a31.667444434508077,31.667444434508077 0 0,0 0.24224085065514503,0.48834277318370173 l -9.596762313583485 4.657952754150809" fill="#ff1e03" stroke="none" /><path d="M 119.196687751892 91.48605970444005 l 8.69069965993221 -3.854420043062552 a30.507092849420804,30.507092849420804 0 0,0 0.20876917419779495,0.4818680378251816 l -8.755759543972687 3.704252860650768" fill="#ff0b01" stroke="none" /><path d="M 120.45610955862082 95.25157060432595 l 9.009076136585444 -2.0912560050696247 a30.248610950490516,30.248610950490516 0 0,0 0.11336835558072546,0.5082081087677652 l -9.043738879168208 1.9358697267518956" fill="#ff0601" stroke="none" /><path d="M 120.87857604477298 97.74499172005257 l 15.271185569605628 -1.649377324882063 a36.3599985111056,36.3599985111056 0 0,0 0.06185160271459895,0.6228371984759522 l -15.297314298002455 1.3862645957016757" fill="#ff6909" stroke="none" /><path d="M 120.98425023603335 99.18683210126433 l 11.95403798123121 -0.46323503757652684 a32.963010104349024,32.963010104349024 0 0,0 0.017091015508467203,0.5671675991158428 l -11.960240691195322 0.257397291035685" fill="#ff3304" stroke="none" /><line stroke="#e1ed5e" stroke-width="0.3" x1="184.98032266829074" x2="189.97916517819016" y1="98.17113171792111" y2="98.06355123074" /><path d="M 185.9800911702706 98.14961562048488 a86.0,86.0 0 0,1 -9.607161424134198,41.387399972396054" fill="none" id="id40" stroke="none" /><text fill="#e1ed5e" style="font-size:6.75px; font-family:Arial;" text-anchor="middle"><textPath startOffset="21.466115282336823" xlink:href="#id40">April</textPath></text><path d="M 120.70491114924044 103.5080841355445 l 14.621055593260236 2.4772814914258667 a35.82943661266225,35.82943661266225 0 0,0 -0.10826215343123557,0.6071916505828194 l -14.576246997489813 -2.728591892741904" fill="#ff6108" stroke="none" /><path d="M 120.41448212921028 104.9243191809786 l 30.11193295862045 7.26350872414771 a51.9755882186315,51.9755882186315 0 0,0 -0.2172794561168942,0.8679234199627981 l -29.982442188208495 -7.780759983507904" fill="#b6ff1f" stroke="none" /><path d="M 119.67450827220406 107.3425965602758 l 31.49638111542371 11.754561610364343 a54.618324497509846,54.618324497509846 0 0,0 -0.3363077045974347,0.8779932937818712 l -31.28937913123277 -12.294978470979357" fill="#94ff23" stroke="none" /><path d="M 118.64920377521936 109.65438752849418 l 13.164517505233714 6.815055224505251 a35.82395017728612,35.82395017728612 0 0,0 -0.2882079299013756,0.5451807893791933 l -13.045257067107446 -7.040651028970578" fill="#ff6108" stroke="none" /><line stroke="#e1ed5e" stroke-width="0.3" x1="174.80103733775053" x2="179.2010983576182" y1="140.37084112569926" y2="142.7455964860345" /><path d="M 175.68104954172406 140.8457921977663 a86.0,86.0 0 0,1 -30.038265399797805,32.042727171017184" fill="none" id="id41" stroke="none" /><text fill="#e1ed5e" style="font-size:6.75px; font-family:Arial;" text-anchor="middle"><textPath startOffset="22.206326154141568" xlink:href="#id41">May</textPath></text><path d="M 118.48025628344425 109.97397251340804 l 51.86997728543945 27.9947269010304 a79.94233858488548,79.94233858488548 0 0,0 -0.663991892038993,1.2053381535333065 l -51.38040898394894 -28.883435572961513" fill="#47fdff" stroke="none" /><path d="M 117.14729908036423 112.12312394758627 l 15.826391855296231 11.189243810678931 a40.38230781440135,40.38230781440135 0 0,0 -0.4061694971861986,0.5641339070035016 l -15.63144256573443 -11.460011323133564" fill="#ffa70f" stroke="none" /><path d="M 115.56566222782051 114.09645910891815 l 21.873135099737375 19.80858571928956 a50.50955959159346,50.50955959159346 0 0,0 -0.5891665739292834,0.6394239541886821 l -21.52892211781237 -20.18216092827958" fill="#c9ff1d" stroke="none" /><path d="M 115.07121518719521 114.62390073753431 l 10.881745587945609 10.558774813620973 a36.16245734060051,36.16245734060051 0 0,0 -0.437323574413084,0.44300647199467497 l -10.698381388476989 -10.744521779596312" fill="#ff6609" stroke="none" /><path d="M 113.75828350139079 115.86535959552629 l 6.7991003090305435 7.8403800385359945 a31.377828489666463,31.377828489666463 0 0,0 -0.41110113750245386,0.35034930802830166 l -6.663133694951042 -7.956253736787243" fill="#ff1902" stroke="none" /><path d="M 112.04921762599082 117.19931262002967 l 11.319674039665497 16.15794640019471 a40.728513685420964,40.728513685420964 0 0,0 -0.5776527333688245,0.397314817329919 l -11.039864421673789 -16.350402006889723" fill="#ffac0f" stroke="none" /><path d="M 111.1453310114006 117.79835938074945 l 8.72395761904132 13.931585591069148 a37.43765535653168,37.43765535653168 0 0,0 -0.5491226931227322,0.33731600801714956 l -8.482855725986278 -14.079690065914676" fill="#ff7a0b" stroke="none" /><line stroke="#e1ed5e" stroke-width="0.3" x1="143.8653032363475" x2="146.44561519142675" y1="172.8068346515853" y2="177.08958963109032" /><path d="M 144.38136562736335 173.6633856474863 a86.0,86.0 0 0,1 -40.68145358897372,12.25698825130547" fill="none" id="id42" stroke="none" /><text fill="#e1ed5e" style="font-size:6.75px; font-family:Arial;" text-anchor="middle"><textPath startOffset="21.466115282336833" xlink:href="#id42">June</textPath></text><line stroke="#e1ed5e" stroke-width="0.3" x1="102.19456741930631" x2="102.32365962044197" y1="184.97166512339345" y2="189.96999836594603" /><path d="M 102.22038585953345 185.97133177190398 a86.0,86.0 0 0,1 -42.740103519485714,-10.115201625700543" fill="none" id="id43" stroke="none" /><text fill="#e1ed5e" style="font-size:6.75px; font-family:Arial;" text-anchor="middle"><textPath startOffset="22.20632615414155" xlink:href="#id43">July</textPath></text><path d="M 100.18074693466247 120.99922214144158 l 0.23300764037299465 27.07088344254955 a48.071886209139095,48.071886209139095 0 0,0 -0.8275091500708815,0.0 l 0.233007640372976 -27.07088344254955" fill="#e9ff1a" stroke="none" /><path d="M 93.76903079525671 120.05430185196036 l -5.344994258987606 17.202801802508468 a39.01403212734448,39.01403212734448 0 0,0 -0.6396046906371903,-0.2047812238916159 l 5.640320294715737 -17.108247731957146" fill="#ff920d" stroke="none" /><path d="M 90.7491055286396 118.85261126421891 l -5.918979314702982 12.062424498140292 a34.43638347551963,34.43638347551963 0 0,0 -0.5299039406501013,-0.2657048364673179 l 6.1257371630358435 -11.958751820763672" fill="#ff4b06" stroke="none" /><path d="M 90.10565033884886 118.52300852407294 l -7.245890014728627 13.564881685381865 a36.37884707134941,36.37884707134941 0 0,0 -0.5498007709983628,-0.29979521732851816 l 7.478313597595631 -13.43814581629358" fill="#ff6909" stroke="none" /><line stroke="#e1ed5e" stroke-width="0.3" x1="58.666819895761336" x2="56.23545636021788" y1="174.27360380694188" y2="178.64263932499728" /><path d="M 58.180547188652646 175.14741091055294 a86.0,86.0 0 0,1 -31.652253787137756,-30.449443065178592" fill="none" id="id44" stroke="none" /><text fill="#e1ed5e" style="font-size:6.75px; font-family:Arial;" text-anchor="middle"><textPath startOffset="22.20632615414155" xlink:href="#id44">August</textPath></text><path d="M 88.24862548938628 117.40417183066458 l -14.346069692243505 21.24700066302761 a46.63678514926166,46.63678514926166 0 0,0 -0.6614497800013819,-0.4549511901060533 l 14.709676356867778 -20.996908683556455" fill="#fdff18" stroke="none" /><path d="M 87.36589467227662 116.77436683061367 l -8.91101840272956 11.831205110640786 a35.81160569768982,35.81160569768982 0 0,0 -0.4892057552945797,-0.37510211235631785 l 9.113352886517626 -11.676063656457101" fill="#ff6108" stroke="none" /><path d="M 86.51685102203217 116.09983520530335 l -5.796131080063581 6.920991184614583 a30.02747220847518,30.02747220847518 0 0,0 -0.3934092502702142,-0.33527189791169504 l 5.9144058069108505 -6.820194896479937" fill="#ff0300" stroke="none" /><path d="M 83.95833913139862 113.55231037782056 l -6.773835107916182 5.722669029261279 a29.867569164528916,29.867569164528916 0 0,0 -0.32840672350219974,-0.3955870543090411 l 6.871337831311918 -5.605220717838477" fill="#ff0000" stroke="none" /><path d="M 83.50135304334701 112.99209946851258 l -14.056061784174128 11.068650254493088 a38.891000288882964,38.891000288882964 0 0,0 -0.4096392445462401,-0.5295139435018803 l 14.244507845938438 -10.825058316877955" fill="#ff900d" stroke="none" /><path d="M 82.85270091963577 112.12312394758628 l -27.2359801056098 19.255811723282093 a54.355432802403584,54.355432802403584 0 0,0 -0.5335609337474794,-0.7686343199181154 l 27.563401946519416 -18.784136141176965" fill="#97ff23" stroke="none" /><path d="M 82.05923443525364 110.91462005526583 l -15.427347479750393 9.38553238402003 a39.057997352764495,39.057997352764495 0 0,0 -0.3444899079361818,-0.577384900723525 l 15.586618263384807 -9.118585389410393" fill="#ff930d" stroke="none" /><line stroke="#e1ed5e" stroke-width="0.3" x1="26.63291911575756" x2="22.317208475507996" y1="142.92168965132927" y2="145.44649492493687" /><path d="M 25.769776987707644 143.4266507060508 a86.0,86.0 0 0,1 -11.730757126820373,-40.83630448921669" fill="none" id="id45" stroke="none" /><text fill="#e1ed5e" style="font-size:6.75px; font-family:Arial;" text-anchor="middle"><textPath startOffset="21.46611528233685" xlink:href="#id45">September</textPath></text><path d="M 81.51974371655577 109.97397251340807 l -28.171113730736263 15.20422172251873 a53.012185289629755,53.012185289629755 0 0,0 -0.4264893208666923,-0.8067570683827529 l 28.428655559827842 -14.71704963904985" fill="#a8ff21" stroke="none" /><path d="M 80.58989483394504 108.01547362559985 l -9.104858850953665 3.7598846250590077 a30.850643993645512,30.850643993645512 0 0,0 -0.1984686358103586,-0.4925828777869476 l 9.168230101021411 -3.6026023794292543" fill="#ff1001" stroke="none" /><path d="M 79.86692584326677 105.97154293290107 l -17.142042250309807 5.084392003845812 a38.880174902952646,38.880174902952646 0 0,0 -0.18478703497479895,-0.6432679105287961 l 17.22702192217071 -4.78856661781242" fill="#ff900d" stroke="none" /><path d="M 79.67330655649465 105.27499134158121 l -21.934836507186294 5.692321428273265 a43.6614116029821,43.6614116029821 0 0,0 -0.18252275907848953,-0.729087692465596 l 22.02957058055984 -5.313905896410277" fill="#ffd714" stroke="none" /><line stroke="#e1ed5e" stroke-width="0.3" x1="15.007084014347285" x2="10.007500721073583" y1="101.09737516637583" y2="101.16192664675087" /><path d="M 14.007167355692545 101.11028546245083 a86.0,86.0 0 0,1 10.666146001902534,-42.60595125391555" fill="none" id="id46" stroke="none" /><text fill="#e1ed5e" style="font-size:6.75px; font-family:Arial;" text-anchor="middle"><textPath startOffset="22.20632615414155" xlink:href="#id46">October</textPath></text><path d="M 79.21141760316559 97.0276538004421 l -12.682875543626302 -1.8133943047171879 a33.81185899701893,33.81185899701893 0 0,0 0.08733781344998014,-0.575447067486095 l 12.64978183673702 2.031440484595375" fill="#ff4106" stroke="none" /><path d="M 79.32604984820605 96.31383870115002 l -14.69233461993224 -2.6196404106666824 a35.92404812593612,35.92404812593612 0 0,0 0.11378390739637777,-0.6078381831159373 l 14.645064988626 2.8721566712451927" fill="#ff6209" stroke="none" /><path d="M 79.62865764111835 94.90015583598534 l -21.5475279398889 -5.39429521517392 a43.212482553481976,43.212482553481976 0 0,0 0.18685009165935768,-0.7200096241128907 l 21.451481516359237 5.764401264835675" fill="#ffd013" stroke="none" /><path d="M 79.91906864156998 93.8553929516997 l -14.10741245301943 -4.3167572481996626 a35.753083720344435,35.753083720344435 0 0,0 0.18514056156970296,-0.5869461743967245 l 14.031016407681523 4.558953589022802" fill="#ff6008" stroke="none" /><path d="M 80.52162464483688 92.15188598940014 l -13.733087590360752 -5.53325599088716 a35.80589803508079,35.80589803508079 0 0,0 0.2352589243050087,-0.5696981457750622 l 13.635806979169542 5.768828707115534" fill="#ff6008" stroke="none" /><path d="M 80.803312248108 91.48605970444005 l -13.791681904890293 -6.1167612783625875 a36.087254829893816,36.087254829893816 0 0,0 0.25673105993996354,-0.5656728595861295 l 13.684348527986977 6.3532561467907875" fill="#ff6509" stroke="none" /><path d="M 81.43458229118936 90.18545643968196 l -27.725367636478133 -14.656919260422024 a52.36114304014443,52.36114304014443 0 0,0 0.428094484555042,-0.7931940635961183 l 27.468965052704622 15.131994307350615" fill="#b1ff20" stroke="none" /><line stroke="#e1ed5e" stroke-width="0.3" x1="26.266209847984243" x2="21.928928074336255" y1="57.711370442889674" y2="55.22380399835377" /><path d="M 25.398753493254645 57.213857153982495 a86.0,86.0 0 0,1 29.58750427330803,-30.492523968695096" fill="none" id="id47" stroke="none" /><text fill="#e1ed5e" style="font-size:6.75px; font-family:Arial;" text-anchor="middle"><textPath startOffset="21.46611528233685" xlink:href="#id47">November</textPath></text><path d="M 82.15384107792192 88.93136811851018 l -12.833025584523773 -7.9593618291220585 a36.10092667288756,36.10092667288756 0 0,0 0.33208108491190147,-0.5252725268855911 l 12.694116903365908 8.179082003721865" fill="#ff6509" stroke="none" /><path d="M 82.7489923806493 88.02491185347247 l -51.75302285805211 -35.92526443958256 a84.0,84.0 0 0,0 0.834749520784487,-1.1806939986728553 l 51.12696071746375 36.810784938587204" fill="#4dd2ff" stroke="none" /><path d="M 84.80347519578584 85.50635884689758 l -6.872184152298673 -6.554325566186902 a30.496636175545333,30.496636175545333 0 0,0 0.3655758648680486,-0.3767580637722764 l 6.758344023727506 6.671647825509303" fill="#ff0b01" stroke="none" /><path d="M 85.31137513191541 84.99185889309783 l -10.776545474594238 -11.01096369334599 a36.40698717537537,36.40698717537537 0 0,0 0.45164905756060664,-0.4344860355322196 l 10.585413173421204 11.194832815640524" fill="#ff6a09" stroke="none" /><path d="M 85.83668400450813 84.49514656593479 l -16.25633472469575 -17.79612114576415 a45.10332646163311,45.10332646163311 0 0,0 0.5777285352881515,-0.5186903832517721 l 15.947595201811627 18.0733105377852" fill="#ffeb16" stroke="none" /><path d="M 86.65592168130627 83.78471172551755 l -6.290371977635956 -7.643854639866818 a30.899358230331963,30.899358230331963 0 0,0 0.4136049802421117,-0.3344397963907497 l 6.157863598829343 7.751000533521702" fill="#ff1101" stroke="none" /><path d="M 87.51073957382395 83.11751280151077 l -7.20216261417188 -9.73559794464331 a33.110037723340014,33.110037723340014 0 0,0 0.4611040765663694,-0.3350117214621085 l 7.033513221251729 9.858128900922086" fill="#ff3505" stroke="none" /><path d="M 88.09926311788651 82.69761687909137 l -9.299844382880408 -13.520966984764604 a37.41047390384832,37.41047390384832 0 0,0 0.5337143981723627,-0.36036634409572177 l 9.065725290301508 13.67904524115899" fill="#ff790b" stroke="none" /><path d="M 89.00827224532344 82.1063720568725 l -5.161114333409659 -8.401869270705246 a30.860451734304455,30.860451734304455 0 0,0 0.45502697669523795,-0.2741486621272919 l 5.015725290496772 8.489464542291158" fill="#ff1101" stroke="none" /><line stroke="#e1ed5e" stroke-width="0.3" x1="56.762969772571076" x2="54.21961505331055" y1="26.818313649435495" y2="22.513508569990535" /><path d="M 56.25429882871897 25.957352633546506 a86.0,86.0 0 0,1 42.265352541879196,-11.944610805530505" fill="none" id="id48" stroke="none" /><text fill="#e1ed5e" style="font-size:6.75px; font-family:Arial;" text-anchor="middle"><textPath startOffset="22.20632615414155" xlink:href="#id48">December</textPath></text><path d="M 89.94658935756843 81.56283822128135 l -11.622357784250017 -21.31448702731393 a45.27728480911016,45.27728480911016 0 0,0 0.6874707876730232,-0.3672230861538398 l 11.253741950048688 21.51138883996952" fill="#ffee16" stroke="none" /><path d="M 90.91171255644093 81.06846463323043 l -7.050926474974671 -14.687570651616712 a37.292338561475184,37.292338561475184 0 0,0 0.5810888442336427,-0.2728290039184264 l 6.797059419441419 14.806764638175146" fill="#ff780b" stroke="none" /><path d="M 91.56875222667455 80.76684994638697 l -3.864087838756709 -8.814659848839472 a30.62441702527328,30.62441702527328 0 0,0 0.4846186278905392,-0.20748840524858905 l 3.7117854530758616 8.879867782050846" fill="#ff0d01" stroke="none" /><path d="M 92.57280143429618 80.3572730644239 l -6.367878127501815 -16.841140049107175 a39.004829074455486,39.004829074455486 0 0,0 0.6300536858226311,-0.2320540897302579 l 6.077042115906614 16.948257406643755" fill="#ff920d" stroke="none" /><path d="M 98.55514903715128 79.0497635885617 l -1.0203418163169986 -14.794883916726656 a35.830026551950006,35.830026551950006 0 0,0 0.6156587319536928,-0.03713821600251259 l 0.7655210355236829 14.810255402109476" fill="#ff6108" stroke="none" /><path d="M 99.63851952072746 79.00311137660856 l -0.4189981421006524 -24.33784900584432 a45.341455455135815,45.341455455135815 0 0,0 0.7804786213731821,-0.0067178259000535 l 5.961937101943991e-15 24.341455455135815" fill="#ffef16" stroke="none" /></svg>