<?xml version="1.0" encoding="utf-8" ?>
<svg baseProfile="full" height="200mm" version="1.1" viewBox="0,0,200,200" width="200mm" xmlns="http://www.w3.org/2000/svg" xmlns:ev="http://www.w3.org/2001/xml-events" xmlns:xlink="http://www.w3.org/1999/xlink"><defs /><rect fill="#1a1a1a" height="200" width="200" x="0" y="0" /><text alignment-baseline="middle" fill="#e1ed5e" style="dominant-baseline: central; font-size:9.0px; font-family:Arial;" text-anchor="middle" x="100.0" y="100.0">2022</text><line stroke="#e1ed5e" stroke-width="0.3" x1="100.0" x2="100.0" y1="15.0" y2="10.0" /><path d="M 100.0 14.0 a86.0,86.0 0 0,1 42.46469731375804,11.215312516191453" fill="none" id="id85" stroke="none" /><text fill="#e1ed5e" style="font-size:6.75px; font-family:Arial;" text-anchor="middle"><textPath startOffset="22.20632615414155" xlink:href="#id85">January</textPath></text><path d="M 102.52436894288641 79.15227682838746 l 1.4850353648448933 -12.264295309758179 a33.35387669842129,33.35387669842129 0 0,0 0.5693749306452086,0.07392120716767403 l -1.695925023997948 12.236915779426369" fill="#ff6509" stroke="none" /><line stroke="#e1ed5e" stroke-width="0.3" x1="143.23703022742887" x2="145.7803849466894" y1="26.81831364943548" y2="22.513508569990506" /><path d="M 143.74570117128098 25.957352633546492 a86.0,86.0 0 0,1 28.547481713284135,27.462654790039103" fill="none" id="id86" stroke="none" /><text fill="#e1ed5e" style="font-size:6.75px; font-family:Arial;" text-anchor="middle"><textPath startOffset="19.985693538727396" xlink:href="#id86">February</textPath></text><line stroke="#e1ed5e" stroke-width="0.3" x1="172.23445277983987" x2="176.4835382374775" y1="55.19839476539836" y2="52.563006222186495" /><path d="M 173.08426987136738 54.67131705675599 a86.0,86.0 0 0,1 12.851231095245387,41.99856678651699" fill="none" id="id87" stroke="none" /><text fill="#e1ed5e" style="font-size:6.75px; font-family:Arial;" text-anchor="middle"><textPath startOffset="22.20632615414155" xlink:href="#id87">March</textPath></text><path d="M 118.21658344932153 89.55222093294921 l 12.876812035670714 -7.38525353071291 a35.844334202479466,35.844334202479466 0 0,0 0.3023595193775967,0.5378638467909308 l -13.002029196340743 7.162506173987185" fill="#ff8a0c" stroke="none" /><path d="M 118.73160827565052 90.50648371742162 l 9.591628134948266 -4.861209808339645 a31.75317121038388,31.75317121038388 0 0,0 0.24289661961544193,0.4896647633920959 l -9.673884767517116 4.6953854564486" fill="#ff4d07" stroke="none" /><path d="M 119.196687751892 91.48605970444005 l 8.709341042555888 -3.862687699479948 a30.52748537964043,30.52748537964043 0 0,0 0.20890872639028896,0.48219014352603373 l -8.774540478788857 3.712198411367311" fill="#ff3b05" stroke="none" /><path d="M 120.45610955862082 95.25157060432595 l 8.842825023680154 -2.0526645187793924 a30.077939525359252,30.077939525359252 0 0,0 0.11272869847900203,0.5053406514048925 l -8.876848109161195 1.9001456978245361" fill="#ff3404" stroke="none" /><path d="M 120.87857604477298 97.74499172005257 l 15.30510778347063 -1.6530411223065467 a36.39411800707302,36.39411800707302 0 0,0 0.06190964302251465,0.623421656455929 l -15.331294552175374 1.3893439351461827" fill="#ff920d" stroke="none" /><path d="M 120.98425023603335 99.18683210126433 l 11.971833308523255 -0.46392463042538346 a32.98081878795361,32.98081878795361 0 0,0 0.017100249146011465,0.5674740185930524 l -11.978045252124911 0.25778046440733204" fill="#ff6008" stroke="none" /><line stroke="#e1ed5e" stroke-width="0.3" x1="184.98032266829074" x2="189.97916517819016" y1="98.17113171792111" y2="98.06355123074" /><path d="M 185.9800911702706 98.14961562048488 a86.0,86.0 0 0,1 -9.607161424134198,41.387399972396054" fill="none" id="id88" stroke="none" /><text fill="#e1ed5e" style="font-size:6.75px; font-family:Arial;" text-anchor="middle"><textPath startOffset="21.466115282336823" xlink:href="#id88">April</textPath></text><path d="M 120.70491114924044 103.5080841355445 l 14.585702312291051 2.4712914978821368 a35.7935794725373,35.7935794725373 0 0,0 -0.10815380756892748,0.6065839894484003 l -14.541002062382935 -2.721994238063756" fill="#ff890c" stroke="none" /><path d="M 120.41448212921028 104.9243191809786 l 30.65274426459999 7.39396157964849 a52.53191080147674,52.53191080147674 0 0,0 -0.21960511461098758,0.877213269587482 l -30.52092783569394 -7.920502688633368" fill="#99ff23" stroke="none" /><path d="M 119.67450827220406 107.3425965602758 l 30.916622409368163 11.53819359638518 a53.99950685496845,53.99950685496845 0 0,0 -0.3324973874036698,0.8680457579461642 l -30.71343074237099 -12.068662921164488" fill="#87ff25" stroke="none" /><path d="M 118.64920377521936 109.65438752849418 l 13.137841805451316 6.801245651378314 a35.793911913873785,35.793911913873785 0 0,0 -0.28796626850800444,0.544723657095409 l -13.018823028718417 -7.026384323559857" fill="#ff890c" stroke="none" /><line stroke="#e1ed5e" stroke-width="0.3" x1="174.80103733775053" x2="179.2010983576182" y1="140.37084112569926" y2="142.7455964860345" /><path d="M 175.68104954172406 140.8457921977663 a86.0,86.0 0 0,1 -30.038265399797805,32.042727171017184" fill="none" id="id89" stroke="none" /><text fill="#e1ed5e" style="font-size:6.75px; font-family:Arial;" text-anchor="middle"><textPath startOffset="22.206326154141568" xlink:href="#id89">May</textPath></text><path d="M 118.48025628344425 109.97397251340804 l 28.936576214736036 15.617349206161782 a53.882016958490084,53.882016958490084 0 0,0 -0.4475378506616425,0.8124111951070186 l -28.663461954622885 -16.113130919666606" fill="#89ff24" stroke="none" /><path d="M 117.14729908036423 112.12312394758627 l 15.54827299257367 10.992614042390331 a40.041700463366,40.041700463366 0 0,0 -0.402743632643147,0.5593756807877834 l -15.35674956755492 -11.258623328629245" fill="#ffc512" stroke="none" /><path d="M 115.56566222782051 114.09645910891815 l 21.252553723650617 19.246579434961493 a49.6723187015445,49.6723187015445 0 0,0 -0.5794006137678381,0.6288249332339902 l -20.918106701887055 -19.60955562299682" fill="#bbff1f" stroke="none" /><path d="M 115.07121518719521 114.62390073753431 l 10.885790591194828 10.562699760963628 a36.168093586064366,36.168093586064366 0 0,0 -0.4373917352404666,0.44307551855295285 l -10.702358230898826 -10.748515773497246" fill="#ff8e0d" stroke="none" /><path d="M 113.75828350139079 115.86535959552629 l 6.894503506066166 7.950394200359306 a31.523447464413245,31.523447464413245 0 0,0 -0.41300898546522985,0.35197521745205695 l -6.75662904402389 -8.06789380803431" fill="#ff4a06" stroke="none" /><path d="M 112.04921762599082 117.19931262002967 l 11.26955602835156 16.086406871966485 a40.641165421802384,40.641165421802384 0 0,0 -0.5764138724660178,0.3964627175044318 l -10.990985271262659 -16.27801037883601" fill="#ffcd13" stroke="none" /><path d="M 111.1453310114006 117.79835938074945 l 8.6882811056434 13.874612549509521 a37.37043377463429,37.37043377463429 0 0,0 -0.5481367100066441,0.3367103366565293 l -8.448165195704446 -14.022111352994429" fill="#ff9f0e" stroke="none" /><line stroke="#e1ed5e" stroke-width="0.3" x1="143.8653032363475" x2="146.44561519142675" y1="172.8068346515853" y2="177.08958963109032" /><path d="M 144.38136562736335 173.6633856474863 a86.0,86.0 0 0,1 -40.68145358897372,12.25698825130547" fill="none" id="id90" stroke="none" /><text fill="#e1ed5e" style="font-size:6.75px; font-family:Arial;" text-anchor="middle"><textPath startOffset="21.466115282336833" xlink:href="#id90">June</textPath></text><line stroke="#e1ed5e" stroke-width="0.3" x1="102.19456741930631" x2="102.32365962044197" y1="184.97166512339345" y2="189.96999836594603" /><path d="M 102.22038585953345 185.97133177190398 a86.0,86.0 0 0,1 -42.740103519485714,-10.115201625700543" fill="none" id="id91" stroke="none" /><text fill="#e1ed5e" style="font-size:6.75px; font-family:Arial;" text-anchor="middle"><textPath startOffset="22.20632615414155" xlink:href="#id91">July</textPath></text><path d="M 100.18074693466247 120.99922214144158 l 0.2533665758233465 29.43618943727409 a50.43727982013337,50.43727982013337 0 0,0 -0.8682270209715837,0.0 l 0.2533665758233262 -29.43618943727409" fill="#b2ff20" stroke="none" /><path d="M 99.09653310690486 120.98055641714683 l -0.38048668898941557 8.835766429656237 a29.84395491394762,29.84395491394762 0 0,0 -0.5130487528411894,-0.026518760270209378 l 0.532523510244094 -8.827907862623826" fill="#ff3004" stroke="none" /><path d="M 93.76903079525671 120.05430185196036 l -5.026377064781802 16.177336071918145 a37.94020864042555,37.94020864042555 0 0,0 -0.6220001903664186,-0.19914481883671015 l 5.304098600239161 -16.08841840642173" fill="#ffa80f" stroke="none" /><path d="M 90.7491055286396 118.85261126421891 l -5.908143810868882 12.040342574898311 a34.411786331835785,34.411786331835785 0 0,0 -0.5295254420375489,-0.2655150494054819 l 6.114523160589191 -11.936859684583528" fill="#ff750a" stroke="none" /><path d="M 90.10565033884886 118.52300852407294 l -7.23852890238947 13.55110109835246 a36.363223673711744,36.363223673711744 0 0,0 -0.549564651474015,-0.299666466137448 l 7.470716365732126 -13.424493980455246" fill="#ff910d" stroke="none" /><line stroke="#e1ed5e" stroke-width="0.3" x1="58.666819895761336" x2="56.23545636021788" y1="174.27360380694188" y2="178.64263932499728" /><path d="M 58.180547188652646 175.14741091055294 a86.0,86.0 0 0,1 -31.652253787137756,-30.449443065178592" fill="none" id="id92" stroke="none" /><text fill="#e1ed5e" style="font-size:6.75px; font-family:Arial;" text-anchor="middle"><textPath startOffset="22.20632615414155" xlink:href="#id92">August</textPath></text><path d="M 88.24862548938628 117.40417183066458 l -14.337797400975301 21.23474912781059 a46.622002357982616,46.622002357982616 0 0,0 -0.6612401155914522,-0.45480698101308153 l 14.701194401189642 -20.98480135743241" fill="#e2ff1b" stroke="none" /><path d="M 87.36589467227662 116.77436683061367 l -8.885718523971208 11.797614331075936 a35.76955305999655,35.76955305999655 0 0,0 -0.48863129369242386,-0.3746616396960841 l 9.087478546157119 -11.642913349552485" fill="#ff880c" stroke="none" /><path d="M 86.51685102203217 116.09983520530335 l -5.8307695553407655 6.96235197834585 a30.081421622073556,30.081421622073556 0 0,0 -0.39411607627970635,-0.33587427037124706 l 5.949751108197528 -6.86095331775165" fill="#ff3404" stroke="none" /><path d="M 83.95833913139862 113.55231037782056 l -6.7960028151931064 5.741396744043579 a29.89658871908929,29.89658871908929 0 0,0 -0.3287258059416901,-0.3959714096625907 l 6.893824621028332 -5.623564077267226" fill="#ff3104" stroke="none" /><path d="M 83.50135304334701 112.99209946851258 l -27.73825065209645 21.842888844242506 a56.30612329753102,56.30612329753102 0 0,0 -0.5930728867758455,-0.7666266531874565 l 28.110130356090366 -21.362184196941794" fill="#6dff28" stroke="none" /><path d="M 82.85270091963577 112.12312394758628 l -27.102340082203423 19.161328355346374 a54.19176618188329,54.19176618188329 0 0,0 -0.5319543580959606,-0.7663199278680285 l 27.428155347461516 -18.69196716529133" fill="#85ff25" stroke="none" /><path d="M 82.05923443525364 110.91462005526583 l -15.376048811552614 9.354323823231514 a38.99795130688838,38.99795130688838 0 0,0 -0.34396030431546953,-0.5764972545924679 l 15.534789991566317 -9.088264474752934" fill="#ffb610" stroke="none" /><line stroke="#e1ed5e" stroke-width="0.3" x1="26.63291911575756" x2="22.317208475507996" y1="142.92168965132927" y2="145.44649492493687" /><path d="M 25.769776987707644 143.4266507060508 a86.0,86.0 0 0,1 -11.730757126820373,-40.83630448921669" fill="none" id="id93" stroke="none" /><text fill="#e1ed5e" style="font-size:6.75px; font-family:Arial;" text-anchor="middle"><textPath startOffset="21.46611528233685" xlink:href="#id93">September</textPath></text><path d="M 81.51974371655577 109.97397251340807 l -27.82116975659264 15.015353585312855 a52.61452719743113,52.61452719743113 0 0,0 -0.42329011433045255,-0.8007053752686492 l 28.075512379147977 -14.53423319495808" fill="#98ff23" stroke="none" /><path d="M 80.58989483394504 108.01547362559985 l -8.766653948185445 3.620221678619743 a30.484736498690083,30.484736498690083 0 0,0 -0.19611467647740113,-0.4867405437693471 l 8.827671238920235 -3.4687817670075907" fill="#ff3a05" stroke="none" /><path d="M 79.86692584326677 105.97154293290107 l -16.16871958435939 4.795700965306881 a37.86494117233417,37.86494117233417 0 0,0 -0.1799619015654031,-0.6264709881326547 l 16.248874122810896 -4.51667250166963" fill="#ffa60f" stroke="none" /><path d="M 79.67330655649465 105.27499134158121 l -20.958540005480945 5.438962188728221 a42.652776007980144,42.652776007980144 0 0,0 -0.1783062451146589,-0.7122448151627373 l 21.049057564890663 -5.077389534168091" fill="#ffe815" stroke="none" /><line stroke="#e1ed5e" stroke-width="0.3" x1="15.007084014347285" x2="10.007500721073583" y1="101.09737516637583" y2="101.16192664675087" /><path d="M 14.007167355692545 101.11028546245083 a86.0,86.0 0 0,1 10.666146001902534,-42.60595125391555" fill="none" id="id94" stroke="none" /><text fill="#e1ed5e" style="font-size:6.75px; font-family:Arial;" text-anchor="middle"><textPath startOffset="22.20632615414155" xlink:href="#id94">October</textPath></text><path d="M 79.21141760316559 97.0276538004421 l -5.699754719786692 -0.8149494735316819 a26.757720600215006,26.757720600215006 0 0,0 0.06911660226473529,-0.4553920520419641 l 5.684882224082655 0.9129406379657381" fill="#ff0000" stroke="none" /><path d="M 79.32604984820605 96.31383870115002 l -14.56554942697907 -2.597034635374598 a35.79526339769271,35.79526339769271 0 0,0 0.11337600154063607,-0.605659133723894 l 14.518687701528572 2.847371846561065" fill="#ff890c" stroke="none" /><path d="M 79.62865764111835 94.90015583598534 l -21.159196608667315 -5.29707878052051 a42.81216735520061,42.81216735520061 0 0,0 0.1851191350683094,-0.7133395422659494 l 21.064881141728698 5.6605147483353235" fill="#ffeb16" stroke="none" /><path d="M 79.91906864156998 93.8553929516997 l -14.211609521272152 -4.348640731518733 a35.86204970375678,35.86204970375678 0 0,0 0.18570482124360285,-0.5887350317608477 l 14.134649216260344 4.592625929705996" fill="#ff8a0c" stroke="none" /><path d="M 80.52162464483688 92.15188598940014 l -13.66393252397256 -5.505392432683306 a35.73134066735006,35.73134066735006 0 0,0 0.23476905288454722,-0.5685118832741622 l 13.567141784201812 5.739778886410779" fill="#ff880c" stroke="none" /><path d="M 80.803312248108 91.48605970444005 l -13.563504889893226 -6.015562284681366 a35.837643158501905,35.837643158501905 0 0,0 0.2549552787321132,-0.5617601610833504 l 13.457947294197762 6.248144454606787" fill="#ff890c" stroke="none" /><path d="M 81.43458229118936 90.18545643968196 l -27.59101898244042 -14.585896311302088 a52.20917653020412,52.20917653020412 0 0,0 0.4268520360337664,-0.7908919951814227 l 27.335858847188184 15.058669289815983" fill="#9cff22" stroke="none" /><line stroke="#e1ed5e" stroke-width="0.3" x1="26.266209847984243" x2="21.928928074336255" y1="57.711370442889674" y2="55.22380399835377" /><path d="M 25.398753493254645 57.213857153982495 a86.0,86.0 0 0,1 29.58750427330803,-30.492523968695096" fill="none" id="id95" stroke="none" /><text fill="#e1ed5e" style="font-size:6.75px; font-family:Arial;" text-anchor="middle"><textPath startOffset="21.46611528233685" xlink:href="#id95">November</textPath></text><path d="M 82.15384107792192 88.93136811851018 l -12.817994524831525 -7.950039191839234 a36.08323926715978,36.08323926715978 0 0,0 0.33191838402234874,-0.5250151731510218 l 12.679248544563213 8.169502012704472" fill="#ff8d0d" stroke="none" /><path d="M 82.7489923806493 88.02491185347247 l -51.75302285805211 -35.92526443958256 a84.0,84.0 0 0,0 0.834749520784487,-1.1806939986728553 l 51.12696071746375 36.810784938587204" fill="#4dd2ff" stroke="none" /><path d="M 84.80347519578584 85.50635884689758 l -6.946484861336502 -6.625189650448899 a30.599311945821555,30.599311945821555 0 0,0 0.36680668204092165,-0.378026529060806 l 6.831413915592461 6.743780375059829" fill="#ff3c05" stroke="none" /><path d="M 85.31137513191541 84.99185889309783 l -10.757643989861968 -10.991651051588201 a36.37996414340727,36.37996414340727 0 0,0 0.451313821720793,-0.4341635389199259 l 10.566846924528749 11.175197677270441" fill="#ff910d" stroke="none" /><path d="M 85.83668400450813 84.49514656593479 l -16.236569730208316 -17.77448402753913 a45.07402083261458,45.07402083261458 0 0,0 0.5773531594687432,-0.5183533671347904 l 15.928205583143603 18.0513364034432" fill="#f6ff19" stroke="none" /><path d="M 86.65592168130627 83.78471172551755 l -6.277038820384067 -7.627652622516132 a30.878375417161763,30.878375417161763 0 0,0 0.41332411369588795,-0.3342126885099958 l 6.144811308123678 7.734571408290263" fill="#ff4006" stroke="none" /><path d="M 87.51073957382395 83.11751280151077 l -7.143853071532972 -9.656777416160462 a33.01199345541438,33.01199345541438 0 0,0 0.4597386715492495,-0.33401969664921904 l 6.976569083629941 9.77831634762635" fill="#ff6008" stroke="none" /><path d="M 88.09926311788651 82.69761687909137 l -9.282697974189187 -13.496037962699667 a37.38021740913858,37.38021740913858 0 0,0 0.5332827456114697,-0.3600748903597513 l 9.049010534171178 13.653824765358083" fill="#ffa00e" stroke="none" /><path d="M 89.00827224532344 82.1063720568725 l -5.134584669422439 -8.35868116166192 a30.80976607722069,30.80976607722069 0 0,0 0.4542796337365799,-0.2736983963567779 l 4.98994296946821 8.445826167477318" fill="#ff3f05" stroke="none" /><line stroke="#e1ed5e" stroke-width="0.3" x1="56.762969772571076" x2="54.21961505331055" y1="26.818313649435495" y2="22.513508569990535" /><path d="M 56.25429882871897 25.957352633546506 a86.0,86.0 0 0,1 42.265352541879196,-11.944610805530505" fill="none" id="id96" stroke="none" /><text fill="#e1ed5e" style="font-size:6.75px; font-family:Arial;" text-anchor="middle"><textPath startOffset="22.20632615414155" xlink:href="#id96">December</textPath></text><path d="M 89.94658935756843 81.56283822128135 l -11.598831816315645 -21.271342258614613 a45.22814274735684,45.22814274735684 0 0,0 0.6867246357771253,-0.3668245176519277 l 11.230962134010214 21.46784550276829" fill="#f4ff19" stroke="none" /><path d="M 90.91171255644093 81.06846463323043 l -7.035663485223063 -14.655776781530662 a37.2570708846137,37.2570708846137 0 0,0 0.5805393036476463,-0.27257098724476636 l 6.782345970275808 14.774712751415436" fill="#ff9e0e" stroke="none" /><path d="M 91.56875222667455 80.76684994638697 l -3.8598129780682444 -8.804908144312456 a30.613769482125306,30.613769482125306 0 0,0 0.4844501349606487,-0.20741626536929714 l 3.7076790853172876 8.87004393764454" fill="#ff3c05" stroke="none" /><path d="M 92.57280143429618 80.3572730644239 l -6.366715998430818 -16.83806656402346 a39.00154321771219,39.00154321771219 0 0,0 0.6300006086472831,-0.23203454095864057 l 6.0759330640109654 16.945164372788422" fill="#ffb610" stroke="none" /><path d="M 98.55514903715128 79.0497635885617 l -1.0123383944452076 -14.678834867637255 a35.713701848828904,35.713701848828904 0 0,0 0.6136599525468567,-0.03701764417026245 l 0.7595163930587279 14.694085781187823" fill="#ff880c" stroke="none" /><path d="M 99.63851952072746 79.00311137660856 l -0.4194086458773747 -24.36169345270537 a45.36530343533247,45.36530343533247 0 0,0 0.7808891251499045,-0.006721359235660417 l 5.967778172466784e-15 24.36530343533247" fill="#f2ff19" stroke="none" /></svg>