<?xml version="1.0" encoding="utf-8" ?>
<svg baseProfile="full" height="200mm" version="1.1" viewBox="0,0,200,200" width="200mm" xmlns="http://www.w3.org/2000/svg" xmlns:ev="http://www.w3.org/2001/xml-events" xmlns:xlink="http://www.w3.org/1999/xlink"><defs /><rect fill="#1a1a1a" height="200" width="200" x="0" y="0" /><text alignment-baseline="middle" fill="#e1ed5e" style="dominant-baseline: central; font-size:9.0px; font-family:Arial;" text-anchor="middle" x="100.0" y="100.0">2015</text><line stroke="#e1ed5e" stroke-width="0.3" x1="100.0" x2="100.0" y1="15.0" y2="10.0" /><path d="M 100.0 14.0 a86.0,86.0 0 0,1 42.46469731375804,11.215312516191453" fill="none" id="id1" stroke="none" /><text fill="#e1ed5e" style="font-size:6.75px; font-family:Arial;" text-anchor="middle"><textPath startOffset="22.20632615414155" xlink:href="#id1">January</textPath></text><line stroke="#e1ed5e" stroke-width="0.3" x1="143.23703022742887" x2="145.7803849466894" y1="26.81831364943548" y2="22.513508569990506" /><path d="M 143.74570117128098 25.957352633546492 a86.0,86.0 0 0,1 28.547481713284135,27.462654790039103" fill="none" id="id2" stroke="none" /><text fill="#e1ed5e" style="font-size:6.75px; font-family:Arial;" text-anchor="middle"><textPath startOffset="19.985693538727396" xlink:href="#id2">February</textPath></text><line stroke="#e1ed5e" stroke-width="0.3" x1="172.23445277983987" x2="176.4835382374775" y1="55.19839476539836" y2="52.563006222186495" /><path d="M 173.08426987136738 54.67131705675599 a86.0,86.0 0 0,1 12.851231095245387,41.99856678651699" fill="none" id="id3" stroke="none" /><text fill="#e1ed5e" style="font-size:6.75px; font-family:Arial;" text-anchor="middle"><textPath startOffset="22.20632615414155" xlink:href="#id3">March</textPath></text><line stroke="#e1ed5e" stroke-width="0.3" x1="184.98032266829074" x2="189.97916517819016" y1="98.17113171792111" y2="98.06355123074" /><path d="M 185.9800911702706 98.14961562048488 a86.0,86.0 0 0,1 -9.607161424134198,41.387399972396054" fill="none" id="id4" stroke="none" /><text fill="#e1ed5e" style="font-size:6.75px; font-family:Arial;" text-anchor="middle"><textPath startOffset="21.466115282336823" xlink:href="#id4">April</textPath></text><line stroke="#e1ed5e" stroke-width="0.3" x1="174.80103733775053" x2="179.2010983576182" y1="140.37084112569926" y2="142.7455964860345" /><path d="M 175.68104954172406 140.8457921977663 a86.0,86.0 0 0,1 -30.038265399797805,32.042727171017184" fill="none" id="id5" stroke="none" /><text fill="#e1ed5e" style="font-size:6.75px; font-family:Arial;" text-anchor="middle"><textPath startOffset="22.206326154141568" xlink:href="#id5">May</textPath></text><line stroke="#e1ed5e" stroke-width="0.3" x1="143.8653032363475" x2="146.44561519142675" y1="172.8068346515853" y2="177.08958963109032" /><path d="M 144.38136562736335 173.6633856474863 a86.0,86.0 0 0,1 -40.68145358897372,12.25698825130547" fill="none" id="id6" stroke="none" /><text fill="#e1ed5e" style="font-size:6.75px; font-family:Arial;" text-anchor="middle"><textPath startOffset="21.466115282336833" xlink:href="#id6">June</textPath></text><line stroke="#e1ed5e" stroke-width="0.3" x1="102.19456741930631" x2="102.32365962044197" y1="184.97166512339345" y2="189.96999836594603" /><path d="M 102.22038585953345 185.97133177190398 a86.0,86.0 0 0,1 -42.740103519485714,-10.115201625700543" fill="none" id="id7" stroke="none" /><text fill="#e1ed5e" style="font-size:6.75px; font-family:Arial;" text-anchor="middle"><textPath startOffset="22.20632615414155" xlink:href="#id7">July</textPath></text><line stroke="#e1ed5e" stroke-width="0.3" x1="58.666819895761336" x2="56.23545636021788" y1="174.27360380694188" y2="178.64263932499728" /><path d="M 58.180547188652646 175.14741091055294 a86.0,86.0 0 0,1 -31.652253787137756,-30.449443065178592" fill="none" id="id8" stroke="none" /><text fill="#e1ed5e" style="font-size:6.75px; font-family:Arial;" text-anchor="middle"><textPath startOffset="22.20632615414155" xlink:href="#id8">August</textPath></text><line stroke="#e1ed5e" stroke-width="0.3" x1="26.63291911575756" x2="22.317208475507996" y1="142.92168965132927" y2="145.44649492493687" /><path d="M 25.769776987707644 143.4266507060508 a86.0,86.0 0 0,1 -11.730757126820373,-40.83630448921669" fill="none" id="id9" stroke="none" /><text fill="#e1ed5e" style="font-size:6.75px; font-family:Arial;" text-anchor="middle"><textPath startOffset="21.46611528233685" xlink:href="#id9">September</textPath></text><path d="M 80.45479744820244 107.68017299344265 l -38.241523399418035 15.026782887614743 a62.087933944891276,62.087933944891276 0 0,0 -0.38230119177594224,-0.9980677754197572 l 38.49451887078749 -14.366291545361829" fill="#80ff25" stroke="none" /><path d="M 80.20201598880116 107.00284435728193 l -44.2862017065064 15.664694827030436 a67.97499681334065,67.97499681334065 0 0,0 -0.3806896615168423,-1.1064623532484712 l 44.549282198966466 -14.900059770692668" fill="#30ff37" stroke="none" /><path d="M 79.97269907076064 106.31721596034903 l -52.326860022493484 16.5054730268938 a75.8683052376793,75.8683052376793 0 0,0 -0.3821350242609235,-1.2488393694692348 l 52.60322181926053 -15.602306684872518" fill="#3effb8" stroke="none" /><path d="M 79.86692584326677 105.97154293290107 l -31.818902028635165 9.437601931159755 a54.18901710685198,54.18901710685198 0 0,0 -0.2575458527223187,-0.8965509001680613 l 31.976640518243588 -8.888493555487097" fill="#fffa17" stroke="none" /><path d="M 79.76711848015287 105.62410040840567 l -53.28190628344343 14.81068282811806 a76.3020602060426,76.3020602060426 0 0,0 -0.3408591927149792,-1.2684638588245418 l 53.52895355250019 -13.891328036117978" fill="#3fffbf" stroke="none" /><path d="M 79.67330655649465 105.27499134158121 l -51.19100476813118 13.284605667382335 a73.8866686123136,73.8866686123136 0 0,0 -0.3088768346948363,-1.2338094153337582 l 51.41209291712108 -12.401468412651186" fill="#3bff99" stroke="none" /><path d="M 79.50377843672027 104.57218783832718 l -29.55145354862902 6.592180715005479 a51.277801330612974,51.277801330612974 0 0,0 -0.18476114903704674,-0.8631425781473874 l 29.660548736390506 -6.082524317441928" fill="#ffc612" stroke="none" /><path d="M 79.29508885075956 103.50808413554451 l -41.91423533984885 7.101632216112983 a63.51160199589246,63.51160199589246 0 0,0 -0.1733511240051667,-1.0794576146567603 l 42.030268218215305 -6.379095371763009" fill="#6bff28" stroke="none" /><line stroke="#e1ed5e" stroke-width="0.3" x1="15.007084014347285" x2="10.007500721073583" y1="101.09737516637583" y2="101.16192664675087" /><path d="M 14.007167355692545 101.11028546245083 a86.0,86.0 0 0,1 10.666146001902534,-42.60595125391555" fill="none" id="id10" stroke="none" /><text fill="#e1ed5e" style="font-size:6.75px; font-family:Arial;" text-anchor="middle"><textPath startOffset="22.20632615414155" xlink:href="#id10">October</textPath></text><path d="M 79.03285615573316 98.82574320788736 l -42.782916168004235 -2.396040694422083 a63.84995830625515,63.84995830625515 0 0,0 0.07090206152832046,-1.0968235098478412 l 42.735333515471496 3.132123268522936" fill="#65ff29" stroke="none" /><path d="M 79.05617556472873 98.46500227214037 l -37.66074349836702 -2.760200548766158 a58.76175721439884,58.76175721439884 0 0,0 0.08261767682992939,-1.0081449202268251 l 37.60765133771759 3.4080593862007618" fill="#b6ff1f" stroke="none" /><path d="M 79.08570108090925 98.10471618934814 l -41.69950291944905 -3.7788688543281768 a62.870376085573334,62.870376085573334 0 0,0 0.10694812110552153,-1.076952984371226 l 41.6282776726613 4.496097369403833" fill="#74ff27" stroke="none" /><path d="M 79.21141760316559 97.0276538004421 l -62.36574719050324 -8.91703859867371 a84.0,84.0 0 0,0 0.21697642624279112,-1.4296035504316318 l 62.20301487082115 9.989241261497433" fill="#4dd2ff" stroke="none" /><path d="M 79.32604984820605 96.31383870115002 l -20.019261463874354 -3.569430432881699 a41.33498618573779,41.33498618573779 0 0,0 0.13092222301620093,-0.6993917504559215 l 19.95485351694829 3.913500260800193" fill="#ff0000" stroke="none" /><path d="M 79.81627453868168 94.20196356495316 l -45.70353104369729 -13.128930965172938 a68.55188301371965,68.55188301371965 0 0,0 0.33555853884278697,-1.1313365778925866 l 45.470766607742796 13.913696929812064" fill="#31ff41" stroke="none" /><path d="M 79.91906864156998 93.8553929516997 l -39.46895661451328 -12.077190279363526 a62.27538081329213,62.27538081329213 0 0,0 0.3224812456996349,-1.0223536748149582 l 39.25521988504544 12.754794120604899" fill="#7dff26" stroke="none" /><path d="M 80.02781315780177 93.51064311812611 l -40.437583047581136 -13.138967200212976 a63.518591014029305,63.518591014029305 0 0,0 0.34681969245107525,-1.036946736385035 l 40.20542606135829 13.833087039520333" fill="#6aff28" stroke="none" /><path d="M 80.14247586403 93.16781622104843 l -42.09031890124064 -14.481603652040976 a65.51192862079716,65.51192862079716 0 0,0 0.37606005549736954,-1.063172417682767 l 41.83480576493346 15.203973696150355" fill="#4dff2c" stroke="none" /><line stroke="#e1ed5e" stroke-width="0.3" x1="26.266209847984243" x2="21.928928074336255" y1="57.711370442889674" y2="55.22380399835377" /><path d="M 25.398753493254645 57.213857153982495 a86.0,86.0 0 0,1 29.58750427330803,-30.492523968695096" fill="none" id="id11" stroke="none" /><text fill="#e1ed5e" style="font-size:6.75px; font-family:Arial;" text-anchor="middle"><textPath startOffset="21.46611528233685" xlink:href="#id11">November</textPath></text><line stroke="#e1ed5e" stroke-width="0.3" x1="56.762969772571076" x2="54.21961505331055" y1="26.818313649435495" y2="22.513508569990535" /><path d="M 56.25429882871897 25.957352633546506 a86.0,86.0 0 0,1 42.265352541879196,-11.944610805530505" fill="none" id="id12" stroke="none" /><text fill="#e1ed5e" style="font-size:6.75px; font-family:Arial;" text-anchor="middle"><textPath startOffset="22.20632615414155" xlink:href="#id12">December</textPath></text></svg>