<?xml version="1.0" encoding="utf-8" ?>
<svg baseProfile="full" height="200mm" version="1.1" viewBox="0,0,200,200" width="200mm" xmlns="http://www.w3.org/2000/svg" xmlns:ev="http://www.w3.org/2001/xml-events" xmlns:xlink="http://www.w3.org/1999/xlink"><defs /><rect fill="#1a1a1a" height="200" width="200" x="0" y="0" /><text alignment-baseline="middle" fill="#e1ed5e" style="dominant-baseline: central; font-size:9.0px; font-family:Arial;" text-anchor="middle" x="100.0" y="100.0">2019</text><line stroke="#e1ed5e" stroke-width="0.3" x1="100.0" x2="100.0" y1="15.0" y2="10.0" /><path d="M 100.0 14.0 a86.0,86.0 0 0,1 42.46469731375804,11.215312516191453" fill="none" id="id49" stroke="none" /><text fill="#e1ed5e" style="font-size:6.75px; font-family:Arial;" text-anchor="middle"><textPath startOffset="22.20632615414155" xlink:href="#id49">January</textPath></text><path d="M 100.0 79.0 l 0.0 -45.86671003779705 a66.86671003779705,66.86671003779705 0 0,0 1.1510004948495267,0.009907024642994774 l -0.7895200155769984 45.859914389762615" fill="#33ff53" stroke="none" /><path d="M 106.74666289553966 80.11325718540242 l 10.015435801435267 -29.521913135890358 a52.17454585869258,52.17454585869258 0 0,0 0.848005306257037,0.29585240033241184 l -10.522123111755578 29.345139882385737" fill="#cdff1d" stroke="none" /><line stroke="#e1ed5e" stroke-width="0.3" x1="143.23703022742887" x2="145.7803849466894" y1="26.81831364943548" y2="22.513508569990506" /><path d="M 143.74570117128098 25.957352633546492 a86.0,86.0 0 0,1 28.547481713284135,27.462654790039103" fill="none" id="id50" stroke="none" /><text fill="#e1ed5e" style="font-size:6.75px; font-family:Arial;" text-anchor="middle"><textPath startOffset="19.985693538727396" xlink:href="#id50">February</textPath></text><line stroke="#e1ed5e" stroke-width="0.3" x1="172.23445277983987" x2="176.4835382374775" y1="55.19839476539836" y2="52.563006222186495" /><path d="M 173.08426987136738 54.67131705675599 a86.0,86.0 0 0,1 12.851231095245387,41.99856678651699" fill="none" id="id51" stroke="none" /><text fill="#e1ed5e" style="font-size:6.75px; font-family:Arial;" text-anchor="middle"><textPath startOffset="22.20632615414155" xlink:href="#id51">March</textPath></text><path d="M 120.98425023603335 99.18683210126433 l 19.835647005364926 -0.7686579798651907 a40.850534683263646,40.850534683263646 0 0,0 0.021180623965792535,0.7028817940339817 l -19.845939323786364 0.42710603840620986" fill="#ff850c" stroke="none" /><line stroke="#e1ed5e" stroke-width="0.3" x1="184.98032266829074" x2="189.97916517819016" y1="98.17113171792111" y2="98.06355123074" /><path d="M 185.9800911702706 98.14961562048488 a86.0,86.0 0 0,1 -9.607161424134198,41.387399972396054" fill="none" id="id52" stroke="none" /><text fill="#e1ed5e" style="font-size:6.75px; font-family:Arial;" text-anchor="middle"><textPath startOffset="21.466115282336823" xlink:href="#id52">April</textPath></text><path d="M 120.99824983174949 100.27111621757518 l 18.969855331923576 0.24492686136933545 a39.97143643695779,39.97143643695779 0 0,0 -0.014804539380803172,0.6879087717054586 l -18.962828729857765 -0.5714254488649089" fill="#ff760a" stroke="none" /><path d="M 120.9764740272857 100.99374915477107 l 23.863661666091364 1.1305281135224958 a44.890425737712235,44.890425737712235 0 0,0 -0.043209491160549465,0.7715344911659341 l -23.840665824043285 -1.541134321023853" fill="#ffc512" stroke="none" /><path d="M 120.92983693683757 101.71520430193887 l 23.649312650645616 1.9380658778516842 a44.72859220844928,44.72859220844928 0 0,0 -0.06948992279803429,0.7668155075744351 l -23.612448131570506 -2.3448627739746897" fill="#ffc312" stroke="none" /><path d="M 120.5718875245553 104.21870165774334 l 28.981449362303895 5.94326059398378 a50.58456951905478,50.58456951905478 0 0,0 -0.18226333706521503,0.8514736321794262 l -28.874851986514237 -6.441248045579376" fill="#e4ff1a" stroke="none" /><path d="M 120.32669344350535 105.2749913415812 l 17.232883270699826 4.472114970202694 a38.803709673219146,38.803709673219146 0 0,0 -0.17334526902475594,0.6450822320640233 l -17.153349925333295 -4.768088135442265" fill="#ff6309" stroke="none" /><path d="M 120.13307415673323 105.97154293290107 l 28.14892187082595 8.349072484308069 a50.36100839273225,50.36100839273225 0 0,0 -0.253659352264049,0.8289734398308103 l -28.00103574605577 -8.832372896690938" fill="#e7ff1a" stroke="none" /><path d="M 119.9155931802556 106.66101706037122 l 13.999192289413692 4.682203428600317 a35.76145025743664,35.76145025743664 0 0,0 -0.20027973566867185,0.5821066607193338 l -13.91652172280179 -4.922482792408951" fill="#ff2f04" stroke="none" /><path d="M 118.64920377521936 109.65438752849418 l 15.90890259085029 8.235778460913261 a38.914274434160205,38.914274434160205 0 0,0 -0.3130699552333112,0.5922103718083389 l -15.764780127392088 -8.508403847807735" fill="#ff6509" stroke="none" /><line stroke="#e1ed5e" stroke-width="0.3" x1="174.80103733775053" x2="179.2010983576182" y1="140.37084112569926" y2="142.7455964860345" /><path d="M 175.68104954172406 140.8457921977663 a86.0,86.0 0 0,1 -30.038265399797805,32.042727171017184" fill="none" id="id53" stroke="none" /><text fill="#e1ed5e" style="font-size:6.75px; font-family:Arial;" text-anchor="middle"><textPath startOffset="22.206326154141568" xlink:href="#id53">May</textPath></text><path d="M 117.94076556474637 110.91462005526583 l 17.57150198205171 10.689971241322338 a41.5677701038675,41.5677701038675 0 0,0 -0.37714905023522255,0.6080843558510953 l -17.384888292148524 -10.990851928538707" fill="#ff900d" stroke="none" /><path d="M 116.71984013943494 112.70617746262583 l 19.08286638479277 14.501950064036226 a44.96794411541495,44.96794411541495 0 0,0 -0.47364774676422206,0.6122535610515523 l -18.83041182081048 -14.82828161920103" fill="#ffc612" stroke="none" /><path d="M 116.27256486870786 113.27417163493432 l 27.63032679577356 22.53914506874828 a56.657369775003346,56.657369775003346 0 0,0 -0.6229720626932821,0.750409981164747 l -27.238258733186733 -23.011416307026796" fill="#90ff24" stroke="none" /><path d="M 115.56566222782051 114.09645910891815 l 13.413739999777293 12.147651326171435 a39.09679124938617,39.09679124938617 0 0,0 -0.4560428310656461,0.4949444235687365 l -13.202650760715926 -12.376747004541505" fill="#ff6809" stroke="none" /><path d="M 115.07121518719521 114.62390073753431 l 10.576732277595104 10.262814314166206 a35.737456473862,35.737456473862 0 0,0 -0.43218390991461886,0.4378000189930112 l -10.398507742624949 -10.443354827139881" fill="#ff2f04" stroke="none" /><path d="M 114.29624159901734 115.38237550388516 l 20.22239896067232 21.75876311602205 a50.70503647639172,50.70503647639172 0 0,0 -0.6444379561832403,0.5886787934969266 l -19.844861455022215 -22.10363467610556" fill="#e2ff1b" stroke="none" /><path d="M 113.48314897796784 116.09983520530334 l 11.424673196585454 13.641869272529124 a38.79392466257943,38.79392466257943 0 0,0 -0.5156449144910825,0.4243406596991135 l -11.18815815354968 -13.836505051085416" fill="#ff6309" stroke="none" /><path d="M 112.63410532772338 116.77436683061366 l 37.647769339784546 49.985137600057776 a83.57690082736865,83.57690082736865 0 0,0 -1.1566049288700218,0.8556286758593916 l -36.78177944049596 -50.62577622465694" fill="#4cd7ff" stroke="none" /><path d="M 112.04921762599082 117.19931262002967 l 10.269384606178651 14.65874065350054 a38.89801491049241,38.89801491049241 0 0,0 -0.5516907591869807,0.3794579347537273 l -10.015536962368786 -14.833339377619362" fill="#ff6509" stroke="none" /><path d="M 111.45004920935366 117.60387380957326 l 8.757416177796392 13.464086177542754 a37.061567629201946,37.061567629201946 0 0,0 -0.5377778143469635,0.34323524519287507 l -8.524356561402499 -13.612835851559439" fill="#ff4606" stroke="none" /><line stroke="#e1ed5e" stroke-width="0.3" x1="143.8653032363475" x2="146.44561519142675" y1="172.8068346515853" y2="177.08958963109032" /><path d="M 144.38136562736335 173.6633856474863 a86.0,86.0 0 0,1 -40.68145358897372,12.25698825130547" fill="none" id="id54" stroke="none" /><text fill="#e1ed5e" style="font-size:6.75px; font-family:Arial;" text-anchor="middle"><textPath startOffset="21.466115282336833" xlink:href="#id54">June</textPath></text><path d="M 110.21172684928248 118.3499491758327 l 8.590644083971235 15.436946625693983 a38.66630937411645,38.66630937411645 0 0,0 -0.5843716449797137,0.31864601424474615 l -8.323649627122872 -15.5825332916985" fill="#ff6108" stroke="none" /><path d="M 109.57404056367764 118.69057910512821 l 8.087406166133396 15.788350143082546 a38.73916961801164,38.73916961801164 0 0,0 -0.5961148229369138,0.29890434736129484 l -7.814437435513722 -15.925222331353144" fill="#ff6209" stroke="none" /><path d="M 108.2653958097858 119.30500536409082 l 17.5184924896424 40.916926335569606 a65.50946460990164,65.50946460990164 0 0,0 -1.0404417200211056,0.4349047233511441 l -16.811579310123836 -41.21241610194072" fill="#31ff40" stroke="none" /><path d="M 105.88484417918355 120.15858648285463 l 17.654532537550654 60.47575944856389 a84.0,84.0 0 0,0 -1.391475327581577,0.39324482664592386 l -16.61092604186447 -60.77069306854833" fill="#4dd2ff" stroke="none" /><path d="M 105.18746579009965 120.34920634021253 l 7.605473001684208 29.834479047853993 a51.788623867204365,51.788623867204365 0 0,0 -0.8657250617262586,0.21277415718620898 l -7.090794655214738 -29.96097446335423" fill="#d3ff1c" stroke="none" /><path d="M 103.7750983002368 120.6578951692458 l 8.251584821297817 45.15389021997579 a66.90166068957308,66.90166068957308 0 0,0 -1.134623584039018,0.19726885377160414 l -7.473112265786749 -45.289237652268405" fill="#33ff54" stroke="none" /><path d="M 101.26447882468166 120.96189622390904 l 3.7329089185131554 61.8822931913286 a82.99478058362227,82.99478058362227 0 0,0 -1.4267669547663293,0.073747554448526 l -2.6671538953333465 -61.93738055253933" fill="#4bddff" stroke="none" /><line stroke="#e1ed5e" stroke-width="0.3" x1="102.19456741930631" x2="102.32365962044197" y1="184.97166512339345" y2="189.96999836594603" /><path d="M 102.22038585953345 185.97133177190398 a86.0,86.0 0 0,1 -42.740103519485714,-10.115201625700543" fill="none" id="id55" stroke="none" /><text fill="#e1ed5e" style="font-size:6.75px; font-family:Arial;" text-anchor="middle"><textPath startOffset="22.20632615414155" xlink:href="#id55">July</textPath></text><path d="M 98.37488393609728 120.93702456842531 l -2.3675874741899348 30.502582686905278 a51.59432988348388,51.59432988348388 0 0,0 -0.8848567180882905,-0.07634916091955059 l 2.892288510019767 -30.457309273707065" fill="#d5ff1c" stroke="none" /><path d="M 97.65516085044442 120.86867818915974 l -5.374714650949284 47.83406590191097 a69.13507471987023,69.13507471987023 0 0,0 -1.1814610677264084,-0.1430584818326419 l 6.197303141727082 -47.73446189135298" fill="#37ff73" stroke="none" /><path d="M 96.93821686468263 120.77559828337769 l -3.7261619641919004 25.283712361564234 a46.55680719036919,46.55680719036919 0 0,0 -0.7918296111091901,-0.1236675004568205 l 4.160827438909608 -25.21582655376031" fill="#ffdf14" stroke="none" /><path d="M 95.86986931433489 120.58985236759428 l -12.187489730259516 60.75803246337339 a82.96832589916816,82.96832589916816 0 0,0 -1.3978524825730976,-0.2929335787883113 l 13.231533674262 -60.539242903858536" fill="#4bddff" stroke="none" /><path d="M 95.16358092515715 120.4354850818985 l -7.034631494911589 29.72366636271903 a51.544760308626365,51.544760308626365 0 0,0 -0.8616485140496106,-0.21177224094920077 l 7.545233293704411 -29.598172863455797" fill="#d6ff1c" stroke="none" /><path d="M 94.46302465271185 120.25689768951611 l -6.2921906552645925 23.019835623622654 a44.86429331408759,44.86429331408759 0 0,0 -0.7431852051896967,-0.21003156246297425 l 6.687507028558903 -22.90811526782116" fill="#ffc512" stroke="none" /><path d="M 91.7346041902142 119.30500536409082 l -7.112516322150925 16.61229164473196 a39.07086390083481,39.07086390083481 0 0,0 -0.6159788219441676,-0.27002701359139625 l 7.397415818752836 -16.48740007784611" fill="#ff6809" stroke="none" /><path d="M 90.42595943632237 118.69057910512821 l -8.798877153468931 17.1772939940464 a40.29973233285219,40.29973233285219 0 0,0 -0.6146843281885566,-0.32157378873278214 l 9.093252384183982 -17.023290786368904" fill="#ff7c0b" stroke="none" /><line stroke="#e1ed5e" stroke-width="0.3" x1="58.666819895761336" x2="56.23545636021788" y1="174.27360380694188" y2="178.64263932499728" /><path d="M 58.180547188652646 175.14741091055294 a86.0,86.0 0 0,1 -31.652253787137756,-30.449443065178592" fill="none" id="id56" stroke="none" /><text fill="#e1ed5e" style="font-size:6.75px; font-family:Arial;" text-anchor="middle"><textPath startOffset="22.20632615414155" xlink:href="#id56">August</textPath></text><path d="M 89.7882731507175 118.34994917583269 l -7.616527080736208 13.686508353646664 a36.6630774653651,36.6630774653651 0 0,0 -0.5488135052238485,-0.31163063141875225 l 7.850989352881264 -13.55337455643328" fill="#ff3f05" stroke="none" /><path d="M 87.95078237400918 117.19931262002967 l -10.50599490676492 14.996483290012002 a39.310391586434726,39.310391586434726 0 0,0 -0.5508559035927039,-0.3930210610820331 l 10.76257813820651 -14.81341796708575" fill="#ff6c09" stroke="none" /><path d="M 87.36589467227662 116.77436683061367 l -10.930753170045193 14.512817382239728 a39.16874330367108,39.16874330367108 0 0,0 -0.535066056896969,-0.4102658360414481 l 11.17894795543565 -14.322512204370913" fill="#ff6909" stroke="none" /><path d="M 86.79598089348748 116.32954008644616 l -19.118556751230198 23.64410686972019 a51.406627598547644,51.406627598547644 0 0,0 -0.6832916835016027,-0.5623025372608362 l 19.522718563276488 -23.31150921360217" fill="#d8ff1c" stroke="none" /><path d="M 86.24171649860922 115.8653595955263 l -16.208045573701153 18.69030183463315 a45.73920216961058,45.73920216961058 0 0,0 -0.5903790723821211,-0.5209408891795033 l 16.527366998989862 -18.40853780368136" fill="#ffd213" stroke="none" /><path d="M 84.19399662182784 113.82643327865904 l -9.072793177327913 7.936501499843655 a33.054195622088955,33.054195622088955 0 0,0 -0.3709270851646683,-0.43147199946710807 l 9.208062772063359 -7.779152401215017" fill="#ff0000" stroke="none" /><path d="M 83.28015986056508 112.70617746262583 l -49.844931790586394 37.87946198420266 a83.60487892665287,83.60487892665287 0 0,0 -0.8608863389147712,-1.153297935011191 l 50.48957939619625 -37.015851169682165" fill="#4cd6ff" stroke="none" /><path d="M 82.85270091963577 112.12312394758628 l -19.963364545591922 14.114079521374956 a45.44878656939629,45.44878656939629 0 0,0 -0.44613198257129266,-0.6426863949895132 l 20.203357435325348 -13.76835186419843" fill="#ffce13" stroke="none" /><line stroke="#e1ed5e" stroke-width="0.3" x1="26.63291911575756" x2="22.317208475507996" y1="142.92168965132927" y2="145.44649492493687" /><path d="M 25.769776987707644 143.4266507060508 a86.0,86.0 0 0,1 -11.730757126820373,-40.83630448921669" fill="none" id="id57" stroke="none" /><text fill="#e1ed5e" style="font-size:6.75px; font-family:Arial;" text-anchor="middle"><textPath startOffset="21.46611528233685" xlink:href="#id57">September</textPath></text><path d="M 81.18737489456691 109.33194174019688 l -17.169361856674538 8.51680632898876 a40.16567182780018,40.16567182780018 0 0,0 -0.3019057378047708,-0.6220152414035546 l 17.31342085109403 -8.220002131619921" fill="#ff7a0b" stroke="none" /><path d="M 80.73074385275274 108.34839909993369 l -27.579492039290958 11.948806158266619 a51.05665233776283,51.05665233776283 0 0,0 -0.3424418754942581,-0.8094314379737005 l 27.78108489597752 -11.47230019462676" fill="#ddff1b" stroke="none" /><path d="M 80.45479744820244 107.68017299344265 l -16.432613557826357 6.457099358476104 a38.65573335962262,38.65573335962262 0 0,0 -0.2380194023765346,-0.6213935518566628 l 16.541327239796402 -6.173282239786284" fill="#ff6108" stroke="none" /><path d="M 80.0844068197444 106.66101706037122 l -28.52366164594588 9.54009228488686 a51.07677899138406,51.07677899138406 0 0,0 -0.27169866697466866,-0.8362025144204029 l 28.683652563936796 -9.047690870488655" fill="#ddff1b" stroke="none" /><path d="M 79.86692584326677 105.97154293290107 l -22.649820774397213 6.718019122360095 a44.62511718575617,44.62511718575617 0 0,0 -0.21209120356947256,-0.7383173033772553 l 22.762104614852788 -6.327144343478244" fill="#ffc111" stroke="none" /><path d="M 79.67330655649465 105.27499134158121 l -23.498618057789198 6.098139234424633 a45.276992250859365,45.276992250859365 0 0,0 -0.1892765543988459,-0.7560657475331619 l 23.600105926483103 -5.69274564749408" fill="#ffcb12" stroke="none" /><path d="M 79.35854240842038 103.8639653848113 l -60.94302544555555 11.408193424448955 a83.00160665391883,83.00160665391883 0 0,0 -0.25079748732163887,-1.4066054984355731 l 61.130369375216375 -10.357469175280167" fill="#4bddff" stroke="none" /><path d="M 79.18660465613746 102.79330883721812 l -26.218825845923416 3.518756873971408 a47.45389345024628,47.45389345024628 0 0,0 -0.10168350407723627,-0.8105175747876365 l 26.2755108592475 -3.066921544896363" fill="#ffec16" stroke="none" /><line stroke="#e1ed5e" stroke-width="0.3" x1="15.007084014347285" x2="10.007500721073583" y1="101.09737516637583" y2="101.16192664675087" /><path d="M 14.007167355692545 101.11028546245083 a86.0,86.0 0 0,1 10.666146001902534,-42.60595125391555" fill="none" id="id58" stroke="none" /><text fill="#e1ed5e" style="font-size:6.75px; font-family:Arial;" text-anchor="middle"><textPath startOffset="22.20632615414155" xlink:href="#id58">October</textPath></text><path d="M 79.00019446554 99.90962569577889 l -17.66119472708164 -0.07600633170409808 a38.661358275918516,38.661358275918516 0 0,0 0.008592013518721938,-0.665460915756107 l 17.657269706445202 0.380003505520677" fill="#ff6108" stroke="none" /><path d="M 79.08570108090925 98.10471618934814 l -26.587636284403168 -2.4094097922322266 a47.69658515126263,47.69658515126263 0 0,0 0.08113614841644919,-0.8170299419404238 l 26.54222301030449 2.866715264877081" fill="#fff016" stroke="none" /><path d="M 79.46518482838121 95.60439243477599 l -21.846076915734017 -4.676291466893006 a43.34096637326826,43.34096637326826 0 0,0 0.1624370155396264,-0.7281732899661987 l 21.762345513192354 5.051642926409164" fill="#ffad10" stroke="none" /><path d="M 79.71946130924805 94.55025226153421 l -17.10689475431574 -4.596932183168147 a38.71376960536301,38.71376960536301 0 0,0 0.17847643138309802,-0.642074683599583 l 17.025231552366282 4.890718170186672" fill="#ff6209" stroke="none" /><path d="M 80.38941819471856 92.48833698450439 l -16.530287115991595 -6.331782891381472 a38.70146510096576,38.70146510096576 0 0,0 0.2436468245417287,-0.6200545926291341 l 16.418846741568174 6.61538648890637" fill="#ff6109" stroke="none" /><path d="M 80.95270993114464 91.15688171328213 l -40.2576075997578 -18.690469072397782 a65.38477896534278,65.38477896534278 0 0,0 0.4827321060021237,-1.0167569272761943 l 39.92991729991392 19.38066841531451" fill="#31ff3e" stroke="none" /><path d="M 81.43458229118936 90.18545643968196 l -23.891586193606503 -12.630204022340097 a48.024617379205665,48.024617379205665 0 0,0 0.39263989724483017,-0.7275020979289117 l 23.6706381971432 13.03958710360148" fill="#fff517" stroke="none" /><line stroke="#e1ed5e" stroke-width="0.3" x1="26.266209847984243" x2="21.928928074336255" y1="57.711370442889674" y2="55.22380399835377" /><path d="M 25.398753493254645 57.213857153982495 a86.0,86.0 0 0,1 29.58750427330803,-30.492523968695096" fill="none" id="id59" stroke="none" /><text fill="#e1ed5e" style="font-size:6.75px; font-family:Arial;" text-anchor="middle"><textPath startOffset="21.46611528233685" xlink:href="#id59">November</textPath></text><path d="M 82.15384107792192 88.93136811851018 l -39.79850819423284 -24.684025204406506 a67.83185192556658,67.83185192556658 0 0,0 0.6239638994071248,-0.9869610436075185 l 39.367716698579756 25.36543389572824" fill="#35ff61" stroke="none" /><path d="M 82.7489923806493 88.02491185347247 l -14.624487736531057 -10.151843510075599 a38.80268429785271,38.80268429785271 0 0,0 0.3856014538426701,-0.5454059105103825 l 14.44757366288451 10.402075920917767" fill="#ff6309" stroke="none" /><path d="M 83.6137871275137 86.86637796730984 l -48.6445654148515 -38.98883415434317 a83.34118167884407,83.34118167884407 0 0,0 0.9068374136071998,-1.111675443419671 l 47.96622950916791 39.82039376737092" fill="#4cd9ff" stroke="none" /><path d="M 84.07557802195018 86.31012108654704 l -14.40352309136294 -12.382395249239075 a39.99434625228791,39.99434625228791 0 0,0 0.4532847532823573,-0.5181828311943173 l 14.188246474502739 12.628493636636335" fill="#ff770a" stroke="none" /><path d="M 85.31137513191541 84.99185889309783 l -31.98158668449098 -32.67727034314648 a66.72336256156902,66.72336256156902 0 0,0 0.8277406661815213,-0.7962858650485446 l 31.414362774697032 33.22293929495734" fill="#33ff51" stroke="none" /><path d="M 87.22198572758235 83.33499621200491 l -10.983848279976787 -14.325064074133596 a39.05138176887249,39.05138176887249 0 0,0 0.5369636517529248,-0.4044298900763472 l 10.735638474465471 14.512010553715799" fill="#ff6709" stroke="none" /><path d="M 88.09926311788651 82.69761687909137 l -18.281056211693226 -26.57867672925216 a53.258689881847,53.258689881847 0 0,0 0.759812070031395,-0.5130285014132021 l 17.820839447255292 26.889417142964028" fill="#beff1f" stroke="none" /><line stroke="#e1ed5e" stroke-width="0.3" x1="56.762969772571076" x2="54.21961505331055" y1="26.818313649435495" y2="22.513508569990535" /><path d="M 56.25429882871897 25.957352633546506 a86.0,86.0 0 0,1 42.265352541879196,-11.944610805530505" fill="none" id="id60" stroke="none" /><text fill="#e1ed5e" style="font-size:6.75px; font-family:Arial;" text-anchor="middle"><textPath startOffset="22.20632615414155" xlink:href="#id60">December</textPath></text><path d="M 89.3179101791058 81.91981866633112 l -23.855144919311915 -40.37649496622603 a67.89700720599396,67.89700720599396 0 0,0 1.0113526528505055,-0.5858407348278148 l 23.15659553399609 40.7811398584439" fill="#35ff62" stroke="none" /><path d="M 90.26544431104013 81.39251694778311 l -9.52037058456079 -18.19807086870417 a41.53794632892368,41.53794632892368 0 0,0 0.636399933258667,-0.3259887637226003 l 9.205710163713361 18.359252157739277" fill="#ff900d" stroke="none" /><path d="M 92.23578459929587 80.48803036053334 l -11.108273580102399 -27.915801617532544 a51.0447286870731,51.0447286870731 0 0,0 0.819187281217505,-0.3178319382743847 l 10.626103133885218 28.102876259697478" fill="#ddff1b" stroke="none" /><path d="M 93.59665428221793 80.00007090966166 l -18.990104081891108 -59.31285796443272 a83.27872167080847,83.27872167080847 0 0,0 1.3690015648911953,-0.42535545016983994 l 17.96631714428918 59.63095354948509" fill="#4cdaff" stroke="none" /><path d="M 94.63758080256005 79.69619591428918 l -6.357394490523075 -24.071093191069636 a45.89646545438312,45.89646545438312 0 0,0 0.765577328068876,-0.19516270721503276 l 5.942108273769199 24.17695889445353" fill="#ffd513" stroke="none" /><path d="M 95.33964822691252 79.52364482259891 l -4.29600931550701 -18.875530619326483 a40.35823732161724,40.35823732161724 0 0,0 0.678705007165145,-0.14833862675582912 l 3.9704615841883433 18.94668274417818" fill="#ff7d0b" stroke="none" /><path d="M 96.40284397218896 79.31037775812273 l -10.379010701267356 -59.69655166286936 a81.59209637877413,81.59209637877413 0 0,0 1.3857865613433296,-0.2286666564990945 l 9.34989493378514 59.86636458230809" fill="#49edff" stroke="none" /></svg>