<?xml version="1.0" encoding="utf-8" ?>
<svg baseProfile="full" height="200mm" version="1.1" viewBox="0,0,200,200" width="200mm" xmlns="http://www.w3.org/2000/svg" xmlns:ev="http://www.w3.org/2001/xml-events" xmlns:xlink="http://www.w3.org/1999/xlink"><defs /><rect fill="#1a1a1a" height="200" width="200" x="0" y="0" /><text alignment-baseline="middle" fill="#e1ed5e" style="dominant-baseline: central; font-size:9.0px; font-family:Arial;" text-anchor="middle" x="100.0" y="100.0">2016</text><line stroke="#e1ed5e" stroke-width="0.3" x1="100.0" x2="100.0" y1="15.0" y2="10.0" /><path d="M 100.0 14.0 a86.0,86.0 0 0,1 42.35913384403234,11.155469271406648" fill="none" id="id13" stroke="none" /><text fill="#e1ed5e" style="font-size:6.75px; font-family:Arial;" text-anchor="middle"><textPath startOffset="22.145653131862478" xlink:href="#id13">January</textPath></text><line stroke="#e1ed5e" stroke-width="0.3" x1="143.13028292997686" x2="145.6673583964461" y1="26.7553504044142" y2="22.446841604673864" /><path d="M 143.63769802327073 25.89364864446614 a86.0,86.0 0 0,1 29.32050498858742,28.57503671076993" fill="none" id="id14" stroke="none" /><text fill="#e1ed5e" style="font-size:6.75px; font-family:Arial;" text-anchor="middle"><textPath startOffset="20.669276256404974" xlink:href="#id14">February</textPath></text><line stroke="#e1ed5e" stroke-width="0.3" x1="172.87174338648825" x2="177.1583165268699" y1="56.24261187166439" y2="53.66864786411523" /><path d="M 173.72905801456457 55.72781907015455 a86.0,86.0 0 0,1 12.242430191666344,42.057860355516425" fill="none" id="id15" stroke="none" /><text fill="#e1ed5e" style="font-size:6.75px; font-family:Arial;" text-anchor="middle"><textPath startOffset="22.145653131862474" xlink:href="#id15">March</textPath></text><path d="M 120.9064616781168 98.02013634271609 l 21.250934571705493 -2.0124855984538814 a42.34601411165307,42.34601411165307 0 0,0 0.062321994732454394,0.7242760474494755 l -21.282350189135688 1.6473885036287437" fill="#ffba11" stroke="none" /><path d="M 120.93736805541906 98.37931529534042 l 24.090232883056093 -1.864736382429456 a45.162296292691906,45.162296292691906 0 0,0 0.05319696737956281,0.77347223056938 l -24.11869381160072 1.4509207277057419" fill="#ffe315" stroke="none" /><path d="M 120.98066250479742 99.09900007780936 l 22.134907967475044 -0.9505681887705766 a43.15530930973641,43.15530930973641 0 0,0 0.025431450497896278,0.7404089330997972 l -22.14796410496979 0.5704529911066595" fill="#ffc612" stroke="none" /><path d="M 120.99303781780057 99.45929381324524 l 11.33320227182405 -0.29190308888608507 a32.336960842632344,32.336960842632344 0 0,0 0.009529499717423262,0.5550455839959222 l -11.33654320314014 0.09731058892109644" fill="#ff1b02" stroke="none" /><line stroke="#e1ed5e" stroke-width="0.3" x1="184.99686870605535" x2="189.99668451229388" y1="99.2704041080226" y2="99.22748670261217" /><path d="M 185.99683186730306 99.26182062694052 a86.0,86.0 0 0,1 -10.086455211305974,41.156179273409016" fill="none" id="id16" stroke="none" /><text fill="#e1ed5e" style="font-size:6.75px; font-family:Arial;" text-anchor="middle"><textPath startOffset="21.40746469413373" xlink:href="#id16">April</textPath></text><path d="M 120.9064616781168 101.97986365728391 l 23.146285533686875 2.1919773051424807 a44.24984512880079,44.24984512880079 0 0,0 -0.07810647104673564,0.7556092548985057 l -23.105246670158472 -2.588991082323918" fill="#ffd614" stroke="none" /><path d="M 120.86939407059847 102.33845913500097 l 10.684963647196815 1.1972724633698129 a31.75183284344865,31.75183284344865 0 0,0 -0.06534514156789249,0.5411515116162504 l -10.66283641936926 -1.3805176519094717" fill="#ff1101" stroke="none" /><path d="M 120.77682067341334 103.0534771498775 l 33.3134920241796 4.89593611445205 a54.67133708782403,54.67133708782403 0 0,0 -0.1444325811637272,0.9273607800139196 l -33.22453795087761 -5.46708507639742" fill="#99ff23" stroke="none" /><path d="M 120.7213421655516 103.40968896794604 l 22.24939022082604 3.6611286939509635 a43.54859704088617,43.54859704088617 0 0,0 -0.12771182365333902,0.7366078607360301 l -22.183263579680467 -4.042529587607581" fill="#ffcb13" stroke="none" /><path d="M 119.4528033332814 107.91128576633889 l 32.772979906235825 13.328485617757888 a56.37960911029567,56.37960911029567 0 0,0 -0.3723045085111104,0.8933952877292743 l -32.53934955318823 -13.88911341492844" fill="#84ff25" stroke="none" /><path d="M 119.31412917781788 108.2440532568976 l 20.65558532439267 8.816641117957191 a43.45854772010246,43.45854772010246 0 0,0 -0.29875913464436377,0.6836193668764919 l -20.501192307731344 -9.169922554609528" fill="#ffca12" stroke="none" /><path d="M 119.16976305983485 108.57439118712176 l 20.487048050672975 9.163596008335006 a43.44305303728877,43.44305303728877 0 0,0 -0.31033965951043124,0.6781481634216612 l -20.32672392630749 -9.513933153971356" fill="#ffca12" stroke="none" /><path d="M 118.8641267826498 109.22738970284198 l 19.559739530649317 9.56764875548785 a42.77437285469397,42.77437285469397 0 0,0 -0.3283036728111093,0.6568272675339535 l -19.392615944626474 -9.90200787918555" fill="#ffc011" stroke="none" /><line stroke="#e1ed5e" stroke-width="0.3" x1="174.33088141563837" x2="178.70328620479359" y1="141.23008692659167" y2="143.65538615756765" /><path d="M 175.20536237346943 141.71514677278685 a86.0,86.0 0 0,1 -30.301960400862466,31.631185727798858" fill="none" id="id17" stroke="none" /><text fill="#e1ed5e" style="font-size:6.75px; font-family:Arial;" text-anchor="middle"><textPath startOffset="22.145653131862474" xlink:href="#id17">May</textPath></text><path d="M 117.81537515405839 111.11811171558189 l 8.271789577238598 5.162208475108895 a30.750430716158093,30.750430716158093 0 0,0 -0.2833173484981146,0.4454219295998202 l -8.181954537114594 -5.303444079387387" fill="#ff0000" stroke="none" /><path d="M 117.01052211995028 112.31430620078461 l 48.990794082167156 35.465556853181184 a81.48060538476389,81.48060538476389 0 0,0 -0.8299303302327647,1.1259598856957533 l -48.37476173235056 -36.30132304814582" fill="#49edff" stroke="none" /><path d="M 116.1254893667686 113.45245675266167 l 26.258270769943895 21.905583384049333 a55.195779962200426,55.195779962200426 0 0,0 -0.6132131207926873,0.7223635143913252 l -25.878363085644093 -22.353113680890214" fill="#93ff23" stroke="none" /><path d="M 115.89218393027572 113.72728997021213 l 24.621478194112832 21.267446447177996 a53.53492687630875,53.53492687630875 0 0,0 -0.6067009661117926,0.6903143288749823 l -24.252766164042455 -21.68697305386427" fill="#a8ff21" stroke="none" /><path d="M 115.41159269507618 114.26474011684316 l 45.574572824800164 42.1831442177692 a83.10039729550954,83.10039729550954 0 0,0 -0.9779894478944886,1.038590902486271 l -44.843727543169415 -42.95927658019996" fill="#4cdcff" stroke="none" /><path d="M 114.91283532996324 114.78537596483092 l 26.035893523506783 25.81336585618309 a57.66330056599571,57.66330056599571 0 0,0 -0.7029652788985369,0.6969570647544111 l -25.588936324478283 -26.256502931166164" fill="#74ff27" stroke="none" /><path d="M 114.39649973595853 115.28858382429668 l 24.25960329413659 25.762858007783425 a56.38718983923552,56.38718983923552 0 0,0 -0.7103986528918707,0.6575343874806371 l -23.81377486993075 -26.175510141396444" fill="#84ff25" stroke="none" /><line stroke="#e1ed5e" stroke-width="0.3" x1="143.1302829299769" x2="145.66735839644613" y1="173.24464959558577" y2="177.55315839532614" /><path d="M 143.63769802327073 174.10635135553383 a86.0,86.0 0 0,1 -40.68552437913181,11.842963189579606" fill="none" id="id18" stroke="none" /><text fill="#e1ed5e" style="font-size:6.75px; font-family:Arial;" text-anchor="middle"><textPath startOffset="21.407464694133747" xlink:href="#id18">June</textPath></text><line stroke="#e1ed5e" stroke-width="0.3" x1="101.45913802915013" x2="101.54496967792366" y1="184.9874750549273" y2="189.98673829345242" /><path d="M 101.47630435890484 185.9873277026323 a86.0,86.0 0 0,1 -42.54439059252881,-10.42667462771756" fill="none" id="id19" stroke="none" /><text fill="#e1ed5e" style="font-size:6.75px; font-family:Arial;" text-anchor="middle"><textPath startOffset="22.145653131862474" xlink:href="#id19">July</textPath></text><path d="M 97.48249496171623 120.84855314841334 l -4.35452326946787 36.06169935667485 a57.32365666333086,57.32365666333086 0 0,0 -0.9759275517837308,-0.12635336032866953 l 4.972928643142395 -35.98163440014578" fill="#78ff26" stroke="none" /><path d="M 96.76829788921471 120.74984581791261 l -5.7158370666092635 36.699774232480905 a58.142216170916534,58.142216170916534 0 0,0 -0.9848806816355703,-0.16206174137207635 l 6.344995251297897 -36.596246492613155" fill="#6eff28" stroke="none" /><path d="M 96.05791012581884 120.62667999033965 l -8.380575276015692 43.85071113814582 a65.64436033003577,65.64436033003577 0 0,0 -1.1050243848447523,-0.2210358249817786 l 9.132096146391403 -43.700385916501176" fill="#32ff4d" stroke="none" /><path d="M 93.95794788825049 120.11202640906438 l -10.850523575023264 36.11786403971533 a58.71251734694327,58.71251734694327 0 0,0 -0.9627716817193627,-0.2982691280492009 l 11.46893588961426 -35.92627832385948" fill="#67ff28" stroke="none" /><path d="M 92.59220618246901 119.65005319985036 l -13.105226527863248 34.76317035973253 a58.151379191174,58.151379191174 0 0,0 -0.9310526980156837,-0.36015118488244335 l 13.700051488372461 -34.53307928671204" fill="#6eff28" stroke="none" /><path d="M 91.26138138417905 119.09545874513695 l -11.671101035794194 25.50346206159451 a49.04712421113628,49.04712421113628 0 0,0 -0.7625923622420425,-0.3569317310749672 l 12.107182111907726 -25.299354098949017" fill="#e4ff1a" stroke="none" /><line stroke="#e1ed5e" stroke-width="0.3" x1="58.13341422392154" x2="55.67067388415222" y1="173.97424548756322" y2="178.32567169271397" /><path d="M 57.64086615596768 174.84453072859336 a86.0,86.0 0 0,1 -31.369924170532247,-30.572349798747897" fill="none" id="id20" stroke="none" /><text fill="#e1ed5e" style="font-size:6.75px; font-family:Arial;" text-anchor="middle"><textPath startOffset="22.145653131862474" xlink:href="#id20">August</textPath></text><path d="M 89.03521579738668 117.91015095944536 l -25.79478913286875 42.1338494948793 a70.40275720712665,70.40275720712665 0 0,0 -1.0253185040975201,-0.639874578785534 l 26.514271765755982 -41.68483911925222" fill="#39ff8d" stroke="none" /><path d="M 88.1277618465304 117.32195027204791 l -20.93613950146929 30.546453216753015 a58.03252275160664,58.03252275160664 0 0,0 -0.8168904093783365,-0.5702529486524205 l 21.457425002021395 -30.182555452295468" fill="#6fff27" stroke="none" /><path d="M 85.08716467003676 114.78537596483092 l -23.684742412811318 23.4823099333757 a54.35244972964262,54.35244972964262 0 0,0 -0.6512282734173905,-0.6682175786058462 l 24.084357487379517 -23.072269662702116" fill="#9dff22" stroke="none" /><path d="M 83.8745106332314 113.45245675266167 l -19.134371690414394 15.962573401655161 a45.91842550383472,45.91842550383472 0 0,0 -0.49975248592644966,-0.6096167742127021 l 19.405570995579474 -15.631754345743964" fill="#ffee16" stroke="none" /><path d="M 83.64595745247003 113.17365903436017 l -48.40434178023414 38.99111137458477 a83.15534626565115,83.15534626565115 0 0,0 -0.8859353538690962,-1.1193503783889727 l 49.0665435647448 -38.154441052281115" fill="#4cdbff" stroke="none" /><path d="M 82.576782715395 111.72311816256416 l -52.26965185381499 35.16935448769248 a84.0,84.0 0 0,0 -0.7947022443170932,-1.2032804866437559 l 52.86567853705281 -34.266894122709665" fill="#4dd2ff" stroke="none" /><line stroke="#e1ed5e" stroke-width="0.3" x1="26.387840678322732" x2="22.057713659400548" y1="142.50000000000003" y2="145.00000000000006" /><path d="M 25.521815274538298 143.00000000000003 a86.0,86.0 0 0,1 -11.493303480769221,-40.785679425670985" fill="none" id="id21" stroke="none" /><text fill="#e1ed5e" style="font-size:6.75px; font-family:Arial;" text-anchor="middle"><textPath startOffset="21.40746469413373" xlink:href="#id21">September</textPath></text><path d="M 81.4637452351635 109.86951160357371 l -19.088097890081894 10.16333698507925 a42.62519132247455,42.62519132247455 0 0,0 -0.33834645008835806,-0.6488239306961111 l 19.2597524091452 -9.834166811278635" fill="#ffbe11" stroke="none" /><path d="M 80.9802524753101 108.90220220490708 l -31.730116356365823 14.851296602277236 a56.03371654217299,56.03371654217299 0 0,0 -0.40028228443972275,-0.8746890309515882 l 31.980383105660604 -14.30441858911096" fill="#88ff25" stroke="none" /><line stroke="#e1ed5e" stroke-width="0.3" x1="15.003131293944662" x2="10.003315487706104" y1="100.72959589197737" y2="100.7725132973878" /><path d="M 14.003168132696942 100.73817937305945 a86.0,86.0 0 0,1 10.791469493833604,-42.45332614584628" fill="none" id="id22" stroke="none" /><text fill="#e1ed5e" style="font-size:6.75px; font-family:Arial;" text-anchor="middle"><textPath startOffset="22.145653131862435" xlink:href="#id22">October</textPath></text><line stroke="#e1ed5e" stroke-width="0.3" x1="26.387840678322718" x2="22.05771365940052" y1="57.49999999999999" y2="54.99999999999999" /><path d="M 25.521815274538284 56.99999999999999 a86.0,86.0 0 0,1 29.574782752854787,-30.34633250058573" fill="none" id="id23" stroke="none" /><text fill="#e1ed5e" style="font-size:6.75px; font-family:Arial;" text-anchor="middle"><textPath startOffset="21.40746469413373" xlink:href="#id23">November</textPath></text><line stroke="#e1ed5e" stroke-width="0.3" x1="56.869717070023135" x2="54.33264160355391" y1="26.7553504044142" y2="22.446841604673864" /><path d="M 56.362301976729285 25.89364864446614 a86.0,86.0 0 0,1 42.16139366436587,-11.88097634709845" fill="none" id="id24" stroke="none" /><text fill="#e1ed5e" style="font-size:6.75px; font-family:Arial;" text-anchor="middle"><textPath startOffset="22.145653131862474" xlink:href="#id24">December</textPath></text></svg>