<?xml version="1.0" encoding="utf-8" ?>
<svg baseProfile="full" height="200mm" version="1.1" viewBox="0,0,200,200" width="200mm" xmlns="http://www.w3.org/2000/svg" xmlns:ev="http://www.w3.org/2001/xml-events" xmlns:xlink="http://www.w3.org/1999/xlink"><defs /><rect fill="#1a1a1a" height="200" width="200" x="0" y="0" /><text alignment-baseline="middle" fill="#e1ed5e" style="dominant-baseline: central; font-size:9.0px; font-family:Arial;" text-anchor="middle" x="100.0" y="100.0">2024</text><line stroke="#e1ed5e" stroke-width="0.3" x1="100.0" x2="100.0" y1="15.0" y2="10.0" /><path d="M 100.0 14.0 a86.0,86.0 0 0,1 42.35913384403234,11.155469271406648" fill="none" id="id61" stroke="none" /><text fill="#e1ed5e" style="font-size:6.75px; font-family:Arial;" text-anchor="middle"><textPath startOffset="22.145653131862478" xlink:href="#id61">January</textPath></text><path d="M 101.08105385017728 79.02784411241856 l 0.8397615073804405 -16.291148899090384 a37.31277817668136,37.31277817668136 0 0,0 0.6393911411670187,0.03846418330434077 l -1.1192970006799214 16.274332737961352" fill="#ff9d0e" stroke="none" /><path d="M 101.44090949804482 79.04949213459386 l 1.1608508991719049 -16.878517302207673 a37.918390027748856,37.918390027748856 0 0,0 0.6490021449608825,0.05023687059640299 l -1.450422038908021 16.856102664616216" fill="#ffa50f" stroke="none" /><path d="M 101.80034050326958 79.07731436759882 l 3.863209267770814 -44.896347604775464 a66.06225043309996,66.06225043309996 0 0,0 1.1290366916289616,0.10692094855228503 l -4.633345522784788 44.82341490071799" fill="#35ff63" stroke="none" /><path d="M 102.51750503828377 79.15144685158666 l 2.1747143000268507 -18.009754092739836 a39.14057950473745,39.14057950473745 0 0,0 0.6663631065233511,0.08627404519360721 l -2.4835552284409936 17.969768451345832" fill="#ffb710" stroke="none" /><path d="M 102.87502721639298 79.19773525538626 l 2.0613558101999385 -14.914943779358502 a36.056717295535236,36.056717295535236 0 0,0 0.6124059920723188,0.09000259147607526 l -2.3170869078799394 14.877360114583546" fill="#ff8b0c" stroke="none" /><path d="M 103.23170211078529 79.25015418208739 l 3.9056130841988974 -25.076837698341112 a46.379156851881575,46.379156851881575 0 0,0 0.7856242610306956,0.12927417318750806 l -4.3355148482826635 25.006097526657936" fill="#e6ff1a" stroke="none" /><path d="M 103.94208987418118 79.37332000966035 l 2.873836891909352 -15.037128986349996 a36.30928432793076,36.30928432793076 0 0,0 0.6112123627513939,0.12225959055084652 l -3.1315457401917026 14.98557999913629" fill="#ff8e0d" stroke="none" /><path d="M 104.29559338865022 79.4440306129975 l 4.944956163528126 -23.663405336763965 a45.17455984276041,45.17455984276041 0 0,0 0.7577227518718207,0.1651421470752276 l -5.350441332019081 23.57503173155502" fill="#f6ff19" stroke="none" /><path d="M 104.64783097203109 79.52079915486377 l 11.531874853447498 -50.81156837799649 a73.10373900851442,73.10373900851442 0 0,0 1.2214167361656671,0.2882510239897479 l -12.402423743353049 50.60612121036051" fill="#3effb8" stroke="none" /><path d="M 104.9986988182912 79.60360301121754 l 3.657468826564143 -14.923720926679135 a36.3653676986491,36.3653676986491 0 0,0 0.6050412849438198,0.15379912863717932 l -3.9131154047333574 14.858736566206687" fill="#ff8f0d" stroke="none" /><path d="M 105.3480935250658 79.69241777938227 l 3.470863077514896 -13.17943244499876 a34.628805159482695,34.628805159482695 0 0,0 0.5735496427560359,0.15632350559513064 l -3.696594121205625 13.117908445259486" fill="#ff760a" stroke="none" /><path d="M 105.69591212413111 79.78721728523813 l 7.720836508862084 -27.398524999828048 a49.46560184789319,49.46560184789319 0 0,0 0.8153344195793444,0.23733196672839804 l -8.190030940823032 27.261949338797134" fill="#bfff1e" stroke="none" /><path d="M 106.38641147887787 79.99465700312896 l 4.954867089448662 -15.521050586258982 a37.292750509822206,37.292750509822206 0 0,0 0.6081866238185556,0.19992302337047976 l -5.22057645091496 15.43370664148648" fill="#ff9c0e" stroke="none" /><path d="M 106.72888874123014 80.10723608172694 l 3.3326375202969514 -9.85235065787794 a31.400734893625494,31.400734893625494 0 0,0 0.5091318564201937,0.17710248853805516 l -3.501275148762163 9.793689736771295" fill="#ff4606" stroke="none" /><path d="M 107.06938296918511 80.22567764915836 l 12.586485845503008 -35.20664101211813 a58.38886461628925,58.38886461628925 0 0,0 0.9409250099405193,0.34552069681956876 l -13.189000007097652 34.98538946628984" fill="#56ff2a" stroke="none" /><path d="M 108.07796709384702 80.6158196554323 l 8.937898369224435 -21.447702358484616 a44.23553235277237,44.23553235277237 0 0,0 0.6984262361591896,0.2981166292251898 l -9.304759680554055 21.291111079600025" fill="#fffc17" stroke="none" /><path d="M 108.73861861582097 80.90454125486305 l 7.601578400755876 -16.61082067213218 a39.26754930428743,39.26754930428743 0 0,0 0.6105380012598559,0.28576261246052753 l -7.885605115887238 16.477881828101122" fill="#ffb811" stroke="none" /><path d="M 109.06512990194946 81.05736502329252 l 22.61143548592944 -47.24920363438162 a73.38095320646246,73.38095320646246 0 0,0 1.1316033140615582,0.553523886272715 l -23.419199049253066 46.85408599801168" fill="#3fffbb" stroke="none" /><path d="M 109.71004243097381 81.37971332152246 l 8.034817311947565 -15.407821626033169 a38.376974894843684,38.376974894843684 0 0,0 0.5815229822770326,0.3096282336502818 l -8.298129110011157 15.267622924660312" fill="#ffac0f" stroke="none" /><path d="M 110.02825361518725 81.54914285379988 l 8.620962832490255 -15.861600612501888 a39.053015652507995,39.053015652507995 0 0,0 0.58627095973733,0.32519461860465654 l -8.891977980383686 15.711273078464085" fill="#ffb510" stroke="none" /><path d="M 110.34350942703115 81.72400993836675 l 13.915467030423745 -24.58729688846096 a49.251997999365145,49.251997999365145 0 0,0 0.7322307023012589,0.4227535930825406 l -14.3354902005854 24.344796398102247" fill="#c2ff1e" stroke="none" /><line stroke="#e1ed5e" stroke-width="0.3" x1="143.13028292997686" x2="145.6673583964461" y1="26.7553504044142" y2="22.446841604673864" /><path d="M 143.63769802327073 25.89364864446614 a86.0,86.0 0 0,1 29.32050498858742,28.57503671076993" fill="none" id="id62" stroke="none" /><text fill="#e1ed5e" style="font-size:6.75px; font-family:Arial;" text-anchor="middle"><textPath startOffset="20.669276256404974" xlink:href="#id62">February</textPath></text><path d="M 110.96478420261332 82.08984904055464 l 9.420503897393674 -15.387685138039563 a39.04235981207151,39.04235981207151 0 0,0 0.5685978155824002,0.35484709023603345 l -9.683265841765786 15.223702250961985" fill="#ffb510" stroke="none" /><path d="M 111.27062007382361 82.28071324371311 l 24.772815766977217 -38.94698104101886 a67.15798666790047,67.15798666790047 0 0,0 0.9674407559872497,0.6270834097433172 l -25.437742155221475 38.51598378957165" fill="#36ff71" stroke="none" /><path d="M 111.8722381534696 82.67804972795209 l 10.406268884158653 -15.183057297100847 a39.406945998086044,39.406945998086044 0 0,0 0.5547088894707027,0.3872298857139272 l -10.665372864803116 15.002182595581793" fill="#ffba11" stroke="none" /><path d="M 112.16784306229584 82.88440491214696 l 9.848203893843808 -13.852732101053627 a37.99662632990094,37.99662632990094 0 0,0 0.5283684014312172,0.3824979760269799 l -10.084553305648992 13.681633353653572" fill="#ffa60f" stroke="none" /><path d="M 112.45986205192187 83.09580414077388 l 13.690980703742566 -18.574444753603995 a44.07494204835493,44.07494204835493 0 0,0 0.6051846573130633,0.4541418492240577 l -14.007818349966396 18.336683877115924" fill="#fffa17" stroke="none" /><path d="M 113.03279911837588 83.53348406188908 l 16.58238739639474 -20.951304771487266 a47.71951989448643,47.71951989448643 0 0,0 0.637962783304473,0.513897659214167 l -16.939600950054473 20.663558818479693" fill="#d5ff1c" stroke="none" /><path d="M 113.59037401385872 83.9905735841838 l 20.075377678331364 -23.648744426255195 a52.02070118269381,52.02070118269381 0 0,0 0.6758245123696818,0.5837611174762513 l -20.478381670463907 23.300639176314224" fill="#a0ff22" stroke="none" /><path d="M 114.39649973595853 84.71141617570332 l 19.745920386351067 -20.969483176565845 a49.80313518692701,49.80313518692701 0 0,0 0.6173869704441197,0.5914427518271871 l -20.1029798426605 20.62742829443308" fill="#bbff1f" stroke="none" /><path d="M 114.65682725009322 84.96080404539774 l 4.136525353573569 -4.244439420760565 a26.92672827091501,26.92672827091501 0 0,0 0.32826000008662887,0.325454375919015 l -4.208777273790161 4.172805034612891" fill="#ff0000" stroke="none" /><path d="M 115.16444852881244 85.47280134310134 l 12.059670019828078 -11.552891078222892 a37.70044709738102,37.70044709738102 0 0,0 0.4436878840786891,0.47118115736278243 l -12.256213737643026 11.344168460915615" fill="#ffa20f" stroke="none" /><path d="M 115.41159269507618 85.73525988315684 l 14.27560355829761 -13.21328553117399 a40.4520891289859,40.4520891289859 0 0,0 0.46732237278291766,0.5136691505186919 l -14.500323631922406 12.966278805097625" fill="#ffc912" stroke="none" /><path d="M 115.6541949942343 86.00192230759917 l 11.481761206541709 -10.267061670942612 a36.402707416522105,36.402707416522105 0 0,0 0.41254483843261114,0.4694002963248474 l -11.65631710893291 10.068449096806468" fill="#ff900d" stroke="none" /><path d="M 115.8921839302757 86.27271002978787 l 11.46021157747191 -9.899057809432849 a36.143572726239825,36.143572726239825 0 0,0 0.4015472386337056,0.4730216374343385 l -11.628453379612727 9.70086938954896" fill="#ff8c0c" stroke="none" /><path d="M 116.1254893667686 86.54754324733833 l 20.937737079952885 -17.46700494852082 a48.26692311026099,48.26692311026099 0 0,0 0.5253123239245117,0.6407956205988065 l -21.234496223116025 17.105007046223516" fill="#ceff1d" stroke="none" /><path d="M 116.57777611688842 87.10902102172516 l 12.200801577269065 -9.487417102373021 a36.45544054377912,36.45544054377912 0 0,0 0.379914337032557,0.49732006258967465 l -12.361867891655928 9.276576126542466" fill="#ff900d" stroke="none" /><path d="M 116.7966241395341 87.39550010848427 l 41.85644232472799 -31.40985464451205 a73.33106852408669,73.33106852408669 0 0,0 0.7469222599553441,1.0133434962029404 l -42.38946660426717 30.686704839040235" fill="#3fffbb" stroke="none" /><path d="M 117.21940702142032 87.97951657250589 l 13.991465822345086 -9.767129775992538 a38.063350782274,38.063350782274 0 0,0 0.3694143590774223,0.538986589975837 l -14.157069918237834 9.525508450946653" fill="#ffa70f" stroke="none" /><path d="M 117.42321728460499 88.27688183743584 l 12.576555951070425 -8.462068117739177 a36.15837578435311,36.15837578435311 0 0,0 0.34208502841293564,0.5179603334529113 l -12.719965418404085 8.244927905947208" fill="#ff8c0c" stroke="none" /><path d="M 117.62189284568427 88.57770195909679 l 21.41273956558167 -13.879479085029987 a46.51754994851997,46.51754994851997 0 0,0 0.42858680685464806,0.6738096467519821 l -21.64784406406221 13.509855763599331" fill="#e4ff1a" stroke="none" /><path d="M 117.81537515405839 88.88188828441811 l 12.57537038631598 -7.8479611914336385 a35.82330716187455,35.82330716187455 0 0,0 0.32109971557233385,0.5244922538069449 l -12.708238066343714 7.63093182150214" fill="#ff870c" stroke="none" /><line stroke="#e1ed5e" stroke-width="0.3" x1="172.87174338648825" x2="177.1583165268699" y1="56.24261187166439" y2="53.66864786411523" /><path d="M 173.72905801456457 55.72781907015455 a86.0,86.0 0 0,1 12.242430191666344,42.057860355516425" fill="none" id="id63" stroke="none" /><text fill="#e1ed5e" style="font-size:6.75px; font-family:Arial;" text-anchor="middle"><textPath startOffset="22.145653131862474" xlink:href="#id63">March</textPath></text><path d="M 118.18653347947321 89.5 l 40.920432068541295 -23.625422470128118 a68.25084494025623,68.25084494025623 0 0,0 0.5770987081185307,1.0196781207152503 l -41.319964141681204 22.919487579313753" fill="#38ff7f" stroke="none" /><path d="M 118.70294669586156 90.45014215332178 l 13.22690904677581 -6.753754004742002 a35.851407882360796,35.851407882360796 0 0,0 0.2751682397123967,0.5505208073210082 l -13.340897199699944 6.5257013412572435" fill="#ff880c" stroke="none" /><path d="M 118.8641267826498 90.77261029715802 l 24.269742961300793 -11.871547454701266 a48.01766204498149,48.01766204498149 0 0,0 0.35583543802239004,0.7435592084329037 l -24.469957657283093 11.453175744203259" fill="#d1ff1c" stroke="none" /><path d="M 119.31412917781788 91.75594674310238 l 16.3652195138054 -6.985339074338456 a38.793689098062735,38.793689098062735 0 0,0 0.2561753368089566,0.6147275509846474 l -16.48272069515084 6.703379013912531" fill="#ffb210" stroke="none" /><path d="M 119.4528033332814 92.08871423366111 l 27.352601648260347 -11.124064968157843 a50.52811606493396,50.52811606493396 0 0,0 0.3198702238637036,0.8062819188321085 l -27.539530547090173 10.652882032112169" fill="#b2ff20" stroke="none" /><path d="M 119.71291397450082 92.76114493625339 l 15.288823186205738 -5.614267646242009 a37.287053620059766,37.287053620059766 0 0,0 0.2154833565187059,0.6027452992171753 l -15.382946712768387 5.350987390643917" fill="#ff9c0e" stroke="none" /><path d="M 119.83427380445688 93.10060997987247 l 17.056775243759997 -5.933231841637291 a39.05925861719585,39.05925861719585 0 0,0 0.21485303775530235,0.6351748292406217 l -17.156113703087666 5.639555337922507" fill="#ffb510" stroke="none" /><path d="M 120.05942366710727 93.78553927170692 l 14.877083008904663 -4.608958345198893 a36.57466198290089,36.57466198290089 0 0,0 0.18065040645190042,0.6013264497178868 l -14.95400973536019 4.352894291890283" fill="#ff920d" stroke="none" /><path d="M 120.16314734710363 94.1308016681162 l 30.820750550929883 -8.971471298944259 a53.09993709947771,53.09993709947771 0 0,0 0.24724723430151305,0.8773932102270088 l -30.970216277305976 8.441070164814237" fill="#93ff23" stroke="none" /><path d="M 120.43855184770803 95.1765574152323 l 12.707588076542125 -2.9989561850955275 a34.056666225464994,34.056666225464994 0 0,0 0.1293977169689511,0.5701502164462795 l -12.757196655068743 2.780371634710222" fill="#ff6d0a" stroke="none" /><path d="M 120.51834098615036 95.52812308129327 l 19.130755097458295 -4.169459032555332 a40.579841143969574,40.579841143969574 0 0,0 0.14249763715904104,0.6819027785313589 l -19.199510445441703 3.840439802738568" fill="#ffcb12" stroke="none" /><path d="M 120.65975698304385 96.23510406497455 l 14.583226339352851 -2.6575496318590517 a35.823395714565166,35.823395714565166 0 0,0 0.10505668395854317,0.6059390353455301 l -14.626697840803628 2.406817563592929" fill="#ff870c" stroke="none" /><path d="M 120.77682067341334 96.94652285012252 l 62.330462020240034 -9.160431449632455 a84.0,84.0 0 0,0 0.19742193377914985,1.4284467671996575 l -62.478528470574396 8.089096374232712" fill="#4dd2ff" stroke="none" /><path d="M 120.9064616781168 98.02013634271609 l 15.615002186053376 -1.478756941875817 a36.68486580636244,36.68486580636244 0 0,0 0.05399030018543737,0.6274491274996977 l -15.638086108936555 1.2104867670004575" fill="#ff940d" stroke="none" /><path d="M 120.96210409425399 98.7389718711861 l 14.947149534387755 -0.8991833989421619 a35.974171429106896,35.974171429106896 0 0,0 0.03179159249242855,0.6167484011609243 l -14.960382716336756 0.6424632044045069" fill="#ff890c" stroke="none" /><path d="M 120.98066250479742 99.09900007780936 l 12.377261107320006 -0.5315328480251086 a33.38866900386422,33.38866900386422 0 0,0 0.019675963318164506,0.5728442036492584 l -12.38456175763502 0.31898237981173033" fill="#ff6309" stroke="none" /><path d="M 120.99303781780057 99.45929381324524 l 30.001427868525212 -0.7727303595020091 a51.01137761514485,51.01137761514485 0 0,0 0.015032733315123835,0.8755813515259759 l -30.010272033439 0.25760209200696677" fill="#acff20" stroke="none" /><line stroke="#e1ed5e" stroke-width="0.3" x1="184.99686870605535" x2="189.99668451229388" y1="99.2704041080226" y2="99.22748670261217" /><path d="M 185.99683186730306 99.26182062694052 a86.0,86.0 0 0,1 -10.086455211305974,41.156179273409016" fill="none" id="id64" stroke="none" /><text fill="#e1ed5e" style="font-size:6.75px; font-family:Arial;" text-anchor="middle"><textPath startOffset="21.40746469413373" xlink:href="#id64">April</textPath></text><path d="M 120.99922638620191 100.18025310272382 l 14.831542241387258 0.12731095222375355 a35.8320886370265,35.8320886370265 0 0,0 -0.010559491975848415,0.6150374693564671 l -14.827171317812741 -0.38189533754929167" fill="#ff870c" stroke="none" /><path d="M 120.9064616781168 101.97986365728391 l 29.890792264203455 2.8306891047596094 a51.02452768970013,51.02452768970013 0 0,0 -0.09006462696238889,0.8712935658178959 l -29.8377952447594 -3.3433871928604364" fill="#acff21" stroke="none" /><path d="M 120.82617615685814 102.69636545807757 l 15.120973502065088 1.9577127522782578 a36.247179374251076,36.247179374251076 0 0,0 -0.08519033626315119,0.6163948356816088 l -15.085138649246726 -2.216995896159952" fill="#ff8d0d" stroke="none" /><path d="M 120.77682067341334 103.0534771498775 l 22.55748728513741 3.315173821178446 a43.79979407985438,43.79979407985438 0 0,0 -0.11571177239054593,0.7429525847720484 l -22.497254020608594 -3.701914587881945" fill="#fff617" stroke="none" /><path d="M 120.65975698304385 103.76489593502545 l 15.029154114885765 2.7388125271969144 a36.27666742022351,36.27666742022351 0 0,0 -0.1169036470463582,0.6116892801257463 l -14.979924175557247 -2.9964043723559755" fill="#ff8e0d" stroke="none" /><path d="M 120.592083275326 104.11899336999214 l 36.927845271381294 7.386603278900488 a58.659363568532875,58.659363568532875 0 0,0 -0.2059845595775948,0.9857106848287271 l -36.795603000979334 -8.019430415014623" fill="#53ff2b" stroke="none" /><path d="M 120.43855184770803 104.8234425847677 l 14.818679671068582 3.497168053199382 a36.22574962312397,36.22574962312397 0 0,0 -0.14802957995055382,0.6040112014162947 l -14.756462564601732 -3.7510350792237763" fill="#ff8d0d" stroke="none" /><path d="M 120.35273937422433 105.17358676015961 l 14.686273388334328 3.733193265089241 a36.15332828098846,36.15332828098846 0 0,0 -0.15805980191021804,0.6001788128839365 l -14.620024105619379 -3.984752582345981" fill="#ff8c0c" stroke="none" /><path d="M 120.26092885502905 105.52220625578681 l 20.93935382221088 5.707113997414036 a42.70317231814779,42.70317231814779 0 0,0 -0.19883717059369316,0.7056029723143658 l -20.838298159542607 -6.065724893631411" fill="#ffe715" stroke="none" /><path d="M 120.05942366710727 106.21446072829308 l 21.33630347295347 6.610041356125041 a43.33675206066562,43.33675206066562 0 0,0 -0.22624938711722437,0.708722982708158 l -21.21968937005899 -6.975333372524583" fill="#fff016" stroke="none" /><path d="M 119.83427380445688 106.89939002012753 l 8.218108059667586 2.8586845825663314 a29.701113585224352,29.701113585224352 0 0,0 -0.1716439092480169,0.4801185627973043 l -8.167823980375626 -2.9993381017445575" fill="#ff2b04" stroke="none" /><path d="M 119.58574465831526 107.57618678355244 l 15.516530902928084 6.002127486300991 a37.636954818215145,37.636954818215145 0 0,0 -0.23826222113207757,0.6005764416553782 l -15.411210006829883 -6.267604945169934" fill="#ffa10e" stroke="none" /><path d="M 119.4528033332814 107.91128576633889 l 20.28776211451615 8.250856233807745 a42.90136799851007,42.90136799851007 0 0,0 -0.2833005226391824,0.6798181224000222 l -20.14313574734048 -8.597906865649046" fill="#ffea16" stroke="none" /><path d="M 119.16976305983485 108.57439118712176 l 13.550646766370791 6.0610319413291025 a35.844397461021,35.844397461021 0 0,0 -0.25605792700300645,0.5595327815999294 l -13.444604374512728 -6.292753705143721" fill="#ff880c" stroke="none" /><path d="M 119.0197475246899 108.90220220490707 l 33.956989338432415 15.893585599292944 a58.492441746736965,58.492441746736965 0 0,0 -0.4334589137316109,0.905762418082099 l -33.679151166740894 -16.474160519440147" fill="#55ff2b" stroke="none" /><path d="M 118.8641267826498 109.22738970284198 l 11.70257792004613 5.7243172843525105 a34.027591425382056,34.027591425382056 0 0,0 -0.2611700066256568,0.5225149641029234 l -11.60258800020874 -5.92436410461918" fill="#ff6d0a" stroke="none" /><path d="M 118.5362547648365 109.86951160357373 l 16.137483895599367 8.592301227011479 a39.28239663874602,39.28239663874602 0 0,0 -0.32203082188642407,0.592500441183633 l -15.987607724097602 -8.868056501669715" fill="#ffb911" stroke="none" /><line stroke="#e1ed5e" stroke-width="0.3" x1="174.33088141563837" x2="178.70328620479359" y1="141.23008692659167" y2="143.65538615756765" /><path d="M 175.20536237346943 141.71514677278685 a86.0,86.0 0 0,1 -30.301960400862466,31.631185727798858" fill="none" id="id65" stroke="none" /><text fill="#e1ed5e" style="font-size:6.75px; font-family:Arial;" text-anchor="middle"><textPath startOffset="22.145653131862474" xlink:href="#id65">May</textPath></text><path d="M 118.18653347947321 110.5 l 13.621120920203085 7.864157829943689 a36.728315659887386,36.728315659887386 0 0,0 -0.31993211984981135,0.5433146833471308 l -13.484115090223508 -8.09682368158437" fill="#ff940d" stroke="none" /><path d="M 117.62189284568427 111.42229804090321 l 26.176024953214736 16.966983124912332 a52.19395452186818,52.19395452186818 0 0,0 -0.4937934856942017,0.747666273773043 l -25.880907028599808 -17.413829277024433" fill="#9eff22" stroke="none" /><path d="M 117.21940702142032 112.02048342749411 l 12.41935932864628 8.669677347447548 a36.14608171914038,36.14608171914038 0 0,0 -0.35954146278241095,0.5057400940144156 l -12.268702767333908 -8.881594668171468" fill="#ff8c0c" stroke="none" /><path d="M 117.01052211995028 112.31430620078461 l 18.89680678731243 13.679830833829236 a44.32867502451012,44.32867502451012 0 0,0 -0.4515149553460721,0.612566752884911 l -18.65918981238253 -14.002203895983024" fill="#fffd17" stroke="none" /><path d="M 116.57777611688842 112.89097897827486 l 17.703240137232584 13.766146607802748 a43.4256884795995,43.4256884795995 0 0,0 -0.46265639454230534,0.5845512407122236 l -17.464317312048717 -14.068017792429655" fill="#fff116" stroke="none" /><path d="M 116.1254893667686 113.45245675266167 l 34.57064328626659 28.840060176938913 a66.02086680902254,66.02086680902254 0 0,0 -0.7334774832627456,0.8640346309806158 l -34.07047123949673 -29.429261590369087" fill="#35ff63" stroke="none" /><path d="M 115.6541949942343 113.99807769240083 l 13.476808393220002 12.05104516734178 a39.07905014354672,39.07905014354672 0 0,0 -0.45146035303523335,0.49623401219911834 l -13.26795033934289 -12.280616755098569" fill="#ffb610" stroke="none" /><path d="M 115.41159269507618 114.26474011684316 l 17.091707926921206 15.81982969277491 a44.28934287109844,44.28934287109844 0 0,0 -0.5212310818212639,0.5535293461888614 l -16.81762101136368 -16.11090049890827" fill="#fffd17" stroke="none" /><path d="M 114.65682725009322 115.03919595460226 l 12.41948543557942 12.743486153855011 a38.79438276080583,38.79438276080583 0 0,0 -0.4809164393576273,0.46070707013463297 l -12.19889651035648 -12.954805354295225" fill="#ffb210" stroke="none" /><path d="M 114.39649973595853 115.28858382429668 l 15.185745804022298 16.126735798102565 a43.15126369140559,43.15126369140559 0 0,0 -0.5436447477584038,0.5031894623803531 l -14.906671284949926 -16.385043006615298" fill="#ffed16" stroke="none" /><path d="M 114.13192950727249 115.5334660781643 l 10.269195376991625 11.287644617562785 a36.259989996825695,36.259989996825695 0 0,0 -0.46401559234197803,0.414925603934328 l -10.07391475782627 -11.4622657513805" fill="#ff8e0d" stroke="none" /><path d="M 113.86319453409587 115.77377054828091 l 10.102559298609286 11.494857980585747 a36.30338081522357,36.30338081522357 0 0,0 -0.47163367811316487,0.4073859381178684 l -9.903746140733265 -11.666588051168333" fill="#ff8e0d" stroke="none" /><path d="M 113.59037401385872 116.0094264158162 l 13.626614841428076 16.052118019566624 a42.05599973762166,42.05599973762166 0 0,0 -0.5543895299930611,0.46249146346710984 l -13.34905097727312 -16.283671666945605" fill="#ffdf14" stroke="none" /><path d="M 113.03279911837588 116.46651593811092 l 9.519680676913818 12.027805551848529 a36.33924465491977,36.33924465491977 0 0,0 -0.4924660784884531,0.38294460128706936 l -9.311804653790135 -12.189451204756391" fill="#ff8f0d" stroke="none" /><path d="M 112.45986205192187 116.90419585922612 l 23.176701593188753 31.443646925582932 a60.06228908705222,60.06228908705222 0 0,0 -0.8352061416108403,0.6046248372652425 l -22.633514441203946 -31.83687253422125" fill="#44ff2d" stroke="none" /><path d="M 111.8722381534696 117.32195027204791 l 10.021936829964556 14.622305344129071 a38.72712699228912,38.72712699228912 0 0,0 -0.5515917826063054,0.37113556809664033 l -9.769448759261246 -14.792190586282832" fill="#ffb110" stroke="none" /><path d="M 111.5731344415666 117.5232005979908 l 13.669626610837904 20.697556950606096 a45.80418423176442,45.80418423176442 0 0,0 -0.65982970632646,0.4276936438044633 l -13.312311272254433 -20.929164436114455" fill="#eeff19" stroke="none" /><path d="M 111.27062007382361 117.71928675628689 l 8.395638928367728 13.199338873954595 a36.643187006649654,36.643187006649654 0 0,0 -0.533657191528576,0.3330415566290638 l -8.167817608049436 -13.341516227425208" fill="#ff930d" stroke="none" /><line stroke="#e1ed5e" stroke-width="0.3" x1="143.1302829299769" x2="145.66735839644613" y1="173.24464959558577" y2="177.55315839532614" /><path d="M 143.63769802327073 174.10635135553383 a86.0,86.0 0 0,1 -40.68552437913181,11.842963189579606" fill="none" id="id66" stroke="none" /><text fill="#e1ed5e" style="font-size:6.75px; font-family:Arial;" text-anchor="middle"><textPath startOffset="21.407464694133747" xlink:href="#id66">June</textPath></text><path d="M 110.65571695917076 118.09573695890943 l 19.844354916240537 33.70005303814632 a60.1087202144943,60.1087202144943 0 0,0 -0.8936378665827162,0.515942062829576 l -19.262924581797424 -34.035741998252064" fill="#44ff2d" stroke="none" /><path d="M 110.02825361518725 118.45085714620011 l 7.956498777091247 14.639061590713993 a37.66157246620415,37.66157246620415 0 0,0 -0.5706825511338736,0.30385631465626484 l -7.70402741017082 -14.773488373092826" fill="#ffa20e" stroke="none" /><path d="M 109.71004243097381 118.62028667847754 l 8.212144392954901 15.74786968531679 a38.760481839084775,38.760481839084775 0 0,0 -0.5926159805616754,0.30259394223082803 l -7.940601190679643 -15.886521579220455" fill="#ffb110" stroke="none" /><path d="M 109.3889696526874 118.78422872680471 l 10.010067884457944 20.026841247556934 a43.38919001228727,43.38919001228727 0 0,0 -0.669102118014277,0.32729137505549677 l -9.664805517181598 -20.195726372709654" fill="#fff116" stroke="none" /><path d="M 109.06512990194946 118.94263497670748 l 5.837913118694516 12.198993111988472 a34.52392925623939,34.52392925623939 0 0,0 -0.5367834544601837,0.2512417604728957 l -5.627640950362826 -12.297411104031902" fill="#ff740a" stroke="none" /><path d="M 108.73861861582097 119.09545874513695 l 3.7801077207593874 8.260217570686736 a30.084074454540023,30.084074454540023 0 0,0 -0.4714412233563113,0.21086966271700397 l -3.6377530945474494 -8.32389098431359" fill="#ff3104" stroke="none" /><path d="M 108.4095320186766 119.2426549942271 l 18.40710051711359 42.11904823101163 a66.96559118877302,66.96559118877302 0 0,0 -1.0573067242225316,0.45130136922648745 l -17.681358717720627 -42.428824249897524" fill="#36ff6f" stroke="none" /><path d="M 107.74402155503746 119.51999308798841 l 8.586199965836611 21.64283283485851 a44.28379356915368,44.28379356915368 0 0,0 -0.7090209390457207,0.2742645307274308 l -8.21340676429736 -21.78703725372398" fill="#fffd17" stroke="none" /><path d="M 107.407793817531 119.65005319985036 l 6.261022641162316 16.60810640992066 a38.74907330077812,38.74907330077812 0 0,0 -0.6244336556348924,0.2293006876565 l -5.974999833873296 -16.713137946585878" fill="#ffb110" stroke="none" /><path d="M 107.06938296918513 119.77432235084164 l 7.282994132332775 20.371830791993023 a42.63454398292667,42.63454398292667 0 0,0 -0.6912769589371037,0.24046201028862885 l -6.932211401350649 -20.49385123485024" fill="#ffe715" stroke="none" /><path d="M 106.38641147887787 120.00534299687104 l 2.724140984683383 8.533332834983646 a29.95760645357016,29.95760645357016 0 0,0 -0.491246780906303,0.1521895084577408 l -2.5772535709054556 -8.578838931248033" fill="#ff2f04" stroke="none" /><path d="M 106.0420521117495 120.11202640906438 l 2.6999773027325387 8.987346320769793 a30.384150005446696,30.384150005446696 0 0,0 -0.5008175860324153,0.1457807003003299 l -2.545299704318517 -9.032370715372641" fill="#ff3605" stroke="none" /><path d="M 105.69591212413111 120.21278271476187 l 10.633659180386687 37.73510507042392 a60.20475560745858,60.20475560745858 0 0,0 -0.9971587501169191,0.27178005151236984 l -9.984319029335072 -37.91208561608043" fill="#43ff2d" stroke="none" /><path d="M 105.3480935250658 120.30758222061773 l 4.251975186996096 16.14544235347627 a37.69594566894178,37.69594566894178 0 0,0 -0.6271792325519651,0.15942650834939628 l -3.974190661218733 -16.216054093660937" fill="#ffa20f" stroke="none" /><path d="M 104.9986988182912 120.39639698878246 l 3.913523262154345 15.96851040267754 a37.44107626659046,37.44107626659046 0 0,0 -0.6255652281580724,0.1476316905194993 l -3.6388258802563933 -16.033338236843264" fill="#ff9e0e" stroke="none" /><path d="M 104.64783097203109 120.47920084513623 l 5.401264674386853 23.798968755563433 a45.40419172828848,45.40419172828848 0 0,0 -0.7615744176063693,0.16598159969513213 l -4.991927840161348 -23.888181813392286" fill="#f3ff19" stroke="none" /><path d="M 103.94208987418118 120.62667999033965 l 1.6766911383390346 8.773156538025722 a29.931940932075634,29.931940932075634 0 0,0 -0.5055152288575535,0.0921217142961243 l -1.525841175930424 -8.800646426253211" fill="#ff2f04" stroke="none" /><path d="M 103.58742460773223 120.69131181640829 l 6.4081724017451185 36.96063550771827 a58.512041408924844,58.512041408924844 0 0,0 -0.9911452129259417,0.16309256761197072 l -5.7727496857661045 -37.065194073825914" fill="#55ff2b" stroke="none" /><path d="M 103.2317021107853 120.74984581791261 l 2.575085853380832 16.53389842065488 a37.73322635168771,37.73322635168771 0 0,0 -0.6408806916223578,0.09418739172979984 l -2.2908800561507885 -16.575666885683564" fill="#ffa30f" stroke="none" /><path d="M 102.875027216393 120.80226474461374 l 2.4808941421871746 17.950514156831765 a39.12114218914901,39.12114218914901 0 0,0 -0.6660321888373921,0.08623120127395735 l -2.172384131459007 -17.99045695430612" fill="#ffb610" stroke="none" /><path d="M 102.15924093988457 120.88869738790638 l 2.4670233630008243 23.866213133849854 a44.99338103777663,44.99338103777663 0 0,0 -0.768959242821067,0.07282123977906589 l -2.056964556794742 -23.905046129134103" fill="#f8ff18" stroke="none" /><path d="M 101.44090949804482 120.95050786540614 l 0.6679996273589947 9.712567976033775 a30.73551232299711,30.73551232299711 0 0,0 -0.5266832237872727,0.03168395487322389 l -0.5011720514392569 -9.72260390873169" fill="#ff3b05" stroke="none" /><path d="M 101.08105385017728 120.97215588758144 l 1.9269263903104552 37.381857189499264 a58.431487978035186,58.431487978035186 0 0,0 -1.0021674637833617,0.043037382956054394 l -1.284933165926264 -37.40942714088115" fill="#56ff2b" stroke="none" /><path d="M 100.72087961077811 120.9876233191556 l 0.5403935988037807 15.73297000803595 a36.74224794987637,36.74224794987637 0 0,0 -0.630543665345093,0.016240568126927542 l -0.27023661938794385 -15.739928293512923" fill="#ff940d" stroke="none" /><line stroke="#e1ed5e" stroke-width="0.3" x1="101.45913802915013" x2="101.54496967792366" y1="184.9874750549273" y2="189.98673829345242" /><path d="M 101.47630435890484 185.9873277026323 a86.0,86.0 0 0,1 -42.54439059252881,-10.42667462771756" fill="none" id="id67" stroke="none" /><text fill="#e1ed5e" style="font-size:6.75px; font-family:Arial;" text-anchor="middle"><textPath startOffset="22.145653131862474" xlink:href="#id67">July</textPath></text><path d="M 100.36049292484886 120.99690560180557 l 0.33531189049532273 19.530236591592352 a40.53311484089213,40.53311484089213 0 0,0 -0.6958048153441726,0.005972647494213309 l -2.3921166567276213e-15 -19.533114840892132" fill="#ffca12" stroke="none" /><path d="M 99.63950707515114 120.99690560180557 l -0.38626317642158553 22.49789356109601 a43.501209165906275,43.501209165906275 0 0,0 -0.7465360288198257,-0.019228119956792827 l 0.7724125193121553 -22.48794772378917" fill="#fff216" stroke="none" /><path d="M 99.27912038922189 120.98762331915562 l -0.5175190933623789 15.06700374038435 a36.075888953051845,36.075888953051845 0 0,0 -0.6187431363959073,-0.026571492564701697 l 0.7760879903591249 -15.055899679393821" fill="#ff8b0c" stroke="none" /><path d="M 98.55909050195518 120.95050786540614 l -2.5681522446639096 37.340370005471385 a58.428580498026896,58.428580498026896 0 0,0 -1.0000496867743736,-0.07741017051258899 l 3.208770926213519 -37.29078206796374" fill="#56ff2b" stroke="none" /><path d="M 98.19965949673042 120.92268563240118 l -0.7680122022937783 8.92546595561132 a29.958447704130936,29.958447704130936 0 0,0 -0.5120047600628467,-0.04848738310729382 l 0.9211165257416402 -8.910966816998844" fill="#ff2f04" stroke="none" /><path d="M 97.84075906011543 120.88869738790638 l -1.4874431446002823 14.38966312436266 a35.46633650725231,35.46633650725231 0 0,0 -0.6050626224901622,-0.06779852888988093 l 1.7342416686912439 -14.362008834965808" fill="#ff820c" stroke="none" /><path d="M 97.12497278360702 120.80226474461374 l -2.2347305300250317 16.169396885492826 a37.32309456513718,37.32309456513718 0 0,0 -0.6339148005911759,-0.09316364563184791 l 2.511970436223893 -16.128652166562095" fill="#ff9d0e" stroke="none" /><path d="M 96.76829788921471 120.74984581791261 l -2.670654982285397 17.147520784889533 a38.35424637092099,38.35424637092099 0 0,0 -0.6496889660753329,-0.10690607213204739 l 2.9646214514137936 -17.099148714261815" fill="#ffab0f" stroke="none" /><path d="M 96.41257539226777 120.69131181640829 l -2.187421826939883 12.616467813059321 a33.804689544340185,33.804689544340185 0 0,0 -0.5709213916412954,-0.10404089594923652 l 2.403677952132236 -12.577058743178718" fill="#ff6a09" stroke="none" /><path d="M 96.05791012581884 120.62667999033965 l -3.6520335785552 19.10898288550057 a40.45483426239474,40.45483426239474 0 0,0 -0.6809964804294834,-0.13621836850466074 l 3.979526544515642 -19.043475120333046" fill="#ffc912" stroke="none" /><path d="M 95.70440661134978 120.55596938700252 l -4.3921581875457605 21.018066906568414 a42.47207931322469,42.47207931322469 0 0,0 -0.7123934561166968,-0.15526283804310984 l 4.752314060281593 -20.939572610391586" fill="#ffe415" stroke="none" /><path d="M 95.00130118170881 120.39639698878247 l -3.8239818487920565 15.603150880077218 a37.06490443688806,37.06490443688806 0 0,0 -0.6166800674931363,-0.15675766164811164 l 4.091267209510572 -15.535207986593843" fill="#ff990e" stroke="none" /><path d="M 94.6519064749342 120.30758222061772 l -4.049388492922789 15.376187678438356 a36.900462090429166,36.900462090429166 0 0,0 -0.6111746204359745,-0.16657836057263894 l 4.312744514293459 -15.304408823721573" fill="#ff970d" stroke="none" /><path d="M 94.30408787586889 120.21278271476187 l -4.6769128987033515 16.59671394803665 a38.24309798542629,38.24309798542629 0 0,0 -0.6303554982459264,-0.1834872986399261 l 4.961128409330885 -16.51398295509421" fill="#ffaa0f" stroke="none" /><path d="M 93.95794788825049 120.11202640906438 l -4.549648700618108 15.14430083131173 a36.812942514545014,36.812942514545014 0 0,0 -0.603661027925793,-0.1870157295394924 l 4.808950361415534 -15.063968513965587" fill="#ff960d" stroke="none" /><path d="M 93.61358852112213 120.00534299687104 l -5.31680879811034 16.65482783355948 a38.48289867159251,38.48289867159251 0 0,0 -0.6275960849726804,-0.20630329877272635 l 5.601927620730764 -16.561103613384734" fill="#ffad10" stroke="none" /><path d="M 93.27111125876986 119.89276391827306 l -6.738523407028388 19.921247095737687 a42.03006855805531,42.03006855805531 0 0,0 -0.6814759878366594,-0.2370527237745559 l 7.079505166910069 -19.802635939394538" fill="#ffde14" stroke="none" /><path d="M 92.59220618246901 119.65005319985036 l -6.071637028842482 16.10573857287802 a38.212193096404135,38.212193096404135 0 0,0 -0.6118094871411611,-0.23666105279091026 l 6.347218778477171 -15.999137631949072" fill="#ffa90f" stroke="none" /><path d="M 92.25597844496254 119.51999308798841 l -5.571984828836645 14.045041658557397 a36.10993746259059,36.10993746259059 0 0,0 -0.5742263105868713,-0.2335328415021263 l 5.812265600613957 -13.947321560475979" fill="#ff8b0c" stroke="none" /><path d="M 91.92203290615298 119.3841803445677 l -7.233731351613353 17.358321896437545 a39.80527075922219,39.80527075922219 0 0,0 -0.6284776955762924,-0.2682597566476765 l 7.530644122360076 -17.231587490130465" fill="#ffc011" stroke="none" /><path d="M 91.59046798132341 119.24265499422711 l -5.144555683164851 11.771750186559181 a33.846811107506014,33.846811107506014 0 0,0 -0.5304062805503451,-0.23724398279464495 l 5.345875366570831 -11.681702452854681" fill="#ff6a09" stroke="none" /><path d="M 91.26138138417905 119.09545874513695 l -7.2700360115270986 15.886340717792475 a38.470811229324525,38.470811229324525 0 0,0 -0.5981501929949467,-0.27996449269544177 l 7.541674918393535 -15.759199993526506" fill="#ffad10" stroke="none" /><path d="M 90.93487009805054 118.94263497670748 l -9.563895795817816 19.984863865710786 a43.155425667864165,43.155425667864165 0 0,0 -0.6654972519652582,-0.32552805442878513 l 9.905553297045143 -19.81774206118478" fill="#ffee16" stroke="none" /><path d="M 90.28995756902619 118.62028667847754 l -7.933041053100403 15.212652229990988 a38.15686242355595,38.15686242355595 0 0,0 -0.578187637031856,-0.30785235017129564 l 8.19301750591882 -15.07422941209712" fill="#ffa90f" stroke="none" /><path d="M 89.97174638481275 118.45085714620012 l -7.60620663906006 13.994563510962381 a36.92803149477176,36.92803149477176 0 0,0 -0.5543703118419658,-0.3074998669658863 l 7.845321139058129 -13.861930728563346" fill="#ff970d" stroke="none" /><line stroke="#e1ed5e" stroke-width="0.3" x1="58.13341422392154" x2="55.67067388415222" y1="173.97424548756322" y2="178.32567169271397" /><path d="M 57.64086615596768 174.84453072859336 a86.0,86.0 0 0,1 -31.369924170532247,-30.572349798747897" fill="none" id="id68" stroke="none" /><text fill="#e1ed5e" style="font-size:6.75px; font-family:Arial;" text-anchor="middle"><textPath startOffset="22.145653131862474" xlink:href="#id68">August</textPath></text><path d="M 89.65649057296885 118.27599006163327 l -8.534126761626117 15.078984263560987 a38.326485102415404,38.326485102415404 0 0,0 -0.5698008252100129,-0.32897465981947427 l 8.79172005469653 -14.93026270646534" fill="#ffab0f" stroke="none" /><path d="M 89.34428304082925 118.09573695890944 l -6.369398524436142 10.816631178014324 a33.55263906930654,33.55263906930654 0 0,0 -0.4938105555892448,-0.2965190503016588 l 6.554141836582814 -10.705698127176747" fill="#ff6609" stroke="none" /><path d="M 89.03521579738668 117.91015095944536 l -9.638315141116353 15.743463435510114 a39.459516778743605,39.459516778743605 0 0,0 -0.5746731281697145,-0.3586385346186894 l 9.90715239807578 -15.575689104049877" fill="#ffbb11" stroke="none" /><path d="M 88.72937992617639 117.7192867562869 l -8.47221106138908 13.319722985357409 a36.78586015000076,36.78586015000076 0 0,0 -0.5299167250075973,-0.3434856188776877 l 8.699613418653689 -13.172323524775827" fill="#ff950d" stroke="none" /><path d="M 88.1277618465304 117.32195027204791 l -8.173301484926666 11.92509112858218 a35.45720082133792,35.45720082133792 0 0,0 -0.4991106007630993,-0.34841796221531984 l 8.376807176863531 -11.78302835056173" fill="#ff820c" stroke="none" /><path d="M 87.54013794807813 116.9041958592261 l -8.422315011566 11.426487865622207 a35.19507009835674,35.19507009835674 0 0,0 -0.48325682228272504,-0.3626449287330292 l 8.617224822759493 -11.280223909625162" fill="#ff7e0b" stroke="none" /><path d="M 86.96720088162412 116.46651593811092 l -4.682873564931559 5.916657771881102 a28.54560428426351,28.54560428426351 0 0,0 -0.38162649583573893,-0.3074112911230629 l 4.7837508311225605 -5.835398186964628" fill="#ff1a02" stroke="none" /><path d="M 86.68645165197938 116.24036423190432 l -11.102326827879095 13.543033516921605 a38.51215057705666,38.51215057705666 0 0,0 -0.5076738917310075,-0.4235196165296511 l 11.333175053771994 -13.350451716480084" fill="#ffae10" stroke="none" /><path d="M 86.40962598614128 116.0094264158162 l -9.770744245652049 11.509912153191173 a36.09786477910438,36.09786477910438 0 0,0 -0.4689637261183379,-0.40507969717576126 l 9.96688745153325 -11.340488323550689" fill="#ff8b0c" stroke="none" /><path d="M 86.13680546590413 115.77377054828092 l -11.388026909932076 12.957484152236384 a38.25061020534619,38.25061020534619 0 0,0 -0.48948936702492396,-0.43770441033490504 l 11.608781303780372 -12.760084212018096" fill="#ffaa0f" stroke="none" /><path d="M 85.60350026404147 115.28858382429668 l -9.81537446404096 10.423587539513825 a35.31756798703101,35.31756798703101 0 0,0 -0.4378159371117398,-0.4194177639558772 l 9.992862887018015 -10.253557645252366" fill="#ff800b" stroke="none" /><path d="M 85.34317274990678 115.03919595460226 l -11.978858180947094 12.291363773459778 a38.1630611118985,38.1630611118985 0 0,0 -0.46524057129619206,-0.4612641800507201 l 12.18809067237325 -12.0839195831804" fill="#ffa90f" stroke="none" /><path d="M 85.08716467003676 114.78537596483092 l -12.345112935114832 12.239599783364605 a38.384177180346455,38.384177180346455 0 0,0 -0.45990312407338446,-0.47190112055318273 l 12.553402860339027 -12.025875970743684" fill="#ffac0f" stroke="none" /><path d="M 84.83555147118756 114.52719865689866 l -17.054517283060044 16.337841768382926 a44.617401072237215,44.617401072237215 0 0,0 -0.5250919232787276,-0.5576294260233581 l 17.332465040075025 -16.042670882415077" fill="#fdff18" stroke="none" /><path d="M 84.58840730492382 114.26474011684316 l -12.161635228012875 11.256628004377102 a37.57157341498298,37.57157341498298 0 0,0 -0.4340452425458559,-0.47709175509296187 l 12.353078171400611 -11.046198673726467" fill="#ffa00e" stroke="none" /><path d="M 84.3458050057657 113.99807769240083 l -12.60352211427856 11.270147191761916 a37.907542323149386,37.907542323149386 0 0,0 -0.42959884121099745,-0.4888046209265408 l 12.79513201944815 -11.052130293024076" fill="#ffa50f" stroke="none" /><path d="M 83.8745106332314 113.45245675266167 l -12.067844344360779 10.067424959822977 a36.715785454166365,36.715785454166365 0 0,0 -0.39959569284294133,-0.48744177191757915 l 12.23888685644235 -9.858780906206903" fill="#ff940d" stroke="none" /><path d="M 83.64595745247003 113.17365903436017 l -16.628961962268292 13.395114654349099 a42.353020220702355,42.353020220702355 0 0,0 -0.4512282089089454,-0.5701121014938481 l 16.8564566018188 -13.10768260894057" fill="#ffe315" stroke="none" /><path d="M 83.4222238831116 112.89097897827486 l -24.586315677521743 19.118467779841822 a52.144866813707864,52.144866813707864 0 0,0 -0.5434190949192192,-0.7113530392365466 l 24.910886749795257 -18.693593827364406" fill="#9eff22" stroke="none" /><path d="M 83.20337586046588 112.60449989151573 l -7.361759273998613 5.524401403498581 a30.204048591531972,30.204048591531972 0 0,0 -0.3076469044819305,-0.4173821112285124 l 7.455508198064374 -5.3972129830011895" fill="#ff3304" stroke="none" /><path d="M 82.98947788004972 112.3143062007846 l -12.25080616200817 8.868638906062479 a36.12398782283371,36.12398782283371 0 0,0 -0.3593216970036915,-0.5054309659246242 l 12.401242957541822 -8.65703071342835" fill="#ff8c0c" stroke="none" /><path d="M 82.78059297857968 112.02048342749411 l -13.977282531139732 9.757228737201292 a38.04605349004193,38.04605349004193 0 0,0 -0.369246484521127,-0.538741655981206 l 14.142718752476183 -9.515852346150034" fill="#ffa70f" stroke="none" /><path d="M 82.37810715431573 111.42229804090323 l -11.987017003349692 7.769839598540479 a35.28492156176023,35.28492156176023 0 0,0 -0.3250956225985132,-0.5111043156725305 l 12.118630317574096 -7.562921608189276" fill="#ff7f0b" stroke="none" /><path d="M 82.18462484594161 111.11811171558189 l -16.48277109447026 10.286468223428793 a40.42918349968198,40.42918349968198 0 0,0 -0.36238416693100506,-0.5919273024543665 l 16.65692322585667 -10.00200380484987" fill="#ffc812" stroke="none" /><line stroke="#e1ed5e" stroke-width="0.3" x1="26.387840678322732" x2="22.057713659400548" y1="142.50000000000003" y2="145.00000000000006" /><path d="M 25.521815274538298 143.00000000000003 a86.0,86.0 0 0,1 -11.493303480769221,-40.785679425670985" fill="none" id="id69" stroke="none" /><text fill="#e1ed5e" style="font-size:6.75px; font-family:Arial;" text-anchor="middle"><textPath startOffset="21.40746469413373" xlink:href="#id69">September</textPath></text><path d="M 81.81346652052679 110.50000000000001 l -26.969740688085672 15.570987046240685 a52.14197409248134,52.14197409248134 0 0,0 -0.4408892800354468,-0.7790091126277628 l 27.233063333142496 -15.1057211635138" fill="#9eff22" stroke="none" /><path d="M 81.4637452351635 109.86951160357371 l -10.441794827172409 5.559667609036723 a32.829665385620025,32.829665385620025 0 0,0 -0.2605923960969176,-0.4997202799112143 l 10.535695292244275 -5.379601086021006" fill="#ff5b08" stroke="none" /><path d="M 81.29705330413844 109.54985784667822 l -14.911825845110423 7.614084527479158 a37.74326232328995,37.74326232328995 0 0,0 -0.2896886808066691,-0.5795714163674225 l 15.040334439128829 -7.356981254947983" fill="#ffa30f" stroke="none" /><path d="M 81.1358732173502 109.22738970284198 l -8.544953661150823 4.179765028757368 a30.512448095355786,30.512448095355786 0 0,0 -0.22611284828852085,-0.4724888881903386 l 8.615445767399256 -4.032463638501925" fill="#ff3805" stroke="none" /><path d="M 80.9802524753101 108.90220220490708 l -16.053146431910797 7.5136831010159515 a38.72452944669796,38.72452944669796 0 0,0 -0.27663242896107304,-0.604491781484729 l 16.179763325726924 -7.237002337316534" fill="#ffb110" stroke="none" /><path d="M 80.68587082218212 108.24405325689762 l -17.148911702835864 7.319850668617433 a39.64578736343735,39.64578736343735 0 0,0 -0.2618021943005118,-0.6282299605788384 l 17.272039741672863 -7.024388198597314" fill="#ffbe11" stroke="none" /><path d="M 80.41425534168474 107.57618678355246 l -15.54582249168721 6.013458102088028 a37.66836150581742,37.66836150581742 0 0,0 -0.22810760831073454,-0.6050825318583838 l 15.646760783812379 -5.745707290035499" fill="#ffa20e" stroke="none" /><path d="M 80.28708602549918 107.23885506374661 l -14.710880593631082 5.402039120909551 a36.671376279826504,36.671376279826504 0 0,0 -0.2119253328368723,-0.5927928737334737 l 14.801446096511897 -5.1487112907951555" fill="#ff930d" stroke="none" /><path d="M 80.16572619554312 106.89939002012753 l -24.313363754378305 8.45745001286582 a46.742340953628144,46.742340953628144 0 0,0 -0.2571153242847155,-0.7601157698486586 l 24.454964500235388 -8.038832568542999" fill="#e1ff1b" stroke="none" /><path d="M 79.94057633289273 106.21446072829308 l -15.732971238251745 4.874114706485961 a37.47068238281703,37.47068238281703 0 0,0 -0.18507605089147358,-0.6160579806943938 l 15.814323609146848 -4.603319122200844" fill="#ff9f0e" stroke="none" /><path d="M 79.73907114497094 105.5222062557868 l -35.1618718644891 9.58352453456543 a57.444494447301196,57.444494447301196 0 0,0 -0.25114327905316086,-0.95363193717988 l 35.321204624347 -8.978512093012748" fill="#61ff29" stroke="none" /><path d="M 79.64726062577567 105.17358676015961 l -18.138573867006045 4.610754546651581 a39.7154192958187,39.7154192958187 0 0,0 -0.16228944596270123,-0.6621963209370479 l 18.21505083948504 -4.298702401106434" fill="#ffbf11" stroke="none" /><path d="M 79.56144815229197 104.8234425847677 l -15.205478754258973 3.5884515836330118 a36.623174098572264,36.623174098572264 0 0,0 -0.1391491194451747,-0.6131166950110266 l 15.264838735261813 -3.326900554682959" fill="#ff930d" stroke="none" /><path d="M 79.48165901384964 104.47187691870673 l -20.431535754075806 4.4529581223966765 a41.91115705335065,41.91115705335065 0 0,0 -0.14717260300540772,-0.7042741824629016 l 20.50496606790558 -4.101567488648366" fill="#ffdd14" stroke="none" /><path d="M 79.34024301695615 103.76489593502545 l -14.523434382474603 2.646653545540958 a35.7626190512446,35.7626190512446 0 0,0 -0.10487844862983793,-0.6049110213337536 l 14.566727648596675 -2.3969494912866116" fill="#ff860c" stroke="none" /><path d="M 79.2786578344484 103.40968896794605 l -13.085661957086536 2.1532406953602123 a34.26163618665876,34.26163618665876 0 0,0 -0.09051354535892218,-0.5811618912406162 l 13.120696994583726 -1.9282906221881462" fill="#ff700a" stroke="none" /><path d="M 79.17382384314188 102.69636545807758 l -16.639493400479022 2.1543155549554376 a37.778373465115976,37.778373465115976 0 0,0 -0.07774773741265151,-0.6438627970816323 l 16.674023224151334 -1.868359080950406" fill="#ffa30f" stroke="none" /><path d="M 79.13060592940153 102.33845913500099 l -13.832484188423 1.5499587051137993 a34.91905136173189,34.91905136173189 0 0,0 -0.06163646146615342,-0.5962768525946238 l 13.85705304237082 -1.312277330236244" fill="#ff7a0b" stroke="none" /><path d="M 79.0935383218832 101.97986365728391 l -25.752144037385424 2.4387548147436053 a46.86736259398474,46.86736259398474 0 0,0 -0.068976209118642,-0.8016081051796435 l 25.790213869201807 -1.9963256621882997" fill="#e0ff1b" stroke="none" /><path d="M 79.03789590574601 101.26102812881392 l -32.377402708281615 1.9477441467467385 a53.435935525207654,53.435935525207654 0 0,0 -0.04722314424994841,-0.9161163826846264 l 32.406067441988135 -1.3916559706853813" fill="#8fff24" stroke="none" /><path d="M 79.01933749520258 100.90099992219065 l -17.112753049185553 0.7348952475765897 a38.12852556256142,38.12852556256142 0 0,0 -0.02246916372311308,-0.6541651857903665 l 17.12284689990551 -0.4410237972221034" fill="#ffa80f" stroke="none" /><line stroke="#e1ed5e" stroke-width="0.3" x1="15.003131293944662" x2="10.003315487706104" y1="100.72959589197737" y2="100.7725132973878" /><path d="M 14.003168132696942 100.73817937305945 a86.0,86.0 0 0,1 10.791469493833604,-42.45332614584628" fill="none" id="id70" stroke="none" /><text fill="#e1ed5e" style="font-size:6.75px; font-family:Arial;" text-anchor="middle"><textPath startOffset="22.145653131862435" xlink:href="#id70">October</textPath></text><path d="M 79.00077361379809 100.18025310272382 l -28.07982070231603 0.24103148908603764 a49.080855165983586,49.080855165983586 0 0,0 0.0,-0.8425691836197 l 28.07982070231603 0.2410314890860273" fill="#c4ff1e" stroke="none" /><path d="M 79.00077361379809 99.81974689727619 l -14.850978840929244 -0.12747779205438506 a35.85152595261494,35.85152595261494 0 0,0 0.010565220030950364,-0.6153710998493149 l 14.846602189299627 0.38239580787275235" fill="#ff880c" stroke="none" /><path d="M 79.00696218219943 99.45929381324524 l -17.55808661810072 -0.4522340284612367 a38.563909624716985,38.563909624716985 0 0,0 0.022725735820525887,-0.6616350024619168 l 17.547736195283345 0.7535752954872921" fill="#ffae10" stroke="none" /><path d="M 79.03789590574601 98.7389718711861 l -47.10165483498187 -2.8335185911454994 a68.18680658616493,68.18680658616493 0 0,0 0.08031769027360297,-1.167801589268162 l 47.04607318354321 3.641663604567986" fill="#38ff7e" stroke="none" /><path d="M 79.13060592940154 97.66154086499901 l -16.963314975033743 -1.9007748250416379 a38.06947567670771,38.06947567670771 0 0,0 0.07834682456836232,-0.6488240981382445 l 16.928186064205715 2.1916926001033183" fill="#ffa70f" stroke="none" /><path d="M 79.17382384314186 97.30363454192245 l -28.73090641778096 -3.7197910485671435 a49.9707063951207,49.9707063951207 0 0,0 0.11744420820042609,-0.8497677857713946 l 28.66281769302533 4.212447142538605" fill="#b9ff1f" stroke="none" /><path d="M 79.2786578344484 96.59031103205396 l -24.769087423832488 -4.0757439098484385 a46.1021787944418,46.1021787944418 0 0,0 0.13520052833625443,-0.7798007193012494 l 24.695472078004002 4.50033766207028" fill="#eaff1a" stroke="none" /><path d="M 79.34024301695615 96.23510406497455 l -16.028164751372064 -2.920865543959955 a37.29213064098795,37.29213064098795 0 0,0 0.12017603567494058,-0.6288118002103033 l 15.975662423414965 3.195579909203573" fill="#ff9c0e" stroke="none" /><path d="M 79.407916724674 95.88100663000787 l -34.316630112390314 -6.86428711575664 a55.996421815353585,55.996421815353585 0 0,0 0.19663353953850185,-0.9409626688343384 l 34.193738862027445 7.452366235876387" fill="#71ff27" stroke="none" /><path d="M 79.56144815229197 95.17655741523228 l -16.485788316162044 -3.8906011541399486 a37.9386538351163,37.9386538351163 0 0,0 0.15502903458253614,-0.6325713648845176 l 16.41657175506321 4.173028343632584" fill="#ffa60f" stroke="none" /><line stroke="#e1ed5e" stroke-width="0.3" x1="26.387840678322718" x2="22.05771365940052" y1="57.49999999999999" y2="54.99999999999999" /><path d="M 25.521815274538284 56.99999999999999 a86.0,86.0 0 0,1 29.574782752854787,-30.34633250058573" fill="none" id="id71" stroke="none" /><text fill="#e1ed5e" style="font-size:6.75px; font-family:Arial;" text-anchor="middle"><textPath startOffset="21.40746469413373" xlink:href="#id71">November</textPath></text><line stroke="#e1ed5e" stroke-width="0.3" x1="56.869717070023135" x2="54.33264160355391" y1="26.7553504044142" y2="22.446841604673864" /><path d="M 56.362301976729285 25.89364864446614 a86.0,86.0 0 0,1 42.16139366436587,-11.88097634709845" fill="none" id="id72" stroke="none" /><text fill="#e1ed5e" style="font-size:6.75px; font-family:Arial;" text-anchor="middle"><textPath startOffset="22.145653131862474" xlink:href="#id72">December</textPath></text></svg>