<?xml version="1.0" encoding="utf-8" ?>
<svg baseProfile="full" height="200mm" version="1.1" viewBox="0,0,200,200" width="200mm" xmlns="http://www.w3.org/2000/svg" xmlns:ev="http://www.w3.org/2001/xml-events" xmlns:xlink="http://www.w3.org/1999/xlink"><defs /><rect fill="#1a1a1a" height="200" width="200" x="0" y="0" /><text alignment-baseline="middle" fill="#e1ed5e" style="dominant-baseline: central; font-size:9.0px; font-family:Arial;" text-anchor="middle" x="100.0" y="100.0">2019</text><line stroke="#e1ed5e" stroke-width="0.3" x1="100.0" x2="100.0" y1="15.0" y2="10.0" /><path d="M 100.0 14.0 a86.0,86.0 0 0,1 42.46469731375804,11.215312516191453" fill="none" id="id49" stroke="none" /><text fill="#e1ed5e" style="font-size:6.75px; font-family:Arial;" text-anchor="middle"><textPath startOffset="22.20632615414155" xlink:href="#id49">January</textPath></text><path d="M 100.0 79.0 l 0.0 -45.89167461815106 a66.89167461815106,66.89167461815106 0 0,0 1.1514302190624413,0.009910723414964106 l -0.7899497397899129 45.884875271344654" fill="#33ff57" stroke="none" /><path d="M 106.74666289553966 80.11325718540242 l 9.942670007845889 -29.307425670721656 a51.948051414100256,51.948051414100256 0 0,0 0.8443240381656535,0.2945680781789219 l -10.445676050074816 29.131936739370527" fill="#cbff1d" stroke="none" /><line stroke="#e1ed5e" stroke-width="0.3" x1="143.23703022742887" x2="145.7803849466894" y1="26.81831364943548" y2="22.513508569990506" /><path d="M 143.74570117128098 25.957352633546492 a86.0,86.0 0 0,1 28.547481713284135,27.462654790039103" fill="none" id="id50" stroke="none" /><text fill="#e1ed5e" style="font-size:6.75px; font-family:Arial;" text-anchor="middle"><textPath startOffset="19.985693538727396" xlink:href="#id50">February</textPath></text><line stroke="#e1ed5e" stroke-width="0.3" x1="172.23445277983987" x2="176.4835382374775" y1="55.19839476539836" y2="52.563006222186495" /><path d="M 173.08426987136738 54.67131705675599 a86.0,86.0 0 0,1 12.851231095245387,41.99856678651699" fill="none" id="id51" stroke="none" /><text fill="#e1ed5e" style="font-size:6.75px; font-family:Arial;" text-anchor="middle"><textPath startOffset="22.20632615414155" xlink:href="#id51">March</textPath></text><path d="M 120.98425023603335 99.18683210126433 l 19.633846183275086 -0.7608379267960492 a40.64858239923066,40.64858239923066 0 0,0 0.021075913576557703,0.6994069659855615 l -19.64403379130729 0.42276081338548854" fill="#ff8a0c" stroke="none" /><line stroke="#e1ed5e" stroke-width="0.3" x1="184.98032266829074" x2="189.97916517819016" y1="98.17113171792111" y2="98.06355123074" /><path d="M 185.9800911702706 98.14961562048488 a86.0,86.0 0 0,1 -9.607161424134198,41.387399972396054" fill="none" id="id52" stroke="none" /><text fill="#e1ed5e" style="font-size:6.75px; font-family:Arial;" text-anchor="middle"><textPath startOffset="21.466115282336823" xlink:href="#id52">April</textPath></text><path d="M 120.99824983174949 100.27111621757518 l 18.817000517337334 0.2429532959769417 a39.81856888218388,39.81856888218388 0 0,0 -0.014747920606587571,0.6852779197468608 l -18.810030534045737 -0.5668210315139174" fill="#ff7c0b" stroke="none" /><path d="M 120.9764740272857 100.99374915477107 l 23.752450652776908 1.1252595516879988 a44.7790899967023,44.7790899967023 0 0,0 -0.04310232441757557,0.7696209569795892 l -23.729561977471803 -1.5339522250030113" fill="#ffca12" stroke="none" /><path d="M 120.92983693683757 101.71520430193887 l 23.045180357240163 1.888557116186874 a44.122434683199515,44.122434683199515 0 0,0 -0.06854820213227418,0.7564236985000896 l -23.00925755883081 -2.2849622032355343" fill="#ffc011" stroke="none" /><path d="M 120.5718875245553 104.21870165774334 l 28.927269122898334 5.932149787280975 a50.52926175858999,50.52926175858999 0 0,0 -0.18206405540514042,0.8505426546078383 l -28.820871028768753 -6.429206261304983" fill="#dfff1b" stroke="none" /><path d="M 120.32669344350535 105.2749913415812 l 16.864814326961902 4.376597197146356 a38.423448720301295,38.423448720301295 0 0,0 -0.17164655419212108,0.63876068223436 l -16.786979696428006 -4.6662488125562644" fill="#ff6509" stroke="none" /><path d="M 120.13307415673323 105.97154293290107 l 26.92128394203336 7.984950614951571 a49.08050863874796,49.08050863874796 0 0,0 -0.24720970503623843,0.8078956195162342 l -26.779847464490988 -8.447173207019862" fill="#f4ff19" stroke="none" /><path d="M 119.9155931802556 106.66101706037122 l 13.517417877294431 4.521068003241346 a35.25344316154282,35.25344316154282 0 0,0 -0.19743467412471877,0.5738375801288177 l -13.437592372226481 -4.7530782864594645" fill="#ff3004" stroke="none" /><path d="M 118.64920377521936 109.65438752849418 l 15.639036040996205 8.096072965457683 a38.61039027828722,38.61039027828722 0 0,0 -0.31062517114164756,0.5875857616478517 l -15.497358361629663 -8.36407374219167" fill="#ff6909" stroke="none" /><line stroke="#e1ed5e" stroke-width="0.3" x1="174.80103733775053" x2="179.2010983576182" y1="140.37084112569926" y2="142.7455964860345" /><path d="M 175.68104954172406 140.8457921977663 a86.0,86.0 0 0,1 -30.038265399797805,32.042727171017184" fill="none" id="id53" stroke="none" /><text fill="#e1ed5e" style="font-size:6.75px; font-family:Arial;" text-anchor="middle"><textPath startOffset="22.206326154141568" xlink:href="#id53">May</textPath></text><path d="M 117.94076556474637 110.91462005526583 l 17.436209505464895 10.607663383669781 a41.409407742012334,41.409407742012334 0 0,0 -0.3757122107266937,0.6057677130636874 l -17.251032655070237 -10.906227428098742" fill="#ff960d" stroke="none" /><path d="M 116.71984013943494 112.70617746262583 l 18.637579009836347 14.163555655903185 a44.40866634743978,44.40866634743978 0 0,0 -0.46775686916624093,0.6046388076578701 l -18.391015323452038 -14.48227245767431" fill="#ffc512" stroke="none" /><path d="M 116.27256486870786 113.27417163493432 l 27.064267842989672 22.077388501460362 a55.92686182469732,55.92686182469732 0 0,0 -0.6149398147011284,0.7407346210234844 l -26.680232028395 -22.539984379597616" fill="#95ff23" stroke="none" /><path d="M 115.56566222782051 114.09645910891815 l 13.190538442683112 11.945517194222873 a38.795664793577544,38.795664793577544 0 0,0 -0.45253035454193935,0.4911323240247915 l -12.98296168014545 -12.170800773048999" fill="#ff6c09" stroke="none" /><path d="M 115.07121518719521 114.62390073753431 l 10.43750264849593 10.127717027691261 a35.54345604491405,35.54345604491405 0 0,0 -0.429837803834877,0.4354234259206927 l -10.261624219605517 -10.30588094759262" fill="#ff3505" stroke="none" /><path d="M 114.29624159901734 115.38237550388516 l 19.999610791064406 21.519048974441805 a50.37777902698713,50.37777902698713 0 0,0 -0.6402786628172208,0.5848793776229617 l -19.62623257878032 -21.86012111865135" fill="#e1ff1b" stroke="none" /><path d="M 113.48314897796784 116.09983520530334 l 10.996242441848619 13.130292595640224 a38.12664390612,38.12664390612 0 0,0 -0.5067754863113149,0.4170417241347609 l -10.768596826992614 -13.317629438632164" fill="#ff6108" stroke="none" /><path d="M 112.63410532772338 116.77436683061366 l 37.84423019900705 50.245979696507966 a83.9034516939836,83.9034516939836 0 0,0 -1.1611240045729336,0.8589717800285641 l -36.973721224015556 -50.8899614252763" fill="#4dd3ff" stroke="none" /><path d="M 112.04921762599082 117.19931262002967 l 10.001872254293955 14.27688776374448 a38.43178054043167,38.43178054043167 0 0,0 -0.5450781545548485,0.37490972499079844 l -9.754637215116224 -14.446938278100372" fill="#ff6609" stroke="none" /><path d="M 111.45004920935366 117.60387380957326 l 8.755955498181738 13.461840456223793 a37.058888665003025,37.058888665003025 0 0,0 -0.5377389415306265,0.3432104347222852 l -8.522934754604181 -13.610565319769888" fill="#ff4f07" stroke="none" /><line stroke="#e1ed5e" stroke-width="0.3" x1="143.8653032363475" x2="146.44561519142675" y1="172.8068346515853" y2="177.08958963109032" /><path d="M 144.38136562736335 173.6633856474863 a86.0,86.0 0 0,1 -40.68145358897372,12.25698825130547" fill="none" id="id54" stroke="none" /><text fill="#e1ed5e" style="font-size:6.75px; font-family:Arial;" text-anchor="middle"><textPath startOffset="21.466115282336833" xlink:href="#id54">June</textPath></text><path d="M 110.21172684928248 118.3499491758327 l 8.448452251543085 15.181435198803593 a38.37389766696224,38.37389766696224 0 0,0 -0.5799523685324142,0.3162362723657976 l -8.185877071142022 -15.32461212292916" fill="#ff6509" stroke="none" /><path d="M 109.57404056367764 118.69057910512821 l 8.000406209551697 15.61850758185484 a38.54834119232614,38.54834119232614 0 0,0 -0.5931783724577081,0.2974319501313092 l -7.730373929411228 -15.753907372895451" fill="#ff6709" stroke="none" /><path d="M 108.2653958097858 119.30500536409082 l 17.2463235622641 40.28123716545675 a64.81796143129071,64.81796143129071 0 0,0 -1.0294590511680117,0.4303139668798301 l -16.55039305159863 -40.572136175356555" fill="#30ff39" stroke="none" /><path d="M 105.88484417918355 120.15858648285463 l 17.654532537550654 60.47575944856389 a84.0,84.0 0 0,0 -1.391475327581577,0.39324482664592386 l -16.61092604186447 -60.77069306854833" fill="#4dd2ff" stroke="none" /><path d="M 105.18746579009965 120.34920634021253 l 7.420296420200987 29.10807493870904 a51.03898842506433,51.03898842506433 0 0,0 -0.8531937731737191,0.2096942713447305 l -6.918149362284057 -29.2314904683678" fill="#d8ff1c" stroke="none" /><path d="M 103.7750983002368 120.6578951692458 l 8.212285019564893 44.938835903557084 a66.68304496866864,66.68304496866864 0 0,0 -1.1309159548079466,0.1966242349051252 l -7.437520093284896 -45.073538716983215" fill="#33ff54" stroke="none" /><path d="M 101.26447882468166 120.96189622390904 l 3.771472745277388 62.52158498400229 a83.63523445777297,83.63523445777297 0 0,0 -1.4377770257281965,0.07431664935574259 l -2.6947076511357118 -62.57724144012023" fill="#4cd6ff" stroke="none" /><line stroke="#e1ed5e" stroke-width="0.3" x1="102.19456741930631" x2="102.32365962044197" y1="184.97166512339345" y2="189.96999836594603" /><path d="M 102.22038585953345 185.97133177190398 a86.0,86.0 0 0,1 -42.740103519485714,-10.115201625700543" fill="none" id="id55" stroke="none" /><text fill="#e1ed5e" style="font-size:6.75px; font-family:Arial;" text-anchor="middle"><textPath startOffset="22.20632615414155" xlink:href="#id55">July</textPath></text><path d="M 98.37488393609728 120.93702456842531 l -2.319059422228411 29.877376254734376 a50.967242924079486,50.967242924079486 0 0,0 -0.8741020070549728,-0.07542119919813198 l 2.833005747024926 -29.833030803257582" fill="#d9ff1c" stroke="none" /><path d="M 97.65516085044442 120.86867818915974 l -5.356972337643546 47.67616226626974 a68.97617743282557,68.97617743282557 0 0,0 -1.1787456449229865,-0.14272968194714178 l 6.176845405617922 -47.576887055597254" fill="#37ff74" stroke="none" /><path d="M 96.93821686468263 120.77559828337769 l -3.64754395343705 24.750253217955834 a46.01758603952804,46.01758603952804 0 0,0 -0.7826586369823234,-0.12223518290881283 l 4.07303845402789 -24.683799727699917" fill="#ffdd14" stroke="none" /><path d="M 95.86986931433489 120.58985236759428 l -12.198383098874286 60.8123389414571 a83.02371415642214,83.02371415642214 0 0,0 -1.398785665351812,-0.2931291363127571 l 13.243360225655485 -60.5933538244178" fill="#4cddff" stroke="none" /><path d="M 95.16358092515715 120.4354850818985 l -6.936538544827069 29.309190903278665 a51.118835276097656,51.118835276097656 0 0,0 -0.8545285338774752,-0.21002232305114682 l 7.440020363447755 -29.18544732191349" fill="#d7ff1c" stroke="none" /><path d="M 94.46302465271185 120.25689768951611 l -6.204473967742064 22.698926128210623 a44.53161160206312,44.53161160206312 0 0,0 -0.7376742719251772,-0.20847411767519652 l 6.594279407771856 -22.588763217196902" fill="#ffc612" stroke="none" /><path d="M 91.7346041902142 119.30500536409082 l -7.018293070965463 16.392219864575488 a38.831469645504406,38.831469645504406 0 0,0 -0.6122046082039009,-0.268372509201581 l 7.299418353827107 -16.268982802079453" fill="#ff6c0a" stroke="none" /><path d="M 90.42595943632237 118.69057910512821 l -8.584126471882255 16.758054637854023 a39.82869147154338,39.82869147154338 0 0,0 -0.607499629466701,-0.3178150939313394 l 8.871317003875452 -16.607810124977966" fill="#ff7c0b" stroke="none" /><line stroke="#e1ed5e" stroke-width="0.3" x1="58.666819895761336" x2="56.23545636021788" y1="174.27360380694188" y2="178.64263932499728" /><path d="M 58.180547188652646 175.14741091055294 a86.0,86.0 0 0,1 -31.652253787137756,-30.449443065178592" fill="none" id="id56" stroke="none" /><text fill="#e1ed5e" style="font-size:6.75px; font-family:Arial;" text-anchor="middle"><textPath startOffset="22.20632615414155" xlink:href="#id56">August</textPath></text><path d="M 89.7882731507175 118.34994917583269 l -7.474420494017903 13.431150108922838 a36.370841062538275,36.370841062538275 0 0,0 -0.5444389874343665,-0.3091466660499831 l 7.704508248373477 -13.300500277078221" fill="#ff4306" stroke="none" /><path d="M 87.95078237400918 117.19931262002967 l -10.148569403055 14.486286431801219 a38.687451922558324,38.687451922558324 0 0,0 -0.5421266598080455,-0.3867929774174767 l 10.396423390711933 -14.309449192539523" fill="#ff6a09" stroke="none" /><path d="M 87.36589467227662 116.77436683061367 l -10.77011264152194 14.299534123677702 a38.901731828660985,38.901731828660985 0 0,0 -0.5314185368330178,-0.407469073194645 l 11.014659906848445 -14.11202570865569" fill="#ff6d0a" stroke="none" /><path d="M 86.79598089348748 116.32954008644616 l -18.898437631420357 23.371883392782387 a51.056544682223574,51.056544682223574 0 0,0 -0.6786384168619723,-0.5584732156092004 l 19.29794617682702 -23.043115058316005" fill="#d8ff1c" stroke="none" /><path d="M 86.24171649860922 115.8653595955263 l -15.686462096173422 18.08883803798831 a44.94308156147112,44.94308156147112 0 0,0 -0.5801031400561754,-0.5118735736640209 l 15.995507589136185 -17.816141322552" fill="#ffcd13" stroke="none" /><path d="M 84.19399662182784 113.82643327865904 l -8.630375039551144 7.549492544013199 a32.466394856074785,32.466394856074785 0 0,0 -0.3643309111936553,-0.4237991589387805 l 8.759048460315578 -7.3998162859128875" fill="#ff0000" stroke="none" /><path d="M 83.28015986056508 112.70617746262583 l -49.53151164308088 37.641279562519415 a83.21122545612165,83.21122545612165 0 0,0 -0.8568328566372114,-1.147867633089793 l 50.172105766413175 -36.78309904992032" fill="#4cdbff" stroke="none" /><path d="M 82.85270091963577 112.12312394758628 l -19.646649513812466 13.890162298707343 a45.0609111590359,45.0609111590359 0 0,0 -0.4423245404176829,-0.6372014905947839 l 19.882834961392284 -13.549919545925546" fill="#ffcf13" stroke="none" /><line stroke="#e1ed5e" stroke-width="0.3" x1="26.63291911575756" x2="22.317208475507996" y1="142.92168965132927" y2="145.44649492493687" /><path d="M 25.769776987707644 143.4266507060508 a86.0,86.0 0 0,1 -11.730757126820373,-40.83630448921669" fill="none" id="id57" stroke="none" /><text fill="#e1ed5e" style="font-size:6.75px; font-family:Arial;" text-anchor="middle"><textPath startOffset="21.46611528233685" xlink:href="#id57">September</textPath></text><path d="M 81.18737489456691 109.33194174019688 l -16.995642584554105 8.430633446815653 a39.97175392989472,39.97175392989472 0 0,0 -0.30044815167769956,-0.6190121822590378 l 17.138243992846522 -8.13683230859133" fill="#ff7f0b" stroke="none" /><path d="M 80.73074385275274 108.34839909993369 l -27.234778859568927 11.799459282739313 a50.68097739116159,50.68097739116159 0 0,0 -0.3399221875123811,-0.8034756398883406 l 27.433852028273613 -11.328909117184814" fill="#ddff1b" stroke="none" /><path d="M 80.45479744820244 107.68017299344265 l -16.15998810833398 6.349972783094365 a38.36281572808785,38.36281572808785 0 0,0 -0.2362157868829457,-0.6166848809392729 l 16.266898174810436 -6.070864335321934" fill="#ff6409" stroke="none" /><path d="M 80.0844068197444 106.66101706037122 l -27.923138562180473 9.33923989400383 a50.44355734215013,50.44355734215013 0 0,0 -0.2683302972106829,-0.825835738250665 l 28.079761110407404 -8.857205255775362" fill="#e0ff1b" stroke="none" /><path d="M 79.86692584326677 105.97154293290107 l -22.238798007379295 6.5961082765280175 a44.19639586678712,44.19639586678712 0 0,0 -0.21005360621913863,-0.7312241596930837 l 22.349044250484535 -6.212326641330337" fill="#ffc112" stroke="none" /><path d="M 79.67330655649465 105.27499134158121 l -23.103732106102104 5.995662164956799 a44.86902599660966,44.86902599660966 0 0,0 -0.18757108671920064,-0.7492532519221763 l 23.203514507116363 -5.597081073637231" fill="#ffcc13" stroke="none" /><path d="M 79.35854240842038 103.8639653848113 l -60.92643265660378 11.405087347183692 a82.9847256479898,82.9847256479898 0 0,0 -0.2507464797081584,-1.4063194206508636 l 61.11372557865113 -10.354649175799613" fill="#4bddff" stroke="none" /><path d="M 79.18660465613746 102.79330883721812 l -26.10736856877295 3.503798497786598 a47.341436891309584,47.341436891309584 0 0,0 -0.10144253381878654,-0.8085968047350401 l 26.163812611838587 -3.0538839387641494" fill="#fff116" stroke="none" /><line stroke="#e1ed5e" stroke-width="0.3" x1="15.007084014347285" x2="10.007500721073583" y1="101.09737516637583" y2="101.16192664675087" /><path d="M 14.007167355692545 101.11028546245083 a86.0,86.0 0 0,1 10.666146001902534,-42.60595125391555" fill="none" id="id58" stroke="none" /><text fill="#e1ed5e" style="font-size:6.75px; font-family:Arial;" text-anchor="middle"><textPath startOffset="22.20632615414155" xlink:href="#id58">October</textPath></text><path d="M 79.00019446554 99.90962569577889 l -17.408535098734927 -0.0749189912485338 a38.40869630785532,38.40869630785532 0 0,0 0.008535862489837417,-0.6611119566883962 l 17.404666229127372 0.3745672059974019" fill="#ff6509" stroke="none" /><path d="M 79.08570108090925 98.10471618934814 l -26.59557944388032 -2.4101296127540963 a47.70456085963639,47.70456085963639 0 0,0 0.08114971580825066,-0.8171665637243288 l 26.550152602389844 2.8675717071828553" fill="#fff617" stroke="none" /><path d="M 79.46518482838121 95.60439243477599 l -21.492685616211368 -4.600645815511005 a42.97956953438984,42.97956953438984 0 0,0 0.16108254126631916,-0.7221014473846776 l 21.41030868794301 4.969925432445642" fill="#ffaf10" stroke="none" /><path d="M 79.71946130924805 94.55025226153421 l -16.867695158486175 -4.532654923264368 a38.46608429537115,38.46608429537115 0 0,0 0.1773345640143559,-0.6379667791339 l 16.787173823905455 4.82233300581721" fill="#ff6609" stroke="none" /><path d="M 80.38941819471856 92.48833698450439 l -16.306226035078218 -6.245958240617886 a38.46152919565194,38.46152919565194 0 0,0 0.24213629719423047,-0.616210465290845 l 16.196296188002297 6.5257177108044955" fill="#ff6609" stroke="none" /><path d="M 80.95270993114464 91.15688171328213 l -40.07170235396704 -18.604158522565967 a65.17981489184503,65.17981489184503 0 0,0 0.4812188678996169,-1.0135696619084846 l 39.74552529222567 19.291170600114985" fill="#31ff3e" stroke="none" /><path d="M 81.43458229118936 90.18545643968196 l -23.486703799577782 -12.41616435162938 a47.56664059635267,47.56664059635267 0 0,0 0.3888955684656949,-0.7205644253661617 l 23.26950013189362 12.818609760328014" fill="#fff417" stroke="none" /><line stroke="#e1ed5e" stroke-width="0.3" x1="26.266209847984243" x2="21.928928074336255" y1="57.711370442889674" y2="55.22380399835377" /><path d="M 25.398753493254645 57.213857153982495 a86.0,86.0 0 0,1 29.58750427330803,-30.492523968695096" fill="none" id="id59" stroke="none" /><text fill="#e1ed5e" style="font-size:6.75px; font-family:Arial;" text-anchor="middle"><textPath startOffset="21.46611528233685" xlink:href="#id59">November</textPath></text><path d="M 82.15384107792192 88.93136811851018 l -39.81637367179702 -24.695105818190587 a67.85287465827258,67.85287465827258 0 0,0 0.6241572809219009,-0.987266926723223 l 39.38538879462915 25.376820392628026" fill="#35ff64" stroke="none" /><path d="M 82.7489923806493 88.02491185347247 l -14.552806231544764 -10.102084541809667 a38.715424954055095,38.715424954055095 0 0,0 0.3847343146114912,-0.544179403563359 l 14.376759297129395 10.351090445704813" fill="#ff6a09" stroke="none" /><path d="M 83.6137871275137 86.86637796730984 l -48.73027113034889 -39.05752766407256 a83.45101914033995,83.45101914033995 0 0,0 0.9080325576823575,-1.113140548740388 l 48.05074008059014 39.89055238242103" fill="#4cd8ff" stroke="none" /><path d="M 85.31137513191541 84.99185889309783 l -32.1343587678209 -32.83336562125469 a66.94177740834607,66.94177740834607 0 0,0 0.830450224630533,-0.7988924581297135 l 31.564425299577938 33.38164116614672" fill="#34ff57" stroke="none" /><path d="M 87.22198572758235 83.33499621200491 l -11.338799748280763 -14.787989489439227 a39.63472599399779,39.63472599399779 0 0,0 0.5449847416904373,-0.4104712087226479 l 11.082568852831937 14.980977287667729" fill="#ff790b" stroke="none" /><path d="M 88.09926311788651 82.69761687909137 l -18.410183682480728 -26.766414093176014 a53.486547779504846,53.486547779504846 0 0,0 0.7630627917685705,-0.5152234032410522 l 17.94671619630562 27.07934940871573" fill="#b6ff1f" stroke="none" /><line stroke="#e1ed5e" stroke-width="0.3" x1="56.762969772571076" x2="54.21961505331055" y1="26.818313649435495" y2="22.513508569990535" /><path d="M 56.25429882871897 25.957352633546506 a86.0,86.0 0 0,1 42.265352541879196,-11.944610805530505" fill="none" id="id60" stroke="none" /><text fill="#e1ed5e" style="font-size:6.75px; font-family:Arial;" text-anchor="middle"><textPath startOffset="22.20632615414155" xlink:href="#id60">December</textPath></text><path d="M 89.3179101791058 81.91981866633112 l -24.118250045120536 -40.82181872442295 a68.41424753392808,68.41424753392808 0 0,0 1.0190571511685294,-0.5903036775445707 l 23.411996161486687 41.23092655935757" fill="#36ff6c" stroke="none" /><path d="M 90.26544431104013 81.39251694778311 l -9.655892167850233 -18.45711870250801 a41.830302070676325,41.830302070676325 0 0,0 0.6408790948682918,-0.3282831642706309 l 9.336752585393178 18.620594392091146" fill="#ff9c0e" stroke="none" /><path d="M 92.23578459929587 80.48803036053334 l -11.44774723151848 -28.768920604832765 a51.962908607621316,51.962908607621316 0 0,0 0.8339226188738862,-0.3235490203578549 l 10.950841447644919 28.96171232908117" fill="#cbff1d" stroke="none" /><path d="M 93.59665428221793 80.00007090966166 l -19.053424631094277 -59.510630589844446 a83.48638366375286,83.48638366375286 0 0,0 1.372415277152931,-0.42641610718666095 l 18.02622398123062 59.82978683191364" fill="#4cd8ff" stroke="none" /><path d="M 94.63758080256005 79.69619591428918 l -6.398696331395109 -24.227474938666937 a46.05820936629638,46.05820936629638 0 0,0 0.768275302099949,-0.19585048086845092 l 5.98071214061016 24.33402841570425" fill="#ffde14" stroke="none" /><path d="M 95.33964822691252 79.52364482259891 l -4.433973463196632 -19.48170865639096 a40.97991723818771,40.97991723818771 0 0,0 0.6891598064882162,-0.15062364094935898 l 4.097970932554895 19.55514579543619" fill="#ff8f0d" stroke="none" /><path d="M 96.40284397218896 79.31037775812273 l -10.415081030574772 -59.90401597126765 a81.80267298696108,81.80267298696108 0 0,0 1.3893630625819307,-0.2292568098481088 l 9.382388761853955 60.07441904405538" fill="#4aeaff" stroke="none" /></svg>