<?xml version="1.0" encoding="utf-8" ?>
<svg baseProfile="full" height="200mm" version="1.1" viewBox="0,0,200,200" width="200mm" xmlns="http://www.w3.org/2000/svg" xmlns:ev="http://www.w3.org/2001/xml-events" xmlns:xlink="http://www.w3.org/1999/xlink"><defs /><rect fill="#1a1a1a" height="200" width="200" x="0" y="0" /><text alignment-baseline="middle" fill="#e1ed5e" style="dominant-baseline: central; font-size:9.0px; font-family:Arial;" text-anchor="middle" x="100.0" y="100.0">2020</text><line stroke="#e1ed5e" stroke-width="0.3" x1="100.0" x2="100.0" y1="15.0" y2="10.0" /><path d="M 100.0 14.0 a86.0,86.0 0 0,1 42.35913384403234,11.155469271406648" fill="none" id="id13" stroke="none" /><text fill="#e1ed5e" style="font-size:6.75px; font-family:Arial;" text-anchor="middle"><textPath startOffset="22.145653131862478" xlink:href="#id13">January</textPath></text><line stroke="#e1ed5e" stroke-width="0.3" x1="143.13028292997686" x2="145.6673583964461" y1="26.7553504044142" y2="22.446841604673864" /><path d="M 143.63769802327073 25.89364864446614 a86.0,86.0 0 0,1 29.32050498858742,28.57503671076993" fill="none" id="id14" stroke="none" /><text fill="#e1ed5e" style="font-size:6.75px; font-family:Arial;" text-anchor="middle"><textPath startOffset="20.669276256404974" xlink:href="#id14">February</textPath></text><line stroke="#e1ed5e" stroke-width="0.3" x1="172.87174338648825" x2="177.1583165268699" y1="56.24261187166439" y2="53.66864786411523" /><path d="M 173.72905801456457 55.72781907015455 a86.0,86.0 0 0,1 12.242430191666344,42.057860355516425" fill="none" id="id15" stroke="none" /><text fill="#e1ed5e" style="font-size:6.75px; font-family:Arial;" text-anchor="middle"><textPath startOffset="22.145653131862474" xlink:href="#id15">March</textPath></text><path d="M 118.00360718960297 89.18935116829356 l 14.960350095148028 -8.983260386364718 a38.45024475870253,38.45024475870253 0 0,0 0.3349314580148476,0.5687868387198927 l -15.112355263292644 8.725122379351268" fill="#ff0000" stroke="none" /><path d="M 118.36410011445183 89.81374322990088 l 20.783597242902935 -11.528311041820567 a44.76678080498418,44.76678080498418 0 0,0 0.36699092849184295,0.6752219733752689 l -20.978433521010118 11.169834234970695" fill="#ff790b" stroke="none" /><path d="M 119.0197475246899 91.09779779509293 l 39.726983527185126 -18.594234223715365 a64.86318235759492,64.86318235759492 0 0,0 0.46335642917042813,1.0125174202589395 l -40.040324421210606 17.909527821241742" fill="#45ff2d" stroke="none" /><path d="M 120.51834098615036 95.52812308129327 l 31.197114122595895 -6.799265821211557 a52.929452630537966,52.929452630537966 0 0,0 0.1858637619899576,0.8894253845612059 l -31.309235595410218 6.262723985364946" fill="#f7ff18" stroke="none" /><path d="M 120.65975698304385 96.23510406497455 l 61.97927094913153 -11.294687805076354 a84.0,84.0 0 0,0 0.24634073003106272,1.4208278683176294 l -62.16402649665483 10.229066903838131" fill="#4dd2ff" stroke="none" /><path d="M 120.9064616781168 98.02013634271609 l 17.68539797242692 -1.674825575427775 a38.76452482199367,38.76452482199367 0 0,0 0.057051001432920405,0.6630191154544685 l -17.71154259655758 1.3709854125976444" fill="#ff0601" stroke="none" /><path d="M 120.96210409425399 98.7389718711861 l 45.04194630631416 -2.7096116407683257 a66.12337445609177,66.12337445609177 0 0,0 0.05843546331775842,1.1336323772050294 l -45.08182335908849 1.9360074701865657" fill="#34ff2f" stroke="none" /><line stroke="#e1ed5e" stroke-width="0.3" x1="184.99686870605535" x2="189.99668451229388" y1="99.2704041080226" y2="99.22748670261217" /><path d="M 185.99683186730306 99.26182062694052 a86.0,86.0 0 0,1 -10.086455211305974,41.156179273409016" fill="none" id="id16" stroke="none" /><text fill="#e1ed5e" style="font-size:6.75px; font-family:Arial;" text-anchor="middle"><textPath startOffset="21.40746469413373" xlink:href="#id16">April</textPath></text><path d="M 120.98066250479742 100.90099992219065 l 24.384763930450536 1.0471866843551463 a45.40723892405063,45.40723892405063 0 0,0 -0.040127913409334526,0.7784707998828695 l -24.363194427584627 -1.4656292776147466" fill="#ff850c" stroke="none" /><path d="M 120.9064616781168 101.97986365728391 l 34.1243146715667 3.2316080783135597 a55.276991445806964,55.276991445806964 0 0,0 -0.09757075350987975,0.9439085311557839 l -34.063811525575154 -3.816921131752275" fill="#d1ff1c" stroke="none" /><line stroke="#e1ed5e" stroke-width="0.3" x1="174.33088141563837" x2="178.70328620479359" y1="141.23008692659167" y2="143.65538615756765" /><path d="M 175.20536237346943 141.71514677278685 a86.0,86.0 0 0,1 -30.301960400862466,31.631185727798858" fill="none" id="id17" stroke="none" /><text fill="#e1ed5e" style="font-size:6.75px; font-family:Arial;" text-anchor="middle"><textPath startOffset="22.145653131862474" xlink:href="#id17">May</textPath></text><path d="M 118.18653347947321 110.5 l 20.952154817679876 12.096732224090184 a45.19346444818038,45.19346444818038 0 0,0 -0.39367013228038034,0.6685379491235353 l -20.74141097526973 -12.454621341507268" fill="#ff810b" stroke="none" /><path d="M 117.62189284568427 111.42229804090321 l 44.104688693348635 28.588126353297 a73.5595332278481,73.5595332278481 0 0,0 -0.6959276922272463,1.053723225472531 l -43.60743656220066 -29.34102945710859" fill="#3bff9f" stroke="none" /><path d="M 116.1254893667686 113.45245675266167 l 26.156577908343127 21.82074758207002 a55.06334676621835,55.06334676621835 0 0,0 -0.611741816764366,0.7206303219455041 l -25.778141528071647 -22.26654468646508" fill="#d5ff1c" stroke="none" /><path d="M 115.6541949942343 113.99807769240083 l 33.19953217901143 29.687226392946485 a65.53695485561708,65.53695485561708 0 0,0 -0.7571150441806966,0.8322020605888698 l -32.685019433988856 -30.252766029093028" fill="#3cff2e" stroke="none" /><path d="M 114.39649973595853 115.28858382429668 l 24.289139999248246 25.7942249650491 a56.43027467365506,56.43027467365506 0 0,0 -0.7109414607249791,0.6580368023073119 l -23.8427687672093 -26.207379513488792" fill="#bfff1e" stroke="none" /><path d="M 112.45986205192187 116.90419585922612 l 20.730729037711985 28.12521539144781 a55.93981779074367,55.93981779074367 0 0,0 -0.7778804319579667,0.5631254443092302 l -20.24486759538005 -28.476941607130115" fill="#c7ff1e" stroke="none" /><line stroke="#e1ed5e" stroke-width="0.3" x1="143.1302829299769" x2="145.66735839644613" y1="173.24464959558577" y2="177.55315839532614" /><path d="M 143.63769802327073 174.10635135553383 a86.0,86.0 0 0,1 -40.68552437913181,11.842963189579606" fill="none" id="id18" stroke="none" /><text fill="#e1ed5e" style="font-size:6.75px; font-family:Arial;" text-anchor="middle"><textPath startOffset="21.407464694133747" xlink:href="#id18">June</textPath></text><path d="M 109.71004243097381 118.62028667847754 l 17.78275952496546 34.10078613385383 a59.458941109572784,59.458941109572784 0 0,0 -0.9090784483818585,0.4641819331841697 l -17.19475385487002 -34.40102601871084" fill="#91ff24" stroke="none" /><path d="M 107.06938296918513 119.77432235084164 l 17.574548165513452 49.15913908046693 a73.20618448378164,73.20618448378164 0 0,0 -1.186965869873092,0.4128883445681919 l -16.72807652359534 -49.453585857603706" fill="#3bff99" stroke="none" /><path d="M 104.64783097203109 120.47920084513623 l 7.920768626726332 34.90036804924878 a56.78790669501581,56.78790669501581 0 0,0 -0.9525159533100174,0.20759641869594256 l -7.3204902567971795 -35.031195926078446" fill="#baff1f" stroke="none" /><line stroke="#e1ed5e" stroke-width="0.3" x1="101.45913802915013" x2="101.54496967792366" y1="184.9874750549273" y2="189.98673829345242" /><path d="M 101.47630435890484 185.9873277026323 a86.0,86.0 0 0,1 -42.54439059252881,-10.42667462771756" fill="none" id="id19" stroke="none" /><text fill="#e1ed5e" style="font-size:6.75px; font-family:Arial;" text-anchor="middle"><textPath startOffset="22.145653131862474" xlink:href="#id19">July</textPath></text><path d="M 92.93061703081489 119.77432235084164 l -9.191598989460099 25.710538264728587 a48.30416213409811,48.30416213409811 0 0,0 -0.7784120231636728,-0.28584367703569186 l 9.63160016427789 -25.548963738684176" fill="#ffb811" stroke="none" /><path d="M 91.59046798132341 119.24265499422711 l -19.175183519337885 43.87657245303826 a68.88362218156645,68.88362218156645 0 0,0 -1.0794608010814188,-0.48282908613663317 l 19.92555772327494 -43.54093961599177" fill="#33ff57" stroke="none" /><path d="M 91.26138138417905 119.09545874513695 l -10.836314854208847 23.679303599911165 a47.04102798655063,47.04102798655063 0 0,0 -0.7314012642236135,-0.3423327222714758 l 11.241204832303952 -23.489794646069164" fill="#ffa20f" stroke="none" /><line stroke="#e1ed5e" stroke-width="0.3" x1="58.13341422392154" x2="55.67067388415222" y1="173.97424548756322" y2="178.32567169271397" /><path d="M 57.64086615596768 174.84453072859336 a86.0,86.0 0 0,1 -31.369924170532247,-30.572349798747897" fill="none" id="id20" stroke="none" /><text fill="#e1ed5e" style="font-size:6.75px; font-family:Arial;" text-anchor="middle"><textPath startOffset="22.145653131862474" xlink:href="#id20">August</textPath></text><path d="M 87.83215693770417 117.11559508785305 l -25.435183068958974 35.77777032173339 a64.89757837223101,64.89757837223101 0 0,0 -0.9024440602588591,-0.6532999051259842 l 26.04560813959179 -35.33586964523434" fill="#44ff2d" stroke="none" /><path d="M 87.2517909369889 116.68781488649013 l -13.572024672910247 17.76621596468445 a43.35706339003164,43.35706339003164 0 0,0 -0.5875709081249056,-0.45689869204879097 l 13.875005525670382 -17.530616221014863" fill="#ff5f08" stroke="none" /><path d="M 85.08716467003676 114.78537596483092 l -24.886555919388083 24.67385159136255 a56.04482298259494,56.04482298259494 0 0,0 -0.6715055804565402,-0.6890238819612651 l 25.306448300995434 -24.243005017333548" fill="#c5ff1e" stroke="none" /><line stroke="#e1ed5e" stroke-width="0.3" x1="26.387840678322732" x2="22.057713659400548" y1="142.50000000000003" y2="145.00000000000006" /><path d="M 25.521815274538298 143.00000000000003 a86.0,86.0 0 0,1 -11.493303480769221,-40.785679425670985" fill="none" id="id21" stroke="none" /><text fill="#e1ed5e" style="font-size:6.75px; font-family:Arial;" text-anchor="middle"><textPath startOffset="21.40746469413373" xlink:href="#id21">September</textPath></text><path d="M 80.9802524753101 108.90220220490708 l -45.74855559219052 21.412633997135696 a71.51169402689874,71.51169402689874 0 0,0 -0.5108507165984145,-1.1163010096433061 l 46.10939077364399 -20.624144005277703" fill="#38ff80" stroke="none" /><path d="M 79.48165901384964 104.47187691870673 l -52.629272390807216 11.47030496333206 a74.86472137064874,74.86472137064874 0 0,0 -0.26289028249369456,-1.2580251690858857 l 52.81842038412528 -10.565163342960766" fill="#3effb2" stroke="none" /><line stroke="#e1ed5e" stroke-width="0.3" x1="15.003131293944662" x2="10.003315487706104" y1="100.72959589197737" y2="100.7725132973878" /><path d="M 14.003168132696942 100.73817937305945 a86.0,86.0 0 0,1 10.791469493833604,-42.45332614584628" fill="none" id="id22" stroke="none" /><text fill="#e1ed5e" style="font-size:6.75px; font-family:Arial;" text-anchor="middle"><textPath startOffset="22.145653131862435" xlink:href="#id22">October</textPath></text><line stroke="#e1ed5e" stroke-width="0.3" x1="26.387840678322718" x2="22.05771365940052" y1="57.49999999999999" y2="54.99999999999999" /><path d="M 25.521815274538284 56.99999999999999 a86.0,86.0 0 0,1 29.574782752854787,-30.34633250058573" fill="none" id="id23" stroke="none" /><text fill="#e1ed5e" style="font-size:6.75px; font-family:Arial;" text-anchor="middle"><textPath startOffset="21.40746469413373" xlink:href="#id23">November</textPath></text><line stroke="#e1ed5e" stroke-width="0.3" x1="56.869717070023135" x2="54.33264160355391" y1="26.7553504044142" y2="22.446841604673864" /><path d="M 56.362301976729285 25.89364864446614 a86.0,86.0 0 0,1 42.16139366436587,-11.88097634709845" fill="none" id="id24" stroke="none" /><text fill="#e1ed5e" style="font-size:6.75px; font-family:Arial;" text-anchor="middle"><textPath startOffset="22.145653131862474" xlink:href="#id24">December</textPath></text></svg>