<?xml version="1.0" encoding="utf-8" ?>
<svg baseProfile="full" height="200mm" version="1.1" viewBox="0,0,200,200" width="200mm" xmlns="http://www.w3.org/2000/svg" xmlns:ev="http://www.w3.org/2001/xml-events" xmlns:xlink="http://www.w3.org/1999/xlink"><defs /><rect fill="#1a1a1a" height="200" width="200" x="0" y="0" /><text alignment-baseline="middle" fill="#e1ed5e" style="dominant-baseline: central; font-size:9.0px; font-family:Arial;" text-anchor="middle" x="100.0" y="100.0">2025</text><line stroke="#e1ed5e" stroke-width="0.3" x1="100.0" x2="100.0" y1="15.0" y2="10.0" /><path d="M 100.0 14.0 a86.0,86.0 0 0,1 42.46469731375804,11.215312516191453" fill="none" id="id121" stroke="none" /><text fill="#e1ed5e" style="font-size:6.75px; font-family:Arial;" text-anchor="middle"><textPath startOffset="22.20632615414155" xlink:href="#id121">January</textPath></text><path d="M 100.0 79.0 l 0.0 -14.771125247776425 a35.771125247776425,35.771125247776425 0 0,0 0.6157411189849459,0.005299878207512435 l -0.25426063971241747 14.768936746177472" fill="#ff9a0e" stroke="none" /><path d="M 100.36148047927253 79.00311137660856 l 0.3607423433164455 -20.95401339402917 a41.95711841726852,41.95711841726852 0 0,0 0.7220088123797955,0.018647357490285597 l -0.7213777908911089 20.944699244396524" fill="#ffed16" stroke="none" /><path d="M 101.08401301168833 79.027996857942 l 0.8275328297770557 -16.00997489800464 a37.03134762953812,37.03134762953812 0 0,0 0.6363007432071728,0.038383398492212915 l -1.1029956218238404 15.993358230132122" fill="#ffab0f" stroke="none" /><path d="M 101.44485096284872 79.0497635885617 l 2.115937286927289 -30.68094047949606 a51.75381763795495,51.75381763795495 0 0,0 0.8882182673652986,0.0689428323413243 l -2.643745743654929 30.63997238496627" fill="#98ff23" stroke="none" /><path d="M 102.16513564639614 79.11191278185805 l 2.0758902497522214 -20.02709468309289 a41.1343944973417,41.1343944973417 0 0,0 0.7036592444957847,0.07906431492616009 l -2.420316197757731 19.988394414696128" fill="#ffe215" stroke="none" /><path d="M 102.52436894288641 79.15227682838746 l 1.7754092827091046 -14.662373876264311 a35.76947141262976,35.76947141262976 0 0,0 0.6106108890708294,0.07927481805125072 l -2.02753490028778 14.629640735048923" fill="#ff9a0e" stroke="none" /><path d="M 102.88285421437855 79.19881850522331 l 3.001126019328617 -21.65456952536472 a42.861544746717826,42.861544746717826 0 0,0 0.7299341880081661,0.10757332502540354 l -3.373429187765439 21.59970171617835" fill="#fff917" stroke="none" /><path d="M 103.59715602781102 79.31037775812273 l 2.6958972657505744 -15.505887317662767 a36.73850067749582,36.73850067749582 0 0,0 0.6221138135372332,0.1136873229725063 l -2.9624062003907086 15.457184513339522" fill="#ffa70f" stroke="none" /><path d="M 103.95276090670814 79.375362276772 l 6.405344947230389 -33.421682248662925 a55.029946932424096,55.029946932424096 0 0,0 0.9287838894329821,0.1863053106750723 l -6.979695246130496 33.306472981910645" fill="#73ff27" stroke="none" /><path d="M 104.66035177308747 79.52364482259891 l 3.9419397647719148 -17.31984250148483 a38.762765364248054,38.762765364248054 0 0,0 0.6493248896653321,0.15367422253800006 l -4.23948834139977 17.24942236680596" fill="#ffc312" stroke="none" /><path d="M 105.36241919743992 79.69619591428918 l 4.6239081840565275 -17.50756933068927 a39.107885320033276,39.107885320033276 0 0,0 0.6493810551948884,0.17750037289623727 l -4.924587128475126 17.42538241696674" fill="#ffc812" stroke="none" /><path d="M 105.71112130821622 79.79150937346287 l 3.632025117750286 -12.851722382750216 a34.355087968982154,34.355087968982154 0 0,0 0.5676929331528098,0.16572513435251604 l -3.852708268626523 12.787298919478996" fill="#ff860c" stroke="none" /><path d="M 106.40334571778207 80.00007090966166 l 2.7051076039052795 -8.449014412824797 a29.871496587207105,29.871496587207105 0 0,0 0.4883522811292953,0.1610020690242337 l -2.850142707276992 8.401198619541326" fill="#ff4506" stroke="none" /><path d="M 107.08798089147638 80.2323363322302 l 5.335279952136034 -14.87955756117341 a36.80716436885305,36.80716436885305 0 0,0 0.5945543186718488,0.21897937321714195 l -5.5906165965804595 14.785514920149945" fill="#ffa80f" stroke="none" /><path d="M 107.4271985657038 80.35727306442388 l 5.223719048688931 -13.815180239743723 a35.76978150671976,35.76978150671976 0 0,0 0.5740485024784826,0.22272190058307612 l -5.46075071616708 13.7232156352701" fill="#ff9a0e" stroke="none" /><path d="M 107.76421540070413 80.48803036053334 l 7.874600930762404 -19.789375533040662 a42.298561543129445,42.298561543129445 0 0,0 0.6741909924616064,0.2750194337527727 l -8.214075792812398 19.65089521310431" fill="#fff216" stroke="none" /><path d="M 108.43124777332544 80.76684994638697 l 15.415081417490866 -35.16449545336117 a59.39487564242565,59.39487564242565 0 0,0 0.9328329551578031,0.41853495555132747 l -16.01809649111545 34.89394016729331" fill="#44ff2d" stroke="none" /><path d="M 108.76106565485865 80.91482961587045 l 6.902041557850965 -15.035458506908531 a37.543977459464514,37.543977459464514 0 0,0 0.5850098790101692,0.2746699823213414 l -7.159829648160732 14.914423541947189" fill="#ffb210" stroke="none" /><path d="M 109.08828744355905 81.06846463323043 l 6.390844257278095 -13.312573444837728 a35.76710879099166,35.76710879099166 0 0,0 0.5527359285066937,0.2712251196124528 l -6.619051452795222 13.200593165090444" fill="#ff9a0e" stroke="none" /><path d="M 109.41281617654863 81.2277094730956 l 12.277520417736724 -24.485464913887547 a48.39115732599045,48.39115732599045 0 0,0 0.7413974934799993,0.3797725921953321 l -12.69717839880548 24.270499796379713" fill="#c0ff1e" stroke="none" /><path d="M 110.05341064243156 81.56283822128135 l 9.91677068817391 -18.1865748852069 a41.71458053973248,41.71458053973248 0 0,0 0.6274586250936169,0.34918004552955856 l -10.228353402339563 18.01317944211716" fill="#ffea16" stroke="none" /><line stroke="#e1ed5e" stroke-width="0.3" x1="143.23703022742887" x2="145.7803849466894" y1="26.81831364943548" y2="22.513508569990506" /><path d="M 143.74570117128098 25.957352633546492 a86.0,86.0 0 0,1 28.547481713284135,27.462654790039103" fill="none" id="id122" stroke="none" /><text fill="#e1ed5e" style="font-size:6.75px; font-family:Arial;" text-anchor="middle"><textPath startOffset="19.985693538727396" xlink:href="#id122">February</textPath></text><path d="M 110.68208982089419 81.91981866633111 l 8.143796956050751 -13.78394379552715 a37.00995113732809,37.00995113732809 0 0,0 0.5456992761689745,0.32877770802093137 l -8.379858298437362 13.641719478047605" fill="#ffab0f" stroke="none" /><path d="M 110.99172775467656 82.1063720568725 l 18.551621058240922 -30.20051190922354 a56.443385327416465,56.443385327416465 0 0,0 0.8234843923615627,0.5156658509502072 l -19.068724602974747 29.87670171695039" fill="#63ff29" stroke="none" /><path d="M 111.60114157652 82.49532879139004 l 15.228794137892402 -22.97834506450164 a48.566655814545456,48.566655814545456 0 0,0 0.6928734328767165,0.4678312347987178 l -15.62207226517566 22.71280191740425" fill="#beff1f" stroke="none" /><path d="M 111.90073688211348 82.69761687909136 l 8.370596680626862 -12.169941420727493 a35.770726555375,35.770726555375 0 0,0 0.5043142022626053,0.3533043272824462 l -8.578842022473118 12.024052250681112" fill="#ff9a0e" stroke="none" /><path d="M 112.19680574252982 82.90503203632743 l 14.0489822411806 -19.690967160174896 a45.189007621564265,45.189007621564265 0 0,0 0.6293208061071813,0.45722832939548036 l -14.38584836364157 19.44621959596274" fill="#e7ff1a" stroke="none" /><path d="M 112.77801427241765 83.33499621200491 l 10.782912132514028 -14.063004446775059 a38.72115369064704,38.72115369064704 0 0,0 0.5254413442144135,0.4101153035718484 l -11.023386031887872 13.875310753979987" fill="#ffc212" stroke="none" /><path d="M 113.06298171725822 83.55741782278167 l 23.603749412116578 -29.710413579347403 a58.945298277466,58.945298277466 0 0,0 0.7890153817332404,0.637995566353106 l -24.111668192414307 29.299711915730168" fill="#49ff2c" stroke="none" /><path d="M 113.6212207817346 84.01681056812373 l 14.542596950308578 -17.06433554031331 a43.42049672713618,43.42049672713618 0 0,0 0.5646860439056558,0.48969017276630666 l -14.834176792861 16.81148037412733" fill="#feff18" stroke="none" /><path d="M 113.89432698308785 84.25364557470407 l 9.774963645040122 -11.077905553578502 a35.77396039374214,35.77396039374214 0 0,0 0.45822867981394605,0.4114022331112677 l -9.964203312450058 10.908004311697937" fill="#ff9a0e" stroke="none" /><path d="M 114.16331599549186 84.49514656593476 l 17.07772543239948 -18.69531329392379 a46.32120544331149,46.32120544331149 0 0,0 0.5840709530718148,0.5428302965282551 l -17.39700426926614 18.398578411320894" fill="#d9ff1c" stroke="none" /><path d="M 114.68862486808459 84.99185889309783 l 2.9952566234230953 -3.060411335944147 a25.28225171905335,25.28225171905335 0 0,0 0.30840037055141123,0.3070760013509484 l -3.0474927941418293 3.00839948394308" fill="#ff0000" stroke="none" /><path d="M 114.94478906791727 85.2469230424477 l 23.90203243143814 -23.595416589714418 a54.58646808456779,54.58646808456779 0 0,0 0.6543507016721625,0.6743659171237074 l -24.30464739681341 23.180486477040596" fill="#78ff26" stroke="none" /><path d="M 115.4437574822437 85.77008943001954 l 15.519686764137395 -14.299871969739073 a42.1032465655849,42.1032465655849 0 0,0 0.4865057395166777,0.5372117887691146 l -15.763536144270109 14.030607393700409" fill="#ffef16" stroke="none" /><path d="M 115.68641384162765 86.03803664274999 l 8.976905872665634 -7.990049996196899 a33.01772599073655,33.01772599073655 0 0,0 0.37421368723583104,0.4277909338872871 l -9.113111423479314 7.834343506106664" fill="#ff730a" stroke="none" /><path d="M 115.9244219780498 86.31012108654704 l 14.568199763950291 -12.523964199791799 a40.211510186344746,40.211510186344746 0 0,0 0.44671040676804297,0.528764221897958 l -14.781620784205451 12.271341028264734" fill="#ffd614" stroke="none" /><path d="M 116.38621287248628 86.86637796730983 l 7.203255887140349 -5.773441426804634 a30.231441993771398,30.231441993771398 0 0,0 0.3219589828412976,0.40885521276183806 l -7.301568950575611 5.648593820089758" fill="#ff4b06" stroke="none" /><path d="M 116.60985879189232 87.15038557335679 l 26.90045694517275 -20.810562207471122 a55.0104996030655,55.0104996030655 0 0,0 0.5729580858801084,0.7539456796263148 l -27.254690971276972 20.344431751963775" fill="#73ff27" stroke="none" /><path d="M 117.04232023915458 87.72973835380427 l 17.699195702913485 -12.743203927304272 a42.809419406827274,42.809419406827274 0 0,0 0.42541836112988557,0.601724102146536 l -17.915926683847253 12.436653324825942" fill="#fff817" stroke="none" /><path d="M 117.45458315368197 88.32363383020206 l 21.76084779576037 -14.557072190803924 a47.1809634574155,47.1809634574155 0 0,0 0.44575532842885845,0.6789159467124015 l -22.008199759547153 14.180338180113848" fill="#cfff1d" stroke="none" /><line stroke="#e1ed5e" stroke-width="0.3" x1="172.23445277983987" x2="176.4835382374775" y1="55.19839476539836" y2="52.563006222186495" /><path d="M 173.08426987136738 54.67131705675599 a86.0,86.0 0 0,1 12.851231095245387,41.99856678651699" fill="none" id="id123" stroke="none" /><text fill="#e1ed5e" style="font-size:6.75px; font-family:Arial;" text-anchor="middle"><textPath startOffset="22.20632615414155" xlink:href="#id123">March</textPath></text><path d="M 117.84615892207809 88.93136811851018 l 13.72834449781998 -8.51466089997989 a37.154469749653515,37.154469749653515 0 0,0 0.3324160899529663,0.5464046489569345 l -13.87287638605917 8.277088477815875" fill="#ffad10" stroke="none" /><path d="M 118.03404312379186 89.2402003453031 l 29.351299214853626 -17.512107351026668 a55.17854106707525,55.17854106707525 0 0,0 0.47963375469696806,0.8198495623430258 l -29.648392644020923 17.004278376329747" fill="#71ff27" stroke="none" /><path d="M 118.3937258080291 89.86733742301442 l 23.627666980095153 -13.015915290320471 a47.97555741346371,47.97555741346371 0 0,0 0.39223879254148836,0.7267589118308688 l -23.848213871855105 12.607275395157144" fill="#c5ff1e" stroke="none" /><path d="M 118.73160827565052 90.50648371742162 l 24.928302350764124 -12.634112393416347 a48.94711173020548,48.94711173020548 0 0,0 0.374422066395633,0.7548120383094105 l -25.142084430113165 12.203140766607985" fill="#b9ff1f" stroke="none" /><path d="M 119.04729006885535 91.15688171328212 l 15.552505321183506 -7.2205885305919555 a38.146933267892464,38.146933267892464 0 0,0 0.2713839735798549,0.5979586124743204 l -15.674491611726708 6.951807909275572" fill="#ffbb11" stroke="none" /><path d="M 119.196687751892 91.48605970444005 l 34.15679183982119 -15.148909549953213 a58.36543709555047,58.36543709555047 0 0,0 0.3994121683201537,0.9218983529129008 l -34.412494717984025 14.558712052453709" fill="#4fff2b" stroke="none" /><path d="M 119.47837535516314 92.15188598940014 l 22.79184498645477 -9.183157974117272 a45.572313449575255,45.572313449575255 0 0,0 0.28690256118318014,0.7301357242528963 l -22.94654109751965 8.78947324496859" fill="#e3ff1b" stroke="none" /><path d="M 119.7369772167798 92.82701384747503 l 18.143959234959283 -6.594037522305785 a40.30504047044297,40.30504047044297 0 0,0 0.231364212216564,0.6540977837761106 l -18.254776527985655 6.28074211210306" fill="#ffd814" stroke="none" /><path d="M 119.97218684219823 93.5106431181261 l 31.47718007900678 -10.227555789539375 a54.097065778620944,54.097065778620944 0 0,0 0.2801313927455078,0.8880930678094584 l -31.648566955520494 9.684212555303496" fill="#7dff26" stroke="none" /><path d="M 120.08093135843002 93.85539295169968 l 29.287935076325667 -8.961877767915578 a51.62839196174241,51.62839196174241 0 0,0 0.2527187731082244,0.8520420696891234 l -29.437859746545595 8.456406311479924" fill="#9aff23" stroke="none" /><path d="M 120.28053869075195 94.5502522615342 l 17.644387668069843 -4.741366255449901 a39.27033032403777,39.27033032403777 0 0,0 0.16980428771845307,0.6543251881075327 l -17.723388287658597 4.436944641793518" fill="#ffca12" stroke="none" /><path d="M 120.45610955862082 95.25157060432595 l 14.388847506119482 -3.340049889356163 a35.77142057548119,35.77142057548119 0 0,0 0.13406721829529392,0.6009970516780646 l -14.444209111416814 3.0918746681281344" fill="#ff9a0e" stroke="none" /><path d="M 120.67395015179393 96.31383870115 l 62.02185045538181 -11.058483896549978 a84.0,84.0 0 0,0 0.2415525539191079,1.4256568467366484 l -62.20301487082114 9.98924126149749" fill="#4dd2ff" stroke="none" /><path d="M 120.87857604477298 97.74499172005257 l 9.28629330274719 -1.0029739692404853 a30.34029978574678,30.34029978574678 0 0,0 0.05161155790522554,0.5197213446998146 l -9.302181986334645 0.8429770938362356" fill="#ff4c07" stroke="none" /><path d="M 120.94382443527127 98.46500227214037 l 11.54422824114486 -0.8460901768355019 a32.575192191535486,32.575192191535486 0 0,0 0.036173058563056484,0.5595812053957967 l -11.55708189071233 0.64724990718667" fill="#ff6d0a" stroke="none" /><path d="M 120.96714384426684 98.82574320788733 l 62.52474067606118 -3.5016739504090206 a83.62271885716615,83.62271885716615 0 0,0 0.06811823758813648,1.4378683339671492 l -62.57575252188281 2.4248945098188717" fill="#4dd6ff" stroke="none" /><line stroke="#e1ed5e" stroke-width="0.3" x1="184.98032266829074" x2="189.97916517819016" y1="98.17113171792111" y2="98.06355123074" /><path d="M 185.9800911702706 98.14961562048488 a86.0,86.0 0 0,1 -9.607161424134198,41.387399972396054" fill="none" id="id124" stroke="none" /><text fill="#e1ed5e" style="font-size:6.75px; font-family:Arial;" text-anchor="middle"><textPath startOffset="21.466115282336823" xlink:href="#id124">April</textPath></text><path d="M 120.99980553446 99.90962569577887 l 14.769172214694674 -0.06356028681478934 a35.76930898239214,35.76930898239214 0 0,0 -0.002649829092214841,0.6157269603970744 l -14.768078088312956 -0.19067615178596975" fill="#ff9a0e" stroke="none" /><path d="M 120.9764740272857 100.99374915477107 l 17.403575383717772 0.8244850066349273 a38.423094204615694,38.423094204615694 0 0,0 -0.03698433066988134,0.6603800687787755 l -17.38680470216036 -1.123936791749126" fill="#ffbe11" stroke="none" /><path d="M 120.95626037817324 101.35467743843564 l 17.889083360198594 1.1564056365512652 a38.92642121184208,38.92642121184208 0 0,0 -0.048979524157066225,0.6682866927100485 l -17.86652727737719 -1.464165465758084" fill="#ffc512" stroke="none" /><path d="M 120.89721153311464 102.0752229133903 l 15.253586552631253 1.5147758960682989 a36.32861535605622,36.32861535605622 0 0,0 -0.06715205894169747,0.6217446657047263 l -15.225252192188504 -1.7771168836578166" fill="#ffa20e" stroke="none" /><path d="M 120.8583938346157 102.4346265915055 l 16.309833700372362 1.903711050083873 a37.42056001164435,37.42056001164435 0 0,0 -0.08018422493627347,0.6391471667047572 l -16.27464796618924 -2.184175971076025" fill="#ffb110" stroke="none" /><path d="M 120.76222939487914 103.15116336523771 l 23.122028541915693 3.509319152847622 a44.38682374350367,44.38682374350367 0 0,0 -0.12115118411677803,0.7544085391430129 l -23.058195603437625 -3.9068069216838404" fill="#f2ff19" stroke="none" /><path d="M 120.5718875245553 104.21870165774334 l 15.215497439300439 3.1202603161205964 a36.53214044379316,36.53214044379316 0 0,0 -0.13163045353015523,0.6149336568585021 l -15.15953294704584 -3.3817077923952676" fill="#ffa40f" stroke="none" /><path d="M 120.41448212921028 104.9243191809786 l 16.663032204028177 4.019405859830855 a38.14095288187103,38.14095288187103 0 0,0 -0.15944495833492708,0.6369033502156111 l -16.59137593139819 -4.305637049443862" fill="#ffba11" stroke="none" /><path d="M 120.23288151984713 105.62410040840565 l 10.665922190139593 2.9647886430187675 a32.0703147138591,32.0703147138591 0 0,0 -0.15242159742015257,0.5305995764545597 l -10.61330795583334 -3.1479456949779094" fill="#ff6509" stroke="none" /><path d="M 120.02730092923936 106.31721596034902 l 30.912449058067523 9.75072064144177 a53.41382513365336,53.41382513365336 0 0,0 -0.28413038906153465,0.8744634208258911 l -30.740026417989743 -10.281382962245457" fill="#85ff25" stroke="none" /><path d="M 119.79798401119884 107.00284435728193 l 15.77040733095509 5.578229981757064 a37.72789278760524,37.72789278760524 0 0,0 -0.22183235441262542,0.6103873661383513 l -15.672050715537239 -5.848865144901547" fill="#ffb510" stroke="none" /><path d="M 119.54520255179757 107.68017299344265 l 15.43499673541796 6.065091664671955 a37.58386146599266,37.58386146599266 0 0,0 -0.24178483000799686,0.60009011945026 l -15.32830929115257 -6.329881151965028" fill="#ffb310" stroke="none" /><path d="M 119.26925614724726 108.34839909993367 l 28.67880847389221 12.42508465407549 a52.25470819161705,52.25470819161705 0 0,0 -0.3646853976308221,0.8222692975242397 l -28.460681991530116 -12.916902288092418" fill="#92ff23" stroke="none" /><line stroke="#e1ed5e" stroke-width="0.3" x1="174.80103733775053" x2="179.2010983576182" y1="140.37084112569926" y2="142.7455964860345" /><path d="M 175.68104954172406 140.8457921977663 a86.0,86.0 0 0,1 -30.038265399797805,32.042727171017184" fill="none" id="id125" stroke="none" /><text fill="#e1ed5e" style="font-size:6.75px; font-family:Arial;" text-anchor="middle"><textPath startOffset="22.206326154141568" xlink:href="#id125">May</textPath></text><path d="M 118.48025628344425 109.97397251340804 l 26.239331476581235 14.161620212598464 a50.81700862567847,50.81700862567847 0 0,0 -0.4220802431154499,0.7661982427487068 l -25.991674824014275 -14.611188973744976" fill="#a3ff21" stroke="none" /><path d="M 118.12598468904814 110.60418214915192 l 12.219699512970042 7.1488485545136005 a35.15722754788703,35.15722754788703 0 0,0 -0.3100852809189428,0.5197207668921823 l -12.094833356352872 -7.358131415291886" fill="#ff910d" stroke="none" /><path d="M 117.75023020441432 111.22182372390056 l 13.77256076606785 8.707112379031912 a37.294085922079894,37.294085922079894 0 0,0 -0.34771431658769797,0.5396603410663573 l -13.620641586103101 -8.942894320019722" fill="#ffaf10" stroke="none" /><path d="M 117.35343817320211 111.8261652097733 l 13.566502010578668 9.245412493737552 a37.41729664050673,37.41729664050673 0 0,0 -0.367293694567586,0.5291139610827976 l -13.405347408848947 -9.47756771700737" fill="#ffb110" stroke="none" /><path d="M 116.498646956653 112.99209946851258 l 29.336532595629826 23.101479202813653 a58.340467138112814,58.340467138112814 0 0,0 -0.6280826010609393,0.7836296169383037 l -28.934532082514032 -23.603036653330207" fill="#4fff2b" stroke="none" /><path d="M 116.27256486870786 113.27417163493432 l 8.698330801039388 7.09557079182202 a32.225332226088824,32.225332226088824 0 0,0 -0.35433133884587686,0.42681492354549744 l -8.574903462299966 -7.244246972481288" fill="#ff6809" stroke="none" /><path d="M 115.80600337817218 113.82643327865902 l 12.478554749804678 10.915719839749904 a37.57912145633123,37.57912145633123 0 0,0 -0.4300861561914029,0.48320635579307897 l -12.288809743964936 -11.12890036528385" fill="#ffb310" stroke="none" /><path d="M 115.32070863581623 114.36230785411682 l 19.928397626649797 18.68175869385605 a48.31573063019416,48.31573063019416 0 0,0 -0.5740218217891494,0.6018595852369224 l -19.603869253481683 -19.02202539567548" fill="#c1ff1e" stroke="none" /><path d="M 115.07121518719521 114.62390073753431 l 7.580821800826357 7.35582261597662 a31.563000782618417,31.563000782618417 0 0,0 -0.3817009500059721,0.3866610471344909 l -7.4530802257648485 -7.485224157091776" fill="#ff5e08" stroke="none" /><path d="M 114.81725581225074 114.88116024355365 l 12.901633290531551 12.957275951275014 a39.28505241012018,39.28505241012018 0 0,0 -0.48329976957495085,0.47301054564667866 l -12.676683568580806 -13.177436599844265" fill="#ffca12" stroke="none" /><path d="M 114.29624159901734 115.38237550388516 l 12.078837326924297 12.99650751746285 a38.74281597779135,38.74281597779135 0 0,0 -0.4924035733045187,0.44979898943763996 l -11.853334204152914 -13.202499273487074" fill="#ffc312" stroke="none" /><path d="M 114.0293411484842 115.62618273729858 l 12.84575184033496 14.307875439806478 a40.22832909913096,40.22832909913096 0 0,0 -0.5192474396242804,0.45817549360383586 l -12.597562047804091 -14.526874075182604" fill="#ffd714" stroke="none" /><path d="M 113.48314897796784 116.09983520530334 l 11.464273183086005 13.689154462200536 a38.85560162824008,38.85560162824008 0 0,0 -0.5164647184671116,0.42501530255941494 l -11.226938336074202 -13.88446488361713" fill="#ffc412" stroke="none" /><path d="M 113.20401910651253 116.32954008644616 l 23.597278774871903 29.182986375357547 a58.52969836493926,58.52969836493926 0 0,0 -0.7888758369385507,0.6267306755135461 l -23.091445445216003 -29.58485096487622" fill="#4dff2c" stroke="none" /><path d="M 112.63410532772338 116.77436683061366 l 9.494494853954407 12.60588980544013 a36.781441325768256,36.781441325768256 0 0,0 -0.5090114123302849,0.3765544740977188 l -9.276098471205557 -12.767454228277618" fill="#ffa80f" stroke="none" /><path d="M 112.34349029814194 116.9893568818739 l 13.030174730242791 17.934496919286524 a43.168257334498705,43.168257334498705 0 0,0 -0.604916116091901,0.4315915873125415 l -12.719531286302006 -18.156132768443285" fill="#fffd17" stroke="none" /><path d="M 111.7513745106137 117.40417183066458 l 11.787624776920588 17.45785966634223 a42.064780132039616,42.064780132039616 0 0,0 -0.6035801212249527,0.4000199921298525 l -11.48536995695567 -17.6581776795634" fill="#ffef16" stroke="none" /><path d="M 111.1453310114006 117.79835938074945 l 19.679119045059018 31.426256672164623 a58.07933838156199,58.07933838156199 0 0,0 -0.8518878226519473,0.523299079084227 l -19.135252022474763 -31.76034421807723" fill="#52ff2b" stroke="none" /><line stroke="#e1ed5e" stroke-width="0.3" x1="143.8653032363475" x2="146.44561519142675" y1="172.8068346515853" y2="177.08958963109032" /><path d="M 144.38136562736335 173.6633856474863 a86.0,86.0 0 0,1 -40.68145358897372,12.25698825130547" fill="none" id="id126" stroke="none" /><text fill="#e1ed5e" style="font-size:6.75px; font-family:Arial;" text-anchor="middle"><textPath startOffset="21.466115282336833" xlink:href="#id126">June</textPath></text><path d="M 110.21172684928248 118.3499491758327 l 8.691085733773534 15.617435116642843 a38.87286353258344,38.87286353258344 0 0,0 -0.587493339170718,0.3203482108181083 l -8.420969582734166 -15.764723979220722" fill="#ffc412" stroke="none" /><path d="M 109.89434966115114 118.52300852407294 l 10.563518882596176 19.77574646212469 a43.42026046497237,43.42026046497237 0 0,0 -0.662281163885704,0.3464742036041506 l -10.221546816183976 -19.954650084673556" fill="#feff18" stroke="none" /><path d="M 108.92500713936063 119.00905698771935 l 15.953316353458373 33.978404159319254 a58.53718492225498,58.53718492225498 0 0,0 -0.9157780326019821,0.42038877869149155 l -15.366070325088971 -34.24798000834482" fill="#4dff2c" stroke="none" /><path d="M 108.59647513512805 119.15986991738527 l 9.075421511954058 20.22734817250067 a43.1699997679568,43.1699997679568 0 0,0 -0.680604495152384,0.2983570095524145 l -8.72589634214392 -20.38056973534754" fill="#fffd17" stroke="none" /><path d="M 107.93186726928326 119.44442032107085 l 7.364519309095336 18.053606300655062 a40.49791899442323,40.49791899442323 0 0,0 -0.6477332121138353,0.25774641279009836 l -7.052665020939634 -18.177699557851227" fill="#ffda14" stroke="none" /><path d="M 107.59598834532513 119.57807347666477 l 5.676081779484413 14.629662538476087 a36.69219329338909,36.69219329338909 0 0,0 -0.5907963437197609,0.22338862476121607 l -5.423415215004377 -14.725199413343933" fill="#ffa70f" stroke="none" /><path d="M 107.2578585660854 119.70592522655815 l 6.993775724301132 18.988909775453173 a41.235898629468494,41.235898629468494 0 0,0 -0.6681795096887264,0.23958539948611376 l -6.6658766539826715 -19.106482715979247" fill="#ffe415" stroke="none" /><path d="M 106.57524785965236 119.94407469862006 l 7.848751952018277 23.806873681909938 a46.06731221552735,46.06731221552735 0 0,0 -0.7552377278494022,0.24180327083600503 l -7.437792879077934 -23.93844979940565" fill="#ddff1b" stroke="none" /><path d="M 105.88484417918355 120.15858648285463 l 4.358785057017407 14.931057281494631 a36.5542752552651,36.5542752552651 0 0,0 -0.6055282397062755,0.17112832899909652 l -4.1011256492065264 -15.003874403832246" fill="#ffa50f" stroke="none" /><path d="M 105.53697534728816 120.25689768951611 l 5.624502563341036 20.57711400788923 a42.33196310653806,42.33196310653806 0 0,0 -0.704544080013626,0.18607649503309487 l -5.269468040515912 -20.670881852225907" fill="#fff216" stroke="none" /><path d="M 104.83641907484287 120.43548508189849 l 3.461632445931495 14.626552644250998 a36.03060016918059,36.03060016918059 0 0,0 -0.604764788805633,0.13764249698705253 l -3.2093475077330003 -14.683971874815734" fill="#ff9e0e" stroke="none" /><line stroke="#e1ed5e" stroke-width="0.3" x1="102.19456741930631" x2="102.32365962044197" y1="184.97166512339345" y2="189.96999836594603" /><path d="M 102.22038585953345 185.97133177190398 a86.0,86.0 0 0,1 -42.740103519485714,-10.115201625700543" fill="none" id="id127" stroke="none" /><text fill="#e1ed5e" style="font-size:6.75px; font-family:Arial;" text-anchor="middle"><textPath startOffset="22.20632615414155" xlink:href="#id127">July</textPath></text><line stroke="#e1ed5e" stroke-width="0.3" x1="58.666819895761336" x2="56.23545636021788" y1="174.27360380694188" y2="178.64263932499728" /><path d="M 58.180547188652646 175.14741091055294 a86.0,86.0 0 0,1 -31.652253787137756,-30.449443065178592" fill="none" id="id128" stroke="none" /><text fill="#e1ed5e" style="font-size:6.75px; font-family:Arial;" text-anchor="middle"><textPath startOffset="22.20632615414155" xlink:href="#id128">August</textPath></text><line stroke="#e1ed5e" stroke-width="0.3" x1="26.63291911575756" x2="22.317208475507996" y1="142.92168965132927" y2="145.44649492493687" /><path d="M 25.769776987707644 143.4266507060508 a86.0,86.0 0 0,1 -11.730757126820373,-40.83630448921669" fill="none" id="id129" stroke="none" /><text fill="#e1ed5e" style="font-size:6.75px; font-family:Arial;" text-anchor="middle"><textPath startOffset="21.46611528233685" xlink:href="#id129">September</textPath></text><line stroke="#e1ed5e" stroke-width="0.3" x1="15.007084014347285" x2="10.007500721073583" y1="101.09737516637583" y2="101.16192664675087" /><path d="M 14.007167355692545 101.11028546245083 a86.0,86.0 0 0,1 10.666146001902534,-42.60595125391555" fill="none" id="id130" stroke="none" /><text fill="#e1ed5e" style="font-size:6.75px; font-family:Arial;" text-anchor="middle"><textPath startOffset="22.20632615414155" xlink:href="#id130">October</textPath></text><line stroke="#e1ed5e" stroke-width="0.3" x1="26.266209847984243" x2="21.928928074336255" y1="57.711370442889674" y2="55.22380399835377" /><path d="M 25.398753493254645 57.213857153982495 a86.0,86.0 0 0,1 29.58750427330803,-30.492523968695096" fill="none" id="id131" stroke="none" /><text fill="#e1ed5e" style="font-size:6.75px; font-family:Arial;" text-anchor="middle"><textPath startOffset="21.46611528233685" xlink:href="#id131">November</textPath></text><line stroke="#e1ed5e" stroke-width="0.3" x1="56.762969772571076" x2="54.21961505331055" y1="26.818313649435495" y2="22.513508569990535" /><path d="M 56.25429882871897 25.957352633546506 a86.0,86.0 0 0,1 42.265352541879196,-11.944610805530505" fill="none" id="id132" stroke="none" /><text fill="#e1ed5e" style="font-size:6.75px; font-family:Arial;" text-anchor="middle"><textPath startOffset="22.20632615414155" xlink:href="#id132">December</textPath></text></svg>