<?xml version="1.0" encoding="utf-8" ?>
<svg baseProfile="full" height="200mm" version="1.1" viewBox="0,0,200,200" width="200mm" xmlns="http://www.w3.org/2000/svg" xmlns:ev="http://www.w3.org/2001/xml-events" xmlns:xlink="http://www.w3.org/1999/xlink"><defs /><rect fill="#1a1a1a" height="200" width="200" x="0" y="0" /><text alignment-baseline="middle" fill="#e1ed5e" style="dominant-baseline: central; font-size:9.0px; font-family:Arial;" text-anchor="middle" x="100.0" y="100.0">2020</text><line stroke="#e1ed5e" stroke-width="0.3" x1="100.0" x2="100.0" y1="15.0" y2="10.0" /><path d="M 100.0 14.0 a86.0,86.0 0 0,1 42.35913384403234,11.155469271406648" fill="none" id="id13" stroke="none" /><text fill="#e1ed5e" style="font-size:6.75px; font-family:Arial;" text-anchor="middle"><textPath startOffset="22.145653131862478" xlink:href="#id13">January</textPath></text><path d="M 101.44090949804482 79.04949213459386 l 4.322728494134444 -62.8515235962184 a84.0,84.0 0 0,0 1.437724020899066,0.1112889320197854 l -5.401021509808744 62.76805689720356" fill="#4dd2ff" stroke="none" /><line stroke="#e1ed5e" stroke-width="0.3" x1="143.13028292997686" x2="145.6673583964461" y1="26.7553504044142" y2="22.446841604673864" /><path d="M 143.63769802327073 25.89364864446614 a86.0,86.0 0 0,1 29.32050498858742,28.57503671076993" fill="none" id="id14" stroke="none" /><text fill="#e1ed5e" style="font-size:6.75px; font-family:Arial;" text-anchor="middle"><textPath startOffset="20.669276256404974" xlink:href="#id14">February</textPath></text><path d="M 114.39649973595853 84.71141617570332 l 7.230270042128302 -7.678296227469752 a31.546707440660057,31.546707440660057 0 0,0 0.39107028224577595,0.3746364840237769 l -7.36101281023939 7.553047613140395" fill="#ff4606" stroke="none" /><path d="M 115.16444852881244 85.47280134310134 l 6.56449571962621 -6.288638404501151 a30.09063127816532,30.09063127816532 0 0,0 0.35412971331389453,0.3760734835531328 l -6.6714812666763645 6.175023461003524" fill="#ff3004" stroke="none" /><path d="M 115.6541949942343 86.00192230759917 l 8.8466300473818 -7.910711139396743 a32.8676962349992,32.8676962349992 0 0,0 0.3724832408142719,0.4238175522412198 l -8.98112435215466 7.757681309344226" fill="#ff5a08" stroke="none" /><path d="M 116.35404254752997 86.82634096563983 l 11.652446767675789 -9.386386282612294 a35.96274584158704,35.96274584158704 0 0,0 0.38314635671755654,0.48409290530866644 l -11.811859555034903 9.184973433388949" fill="#ff880c" stroke="none" /><path d="M 117.42321728460499 88.27688183743584 l 9.984845510593491 -6.7182496690242886 a33.03461750475535,33.03461750475535 0 0,0 0.31253196037126335,0.4732132217525317 l -10.098701909885477 6.545856568932698" fill="#ff5c08" stroke="none" /><line stroke="#e1ed5e" stroke-width="0.3" x1="172.87174338648825" x2="177.1583165268699" y1="56.24261187166439" y2="53.66864786411523" /><path d="M 173.72905801456457 55.72781907015455 a86.0,86.0 0 0,1 12.242430191666344,42.057860355516425" fill="none" id="id15" stroke="none" /><text fill="#e1ed5e" style="font-size:6.75px; font-family:Arial;" text-anchor="middle"><textPath startOffset="22.145653131862474" xlink:href="#id15">March</textPath></text><path d="M 118.00360718960297 89.18935116829356 l 14.142717827485622 -8.492295702116627 a37.49653157000186,37.49653157000186 0 0,0 0.3266238763382132,0.554678748822136 l -14.286415413953602 8.248265785000934" fill="#ff9e0e" stroke="none" /><path d="M 118.36410011445183 89.81374322990088 l 7.0928509622997815 -3.934284864694926 a29.110926714621733,29.110926714621733 0 0,0 0.23864673385376792,0.4390831109491181 l -7.159343045768891 3.811946920271205" fill="#ff2003" stroke="none" /><path d="M 118.70294669586156 90.45014215332178 l 9.560289514976366 -4.881551946106688 a31.734462492957206,31.734462492957206 0 0,0 0.24356968660922476,0.4873025340830948 l -9.642679114797328 4.716717555859843" fill="#ff4906" stroke="none" /><path d="M 119.0197475246899 91.09779779509293 l 13.55770360560996 -6.345689856012187 a35.96927208672036,35.96927208672036 0 0,0 0.2569499809935055,0.5614820805592738 l -13.664638051458518 6.112018793238229" fill="#ff880c" stroke="none" /><path d="M 119.58574465831526 92.42381321644754 l 8.095133147205438 -3.131371404605595 a29.679669783152228,29.679669783152228 0 0,0 0.17973063385412755,0.4767568595819157 l -8.147694464874007 2.9919462648295214" fill="#ff2904" stroke="none" /><path d="M 120.05942366710727 93.78553927170692 l 13.719122337758318 -4.250219169279958 a35.36240511562371,35.36240511562371 0 0,0 0.17466279962452597,0.5813956539531382 l -13.790061457386471 4.014085911736096" fill="#ff7f0b" stroke="none" /><path d="M 120.26092885502905 94.47779374421319 l 8.48820631298028 -2.313498375979643 a29.79783616279473,29.79783616279473 0 0,0 0.13027403852389371,0.4946717435169277 l -8.526669832308903 2.167446128089917" fill="#ff2b04" stroke="none" /><path d="M 120.51834098615036 95.52812308129327 l 10.646688267642922 -2.3203961546830114 a31.896614583577467,31.896614583577467 0 0,0 0.11200616077837564,0.5359900260111685 l -10.684952139245665 2.1372896773864385" fill="#ff4b07" stroke="none" /><path d="M 120.65975698304385 96.23510406497455 l 21.15176340536054 -3.854555894767806 a42.50010921605373,42.50010921605373 0 0,0 0.12463699917479253,0.7188730902465721 l -21.214815222027568 3.4908897716006413" fill="#ffe315" stroke="none" /><path d="M 120.82617615685814 97.30363454192243 l 8.901140134520993 -1.1524307974475105 a29.975432715879826,29.975432715879826 0 0,0 0.061689317402102394,0.5108760431414372 l -8.919611538182759 0.9994610773826603" fill="#ff2e04" stroke="none" /><path d="M 120.9064616781168 98.02013634271609 l 6.035523618040539 -0.5715703617386856 a27.062527362605735,27.062527362605735 0 0,0 0.03982879435340031,0.4628709634984865 l -6.04444603509168 0.46787835086453716" fill="#ff0000" stroke="none" /><path d="M 120.96210409425399 98.7389718711861 l 15.371535950625113 -0.924713431898564 a36.39932506353749,36.39932506353749 0 0,0 0.0321673151444187,0.6240373202344202 l -15.385144855226104 0.6607043182874133" fill="#ff8e0d" stroke="none" /><line stroke="#e1ed5e" stroke-width="0.3" x1="184.99686870605535" x2="189.99668451229388" y1="99.2704041080226" y2="99.22748670261217" /><path d="M 185.99683186730306 99.26182062694052 a86.0,86.0 0 0,1 -10.086455211305974,41.156179273409016" fill="none" id="id16" stroke="none" /><text fill="#e1ed5e" style="font-size:6.75px; font-family:Arial;" text-anchor="middle"><textPath startOffset="21.40746469413373" xlink:href="#id16">April</textPath></text><path d="M 120.98066250479742 100.90099992219065 l 8.321826789085305 0.3573750489402037 a29.329496865546133,29.329496865546133 0 0,0 -0.02591946875537953,0.5028307694126368 l -8.314465730873353 -0.5001776117295712" fill="#ff2403" stroke="none" /><path d="M 120.9064616781168 101.97986365728391 l 11.645658608915376 1.1028559782098897 a32.69776285210459,32.69776285210459 0 0,0 -0.057715611434732,0.5583461852490411 l -11.625010604998977 -1.3026066857418621" fill="#ff5708" stroke="none" /><path d="M 120.7213421655516 103.40968896794604 l 17.264587978547596 2.840881381923768 a38.49675984561631,38.49675984561631 0 0,0 -0.11289666576428123,0.6511579670069458 l -17.21327649529108 -3.136832381851302" fill="#ffac0f" stroke="none" /><path d="M 120.51834098615036 104.47187691870673 l 11.232047657959336 2.447972509343997 a32.49571502766025,32.49571502766025 0 0,0 -0.1234669097678419,0.5440179856108225 l -11.188369886633831 -2.640424828893836" fill="#ff5407" stroke="none" /><path d="M 120.16314734710363 105.8691983318838 l 8.973925917125575 2.612179047077589 a30.346380354984987,30.346380354984987 0 0,0 -0.1498875354756477,0.49892685731950037 l -8.927762061646298 -2.7658435079878134" fill="#ff3304" stroke="none" /><path d="M 119.94978838288452 106.5578916946017 l 12.034124412743427 3.9558557225519206 a33.66763375216674,33.66763375216674 0 0,0 -0.185195358073217,0.5474971690848658 l -11.964443633097845 -4.1618545661109465" fill="#ff6609" stroke="none" /><path d="M 119.58574465831526 107.57618678355244 l 11.667617899023057 4.513285252321988 a33.510117953338025,33.510117953338025 0 0,0 -0.21213711822658188,0.534724116153193 l -11.58842210583035 -4.712910385688746" fill="#ff6309" stroke="none" /><path d="M 118.8641267826498 109.22738970284198 l 9.609414227450957 4.700446032533968 a31.697431219666765,31.697431219666765 0 0,0 -0.24328546261671594,0.4867338957039656 l -9.527308851622507 -4.864711784401679" fill="#ff4806" stroke="none" /><path d="M 118.5362547648365 109.86951160357373 l 7.4304681782153095 3.9563057821151046 a29.41808842844192,29.41808842844192 0 0,0 -0.24116479658968865,0.4437160627678896 l -7.361458032010281 -4.083276678357597" fill="#ff2503" stroke="none" /><line stroke="#e1ed5e" stroke-width="0.3" x1="174.33088141563837" x2="178.70328620479359" y1="141.23008692659167" y2="143.65538615756765" /><path d="M 175.20536237346943 141.71514677278685 a86.0,86.0 0 0,1 -30.301960400862466,31.631185727798858" fill="none" id="id17" stroke="none" /><text fill="#e1ed5e" style="font-size:6.75px; font-family:Arial;" text-anchor="middle"><textPath startOffset="22.145653131862474" xlink:href="#id17">May</textPath></text><path d="M 118.18653347947321 110.5 l 7.150374871298153 4.1282708567507225 a29.25654171350145,29.25654171350145 0 0,0 -0.2548471728611703,0.43278621443191717 l -7.078453988307218 -4.250408239476189" fill="#ff2303" stroke="none" /><path d="M 117.62189284568427 111.42229804090321 l 15.051676569000724 9.756314902829034 a38.937074678468875,38.937074678468875 0 0,0 -0.3683735789776366,0.557764549614194 l -14.88197855110236 -10.01325933078229" fill="#ffb210" stroke="none" /><path d="M 116.79662413953412 112.60449989151573 l 8.324410060245224 6.24679250006744 a31.407603921653184,31.407603921653184 0 0,0 -0.3273091435377616,0.42845817565559263 l -8.21594893935316 -6.388771588963911" fill="#ff4406" stroke="none" /><path d="M 116.1254893667686 113.45245675266167 l 8.92649653567612 7.446800891911838 a32.624851995841354,32.624851995841354 0 0,0 -0.362455015971693,0.4269710974344801 l -8.797346956197313 -7.598938771795875" fill="#ff5608" stroke="none" /><path d="M 115.6541949942343 113.99807769240083 l 11.33005663127994 10.131406504286705 a36.199196722955904,36.199196722955904 0 0,0 -0.4181908739364853,0.4596650267146764 l -11.154468056501575 -10.324409106559052" fill="#ff8b0c" stroke="none" /><path d="M 115.16444852881244 114.52719865689866 l 15.366131899909961 14.720406764147654 a42.279294745535964,42.279294745535964 0 0,0 -0.5065727902862941,0.5197883094608159 l -15.11117230847286 -14.982017765676208" fill="#ffe015" stroke="none" /><path d="M 114.39649973595853 115.28858382429668 l 8.289193059489783 8.802835776063734 a33.09134563552962,33.09134563552962 0 0,0 -0.41690404201526776,0.385880157273378 l -8.13685924616055 -8.943833679469492" fill="#ff5d08" stroke="none" /><path d="M 113.86319453409587 115.77377054828091 l 7.243621913288081 8.241912043987451 a31.97265567506302,31.97265567506302 0 0,0 -0.4153712645063705,0.358787805262564 l -7.101071169018855 -8.365043981714733" fill="#ff4c07" stroke="none" /><path d="M 113.31354834802062 116.24036423190432 l 14.608975587350331 17.820574830363796 a44.043329945916966,44.043329945916966 0 0,0 -0.5888157596812202,0.4743082959185335 l -14.300909057313858 -18.068731420075732" fill="#fff817" stroke="none" /><path d="M 112.45986205192187 116.90419585922612 l 7.074808546654352 9.598336549859736 a32.92396664269851,32.92396664269851 0 0,0 -0.45782968921342876,0.331433388171667 l -6.9089978470669555 -9.71837070940448" fill="#ff5b08" stroke="none" /><path d="M 111.8722381534696 117.32195027204791 l 7.6611748368664365 11.177883043971995 a34.55133459205226,34.55133459205226 0 0,0 -0.49211582988977337,0.3311174927815229 l -7.46816271887966 -11.307750210810639" fill="#ff730a" stroke="none" /><path d="M 110.96478420261333 117.91015095944535 l 9.317570774832205 15.219551618059874 a38.845219993006424,38.845219993006424 0 0,0 -0.5717040506742118,0.34329185603828705 l -9.054933967600558 -15.377257474634085" fill="#ffb110" stroke="none" /><line stroke="#e1ed5e" stroke-width="0.3" x1="143.1302829299769" x2="145.66735839644613" y1="173.24464959558577" y2="177.55315839532614" /><path d="M 143.63769802327073 174.10635135553383 a86.0,86.0 0 0,1 -40.68552437913181,11.842963189579606" fill="none" id="id18" stroke="none" /><text fill="#e1ed5e" style="font-size:6.75px; font-family:Arial;" text-anchor="middle"><textPath startOffset="21.407464694133747" xlink:href="#id18">June</textPath></text><path d="M 109.71004243097381 118.62028667847754 l 6.068750348405987 11.637628987796003 a34.12494339983482,34.12494339983482 0 0,0 -0.5217423993453199,0.2664053866674975 l -5.868080727347086 -11.740092326136336" fill="#ff6d0a" stroke="none" /><path d="M 108.4095320186766 119.2426549942271 l 3.587364579534571 8.208592200991182 a29.95824595267804,29.95824595267804 0 0,0 -0.47300493177740144,0.2018976787639288 l -3.4459245725867387 -8.268964529414514" fill="#ff2d04" stroke="none" /><path d="M 107.407793817531 119.65005319985036 l 3.145596846448815 8.34406935459258 a29.917301885359706,29.917301885359706 0 0,0 -0.4821114052973411,0.17703798596397213 l -3.001896289497347 -8.396838189565274" fill="#ff2d04" stroke="none" /><path d="M 107.06938296918513 119.77432235084164 l 5.997693729862475 16.77661681265419 a38.81648679610722,38.81648679610722 0 0,0 -0.6293709382650063,0.21892788277674055 l -5.7088170195524475 -16.877103127999522" fill="#ffb010" stroke="none" /><path d="M 105.3480935250658 120.30758222061773 l 3.1864019466361246 12.099287197572577 a33.51183072355401,33.51183072355401 0 0,0 -0.5575645842445845,0.14173073697562502 l -2.978232069166143 -12.152203166383472" fill="#ff6309" stroke="none" /><path d="M 104.64783097203109 120.47920084513623 l 2.7031331833287005 11.910503567290812 a33.21339527867906,33.21339527867906 0 0,0 -0.5570955280397769,0.12141637742726766 l -2.4982752386697875 -11.955151402851799" fill="#ff5f08" stroke="none" /><path d="M 104.29559338865022 120.5559693870025 l 3.0310317816940446 14.504584321262426 a35.817898636252416,35.817898636252416 0 0,0 -0.6029406213719577,0.12060501061132758 l -2.7815946747911284 -14.554478728536616" fill="#ff850c" stroke="none" /><path d="M 103.58742460773223 120.69131181640829 l 2.5263460971151703 14.571292937810444 a35.78867818575729,35.78867818575729 0 0,0 -0.6062303793651251,0.09975497822681308 l -2.275838214696973 -14.61251391453293" fill="#ff850c" stroke="none" /><path d="M 102.15924093988457 120.88869738790638 l 3.207123881891242 31.026014289046966 a52.19133222961058,52.19133222961058 0 0,0 -0.8919758059392839,0.08447103620619954 l -2.6740485125669426 -31.07649708075835" fill="#9fff22" stroke="none" /><path d="M 101.08105385017728 120.97215588758144 l 0.7708457583432897 14.954201778759959 a35.97405603111673,35.97405603111673 0 0,0 -0.6169965842433623,0.026496488100315355 l -0.5140234134990979 -14.965230835286105" fill="#ff880c" stroke="none" /><line stroke="#e1ed5e" stroke-width="0.3" x1="101.45913802915013" x2="101.54496967792366" y1="184.9874750549273" y2="189.98673829345242" /><path d="M 101.47630435890484 185.9873277026323 a86.0,86.0 0 0,1 -42.54439059252881,-10.42667462771756" fill="none" id="id19" stroke="none" /><text fill="#e1ed5e" style="font-size:6.75px; font-family:Arial;" text-anchor="middle"><textPath startOffset="22.145653131862474" xlink:href="#id19">July</textPath></text><path d="M 100.36049292484886 120.99690560180557 l 0.15697082562600315 9.142763645884466 a30.144111051633413,30.144111051633413 0 0,0 -0.5174637504748543,0.004441803943381899 l -1.1198306330430796e-15 -9.144111051633413" fill="#ff3004" stroke="none" /><path d="M 98.19965949673042 120.92268563240118 l -1.0232020623256037 11.891158949978642 a32.93509964910241,32.93509964910241 0 0,0 -0.5628772211438517,-0.05330505806356339 l 1.2271788468544707 -11.871842136409894" fill="#ff5b08" stroke="none" /><path d="M 96.41257539226777 120.69131181640829 l -1.4036929251036667 8.096127775118985 a29.216911754366063,29.216911754366063 0 0,0 -0.49343922819892805,-0.08992106470337223 l 1.542466886853652 -8.070838536484246" fill="#ff2203" stroke="none" /><path d="M 95.70440661134978 120.55596938700252 l -3.632224498898752 17.381509107300456 a38.756968031101735,38.756968031101735 0 0,0 -0.6500790837354601,-0.14168171061455986 l 3.9300659992533484 -17.31659593855218" fill="#ffb010" stroke="none" /><path d="M 93.61358852112213 120.00534299687104 l -3.653273460209028 11.443827081071342 a33.0128092150225,33.0128092150225 0 0,0 -0.53838745345325,-0.17697864968371835 l 3.849183651310022 -11.379427509985604" fill="#ff5c08" stroke="none" /><path d="M 92.93061703081489 119.77432235084164 l -3.1368314625962093 8.774275884050683 a30.31813441168171,30.31813441168171 0 0,0 -0.48857074221531716,-0.17940994395139095 l 3.286991356465645 -8.719135091090573" fill="#ff3304" stroke="none" /><path d="M 91.59046798132341 119.24265499422711 l -6.543945077835524 14.973826980419313 a37.341319151808435,37.341319151808435 0 0,0 -0.585167983454778,-0.2617381959630571 l 6.800026464145937 -14.859285033546401" fill="#ff9b0e" stroke="none" /><path d="M 91.26138138417905 119.09545874513695 l -3.698126235952946 8.081073231082291 a29.887062631891276,29.887062631891276 0 0,0 -0.46468872659724547,-0.2174977875568248 l 3.8363036764216814 -8.01639921195494" fill="#ff2c04" stroke="none" /><path d="M 90.93487009805054 118.94263497670748 l -3.955735230839911 8.26596522639879 a30.163734082814827,30.163734082814827 0 0,0 -0.46515314889066545,-0.22752971424396826 l 4.097048628992646 -8.196841762057602" fill="#ff3104" stroke="none" /><path d="M 90.28995756902619 118.62028667847754 l -8.259812088345354 15.839278776449204 a38.86357321178633,38.86357321178633 0 0,0 -0.5888963644994372,-0.31355414437630924 l 8.530497268631352 -15.695154164350322" fill="#ffb110" stroke="none" /><line stroke="#e1ed5e" stroke-width="0.3" x1="58.13341422392154" x2="55.67067388415222" y1="173.97424548756322" y2="178.32567169271397" /><path d="M 57.64086615596768 174.84453072859336 a86.0,86.0 0 0,1 -31.369924170532247,-30.572349798747897" fill="none" id="id20" stroke="none" /><text fill="#e1ed5e" style="font-size:6.75px; font-family:Arial;" text-anchor="middle"><textPath startOffset="22.145653131862474" xlink:href="#id20">August</textPath></text><path d="M 89.65649057296885 118.27599006163327 l -7.542275823569822 13.326478693336798 a36.3127711065883,36.3127711065883 0 0,0 -0.5398628882065769,-0.3116899838315584 l 7.769931179636799 -13.195041812229068" fill="#ff8d0d" stroke="none" /><path d="M 87.83215693770417 117.11559508785305 l -8.680304982745058 12.209936022605614 a35.98099570354357,35.98099570354357 0 0,0 -0.5003397148137095,-0.362207368426579 l 8.888625707932722 -12.05912788280597" fill="#ff880c" stroke="none" /><path d="M 87.2517909369889 116.68781488649013 l -4.631746234135654 6.063104501535127 a28.629830232316138,28.629830232316138 0 0,0 -0.3879888081380411,-0.3017024439374659 l 4.7351449869089235 -5.9827010059768675" fill="#ff1902" stroke="none" /><path d="M 86.96720088162412 116.46651593811092 l -5.521397401676344 6.976105247195568 a29.896733877507398,29.896733877507398 0 0,0 -0.3996897621430451,-0.3219617798286972 l 5.640337934174651 -6.88029517357346" fill="#ff2d04" stroke="none" /><path d="M 86.13680546590413 115.77377054828092 l -13.210530365015233 15.031158531776192 a41.01134276685045,41.01134276685045 0 0,0 -0.5248181951612902,-0.4692956663028085 l 13.466613586999893 -14.802167335590001" fill="#ffcf13" stroke="none" /><path d="M 85.08716467003676 114.78537596483092 l -8.493074131401146 8.420484190396762 a32.959801929889856,32.959801929889856 0 0,0 -0.3949105331912052,-0.40521299677331235 l 8.636371465743162 -8.27344850155571" fill="#ff5b08" stroke="none" /><path d="M 84.58840730492382 114.26474011684316 l -9.106700823335537 8.429026326930243 a33.4088873274691,33.4088873274691 0 0,0 -0.38595585133136134,-0.424233090126829 l 9.250054375508777 -8.27145566124574" fill="#ff6209" stroke="none" /><path d="M 83.8745106332314 113.45245675266167 l -10.505011955482233 8.763654596960459 a34.68053062127529,34.68053062127529 0 0,0 -0.37744502780878864,-0.46042156222366754 l 10.653903802529651 -8.582030753038296" fill="#ff750a" stroke="none" /><line stroke="#e1ed5e" stroke-width="0.3" x1="26.387840678322732" x2="22.057713659400548" y1="142.50000000000003" y2="145.00000000000006" /><path d="M 25.521815274538298 143.00000000000003 a86.0,86.0 0 0,1 -11.493303480769221,-40.785679425670985" fill="none" id="id21" stroke="none" /><text fill="#e1ed5e" style="font-size:6.75px; font-family:Arial;" text-anchor="middle"><textPath startOffset="21.40746469413373" xlink:href="#id21">September</textPath></text><path d="M 80.9802524753101 108.90220220490708 l -15.612681614425426 7.30752332606036 a38.23820536930495,38.23820536930495 0 0,0 -0.2731583257837405,-0.5969002390664574 l 15.735824405064223 -7.038434104779213" fill="#ffa80f" stroke="none" /><path d="M 80.05021161711548 106.5578916946017 l -14.663625517910724 4.820224964348826 a36.43555901276187,36.43555901276187 0 0,0 -0.19022013657994055,-0.5958618685593873 l 14.74421037026792 -4.567794062098048" fill="#ff8e0d" stroke="none" /><path d="M 79.48165901384964 104.47187691870673 l -17.960874672441207 3.9144890389378157 a39.38249829144843,39.38249829144843 0 0,0 -0.13829312273651762,-0.6617826549682206 l 18.025425506002094 -3.605589932684186" fill="#ffb811" stroke="none" /><line stroke="#e1ed5e" stroke-width="0.3" x1="15.003131293944662" x2="10.003315487706104" y1="100.72959589197737" y2="100.7725132973878" /><path d="M 14.003168132696942 100.73817937305945 a86.0,86.0 0 0,1 10.791469493833604,-42.45332614584628" fill="none" id="id22" stroke="none" /><text fill="#e1ed5e" style="font-size:6.75px; font-family:Arial;" text-anchor="middle"><textPath startOffset="22.145653131862435" xlink:href="#id22">October</textPath></text><line stroke="#e1ed5e" stroke-width="0.3" x1="26.387840678322718" x2="22.05771365940052" y1="57.49999999999999" y2="54.99999999999999" /><path d="M 25.521815274538284 56.99999999999999 a86.0,86.0 0 0,1 29.574782752854787,-30.34633250058573" fill="none" id="id23" stroke="none" /><text fill="#e1ed5e" style="font-size:6.75px; font-family:Arial;" text-anchor="middle"><textPath startOffset="21.40746469413373" xlink:href="#id23">November</textPath></text><line stroke="#e1ed5e" stroke-width="0.3" x1="56.869717070023135" x2="54.33264160355391" y1="26.7553504044142" y2="22.446841604673864" /><path d="M 56.362301976729285 25.89364864446614 a86.0,86.0 0 0,1 42.16139366436587,-11.88097634709845" fill="none" id="id24" stroke="none" /><text fill="#e1ed5e" style="font-size:6.75px; font-family:Arial;" text-anchor="middle"><textPath startOffset="22.145653131862474" xlink:href="#id24">December</textPath></text></svg>