<?xml version="1.0" encoding="utf-8" ?>
<svg baseProfile="full" height="200mm" version="1.1" viewBox="0,0,200,200" width="200mm" xmlns="http://www.w3.org/2000/svg" xmlns:ev="http://www.w3.org/2001/xml-events" xmlns:xlink="http://www.w3.org/1999/xlink"><defs /><rect fill="#1a1a1a" height="200" width="200" x="0" y="0" /><text alignment-baseline="middle" fill="#e1ed5e" style="dominant-baseline: central; font-size:9.0px; font-family:Arial;" text-anchor="middle" x="100.0" y="100.0">2026</text><line stroke="#e1ed5e" stroke-width="0.3" x1="100.0" x2="100.0" y1="15.0" y2="10.0" /><path d="M 100.0 14.0 a86.0,86.0 0 0,1 42.46469731375804,11.215312516191453" fill="none" id="id133" stroke="none" /><text fill="#e1ed5e" style="font-size:6.75px; font-family:Arial;" text-anchor="middle"><textPath startOffset="22.20632615414155" xlink:href="#id133">January</textPath></text><path d="M 100.0 79.0 l 0.0 -32.76811377883918 a53.76811377883918,53.76811377883918 0 0,0 0.9255296923026011,0.007966326261800574 l -0.5640492130300727 32.763258829185936" fill="#fffc17" stroke="none" /><path d="M 100.36148047927253 79.00311137660856 l 0.5209250265728702 -30.258355267481875 a51.26283903364749,51.26283903364749 0 0,0 0.882144030050146,0.0227831777177996 l -1.041695691817884 30.244905297621717" fill="#ffd013" stroke="none" /><path d="M 100.72285384407766 79.0124445844662 l 1.3596137037382556 -39.475432253300866 a60.498839236214764,60.498839236214764 0 0,0 1.0404624009506178,0.04480449965573276 l -2.0389169370782048 39.44618002712094" fill="#93ff23" stroke="none" /><path d="M 101.08401301168833 79.027996857942 l 2.1122310660524826 -40.864561657809205 a61.91911435455669,61.91911435455669 0 0,0 1.0639412553030483,0.06417984201741819 l -2.8153343701951425 40.82214854641148" fill="#7dff26" stroke="none" /><path d="M 101.80526077348638 79.07773832637324 l 2.2066067967103726 -25.573704081775517 a46.66872521216256,46.66872521216256 0 0,0 0.7997572168851104,0.07594658439506809 l -2.6464891406857274 25.531931952865268" fill="#ff7a0b" stroke="none" /><path d="M 102.16513564639614 79.11191278185805 l 3.079543393023341 -29.709811065461217 a50.86898828308243,50.86898828308243 0 0,0 0.8701825880979458,0.09777515285532384 l -3.590492684631012 29.65239995913529" fill="#ffc912" stroke="none" /><path d="M 102.52436894288641 79.15227682838746 l 4.122254302032451 -34.04400009512738 a55.29266573201416,55.29266573201416 0 0,0 0.9438860136412386,0.12254349428061027 l -4.707655044181536 33.96799827768263" fill="#e8ff1a" stroke="none" /><path d="M 102.88285421437855 79.19881850522331 l 3.6958583826286793 -26.667398098943803 a47.922286131604764,47.922286131604764 0 0,0 0.8161188594969286,0.1202747052738987 l -4.154346222554263 26.599828909508936" fill="#ff920d" stroke="none" /><path d="M 103.2404852339499 79.25152402106235 l 3.0234101044538093 -19.35856743598635 a40.59324224913642,40.59324224913642 0 0,0 0.689448758971259,0.11376495265518068 l -3.356188069563944 19.303656220391545" fill="#ff0000" stroke="none" /><path d="M 103.59715602781102 79.31037775812273 l 4.444623453005719 -25.56396762862557 a46.94746844215105,46.94746844215105 0 0,0 0.7949880395188813,0.14527898278640852 l -4.884006613627501 25.483673164488422" fill="#ff7f0b" stroke="none" /><path d="M 104.307194497241 79.44645832069477 l 5.934027635695147 -28.316641938165258 a49.931728165380186,49.931728165380186 0 0,0 0.8397025284377252,0.18352644910064725 l -6.4205728882864 28.21030199096874" fill="#ffb711" stroke="none" /><path d="M 104.66035177308747 79.52364482259891 l 6.957002004391215 -30.567229889049823 a52.34893012495202,52.34893012495202 0 0,0 0.8769101728958145,0.20753630609306112 l -7.482135864249553 30.442947670815894" fill="#ffe315" stroke="none" /><path d="M 105.01212808612495 79.60689891045804 l 9.415801691753275 -38.31055241197158 a60.45067486886435,60.45067486886435 0 0,0 1.008349241883558,0.2570506735885478 l -10.07385982232186 38.14279874221416" fill="#94ff23" stroke="none" /><path d="M 105.36241919743992 79.69619591428918 l 11.905235518048672 -45.07696258959139 a67.62260384238132,67.62260384238132 0 0,0 1.1228640331441508,0.30692115669288245 l -12.679397440416533 44.86535489207222" fill="#30ff35" stroke="none" /><path d="M 105.71112130821622 79.79150937346287 l 7.5061140827060715 -26.5599744596322 a48.60025347562796,48.60025347562796 0 0,0 0.8030839703411387,0.23444223295503339 l -7.962188270770637 26.426833897758463" fill="#ff9f0e" stroke="none" /><path d="M 106.0581310904928 79.89281104454417 l 9.211949079353909 -30.57484198010965 a52.93244381423515,52.93244381423515 0 0,0 0.8701454220400969,0.2703584182787343 l -9.736879874104725 30.411743426948394" fill="#ffed16" stroke="none" /><path d="M 106.74666289553966 80.11325718540242 l 12.578926967466916 -37.07816580712843 a60.15379653716577,60.15379653716577 0 0,0 0.9776939658119528,0.34109822714753907 l -13.215302937342143 36.85614672680868" fill="#98ff23" stroke="none" /><path d="M 107.08798089147638 80.2323363322302 l 13.770473068444135 -38.40446021665077 a61.79863347051047,61.79863347051047 0 0,0 0.998247081728551,0.3676628247542983 l -14.429502475945261 38.161734124090145" fill="#7fff26" stroke="none" /><path d="M 107.4271985657038 80.35727306442388 l 14.602124899857095 -38.61826899465559 a62.28671398567103,62.28671398567103 0 0,0 0.9996033909534202,0.387830585919486 l -15.264711455810183 38.36119570484556" fill="#78ff26" stroke="none" /><path d="M 107.76421540070413 80.48803036053334 l 22.2572940053105 -55.93400266161042 a81.19966603053436,81.19966603053436 0 0,0 1.2942303811645581,0.5279490686665943 l -23.216808256063445 55.542592706760246" fill="#48f7ff" stroke="none" /><path d="M 108.09893153111575 80.62456947434976 l 11.614745179721732 -27.78646633055641 a51.11627494775897,51.11627494775897 0 0,0 0.8088937336379195,0.34632608230242456 l -12.091322671149968 27.582420720291196" fill="#ffcd13" stroke="none" /><path d="M 108.43124777332544 80.76684994638697 l 12.737097948449014 -29.055547017029994 a52.724729732611195,52.724729732611195 0 0,0 0.8280742221343519,0.37153276568747723 l -13.235354289050147 28.831993920825987" fill="#ffea16" stroke="none" /><path d="M 109.08828744355905 81.06846463323043 l 11.938272588823178 -24.868252807476583 a48.585364781014114,48.585364781014114 0 0,0 0.7508260416294523,0.3684270778258746 l -12.364569897463063 24.659070569515876" fill="#ff9e0e" stroke="none" /><path d="M 109.41281617654863 81.2277094730956 l 17.24908148172153 -34.40041352383574 a59.48271381508806,59.48271381508806 0 0,0 0.9113304447506679,0.46681885006780477 l -17.83867241406095 34.098402148455435" fill="#a3ff22" stroke="none" /><path d="M 109.73455568895987 81.39251694778311 l 17.252602262076255 -32.97813628641581 a58.21840616870655,58.21840616870655 0 0,0 0.8839631995294671,0.4721825276043921 l -17.817710508134034 32.67627503230966" fill="#b7ff1f" stroke="none" /><path d="M 110.05341064243156 81.56283822128135 l 27.160974958708476 -49.8110847345549 a77.73502201586422,77.73502201586422 0 0,0 1.1692676614412627,0.6506961876528263 l -28.014366709221772 49.336173149341896" fill="#42ffd6" stroke="none" /><path d="M 110.36928655335952 81.73862282372117 l 15.641348412303653 -27.546018854125084 a52.67704113181799,52.67704113181799 0 0,0 0.7846452661948079,0.45451718352756093 l -16.11319041096379 27.272697513207472" fill="#ffe915" stroke="none" /><line stroke="#e1ed5e" stroke-width="0.3" x1="143.23703022742887" x2="145.7803849466894" y1="26.81831364943548" y2="22.513508569990506" /><path d="M 143.74570117128098 25.957352633546492 a86.0,86.0 0 0,1 28.547481713284135,27.462654790039103" fill="none" id="id134" stroke="none" /><text fill="#e1ed5e" style="font-size:6.75px; font-family:Arial;" text-anchor="middle"><textPath startOffset="19.985693538727396" xlink:href="#id134">February</textPath></text><path d="M 110.68208982089419 81.91981866633111 l 16.139925245982926 -27.317948084320083 a52.72959934325557,52.72959934325557 0 0,0 0.7774801995151178,0.46842312092253036 l -16.60776751171568 27.03607835393894" fill="#ffea16" stroke="none" /><path d="M 111.2981086023043 82.29822771554956 l 15.891036800409093 -24.897929795726302 a50.53695919868651,50.53695919868651 0 0,0 0.7292554787522122,0.47432804894129277 l -16.317259304945587 24.620702822625482" fill="#ffc312" stroke="none" /><path d="M 111.60114157652 82.49532879139004 l 17.19837451719804 -25.950195440714058 a52.13192460232845,52.13192460232845 0 0,0 0.7437371372576054,0.5021746350473779 l -17.642516348862188 25.65030889336801" fill="#ffdf14" stroke="none" /><path d="M 111.90073688211348 82.69761687909136 l 14.658482322398307 -21.311846453339967 a46.86630826474476,46.86630826474476 0 0,0 0.6607454514221096,0.4628944141812333 l -15.023158913404068 21.0563671963948" fill="#ff7e0b" stroke="none" /><path d="M 112.77801427241765 83.33499621200491 l 18.788500867708812 -24.50384163421934 a51.87792123331485,51.87792123331485 0 0,0 0.7039770789284795,0.549465276403076 l -19.207510501796722 24.176797968593043" fill="#ffdb14" stroke="none" /><path d="M 113.34407831869373 83.78471172551755 l 17.289445369994464 -21.00956949477949 a48.20894947545737,48.20894947545737 0 0,0 0.6362260475353202,0.5328210179292141 l -17.648528954488903 20.70884731945646" fill="#ff970e" stroke="none" /><path d="M 113.6212207817346 84.01681056812373 l 18.15192205427232 -21.299530592377693 a48.985036675337966,48.985036675337966 0 0,0 0.6370532042643091,0.5524462611114911 l -18.515869057183394 20.98391933784653" fill="#ffa60f" stroke="none" /><path d="M 113.89432698308785 84.25364557470407 l 32.77804848046862 -37.14715864764305 a70.54101187683911,70.54101187683911 0 0,0 0.90355986279669,0.8112249662225431 l -33.4126193308613 36.577434672651215" fill="#35ff66" stroke="none" /><path d="M 114.16331599549186 84.49514656593476 l 26.376167341113042 -28.874495838863325 a60.10803898886946,60.10803898886946 0 0,0 0.7579111830859334,0.7043958445336894 l -26.869286407993823 28.416195408254996" fill="#99ff23" stroke="none" /><path d="M 114.42810811169701 84.74124197986012 l 17.798168738643934 -18.82283857884424 a46.905097232291354,46.905097232291354 0 0,0 0.5818839899524134,0.5597719373081407 l -18.119535972208766 18.5136835547738" fill="#ff7f0b" stroke="none" /><path d="M 114.68862486808459 84.99185889309783 l 43.01979398204498 -43.95558769257242 a82.50444182054673,82.50444182054673 0 0,0 1.0064135391239069,1.0020916795497392 l -43.77004332133621 43.208560162372564" fill="#4ae6ff" stroke="none" /><path d="M 115.19652480421416 85.50635884689758 l 25.360565758305732 -24.187565530680384 a56.045636274467995,56.045636274467995 0 0,0 0.6598244165717185,0.7038546826717089 l -25.77315749684791 23.74744143113062" fill="#dbff1b" stroke="none" /><path d="M 115.4437574822437 85.77008943001954 l 34.54722824744343 -31.831888642840948 a67.97637825706852,67.97637825706852 0 0,0 0.7854714510460723,0.8673371945472543 l -35.090043339105534 31.232498661024145" fill="#31ff3b" stroke="none" /><path d="M 115.68641384162765 86.03803664274999 l 42.83041875632785 -38.121953385202396 a78.33871380442663,78.33871380442663 0 0,0 0.8878691086809467,1.0149878749168513 l -43.480279728586645 37.379049954082596" fill="#43ffdf" stroke="none" /><path d="M 116.15771136456269 86.58626213691792 l 20.426810712769797 -16.957840011972912 a47.5485015352467,47.5485015352467 0 0,0 0.5173763952529076,0.634242285306482 l -20.715685600099114 16.603713557058327" fill="#ff8b0c" stroke="none" /><path d="M 116.38621287248628 86.86637796730983 l 49.158638617458855 -39.400866098070516 a84.0,84.0 0 0,0 0.8945836776241438,1.1360304241878465 l -49.829576375676965 38.54884327992963" fill="#4dd2ff" stroke="none" /><path d="M 116.82858285166822 87.43820079747576 l 27.933117805973488 -20.850847636544152 a55.85709278647277,55.85709278647277 0 0,0 0.5685118611792692,0.7754495397420432 l -28.287892279666384 20.366935653130614" fill="#deff1b" stroke="none" /><path d="M 117.04232023915458 87.72973835380427 l 23.04767769538382 -16.594045393526645 a49.39996108576059,49.39996108576059 0 0,0 0.4909118314655957,0.6943599712931992 l -23.329902146653296 16.194858921901655" fill="#ffae10" stroke="none" /><path d="M 117.2510076193507 88.02491185347247 l 35.254204121076334 -24.472321339189875 a63.915654718751334,63.915654718751334 0 0,0 0.6196030267382164,0.9091909867405511 l -35.67023161348328 23.86185232917892" fill="#5fff29" stroke="none" /><path d="M 117.45458315368197 88.32363383020206 l 31.017237718735426 -20.749199335833183 a58.317533530214504,58.317533530214504 0 0,0 0.5509711842867423,0.839166913628911 l -31.369805538380092 20.212214358226596" fill="#b6ff1f" stroke="none" /><line stroke="#e1ed5e" stroke-width="0.3" x1="172.23445277983987" x2="176.4835382374775" y1="55.19839476539836" y2="52.563006222186495" /><path d="M 173.08426987136738 54.67131705675599 a86.0,86.0 0 0,1 12.851231095245387,41.99856678651699" fill="none" id="id135" stroke="none" /><text fill="#e1ed5e" style="font-size:6.75px; font-family:Arial;" text-anchor="middle"><textPath startOffset="22.20632615414155" xlink:href="#id135">March</textPath></text><line stroke="#e1ed5e" stroke-width="0.3" x1="184.98032266829074" x2="189.97916517819016" y1="98.17113171792111" y2="98.06355123074" /><path d="M 185.9800911702706 98.14961562048488 a86.0,86.0 0 0,1 -9.607161424134198,41.387399972396054" fill="none" id="id136" stroke="none" /><text fill="#e1ed5e" style="font-size:6.75px; font-family:Arial;" text-anchor="middle"><textPath startOffset="21.466115282336823" xlink:href="#id136">April</textPath></text><line stroke="#e1ed5e" stroke-width="0.3" x1="174.80103733775053" x2="179.2010983576182" y1="140.37084112569926" y2="142.7455964860345" /><path d="M 175.68104954172406 140.8457921977663 a86.0,86.0 0 0,1 -30.038265399797805,32.042727171017184" fill="none" id="id137" stroke="none" /><text fill="#e1ed5e" style="font-size:6.75px; font-family:Arial;" text-anchor="middle"><textPath startOffset="22.206326154141568" xlink:href="#id137">May</textPath></text><line stroke="#e1ed5e" stroke-width="0.3" x1="143.8653032363475" x2="146.44561519142675" y1="172.8068346515853" y2="177.08958963109032" /><path d="M 144.38136562736335 173.6633856474863 a86.0,86.0 0 0,1 -40.68145358897372,12.25698825130547" fill="none" id="id138" stroke="none" /><text fill="#e1ed5e" style="font-size:6.75px; font-family:Arial;" text-anchor="middle"><textPath startOffset="21.466115282336833" xlink:href="#id138">June</textPath></text><line stroke="#e1ed5e" stroke-width="0.3" x1="102.19456741930631" x2="102.32365962044197" y1="184.97166512339345" y2="189.96999836594603" /><path d="M 102.22038585953345 185.97133177190398 a86.0,86.0 0 0,1 -42.740103519485714,-10.115201625700543" fill="none" id="id139" stroke="none" /><text fill="#e1ed5e" style="font-size:6.75px; font-family:Arial;" text-anchor="middle"><textPath startOffset="22.20632615414155" xlink:href="#id139">July</textPath></text><line stroke="#e1ed5e" stroke-width="0.3" x1="58.666819895761336" x2="56.23545636021788" y1="174.27360380694188" y2="178.64263932499728" /><path d="M 58.180547188652646 175.14741091055294 a86.0,86.0 0 0,1 -31.652253787137756,-30.449443065178592" fill="none" id="id140" stroke="none" /><text fill="#e1ed5e" style="font-size:6.75px; font-family:Arial;" text-anchor="middle"><textPath startOffset="22.20632615414155" xlink:href="#id140">August</textPath></text><line stroke="#e1ed5e" stroke-width="0.3" x1="26.63291911575756" x2="22.317208475507996" y1="142.92168965132927" y2="145.44649492493687" /><path d="M 25.769776987707644 143.4266507060508 a86.0,86.0 0 0,1 -11.730757126820373,-40.83630448921669" fill="none" id="id141" stroke="none" /><text fill="#e1ed5e" style="font-size:6.75px; font-family:Arial;" text-anchor="middle"><textPath startOffset="21.46611528233685" xlink:href="#id141">September</textPath></text><line stroke="#e1ed5e" stroke-width="0.3" x1="15.007084014347285" x2="10.007500721073583" y1="101.09737516637583" y2="101.16192664675087" /><path d="M 14.007167355692545 101.11028546245083 a86.0,86.0 0 0,1 10.666146001902534,-42.60595125391555" fill="none" id="id142" stroke="none" /><text fill="#e1ed5e" style="font-size:6.75px; font-family:Arial;" text-anchor="middle"><textPath startOffset="22.20632615414155" xlink:href="#id142">October</textPath></text><line stroke="#e1ed5e" stroke-width="0.3" x1="26.266209847984243" x2="21.928928074336255" y1="57.711370442889674" y2="55.22380399835377" /><path d="M 25.398753493254645 57.213857153982495 a86.0,86.0 0 0,1 29.58750427330803,-30.492523968695096" fill="none" id="id143" stroke="none" /><text fill="#e1ed5e" style="font-size:6.75px; font-family:Arial;" text-anchor="middle"><textPath startOffset="21.46611528233685" xlink:href="#id143">November</textPath></text><line stroke="#e1ed5e" stroke-width="0.3" x1="56.762969772571076" x2="54.21961505331055" y1="26.818313649435495" y2="22.513508569990535" /><path d="M 56.25429882871897 25.957352633546506 a86.0,86.0 0 0,1 42.265352541879196,-11.944610805530505" fill="none" id="id144" stroke="none" /><text fill="#e1ed5e" style="font-size:6.75px; font-family:Arial;" text-anchor="middle"><textPath startOffset="22.20632615414155" xlink:href="#id144">December</textPath></text></svg>