<?xml version="1.0" encoding="utf-8" ?>
<svg baseProfile="full" height="200mm" version="1.1" viewBox="0,0,200,200" width="200mm" xmlns="http://www.w3.org/2000/svg" xmlns:ev="http://www.w3.org/2001/xml-events" xmlns:xlink="http://www.w3.org/1999/xlink"><defs /><rect fill="#1a1a1a" height="200" width="200" x="0" y="0" /><text alignment-baseline="middle" fill="#e1ed5e" style="dominant-baseline: central; font-size:9.0px; font-family:Arial;" text-anchor="middle" x="100.0" y="100.0">2023</text><line stroke="#e1ed5e" stroke-width="0.3" x1="100.0" x2="100.0" y1="15.0" y2="10.0" /><path d="M 100.0 14.0 a86.0,86.0 0 0,1 42.46469731375804,11.215312516191453" fill="none" id="id49" stroke="none" /><text fill="#e1ed5e" style="font-size:6.75px; font-family:Arial;" text-anchor="middle"><textPath startOffset="22.20632615414155" xlink:href="#id49">January</textPath></text><path d="M 101.44485096284872 79.0497635885617 l 0.941048318687503 -13.645133829041157 a34.677545435879495,34.677545435879495 0 0,0 0.5951489325678161,0.04619501150077798 l -1.1757874406176603 13.626913555351916" fill="#ffab0f" stroke="none" /><path d="M 106.0581310904928 79.89281104454417 l 3.8405943916279615 -12.747092458087714 a34.31309623701567,34.31309623701567 0 0,0 0.5640658442191725,0.17525800353073293 l -4.059445608557852 12.67909431967446" fill="#ffa60f" stroke="none" /><line stroke="#e1ed5e" stroke-width="0.3" x1="143.23703022742887" x2="145.7803849466894" y1="26.81831364943548" y2="22.513508569990506" /><path d="M 143.74570117128098 25.957352633546492 a86.0,86.0 0 0,1 28.547481713284135,27.462654790039103" fill="none" id="id50" stroke="none" /><text fill="#e1ed5e" style="font-size:6.75px; font-family:Arial;" text-anchor="middle"><textPath startOffset="19.985693538727396" xlink:href="#id50">February</textPath></text><path d="M 111.60114157652 82.49532879139004 l 12.007202911526445 -18.117366960397266 a42.735038701052815,42.735038701052815 0 0,0 0.6096769990090561,0.4116566312703952 l -12.317284604942042 17.907998416828203" fill="#eeff19" stroke="none" /><path d="M 113.06298171725822 83.55741782278167 l 8.272099583193292 -10.412222884388846 a34.29819600203191,34.29819600203191 0 0,0 0.4591003015019108,0.37122718219531703 l -8.450103283259693 10.268289604929398" fill="#ffa60f" stroke="none" /><path d="M 114.16331599549186 84.49514656593476 l 9.104131926433329 -9.966467683745321 a34.49872943002572,34.49872943002572 0 0,0 0.434999598674548,0.4042847189991029 l -9.274339408902724 9.808278378671577" fill="#ffa90f" stroke="none" /><path d="M 116.15771136456269 86.58626213691792 l 10.398205907299003 -8.632336915781714 a34.514434013977635,34.514434013977635 0 0,0 0.3755523913011035,0.4603828259205597 l -10.545256790676515 8.452069920253054" fill="#ffa90f" stroke="none" /><path d="M 116.60985879189232 87.15038557335679 l 10.456929511240663 -8.089623999188795 a34.22079389640831,34.22079389640831 0 0,0 0.35642433189410966,0.46901264118208175 l -10.594629783358885 7.9084265821256805" fill="#ffa50f" stroke="none" /><path d="M 117.65298651832404 88.62581576622439 l 11.135046730791354 -7.174540853824088 a34.24625615636728,34.24625615636728 0 0,0 0.3150205533953432,0.49828686312189857 l -11.256894880432652 6.9818063429879835" fill="#ffa60f" stroke="none" /><line stroke="#e1ed5e" stroke-width="0.3" x1="172.23445277983987" x2="176.4835382374775" y1="55.19839476539836" y2="52.563006222186495" /><path d="M 173.08426987136738 54.67131705675599 a86.0,86.0 0 0,1 12.851231095245387,41.99856678651699" fill="none" id="id51" stroke="none" /><text fill="#e1ed5e" style="font-size:6.75px; font-family:Arial;" text-anchor="middle"><textPath startOffset="22.20632615414155" xlink:href="#id51">March</textPath></text><path d="M 119.04729006885535 91.15688171328212 l 12.632494835491972 -5.864910214669792 a34.92756610448751,34.92756610448751 0 0,0 0.24848083095809384,0.5474945736338694 l -12.731577983413413 5.64659363219386" fill="#ffae10" stroke="none" /><path d="M 120.94382443527127 98.46500227214037 l 22.404279438540094 -1.6420362068436103 a43.46437223838618,43.46437223838618 0 0,0 0.048264927283964545,0.746637062520468 l -22.429224956828474 1.256140080070107" fill="#e5ff1a" stroke="none" /><line stroke="#e1ed5e" stroke-width="0.3" x1="184.98032266829074" x2="189.97916517819016" y1="98.17113171792111" y2="98.06355123074" /><path d="M 185.9800911702706 98.14961562048488 a86.0,86.0 0 0,1 -9.607161424134198,41.387399972396054" fill="none" id="id52" stroke="none" /><text fill="#e1ed5e" style="font-size:6.75px; font-family:Arial;" text-anchor="middle"><textPath startOffset="21.466115282336823" xlink:href="#id52">April</textPath></text><path d="M 120.41448212921028 104.9243191809786 l 27.286433758047963 6.581950415631507 a49.069049476356895,49.069049476356895 0 0,0 -0.20512892201523827,0.8193880761233404 l -27.16909352173766 -7.050666331152244" fill="#a4ff21" stroke="none" /><path d="M 118.97047184881838 109.00673069616215 l 12.973966485558543 6.159731983879865 a35.36196729148305,35.36196729148305 0 0,0 -0.2657986369836948,0.547623919142142 l -12.866014591960134 -6.382144858987283" fill="#ffb410" stroke="none" /><line stroke="#e1ed5e" stroke-width="0.3" x1="174.80103733775053" x2="179.2010983576182" y1="140.37084112569926" y2="142.7455964860345" /><path d="M 175.68104954172406 140.8457921977663 a86.0,86.0 0 0,1 -30.038265399797805,32.042727171017184" fill="none" id="id53" stroke="none" /><text fill="#e1ed5e" style="font-size:6.75px; font-family:Arial;" text-anchor="middle"><textPath startOffset="22.206326154141568" xlink:href="#id53">May</textPath></text><path d="M 117.94076556474637 110.91462005526583 l 13.594943591413923 8.27075318706734 a36.91313449748701,36.91313449748701 0 0,0 -0.3349170182125541,0.5399928732588137 l -13.450561933533406 -8.503542391691427" fill="#ffc812" stroke="none" /><path d="M 112.04921762599082 117.19931262002967 l 9.252755723662412 13.207582701864625 a37.126181485657455,37.126181485657455 0 0,0 -0.5265608359878309,0.3621733444304782 l -9.024038003051698 -13.364896835660199" fill="#ffcb12" stroke="none" /><line stroke="#e1ed5e" stroke-width="0.3" x1="143.8653032363475" x2="146.44561519142675" y1="172.8068346515853" y2="177.08958963109032" /><path d="M 144.38136562736335 173.6633856474863 a86.0,86.0 0 0,1 -40.68145358897372,12.25698825130547" fill="none" id="id54" stroke="none" /><text fill="#e1ed5e" style="font-size:6.75px; font-family:Arial;" text-anchor="middle"><textPath startOffset="21.466115282336833" xlink:href="#id54">June</textPath></text><path d="M 108.92500713936063 119.00905698771935 l 4.490584656307513 9.56433740691022 a31.566073092151434,31.566073092151434 0 0,0 -0.49383167898650676,0.2266939029083858 l -4.325284981553587 -9.64021838015268" fill="#ff820c" stroke="none" /><path d="M 104.48393922423573 120.51570834832081 l 2.8415517914399144 13.001168145798463 a34.3080723524769,34.3080723524769 0 0,0 -0.5780232828669053,0.12113039893986985 l -2.6173370471436312 -13.048154525464874" fill="#ffa60f" stroke="none" /><path d="M 104.13013068566511 120.58985236759428 l 2.0860839174869596 10.399709635471813 a31.60687072669989,31.60687072669989 0 0,0 -0.5343553671440013,0.10241047788964046 l -1.9067609357712538 -10.434077311709922" fill="#ff820c" stroke="none" /><path d="M 103.06178313531738 120.77559828337769 l 3.8869010706478133 26.374400681594643 a47.659276270114745,47.659276270114745 0 0,0 -0.8126392474788594,0.11262439491488284 l -3.4323332319821236 -26.43739964200213" fill="#b4ff20" stroke="none" /><path d="M 102.34483914955558 120.86867818915974 l 1.4900195006323878 13.2609255778432 a34.344373544432905,34.344373544432905 0 0,0 -0.588053200789475,0.06095411866630274 l -1.2615337032373102 -13.284609064965261" fill="#ffa70f" stroke="none" /><path d="M 101.62511606390274 120.93702456842531 l 0.20789973354353625 2.6784559734870865 a23.68651236757178,23.68651236757178 0 0,0 -0.40677325842937184,0.02805346548652362 l -0.16176371433523407 -2.6816377834898955" fill="#ff1302" stroke="none" /><path d="M 100.90346689309514 120.98055641714683 l 0.571061786893344 13.261353713301773 a34.27364357943035,34.27364357943035 0 0,0 -0.5896366618669003,0.02030827884433659 l -0.3427047733517913 -13.269218790572204" fill="#ffa60f" stroke="none" /><line stroke="#e1ed5e" stroke-width="0.3" x1="102.19456741930631" x2="102.32365962044197" y1="184.97166512339345" y2="189.96999836594603" /><path d="M 102.22038585953345 185.97133177190398 a86.0,86.0 0 0,1 -42.740103519485714,-10.115201625700543" fill="none" id="id55" stroke="none" /><text fill="#e1ed5e" style="font-size:6.75px; font-family:Arial;" text-anchor="middle"><textPath startOffset="22.20632615414155" xlink:href="#id55">July</textPath></text><path d="M 99.09653310690486 120.98055641714683 l -0.3658321050255844 8.495453654531007 a29.50332675635552,29.50332675635552 0 0,0 -0.5071929990733286,-0.026216084687213963 l 0.5120131725124019 -8.487897763081591" fill="#ff6609" stroke="none" /><path d="M 98.01472825383883 120.90594882070398 l -5.955815238483529 62.71784646211194 a84.0,84.0 0 0,0 -1.4382696135776267,-0.14908252617695705 l 7.034517448666749 -62.60603456747922" fill="#4dd2ff" stroke="none" /><path d="M 94.81253420990036 120.34920634021253 l -3.3002063154508448 12.945931982154205 a34.359959453946885,34.359959453946885 0 0,0 -0.5718635339887694,-0.15103435691321337 l 3.5225602922511037 -12.88720627593741" fill="#ffa70f" stroke="none" /><path d="M 94.11515582081647 120.15858648285463 l -0.76398770281687 2.617046723777152 a23.726281490324894,23.726281490324894 0 0,0 -0.39105998987031554,-0.11782316703391366 l 0.8089226671274314 -2.603508187637513" fill="#ff1402" stroke="none" /><path d="M 93.42475214034765 119.94407469862007 l -4.996989482759546 15.156893495060507 a36.95936478408264,36.95936478408264 0 0,0 -0.6024909150955,-0.2043976301031455 l 5.257150130792272 -15.068632878059239" fill="#ffc912" stroke="none" /><path d="M 92.7421414339146 119.70592522655815 l -11.487209234436184 31.18910132713162 a54.23726850374139,54.23726850374139 0 0,0 -0.8732969345588255,-0.33020617560189164 l 12.022376389755292 -30.986746901423096" fill="#6cff28" stroke="none" /><path d="M 91.7346041902142 119.30500536409082 l -5.742702795336698 13.412897678426779 a35.590560631021496,35.590560631021496 0 0,0 -0.5611094667748228,-0.2459739007468661 l 5.9727329367692645 -13.312059224385461" fill="#ffb711" stroke="none" /><path d="M 91.07499286063937 119.00905698771935 l -6.295533976523379 13.408635114708645 a35.813009271885235,35.813009271885235 0 0,0 -0.5557621924998701,-0.2667996260127603 l 6.525408837023492 -13.298281212196322" fill="#ffba11" stroke="none" /><path d="M 90.42595943632237 118.69057910512821 l -15.177530370680238 29.629792157964022 a54.29086979153695,54.29086979153695 0 0,0 -0.8280885478085116,-0.4332167903316462 l 15.685309821015245 -29.36414594868766" fill="#6cff28" stroke="none" /><line stroke="#e1ed5e" stroke-width="0.3" x1="58.666819895761336" x2="56.23545636021788" y1="174.27360380694188" y2="178.64263932499728" /><path d="M 58.180547188652646 175.14741091055294 a86.0,86.0 0 0,1 -31.652253787137756,-30.449443065178592" fill="none" id="id56" stroke="none" /><text fill="#e1ed5e" style="font-size:6.75px; font-family:Arial;" text-anchor="middle"><textPath startOffset="22.20632615414155" xlink:href="#id56">August</textPath></text><path d="M 87.65650970185807 116.9893568818739 l -8.412315922208755 11.578559544619921 a35.31188667867923,35.31188667867923 0 0,0 -0.4886745234143176,-0.36150972986403795 l 8.610375416041636 -11.432039866016117" fill="#ffb310" stroke="none" /><path d="M 86.79598089348748 116.32954008644616 l -10.120018197010728 12.51552587818838 a37.09512834106741,37.09512834106741 0 0,0 -0.4930646859743056,-0.4057586688839293 l 10.333953011529722 -12.33947209044727" fill="#ffca12" stroke="none" /><path d="M 85.44109423537348 115.13401014063109 l -5.853245820345818 6.084460125839175 a29.442815979063067,29.442815979063067 0 0,0 -0.36221680525627,-0.35450538047503893 l 5.957112577977882 -5.9828046424415655" fill="#ff6509" stroke="none" /><path d="M 83.95833913139862 113.55231037782056 l -10.21829304283902 8.632614788605276 a34.37667936364548,34.37667936364548 0 0,0 -0.37798632264014576,-0.4553088753717935 l 10.365375365372701 -8.455444656119722" fill="#ffa70f" stroke="none" /><path d="M 83.72743513129214 113.27417163493432 l -12.373584654121707 10.093620014018322 a36.9683049250729,36.9683049250729 0 0,0 -0.397993884059669,-0.4965585647216575 l 12.545496450236238 -9.879133615718406" fill="#ffc912" stroke="none" /><line stroke="#e1ed5e" stroke-width="0.3" x1="26.63291911575756" x2="22.317208475507996" y1="142.92168965132927" y2="145.44649492493687" /><path d="M 25.769776987707644 143.4266507060508 a86.0,86.0 0 0,1 -11.730757126820373,-40.83630448921669" fill="none" id="id57" stroke="none" /><text fill="#e1ed5e" style="font-size:6.75px; font-family:Arial;" text-anchor="middle"><textPath startOffset="21.46611528233685" xlink:href="#id57">September</textPath></text><path d="M 81.02952815118164 109.00673069616217 l -1.2220682896194208 0.5802090778046318 a22.35280947603875,22.35280947603875 0 0,0 -0.16203166605696911,-0.34900179367298956 l 1.2318745725162168 -0.5590872168528151" fill="#ff0000" stroke="none" /><path d="M 79.86692584326677 105.97154293290107 l -16.51729097053582 4.899088504712394 a38.22852196743381,38.22852196743381 0 0,0 -0.18168990349101016,-0.6324863895282482 l 16.599173510912934 -4.614044639679551" fill="#ffd914" stroke="none" /><path d="M 79.4281124754447 104.21870165774334 l -2.888435568206722 0.5923349476480255 a23.948545526507413,23.948545526507413 0 0,0 -0.079338186543544,-0.4045437039150782 l 2.8982036877259323 -0.5425275166649924" fill="#ff1702" stroke="none" /><line stroke="#e1ed5e" stroke-width="0.3" x1="15.007084014347285" x2="10.007500721073583" y1="101.09737516637583" y2="101.16192664675087" /><path d="M 14.007167355692545 101.11028546245083 a86.0,86.0 0 0,1 10.666146001902534,-42.60595125391555" fill="none" id="id58" stroke="none" /><text fill="#e1ed5e" style="font-size:6.75px; font-family:Arial;" text-anchor="middle"><textPath startOffset="22.20632615414155" xlink:href="#id58">October</textPath></text><path d="M 79.26566170972629 96.67025291283419 l -5.556050861567423 -0.8922514870478173 a26.627238567224882,26.627238567224882 0 0,0 0.0765699699967445,-0.45192029729827804 l 5.539869030050456 0.9877575726619233" fill="#ff3e05" stroke="none" /><path d="M 79.71946130924805 94.55025226153421 l -13.387435738545744 -3.597446239101384 a34.862361093872735,34.862361093872735 0 0,0 0.1607208458656895,-0.5781983954820525 l 13.323528122113693 3.827355938002379" fill="#ffae10" stroke="none" /><path d="M 79.81627453868168 94.20196356495316 l -1.5282344915342871 -0.439005142048357 a22.59003967744832,22.59003967744832 0 0,0 0.11057727918353548,-0.37281161449682265 l 1.5204513152390446 0.46524614329171887" fill="#ff0300" stroke="none" /><line stroke="#e1ed5e" stroke-width="0.3" x1="26.266209847984243" x2="21.928928074336255" y1="57.711370442889674" y2="55.22380399835377" /><path d="M 25.398753493254645 57.213857153982495 a86.0,86.0 0 0,1 29.58750427330803,-30.492523968695096" fill="none" id="id59" stroke="none" /><text fill="#e1ed5e" style="font-size:6.75px; font-family:Arial;" text-anchor="middle"><textPath startOffset="21.46611528233685" xlink:href="#id59">November</textPath></text><path d="M 83.17141714833178 87.43820079747576 l -14.591611802960793 -10.891998400911453 a39.208535475808105,39.208535475808105 0 0,0 0.40837381224456193,-0.5373720678736396 l 14.401962050492122 11.141555244666117" fill="#ffe515" stroke="none" /><path d="M 85.31137513191541 84.99185889309783 l -9.88342799641338 -10.09841856009099 a35.130116997926024,35.130116997926024 0 0,0 0.4358087681816958,-0.41924768969995235 l 9.708135984619256 10.267049336553255" fill="#ffb110" stroke="none" /><path d="M 88.70189139769569 82.29822771554957 l -10.323049090602584 -16.174058040633447 a40.18763914682498,40.18763914682498 0 0,0 0.5863201402839379,-0.3671536180566905 l 10.043109797946405 16.349356000013067" fill="#fff116" stroke="none" /><line stroke="#e1ed5e" stroke-width="0.3" x1="56.762969772571076" x2="54.21961505331055" y1="26.818313649435495" y2="22.513508569990535" /><path d="M 56.25429882871897 25.957352633546506 a86.0,86.0 0 0,1 42.265352541879196,-11.944610805530505" fill="none" id="id60" stroke="none" /><text fill="#e1ed5e" style="font-size:6.75px; font-family:Arial;" text-anchor="middle"><textPath startOffset="22.20632615414155" xlink:href="#id60">December</textPath></text><path d="M 89.94658935756843 81.56283822128135 l -15.983257592426197 -29.31203314611852 a54.38652138850348,54.38652138850348 0 0,0 0.825781511753267,-0.4411038849537978 l 15.476331034144625 29.582815757574068" fill="#6bff28" stroke="none" /><path d="M 90.91171255644093 81.06846463323043 l -6.9473061717120155 -14.471722347069235 a37.05290661326387,37.05290661326387 0 0,0 0.577358018025751,-0.27107733098890346 l 6.697169942386656 14.589164660698147" fill="#ffca12" stroke="none" /><path d="M 91.56875222667455 80.76684994638697 l -5.397358649139338 -12.312318601344934 a34.44338758380728,34.44338758380728 0 0,0 0.5450522443248947,-0.23336292590403857 l 5.184622647024136 12.40340105521176" fill="#ffa80f" stroke="none" /><path d="M 95.692805502759 79.44645832069477 l -4.615865634442014 -22.026492363961637 a43.504945710107435,43.504945710107435 0 0,0 0.7342673387605085,-0.14728712052687448 l 4.236031886214369 22.102683440565723" fill="#e4ff1a" stroke="none" /><path d="M 96.40284397218896 79.31037775812273 l -2.83713664858629 -16.318248375663632 a37.56304846375208,37.56304846375208 0 0,0 0.6379829674004746,-0.10527265607008157 l 2.5558244750469297 16.364667294673342" fill="#ffd013" stroke="none" /><path d="M 98.19473922651362 79.07773832637324 l -2.0290646137050343 -23.51606007515867 a44.60343586567561,44.60343586567561 0 0,0 0.7655007559113056,-0.059417591611238905 l 1.6239736684313948 23.54750292895837" fill="#d7ff1c" stroke="none" /></svg>