<?xml version="1.0" encoding="utf-8" ?>
<svg baseProfile="full" height="200mm" version="1.1" viewBox="0,0,200,200" width="200mm" xmlns="http://www.w3.org/2000/svg" xmlns:ev="http://www.w3.org/2001/xml-events" xmlns:xlink="http://www.w3.org/1999/xlink"><defs /><rect fill="#1a1a1a" height="200" width="200" x="0" y="0" /><text alignment-baseline="middle" fill="#e1ed5e" style="dominant-baseline: central; font-size:9.0px; font-family:Arial;" text-anchor="middle" x="100.0" y="100.0">2017</text><line stroke="#e1ed5e" stroke-width="0.3" x1="100.0" x2="100.0" y1="15.0" y2="10.0" /><path d="M 100.0 14.0 a86.0,86.0 0 0,1 42.46469731375804,11.215312516191453" fill="none" id="id25" stroke="none" /><text fill="#e1ed5e" style="font-size:6.75px; font-family:Arial;" text-anchor="middle"><textPath startOffset="22.20632615414155" xlink:href="#id25">January</textPath></text><line stroke="#e1ed5e" stroke-width="0.3" x1="143.23703022742887" x2="145.7803849466894" y1="26.81831364943548" y2="22.513508569990506" /><path d="M 143.74570117128098 25.957352633546492 a86.0,86.0 0 0,1 28.547481713284135,27.462654790039103" fill="none" id="id26" stroke="none" /><text fill="#e1ed5e" style="font-size:6.75px; font-family:Arial;" text-anchor="middle"><textPath startOffset="19.985693538727396" xlink:href="#id26">February</textPath></text><path d="M 117.2510076193507 88.02491185347247 l 6.399933050723728 -4.442625271831866 a28.79076776445461,28.79076776445461 0 0,0 0.2790998062598216,0.4095445265790734 l -6.475457322652283 4.3318027219823865" fill="#ff5a08" stroke="none" /><line stroke="#e1ed5e" stroke-width="0.3" x1="172.23445277983987" x2="176.4835382374775" y1="55.19839476539836" y2="52.563006222186495" /><path d="M 173.08426987136738 54.67131705675599 a86.0,86.0 0 0,1 12.851231095245387,41.99856678651699" fill="none" id="id27" stroke="none" /><text fill="#e1ed5e" style="font-size:6.75px; font-family:Arial;" text-anchor="middle"><textPath startOffset="22.20632615414155" xlink:href="#id27">March</textPath></text><path d="M 118.56541770881063 90.18545643968196 l 6.384530233377125 -3.3751597227952503 a28.221767751408645,28.221767751408645 0 0,0 0.22334245618238815,0.43142653686835747 l -6.441682122719629 3.264760463666548" fill="#ff5207" stroke="none" /><path d="M 119.61058180528143 92.48833698450437 l 6.949939908263125 -2.6621141120227994 a28.442346153861656,28.442346153861656 0 0,0 0.17118962124269335,0.4587030748055083 l -6.994734118007443 2.542087900187958" fill="#ff5507" stroke="none" /><path d="M 119.97218684219823 93.5106431181261 l 9.140128274309232 -2.9698077024183545 a30.61049960512826,30.61049960512826 0 0,0 0.15851066529396135,0.5025221259272443 l -9.1898944233714 2.812035410064691" fill="#ff730a" stroke="none" /><path d="M 120.37134235888165 94.90015583598534 l 14.648550292046187 -3.667177272959444 a36.100603127356095,36.100603127356095 0 0,0 0.14572128742864193,0.6041088135693125 l -14.709504379735648 3.414483227730725" fill="#ffbc11" stroke="none" /><path d="M 120.6074358757038 95.95851677861258 l 5.980745283075599 -1.1729300946868308 a27.09467629559217,27.09467629559217 0 0,0 0.08581822760466708,0.45844440342282555 l -6.000049234590126 1.0698076138014425" fill="#ff4206" stroke="none" /><path d="M 120.83666639777658 97.38593545837742 l 21.889032192393948 -2.74608912060318 a43.06061503625757,43.06061503625757 0 0,0 0.08593596074370982,0.7362468314452991 l -21.933058506141247 2.3688985508330282" fill="#ebff1a" stroke="none" /><path d="M 120.94382443527127 98.46500227214037 l 6.564040391373689 -0.4810863038638229 a27.581646472680724,27.581646472680724 0 0,0 0.030627985469907717,0.47380137895222924 l -6.571348967848013 0.3680258606585584" fill="#ff4906" stroke="none" /><line stroke="#e1ed5e" stroke-width="0.3" x1="184.98032266829074" x2="189.97916517819016" y1="98.17113171792111" y2="98.06355123074" /><path d="M 185.9800911702706 98.14961562048488 a86.0,86.0 0 0,1 -9.607161424134198,41.387399972396054" fill="none" id="id28" stroke="none" /><text fill="#e1ed5e" style="font-size:6.75px; font-family:Arial;" text-anchor="middle"><textPath startOffset="21.466115282336823" xlink:href="#id28">April</textPath></text><path d="M 120.99980553446 99.90962569577887 l 14.874927783048825 -0.06401541416784187 a35.87506553007982,35.87506553007982 0 0,0 -0.0026576636516381998,0.6175474360926457 l -14.873825822107683 -0.19204150012848853" fill="#ffb911" stroke="none" /><path d="M 120.99824983174949 100.27111621757518 l 7.478437347178751 0.09655688751138072 a28.479060662155632,28.479060662155632 0 0,0 -0.010548016600957933,0.49012488381115055 l -7.475667267892786 -0.22527158711264608" fill="#ff5607" stroke="none" /><path d="M 120.8583938346157 102.4346265915055 l 23.223311703954366 2.7106637579848973 a44.380973130044794,44.380973130044794 0 0,0 -0.09509889566705726,0.7580317671045358 l -23.17321129904046 -3.110013279376828" fill="#dbff1b" stroke="none" /><path d="M 120.70491114924044 103.5080841355445 l 8.731853027087137 1.4794593832079468 a29.856300432641884,29.856300432641884 0 0,0 -0.09021373719243556,0.5059665474501404 l -8.705092847555512 -1.6295446813913055" fill="#ff6909" stroke="none" /><path d="M 120.41448212921028 104.9243191809786 l 29.935924858139547 7.221052586405888 a51.794531942665024,51.794531942665024 0 0,0 -0.21652256599757383,0.8649000201778541 l -29.80719097784691 -7.735280445981138" fill="#87ff25" stroke="none" /><path d="M 120.02730092923936 106.31721596034902 l 11.262144813715484 3.552420828764543 a32.809132040490475,32.809132040490475 0 0,0 -0.17452544220732946,0.5371340802997328 l -11.199327120491906 -3.7457538090420712" fill="#ff910d" stroke="none" /><path d="M 119.12269723197855 108.67885076344098 l 9.289365537654895 4.215985653610489 a31.201315950583037,31.201315950583037 0 0,0 -0.22617296550852306,0.48715644641376743 l -9.215417955306542 -4.375262167303087" fill="#ff7b0b" stroke="none" /><path d="M 118.81262510543309 109.33194174019688 l 10.582419710396255 5.249375015675439 a32.81285507327423,32.81285507327423 0 0,0 -0.25534859162784973,0.5038269962089121 l -10.490492448982137 -5.4307562235870455" fill="#ff910d" stroke="none" /><path d="M 118.64920377521936 109.65438752849418 l 8.363032180355287 4.3294048665875495 a30.417221126664174,30.417221126664174 0 0,0 -0.24471015314850972,0.4628993883279374 l -8.287269518981883 -4.472719270001622" fill="#ff710a" stroke="none" /><line stroke="#e1ed5e" stroke-width="0.3" x1="174.80103733775053" x2="179.2010983576182" y1="140.37084112569926" y2="142.7455964860345" /><path d="M 175.68104954172406 140.8457921977663 a86.0,86.0 0 0,1 -30.038265399797805,32.042727171017184" fill="none" id="id29" stroke="none" /><text fill="#e1ed5e" style="font-size:6.75px; font-family:Arial;" text-anchor="middle"><textPath startOffset="22.206326154141568" xlink:href="#id29">May</textPath></text><path d="M 118.48025628344425 109.97397251340804 l 27.487488771822957 14.835262740289128 a52.23534951868642,52.23534951868642 0 0,0 -0.43386081983831654,0.7875834114005307 l -27.22805154253313 -15.306216670087464" fill="#82ff25" stroke="none" /><path d="M 117.14729908036423 112.12312394758627 l 7.639613324085529 5.401199267911359 a30.35610203413961,30.35610203413961 0 0,0 -0.30532486544373116,0.4240695336339581 l -7.545508666266195 -5.531902406996449" fill="#ff700a" stroke="none" /><path d="M 116.71984013943494 112.70617746262583 l 7.569679652436787 5.752548600763127 a30.50746367043584,30.50746367043584 0 0,0 -0.3213353803746596,0.4153692955794327 l -7.469537454844059 -5.881995890455813" fill="#ff720a" stroke="none" /><path d="M 116.0416608686014 113.55231037782055 l 24.583268875257176 20.76842869499881 a53.18174543203706,53.18174543203706 0 0,0 -0.5967941269123597,0.6942063966420551 l -24.222132238774037 -21.188512190802392" fill="#78ff26" stroke="none" /><path d="M 115.07121518719521 114.62390073753431 l 6.461780755361702 6.26999476687222 a30.00374615962533,30.00374615962533 0 0,0 -0.36284441050908683,0.36755947217879725 l -6.352895719797079 -6.380294733031682" fill="#ff6b09" stroke="none" /><path d="M 114.0293411484842 115.62618273729858 l 10.176789916924157 11.335128088900754 a36.23325906708725,36.23325906708725 0 0,0 -0.46768104520241516,0.4126741460484123 l -9.980166518815153 -11.508625376721454" fill="#ffbe11" stroke="none" /><path d="M 113.20401910651253 116.32954008644616 l 6.063083139614569 7.498274455461763 a30.642878043784897,30.642878043784897 0 0,0 -0.41301128723187186,0.3281211452059129 l -5.933114359665345 -7.6015295146728015" fill="#ff740a" stroke="none" /><path d="M 112.04921762599082 117.19931262002967 l 8.41280024147562 12.008612165065939 a35.662263605389924,35.662263605389924 0 0,0 -0.5057980806490143,0.34789253198352915 l -8.204845276203722 -12.151645486414562" fill="#ffb710" stroke="none" /><path d="M 111.45004920935366 117.60387380957326 l 7.7130035090058895 11.858354316452747 a35.14605917647988,35.14605917647988 0 0,0 -0.509983038924233,0.3254953044538049 l -7.507738668034727 -11.98936404973036" fill="#ffb010" stroke="none" /><line stroke="#e1ed5e" stroke-width="0.3" x1="143.8653032363475" x2="146.44561519142675" y1="172.8068346515853" y2="177.08958963109032" /><path d="M 144.38136562736335 173.6633856474863 a86.0,86.0 0 0,1 -40.68145358897372,12.25698825130547" fill="none" id="id30" stroke="none" /><text fill="#e1ed5e" style="font-size:6.75px; font-family:Arial;" text-anchor="middle"><textPath startOffset="21.466115282336833" xlink:href="#id30">June</textPath></text><path d="M 110.5260780823613 118.17145234162733 l 4.38672862877263 7.57292788346029 a29.751721247308083,29.751721247308083 0 0,0 -0.44535667906228843,0.2528851454669134 l -4.255723182789143 -7.6473161947218316" fill="#ff6809" stroke="none" /><path d="M 108.59647513512805 119.15986991738527 l 4.718050751786077 10.515616836771846 a32.52554555560077,32.52554555560077 0 0,0 -0.5127874132827047,0.22479093255017557 l -4.536342663845618 -10.595272322616475" fill="#ff8d0d" stroke="none" /><path d="M 107.59598834532513 119.57807347666477 l 11.27763711589518 29.067238924088567 a52.17834950070106,52.17834950070106 0 0,0 -0.8401454189412035,0.31767110905773494 l -10.775621476193702 -29.257058283252935" fill="#83ff25" stroke="none" /><path d="M 106.57524785965236 119.94407469862006 l 3.0976763968931085 9.39588754226137 a30.89334633815531,30.89334633815531 0 0,0 -0.5064723677590397,0.16215645828622086 l -2.9354826840431283 -9.447816847207298" fill="#ff770b" stroke="none" /><path d="M 105.53697534728816 120.25689768951611 l 4.311721786727926 15.774335557080406 a37.35299993987389,37.35299993987389 0 0,0 -0.621677641364166,0.1641907154244318 l -4.039553702552262 -15.846217621808421" fill="#ffcc13" stroke="none" /><path d="M 104.48393922423573 120.51570834832081 l 2.5841275827894137 11.823355574672206 a33.102456461779376,33.102456461779376 0 0,0 -0.557711035420943,0.11687376999528579 l -2.3802250859390925 -11.866085325394032" fill="#ff950d" stroke="none" /><path d="M 103.06178313531738 120.77559828337769 l 1.423048438041425 9.656034206182317 a30.76033111364441,30.76033111364441 0 0,0 -0.5244950046391536,0.07269022843362 l -1.256624842215441 -9.67909900010854" fill="#ff750a" stroke="none" /><path d="M 101.62511606390274 120.93702456842531 l 0.6909436529690244 8.901705274433768 a29.928480269590125,29.928480269590125 0 0,0 -0.5139678332622494,0.03544623097220965 l -0.5376130589278446 -8.912279849922264" fill="#ff6a09" stroke="none" /><line stroke="#e1ed5e" stroke-width="0.3" x1="102.19456741930631" x2="102.32365962044197" y1="184.97166512339345" y2="189.96999836594603" /><path d="M 102.22038585953345 185.97133177190398 a86.0,86.0 0 0,1 -42.740103519485714,-10.115201625700543" fill="none" id="id31" stroke="none" /><text fill="#e1ed5e" style="font-size:6.75px; font-family:Arial;" text-anchor="middle"><textPath startOffset="22.20632615414155" xlink:href="#id31">July</textPath></text><path d="M 100.54218724476979 120.99299961872073 l 0.38346155897711687 14.847284658676537 a35.85223567356056,35.85223567356056 0 0,0 -0.617068722852042,0.010623397670078721 l -0.127833146232407 -14.851685533625776" fill="#ffb911" stroke="none" /><path d="M 99.45781275523022 120.99299961872073 l -0.56902880510343 22.03228055217287 a43.03962749482605,43.03962749482605 0 0,0 -0.7404448326373867,-0.025502417170664607 l 0.9481939894154596 -22.019221336576113" fill="#ebff1a" stroke="none" /><path d="M 98.73552117531835 120.96189622390904 l -0.554496627098 9.192167181338288 a30.208876370064687,30.208876370064687 0 0,0 -0.5187831320986069,-0.0357783221726849 l 0.7126425199755368 -9.181260514649319" fill="#ff6e0a" stroke="none" /><path d="M 98.37488393609728 120.93702456842531 l -0.11524576848193926 1.4847576365215587 a22.489223564936466,22.489223564936466 0 0,0 -0.3856962693567948,-0.03327949704536683 l 0.14078635558027577 -1.4825538871975286" fill="#ff0000" stroke="none" /><path d="M 98.01472825383883 120.90594882070398 l -1.4045232919054353 14.790364147799567 a35.85690268198657,35.85690268198657 0 0,0 -0.6139511138632308,-0.06363854324656981 l 1.6589070023742594 -14.763996236097237" fill="#ffb911" stroke="none" /><path d="M 96.93821686468263 120.77559828337769 l -2.9347670631907836 19.913736167934037 a41.12882872601567,41.12882872601567 0 0,0 -0.6995115520343143,-0.1092493182461016 l 3.277114478833615 -19.86026854234083" fill="#fffc17" stroke="none" /><path d="M 95.86986931433489 120.58985236759428 l -4.593369829881232 22.89922858743292 a44.355378744382804,44.355378744382804 0 0,0 -0.7473005586331486,-0.15660409792881352 l 4.986861849943767 -22.816768508777564" fill="#dbff1b" stroke="none" /><path d="M 95.16358092515715 120.4354850818985 l -5.817863895157884 24.58241707308582 a46.26148787102064,46.26148787102064 0 0,0 -0.773330636191124,-0.19006585533487746 l 6.240147816092218 -24.478629959436915" fill="#c5ff1e" stroke="none" /><path d="M 94.46302465271185 120.25689768951611 l -4.673032241170687 17.096181592278 a38.72333646250519,38.72333646250519 0 0,0 -0.6414591343954139,-0.18128275874225327 l 4.966622543670715 -17.013210040197226" fill="#ffde14" stroke="none" /><path d="M 93.76903079525671 120.05430185196036 l -4.269707332617677 13.742003347193736 a35.39003324181334,35.39003324181334 0 0,0 -0.5801920496037335,-0.1857591724220686 l 4.50562072731235 -13.66647132811196" fill="#ffb310" stroke="none" /><path d="M 92.7421414339146 119.70592522655815 l -10.040137396950186 27.260133964746448 a50.050288513637184,50.050288513637184 0 0,0 -0.805880619333347,-0.3047150937683995 l 10.507888237043817 -27.083270620871417" fill="#9aff23" stroke="none" /><path d="M 91.7346041902142 119.30500536409082 l -9.773488006622086 22.82736879585763 a45.83162970804938,45.83162970804938 0 0,0 -0.722566906813196,-0.3167520976629048 l 10.164975588093025 -22.655752144900273" fill="#caff1d" stroke="none" /><path d="M 91.07499286063937 119.00905698771935 l -6.131672324205258 13.059631977973881 a35.42745275131902,35.42745275131902 0 0,0 -0.5497789550797542,-0.2639273084503654 l 6.355563947285255 -12.952150393023953" fill="#ffb410" stroke="none" /><path d="M 90.42595943632237 118.69057910512821 l -16.62938223191201 32.46411815447479 a57.475407070555505,57.475407070555505 0 0,0 -0.876661703128186,-0.4586279694858057 l 17.185734837566695 -32.173060766044266" fill="#4bff2c" stroke="none" /><line stroke="#e1ed5e" stroke-width="0.3" x1="58.666819895761336" x2="56.23545636021788" y1="174.27360380694188" y2="178.64263932499728" /><path d="M 58.180547188652646 175.14741091055294 a86.0,86.0 0 0,1 -31.652253787137756,-30.449443065178592" fill="none" id="id32" stroke="none" /><text fill="#e1ed5e" style="font-size:6.75px; font-family:Arial;" text-anchor="middle"><textPath startOffset="22.20632615414155" xlink:href="#id32">August</textPath></text><path d="M 89.7882731507175 118.34994917583269 l -7.210573418788657 12.957030452952118 a35.82825030765498,35.82825030765498 0 0,0 -0.536316888726999,-0.3045347264301846 l 7.432539074436863 -12.8309925607273" fill="#ffb911" stroke="none" /><path d="M 89.4739219176387 118.17145234162733 l -7.418937721227967 12.807512178035548 a35.80111499522884,35.80111499522884 0 0,0 -0.5305932018820375,-0.31348381613325393 l 7.638298794138387 -12.677909789608545" fill="#ffb811" stroke="none" /><path d="M 88.8546689885994 117.79835938074946 l -13.831896121374418 22.088626872866573 a47.06201809993263,47.06201809993263 0 0,0 -0.6828882546403116,-0.43585159385094585 l 14.210066178061652 -21.847260850191823" fill="#bcff1f" stroke="none" /><path d="M 88.24862548938628 117.40417183066458 l -8.05229906090374 11.92571952849359 a35.389659705445595,35.389659705445595 0 0,0 -0.5019317380383659,-0.3452332262807273 l 8.256387683564997 -11.785345512847762" fill="#ffb310" stroke="none" /><path d="M 87.95078237400918 117.19931262002967 l -7.935471700695878 11.327263130617057 a34.83035072378071,34.83035072378071 0 0,0 -0.4880771609260669,-0.3482300950683862 l 8.129276189470833 -11.188988773704452" fill="#ffac0f" stroke="none" /><path d="M 87.07902340077011 116.55440617244103 l -9.148469089793105 11.721054674573404 a35.86867880382245,35.86867880382245 0 0,0 -0.4834457515023647,-0.38407854344869935 l 9.348872334012828 -11.561842217119574" fill="#ffb911" stroke="none" /><path d="M 86.79598089348748 116.32954008644616 l -24.181457425345418 29.905445848765037 a59.458790602763514,59.458790602763514 0 0,0 -0.7903202179922688,-0.6503797346811225 l 24.692647771882374 -29.484770995226736" fill="#38ff2e" stroke="none" /><path d="M 86.24171649860922 115.8653595955263 l -9.746158688841831 11.238779333040206 a35.87608046781338,35.87608046781338 0 0,0 -0.4630707599304486,-0.408606105324579 l 9.938171801678868 -11.069350085943338" fill="#ffb911" stroke="none" /><path d="M 85.44109423537348 115.13401014063109 l -10.372101538571206 10.781819211013952 a35.96088619786344,35.96088619786344 0 0,0 -0.4424046029441268,-0.4329860178068074 l 10.556156093891127 -10.601683090284576" fill="#ffbb11" stroke="none" /><path d="M 85.18274418774928 114.88116024355367 l -9.347926808547097 9.388242907164207 a34.24850333063598,34.24850333063598 0 0,0 -0.41417754755389524,-0.41955966898766534 l 9.508144981156525 -9.225942744195878" fill="#ffa40f" stroke="none" /><path d="M 84.43433777217949 114.09645910891817 l -11.027248123614989 9.986414325540625 a35.877119084726495,35.877119084726495 0 0,0 -0.4106070510536534,-0.4613213746742457 l 11.19751402431698 -9.795118781125515" fill="#ffb911" stroke="none" /><path d="M 83.95833913139862 113.55231037782056 l -11.228499504832824 9.486057061868696 a35.699131937330854,35.699131937330854 0 0,0 -0.39252725545990963,-0.47282436567519925 l 11.39012276018627 -9.291371439079736" fill="#ffb711" stroke="none" /><path d="M 83.06392112726016 112.41649034213515 l -50.80823661821951 37.24947102640544 a84.0,84.0 0 0,0 -0.8448808304975701,-1.1734655781954473 l 51.44189724109269 -36.36937184275885" fill="#4dd2ff" stroke="none" /><line stroke="#e1ed5e" stroke-width="0.3" x1="26.63291911575756" x2="22.317208475507996" y1="142.92168965132927" y2="145.44649492493687" /><path d="M 25.769776987707644 143.4266507060508 a86.0,86.0 0 0,1 -11.730757126820373,-40.83630448921669" fill="none" id="id33" stroke="none" /><text fill="#e1ed5e" style="font-size:6.75px; font-family:Arial;" text-anchor="middle"><textPath startOffset="21.46611528233685" xlink:href="#id33">September</textPath></text><path d="M 81.69416730710424 110.29060199501025 l -7.951276313514946 4.46980048749649 a30.121508176386605,30.121508176386605 0 0,0 -0.25018579089813586,-0.4541598818554781 l 8.027038513864598 -4.332270087243189" fill="#ff6d0a" stroke="none" /><path d="M 80.73074385275274 108.34839909993369 l -1.4812518276065016 0.6417518834079035 a22.614296272883387,22.614296272883387 0 0,0 -0.15167625909819538,-0.3585178720655104 l 1.4920790678970037 -0.6161594856762342" fill="#ff0200" stroke="none" /><path d="M 79.86692584326677 105.97154293290107 l -9.35549386152048 2.77487346530625 a30.758339415157074,30.758339415157074 0 0,0 -0.14618613098995425,-0.5088930997946982 l 9.40187262939654 -2.6134228900069556" fill="#ff750a" stroke="none" /><path d="M 79.67330655649465 105.27499134158121 l -14.273958366673433 3.7042427487561103 a35.7467725891206,35.7467725891206 0 0,0 -0.14943629446630122,-0.5969237132570006 l 14.335605975434794 -3.457991196101718" fill="#ffb811" stroke="none" /><path d="M 79.29508885075956 103.50808413554451 l -7.382335627453829 1.2508073235023696 a28.4875495508812,28.4875495508812 0 0,0 -0.07775506489534809,-0.48418086332634586 l 7.402772446710468 -1.12354723048281" fill="#ff5608" stroke="none" /><line stroke="#e1ed5e" stroke-width="0.3" x1="15.007084014347285" x2="10.007500721073583" y1="101.09737516637583" y2="101.16192664675087" /><path d="M 14.007167355692545 101.11028546245083 a86.0,86.0 0 0,1 10.666146001902534,-42.60595125391555" fill="none" id="id34" stroke="none" /><text fill="#e1ed5e" style="font-size:6.75px; font-family:Arial;" text-anchor="middle"><textPath startOffset="22.20632615414155" xlink:href="#id34">October</textPath></text><path d="M 79.00175016825051 100.2711162175752 l -15.002648065003356 0.19370477204465106 a36.003898510089364,36.003898510089364 0 0,0 -0.002667207738124021,-0.6197651456721008 l 15.003759570030985 0.0645698518311252" fill="#ffbb11" stroke="none" /><path d="M 79.01574976396665 99.18683210126434 l -14.79568767452514 -0.5733527822682365 a35.806792602553394,35.806792602553394 0 0,0 0.029167858198149297,-0.6156873864874014 l 14.783626208093493 0.827951275378647" fill="#ffb911" stroke="none" /><path d="M 79.12142395522702 97.74499172005258 l -8.884427543610142 -0.9595701177355679 a29.936096887820185,29.936096887820185 0 0,0 0.059743393000900216,-0.5118449065564503 l 8.866593797605653 1.1123587626168798" fill="#ff6a09" stroke="none" /><path d="M 79.54389044137918 95.25157060432595 l -8.783388971904563 -2.0388677655597593 a30.01692317795895,30.01692317795895 0 0,0 0.12116431059913453,-0.5023042907085775 l 8.746991861044615 2.1897572879277334" fill="#ff6b09" stroke="none" /><line stroke="#e1ed5e" stroke-width="0.3" x1="26.266209847984243" x2="21.928928074336255" y1="57.711370442889674" y2="55.22380399835377" /><path d="M 25.398753493254645 57.213857153982495 a86.0,86.0 0 0,1 29.58750427330803,-30.492523968695096" fill="none" id="id35" stroke="none" /><text fill="#e1ed5e" style="font-size:6.75px; font-family:Arial;" text-anchor="middle"><textPath startOffset="21.46611528233685" xlink:href="#id35">November</textPath></text><line stroke="#e1ed5e" stroke-width="0.3" x1="56.762969772571076" x2="54.21961505331055" y1="26.818313649435495" y2="22.513508569990535" /><path d="M 56.25429882871897 25.957352633546506 a86.0,86.0 0 0,1 42.265352541879196,-11.944610805530505" fill="none" id="id36" stroke="none" /><text fill="#e1ed5e" style="font-size:6.75px; font-family:Arial;" text-anchor="middle"><textPath startOffset="22.20632615414155" xlink:href="#id36">December</textPath></text></svg>