<?xml version="1.0" encoding="utf-8" ?>
<svg baseProfile="full" height="200mm" version="1.1" viewBox="0,0,200,200" width="200mm" xmlns="http://www.w3.org/2000/svg" xmlns:ev="http://www.w3.org/2001/xml-events" xmlns:xlink="http://www.w3.org/1999/xlink"><defs /><rect fill="#1a1a1a" height="200" width="200" x="0" y="0" /><text alignment-baseline="middle" fill="#e1ed5e" style="dominant-baseline: central; font-size:9.0px; font-family:Arial;" text-anchor="middle" x="100.0" y="100.0">2024</text><line stroke="#e1ed5e" stroke-width="0.3" x1="100.0" x2="100.0" y1="15.0" y2="10.0" /><path d="M 100.0 14.0 a86.0,86.0 0 0,1 42.35913384403234,11.155469271406648" fill="none" id="id61" stroke="none" /><text fill="#e1ed5e" style="font-size:6.75px; font-family:Arial;" text-anchor="middle"><textPath startOffset="22.145653131862478" xlink:href="#id61">January</textPath></text><path d="M 101.08105385017728 79.02784411241856 l 1.010004051595621 -19.59380877620359 a40.61982289784167,40.61982289784167 0 0,0 0.6960606040555931,0.04187327746902717 l -1.3462090077836766 19.57358352090987" fill="#ffbe11" stroke="none" /><path d="M 101.44090949804482 79.04949213459386 l 1.3961870140004853 -20.300252762637644 a41.34820877632822,41.34820877632822 0 0,0 0.7077061068913888,0.05478092851962721 l -1.7444621156671076 20.27329406712296" fill="#ffc812" stroke="none" /><path d="M 101.80034050326958 79.07731436759882 l 4.646387073374872 -53.99806085911192 a75.19759671221576,75.19759671221576 0 0,0 1.2851642996386643,0.12170639535606588 l -5.572650936398549 53.910342708250674" fill="#41ffce" stroke="none" /><path d="M 102.51750503828377 79.15144685158666 l 2.615588157811309 -21.66082208108093 a42.818169369576495,42.818169369576495 0 0,0 0.7289735797933321,0.09438022446374991 l -2.987039559495433 21.612730260416786" fill="#ffdd14" stroke="none" /><path d="M 102.87502721639298 79.19773525538626 l 2.479248812649977 -17.938609371920663 a39.10912424368959,39.10912424368959 0 0,0 0.6642496552092395,0.09762182462261264 l -2.7868235734668985 17.893406473999168" fill="#ffa80f" stroke="none" /><path d="M 103.23170211078529 79.25015418208739 l 4.697387299056898 -30.160596138227167 a51.52420362352775,51.52420362352775 0 0,0 0.8727770650553963,0.14361513392424108 l -5.214441867165365 30.075515005807254" fill="#aeff20" stroke="none" /><path d="M 103.94208987418118 79.37332000966035 l 3.456441952796536 -18.085564850377178 a39.41289349695616,39.41289349695616 0 0,0 0.663456969836576,0.13270997516344024 l -3.766395408164069 18.02356547855088" fill="#ffad10" stroke="none" /><path d="M 104.29559338865022 79.4440306129975 l 5.947433546586105 -28.460622515594157 a50.07540197084475,50.07540197084475 0 0,0 0.8399256465255145,0.18305788536522177 l -6.4351216097307535 28.354333172095217" fill="#c1ff1e" stroke="none" /><path d="M 104.64783097203109 79.52079915486377 l 13.869700173336286 -61.11245809514672 a83.66658692899517,83.66658692899517 0 0,0 1.3979007218910109,0.3299007640799494 l -14.916733048967181 60.86536118742055" fill="#4dd5ff" stroke="none" /><path d="M 104.9986988182912 79.60360301121754 l 4.398937437532408 -17.949165886213567 a39.48034649540254,39.48034649540254 0 0,0 0.6568678136724285,0.16697322957392757 l -4.706410544430231 17.87100742480437" fill="#ffae10" stroke="none" /><path d="M 105.3480935250658 79.69241777938227 l 4.174501617440228 -15.851262590854946 a37.39173540166655,37.39173540166655 0 0,0 0.6193114773346815,0.16879609710337995 l -4.445994495709602 15.777265999607422" fill="#ff8f0d" stroke="none" /><path d="M 105.69591212413111 79.78721728523813 l 9.286060491130971 -32.95295273046328 a55.236355137501,55.236355137501 0 0,0 0.9104529182561855,0.26501957542137355 l -9.85037342176876 32.78868946073939" fill="#81ff25" stroke="none" /><path d="M 106.38641147887787 79.99465700312896 l 5.9593536873008555 -18.667590547276962 a40.59573507708069,40.59573507708069 0 0,0 0.662053152970291,0.21763002142787513 l -6.2789295779188885 18.562539604447068" fill="#ffbe11" stroke="none" /><path d="M 106.72888874123014 80.10723608172694 l 4.0082539726063 -11.849690649954267 a33.50924731582711,33.50924731582711 0 0,0 0.5433192997216711,0.18899465597777695 l -4.21107904437299 11.779137561407898" fill="#ff5507" stroke="none" /><path d="M 107.06938296918511 80.22567764915836 l 15.13810955560961 -42.34398665906284 a65.96860646162533,65.96860646162533 0 0,0 1.0630710512797057,0.390374415098282 l -15.862769758543442 42.07788139495584" fill="#34ff5d" stroke="none" /><path d="M 108.07796709384702 80.6158196554323 l 10.74985396011596 -25.795736157352454 a48.946008016594455,48.946008016594455 0 0,0 0.7727990223204605,0.3298619491582033 l -11.191088057606851 25.60739955853485" fill="#cfff1d" stroke="none" /><path d="M 108.73861861582097 80.90454125486305 l 9.142625514278274 -19.978286729902774 a42.9708794079013,42.9708794079013 0 0,0 0.6681179572164911,0.31271293923064936 l -9.48423218536627 19.81839755910159" fill="#ffdf14" stroke="none" /><path d="M 109.06512990194946 81.05736502329252 l 27.195389705848374 -56.82790493012246 a84.0,84.0 0 0,0 1.2953590029517317,0.6336249996111154 l -28.166908958062173 56.352686180414125" fill="#4dd2ff" stroke="none" /><path d="M 109.71004243097381 81.37971332152246 l 9.663693760163287 -18.53140699089704 a41.89976129415086,41.89976129415086 0 0,0 0.6349034599843916,0.3380503313620864 l -9.980386035934238 18.362786191812383" fill="#ffd013" stroke="none" /><path d="M 110.02825361518725 81.54914285379988 l 10.368666952396715 -19.077179345112288 a42.71285393805482,42.71285393805482 0 0,0 0.641213116400542,0.35567010674654825 l -10.694624256953357 18.896376322932596" fill="#ffdc14" stroke="none" /><path d="M 110.34350942703115 81.72400993836675 l 16.736511446464792 -29.571812064350393 a54.9794479673656,54.9794479673656 0 0,0 0.8173808461089955,0.4719150515314727 l -17.241684760434186 29.280150115542746" fill="#84ff25" stroke="none" /><line stroke="#e1ed5e" stroke-width="0.3" x1="143.13028292997686" x2="145.6673583964461" y1="26.7553504044142" y2="22.446841604673864" /><path d="M 143.63769802327073 25.89364864446614 a86.0,86.0 0 0,1 29.32050498858742,28.57503671076993" fill="none" id="id62" stroke="none" /><text fill="#e1ed5e" style="font-size:6.75px; font-family:Arial;" text-anchor="middle"><textPath startOffset="20.669276256404974" xlink:href="#id62">February</textPath></text><path d="M 110.96478420261332 82.08984904055464 l 11.33029678166643 -18.507188287991877 a42.70003786835001,42.70003786835001 0 0,0 0.621866822960909,0.38809089059897445 l -11.646327733417051 18.309961600551357" fill="#ffdb14" stroke="none" /><path d="M 111.27062007382361 82.28071324371311 l 29.79494067563123 -46.84259555019838 a76.51546854475652,76.51546854475652 0 0,0 1.1022394566369458,0.714458298912752 l -30.594665764525185 46.324223409581734" fill="#43ffdd" stroke="none" /><path d="M 111.8722381534696 82.67804972795209 l 12.515903197063457 -18.261076806814227 a43.13853561061869,43.13853561061869 0 0,0 0.6072363279083054,0.4238981172298248 l -12.827534616145524 18.043533873779275" fill="#ffe115" stroke="none" /><path d="M 112.16784306229584 82.88440491214696 l 11.844703223835452 -16.661058437147858 a41.442305709160934,41.442305709160934 0 0,0 0.5762828686172533,0.41718435521132585 l -12.128967102826673 16.455273310563456" fill="#ffca12" stroke="none" /><path d="M 112.45986205192187 83.09580414077388 l 16.46651562326604 -22.339990928853126 a48.75286168077996,48.75286168077996 0 0,0 0.6694162832237969,0.5023424587690525 l -16.847584895400605 22.05402944282006" fill="#d2ff1c" stroke="none" /><path d="M 113.03279911837588 83.53348406188908 l 19.944089254259325 -25.198705250763783 a53.13629478481818,53.13629478481818 0 0,0 0.7103797060482641,0.5722316060515741 l -20.373719730662845 24.8526253509188" fill="#9aff22" stroke="none" /><path d="M 113.59037401385872 83.9905735841838 l 24.145203863507362 -28.442989438960137 a58.309442743561966,58.309442743561966 0 0,0 0.757524404954109,0.6543315388206111 l -24.62990774822433 28.024313767674805" fill="#5dff2a" stroke="none" /><path d="M 114.39649973595853 84.71141617570332 l 23.748956599488533 -25.2205689139819 a55.642315683413834,55.642315683413834 0 0,0 0.6897726534552705,0.6607865987214754 l -24.178401738809114 24.809170184954844" fill="#7cff26" stroke="none" /><path d="M 114.65682725009322 84.96080404539774 l 4.9751117786642975 -5.104902968335545 a28.128237617134076,28.128237617134076 0 0,0 0.34290743345193586,0.33997661829841946 l -5.062011132246195 5.018746339808466" fill="#ff0000" stroke="none" /><path d="M 115.16444852881244 85.47280134310134 l 14.504493804351654 -13.894976959645062 a41.08608287420777,41.08608287420777 0 0,0 0.48353265223757175,0.5134949203697173 l -14.740882290325485 13.643940579330849" fill="#ffc512" stroke="none" /><path d="M 115.41159269507618 85.73525988315684 l 17.169657463617728 -15.891978620222202 a44.395557738245174,44.395557738245174 0 0,0 0.5128792561764502,0.5637441457595155 l -17.439934420636057 15.594896898905015" fill="#fff316" stroke="none" /><path d="M 115.6541949942343 86.00192230759917 l 13.809427124416755 -12.348474887806795 a39.525255991736586,39.525255991736586 0 0,0 0.4479320771541785,0.5096644780441764 l -14.019370265529524 12.10959813195132" fill="#ffae10" stroke="none" /><path d="M 115.8921839302757 86.27271002978787 l 13.783508798225816 -11.90586661407544 a39.21358763733616,39.21358763733616 0 0,0 0.43565443715146773,0.5131998315269317 l -13.985857798884394 11.667500000098956" fill="#ffaa0f" stroke="none" /><path d="M 116.1254893667686 86.54754324733833 l 25.1823870183846 -21.008042893366966 a53.79467155123301,53.79467155123301 0 0,0 0.5854734900498865,0.7141824612029826 l -25.539307327673114 20.57265815046549" fill="#92ff23" stroke="none" /><path d="M 116.57777611688842 87.10902102172516 l 14.674236574853298 -11.410775116932356 a39.58867956106525,39.58867956106525 0 0,0 0.412566868623481,0.5400632746025398 l -14.867955420831086 11.157190929088936" fill="#ffaf10" stroke="none" /><path d="M 116.7966241395341 87.39550010848427 l 50.34188392991159 -37.77748821799072 a83.94000233296086,83.94000233296086 0 0,0 0.854980808340442,1.159945670332436 l -50.982966757835854 36.90773623838941" fill="#4dd3ff" stroke="none" /><path d="M 117.21940702142032 87.97951657250589 l 16.827917264762387 -11.747193172720156 a41.52255702652306,41.52255702652306 0 0,0 0.4029868226512543,0.5879698176552877 l -17.027093824228967 11.45658861999482" fill="#ffcb12" stroke="none" /><path d="M 117.42321728460499 88.27688183743584 l 15.126166600948464 -10.17755994848517 a39.2313916787682,39.2313916787682 0 0,0 0.3711580358904808,0.5619805722730995 l -15.298649075759668 9.91639949787301" fill="#ffaa0f" stroke="none" /><path d="M 117.62189284568427 88.57770195909679 l 25.753685453460072 -16.69322776373244 a51.690652772588734,51.690652772588734 0 0,0 0.47624889618119337,0.7487423676359278 l -26.036452041267157 16.24867172141784" fill="#acff20" stroke="none" /><path d="M 117.81537515405839 88.88188828441811 l 15.124740689907174 -9.438956811486971 a38.828395514629186,38.828395514629186 0 0,0 0.3480356154594942,0.5684900219611568 l -15.28454426982207 9.177929673401259" fill="#ffa40f" stroke="none" /><line stroke="#e1ed5e" stroke-width="0.3" x1="172.87174338648825" x2="177.1583165268699" y1="56.24261187166439" y2="53.66864786411523" /><path d="M 173.72905801456457 55.72781907015455 a86.0,86.0 0 0,1 12.242430191666344,42.057860355516425" fill="none" id="id63" stroke="none" /><text fill="#e1ed5e" style="font-size:6.75px; font-family:Arial;" text-anchor="middle"><textPath startOffset="22.145653131862474" xlink:href="#id63">March</textPath></text><path d="M 118.18653347947321 89.5 l 49.21611888498515 -28.414939486714808 a77.8298789734296,77.8298789734296 0 0,0 0.6580947481002599,1.1627903624723115 l -49.696646998106786 27.565892354143376" fill="#44ffeb" stroke="none" /><path d="M 118.70294669586156 90.45014215332178 l 15.90836399372871 -8.122924006779089 a38.862193017008636,38.862193017008636 0 0,0 0.29827674491731815,0.5967532975048017 l -16.045460651857763 7.848638853110536" fill="#ffa50f" stroke="none" /><path d="M 118.8641267826498 90.77261029715802 l 29.18988130161234 -14.278233668224027 a53.49487847471696,53.49487847471696 0 0,0 0.3964244135037993,0.8283745563583124 l -29.43068497307605 13.775046609800611" fill="#96ff23" stroke="none" /><path d="M 119.31412917781788 91.75594674310238 l 19.682895523225035 -8.401457681549573 a42.40095482339656,42.40095482339656 0 0,0 0.27999602861815465,0.6718885397083534 l -19.824217396379673 8.06233663239994" fill="#ffd714" stroke="none" /><path d="M 119.4528033332814 92.08871423366111 l 32.89771946394823 -13.379216109940534 a56.514269943856796,56.514269943856796 0 0,0 0.35776580617421194,0.9018035414811615 l -33.12254394508856 12.812511551245807" fill="#72ff27" stroke="none" /><path d="M 119.71291397450082 92.76114493625339 l 18.388284324160168 -6.752432708109044 a40.58888327250166,40.58888327250166 0 0,0 0.2345647605741447,0.6561193824071263 l -18.501489254778257 6.4357783693210004" fill="#ffbe11" stroke="none" /><path d="M 119.83427380445688 93.10060997987247 l 20.514648447144044 -7.136059638888603 a42.720362521829244,42.720362521829244 0 0,0 0.2349916508088021,0.6947110603362604 l -20.63412551952521 6.7828469040781805" fill="#ffdc14" stroke="none" /><path d="M 120.05942366710727 93.78553927170692 l 17.89307319144701 -5.543319813273402 a39.73207043513101,39.73207043513101 0 0,0 0.1962455504479461,0.6532376120350237 l -17.985595061898582 5.2353445976476545" fill="#ffb110" stroke="none" /><path d="M 120.16314734710363 94.1308016681162 l 37.06895666933044 -10.790233037678986 a59.607469193928225,59.607469193928225 0 0,0 0.27754801054286665,0.9849199755470639 l -37.24872317194789 10.15230513822891" fill="#4fff2b" stroke="none" /><path d="M 120.43855184770803 95.1765574152323 l 15.28376250937302 -3.6069263366843143 a36.703608312779046,36.703608312779046 0 0,0 0.13945472785721494,0.6144632620630123 l -15.343428098787902 3.3440287406822757" fill="#ff850c" stroke="none" /><line stroke="#e1ed5e" stroke-width="0.3" x1="184.99686870605535" x2="189.99668451229388" y1="99.2704041080226" y2="99.22748670261217" /><path d="M 185.99683186730306 99.26182062694052 a86.0,86.0 0 0,1 -10.086455211305974,41.156179273409016" fill="none" id="id64" stroke="none" /><text fill="#e1ed5e" style="font-size:6.75px; font-family:Arial;" text-anchor="middle"><textPath startOffset="21.40746469413373" xlink:href="#id64">April</textPath></text><line stroke="#e1ed5e" stroke-width="0.3" x1="174.33088141563837" x2="178.70328620479359" y1="141.23008692659167" y2="143.65538615756765" /><path d="M 175.20536237346943 141.71514677278685 a86.0,86.0 0 0,1 -30.301960400862466,31.631185727798858" fill="none" id="id65" stroke="none" /><text fill="#e1ed5e" style="font-size:6.75px; font-family:Arial;" text-anchor="middle"><textPath startOffset="22.145653131862474" xlink:href="#id65">May</textPath></text><line stroke="#e1ed5e" stroke-width="0.3" x1="143.1302829299769" x2="145.66735839644613" y1="173.24464959558577" y2="177.55315839532614" /><path d="M 143.63769802327073 174.10635135553383 a86.0,86.0 0 0,1 -40.68552437913181,11.842963189579606" fill="none" id="id66" stroke="none" /><text fill="#e1ed5e" style="font-size:6.75px; font-family:Arial;" text-anchor="middle"><textPath startOffset="21.407464694133747" xlink:href="#id66">June</textPath></text><line stroke="#e1ed5e" stroke-width="0.3" x1="101.45913802915013" x2="101.54496967792366" y1="184.9874750549273" y2="189.98673829345242" /><path d="M 101.47630435890484 185.9873277026323 a86.0,86.0 0 0,1 -42.54439059252881,-10.42667462771756" fill="none" id="id67" stroke="none" /><text fill="#e1ed5e" style="font-size:6.75px; font-family:Arial;" text-anchor="middle"><textPath startOffset="22.145653131862474" xlink:href="#id67">July</textPath></text><line stroke="#e1ed5e" stroke-width="0.3" x1="58.13341422392154" x2="55.67067388415222" y1="173.97424548756322" y2="178.32567169271397" /><path d="M 57.64086615596768 174.84453072859336 a86.0,86.0 0 0,1 -31.369924170532247,-30.572349798747897" fill="none" id="id68" stroke="none" /><text fill="#e1ed5e" style="font-size:6.75px; font-family:Arial;" text-anchor="middle"><textPath startOffset="22.145653131862474" xlink:href="#id68">August</textPath></text><line stroke="#e1ed5e" stroke-width="0.3" x1="26.387840678322732" x2="22.057713659400548" y1="142.50000000000003" y2="145.00000000000006" /><path d="M 25.521815274538298 143.00000000000003 a86.0,86.0 0 0,1 -11.493303480769221,-40.785679425670985" fill="none" id="id69" stroke="none" /><text fill="#e1ed5e" style="font-size:6.75px; font-family:Arial;" text-anchor="middle"><textPath startOffset="21.40746469413373" xlink:href="#id69">September</textPath></text><line stroke="#e1ed5e" stroke-width="0.3" x1="15.003131293944662" x2="10.003315487706104" y1="100.72959589197737" y2="100.7725132973878" /><path d="M 14.003168132696942 100.73817937305945 a86.0,86.0 0 0,1 10.791469493833604,-42.45332614584628" fill="none" id="id70" stroke="none" /><text fill="#e1ed5e" style="font-size:6.75px; font-family:Arial;" text-anchor="middle"><textPath startOffset="22.145653131862435" xlink:href="#id70">October</textPath></text><line stroke="#e1ed5e" stroke-width="0.3" x1="26.387840678322718" x2="22.05771365940052" y1="57.49999999999999" y2="54.99999999999999" /><path d="M 25.521815274538284 56.99999999999999 a86.0,86.0 0 0,1 29.574782752854787,-30.34633250058573" fill="none" id="id71" stroke="none" /><text fill="#e1ed5e" style="font-size:6.75px; font-family:Arial;" text-anchor="middle"><textPath startOffset="21.40746469413373" xlink:href="#id71">November</textPath></text><line stroke="#e1ed5e" stroke-width="0.3" x1="56.869717070023135" x2="54.33264160355391" y1="26.7553504044142" y2="22.446841604673864" /><path d="M 56.362301976729285 25.89364864446614 a86.0,86.0 0 0,1 42.16139366436587,-11.88097634709845" fill="none" id="id72" stroke="none" /><text fill="#e1ed5e" style="font-size:6.75px; font-family:Arial;" text-anchor="middle"><textPath startOffset="22.145653131862474" xlink:href="#id72">December</textPath></text></svg>