<?xml version="1.0" encoding="utf-8" ?>
<svg baseProfile="full" height="200mm" version="1.1" viewBox="0,0,200,200" width="200mm" xmlns="http://www.w3.org/2000/svg" xmlns:ev="http://www.w3.org/2001/xml-events" xmlns:xlink="http://www.w3.org/1999/xlink"><defs /><rect fill="#1a1a1a" height="200" width="200" x="0" y="0" /><text alignment-baseline="middle" fill="#e1ed5e" style="dominant-baseline: central; font-size:9.0px; font-family:Arial;" text-anchor="middle" x="100.0" y="100.0">2023</text><line stroke="#e1ed5e" stroke-width="0.3" x1="100.0" x2="100.0" y1="15.0" y2="10.0" /><path d="M 100.0 14.0 a86.0,86.0 0 0,1 42.46469731375804,11.215312516191453" fill="none" id="id97" stroke="none" /><text fill="#e1ed5e" style="font-size:6.75px; font-family:Arial;" text-anchor="middle"><textPath startOffset="22.20632615414155" xlink:href="#id97">January</textPath></text><path d="M 101.44485096284872 79.0497635885617 l 0.9560194557236478 -13.862214253472528 a34.89514149654112,34.89514149654112 0 0,0 0.5988833970925094,0.046484877822008074 l -1.1944930421784983 13.843704113462055" fill="#ff700a" stroke="none" /><path d="M 102.52436894288641 79.15227682838746 l 1.6572126344928044 -13.686236450405964 a34.78620404216996,34.78620404216996 0 0,0 0.5938258000113695,0.07709563175605123 l -1.89255316301202 13.655682495485776" fill="#ff6e0a" stroke="none" /><path d="M 103.2404852339499 79.25152402106235 l 2.071809467748834 -13.265571626174188 a34.426383915254746,34.426383915254746 0 0,0 0.5847088419438937,0.09648196889942559 l -2.299847515831603 13.227943394335137" fill="#ff6909" stroke="none" /><path d="M 104.66035177308747 79.52364482259891 l 6.584290966711453 -28.929635999648536 a50.669457807760466,50.669457807760466 0 0,0 0.8487769072010454,0.20087807105246852 l -7.081291560875022 28.8120120164552" fill="#b6ff1f" stroke="none" /><path d="M 106.0581310904928 79.89281104454417 l 3.897786211516579 -12.936914486041434 a34.51134685254721,34.51134685254721 0 0,0 0.5673248448072958,0.17627059087746486 l -4.1198964290345925 12.86790376028145" fill="#ff6a09" stroke="none" /><path d="M 109.73455568895987 81.39251694778311 l 5.048869907817189 -9.650852513905994 a31.891741898852892,31.891741898852892 0 0,0 0.4842304704423738,0.2586591473471424 l -5.214245424787874 9.562514640057097" fill="#ff4206" stroke="none" /><line stroke="#e1ed5e" stroke-width="0.3" x1="143.23703022742887" x2="145.7803849466894" y1="26.81831364943548" y2="22.513508569990506" /><path d="M 143.74570117128098 25.957352633546492 a86.0,86.0 0 0,1 28.547481713284135,27.462654790039103" fill="none" id="id98" stroke="none" /><text fill="#e1ed5e" style="font-size:6.75px; font-family:Arial;" text-anchor="middle"><textPath startOffset="19.985693538727396" xlink:href="#id98">February</textPath></text><path d="M 110.99172775467656 82.1063720568725 l 7.090518976960725 -11.542781201384809 a34.54663268955362,34.54663268955362 0 0,0 0.5040203145766436,0.3156174747489818 l -7.288158443909632 11.419019385312884" fill="#ff6b09" stroke="none" /><path d="M 111.60114157652 82.49532879139004 l 12.219729008104844 -18.438042250782793 a43.11974636095926,43.11974636095926 0 0,0 0.6151654089582855,0.4153624301678489 l -12.535299111469671 18.224967908316277" fill="#ffe615" stroke="none" /><path d="M 112.48926042617603 83.11751280151076 l 7.992353915745571 -10.803747224741251 a34.43870065187248,34.43870065187248 0 0,0 0.47353844156151725,0.3566593367026869 l -8.177138511065472 10.664571298532715" fill="#ff6909" stroke="none" /><path d="M 113.06298171725822 83.55741782278167 l 8.377549111513565 -10.544953877395159 a34.4677162649134,34.4677162649134 0 0,0 0.4613694238719318,0.3730619880116573 l -8.557821933949988 10.399185792119372" fill="#ff6a09" stroke="none" /><path d="M 114.16331599549186 84.49514656593476 l 9.247262254326799 -10.123155196518764 a34.71094928635877,34.71094928635877 0 0,0 0.4376755103345091,0.4067716872556487 l -9.420145648456154 9.962478923188476" fill="#ff6d0a" stroke="none" /><path d="M 114.68862486808459 84.99185889309783 l 9.384742362110462 -9.588885201126587 a34.41715724747888,34.41715724747888 0 0,0 0.4198306450864697,0.41802775887472876 l -9.548408807364254 9.425921591601739" fill="#ff6909" stroke="none" /><path d="M 115.68641384162765 86.03803664274999 l 16.494956392524784 -14.681620608574438 a43.082426725462305,43.082426725462305 0 0,0 0.48828419511767573,0.5581932434773652 l -16.745232451220307 14.395511808894124" fill="#ffe515" stroke="none" /><path d="M 116.15771136456269 86.58626213691792 l 10.48251489789841 -8.702328183349584 a34.62400948309207,34.62400948309207 0 0,0 0.3767446846308217,0.461844436564444 l -10.630758074605641 8.520599577177038" fill="#ff6c09" stroke="none" /><path d="M 116.60985879189232 87.15038557335679 l 10.593926656108561 -8.195606868228163 a34.39400066946229,34.39400066946229 0 0,0 0.35822835515996904,0.47138652433472233 l -10.733430951492645 8.012035568012406" fill="#ff6909" stroke="none" /><path d="M 117.04232023915458 87.72973835380427 l 13.332492130844075 -9.599230887907426 a37.42865119412958,37.42865119412958 0 0,0 0.37194700771319866,0.5260926648015161 l -13.495751758361157 9.368311722774118" fill="#ff950d" stroke="none" /><path d="M 117.65298651832404 88.62581576622439 l 11.390709701004187 -7.339269792008942 a34.550392930555404,34.550392930555404 0 0,0 0.31781821204962507,0.5027120872537936 l -11.515355509299768 7.1421100570409415" fill="#ff6b09" stroke="none" /><line stroke="#e1ed5e" stroke-width="0.3" x1="172.23445277983987" x2="176.4835382374775" y1="55.19839476539836" y2="52.563006222186495" /><path d="M 173.08426987136738 54.67131705675599 a86.0,86.0 0 0,1 12.851231095245387,41.99856678651699" fill="none" id="id99" stroke="none" /><text fill="#e1ed5e" style="font-size:6.75px; font-family:Arial;" text-anchor="middle"><textPath startOffset="22.20632615414155" xlink:href="#id99">March</textPath></text><path d="M 118.03404312379186 89.2402003453031 l 12.169311056885803 -7.260676267044855 a35.17072868465385,35.17072868465385 0 0,0 0.30571791729583386,0.5225710205774955 l -12.292488648651965 7.050125834113464" fill="#ff740a" stroke="none" /><path d="M 118.73160827565052 90.50648371742162 l 13.283104981923236 -6.732116728760015 a35.8916847136395,35.8916847136395 0 0,0 0.2745542746418766,0.5534846641490936 l -13.397019269518522 6.502472476111971" fill="#ff7f0b" stroke="none" /><path d="M 119.04729006885535 91.15688171328212 l 12.80109341202886 -5.943185767249622 a35.11344924557874,35.11344924557874 0 0,0 0.24980323622450362,0.5504083183469427 l -12.901498965216712 5.721955440060617" fill="#ff730a" stroke="none" /><path d="M 119.34039704204932 91.81776055985345 l 13.073769664255169 -5.531050554219915 a35.195632196817975,35.195632196817975 0 0,0 0.23124923616622775,0.5599883679013982 l -13.167040587307595 5.305187615865213" fill="#ff750a" stroke="none" /><path d="M 119.61058180528143 92.48833698450437 l 28.320451102913808 -10.847902792696225 a51.32696730094057,51.32696730094057 0 0,0 0.3089282453793337,0.8277741081562162 l -28.502983936794763 10.358805547510675" fill="#aeff20" stroke="none" /><path d="M 119.97218684219823 93.5106431181261 l 19.85549475424469 -6.45144132410325 a41.87730267764937,41.87730267764937 0 0,0 0.21685366765587547,0.6874853870776234 l -19.96360390566877 6.108705770599207" fill="#ffd513" stroke="none" /><path d="M 120.37134235888165 94.90015583598534 l 21.320798063821925 -5.337534741813955 a42.978755815522035,42.978755815522035 0 0,0 0.17348517994075355,0.7192080723085061 l -21.409516044023498 4.969741437846043" fill="#ffe415" stroke="none" /><path d="M 120.53481517161879 95.60439243477599 l 13.838213064318673 -2.962157366713025 a35.1516966148463,35.1516966148463 0 0,0 0.12155909323583611,0.5927653094512031 l -13.887151453469507 2.72351640109841" fill="#ff740a" stroke="none" /><path d="M 120.67395015179393 96.31383870115 l 13.67702889477064 -2.438611596960918 a34.89272996603703,34.89272996603703 0 0,0 0.10033842900602419,0.5922030878263538 l -13.716979185296887 2.202822720818726" fill="#ff700a" stroke="none" /><path d="M 120.73433829027371 96.67025291283417 l 13.98024273156293 -2.2451004638585177 a35.15936661458541,35.15936661458541 0 0,0 0.09081849663087109,0.5983804207516675 l -14.016817121633101 2.004120930714768" fill="#ff740a" stroke="none" /><path d="M 120.83666639777658 97.38593545837742 l 20.910914938227396 -2.6233793942556463 a42.07483055685115,42.07483055685115 0 0,0 0.08396863314625914,0.7193919700170585 l -20.952973924377243 2.263043685913735" fill="#ffd714" stroke="none" /><path d="M 120.87857604477298 97.74499172005257 l 14.237129785736261 -1.5376932545914204 a35.31992894818667,35.31992894818667 0 0,0 0.060082351558508836,0.6050210807830245 l -14.261489262977 1.2923966431039609" fill="#ff760a" stroke="none" /><path d="M 120.94382443527127 98.46500227214037 l 22.65627960147133 -1.6605055976043663 a43.71704831662162,43.71704831662162 0 0,0 0.048545510941668,0.750977567515874 l -22.68150570341741 1.2702689658354571" fill="#ffee16" stroke="none" /><line stroke="#e1ed5e" stroke-width="0.3" x1="184.98032266829074" x2="189.97916517819016" y1="98.17113171792111" y2="98.06355123074" /><path d="M 185.9800911702706 98.14961562048488 a86.0,86.0 0 0,1 -9.607161424134198,41.387399972396054" fill="none" id="id100" stroke="none" /><text fill="#e1ed5e" style="font-size:6.75px; font-family:Arial;" text-anchor="middle"><textPath startOffset="21.466115282336823" xlink:href="#id100">April</textPath></text><path d="M 120.99513854157772 99.54816195383933 l 14.970595040353555 -0.3221833663779013 a35.97406150594517,35.97406150594517 0 0,0 0.007994794714052815,0.6192056611762861 l -14.973922842185322 0.06444144714115248" fill="#ff800b" stroke="none" /><path d="M 120.99824983174949 100.27111621757518 l 13.813429723290026 0.17835033149555618 a34.81458104905889,34.81458104905889 0 0,0 -0.012894553764157496,0.5991592452443023 l -13.808313106840862 -0.41609939252997336" fill="#ff6f0a" stroke="none" /><path d="M 120.9764740272857 100.99374915477107 l 21.783937151515076 1.0320022852146258 a42.808368727115905,42.808368727115905 0 0,0 -0.041205397358437375,0.7357500500551563 l -21.76294540326911 -1.4068240516052053" fill="#ffe115" stroke="none" /><path d="M 120.89721153311464 102.0752229133903 l 29.61299714123002 2.9407545645149806 a50.758656506892464,50.758656506892464 0 0,0 -0.09382543926172489,0.8687070402268389 l -29.557989400467246 -3.4500579266266107" fill="#b5ff20" stroke="none" /><path d="M 120.64145759157962 103.86396538481128 l 14.463694733104422 2.70752273851005 a35.714929313862896,35.714929313862896 0 0,0 -0.11831857267308857,0.6033038529919773 l -14.414946227455669 -2.956090318569972" fill="#ff7c0b" stroke="none" /><path d="M 120.41448212921028 104.9243191809786 l 27.827335007399466 6.712424966998436 a49.62546458228449,49.62546458228449 0 0,0 -0.20745496729408391,0.8286794707608433 l -27.707668725810322 -7.190432277156676" fill="#c3ff1e" stroke="none" /><path d="M 120.23288151984713 105.62410040840565 l 13.729344590371708 3.8163230700534916 a35.24988507519241,35.24988507519241 0 0,0 -0.16753324187728544,0.5832051932713432 l -13.661618711608323 -4.052085738829417" fill="#ff750a" stroke="none" /><path d="M 120.02730092923936 106.31721596034902 l 13.39598002016706 4.225496939748137 a35.046604753054595,35.046604753054595 0 0,0 -0.18642749173747752,0.5737648221973143 l -13.321260277413336 -4.455460661923246" fill="#ff720a" stroke="none" /><path d="M 119.67450827220406 107.3425965602758 l 13.57693742921101 5.066961404450721 a35.49162957817043,35.49162957817043 0 0,0 -0.2185367014764634,0.5705303676322888 l -13.48770644814104 -5.299915338916154" fill="#ff790b" stroke="none" /><path d="M 119.41010516605496 108.01547362559984 l 13.762572145810323 5.683304294923531 a35.88987373275309,35.88987373275309 0 0,0 -0.24071683335191416,0.5689834874408725 l -13.6627043312661 -5.919362308030567" fill="#ff7f0b" stroke="none" /><path d="M 118.97047184881838 109.00673069616215 l 13.117819751750975 6.228030107336361 a35.52121048870638,35.52121048870638 0 0,0 -0.2669955903212169,0.5500899975433052 l -13.008670904815045 -6.4529090608449415" fill="#ff790b" stroke="none" /><line stroke="#e1ed5e" stroke-width="0.3" x1="174.80103733775053" x2="179.2010983576182" y1="140.37084112569926" y2="142.7455964860345" /><path d="M 175.68104954172406 140.8457921977663 a86.0,86.0 0 0,1 -30.038265399797805,32.042727171017184" fill="none" id="id101" stroke="none" /><text fill="#e1ed5e" style="font-size:6.75px; font-family:Arial;" text-anchor="middle"><textPath startOffset="22.206326154141568" xlink:href="#id101">May</textPath></text><path d="M 117.94076556474637 110.91462005526583 l 13.884338142818267 8.446812093987635 a37.25187620600323,37.25187620600323 0 0,0 -0.33799045980739356,0.5449482397148032 l -13.73688304334291 -8.684556665067712" fill="#ff930d" stroke="none" /><path d="M 117.75023020441432 111.22182372390056 l 12.518580022049532 7.914336696661344 a35.81052231072821,35.81052231072821 0 0,0 -0.3338821956365818,0.5181925821791049 l -12.3804929630359 -8.128650878761903" fill="#ff7e0b" stroke="none" /><path d="M 117.14729908036423 112.12312394758627 l 12.121873255606223 8.570152725855634 a35.84544808921146,35.84544808921146 0 0,0 -0.36053728513299027,0.5007547555676478 l -11.97255617809763 -8.777541086874413" fill="#ff7e0b" stroke="none" /><path d="M 116.27256486870786 113.27417163493432 l 16.352333411011944 13.339241974500103 a42.1029425540412,42.1029425540412 0 0,0 -0.46293989771335553,0.557640929228198 l -16.120297513405045 -13.618744160842072" fill="#ffd814" stroke="none" /><path d="M 115.80600337817218 113.82643327865902 l 12.446327558897826 10.887528835726233 a37.53630411706769,37.53630411706769 0 0,0 -0.42959611959266014,0.4826557944795492 l -12.257072589656827 -11.100158799946648" fill="#ff970d" stroke="none" /><path d="M 115.07121518719521 114.62390073753431 l 9.946324166405997 9.651116748465025 a34.85905548425772,34.85905548425772 0 0,0 -0.42156114009221407,0.42703920924670213 l -9.778722401258248 -9.820896451692391" fill="#ff700a" stroke="none" /><path d="M 114.55890576462653 115.13401014063108 l 19.23162512603468 19.9913107745629 a48.74000561415738,48.74000561415738 0 0,0 -0.609631090782381,0.5764442475888584 l -18.88465820086149 -20.31938965889768" fill="#ceff1d" stroke="none" /><path d="M 114.0293411484842 115.62618273729858 l 11.076701939059312 12.337469507257037 a37.58030396854224,37.58030396854224 0 0,0 -0.4850680367032516,0.4280161444970628 l -10.862691549449472 -12.52630879352639" fill="#ff980e" stroke="none" /><path d="M 113.20401910651253 116.32954008644616 l 10.328446228132641 12.77329087094468 a37.42661745951327,37.42661745951327 0 0,0 -0.504443983088057,0.40076080857848395 l -10.107044752327234 -12.94918559352829" fill="#ff950d" stroke="none" /><path d="M 112.63410532772338 116.77436683061366 l 12.91398243111529 17.145961104842463 a42.46520264148291,42.46520264148291 0 0,0 -0.5876679105636294,0.4347426710794527 l -12.616929550133095 -17.365713724661685" fill="#ffdd14" stroke="none" /><path d="M 112.04921762599082 117.19931262002967 l 9.459141741259996 13.502182546206958 a37.48588171716463,37.48588171716463 0 0,0 -0.5316624663475435,0.3656822923110379 l -9.22532239028957 -13.66300562788309" fill="#ff960d" stroke="none" /><path d="M 111.1453310114006 117.79835938074945 l 10.721233047104517 17.12110287096389 a41.20091585964493,41.20091585964493 0 0,0 -0.6043209079337839,0.3712232598989718 l -10.424932939238424 -17.30311459769124" fill="#ffcb12" stroke="none" /><line stroke="#e1ed5e" stroke-width="0.3" x1="143.8653032363475" x2="146.44561519142675" y1="172.8068346515853" y2="177.08958963109032" /><path d="M 144.38136562736335 173.6633856474863 a86.0,86.0 0 0,1 -40.68145358897372,12.25698825130547" fill="none" id="id102" stroke="none" /><text fill="#e1ed5e" style="font-size:6.75px; font-family:Arial;" text-anchor="middle"><textPath startOffset="21.466115282336833" xlink:href="#id102">June</textPath></text><path d="M 109.89434966115114 118.52300852407294 l 15.972355153945587 29.901517613400518 a54.900101544807704,54.900101544807704 0 0,0 -0.8373810465248143,0.4380781864694038 l -15.455283204894277 -30.17202521881464" fill="#82ff25" stroke="none" /><path d="M 109.57404056367764 118.69057910512821 l 3.2720884034494766 6.38781784314407 a28.177101038523723,28.177101038523723 0 0,0 -0.4335866711155701,0.21740935800898786 l -3.161647824651146 -6.44319504206236" fill="#ff0801" stroke="none" /><path d="M 108.92500713936063 119.00905698771935 l 7.922735970551031 16.874355080196327 a39.641716783376225,39.641716783376225 0 0,0 -0.620170126955377,0.28468968786132676 l -7.631097847828235 -17.00823183839173" fill="#ffb510" stroke="none" /><path d="M 107.59598834532513 119.57807347666477 l 12.240365494642393 31.54859698841252 a54.839924931649946,54.839924931649946 0 0,0 -0.8830005576505666,0.3338752555491641 l -11.69549471623155 -31.754620494068316" fill="#83ff25" stroke="none" /><path d="M 106.57524785965236 119.94407469862006 l 5.227150271890049 15.855018351962029 a37.694451380802334,37.694451380802334 0 0,0 -0.6179711913770273,0.19785486059190163 l -4.953457735422081 -15.942646059213637" fill="#ff990e" stroke="none" /><path d="M 105.18746579009965 120.34920634021253 l 8.345986293730114 32.73933825796605 a54.78638419222528,54.78638419222528 0 0,0 -0.9158371529274831,0.22509048998234846 l -7.781195856059419 -32.87815000626242" fill="#84ff25" stroke="none" /><path d="M 104.48393922423573 120.51570834832081 l 2.89710462990062 13.255343275028826 a34.568247513052064,34.568247513052064 0 0,0 -0.5824067206447852,0.12204899094559177 l -2.6685064478264566 -13.303248246700958" fill="#ff6b09" stroke="none" /><path d="M 104.13013068566511 120.58985236759428 l 3.709016423175256 18.490480421653523 a39.85880879193954,39.85880879193954 0 0,0 -0.6738651412253627,0.12914785812839413 l -3.3901836673781887 -18.551585478130384" fill="#ffb811" stroke="none" /><path d="M 103.06178313531738 120.77559828337769 l 3.944049723644698 26.762180417985526 a48.05124449905013,48.05124449905013 0 0,0 -0.8193227053809973,0.11355066128031205 l -3.48279842707687 -26.826105644758442" fill="#d7ff1c" stroke="none" /><path d="M 102.34483914955558 120.86867818915974 l 1.4917415787916448 13.27625178686224 a34.359796197774074,34.359796197774074 0 0,0 -0.5883172714283005,0.060981490667736706 l -1.2629917107577415 -13.299962645985735" fill="#ff6809" stroke="none" /><path d="M 101.62511606390274 120.93702456842531 l 1.2518747401311636 16.128406316883225 a37.176918145538636,37.176918145538636 0 0,0 -0.6384467201311782,0.044031023812481127 l -0.9740652592210551 -16.14756568521199" fill="#ff920d" stroke="none" /><path d="M 100.90346689309514 120.98055641714683 l 0.5804420514041967 13.479184792981393 a34.49167653252846,34.49167653252846 0 0,0 -0.5933876556106443,0.020437470653153437 l -0.3483340441189001 -13.48717906206064" fill="#ff6a09" stroke="none" /><line stroke="#e1ed5e" stroke-width="0.3" x1="102.19456741930631" x2="102.32365962044197" y1="184.97166512339345" y2="189.96999836594603" /><path d="M 102.22038585953345 185.97133177190398 a86.0,86.0 0 0,1 -42.740103519485714,-10.115201625700543" fill="none" id="id103" stroke="none" /><text fill="#e1ed5e" style="font-size:6.75px; font-family:Arial;" text-anchor="middle"><textPath startOffset="22.20632615414155" xlink:href="#id103">July</textPath></text><path d="M 99.81925306533755 120.99922214144158 l -0.1201799686516072 13.962537530053632 a34.96305473394061,34.96305473394061 0 0,0 -0.6017646354921484,-0.010359923927234754 l 0.3605042940364236 -13.958400128847236" fill="#ff710a" stroke="none" /><path d="M 99.09653310690486 120.98055641714683 l -0.7815775247962174 18.150008017653256 a39.16682840971819,39.16682840971819 0 0,0 -0.6733186846814192,-0.034802885077953434 l 1.0938842778911255 -18.1338653258131" fill="#ffae10" stroke="none" /><path d="M 98.01472825383883 120.90594882070398 l -5.955815238483529 62.71784646211194 a84.0,84.0 0 0,0 -1.4382696135776267,-0.14908252617695705 l 7.034517448666749 -62.60603456747922" fill="#4dd2ff" stroke="none" /><path d="M 96.93821686468263 120.77559828337769 l -1.0944605645404062 7.426415268804913 a28.50662958138157,28.50662958138157 0 0,0 -0.48483551123171653,-0.07572133570850141 l 1.2221319393806398 -7.406475625749306" fill="#ff0d01" stroke="none" /><path d="M 96.22490169976321 120.6578951692458 l -2.456371678313077 13.4416284270301 a34.66422835700437,34.66422835700437 0 0,0 -0.5860439848866072,-0.11231672449995499 l 2.6873832777713793 -13.397354504181678" fill="#ff6d0a" stroke="none" /><path d="M 95.16358092515715 120.4354850818985 l -7.8030695864722865 32.97057381913324 a54.881361143470066,54.881361143470066 0 0,0 -0.9174248361065126,-0.2254807038796137 l 8.36944770732201 -32.8313718569396" fill="#83ff25" stroke="none" /><path d="M 94.81253420990036 120.34920634021253 l -3.3563899723870256 13.166327233747776 a34.587403227727826,34.587403227727826 0 0,0 -0.5756489517344581,-0.15203412014497622 l 3.582529366932973 -13.106601764299219" fill="#ff6b09" stroke="none" /><path d="M 94.11515582081647 120.15858648285463 l -4.324340908250747 14.813068541164528 a36.43136169934491,36.43136169934491 0 0,0 -0.6004669523505908,-0.1809157670377138 l 4.578682835041583 -14.736437405021087" fill="#ff870c" stroke="none" /><path d="M 93.42475214034765 119.94407469862007 l -5.160605391829244 15.653174088890655 a37.481920612213095,37.481920612213095 0 0,0 -0.6110093282478386,-0.20728753834400498 l 5.429284453014309 -15.562023563648527" fill="#ff960d" stroke="none" /><path d="M 92.7421414339146 119.70592522655815 l -11.667313717238295 31.678105823258164 a54.758385594189775,54.758385594189775 0 0,0 -0.8816876586898424,-0.33337882950251857 l 12.21087159668842 -31.472578743649013" fill="#84ff25" stroke="none" /><path d="M 92.40401165467489 119.57807347666478 l -5.011688035251113 12.917238960306545 a34.85539892317578,34.85539892317578 0 0,0 -0.5574854230689551,-0.2218349550270396 l 5.233294534361925 -12.82905716087344" fill="#ff6f0a" stroke="none" /><path d="M 91.7346041902142 119.30500536409082 l -5.843136075182023 13.647473862165214 a35.84573278796221,35.84573278796221 0 0,0 -0.5651324298970162,-0.24773744955564747 l 6.077189179736782 -13.544871859315114" fill="#ff7e0b" stroke="none" /><path d="M 91.07499286063937 119.00905698771935 l -6.457661270292323 13.753944302521724 a36.19448495207071,36.19448495207071 0 0,0 -0.56168210162551,-0.2696415421453526 l 6.693456039918075 -13.64074848387681" fill="#ff830c" stroke="none" /><path d="M 90.42595943632237 118.69057910512821 l -15.570138679800074 30.39624772185357 a55.15202913556521,55.15202913556521 0 0,0 -0.8412236512497767,-0.4400884556487891 l 16.091053233576346 -30.123729847260066" fill="#7fff26" stroke="none" /><line stroke="#e1ed5e" stroke-width="0.3" x1="58.666819895761336" x2="56.23545636021788" y1="174.27360380694188" y2="178.64263932499728" /><path d="M 58.180547188652646 175.14741091055294 a86.0,86.0 0 0,1 -31.652253787137756,-30.449443065178592" fill="none" id="id104" stroke="none" /><text fill="#e1ed5e" style="font-size:6.75px; font-family:Arial;" text-anchor="middle"><textPath startOffset="22.20632615414155" xlink:href="#id104">August</textPath></text><path d="M 89.7882731507175 118.34994917583269 l -3.6743781856081323 6.602669064090276 a28.556208958251993,28.556208958251993 0 0,0 -0.4274609284801039,-0.2427234712359485 l 3.7874878810094437 -6.538442427059694" fill="#ff0e01" stroke="none" /><path d="M 89.4739219176387 118.17145234162733 l -6.379452500400922 11.013020820258417 a33.72729514831478,33.72729514831478 0 0,0 -0.4998579939744823,-0.29532491354962936 l 6.568078365403786 -10.901577334415038" fill="#ff5e08" stroke="none" /><path d="M 88.54995079064634 117.60387380957326 l -4.087362822389046 6.2841144193946725 a28.496441080799087,28.496441080799087 0 0,0 -0.4088904139767007,-0.2709902702709632 l 4.194927935105709 -6.212826128032391" fill="#ff0d01" stroke="none" /><path d="M 88.24862548938628 117.40417183066458 l -18.946943646156758 28.061046185346136 a54.85866191311713,54.85866191311713 0 0,0 -0.7780607033153524,-0.5351572464765698 l 19.427161234095 -27.730748149504464" fill="#83ff25" stroke="none" /><path d="M 87.65650970185807 116.9893568818739 l -8.589174379376669 11.821984327548265 a35.61277625778679,35.61277625778679 0 0,0 -0.4928384774111314,-0.3645901234848001 l 8.791397827206364 -11.672384255323697" fill="#ff7b0b" stroke="none" /><path d="M 87.36589467227662 116.77436683061367 l -9.755232181783928 12.95207210090106 a37.214830453244105,37.214830453244105 0 0,0 -0.508374558620069,-0.3897999333465965 l 9.976735468897482 -12.782232825727096" fill="#ff920d" stroke="none" /><path d="M 86.79598089348748 116.32954008644616 l -10.276021613225584 12.708456834903412 a37.34324004963773,37.34324004963773 0 0,0 -0.4963625616562004,-0.4084725960518954 l 10.493254303426474 -12.529689119994336" fill="#ff940d" stroke="none" /><path d="M 86.24171649860922 115.8653595955263 l -22.15972930857349 25.553483760129122 a54.823573662586774,54.823573662586774 0 0,0 -0.7076356610587209,-0.6244061954968094 l 22.5963073225388 -25.168254422860024" fill="#83ff25" stroke="none" /><path d="M 85.44109423537348 115.13401014063109 l -12.160664020235961 12.641033301157565 a38.54073750827017,38.54073750827017 0 0,0 -0.4741429224158863,-0.4640486434406843 l 12.376456895027642 -12.429834554794311" fill="#ffa60f" stroke="none" /><path d="M 84.67929136418377 114.36230785411682 l -37.099597530195524 34.77879866123521 a71.8521874969133,71.8521874969133 0 0,0 -0.8381167343206326,-0.9096101850396644 l 37.69276067251189 -34.1350372213942" fill="#3cffa8" stroke="none" /><path d="M 84.43433777217949 114.09645910891817 l -34.550720885474355 31.289566548299028 a67.61318792451753,67.61318792451753 0 0,0 -0.7738205411772203,-0.8693955812278488 l 35.08420027629992 -30.690196797330316" fill="#37ff74" stroke="none" /><path d="M 83.95833913139862 113.55231037782056 l -10.371866649154498 8.762356789491376 a34.57772124821352,34.57772124821352 0 0,0 -0.3801968643227983,-0.4579716152308999 l 10.521159513370833 -8.582523917146714" fill="#ff6b09" stroke="none" /><path d="M 83.72743513129214 113.27417163493432 l -12.02951108933014 9.812945664833833 a36.52427259710734,36.52427259710734 0 0,0 -0.3932135147348312,-0.49059431897353684 l 12.196642516119832 -9.604423512282036" fill="#ff880c" stroke="none" /><path d="M 82.85270091963577 112.12312394758628 l -33.20412409230505 23.47528377824851 a61.66451530765478,61.66451530765478 0 0,0 -0.6053079640860317,-0.8719912682671812 l 33.603292963553216 -22.900251247794316" fill="#36ff2e" stroke="none" /><path d="M 82.44556493220864 111.52570212397912 l -12.555899847799385 8.243817644110493 a36.02035786315746,36.02035786315746 0 0,0 -0.3358386137630772,-0.52122898655777 l 12.695943324939506 -8.026467057631274" fill="#ff810b" stroke="none" /><path d="M 82.24976979558568 111.22182372390057 l -16.39987585782249 10.368119953991828 a40.402418393910395,40.402418393910395 0 0,0 -0.36657568318903444,-0.5910367215392763 l 16.57591618067948 -10.084286901087287" fill="#ffc011" stroke="none" /><line stroke="#e1ed5e" stroke-width="0.3" x1="26.63291911575756" x2="22.317208475507996" y1="142.92168965132927" y2="145.44649492493687" /><path d="M 25.769776987707644 143.4266507060508 a86.0,86.0 0 0,1 -11.730757126820373,-40.83630448921669" fill="none" id="id105" stroke="none" /><text fill="#e1ed5e" style="font-size:6.75px; font-family:Arial;" text-anchor="middle"><textPath startOffset="21.46611528233685" xlink:href="#id105">September</textPath></text><path d="M 81.18737489456691 109.33194174019688 l -12.87137237882479 6.38480257180499 a35.36794803704765,35.36794803704765 0 0,0 -0.2658435913270388,-0.5477165384044678 l 12.979369226766547 -6.162297077435237" fill="#ff770b" stroke="none" /><path d="M 81.02952815118164 109.00673069616217 l -20.94111318151801 9.942344523999417 a44.181467509953904,44.181467509953904 0 0,0 -0.3202638485848324,-0.6898198378422082 l 21.109151646942667 -9.580404618878381" fill="#fff417" stroke="none" /><path d="M 80.45479744820244 107.68017299344265 l -37.330706449450766 14.668882695863335 a61.10932265147423,61.10932265147423 0 0,0 -0.37627547566674135,-0.9823365320917326 l 37.57767620471101 -14.024122596938446" fill="#3cff2e" stroke="none" /><path d="M 80.0844068197444 106.66101706037122 l -18.090898465844116 6.050725289864787 a40.0759504044986,40.0759504044986 0 0,0 -0.21318067657480816,-0.6561026587381721 l 18.192371393435174 -5.738423731148812" fill="#ffbb11" stroke="none" /><path d="M 79.86692584326677 105.97154293290107 l -16.54834879529998 4.908300368362124 a38.26091713545286,38.26091713545286 0 0,0 -0.18184386902899172,-0.633022363764343 l 16.630385301215078 -4.6227205290931845" fill="#ffa10e" stroke="none" /><path d="M 79.58551787078972 104.9243191809786 l -11.72210796413655 2.827571168543408 a33.05831554720855,33.05831554720855 0 0,0 -0.12867466686275983,-0.5543270971158595 l 11.769043196929864 -2.6253754140789742" fill="#ff5407" stroke="none" /><path d="M 79.4281124754447 104.21870165774334 l -19.86338911468802 4.073409038743364 a41.27675734229767,41.27675734229767 0 0,0 -0.13674413213575243,-0.6972553837298622 l 19.930563179799435 -3.730889927945547" fill="#ffcc13" stroke="none" /><path d="M 79.18660465613746 102.79330883721812 l -41.32785095060641 5.5464977903090515 a62.6983800876418,62.6983800876418 0 0,0 -0.13434916555292148,-1.0708950367798564 l 41.41720162540618 -4.8342849992417865" fill="#30ff35" stroke="none" /><path d="M 79.10278846688536 102.07522291339032 l -13.903151657163866 1.380669322391009 a34.971537989065126,34.971537989065126 0 0,0 -0.05433145455737365,-0.5995430736735379 l 13.924857707998314 -1.1411448601689047" fill="#ff710a" stroke="none" /><path d="M 79.0235259727143 100.99374915477108 l -6.669934113103797 0.3159845348009309 a27.677414716743233,27.677414716743233 0 0,0 -0.018448798772723325,-0.47608152092939576 l 6.674385044727721 -0.2011257668575384" fill="#ff0000" stroke="none" /><line stroke="#e1ed5e" stroke-width="0.3" x1="15.007084014347285" x2="10.007500721073583" y1="101.09737516637583" y2="101.16192664675087" /><path d="M 14.007167355692545 101.11028546245083 a86.0,86.0 0 0,1 10.666146001902534,-42.60595125391555" fill="none" id="id106" stroke="none" /><text fill="#e1ed5e" style="font-size:6.75px; font-family:Arial;" text-anchor="middle"><textPath startOffset="22.20632615414155" xlink:href="#id106">October</textPath></text><line stroke="#e1ed5e" stroke-width="0.3" x1="26.266209847984243" x2="21.928928074336255" y1="57.711370442889674" y2="55.22380399835377" /><path d="M 25.398753493254645 57.213857153982495 a86.0,86.0 0 0,1 29.58750427330803,-30.492523968695096" fill="none" id="id107" stroke="none" /><text fill="#e1ed5e" style="font-size:6.75px; font-family:Arial;" text-anchor="middle"><textPath startOffset="21.46611528233685" xlink:href="#id107">November</textPath></text><line stroke="#e1ed5e" stroke-width="0.3" x1="56.762969772571076" x2="54.21961505331055" y1="26.818313649435495" y2="22.513508569990535" /><path d="M 56.25429882871897 25.957352633546506 a86.0,86.0 0 0,1 42.265352541879196,-11.944610805530505" fill="none" id="id108" stroke="none" /><text fill="#e1ed5e" style="font-size:6.75px; font-family:Arial;" text-anchor="middle"><textPath startOffset="22.20632615414155" xlink:href="#id108">December</textPath></text></svg>