<?xml version="1.0" encoding="utf-8" ?>
<svg baseProfile="full" height="200mm" version="1.1" viewBox="0,0,200,200" width="200mm" xmlns="http://www.w3.org/2000/svg" xmlns:ev="http://www.w3.org/2001/xml-events" xmlns:xlink="http://www.w3.org/1999/xlink"><defs /><rect fill="#1a1a1a" height="200" width="200" x="0" y="0" /><text alignment-baseline="middle" fill="#e1ed5e" style="dominant-baseline: central; font-size:9.0px; font-family:Arial;" text-anchor="middle" x="100.0" y="100.0">2026</text><line stroke="#e1ed5e" stroke-width="0.3" x1="100.0" x2="100.0" y1="15.0" y2="10.0" /><path d="M 100.0 14.0 a86.0,86.0 0 0,1 42.46469731375804,11.215312516191453" fill="none" id="id133" stroke="none" /><text fill="#e1ed5e" style="font-size:6.75px; font-family:Arial;" text-anchor="middle"><textPath startOffset="22.20632615414155" xlink:href="#id133">January</textPath></text><path d="M 100.0 79.0 l 0.0 -34.292402336912836 a55.292402336912836,55.292402336912836 0 0,0 0.9517678141369866,0.008192166060099825 l -0.5902873348644583 34.287321547461296" fill="#f2ff19" stroke="none" /><path d="M 100.36148047927253 79.00311137660856 l 0.5451571219256399 -31.665896300561876 a52.67058864002254,52.67058864002254 0 0,0 0.9063689449100912,0.02340883579817149 l -1.090152702030599 31.651820672621344" fill="#ffdd14" stroke="none" /><path d="M 100.72285384407766 79.0124445844662 l 1.4228594439720648 -41.311728053383675 a62.33622386907189,62.33622386907189 0 0,0 1.0720618440260137,0.04616523814575352 l -2.1337621203874098 41.28111508871373" fill="#7eff26" stroke="none" /><path d="M 101.08401301168833 79.027996857942 l 2.2104866344908065 -42.76547619277762 a63.8225665409757,63.8225665409757 0 0,0 1.0966478165925337,0.06615279111214457 l -2.946296499922952 42.72109013228517" fill="#67ff28" stroke="none" /><path d="M 101.80526077348638 79.07773832637324 l 2.309252481936394 -26.7633271642181 a47.862768433731915,47.862768433731915 0 0,0 0.8202194146284926,0.07788971662947165 l -2.7695970236551313 26.71961190307345" fill="#ff820c" stroke="none" /><path d="M 102.16513564639614 79.11191278185805 l 3.22279584843651 -31.091835230027485 a52.258416963305706,52.258416963305706 0 0,0 0.8939506378615049,0.10044577018379118 l -3.75751318980774 31.031753506373093" fill="#ffd513" stroke="none" /><path d="M 102.52436894288641 79.15227682838746 l 4.3140109929566535 -35.627639610245645 a56.88787253439378,56.88787253439378 0 0,0 0.971117353814438,0.12607890377978756 l -4.926643075278938 35.54810238330172" fill="#d7ff1c" stroke="none" /><path d="M 102.88285421437855 79.19881850522331 l 3.8677802296694903 -27.90789702024775 a49.17464179005255,49.17464179005255 0 0,0 0.8374465371634344,0.12341785055925203 l -4.347595747261581 27.83718468552753" fill="#ff9b0e" stroke="none" /><path d="M 103.2404852339499 79.25152402106235 l 3.164051383341192 -20.25907831197173 a41.50466959516848,41.50466959516848 0 0,0 0.7049287358786872,0.11631928148246669 l -3.5123093253587543 20.20161276754964" fill="#ff0000" stroke="none" /><path d="M 103.59715602781102 79.31037775812273 l 4.6513759295165125 -26.753137796254908 a48.15447808342279,48.15447808342279 0 0,0 0.8154270165337416,0.149014075193221 l -5.111198067153156 26.669108239710948" fill="#ff880c" stroke="none" /><path d="M 104.307194497241 79.44645832069477 l 6.210063372430903 -29.633859450309252 a51.27755791027887,51.27755791027887 0 0,0 0.8623353649358952,0.18847311053718327 l -6.719241461520326 29.522572841676197" fill="#ffc312" stroke="none" /><path d="M 104.66035177308747 79.52364482259891 l 7.280623883433797 -31.989138976840366 a53.80720190158914,53.80720190158914 0 0,0 0.9013380523716248,0.21331759593185343 l -7.830185622767945 31.859075468767642" fill="#fff116" stroke="none" /><path d="M 105.01212808612495 79.60689891045804 l 9.85380062207616 -40.09266099134181 a62.28581901895964,62.28581901895964 0 0,0 1.0389604173007037,0.2648541437886306 l -10.542469928061887 39.91710385138431" fill="#7fff26" stroke="none" /><path d="M 105.36241919743992 79.69619591428918 l 12.459036521176676 -47.173827205350875 a69.79136772254203,69.79136772254203 0 0,0 1.1588760589911706,0.3167646037190304 l -13.269210469391558 46.95237606080555" fill="#33ff55" stroke="none" /><path d="M 105.71112130821622 79.79150937346287 l 7.855279246410214 -27.79547630892357 a49.8841464350085,49.8841464350085 0 0,0 0.8242993711173799,0.24063559020621245 l -8.332568835251022 27.656142389798653" fill="#ffa90f" stroke="none" /><path d="M 106.0581310904928 79.89281104454417 l 9.640465309308043 -31.99710516284089 a54.417859150189,54.417859150189 0 0,0 0.8945638554482441,0.2779453444014889 l -10.189814537467006 31.82641968355688" fill="#fffc17" stroke="none" /><path d="M 106.74666289553966 80.11325718540242 l 13.164066367884159 -38.80294692439436 a61.9751306691684,61.9751306691684 0 0,0 1.007296542757967,0.35142598498216815 l -13.830044914705399 38.57060008623999" fill="#83ff25" stroke="none" /><path d="M 107.08798089147638 80.2323363322302 l 14.411040135537444 -40.19093714609305 a63.69648119540149,63.69648119540149 0 0,0 1.0289034384559481,0.3789538196566357 l -15.100725899765969 39.936920058630086" fill="#69ff28" stroke="none" /><path d="M 107.4271985657038 80.35727306442388 l 15.281378275826148 -40.414691759739426 a64.2072659635349,64.2072659635349 0 0,0 1.0304252170978636,0.39978897561773086 l -15.974786657923678 40.145660080231146" fill="#61ff29" stroke="none" /><path d="M 107.76421540070413 80.48803036053334 l 23.292646202112408 -58.53590891839998 a84.0,84.0 0 0,0 1.33886452164645,0.5461564552656828 l -24.296794593347244 58.12629157695072" fill="#4dd2ff" stroke="none" /><path d="M 108.09893153111575 80.62456947434976 l 12.155033317814805 -29.079021434058205 a52.51720676899532,52.51720676899532 0 0,0 0.8310628954676926,0.3558177604365891 l -12.653779971072813 28.865484145658826" fill="#ffda14" stroke="none" /><line stroke="#e1ed5e" stroke-width="0.3" x1="143.23703022742887" x2="145.7803849466894" y1="26.81831364943548" y2="22.513508569990506" /><path d="M 143.74570117128098 25.957352633546492 a86.0,86.0 0 0,1 28.547481713284135,27.462654790039103" fill="none" id="id134" stroke="none" /><text fill="#e1ed5e" style="font-size:6.75px; font-family:Arial;" text-anchor="middle"><textPath startOffset="19.985693538727396" xlink:href="#id134">February</textPath></text><line stroke="#e1ed5e" stroke-width="0.3" x1="172.23445277983987" x2="176.4835382374775" y1="55.19839476539836" y2="52.563006222186495" /><path d="M 173.08426987136738 54.67131705675599 a86.0,86.0 0 0,1 12.851231095245387,41.99856678651699" fill="none" id="id135" stroke="none" /><text fill="#e1ed5e" style="font-size:6.75px; font-family:Arial;" text-anchor="middle"><textPath startOffset="22.20632615414155" xlink:href="#id135">March</textPath></text><line stroke="#e1ed5e" stroke-width="0.3" x1="184.98032266829074" x2="189.97916517819016" y1="98.17113171792111" y2="98.06355123074" /><path d="M 185.9800911702706 98.14961562048488 a86.0,86.0 0 0,1 -9.607161424134198,41.387399972396054" fill="none" id="id136" stroke="none" /><text fill="#e1ed5e" style="font-size:6.75px; font-family:Arial;" text-anchor="middle"><textPath startOffset="21.466115282336823" xlink:href="#id136">April</textPath></text><line stroke="#e1ed5e" stroke-width="0.3" x1="174.80103733775053" x2="179.2010983576182" y1="140.37084112569926" y2="142.7455964860345" /><path d="M 175.68104954172406 140.8457921977663 a86.0,86.0 0 0,1 -30.038265399797805,32.042727171017184" fill="none" id="id137" stroke="none" /><text fill="#e1ed5e" style="font-size:6.75px; font-family:Arial;" text-anchor="middle"><textPath startOffset="22.206326154141568" xlink:href="#id137">May</textPath></text><line stroke="#e1ed5e" stroke-width="0.3" x1="143.8653032363475" x2="146.44561519142675" y1="172.8068346515853" y2="177.08958963109032" /><path d="M 144.38136562736335 173.6633856474863 a86.0,86.0 0 0,1 -40.68145358897372,12.25698825130547" fill="none" id="id138" stroke="none" /><text fill="#e1ed5e" style="font-size:6.75px; font-family:Arial;" text-anchor="middle"><textPath startOffset="21.466115282336833" xlink:href="#id138">June</textPath></text><line stroke="#e1ed5e" stroke-width="0.3" x1="102.19456741930631" x2="102.32365962044197" y1="184.97166512339345" y2="189.96999836594603" /><path d="M 102.22038585953345 185.97133177190398 a86.0,86.0 0 0,1 -42.740103519485714,-10.115201625700543" fill="none" id="id139" stroke="none" /><text fill="#e1ed5e" style="font-size:6.75px; font-family:Arial;" text-anchor="middle"><textPath startOffset="22.20632615414155" xlink:href="#id139">July</textPath></text><line stroke="#e1ed5e" stroke-width="0.3" x1="58.666819895761336" x2="56.23545636021788" y1="174.27360380694188" y2="178.64263932499728" /><path d="M 58.180547188652646 175.14741091055294 a86.0,86.0 0 0,1 -31.652253787137756,-30.449443065178592" fill="none" id="id140" stroke="none" /><text fill="#e1ed5e" style="font-size:6.75px; font-family:Arial;" text-anchor="middle"><textPath startOffset="22.20632615414155" xlink:href="#id140">August</textPath></text><line stroke="#e1ed5e" stroke-width="0.3" x1="26.63291911575756" x2="22.317208475507996" y1="142.92168965132927" y2="145.44649492493687" /><path d="M 25.769776987707644 143.4266507060508 a86.0,86.0 0 0,1 -11.730757126820373,-40.83630448921669" fill="none" id="id141" stroke="none" /><text fill="#e1ed5e" style="font-size:6.75px; font-family:Arial;" text-anchor="middle"><textPath startOffset="21.46611528233685" xlink:href="#id141">September</textPath></text><line stroke="#e1ed5e" stroke-width="0.3" x1="15.007084014347285" x2="10.007500721073583" y1="101.09737516637583" y2="101.16192664675087" /><path d="M 14.007167355692545 101.11028546245083 a86.0,86.0 0 0,1 10.666146001902534,-42.60595125391555" fill="none" id="id142" stroke="none" /><text fill="#e1ed5e" style="font-size:6.75px; font-family:Arial;" text-anchor="middle"><textPath startOffset="22.20632615414155" xlink:href="#id142">October</textPath></text><line stroke="#e1ed5e" stroke-width="0.3" x1="26.266209847984243" x2="21.928928074336255" y1="57.711370442889674" y2="55.22380399835377" /><path d="M 25.398753493254645 57.213857153982495 a86.0,86.0 0 0,1 29.58750427330803,-30.492523968695096" fill="none" id="id143" stroke="none" /><text fill="#e1ed5e" style="font-size:6.75px; font-family:Arial;" text-anchor="middle"><textPath startOffset="21.46611528233685" xlink:href="#id143">November</textPath></text><line stroke="#e1ed5e" stroke-width="0.3" x1="56.762969772571076" x2="54.21961505331055" y1="26.818313649435495" y2="22.513508569990535" /><path d="M 56.25429882871897 25.957352633546506 a86.0,86.0 0 0,1 42.265352541879196,-11.944610805530505" fill="none" id="id144" stroke="none" /><text fill="#e1ed5e" style="font-size:6.75px; font-family:Arial;" text-anchor="middle"><textPath startOffset="22.20632615414155" xlink:href="#id144">December</textPath></text></svg>