<?xml version="1.0" encoding="utf-8" ?>
<svg baseProfile="full" height="200mm" version="1.1" viewBox="0,0,200,200" width="200mm" xmlns="http://www.w3.org/2000/svg" xmlns:ev="http://www.w3.org/2001/xml-events" xmlns:xlink="http://www.w3.org/1999/xlink"><defs /><rect fill="#1a1a1a" height="200" width="200" x="0" y="0" /><text alignment-baseline="middle" fill="#e1ed5e" style="dominant-baseline: central; font-size:9.0px; font-family:Arial;" text-anchor="middle" x="100.0" y="100.0">2021</text><line stroke="#e1ed5e" stroke-width="0.3" x1="100.0" x2="100.0" y1="15.0" y2="10.0" /><path d="M 100.0 14.0 a86.0,86.0 0 0,1 42.46469731375804,11.215312516191453" fill="none" id="id73" stroke="none" /><text fill="#e1ed5e" style="font-size:6.75px; font-family:Arial;" text-anchor="middle"><textPath startOffset="22.20632615414155" xlink:href="#id73">January</textPath></text><line stroke="#e1ed5e" stroke-width="0.3" x1="143.23703022742887" x2="145.7803849466894" y1="26.81831364943548" y2="22.513508569990506" /><path d="M 143.74570117128098 25.957352633546492 a86.0,86.0 0 0,1 28.547481713284135,27.462654790039103" fill="none" id="id74" stroke="none" /><text fill="#e1ed5e" style="font-size:6.75px; font-family:Arial;" text-anchor="middle"><textPath startOffset="19.985693538727396" xlink:href="#id74">February</textPath></text><path d="M 115.9244219780498 86.31012108654704 l 14.597258933486364 -12.548945735248639 a40.24983136127334,40.24983136127334 0 0,0 0.4471361174056403,0.5292681290168261 l -14.811105664379122 12.295818656602707" fill="#ff0000" stroke="none" /><path d="M 117.45458315368197 88.32363383020206 l 24.63044882076734 -16.4767119802045 a50.63344473379789,50.63344473379789 0 0,0 0.47837360945733615,0.7285958265304044 l -24.9104190655826 16.050298089696422" fill="#ffc912" stroke="none" /><line stroke="#e1ed5e" stroke-width="0.3" x1="172.23445277983987" x2="176.4835382374775" y1="55.19839476539836" y2="52.563006222186495" /><path d="M 173.08426987136738 54.67131705675599 a86.0,86.0 0 0,1 12.851231095245387,41.99856678651699" fill="none" id="id75" stroke="none" /><text fill="#e1ed5e" style="font-size:6.75px; font-family:Arial;" text-anchor="middle"><textPath startOffset="22.20632615414155" xlink:href="#id75">March</textPath></text><line stroke="#e1ed5e" stroke-width="0.3" x1="184.98032266829074" x2="189.97916517819016" y1="98.17113171792111" y2="98.06355123074" /><path d="M 185.9800911702706 98.14961562048488 a86.0,86.0 0 0,1 -9.607161424134198,41.387399972396054" fill="none" id="id76" stroke="none" /><text fill="#e1ed5e" style="font-size:6.75px; font-family:Arial;" text-anchor="middle"><textPath startOffset="21.466115282336823" xlink:href="#id76">April</textPath></text><line stroke="#e1ed5e" stroke-width="0.3" x1="174.80103733775053" x2="179.2010983576182" y1="140.37084112569926" y2="142.7455964860345" /><path d="M 175.68104954172406 140.8457921977663 a86.0,86.0 0 0,1 -30.038265399797805,32.042727171017184" fill="none" id="id77" stroke="none" /><text fill="#e1ed5e" style="font-size:6.75px; font-family:Arial;" text-anchor="middle"><textPath startOffset="22.206326154141568" xlink:href="#id77">May</textPath></text><path d="M 116.27256486870786 113.27417163493432 l 30.360686111404142 24.766406626661496 a60.18094126424671,60.18094126424671 0 0,0 -0.661715241337442,0.7970786356641713 l -29.929874870173155 -25.28534651943944" fill="#95ff23" stroke="none" /><path d="M 115.56566222782051 114.09645910891815 l 36.647302969335556 33.188257601790895 a70.44173598862707,70.44173598862707 0 0,0 -0.8216645836872012,0.8917546248662934 l -36.07059197765263 -33.81416348145852" fill="#35ff67" stroke="none" /><path d="M 114.81725581225074 114.88116024355365 l 24.625452799016017 24.731658399880164 a55.90082882633203,55.90082882633203 0 0,0 -0.687713418548355,0.6730723245371892 l -24.196089428091867 -25.151880827339927" fill="#daff1c" stroke="none" /><path d="M 113.20401910651253 116.32954008644616 l 27.338155661719544 33.80936555502028 a64.47928189629401,64.47928189629401 0 0,0 -0.8690656007481795,0.6904382737037986 l -26.752132568254012 -34.27493774272921" fill="#55ff2b" stroke="none" /><line stroke="#e1ed5e" stroke-width="0.3" x1="143.8653032363475" x2="146.44561519142675" y1="172.8068346515853" y2="177.08958963109032" /><path d="M 144.38136562736335 173.6633856474863 a86.0,86.0 0 0,1 -40.68145358897372,12.25698825130547" fill="none" id="id78" stroke="none" /><text fill="#e1ed5e" style="font-size:6.75px; font-family:Arial;" text-anchor="middle"><textPath startOffset="21.466115282336833" xlink:href="#id78">June</textPath></text><path d="M 107.59598834532513 119.57807347666477 l 16.270211169972793 41.93521307370371 a65.98090558284079,65.98090558284079 0 0,0 -1.0623861447030052,0.40170353515787444 l -15.545954804509513 -42.20906485896821" fill="#40ff2d" stroke="none" /><path d="M 104.48393922423573 120.51570834832081 l 5.443843853631748 24.907633045348426 a46.49560000910857,46.49560000910857 0 0,0 -0.7833590613898525,0.16416050777173227 l -5.014293330812517 -24.997649533846698" fill="#ff7c0b" stroke="none" /><line stroke="#e1ed5e" stroke-width="0.3" x1="102.19456741930631" x2="102.32365962044197" y1="184.97166512339345" y2="189.96999836594603" /><path d="M 102.22038585953345 185.97133177190398 a86.0,86.0 0 0,1 -42.740103519485714,-10.115201625700543" fill="none" id="id79" stroke="none" /><text fill="#e1ed5e" style="font-size:6.75px; font-family:Arial;" text-anchor="middle"><textPath startOffset="22.20632615414155" xlink:href="#id79">July</textPath></text><path d="M 99.45781275523022 120.99299961872073 l -0.882087997929978 34.15364928417859 a55.16503825056786,55.16503825056786 0 0,0 -0.9490478866200011,-0.032687128132574406 l 1.4698562362246221 -34.13340535761993" fill="#e6ff1a" stroke="none" /><path d="M 98.01472825383883 120.90594882070398 l -3.722117324241912 39.19584028520175 a60.37217358793474,60.37217358793474 0 0,0 -1.0337078902042893,-0.10714804939622709 l 4.396257811051795 -39.125962867349756" fill="#92ff23" stroke="none" /><path d="M 96.22490169976321 120.6578951692458 l -7.8334257625384405 42.86566212287455 a64.57553841789729,64.57553841789729 0 0,0 -1.091733687848725,-0.20923335962427914 l 8.57012706495886 -42.7244715649018" fill="#53ff2b" stroke="none" /><path d="M 95.51606077576429 120.51570834832081 l -12.45767357262971 56.99854189219484 a79.34404347213592,79.34404347213592 0 0,0 -1.3317703137916514,-0.303106587547084 l 13.436964035814224 -56.77565857107007" fill="#45ffee" stroke="none" /><line stroke="#e1ed5e" stroke-width="0.3" x1="58.666819895761336" x2="56.23545636021788" y1="174.27360380694188" y2="178.64263932499728" /><path d="M 58.180547188652646 175.14741091055294 a86.0,86.0 0 0,1 -31.652253787137756,-30.449443065178592" fill="none" id="id80" stroke="none" /><text fill="#e1ed5e" style="font-size:6.75px; font-family:Arial;" text-anchor="middle"><textPath startOffset="22.20632615414155" xlink:href="#id80">August</textPath></text><path d="M 89.7882731507175 118.34994917583269 l -23.519553872318145 42.263431500385394 a69.3670037994979,69.3670037994979 0 0,0 -1.038362056159689,-0.5896090750724776 l 24.24356469539904 -41.85231925951828" fill="#33ff55" stroke="none" /><path d="M 87.07902340077011 116.55440617244103 l -38.76292979768965 49.663218517323095 a84.0,84.0 0 0,0 -1.1321700291305676,-0.8994643439794774 l 39.61205731953757 -48.98862025933849" fill="#4dd2ff" stroke="none" /><path d="M 85.70375840098266 115.38237550388516 l -26.766721218321873 28.800279705425414 a60.31810620935476,60.31810620935476 0 0,0 -0.75444785898125,-0.7133775409278058 l 27.25850491169394 -28.335267527751675" fill="#93ff23" stroke="none" /><path d="M 84.19399662182784 113.82643327865904 l -38.059819940846566 33.29314491584943 a71.56662330349351,71.56662330349351 0 0,0 -0.803105278390224,-0.9341928753889365 l 38.627267728807574 -32.633074941298965" fill="#37ff79" stroke="none" /><line stroke="#e1ed5e" stroke-width="0.3" x1="26.63291911575756" x2="22.317208475507996" y1="142.92168965132927" y2="145.44649492493687" /><path d="M 25.769776987707644 143.4266507060508 a86.0,86.0 0 0,1 -11.730757126820373,-40.83630448921669" fill="none" id="id81" stroke="none" /><text fill="#e1ed5e" style="font-size:6.75px; font-family:Arial;" text-anchor="middle"><textPath startOffset="21.46611528233685" xlink:href="#id81">September</textPath></text><path d="M 81.18737489456691 109.33194174019688 l -35.706547532599075 17.71211723246182 a60.85820660233257,60.85820660233257 0 0,0 -0.4574414152593717,-0.9424648051059512 l 36.006142204473164 -17.094863471390585" fill="#8bff24" stroke="none" /><path d="M 80.45479744820244 107.68017299344265 l -45.10072498687019 17.72206602161757 a69.45768275945383,69.45768275945383 0 0,0 -0.42767979557031816,-1.1165369905700233 l 45.39909906203402 -16.94310546421439" fill="#33ff56" stroke="none" /><path d="M 79.18660465613746 102.79330883721812 l -24.19710948766506 3.247427853570285 a45.41405118414792,45.41405118414792 0 0,0 -0.0973125601082403,-0.775676850744607 l 24.249423557020148 -2.8304332485382697" fill="#ff6809" stroke="none" /><line stroke="#e1ed5e" stroke-width="0.3" x1="15.007084014347285" x2="10.007500721073583" y1="101.09737516637583" y2="101.16192664675087" /><path d="M 14.007167355692545 101.11028546245083 a86.0,86.0 0 0,1 10.666146001902534,-42.60595125391555" fill="none" id="id82" stroke="none" /><text fill="#e1ed5e" style="font-size:6.75px; font-family:Arial;" text-anchor="middle"><textPath startOffset="22.20632615414155" xlink:href="#id82">October</textPath></text><path d="M 79.16333360222342 97.38593545837743 l -42.59953335912038 -5.344325599781486 a63.93346082639145,63.93346082639145 0 0,0 0.14638936145772136,-1.0907707782106515 l 42.50122799860482 6.076814720056797" fill="#5dff2a" stroke="none" /><path d="M 79.71946130924805 94.55025226153421 l -37.811514529771564 -10.160638183173848 a60.152895158908706,60.152895158908706 0 0,0 0.27731409714843214,-0.9976463547844434 l 37.63101366205677 10.809995841377235" fill="#95ff23" stroke="none" /><path d="M 80.2630227832202 92.82701384747504 l -50.86766242810214 -18.48677404855523 a75.12282231759251,75.12282231759251 0 0,0 0.4521514304643438,-1.2115410380964005 l 50.541906409136175 19.35963822368097" fill="#3dffb0" stroke="none" /><path d="M 81.6062741919709 89.86733742301443 l -45.5973131583318 -25.118466670240426 a73.0581630018094,73.0581630018094 0 0,0 0.6162712055705997,-1.0962777093210743 l 45.158184311468766 25.899627889496287" fill="#3aff90" stroke="none" /><line stroke="#e1ed5e" stroke-width="0.3" x1="26.266209847984243" x2="21.928928074336255" y1="57.711370442889674" y2="55.22380399835377" /><path d="M 25.398753493254645 57.213857153982495 a86.0,86.0 0 0,1 29.58750427330803,-30.492523968695096" fill="none" id="id83" stroke="none" /><text fill="#e1ed5e" style="font-size:6.75px; font-family:Arial;" text-anchor="middle"><textPath startOffset="21.46611528233685" xlink:href="#id83">November</textPath></text><path d="M 84.07557802195018 86.31012108654704 l -18.907760413081846 -16.25459002131827 a45.93421545987851,45.93421545987851 0 0,0 0.520605572362833,-0.5951421649835816 l 18.62516297714117 16.577647742504794" fill="#ff720a" stroke="none" /><path d="M 84.5562425177563 85.77008943001954 l -43.97266392990629 -40.51650487038502 a80.7928284997826,80.7928284997826 0 0,0 0.9511727312182345,-1.0146447510628265 l 43.268723876717594 41.2674190383259" fill="#47fcff" stroke="none" /><line stroke="#e1ed5e" stroke-width="0.3" x1="56.762969772571076" x2="54.21961505331055" y1="26.818313649435495" y2="22.513508569990535" /><path d="M 56.25429882871897 25.957352633546506 a86.0,86.0 0 0,1 42.265352541879196,-11.944610805530505" fill="none" id="id84" stroke="none" /><text fill="#e1ed5e" style="font-size:6.75px; font-family:Arial;" text-anchor="middle"><textPath startOffset="22.20632615414155" xlink:href="#id84">December</textPath></text></svg>