<?xml version="1.0" encoding="utf-8" ?>
<svg baseProfile="full" height="200mm" version="1.1" viewBox="0,0,200,200" width="200mm" xmlns="http://www.w3.org/2000/svg" xmlns:ev="http://www.w3.org/2001/xml-events" xmlns:xlink="http://www.w3.org/1999/xlink"><defs /><rect fill="#1a1a1a" height="200" width="200" x="0" y="0" /><text alignment-baseline="middle" fill="#e1ed5e" style="dominant-baseline: central; font-size:9.0px; font-family:Arial;" text-anchor="middle" x="100.0" y="100.0">2021</text><line stroke="#e1ed5e" stroke-width="0.3" x1="100.0" x2="100.0" y1="15.0" y2="10.0" /><path d="M 100.0 14.0 a86.0,86.0 0 0,1 42.46469731375804,11.215312516191453" fill="none" id="id73" stroke="none" /><text fill="#e1ed5e" style="font-size:6.75px; font-family:Arial;" text-anchor="middle"><textPath startOffset="22.20632615414155" xlink:href="#id73">January</textPath></text><path d="M 108.76106565485865 80.91482961587045 l 6.949753717568103 -15.139395029412661 a37.65834201208081,37.65834201208081 0 0,0 0.5867919063183132,0.2755066680368925 l -7.209323835186014 15.017523378735767" fill="#ffb811" stroke="none" /><line stroke="#e1ed5e" stroke-width="0.3" x1="143.23703022742887" x2="145.7803849466894" y1="26.81831364943548" y2="22.513508569990506" /><path d="M 143.74570117128098 25.957352633546492 a86.0,86.0 0 0,1 28.547481713284135,27.462654790039103" fill="none" id="id74" stroke="none" /><text fill="#e1ed5e" style="font-size:6.75px; font-family:Arial;" text-anchor="middle"><textPath startOffset="19.985693538727396" xlink:href="#id74">February</textPath></text><path d="M 110.68208982089419 81.91981866633111 l 10.18090537754044 -17.23189174152134 a41.01471776713185,41.01471776713185 0 0,0 0.6047482125753075,0.36435403150268797 l -10.476015656333386 17.054091100560036" fill="#ffe515" stroke="none" /><path d="M 115.9244219780498 86.31012108654704 l 18.931729190915284 -16.275195457841843 a45.9658237867111,45.9658237867111 0 0,0 0.5106351824648147,0.6044309934107525 l -19.209074986867215 15.946905514801983" fill="#daff1b" stroke="none" /><path d="M 117.45458315368197 88.32363383020206 l 19.105235041553712 -12.780581360270308 a43.98593626327848,43.98593626327848 0 0,0 0.4155694167412531,0.6329407322758156 l -19.32240109365289 12.449822564016818" fill="#f3ff19" stroke="none" /><line stroke="#e1ed5e" stroke-width="0.3" x1="172.23445277983987" x2="176.4835382374775" y1="55.19839476539836" y2="52.563006222186495" /><path d="M 173.08426987136738 54.67131705675599 a86.0,86.0 0 0,1 12.851231095245387,41.99856678651699" fill="none" id="id75" stroke="none" /><text fill="#e1ed5e" style="font-size:6.75px; font-family:Arial;" text-anchor="middle"><textPath startOffset="22.20632615414155" xlink:href="#id75">March</textPath></text><path d="M 117.84615892207809 88.93136811851018 l 13.260693875176697 -8.22461234590228 a36.6041741303895,36.6041741303895 0 0,0 0.32749266837525165,0.5383118384097111 l -13.400302341838174 7.995132734285487" fill="#ffaa0f" stroke="none" /><path d="M 118.56541770881063 90.18545643968196 l 10.317769423462071 -5.454452953343943 a32.670793584669866,32.670793584669866 0 0,0 0.25855131928310093,0.4994388536228932 l -10.410130175905287 5.276041377460705" fill="#ff730a" stroke="none" /><path d="M 119.34039704204932 91.81776055985345 l 12.549510417492774 -5.309254968721104 a34.62638616954801,34.62638616954801 0 0,0 0.2275090644238733,0.5509312453595254 l -12.639041168802844 5.092449152908276" fill="#ff8f0d" stroke="none" /><path d="M 120.08093135843002 93.85539295169968 l 12.08928593385441 -3.699226406991084 a33.64259112684857,33.64259112684857 0 0,0 0.16467904636772399,0.5552158780127457 l -12.151170877333834 3.4905811422318083" fill="#ff810b" stroke="none" /><path d="M 120.67395015179393 96.31383870115 l 24.563288159938132 -4.379629510706129 a45.95067694230369,45.95067694230369 0 0,0 0.13213694487768238,0.7798797285116559 l -24.63503696633604 3.9561639938786355" fill="#dbff1b" stroke="none" /><line stroke="#e1ed5e" stroke-width="0.3" x1="184.98032266829074" x2="189.97916517819016" y1="98.17113171792111" y2="98.06355123074" /><path d="M 185.9800911702706 98.14961562048488 a86.0,86.0 0 0,1 -9.607161424134198,41.387399972396054" fill="none" id="id76" stroke="none" /><text fill="#e1ed5e" style="font-size:6.75px; font-family:Arial;" text-anchor="middle"><textPath startOffset="21.466115282336823" xlink:href="#id76">April</textPath></text><path d="M 119.9155931802556 106.66101706037122 l 16.91260357043568 5.656629953139136 a38.833497188085815,38.833497188085815 0 0,0 -0.21748453980281698,0.6321118749234585 l -16.812728199689637 -5.946914531151895" fill="#ffc812" stroke="none" /><path d="M 119.67450827220406 107.3425965602758 l 15.119976985678674 5.642829262642417 a37.138625286398664,37.138625286398664 0 0,0 -0.22867793797926597,0.5970059360429939 l -15.020604768105901 -5.902258765518555" fill="#ffb110" stroke="none" /><path d="M 119.12269723197855 108.67885076344098 l 18.736613007684735 8.503626142974714 a41.57601333055614,41.57601333055614 0 0,0 -0.3013773599769613,0.6491400216017709 l -18.587461030867942 -8.824886231855315" fill="#ffec16" stroke="none" /><path d="M 118.64920377521936 109.65438752849418 l 24.018067985334007 12.433760647961314 a48.04562799416789,48.04562799416789 0 0,0 -0.3865327781130727,0.731174347509207 l -23.80048269899604 -12.845350010556656" fill="#c1ff1e" stroke="none" /><line stroke="#e1ed5e" stroke-width="0.3" x1="174.80103733775053" x2="179.2010983576182" y1="140.37084112569926" y2="142.7455964860345" /><path d="M 175.68104954172406 140.8457921977663 a86.0,86.0 0 0,1 -30.038265399797805,32.042727171017184" fill="none" id="id77" stroke="none" /><text fill="#e1ed5e" style="font-size:6.75px; font-family:Arial;" text-anchor="middle"><textPath startOffset="22.206326154141568" xlink:href="#id77">May</textPath></text><path d="M 116.27256486870786 113.27417163493432 l 23.483741313629345 19.15661208559478 a51.30613622162049,51.30613622162049 0 0,0 -0.5641329563609017,0.6795344871919604 l -23.150512357374897 -19.55800782990051" fill="#9bff22" stroke="none" /><path d="M 115.56566222782051 114.09645910891815 l 28.511465145811414 25.820340739820285 a59.465486357008956,59.465486357008956 0 0,0 -0.6936325944490825,0.752801187173294 l -28.06278614336661 -26.307293181794915" fill="#41ff2d" stroke="none" /><path d="M 114.81725581225074 114.88116024355365 l 19.13924568194307 19.221790157544287 a48.1254113726307,48.1254113726307 0 0,0 -0.5920572533358874,0.5794526339227883 l -18.80553847623139 -19.54839289438965" fill="#c0ff1e" stroke="none" /><path d="M 113.20401910651253 116.32954008644616 l 23.608819165616506 29.19725848991275 a58.54805248906477,58.54805248906477 0 0,0 -0.7891232177629061,0.6269272098018304 l -23.102738455136247 -29.599319613719707" fill="#4bff2c" stroke="none" /><path d="M 112.04921762599082 117.19931262002967 l 11.075979870590102 15.810092097309097 a40.30379087690065,40.30379087690065 0 0,0 -0.5716288874420907,0.3931715611731518 l -10.802194098525128 -15.998404447847342" fill="#ffdc14" stroke="none" /><line stroke="#e1ed5e" stroke-width="0.3" x1="143.8653032363475" x2="146.44561519142675" y1="172.8068346515853" y2="177.08958963109032" /><path d="M 144.38136562736335 173.6633856474863 a86.0,86.0 0 0,1 -40.68145358897372,12.25698825130547" fill="none" id="id78" stroke="none" /><text fill="#e1ed5e" style="font-size:6.75px; font-family:Arial;" text-anchor="middle"><textPath startOffset="21.466115282336833" xlink:href="#id78">June</textPath></text><path d="M 109.89434966115114 118.52300852407294 l 5.960174641719355 11.15792037621264 a33.650014580295775,33.650014580295775 0 0,0 -0.5132574190564192,0.268512023606615 l -5.767226320136441 -11.258861818763972" fill="#ff810b" stroke="none" /><path d="M 108.59647513512805 119.15986991738527 l 7.694836448401846 17.150292773427328 a39.7974213705478,39.7974213705478 0 0,0 -0.6274334960820027,0.2750484061115846 l -7.398482277662089 -17.280205732833366" fill="#ffd513" stroke="none" /><path d="M 107.59598834532513 119.57807347666477 l 22.787965035975386 58.73422042999433 a84.0,84.0 0 0,0 -1.3525191169589008,0.5114069995734765 l -21.77357569825621 -59.11777567967444" fill="#4dd2ff" stroke="none" /><path d="M 105.18746579009965 120.34920634021253 l 3.2470661724173877 12.737475718673835 a34.14483649239742,34.14483649239742 0 0,0 -0.5707825092207738,0.14028445369701145 l -3.0273303784534025 -12.791481430684875" fill="#ff880c" stroke="none" /><path d="M 104.48393922423573 120.51570834832081 l 4.25303510008758 19.459235137925038 a40.91858779420954,40.91858779420954 0 0,0 -0.6893974165639509,0.14446993152650425 l -3.917446222094251 -19.52956105017808" fill="#ffe415" stroke="none" /><path d="M 102.70371172650421 120.8252237178851 l 1.4585272547005064 11.234243680646898 a32.32852739012706,32.32852739012706 0 0,0 -0.5524677111166157,0.06689614594409439 l -1.2649321205325101 -11.257685355316344" fill="#ff6f0a" stroke="none" /><path d="M 101.26447882468166 120.96189622390904 l 0.8192364421118574 13.580891152302623 a34.60557800458238,34.60557800458238 0 0,0 -0.5949060266239184,0.03074984631767633 l -0.5853423470744594 -13.592980805382503" fill="#ff8f0d" stroke="none" /><line stroke="#e1ed5e" stroke-width="0.3" x1="102.19456741930631" x2="102.32365962044197" y1="184.97166512339345" y2="189.96999836594603" /><path d="M 102.22038585953345 185.97133177190398 a86.0,86.0 0 0,1 -42.740103519485714,-10.115201625700543" fill="none" id="id79" stroke="none" /><text fill="#e1ed5e" style="font-size:6.75px; font-family:Arial;" text-anchor="middle"><textPath startOffset="22.20632615414155" xlink:href="#id79">July</textPath></text><path d="M 100.54218724476979 120.99299961872073 l 0.6783266270783918 26.264193340938807 a47.27295146844408,47.27295146844408 0 0,0 -0.8136357256401564,0.01400747688540838 l -0.2261312115455673 -26.271978295103374" fill="#caff1d" stroke="none" /><path d="M 99.45781275523022 120.99299961872073 l -0.6871401746076896 26.605445927950644 a47.61431785044782,47.61431785044782 0 0,0 -0.8191468575362645,-0.028213074038912527 l 1.1450073838185972 -26.589676055485636" fill="#c6ff1e" stroke="none" /><path d="M 98.01472825383883 120.90594882070398 l -2.868446232024764 30.206237628479478 a51.34212872318267,51.34212872318267 0 0,0 -0.8790931385588655,-0.09112159820660212 l 3.3879719671892228 -30.152386661817115" fill="#9aff22" stroke="none" /><path d="M 96.22490169976321 120.6578951692458 l -6.087911313449265 33.31394938908263 a54.86564465736305,54.86564465736305 0 0,0 -0.9275752714650162,-0.17777200842401825 l 6.660454199485977 -33.20422018231014" fill="#73ff27" stroke="none" /><path d="M 95.51606077576429 120.51570834832081 l -9.675261989336052 44.267962441138145 a66.31294730264528,66.31294730264528 0 0,0 -1.1130465599312087,-0.2533257732718539 l 10.435828698660123 -44.09485993428861" fill="#36ff6e" stroke="none" /><path d="M 93.42475214034765 119.94407469862007 l -5.893117986329426 17.875034954705082 a39.82141637158925,39.82141637158925 0 0,0 -0.6491464810144798,-0.22022573118488376 l 6.199934200281132 -17.770946236622073" fill="#ffd513" stroke="none" /><path d="M 92.7421414339146 119.70592522655815 l -3.210635442489259 8.71724646923718 a30.28970214538638,30.28970214538638 0 0,0 -0.48770715712648954,-0.18440911538269117 l 3.3602128203760313 -8.660689103747856" fill="#ff5107" stroke="none" /><path d="M 91.40352486487194 119.15986991738527 l -5.376266807558346 11.982652314440703 a34.13347635909186,34.13347635909186 0 0,0 -0.533997114270374,-0.24513188425701218 l 5.581731917596139 -11.888333359849616" fill="#ff880c" stroke="none" /><path d="M 90.42595943632237 118.69057910512821 l -4.739137259315444 9.251811630226797 a31.394971880858154,31.394971880858154 0 0,0 -0.478861671826844,-0.2505177942995085 l 4.8976898336687835 -9.168864416982572" fill="#ff6109" stroke="none" /><line stroke="#e1ed5e" stroke-width="0.3" x1="58.666819895761336" x2="56.23545636021788" y1="174.27360380694188" y2="178.64263932499728" /><path d="M 58.180547188652646 175.14741091055294 a86.0,86.0 0 0,1 -31.652253787137756,-30.449443065178592" fill="none" id="id80" stroke="none" /><text fill="#e1ed5e" style="font-size:6.75px; font-family:Arial;" text-anchor="middle"><textPath startOffset="22.20632615414155" xlink:href="#id80">August</textPath></text><path d="M 89.7882731507175 118.34994917583269 l -18.287581101517453 32.86184488819757 a58.60766506977713,58.60766506977713 0 0,0 -0.8773043705977777,-0.4981563178630324 l 18.85053423903644 -32.5421854045399" fill="#4aff2c" stroke="none" /><path d="M 89.1626897886671 117.98757091392108 l -5.842202483414334 9.696781711942549 a32.32072901478858,32.32072901478858 0 0,0 -0.4740693719002963,-0.2912121281006034 l 6.008251055246938 -9.594781117013568" fill="#ff6e0a" stroke="none" /><path d="M 88.24862548938628 117.40417183066458 l -8.751775586375656 12.961667249318433 a36.63964174130389,36.63964174130389 0 0,0 -0.5196602401205305,-0.3574270516699527 l 8.973592711119077 -12.809099408283378" fill="#ffab0f" stroke="none" /><path d="M 87.07902340077011 116.55440617244103 l -30.07600578620074 38.53349721716306 a69.88145386377838,69.88145386377838 0 0,0 -0.9418772340076236,-0.7482842387608992 l 30.73484051292572 -38.01007906439703" fill="#3bff98" stroke="none" /><path d="M 85.70375840098266 115.38237550388516 l -20.622065825320053 22.18879402630651 a51.2921141428869,51.2921141428869 0 0,0 -0.6415523982701126,-0.6066278362460613 l 21.000954057980984 -21.83053155331452" fill="#9bff22" stroke="none" /><path d="M 85.18274418774928 114.88116024355367 l -4.226720650901271 4.244949814445096 a26.990389502187043,26.990389502187043 0 0,0 -0.3264029736896723,-0.3306444890762901 l 4.299164249646476 -4.1715648313881415" fill="#ff2003" stroke="none" /><path d="M 84.67929136418377 114.36230785411682 l -19.355680091805667 18.144868022255338 a47.53071026869402,47.53071026869402 0 0,0 -0.554419914801471,-0.6017133182539606 l 19.665146414602866 -17.80900344920003" fill="#c7ff1e" stroke="none" /><path d="M 84.19399662182784 113.82643327865904 l -29.681498649511955 25.96413849024138 a60.435109352218284,60.435109352218284 0 0,0 -0.6781898192266342,-0.7888879756247716 l 30.124030978309367 -25.449373415455078" fill="#37ff2e" stroke="none" /><path d="M 82.05923443525364 110.91462005526583 l -3.683336809803925 2.2408308981854272 a25.311414288689857,25.311414288689857 0 0,0 -0.22324561854239983,-0.3741724977410499 l 3.721363304044557 -2.1770963065582665" fill="#ff0701" stroke="none" /><line stroke="#e1ed5e" stroke-width="0.3" x1="26.63291911575756" x2="22.317208475507996" y1="142.92168965132927" y2="145.44649492493687" /><path d="M 25.769776987707644 143.4266507060508 a86.0,86.0 0 0,1 -11.730757126820373,-40.83630448921669" fill="none" id="id81" stroke="none" /><text fill="#e1ed5e" style="font-size:6.75px; font-family:Arial;" text-anchor="middle"><textPath startOffset="21.46611528233685" xlink:href="#id81">September</textPath></text><path d="M 81.51974371655577 109.97397251340807 l -3.3941819589425575 1.8318727318909895 a24.856971464278274,24.856971464278274 0 0,0 -0.19997728485787597,-0.37828165954361737 l 3.4252117520253194 -1.773176057261246" fill="#ff0000" stroke="none" /><path d="M 81.18737489456691 109.33194174019688 l -27.666331140115243 13.723793937188896 a51.8831410122891,51.8831410122891 0 0,0 -0.38998023073281657,-0.8034747836384234 l 27.89846462746278 -13.245530197585188" fill="#94ff23" stroke="none" /><path d="M 80.73074385275274 108.34839909993369 l -17.29774525689514 7.494242633448791 a39.85141012289107,39.85141012289107 0 0,0 -0.2672872387577232,-0.6317880770493309 l 17.42418347684517 -7.195380030733301" fill="#ffd614" stroke="none" /><path d="M 80.45479744820244 107.68017299344265 l -35.08292614339132 13.785630575245005 a58.69423453447198,58.69423453447198 0 0,0 -0.3614047752470208,-0.943513825790721 l 35.31502519823185 -13.179693182621126" fill="#49ff2c" stroke="none" /><path d="M 79.18660465613746 102.79330883721812 l -19.49069468710351 2.615792801392247 a40.665440533222245,40.665440533222245 0 0,0 -0.08713730713366899,-0.6945700730165711 l 19.532833503484024 -2.279904974088267" fill="#ffe015" stroke="none" /><line stroke="#e1ed5e" stroke-width="0.3" x1="15.007084014347285" x2="10.007500721073583" y1="101.09737516637583" y2="101.16192664675087" /><path d="M 14.007167355692545 101.11028546245083 a86.0,86.0 0 0,1 10.666146001902534,-42.60595125391555" fill="none" id="id82" stroke="none" /><text fill="#e1ed5e" style="font-size:6.75px; font-family:Arial;" text-anchor="middle"><textPath startOffset="22.20632615414155" xlink:href="#id82">October</textPath></text><path d="M 79.16333360222342 97.38593545837743 l -37.928821339327136 -4.758361298103429 a59.22613622162049,59.22613622162049 0 0,0 0.13561093285148856,-1.0104589656469771 l 37.84129440741782 5.4105386058150655" fill="#44ff2d" stroke="none" /><path d="M 79.3925641242962 95.95851677861259 l -29.99799305817444 -5.88313783195346 a51.56944386586128,51.56944386586128 0 0,0 0.1783337772767148,-0.8696188319531607 l 29.892279984982732 6.398632320070023" fill="#98ff23" stroke="none" /><path d="M 79.71946130924805 94.55025226153421 l -29.342289145453794 -7.884804065128955 a51.38322016246615,51.38322016246615 0 0,0 0.2368845467918111,-0.8521997512629926 l 29.202217828095623 8.38871511981089" fill="#9aff23" stroke="none" /><path d="M 79.91906864156998 93.8553929516997 l -14.692523213822849 -4.495796538793111 a36.36497396375755,36.36497396375755 0 0,0 0.1883091191176513,-0.5969913677101517 l 14.612958610936992 4.748038072929678" fill="#ffa70f" stroke="none" /><path d="M 80.14247586403 93.16781622104843 l -7.873250994004966 -2.7088723327505324 a29.326227869193918,29.326227869193918 0 0,0 0.16834221052861095,-0.475926098370255 l 7.825455702666545 2.8439960575473986" fill="#ff4306" stroke="none" /><path d="M 80.2630227832202 92.82701384747504 l -39.29793256872749 -14.28200088809408 a62.81271401791293,62.81271401791293 0 0,0 0.3780589921725567,-1.0130101399171363 l 39.046268988053306 14.956334165040557" fill="#31ff43" stroke="none" /><path d="M 80.803312248108 91.48605970444005 l -14.398184130777688 -6.38575162748261 a36.75073109768798,36.75073109768798 0 0,0 0.2614511464713088,-0.5760729445867697 l 14.286130667343027 6.632646580911451" fill="#ffac0f" stroke="none" /><path d="M 81.10775173730289 90.83032412892265 l -6.950629423615053 -3.3736068904180363 a28.726090397833783,28.726090397833783 0 0,0 0.219740894733672,-0.44298423501192963 l 6.891528515927968 3.4927507139289276" fill="#ff3a05" stroke="none" /><path d="M 81.6062741919709 89.86733742301443 l -35.37197705168993 -19.48557415100747 a61.38396167465111,61.38396167465111 0 0,0 0.5177952265648922,-0.921099930914941 l 35.03132418383261 20.091557591857192" fill="#30ff31" stroke="none" /><line stroke="#e1ed5e" stroke-width="0.3" x1="26.266209847984243" x2="21.928928074336255" y1="57.711370442889674" y2="55.22380399835377" /><path d="M 25.398753493254645 57.213857153982495 a86.0,86.0 0 0,1 29.58750427330803,-30.492523968695096" fill="none" id="id83" stroke="none" /><text fill="#e1ed5e" style="font-size:6.75px; font-family:Arial;" text-anchor="middle"><textPath startOffset="21.46611528233685" xlink:href="#id83">November</textPath></text><path d="M 83.39014120810768 87.1503855733568 l -17.894343994719858 -13.843309785517596 a43.623986669443866,43.623986669443866 0 0,0 0.4645869812782916,-0.5899782866768053 l 17.653402932847595 14.149280466147449" fill="#f8ff18" stroke="none" /><path d="M 83.84228863543731 86.58626213691792 l -11.645610247799603 -9.667901573128148 a36.1356717350552,36.1356717350552 0 0,0 0.4014318423953187,-0.47516868327502904 l 11.477467791917158 9.866929206032292" fill="#ffa40f" stroke="none" /><path d="M 84.07557802195018 86.31012108654704 l -14.68471754942684 -12.62413200347323 a40.365165590501974,40.365165590501974 0 0,0 0.45748751612224425,-0.5229873156413252 l 14.465238169726751 12.8750348753175" fill="#ffdc14" stroke="none" /><path d="M 84.5562425177563 85.77008943001954 l -34.09913823989892 -31.419017569075926 a67.36707769214746,67.36707769214746 0 0,0 0.7931115728025702,-0.8460361277605595 l 33.553259345125895 32.001323113714534" fill="#37ff7b" stroke="none" /><path d="M 85.05521093208273 85.24692304244772 l -5.465585116108275 -5.395472459969287 a28.680087481774628,28.680087481774628 0 0,0 0.34984817432858356,-0.348345815086633 l 5.371901141612378 5.48875412570603" fill="#ff3a05" stroke="none" /><path d="M 85.57189188830299 84.74124197986013 l -10.405779795890773 -11.004857649190589 a36.14553218079567,36.14553218079567 0 0,0 0.45576437892923877,-0.4235833192183362 l 10.214807533166677 11.182345554483572" fill="#ffa40f" stroke="none" /><path d="M 87.22198572758235 83.33499621200491 l -19.388765031195412 -25.286702284163578 a52.86442407831702,52.86442407831702 0 0,0 0.7268955134267439,-0.5474826305886294 l 18.95062336401028 25.616701504258064" fill="#89ff24" stroke="none" /><path d="M 87.80319425747018 82.90503203632743 l -15.471125654492624 -21.684234627372764 a47.63760049989585,47.63760049989585 0 0,0 0.6716195282368105,-0.4705123999063993 l 15.095574986672155 21.947331870043104" fill="#c6ff1e" stroke="none" /><path d="M 88.70189139769569 82.29822771554957 l -8.539268286012886 -13.379246739051474 a36.87209331389294,36.87209331389294 0 0,0 0.5379477715866808,-0.3368628452161576 l 8.307701362053962 13.524253925590562" fill="#ffae10" stroke="none" /><line stroke="#e1ed5e" stroke-width="0.3" x1="56.762969772571076" x2="54.21961505331055" y1="26.818313649435495" y2="22.513508569990535" /><path d="M 56.25429882871897 25.957352633546506 a86.0,86.0 0 0,1 42.265352541879196,-11.944610805530505" fill="none" id="id84" stroke="none" /><text fill="#e1ed5e" style="font-size:6.75px; font-family:Arial;" text-anchor="middle"><textPath startOffset="22.20632615414155" xlink:href="#id84">December</textPath></text><path d="M 89.3179101791058 81.91981866633112 l -3.879289265732575 -6.56596738524043 a28.62632368256613,28.62632368256613 0 0,0 0.42640036121009883,-0.24699861145180083 l 3.765692172057156 6.631770154082279" fill="#ff3905" stroke="none" /><path d="M 89.94658935756843 81.56283822128135 l -11.010373762523388 -20.19215662464019 a43.998946052905644,43.998946052905644 0 0,0 0.6680610426906112,-0.3568550725862721 l 10.661167673304472 20.378690423728212" fill="#f3ff19" stroke="none" /><path d="M 90.91171255644093 81.06846463323043 l -13.948653917719092 -29.056017055146697 a53.230685273901265,53.230685273901265 0 0,0 0.8294400023368363,-0.38943320267333875 l 13.446435704082647 29.291815240460043" fill="#85ff25" stroke="none" /><path d="M 92.23578459929587 80.48803036053334 l -11.831280864780897 -29.732765143104064 a53.0002582795251,53.0002582795251 0 0,0 0.8505704428364403,-0.3300081174158626 l 11.31772725694478 29.93201596441048" fill="#87ff25" stroke="none" /><path d="M 93.25333710446033 80.11325718540243 l -5.310697921218202 -15.654033017583636 a37.530343678400335,37.530343678400335 0 0,0 0.6135624605686113,-0.20228189658233994 l 5.040452638407182 15.743128638425208" fill="#ffb710" stroke="none" /><path d="M 95.692805502759 79.44645832069477 l -5.012730052914878 -23.92029339183262 a45.43988335763383,45.43988335763383 0 0,0 0.766924810087651,-0.15383790204955997 l 4.60023883336009 24.00303524995939" fill="#e1ff1b" stroke="none" /><path d="M 96.40284397218896 79.31037775812273 l -4.09347514798237 -23.544281597316626 a44.89748385752968,44.89748385752968 0 0,0 0.7625533909443656,-0.12582784331539967 l 3.6875925508991187 23.611255703571654" fill="#e8ff1a" stroke="none" /><path d="M 98.55514903715128 79.0497635885617 l -0.8670498736035254 -12.572161627443602 a33.60202457821287,33.60202457821287 0 0,0 0.577375509697284,-0.034828867489061076 l 0.6505123150666184 12.58522376431297" fill="#ff810b" stroke="none" /></svg>